<?xml version="1.0" encoding="UTF-8" standalone="no"?>
<!-- Created with Inkscape (http://www.inkscape.org/) -->

<svg
   xmlns:dc="http://purl.org/dc/elements/1.1/"
   xmlns:cc="http://creativecommons.org/ns#"
   xmlns:rdf="http://www.w3.org/1999/02/22-rdf-syntax-ns#"
   xmlns:svg="http://www.w3.org/2000/svg"
   xmlns="http://www.w3.org/2000/svg"
   xmlns:sodipodi="http://sodipodi.sourceforge.net/DTD/sodipodi-0.dtd"
   xmlns:inkscape="http://www.inkscape.org/namespaces/inkscape"
   width="210mm"
   height="297mm"
   id="svg3141"
   version="1.1"
   inkscape:version="0.48.4 r9939"
   sodipodi:docname="arbre.svg">
  <defs
     id="defs3143" />
  <sodipodi:namedview
     id="base"
     pagecolor="#ffffff"
     bordercolor="#666666"
     borderopacity="1.0"
     inkscape:pageopacity="0.0"
     inkscape:pageshadow="2"
     inkscape:zoom="0.89903352"
     inkscape:cx="247.20852"
     inkscape:cy="302.82899"
     inkscape:document-units="px"
     inkscape:current-layer="layer1"
     showgrid="false"
     inkscape:window-width="1600"
     inkscape:window-height="838"
     inkscape:window-x="-8"
     inkscape:window-y="-8"
     inkscape:window-maximized="1" />
  <metadata
     id="metadata3146">
    <rdf:RDF>
      <cc:Work
         rdf:about="">
        <dc:format>image/svg+xml</dc:format>
        <dc:type
           rdf:resource="http://purl.org/dc/dcmitype/StillImage" />
        <dc:title></dc:title>
      </cc:Work>
    </rdf:RDF>
  </metadata>
  <g
     inkscape:label="Calque 1"
     inkscape:groupmode="layer"
     id="layer1">
    <path
       style="fill:none;stroke:#000000;stroke-width:0.64200681px;stroke-linecap:butt;stroke-linejoin:miter;stroke-opacity:1"
       d="m 300.42825,43.779926 c -62.30285,0.57612 -99.66194,7.587835 -120.94664,76.968624"
       id="path3113"
       inkscape:connector-curvature="0"
       sodipodi:nodetypes="cc" />
    <path
       style="fill:none;stroke:#000000;stroke-width:0.64200681px;stroke-linecap:butt;stroke-linejoin:miter;stroke-opacity:1"
       d="M 230.93659,120.2454 C 100.01441,98.999831 79.109602,232.38256 103.81814,235.05039"
       id="path3115"
       inkscape:connector-curvature="0"
       sodipodi:nodetypes="cc" />
    <path
       style="fill:none;stroke:#000000;stroke-width:0.64200681px;stroke-linecap:butt;stroke-linejoin:miter;stroke-opacity:1"
       d="M 185.51273,240.00428 C 82.958826,183.71728 17.838345,323.68833 71.734164,363.17226"
       id="path3117"
       inkscape:connector-curvature="0"
       sodipodi:nodetypes="cc" />
    <path
       style="fill:none;stroke:#000000;stroke-width:0.64200681px;stroke-linecap:butt;stroke-linejoin:miter;stroke-opacity:1"
       d="m 144.09641,329.97769 c -47.431483,6.27543 -110.81461,43.73037 -98.542309,109.9675 24.449026,93.23953 92.186929,51.1287 105.683049,35.70371"
       id="path3119"
       inkscape:connector-curvature="0"
       sodipodi:nodetypes="ccc" />
    <path
       style="fill:none;stroke:#000000;stroke-width:0.64200681px;stroke-linecap:butt;stroke-linejoin:miter;stroke-opacity:1"
       d="m 79.238126,491.18527 c 4.256102,47.33549 39.817014,80.03943 98.885544,87.26823 84.52122,2.35013 123.42653,-50.00442 128.71239,-74.4162"
       id="path3121"
       inkscape:connector-curvature="0"
       sodipodi:nodetypes="ccc" />
    <path
       style="fill:none;stroke:#000000;stroke-width:0.64200681px;stroke-linecap:butt;stroke-linejoin:miter;stroke-opacity:1"
       d="m 246.6365,566.04625 0.28663,226.65182 c -11.02101,104.3912 -63.40113,161.5187 -124.24896,194.2283 52.59099,-6.2729 100.69714,-19.4769 138.53047,-48.5571 -13.1318,30.063 -27.96338,59.5079 -55.69782,84.26093 38.95788,-14.3597 67.2377,-39.39753 94.25784,-65.69493 16.985,45.11933 46.43327,73.77113 111.72736,85.34243 -37.06119,-23.606 -44.31035,-60.42453 -54.77461,-98.94573 31.93034,35.9978 61.66155,56.81013 112.05895,63.76183 C 369.7081,962.27067 370.50425,868.99877 359.74698,819.83297 351.2382,717.27941 344.00657,659.37536 358.38759,564.90059"
       id="path3123"
       inkscape:connector-curvature="0"
       sodipodi:nodetypes="ccccccccccc" />
    <path
       style="fill:none;stroke:#000000;stroke-width:0.64200681px;stroke-linecap:butt;stroke-linejoin:miter;stroke-opacity:1"
       d="m 300.39465,43.782174 c 62.30285,0.57612 101.39474,7.649282 122.67944,77.030066"
       id="path3113-7"
       inkscape:connector-curvature="0"
       sodipodi:nodetypes="cc" />
    <path
       style="fill:none;stroke:#000000;stroke-width:0.64200681px;stroke-linecap:butt;stroke-linejoin:miter;stroke-opacity:1"
       d="M 371.91405,120.30909 C 502.83622,99.063515 523.74103,232.44625 499.03249,235.11408"
       id="path3115-4"
       inkscape:connector-curvature="0"
       sodipodi:nodetypes="cc" />
    <path
       style="fill:none;stroke:#000000;stroke-width:0.64200681px;stroke-linecap:butt;stroke-linejoin:miter;stroke-opacity:1"
       d="m 417.33791,240.06797 c 102.5539,-56.287 167.67438,83.68405 113.77856,123.16798"
       id="path3117-0"
       inkscape:connector-curvature="0"
       sodipodi:nodetypes="cc" />
    <path
       style="fill:none;stroke:#000000;stroke-width:0.64200681px;stroke-linecap:butt;stroke-linejoin:miter;stroke-opacity:1"
       d="m 458.75423,330.04138 c 47.43148,6.27543 110.8146,43.73037 98.5423,109.9675 -24.44902,93.23953 -92.18693,51.1287 -105.68304,35.70371"
       id="path3119-9"
       inkscape:connector-curvature="0"
       sodipodi:nodetypes="ccc" />
    <path
       style="fill:none;stroke:#000000;stroke-width:0.64200681px;stroke-linecap:butt;stroke-linejoin:miter;stroke-opacity:1"
       d="m 523.26491,491.10992 c -4.2561,47.33549 -46.49086,75.59021 -105.55938,82.81901 -84.52122,2.35013 -107.42843,-46.1461 -110.90679,-70.00173"
       id="path3121-4"
       inkscape:connector-curvature="0"
       sodipodi:nodetypes="ccc" />
    <path
       style="color:#000000;fill:#44aa00;stroke:#000000;stroke-width:1.11230564px;stroke-linecap:butt;stroke-linejoin:miter;stroke-miterlimit:4;stroke-opacity:1;stroke-dasharray:none;stroke-dashoffset:0;marker:none;visibility:visible;display:inline;overflow:visible;enable-background:accumulate"
       d="m 169.91051,576.31158 c -13.56979,-2.48185 -24.9273,-6.00828 -35.57677,-11.04636 -21.81763,-10.32155 -35.645974,-23.26487 -45.204105,-42.31102 -3.250351,-6.47685 -8.544491,-23.1959 -8.544491,-26.98376 0,-0.56783 2.878091,-0.0576 6.395757,1.13377 17.070349,5.7816 43.428279,-1.4776 60.216039,-16.584 7.01912,-6.31612 5.28428,-7.14195 -1.97906,-0.94209 -12.48645,10.65824 -29.43178,17.55038 -43.49893,17.69225 -9.105257,0.0919 -20.55692,-2.90682 -21.613213,-5.65948 -0.339452,-0.88461 -1.137929,-1.28653 -1.774392,-0.89317 -0.636462,0.39336 -4.803016,-2.95355 -9.259008,-7.43756 -6.438634,-6.47913 -9.150565,-10.32198 -13.210647,-18.71966 -8.149604,-16.85627 -10.193338,-24.96198 -10.236484,-40.59916 -0.04331,-15.69663 1.765144,-23.29982 8.690018,-36.53502 5.358991,-10.24239 17.175117,-23.48034 28.358708,-31.77108 14.579136,-10.80797 36.386308,-20.15814 55.023368,-23.59215 4.07086,-0.75008 7.40157,-1.80049 7.40157,-2.33424 0,-2.29813 -25.34345,4.27908 -38.10018,9.88788 -10.917412,4.80012 -22.474238,11.60984 -29.360622,17.30042 -2.794708,2.30941 -5.584951,4.19893 -6.200539,4.19893 -2.301124,0 -9.043871,-8.60573 -12.636926,-16.12843 -13.838112,-28.97257 1.505273,-77.05318 31.933073,-100.06671 25.809764,-19.52074 55.257984,-22.16712 86.425794,-7.76671 9.19649,4.24904 9.0947,4.21675 9.0947,2.88521 0,-0.87672 -10.57569,-6.00397 -18.35304,-8.89783 -17.98224,-6.69095 -46.22654,-5.94031 -60.84068,1.61695 -2.95479,1.52799 -3.55286,1.52487 -5.92722,-0.0308 -8.135132,-5.33035 -6.251609,-32.03045 3.76783,-53.41138 16.33653,-34.86129 45.7666,-55.36113 85.66562,-59.67138 10.72115,-1.1582 17.27964,-1.01799 35.7305,0.76384 5.31543,0.51333 5.82595,0.39976 3.89307,-0.86601 -1.65257,-1.0822 -8.15923,-1.45792 -25.30371,-1.46116 -12.69351,-0.002 -23.07966,-0.36833 -23.08034,-0.81319 -0.003,-2.15689 6.19928,-16.86285 10.60699,-25.148483 15.32789,-28.813444 36.1177,-41.648525 74.01535,-45.695148 15.09265,-1.611557 52.00699,-1.617247 68.08527,-0.0105 16.92393,1.691261 31.3216,5.532159 42.24139,11.268827 16.55597,8.697603 30.62586,25.478662 39.14397,46.686724 6.20877,15.45838 8.37137,13.70742 -16.92986,13.70742 -19.88141,0 -29.31527,0.79637 -27.76759,2.34404 0.31203,0.31203 6.88509,-0.0267 14.60681,-0.75268 37.03641,-3.48219 69.13264,7.02103 91.55371,29.96021 17.67443,18.08284 29.24408,43.4486 29.22974,64.08435 -0.008,10.98129 -1.5157,16.75138 -4.96961,19.01446 -2.39629,1.57012 -2.96365,1.56339 -6.12731,-0.0726 -11.85753,-6.13177 -35.80765,-7.97873 -51.48127,-3.9701 -12.23733,3.12979 -28.84797,10.22493 -27.37837,11.69453 0.34414,0.34415 4.48487,-1.15733 9.20162,-3.33661 17.61973,-8.14081 36.2323,-10.94399 51.91236,-7.81837 33.17452,6.61293 60.04055,34.37578 69.50682,71.82703 2.72913,10.79718 2.51828,28.69407 -0.44634,37.8878 -2.49663,7.74236 -9.85581,19.10533 -13.70908,21.16754 -1.8759,1.00396 -2.8581,0.79707 -5.22964,-1.10152 -17.30407,-13.85323 -38.51034,-23.76 -60.72517,-28.36852 -4.26332,-0.88443 -8.22583,-1.31489 -8.8056,-0.95659 -0.57975,0.35831 4.01299,1.78788 10.2061,3.1768 42.53482,9.53929 75.6385,35.9965 86.15641,68.85815 2.10162,6.56618 2.47766,10.1389 2.4,22.80226 -0.0861,14.04069 -0.32758,15.66643 -3.71736,25.02688 -1.9939,5.50591 -5.35927,13.33063 -7.4786,17.38826 -6.26844,12.00144 -18.48751,24.9871 -22.17905,23.57052 -0.88106,-0.33808 -1.55743,0.0832 -1.55743,0.9701 0,2.95709 -10.85407,5.91292 -21.13381,5.75525 -14.86366,-0.22798 -30.54015,-6.58897 -43.49893,-17.65038 -7.25717,-6.19461 -8.99344,-5.37657 -1.99958,0.94209 18.17824,16.4233 42.32024,22.34242 64.05681,15.7054 l 2.42985,-0.74193 -1.64365,7.04573 c -6.67126,28.59716 -31.43655,51.3681 -68.72803,63.19337 -18.25309,5.78812 -32.07707,7.6491 -49.61166,6.67869 -33.207,-1.83778 -54.62911,-10.16662 -73.01036,-28.3862 -7.54641,-7.48003 -9.89139,-10.71967 -14.08973,-19.46534 -2.77013,-5.77051 -5.38586,-12.24372 -5.81274,-14.38491 -0.42688,-2.14119 -1.21125,-4.64387 -1.74303,-5.56153 -0.77482,-1.33704 -1.11858,-1.1161 -1.73064,1.11231 -2.91657,10.61883 -16.31393,29.7886 -27.40951,39.21925 -22.62318,19.22848 -48.0494,29.17378 -81.71876,31.96376 -15.63196,1.29532 -16.41788,1.27798 -26.61618,-0.58723 l 0,3e-5 z"
       id="path3198"
       inkscape:connector-curvature="0" />
    <path
       style="color:#000000;fill:#a05a2c;stroke:#000000;stroke-width:1.11230564px;stroke-linecap:butt;stroke-linejoin:miter;stroke-miterlimit:4;stroke-opacity:1;stroke-dasharray:none;stroke-dashoffset:0;marker:none;visibility:visible;display:inline;overflow:visible;enable-background:accumulate"
       d="m 389.80338,1036.4587 c -25.36141,-7.2659 -42.84349,-16.5638 -57.7034,-30.6897 -10.5907,-10.06755 -17.33631,-19.62172 -24.96937,-35.36546 -3.77581,-7.7879 -7.11538,-14.16385 -7.42127,-14.16879 -0.30588,-0.004 -6.81287,5.78712 -14.45997,12.87124 -14.76084,13.67414 -33.51323,28.34073 -45.86424,35.87121 -8.6838,5.2946 -21.3075,11.7413 -25.32332,12.9321 -2.48468,0.7368 -2.29779,0.3082 1.75517,-4.0253 14.74987,-15.7708 25.47822,-31.93328 37.30789,-56.20511 7.83918,-16.08422 9.61175,-20.38852 8.39629,-20.38852 -0.20339,0 -5.26988,3.27625 -11.25888,7.28056 -26.96048,18.02608 -61.62166,30.69286 -103.31443,37.75581 -9.06716,1.53603 -17.02914,2.79277 -17.6933,2.79277 -0.66415,0 2.93232,-2.51444 7.99216,-5.58764 27.51168,-16.70984 52.85607,-40.90323 69.80333,-66.63327 17.98395,-27.30397 29.40676,-56.4647 37.28732,-95.18898 2.47096,-12.14206 2.49069,-13.06063 2.82448,-131.52048 l 0.33614,-119.29301 5.80611,-2.92636 c 22.02554,-11.10122 42.04209,-30.45287 50.41388,-48.73926 l 2.90248,-6.33986 2.48646,7.11582 c 7.1296,20.40364 19.40807,34.3062 40.20661,45.52479 7.66501,4.13445 8.30757,4.74928 7.77235,7.43689 -5.79348,29.09229 -8.83337,99.15617 -6.30443,145.30495 2.77769,50.68778 7.81239,103.5432 12.34339,129.5836 9.84614,56.5873 17.89298,80.69996 35.70188,106.98202 12.51887,18.47514 34.36235,38.21236 54.93696,49.63968 l 6.67383,3.7067 -5.00537,-0.6901 c -7.58346,-1.0455 -22.43366,-5.58707 -32.50174,-9.93992 -18.96769,-8.20052 -37.69165,-21.85965 -56.33729,-41.09806 -5.12005,-5.28281 -9.49976,-9.60512 -9.73267,-9.60512 -1.71518,0 7.3972,33.35966 12.88803,47.18202 7.54809,19.00118 18.25655,35.07548 29.57354,44.39218 7.63706,6.2873 6.31653,6.5693 -9.51862,2.0326 l 0,0 z"
       id="path3200"
       inkscape:connector-curvature="0" />
  </g>
</svg>
