<?xml version="1.0" encoding="UTF-8" standalone="no"?>
<!-- Created with Inkscape (http://www.inkscape.org/) -->

<svg
   xmlns:dc="http://purl.org/dc/elements/1.1/"
   xmlns:cc="http://creativecommons.org/ns#"
   xmlns:rdf="http://www.w3.org/1999/02/22-rdf-syntax-ns#"
   xmlns:svg="http://www.w3.org/2000/svg"
   xmlns="http://www.w3.org/2000/svg"
   xmlns:sodipodi="http://sodipodi.sourceforge.net/DTD/sodipodi-0.dtd"
   xmlns:inkscape="http://www.inkscape.org/namespaces/inkscape"
   width="210mm"
   height="297mm"
   id="svg3600"
   version="1.1"
   inkscape:version="0.48.4 r9939"
   sodipodi:docname="Nouveau document 11">
  <defs
     id="defs3602" />
  <sodipodi:namedview
     id="base"
     pagecolor="#ffffff"
     bordercolor="#666666"
     borderopacity="1.0"
     inkscape:pageopacity="0.0"
     inkscape:pageshadow="2"
     inkscape:zoom="0.35"
     inkscape:cx="375"
     inkscape:cy="520"
     inkscape:document-units="px"
     inkscape:current-layer="layer1"
     showgrid="false"
     inkscape:window-width="1600"
     inkscape:window-height="838"
     inkscape:window-x="-8"
     inkscape:window-y="-8"
     inkscape:window-maximized="1" />
  <metadata
     id="metadata3605">
    <rdf:RDF>
      <cc:Work
         rdf:about="">
        <dc:format>image/svg+xml</dc:format>
        <dc:type
           rdf:resource="http://purl.org/dc/dcmitype/StillImage" />
        <dc:title></dc:title>
      </cc:Work>
    </rdf:RDF>
  </metadata>
  <g
     inkscape:label="Calque 1"
     inkscape:groupmode="layer"
     id="layer1">
    <path
       style="fill:none;stroke:#000000;stroke-width:0.41568652px;stroke-linecap:butt;stroke-linejoin:miter;stroke-opacity:1"
       d="m 15.370049,534.29531 c 74.90804,-7.98336 128.921291,50.89658 190.494551,85.5845 58.4763,31.75806 114.51986,71.85692 182.76434,70.12408"
       id="path3578"
       inkscape:connector-curvature="0"
       sodipodi:nodetypes="ccc" />
    <path
       style="fill:none;stroke:#000000;stroke-width:0.41568652px;stroke-linecap:butt;stroke-linejoin:miter;stroke-opacity:1"
       d="m 322.09389,678.99524 c 61.11036,-2.54592 110.22408,-31.2386 194.08359,-62.98053 49.66835,-20.20202 86.74817,-62.1115 198.77689,-0.55216"
       id="path3580"
       inkscape:connector-curvature="0"
       sodipodi:nodetypes="ccc" />
    <path
       style="fill:none;stroke:#000000;stroke-width:0.41568652px;stroke-linecap:butt;stroke-linejoin:miter;stroke-opacity:1"
       d="M 576.56975,589.097 C 548.72254,539.75768 547.80258,498.98611 493.02811,441.07903 479.92052,425.32504 462.25467,408.52762 441.98126,392.67617 401.74351,360.99191 408.09517,352.26168 329.14561,401.91263 238.60922,468.40867 205.864,522.86488 148.64722,582.41933"
       id="path3582"
       inkscape:connector-curvature="0"
       sodipodi:nodetypes="ccccc" />
    <path
       style="fill:none;stroke:#000000;stroke-width:0.41568652px;stroke-linecap:butt;stroke-linejoin:miter;stroke-opacity:1"
       d="m 312.53465,414.44248 c 3.19003,20.96514 8.33538,16.1366 8.97257,8.55845 3.72565,22.53375 8.49122,14.80932 8.21335,1.31138 15.64896,29.52956 10.96576,8.49842 10.04237,6.03923 14.97731,24.81021 13.18276,9.83305 11.8714,4.5553 19.04969,24.57883 15.99254,9.68994 13.942,3.03688 21.74698,23.23946 20.52627,6.37377 21.25808,3.31294 9.31327,16.6418 18.16548,13.70875 11.8714,1.93256 26.38416,22.72755 17.86293,4.8428 17.1169,-0.6902 30.78164,15.05327 11.09864,-0.96184 9.93885,-2.07059 14.88326,6.76988 39.82686,17.72374 24.70905,-1.79452 16.66887,10.0786 29.2167,8.86749 14.77026,-0.69019 7.70882,1.51458 23.05584,10.83527 14.77021,-4.00315 7.92764,4.4246 8.32296,2.71823 5.09021,-1.94118"
       id="path3584"
       inkscape:connector-curvature="0"
       sodipodi:nodetypes="cccccccccccccc" />
  </g>
</svg>
