<?xml version="1.0" encoding="UTF-8" standalone="no"?>
<!-- Created with Inkscape (http://www.inkscape.org/) -->

<svg
   xmlns:dc="http://purl.org/dc/elements/1.1/"
   xmlns:cc="http://creativecommons.org/ns#"
   xmlns:rdf="http://www.w3.org/1999/02/22-rdf-syntax-ns#"
   xmlns:svg="http://www.w3.org/2000/svg"
   xmlns="http://www.w3.org/2000/svg"
   xmlns:sodipodi="http://sodipodi.sourceforge.net/DTD/sodipodi-0.dtd"
   xmlns:inkscape="http://www.inkscape.org/namespaces/inkscape"
   width="210mm"
   height="297mm"
   id="svg3600"
   version="1.1"
   inkscape:version="0.48.4 r9939"
   sodipodi:docname="paysage.svg">
  <defs
     id="defs3602" />
  <sodipodi:namedview
     id="base"
     pagecolor="#ffffff"
     bordercolor="#666666"
     borderopacity="1.0"
     inkscape:pageopacity="0.0"
     inkscape:pageshadow="2"
     inkscape:zoom="1.2714254"
     inkscape:cx="460.15353"
     inkscape:cy="547.82818"
     inkscape:document-units="px"
     inkscape:current-layer="layer1"
     showgrid="false"
     inkscape:window-width="1600"
     inkscape:window-height="838"
     inkscape:window-x="-8"
     inkscape:window-y="-8"
     inkscape:window-maximized="1" />
  <metadata
     id="metadata3605">
    <rdf:RDF>
      <cc:Work
         rdf:about="">
        <dc:format>image/svg+xml</dc:format>
        <dc:type
           rdf:resource="http://purl.org/dc/dcmitype/StillImage" />
        <dc:title></dc:title>
      </cc:Work>
    </rdf:RDF>
  </metadata>
  <g
     inkscape:label="Calque 1"
     inkscape:groupmode="layer"
     id="layer1">
    <path
       style="fill:none;stroke:#000000;stroke-width:0.44537842px;stroke-linecap:butt;stroke-linejoin:miter;stroke-opacity:1"
       d="m -4.2780755,521.58151 c 80.2586135,-8.5536 138.1299555,54.53204 204.1013055,91.69768 62.65318,34.02649 122.69985,76.98955 195.81893,75.13294"
       id="path3578"
       inkscape:connector-curvature="0"
       sodipodi:nodetypes="ccc" />
    <path
       style="fill:none;stroke:#000000;stroke-width:0.44537842px;stroke-linecap:butt;stroke-linejoin:miter;stroke-opacity:1"
       d="m 324.35461,676.61715 c 65.47538,-2.72777 118.09723,-33.46993 207.94671,-67.47915 53.21608,-21.64502 92.94445,-66.54803 212.97523,-0.59159"
       id="path3580"
       inkscape:connector-curvature="0"
       sodipodi:nodetypes="ccc" />
    <path
       style="fill:none;stroke:#000000;stroke-width:0.44537842px;stroke-linecap:butt;stroke-linejoin:miter;stroke-opacity:1"
       d="m 597.00732,580.2976 c -29.8363,-52.86356 -30.82197,-96.54738 -89.5089,-158.59068 -14.04385,-16.87927 -32.97154,-34.87651 -54.69305,-51.8602 -43.11188,-33.94743 -36.30653,-43.30124 -120.89535,9.8962 -97.00327,71.24576 -132.08744,129.59169 -193.39112,193.40004"
       id="path3582"
       inkscape:connector-curvature="0"
       sodipodi:nodetypes="ccccc" />
    <path
       style="fill:none;stroke:#000000;stroke-width:0.44537842px;stroke-linecap:butt;stroke-linejoin:miter;stroke-opacity:1"
       d="m 314.11256,393.16776 c 3.4179,22.46265 8.93078,17.28922 9.61347,9.16977 3.99177,24.1433 9.09774,15.86713 8.80002,1.40505 16.76674,31.63882 11.74904,9.10545 10.75968,6.4706 16.04713,26.58237 14.12439,10.53541 12.71937,4.88068 20.41037,26.33446 17.13486,10.38208 14.93785,3.2538 23.30033,24.89942 21.99243,6.82904 22.77651,3.54958 9.97851,17.8305 19.46302,14.68795 12.71936,2.0706 28.26875,24.35094 19.13885,5.18871 18.33954,-0.7395 32.98032,16.1285 11.89139,-1.03055 10.64877,-2.21849 15.94634,7.25344 42.67163,18.98972 26.47398,-1.9227 17.8595,10.7985 31.3036,9.50088 15.82528,-0.73949 8.25945,1.62277 24.70268,11.60921 15.82522,-4.28909 8.4939,4.74065 8.91746,2.91239 5.4538,-2.07983"
       id="path3584"
       inkscape:connector-curvature="0"
       sodipodi:nodetypes="cccccccccccccc" />
  </g>
  <g
     inkscape:groupmode="layer"
     id="layer2"
     inkscape:label="premier plan" />
</svg>
