<?xml version="1.0" encoding="UTF-8" standalone="no"?>
<!-- Created with Inkscape (http://www.inkscape.org/) -->

<svg
   xmlns:dc="http://purl.org/dc/elements/1.1/"
   xmlns:cc="http://creativecommons.org/ns#"
   xmlns:rdf="http://www.w3.org/1999/02/22-rdf-syntax-ns#"
   xmlns:svg="http://www.w3.org/2000/svg"
   xmlns="http://www.w3.org/2000/svg"
   xmlns:sodipodi="http://sodipodi.sourceforge.net/DTD/sodipodi-0.dtd"
   xmlns:inkscape="http://www.inkscape.org/namespaces/inkscape"
   width="210mm"
   height="297mm"
   id="svg3046"
   version="1.1"
   inkscape:version="0.48.4 r9939"
   sodipodi:docname="sac.svg">
  <defs
     id="defs3048" />
  <sodipodi:namedview
     id="base"
     pagecolor="#ffffff"
     bordercolor="#666666"
     borderopacity="1.0"
     inkscape:pageopacity="0.0"
     inkscape:pageshadow="2"
     inkscape:zoom="0.7"
     inkscape:cx="653.02563"
     inkscape:cy="656.69561"
     inkscape:document-units="px"
     inkscape:current-layer="layer1"
     showgrid="false"
     inkscape:window-width="1600"
     inkscape:window-height="838"
     inkscape:window-x="-8"
     inkscape:window-y="-8"
     inkscape:window-maximized="1"
     inkscape:snap-grids="false" />
  <metadata
     id="metadata3051">
    <rdf:RDF>
      <cc:Work
         rdf:about="">
        <dc:format>image/svg+xml</dc:format>
        <dc:type
           rdf:resource="http://purl.org/dc/dcmitype/StillImage" />
      </cc:Work>
    </rdf:RDF>
  </metadata>
  <g
     inkscape:label="Calque 1"
     inkscape:groupmode="layer"
     id="layer1"
     style="display:inline">
    <path
       style="fill:none;stroke:#000000;stroke-width:1.79842912999999990px;stroke-linecap:butt;stroke-linejoin:miter;stroke-opacity:1"
       d="m 329.18628,277.43709 c -47.62234,-10.68075 -156.27589,15.00324 -144.35062,41.6706 14.69579,35.60989 33.48138,77.15324 32.8249,110.20441 -1.38136,20.70297 -11.94691,39.81214 -29.04613,27.89521"
       id="path2995"
       inkscape:connector-curvature="0"
       sodipodi:nodetypes="cccc" />
    <path
       style="fill:none;stroke:#000000;stroke-width:1.79842912999999990px;stroke-linecap:butt;stroke-linejoin:miter;stroke-opacity:1"
       d="m 210.44623,383.94975 c -64.62168,24.7034 -74.32276,108.84692 -39.46196,144.37267 20.70717,17.7559 35.89497,32.15774 71.2781,48.81875 20.5532,10.45152 29.65142,9.67136 49.66111,1.93247"
       id="path2997"
       inkscape:connector-curvature="0"
       sodipodi:nodetypes="cccc" />
    <path
       style="fill:none;stroke:#000000;stroke-width:1.79842912999999990px;stroke-linecap:butt;stroke-linejoin:miter;stroke-opacity:1"
       d="m 236.04818,480.2317 c 17.37218,9.29044 40.0824,28.19475 38.67503,50.0616 2.35832,29.9471 3.57996,46.99315 39.11878,60.26415 39.16053,10.73334 78.1207,21.13269 111.74016,22.63093 58.47787,2.17071 89.71428,-0.85393 125.88452,-7.07216 45.38667,-8.65915 160.8185,-18.15233 98.30307,-106.78967 -11.85132,-19.91398 -15.19721,-46.56894 -9.08593,-61.62469"
       id="path2999"
       inkscape:connector-curvature="0"
       sodipodi:nodetypes="ccccccc" />
    <path
       style="fill:none;stroke:#000000;stroke-width:1.79842912999999990px;stroke-linecap:butt;stroke-linejoin:miter;stroke-opacity:1"
       d="m 462.35741,433.55541 c -48.30355,-4.87328 -152.11865,-22.11017 -207.64948,-72.72195 -35.79755,-33.71391 -42.98973,-60.85803 13.8722,-74.37905 293.55114,-62.92619 506.43466,173.21227 193.77728,147.101 z"
       id="path3001"
       inkscape:connector-curvature="0"
       sodipodi:nodetypes="cccc" />
    <path
       style="fill:none;stroke:#000000;stroke-width:1.79842912999999990px;stroke-linecap:butt;stroke-linejoin:miter;stroke-opacity:1"
       d="M 163.91211,519.83581 C 148.36124,568.87185 86.17744,603.918 46.514199,645.72033 8.5707464,694.525 3.2573634,750.2322 103.0915,828.18214 c 82.85486,46.51688 106.68525,31.25324 149.92988,26.87425"
       id="path3003"
       inkscape:connector-curvature="0"
       sodipodi:nodetypes="cccc" />
    <path
       style="fill:none;stroke:#000000;stroke-width:1.79842912999999990px;stroke-linecap:butt;stroke-linejoin:miter;stroke-opacity:1"
       d="m 204.93067,791.40689 c 27.13809,40.42306 52.1685,82.77814 110.32575,94.767 63.29586,11.25799 158.30374,19.89386 190.94841,8.48661 73.87329,-22.2739 111.67892,-41.54731 152.51606,-70.82218 58.11607,-38.56169 70.90019,-88.28177 53.68172,-122.5131 -20.74502,-41.49003 -75.61344,-65.91835 -62.23505,-124.47007"
       id="path3005"
       inkscape:connector-curvature="0"
       sodipodi:nodetypes="cccccc" />
    <path
       style="fill:none;stroke:#000000;stroke-width:1.79842912999999990px;stroke-linecap:butt;stroke-linejoin:miter;stroke-opacity:1"
       d="m 526.8909,305.90287 c 32.61173,4.5624 96.46013,38.24361 109.44174,44.201 36.25909,16.12037 31.56129,54.24688 16.26598,74.61134 -40.59792,35.2808 -35.50263,88.03071 -29.70309,88.75566 l 1.41443,0"
       id="path3027"
       inkscape:connector-curvature="0"
       sodipodi:nodetypes="ccccc" />
    <path
       style="color:#000000;fill:none;fill-opacity:1;stroke:#000000;stroke-width:1.81625426000000000;stroke-linecap:butt;stroke-linejoin:miter;stroke-miterlimit:4;stroke-opacity:1;stroke-dasharray:none;stroke-dashoffset:0;marker:none;visibility:visible;display:inline;overflow:visible;enable-background:accumulate"
       d="m 473.68903,432.93812 c -16.09267,-0.94907 -44.36272,-4.83988 -65.65991,-9.03681 C 343.62097,411.20875 293.76753,391.0318 261.557,364.62034 c -7.97552,-6.53963 -21.98146,-21.73713 -26.40328,-28.64955 -11.22599,-17.54906 -8.15412,-30.04678 9.73576,-39.6093 21.29651,-11.38344 88.18521,-20.68545 135.86552,-18.8944 62.17432,2.3355 112.94749,13.82328 158.88506,35.94885 43.16512,20.79023 71.16345,47.20593 74.86712,70.63519 3.1442,19.89008 -12.98429,35.51162 -44.85366,43.44384 -19.31616,4.80775 -33.63117,6.13021 -64.11452,5.9231 -14.73956,-0.10014 -29.07205,-0.31612 -31.84997,-0.47995 z"
       id="path4526"
       inkscape:connector-curvature="0" />
    <path
       style="color:#000000;fill:none;fill-opacity:1;stroke:#000000;stroke-width:1.81625426000000000;stroke-linecap:butt;stroke-linejoin:miter;stroke-miterlimit:4;stroke-opacity:1;stroke-dasharray:none;stroke-dashoffset:0;marker:none;visibility:visible;display:inline;overflow:visible;enable-background:accumulate"
       d="m 425.70679,897.68268 c -1.94455,-0.2134 -10.58135,-0.88442 -19.1929,-1.49114 -34.80705,-2.45227 -88.61362,-10.09084 -102.91495,-14.61016 -33.47581,-10.57858 -55.9247,-29.99045 -86.21532,-74.55161 -13.00668,-19.1344 -11.67565,-17.46427 -12.92374,-16.21619 -1.89426,1.89426 24.65167,39.2945 40.93451,57.67214 5.5108,6.21977 7.18395,5.33331 -15.6572,8.29535 -23.98821,3.11078 -28.9955,3.38329 -39.8038,2.16619 -21.0441,-2.36973 -41.09326,-9.13969 -69.51392,-23.47264 -13.26615,-6.69031 -17.86997,-9.657 -27.982093,-18.03156 C 72.102172,800.60205 53.105883,780.49679 41.803448,763.85322 35.670319,754.82179 29.153981,741.22388 26.102811,731.09007 22.342434,718.60078 22.088653,700.71725 25.502252,688.7697 c 3.154992,-11.04243 8.167279,-21.48276 15.864444,-33.04481 7.285193,-10.94321 18.258604,-21.45705 57.555742,-55.14529 23.892752,-20.48253 43.882032,-40.57378 51.785322,-52.0495 2.92505,-4.24725 7.19372,-11.63077 9.48591,-16.40783 l 4.16763,-8.68556 5.66636,5.54333 c 12.05389,11.79216 31.43065,26.87665 45.6593,35.54504 13.89819,8.46705 36.22465,19.08698 43.27021,20.58215 7.72629,1.63963 16.7576,0.94062 25.903,-2.00485 l 7.11594,-2.29184 4.39786,2.77624 c 8.32236,5.25368 16.92175,8.38519 38.50251,14.02089 33.98365,8.87464 57.36651,13.71593 76.68817,15.87785 16.95257,1.89684 78.97352,1.60805 98.86048,-0.46033 25.29338,-2.63068 68.83357,-9.73896 90.54312,-14.78189 16.79011,-3.90018 37.37975,-11.47825 44.00591,-16.1965 l 2.74763,-1.95648 -0.53271,10.43791 c -1.18286,23.17619 6.30333,40.13835 29.49108,66.8207 29.37804,33.80559 35.37658,42.76942 39.52783,59.06788 2.04428,8.02611 1.5146,26.6648 -1.01981,35.88646 -5.89826,21.46127 -23.81278,45.2119 -47.67421,63.20531 -41.84425,31.55388 -79.72483,50.76093 -138.77162,70.36308 -33.85796,11.24006 -35.46357,11.51186 -70.20561,11.88468 -16.11193,0.1729 -30.88541,0.13976 -32.82995,-0.0736 l 0,-2e-5 z"
       id="path4530"
       inkscape:connector-curvature="0" />
    <path
       style="color:#000000;fill:none;fill-opacity:1;stroke:#000000;stroke-width:1.81625426000000000;stroke-linecap:butt;stroke-linejoin:miter;stroke-miterlimit:4;stroke-opacity:1;stroke-dasharray:none;stroke-dashoffset:0;marker:none;visibility:visible;display:inline;overflow:visible;enable-background:accumulate"
       d="m 425.20171,611.79182 c -19.26693,-1.17923 -45.46278,-5.83538 -76.26652,-13.55588 -28.99513,-7.26722 -36.92549,-9.74598 -45.5715,-14.24413 -18.5566,-9.6542 -24.90187,-21.54397 -26.74039,-50.10604 -1.1362,-17.6513 -4.98538,-26.24846 -17.11115,-38.21785 -8.42547,-8.3168 -22.23209,-17.48676 -23.86705,-15.85181 -0.71731,0.71731 1.26726,2.53759 6.35469,5.82863 9.02854,5.84054 20.22417,16.40516 24.59816,23.21177 4.42938,6.89279 6.29489,13.41163 7.0824,24.74874 1.43235,20.62023 4.31205,30.92639 11.14118,39.87303 1.92748,2.52514 3.50451,4.75751 3.50451,4.96082 0,0.20331 -3.18198,1.39281 -7.07107,2.64332 -5.75099,1.84918 -8.62688,2.1856 -15.40482,1.80201 -7.28463,-0.41227 -9.73261,-1.10315 -19.44544,-5.48795 -26.67121,-12.04058 -54.30062,-30.8924 -73.77285,-50.33597 -7.82877,-7.81725 -14.01051,-18.82409 -17.31547,-30.83091 -2.87053,-10.42853 -2.60083,-36.12481 0.49829,-47.47717 2.78639,-10.20678 8.47969,-22.71704 14.07578,-30.92969 8.2063,-12.04327 22.76728,-24.3939 34.88192,-29.58684 l 4.44913,-1.90712 2.70504,11.48592 c 6.56068,27.85737 5.02073,45.79586 -4.86915,56.71957 -3.89762,4.30506 -4.76833,4.786 -8.48818,4.68846 -2.27978,-0.0598 -5.34818,-0.89701 -6.81866,-1.8605 -2.19276,-1.43676 -2.82523,-1.5065 -3.51662,-0.3878 -1.22511,1.98225 4.63615,4.81568 10.06929,4.86764 11.9231,0.11406 20.32384,-14.41728 20.3209,-35.15045 -0.003,-21.74258 -7.01455,-46.67264 -26.13775,-92.93556 -3.95775,-9.57459 -7.1959,-18.13337 -7.1959,-19.01951 0,-4.60269 8.0054,-12.39012 17.8409,-17.35512 13.41184,-6.77036 36.72142,-13.66499 58.42562,-17.28142 16.13415,-2.68833 39.84841,-4.41527 47.98224,-3.49419 l 6.566,0.74353 -13.13199,1.78603 c -46.30953,6.29836 -67.89663,14.59992 -74.83331,28.77798 -5.19911,10.6266 -1.97174,22.32058 10.4667,37.92479 35.94652,45.09548 114.68317,76.64912 221.95041,88.94642 15.49054,1.77586 73.79112,1.76324 86.36804,-0.0187 22.18642,-3.14344 33.07013,-6.13571 46.87089,-12.88622 29.52599,-14.44238 31.88152,-42.02452 6.00395,-70.30326 -10.69471,-11.68708 -22.91475,-21.06746 -42.26824,-32.44607 -6.03004,-3.54528 -8.88008,-5.67142 -7.07106,-5.27505 12.82685,2.81047 86.19718,36.66438 96.09085,44.33742 12.67802,9.83245 17.82795,24.23258 14.83476,41.48071 -1.97455,11.37834 -6.25126,19.62782 -15.05691,29.04372 -12.22804,13.07547 -19.16534,24.61156 -23.97617,39.87014 -6.25558,19.8409 -5.97461,45.82508 0.49552,45.82508 2.32243,0 2.34474,-0.81762 0.0904,-3.31263 -1.5158,-1.67765 -1.75036,-3.92061 -1.64562,-15.73692 0.10431,-11.76781 0.51379,-15.08653 2.80371,-22.72351 2.38534,-7.9552 9.53419,-24.03128 11.66313,-26.22765 0.44012,-0.45407 1.04489,5.22804 1.34394,12.6269 0.78025,19.30487 4.4002,30.00692 16.85085,49.81797 7.84824,12.48787 11.40553,22.43117 11.92583,33.33503 0.55795,11.6927 -1.70988,18.26011 -9.09624,26.34197 -13.78333,15.08116 -35.64284,23.54466 -83.13386,32.1875 -48.98828,8.91533 -66.31935,10.68069 -109.05315,11.10825 -18.33427,0.18344 -36.06245,0.16659 -39.39595,-0.0375 l -2e-5,4e-5 z"
       id="path4538"
       inkscape:connector-curvature="0" />
    <path
       style="color:#000000;fill:none;fill-opacity:1;stroke:#000000;stroke-width:0.32107142000000000;stroke-linecap:butt;stroke-linejoin:miter;stroke-miterlimit:4;stroke-opacity:1;stroke-dasharray:none;stroke-dashoffset:0;marker:none;visibility:visible;display:inline;overflow:visible;enable-background:accumulate"
       d="m 545.24184,313.08181 c -2.20982,-1.11556 -4.95729,-2.4553 -6.10549,-2.9772 -1.1482,-0.5219 -2.06111,-0.97545 -2.02868,-1.00787 0.13636,-0.13637 11.38528,3.16992 12.11664,3.56133 0.32715,0.17508 0.32626,0.1915 -0.0308,0.57158 -0.40322,0.42921 -0.3577,1.03599 0.11906,1.58708 0.14869,0.17187 0.19763,0.30819 0.10875,0.30293 -0.0889,-0.005 -1.96964,-0.92229 -4.17947,-2.03785 z"
       id="path4540"
       inkscape:connector-curvature="0" />
    <path
       style="color:#000000;fill:none;fill-opacity:1;stroke:#000000;stroke-width:0.32107142000000000;stroke-linecap:butt;stroke-linejoin:miter;stroke-miterlimit:4;stroke-opacity:1;stroke-dasharray:none;stroke-dashoffset:0;marker:none;visibility:visible;display:inline;overflow:visible;enable-background:accumulate"
       d=""
       id="path4542"
       inkscape:connector-curvature="0" />
    <path
       style="color:#000000;fill:none;fill-opacity:1;stroke:#000000;stroke-width:0.05675795000000000;stroke-linecap:butt;stroke-linejoin:miter;stroke-miterlimit:4;stroke-opacity:1;stroke-dasharray:none;stroke-dashoffset:0;marker:none;visibility:visible;display:inline;overflow:visible;enable-background:accumulate"
       d="m 501.58212,434.62845 c -2.61778,-0.0357 -7.2998,-0.15012 -10.16466,-0.24841 -1.55264,-0.0533 -5.26592,-0.19957 -5.46114,-0.21517 -0.32056,-0.0256 1.19819,-0.0166 4.37207,0.0259 11.01214,0.14752 24.03423,0.19967 29.19972,0.11694 2.65527,-0.0425 5.9793,-0.1185 7.18155,-0.16414 1.14275,-0.0434 1.52447,-0.0329 0.66291,0.0182 -1.57039,0.0932 -5.40754,0.25239 -7.93916,0.32943 -3.76169,0.11447 -5.15353,0.13194 -11.0959,0.13924 -3.3335,0.004 -6.37343,0.003 -6.75539,-0.002 l 0,0 z"
       id="path4546"
       inkscape:connector-curvature="0" />
    <path
       style="color:#000000;fill:none;fill-opacity:1;stroke:#000000;stroke-width:0.05675795000000000;stroke-linecap:butt;stroke-linejoin:miter;stroke-miterlimit:4;stroke-opacity:1;stroke-dasharray:none;stroke-dashoffset:0;marker:none;visibility:visible;display:inline;overflow:visible;enable-background:accumulate"
       d="m 637.16664,447.80708 c -0.0848,-0.60235 -0.20638,-1.15719 -0.32773,-1.49546 -0.10168,-0.2834 -0.1948,-0.43237 -0.37804,-0.60475 -0.14831,-0.13953 -0.19255,-0.16178 -0.42741,-0.21501 -0.14409,-0.0326 -0.26855,-0.07 -0.27659,-0.083 -0.0261,-0.0422 1.33163,-2.04951 2.23757,-3.30799 0.25484,-0.35403 0.46336,-0.63074 0.46336,-0.61493 0,0.0158 -0.0295,0.135 -0.0655,0.26487 -0.17813,0.6423 -0.50289,2.10496 -0.69025,3.10874 -0.11635,0.62339 -0.35871,2.18832 -0.42777,2.76214 -0.0282,0.23438 -0.0546,0.43856 -0.0586,0.45373 -0.004,0.0152 -0.0261,-0.10557 -0.049,-0.26832 z"
       id="path4548"
       inkscape:connector-curvature="0" />
  </g>
</svg>
