<?xml version="1.0" encoding="UTF-8" standalone="no"?>
<!-- Created with Inkscape (http://www.inkscape.org/) -->

<svg
   xmlns:dc="http://purl.org/dc/elements/1.1/"
   xmlns:cc="http://creativecommons.org/ns#"
   xmlns:rdf="http://www.w3.org/1999/02/22-rdf-syntax-ns#"
   xmlns:svg="http://www.w3.org/2000/svg"
   xmlns="http://www.w3.org/2000/svg"
   xmlns:sodipodi="http://sodipodi.sourceforge.net/DTD/sodipodi-0.dtd"
   xmlns:inkscape="http://www.inkscape.org/namespaces/inkscape"
   width="210mm"
   height="297mm"
   id="svg3045"
   version="1.1"
   inkscape:version="0.48.4 r9939"
   sodipodi:docname="soleil_2.svg">
  <defs
     id="defs3047" />
  <sodipodi:namedview
     id="base"
     pagecolor="#ffffff"
     bordercolor="#666666"
     borderopacity="1.0"
     inkscape:pageopacity="0.0"
     inkscape:pageshadow="2"
     inkscape:zoom="0.93048982"
     inkscape:cx="763.83929"
     inkscape:cy="470.43761"
     inkscape:document-units="px"
     inkscape:current-layer="layer1"
     showgrid="false"
     inkscape:window-width="1600"
     inkscape:window-height="838"
     inkscape:window-x="-8"
     inkscape:window-y="-8"
     inkscape:window-maximized="1" />
  <metadata
     id="metadata3050">
    <rdf:RDF>
      <cc:Work
         rdf:about="">
        <dc:format>image/svg+xml</dc:format>
        <dc:type
           rdf:resource="http://purl.org/dc/dcmitype/StillImage" />
        <dc:title />
      </cc:Work>
    </rdf:RDF>
  </metadata>
  <g
     inkscape:label="Calque 1"
     inkscape:groupmode="layer"
     id="layer1">
    <path
       style="fill:none;stroke:#000000;stroke-width:3.93258451999999980px;stroke-linecap:butt;stroke-linejoin:miter;stroke-opacity:1"
       d="m 199.13522,622.64985 c 109.99037,64.00567 492.96639,-45.35084 376.61161,-80.86514"
       id="path3016"
       inkscape:connector-curvature="0"
       sodipodi:nodetypes="cc" />
    <path
       style="fill:none;stroke:#000000;stroke-width:3.93258451999999980px;stroke-linecap:butt;stroke-linejoin:miter;stroke-opacity:1"
       d="m 211.11084,600.46484 c -9.64907,12.04913 -15.90018,14.81546 -13.97848,55.91399"
       id="path3018"
       inkscape:connector-curvature="0"
       sodipodi:nodetypes="cc" />
    <path
       style="fill:none;stroke:#000000;stroke-width:3.93258451999999980px;stroke-linecap:butt;stroke-linejoin:miter;stroke-opacity:1"
       d="m 371.44577,674.04278 c 35.28755,8.20121 153.0478,-0.85879 126.88172,-32.25808"
       id="path3020"
       inkscape:connector-curvature="0"
       sodipodi:nodetypes="cc" />
    <path
       style="fill:none;stroke:#000000;stroke-width:3.93258451999999980px;stroke-linecap:butt;stroke-linejoin:miter;stroke-opacity:1"
       d="m 177.89737,526.73093 c 37.32425,-56.84452 75.86231,-110.04755 144.08604,-74.19355"
       id="path3022"
       inkscape:connector-curvature="0"
       sodipodi:nodetypes="cc" />
    <path
       style="fill:none;stroke:#000000;stroke-width:3.93258451999999980px;stroke-linecap:butt;stroke-linejoin:miter;stroke-opacity:1"
       d="m 459.61781,425.65569 c 30.93406,-13.88301 62.15626,-34.10452 90.32256,12.9032"
       id="path3024"
       inkscape:connector-curvature="0"
       sodipodi:nodetypes="cc" />
    <g
       id="g3072"
       style="fill:none" />
    <path
       sodipodi:nodetypes="ccccccccccccccccc"
       inkscape:connector-curvature="0"
       id="path3026-1"
       d="M 88.268312,767.97111 C 112.01389,708.38602 84.866432,668.83947 35.618597,637.99472 67.746248,606.96821 82.963498,567.7414 38.265914,499.46043 117.8377,467.97621 93.156972,421.79279 90.374055,378.69683 c 43.379765,-7.07134 88.092575,-11.66094 91.394505,-93.3475 51.19306,15.214 95.55658,5.35405 126.39953,-54.14524 70.62459,51.93094 108.4449,36.08289 135.39738,-2.2199 36.22007,66.29962 79.6192,72.56241 125.80636,55.5095 13.63864,65.07955 43.05681,98.7772 92.4972,92.6552 2.41603,39.77058 -33.11804,63.38323 55.61101,128.30539 -42.80479,42.91597 -33.45598,89.54155 0.5192,137.91875 -38.70755,26.92644 -79.39181,52.44827 -52.13774,126.24634 -43.88006,2.53615 -86.57016,7.57038 -91.80486,91.23647 -75.51916,-20.96443 -105.81808,11.48968 -128.92089,52.44455 -74.12847,-49.9544 -105.94093,-24.91704 -136.45291,2.42509 -61.95513,-91.1452 -89.4985,-59.33532 -124.34048,-53.60365 -7.57925,-50.18536 -23.31332,-94.09856 -96.074048,-94.15072 z"
       style="fill:none;stroke:#000000;stroke-width:3.93258451999999980px;stroke-linecap:butt;stroke-linejoin:miter;stroke-opacity:1" />
    <path
       style="color:#000000;fill:none;stroke:#000000;stroke-width:1.07470274000000000px;stroke-linecap:butt;stroke-linejoin:miter;stroke-miterlimit:4;stroke-opacity:1;stroke-dasharray:none;stroke-dashoffset:0;marker:none;visibility:visible;display:inline;overflow:visible;enable-background:accumulate"
       d="m 304.12786,904.89517 c -21.23455,-29.63939 -43.18449,-48.87203 -60.76713,-53.24444 -12.78566,-3.17952 -21.13904,-2.48172 -42.39441,3.54144 -7.3576,2.08493 -13.72013,3.79078 -14.13896,3.79078 -0.41885,0 -1.1024,-2.53899 -1.51902,-5.64219 -1.12349,-8.36841 -6.70016,-29.24249 -9.80935,-36.71743 -12.74844,-30.6491 -37.38466,-47.34361 -74.80505,-50.69095 -4.580925,-0.40978 -8.328951,-0.91283 -8.328951,-1.11792 0,-0.20508 1.195179,-4.49719 2.655954,-9.53802 7.144897,-24.65555 4.791138,-49.79015 -6.572314,-70.18228 -7.713911,-13.8429 -22.604385,-29.19744 -40.495132,-41.75718 l -8.408949,-5.90329 5.390423,-5.69958 c 6.617511,-6.99704 14.583823,-19.14774 17.892793,-27.29116 3.237553,-7.96768 5.893764,-21.03538 5.893764,-28.99545 0,-18.97785 -8.112975,-43.86317 -21.754542,-66.72875 l -4.7557,-7.97135 9.633352,-4.68865 c 24.642854,-11.99393 37.866457,-25.49368 44.006533,-44.92551 3.224393,-10.20441 3.162051,-26.42024 -0.195257,-50.78925 -1.405457,-10.20148 -2.305538,-18.798 -2.000181,-19.10335 0.305357,-0.30536 4.741825,-1.28596 9.858817,-2.17911 29.34379,-5.12188 44.11985,-11.39268 56.55696,-24.0022 8.86402,-8.9869 13.45274,-16.66006 17.64709,-29.50912 2.90244,-8.89138 5.99613,-25.80219 5.99613,-32.77626 l 0,-4.16258 8.32894,2.09143 c 5.60395,1.40718 13.78233,2.28178 24.99722,2.67323 14.8082,0.51686 17.7218,0.31785 26.10911,-1.78336 11.58416,-2.90209 17.35112,-5.3792 27.0783,-11.63106 12.93107,-8.31107 27.09213,-24.36049 37.68071,-42.70539 1.04855,-1.81663 1.96117,-1.43425 11.28438,4.72804 13.2972,8.78896 31.42137,17.57337 43.40345,21.03678 29.7747,8.60634 54.63112,1.29487 74.64246,-21.95592 l 6.18379,-7.18482 2.49019,4.3803 c 5.06511,8.90963 15.83415,22.87229 23.73299,30.77112 9.85568,9.85568 21.60809,17.37706 34.12149,21.83726 8.96159,3.19422 10.02403,3.32781 26.00126,3.26943 14.02975,-0.0513 18.01435,-0.44968 25.25552,-2.52531 13.30053,-3.8125 12.22546,-4.39887 15.62893,8.5244 6.46844,24.56131 16.15582,44.14236 28.80705,58.22752 6.30011,7.01419 18.5598,15.07827 27.39115,18.01716 8.10332,2.69661 23.12804,4.58024 29.01959,3.63814 l 4.22453,-0.67553 -0.75944,6.3399 c -0.41768,3.48694 -1.74897,12.62691 -2.95842,20.31104 -4.99802,31.75465 0.63253,47.31753 26.46544,73.15075 7.13197,7.13206 16.93936,16.02257 21.79416,19.75667 l 8.82694,6.78927 -4.62356,5.49885 c -10.57949,12.58231 -16.48359,23.80185 -20.14538,38.28229 -1.93842,7.66542 -2.20333,11.05782 -1.71746,21.99313 0.9975,22.44989 7.2219,39.61697 23.61604,65.13371 l 3.84964,5.9918 -11.91646,8.51669 c -32.67161,23.3504 -45.64172,42.491 -47.7068,70.40316 -0.74728,10.10046 1.42993,26.39834 5.0825,38.04603 1.11471,3.55469 2.03298,6.75626 2.04061,7.11459 0.008,0.35833 -3.97597,0.98134 -8.85243,1.38447 -47.42686,3.92067 -69.9576,23.53973 -78.16876,68.0669 -1.17394,6.36599 -2.40674,13.83119 -2.73955,16.58933 l -0.60513,5.01481 -3.44043,-0.99261 c -17.44142,-5.03205 -45.86788,-6.04631 -60.39968,-2.15505 -24.83887,6.65122 -41.54801,20.21164 -59.05673,47.92789 -2.24038,3.54652 -4.20136,6.59436 -4.35772,6.77298 -0.15636,0.17862 -3.34445,-1.65311 -7.08463,-4.07051 -10.51652,-6.79715 -29.50816,-15.72286 -40.19531,-18.89103 -11.72209,-3.47496 -29.2993,-4.65574 -39.5028,-2.65366 -12.99146,2.54912 -29.69541,11.64212 -42.44603,23.10603 -2.97985,2.67914 -5.58866,4.85707 -5.79735,4.83984 -0.2087,-0.0172 -2.53483,-3.03983 -5.16919,-6.71689 l 0,0 z m 142.3517,-228.1651 c 31.03813,-3.96199 50.13636,-10.63188 55.9801,-19.55057 2.41519,-3.68604 2.2904,-10.09877 -0.27537,-14.15112 -1.84112,-2.90787 -2.31292,-3.12628 -4.03426,-1.86761 -1.8511,1.35357 -1.85733,1.60322 -0.12354,4.956 2.47737,4.79069 1.41827,8.04914 -3.85865,11.87172 -8.22397,5.95742 -23.96665,10.51715 -47.15093,13.65686 -14.67062,1.98675 -54.7515,2.61873 -68.5123,1.08027 -7.35759,-0.82258 -7.7916,-0.75179 -7.7916,1.27095 0,1.24066 0.96169,2.4473 2.28533,2.8674 8.94133,2.83787 50.79803,2.7616 73.48122,-0.1339 l 0,0 z M 199.83527,641.89299 c 0,-8.27521 0.34282,-15.04584 0.76181,-15.04584 0.419,0 4.65064,1.66131 9.40365,3.69179 47.74191,20.3953 142.39454,18.57984 245.92022,-4.71679 71.27711,-16.03967 130.51258,-40.59964 140.97351,-58.44986 5.75151,-9.8142 2.53054,-17.71948 -9.64973,-23.68358 -7.53631,-3.69016 -11.80084,-4.17978 -11.80084,-1.35484 0,1.33642 1.42671,2.55942 4.29881,3.68499 6.36719,2.49528 12.06802,6.30521 14.11954,9.43623 1.72515,2.6329 1.70167,3.00276 -0.47524,7.48348 -10.11159,20.81271 -89.18163,50.19229 -176.34046,65.52178 -75.96196,13.36018 -143.09548,14.76473 -185.53156,3.88164 -12.12845,-3.11044 -29.53031,-10.22441 -29.53031,-12.07214 0,-2.24397 2.7425,-7.4267 6.52276,-12.32663 4.69842,-6.09001 5.07148,-7.40858 2.38749,-8.43852 -2.29105,-0.87916 -7.60553,5.10935 -11.47505,12.93042 -3.51657,7.10768 -4.93996,16.27374 -4.95,31.87595 l -0.008,12.62776 2.68676,0 2.68676,0 0,-15.04584 z M 185.3419,520.1829 c 5.98,-9.01822 21.00198,-29.70315 25.56068,-35.19652 1.7168,-2.0688 7.28486,-8.00296 12.37346,-13.187 21.02352,-21.41789 41.35649,-30.18155 64.04429,-27.60359 8.46615,0.96199 20.47176,4.4002 27.03366,7.74199 6.0294,3.07059 7.67897,3.21594 8.32807,0.73379 0.51613,-1.97366 -0.44988,-2.75815 -7.12102,-5.78302 -13.50093,-6.12167 -20.17172,-7.53537 -35.66042,-7.55727 -15.30563,-0.0217 -19.65979,0.97885 -32.77895,7.53195 -19.30204,9.64151 -39.86146,31.36252 -64.39074,68.02878 -6.33374,9.46764 -7.45107,13.08248 -4.04377,13.08248 0.81846,0 3.81309,-3.50621 6.65474,-7.79159 z m 365.75399,-81.74463 c 2.4046,-2.89737 -12.2669,-20.35217 -21.89071,-26.04355 -6.6898,-3.95625 -17.04623,-6.22607 -24.7883,-5.43287 -9.185,0.94103 -16.0176,3.09851 -31.92278,10.08005 -11.71053,5.14031 -13.70257,6.36246 -13.43326,8.24158 0.1739,1.21347 1.04138,2.12816 1.92772,2.03266 0.88635,-0.0955 7.82685,-2.8989 15.42334,-6.22978 17.12426,-7.50859 24.72058,-9.52228 33.95335,-9.00058 12.56362,0.70991 25.52735,9.38482 33.95254,22.71997 3.30528,5.2315 4.79048,6.02745 6.7781,3.63252 z"
       id="path3249"
       inkscape:connector-curvature="0" />
  </g>
</svg>
