<?xml version="1.0" encoding="UTF-8" standalone="no"?>
<!-- Created with Inkscape (http://www.inkscape.org/) -->

<svg
   xmlns:dc="http://purl.org/dc/elements/1.1/"
   xmlns:cc="http://creativecommons.org/ns#"
   xmlns:rdf="http://www.w3.org/1999/02/22-rdf-syntax-ns#"
   xmlns:svg="http://www.w3.org/2000/svg"
   xmlns="http://www.w3.org/2000/svg"
   xmlns:sodipodi="http://sodipodi.sourceforge.net/DTD/sodipodi-0.dtd"
   xmlns:inkscape="http://www.inkscape.org/namespaces/inkscape"
   width="210mm"
   height="297mm"
   id="svg3124"
   version="1.1"
   inkscape:version="0.48.4 r9939"
   sodipodi:docname="O.svg">
  <defs
     id="defs3126" />
  <sodipodi:namedview
     id="base"
     pagecolor="#ffffff"
     bordercolor="#666666"
     borderopacity="1.0"
     inkscape:pageopacity="0.0"
     inkscape:pageshadow="2"
     inkscape:zoom="0.61860832"
     inkscape:cx="372.04724"
     inkscape:cy="526.18109"
     inkscape:document-units="px"
     inkscape:current-layer="layer1"
     showgrid="false"
     inkscape:window-width="1600"
     inkscape:window-height="838"
     inkscape:window-x="-8"
     inkscape:window-y="-8"
     inkscape:window-maximized="1" />
  <metadata
     id="metadata3129">
    <rdf:RDF>
      <cc:Work
         rdf:about="">
        <dc:format>image/svg+xml</dc:format>
        <dc:type
           rdf:resource="http://purl.org/dc/dcmitype/StillImage" />
        <dc:title></dc:title>
      </cc:Work>
    </rdf:RDF>
  </metadata>
  <g
     inkscape:label="Calque 1"
     inkscape:groupmode="layer"
     id="layer1">
    <path
       style="fill:none;stroke:#000000;stroke-width:11.35886478px;stroke-linecap:butt;stroke-linejoin:miter;stroke-opacity:1"
       d="M 361.87356,149.65375 C 210.297,153.85981 146.63309,289.22412 87.690425,389.91726 26.662491,512.14823 -4.5649339,678.99092 18.437926,822.39173 58.357591,968.71239 159.41322,1007.0547 200.1551,1019.2397 l 288.51033,1.4134 C 661.40853,978.91369 657.57387,905.27874 685.52258,842.17809 728.64004,730.27383 695.97235,632.5793 682.69606,531.24881 666.75717,434.20093 625.4984,358.85598 583.76399,283.91871 544.70735,239.22912 487.17365,152.13157 361.87356,149.65375 z"
       id="path3108"
       inkscape:connector-curvature="0"
       sodipodi:nodetypes="ccccccccc" />
    <path
       style="fill:none;stroke:#000000;stroke-width:11.35886478px;stroke-linecap:butt;stroke-linejoin:miter;stroke-opacity:1"
       d="m 353.19046,314.61437 c -93.10728,24.66622 -125.5763,109.16752 -142.54168,195.4347 -21.52459,69.93267 -19.7082,154.45353 -11.30649,243.09017 32.28462,104.1432 117.30515,80.6769 171.01112,89.03885 58.11377,-7.84091 115.67732,-7.75209 137.09151,-52.29258 34.9251,-60.55889 26.42253,-138.48866 25.43977,-213.41059 C 512.62717,465.48983 492.36965,445.32085 480.1948,415.56017 423.92407,311.47468 398.75737,320.52363 353.19046,314.61437 z"
       id="path3110"
       inkscape:connector-curvature="0"
       sodipodi:nodetypes="cccccccc" />
  </g>
</svg>
