<?xml version="1.0" encoding="UTF-8" standalone="no"?>
<!-- Created with Inkscape (http://www.inkscape.org/) -->

<svg
   xmlns:dc="http://purl.org/dc/elements/1.1/"
   xmlns:cc="http://creativecommons.org/ns#"
   xmlns:rdf="http://www.w3.org/1999/02/22-rdf-syntax-ns#"
   xmlns:svg="http://www.w3.org/2000/svg"
   xmlns="http://www.w3.org/2000/svg"
   xmlns:sodipodi="http://sodipodi.sourceforge.net/DTD/sodipodi-0.dtd"
   xmlns:inkscape="http://www.inkscape.org/namespaces/inkscape"
   preserveAspectRatio="xMinYMin meet"
   viewBox="0 0 1050 1050"
   width="100%"
   height="100%"
   id="svg3020"
   version="1.1"
   inkscape:version="0.48.4 r9939"
   sodipodi:docname="A.svg">
  <defs
     id="defs3022" />
  <sodipodi:namedview
     id="base"
     pagecolor="#ffffff"
     bordercolor="#666666"
     borderopacity="1.0"
     inkscape:pageopacity="0.0"
     inkscape:pageshadow="2"
     inkscape:zoom="0.53298937"
     inkscape:cx="801.74972"
     inkscape:cy="487.08208"
     inkscape:document-units="px"
     inkscape:current-layer="layer1"
     showgrid="false"
     inkscape:window-width="1600"
     inkscape:window-height="838"
     inkscape:window-x="-8"
     inkscape:window-y="-8"
     inkscape:window-maximized="1"
     fit-margin-top="0"
     fit-margin-left="0"
     fit-margin-right="0"
     fit-margin-bottom="0" />
  <metadata
     id="metadata3025">
    <rdf:RDF>
      <cc:Work
         rdf:about="">
        <dc:format>image/svg+xml</dc:format>
        <dc:type
           rdf:resource="http://purl.org/dc/dcmitype/StillImage" />
      </cc:Work>
    </rdf:RDF>
  </metadata>
  <g
     inkscape:label="Calque 1"
     inkscape:groupmode="layer"
     id="layer1"
     transform="translate(-2.20547,-1.4329915)">
    <path
       style="fill:none;stroke:#000000;stroke-width:13.2062912px;stroke-linecap:butt;stroke-linejoin:miter;stroke-opacity:1"
       d="M 63.114197,1044.8298 258.5614,1043.2157 C 224.61454,947.051 194.97802,848.43967 205.8217,726.85255 c 32.36522,-20.2959 58.0513,-67.01483 308.6826,-66.17811 97.10574,85.12324 -8.62818,250.30686 -18.61405,377.69906 L 708.4004,1027.0748 C 809.62346,393.97624 577.76908,71.081391 412.12709,8.5788371 174.61945,112.24656 -112.78126,594.49794 63.114197,1044.8298 z"
       id="path2997"
       inkscape:connector-curvature="0"
       sodipodi:nodetypes="cccccccc" />
    <path
       style="fill:none;stroke:#000000;stroke-width:13.2062912px;stroke-linecap:butt;stroke-linejoin:miter;stroke-opacity:1"
       d="M 407.47367,224.86798 C 282.28005,304.55264 231.86278,402.39271 230.64039,512.17744 l 294.7221,-20.98323 C 519.82795,274.66798 441.27062,249.43058 407.47367,224.86798 z"
       id="path2999"
       inkscape:connector-curvature="0"
       sodipodi:nodetypes="cccc" />
    <path
       style="color:#000000;fill:none;stroke:#000000;stroke-width:0;stroke-linecap:butt;stroke-linejoin:miter;stroke-miterlimit:4;stroke-opacity:1;stroke-dasharray:none;stroke-dashoffset:0;marker:none;visibility:visible;display:inline;overflow:visible;enable-background:accumulate"
       d="M 20.158151,854.58043 C 18.888422,850.40547 15.402132,809.89695 14.329895,786.85972 12.973121,757.70913 14.115229,707.11346 16.811028,676.94494 25.319574,581.72635 49.418609,486.00565 87.668192,395.50224 117.10066,325.86125 155.78515,257.56275 197.77983,201.09715 l 5.47274,-7.35858 197.31927,0.15106 197.31927,0.15106 7.05511,12.31285 c 8.66406,15.12086 26.04297,49.57217 33.17691,65.76868 47.64037,108.15986 75.42785,232.61398 83.4804,373.89042 1.57046,27.55234 2.12538,49.68139 2.12357,84.68844 0,42.46821 -0.72651,65.59762 -3.40021,108.56336 l -1.01848,16.36709 -87.51312,0 -87.51316,0 2.92294,-11.56207 c 7.90653,-31.27538 11.78966,-56.58734 12.38124,-80.70655 0.72331,-29.48965 -3.38603,-51.04755 -13.77783,-72.27968 -6.02811,-12.31638 -11.9948,-20.51088 -23.52402,-32.30726 l -6.60402,-6.75705 -22.55674,0.007 c -86.9708,0.0271 -162.93083,8.19105 -210.42893,22.61634 -27.97976,8.49751 -45.49791,17.22916 -68.59752,34.19134 -7.01014,5.14759 -13.87253,9.97721 -16.93293,11.91709 -0.61812,0.39181 -2.10703,29.08115 -2.38667,45.988 -0.49545,29.95562 1.22543,60.34868 4.90567,86.64047 l 0.31528,2.25235 -89.76039,0 c -84.963886,0 -89.77747,-0.0559 -90.080059,-1.0511 l 0,0 z M 375.20057,506.66714 c 83.48946,-5.94621 152.56448,-10.81129 153.50005,-10.81129 l 1.70104,0 -0.36104,-8.85925 c -2.23272,-54.78791 -6.37289,-88.92497 -15.05488,-124.13238 -14.90285,-60.43435 -40.11827,-100.98465 -79.88335,-128.46483 -6.62178,-4.57607 -28.73085,-19.16187 -29.48286,-19.45044 -0.80652,-0.30949 -22.17699,13.86246 -34.15607,22.65081 -77.31952,56.72479 -124.28191,123.69435 -141.93511,202.40306 -4.10931,18.32177 -6.41753,35.85114 -7.31503,55.55271 -0.33108,7.26759 -0.69749,15.17335 -0.81425,17.56835 -0.19053,3.90787 -0.0987,4.35455 0.89509,4.35455 0.60906,0 69.41695,-4.86508 152.90641,-10.81129 z"
       id="path2984"
       inkscape:connector-curvature="0"
       transform="translate(2.20547,1.9756915)" />
    <path
       style="color:#000000;fill:none;stroke:#000000;stroke-width:0;stroke-linecap:butt;stroke-linejoin:miter;stroke-miterlimit:4;stroke-opacity:1;stroke-dasharray:none;stroke-dashoffset:0;marker:none;visibility:visible;display:inline;overflow:visible;enable-background:accumulate"
       d="M 21.224111,853.81624 C 20.384391,852.455 18.127123,831.66123 16.667495,811.84107 10.412221,726.90121 17.402201,639.99275 37.497119,552.86028 65.003914,433.58958 119.73433,311.44326 189.00818,214.72074 l 14.01439,-19.56737 197.08999,-0.31954 197.08998,-0.31954 5.35895,9.15642 c 9.86162,16.84982 34.85184,68.2638 43.36969,89.22723 55.93464,137.66169 81.14377,296.07431 76.35474,479.8084 -1.11755,42.87547 -1.96699,62.36428 -3.28767,75.42905 l -0.66996,6.62765 -86.38432,0 c -47.51136,0 -86.3843,-0.24785 -86.3843,-0.55077 0,-0.30292 1.6525,-7.546 3.67222,-16.09574 15.04731,-63.69733 14.31528,-110.1872 -2.29306,-145.62849 -6.24636,-13.32936 -10.99187,-20.18815 -21.9487,-31.72284 l -8.78689,-9.2503 -26.66574,0.008 c -68.99865,0.0182 -132.78171,5.65144 -180.63531,15.95355 -37.50118,8.0734 -65.63774,20.09456 -94.72536,40.47079 l -17.67376,12.38066 -1.01374,11.98759 c -1.41045,16.67875 0.005,93.81984 2.00892,109.50883 l 1.65301,12.93971 -88.67154,0 c -48.769347,-5.6e-4 -88.934371,-0.42662 -89.255609,-0.94736 z M 371.30584,507.64115 c 78.82862,-5.53201 146.95853,-10.41486 151.39978,-10.85077 l 8.07502,-0.7926 -0.85758,-21.02508 c -2.88012,-70.61119 -14.36097,-127.15447 -34.25924,-168.72717 -15.94738,-33.31824 -36.27079,-56.2565 -69.75322,-78.7278 -14.0377,-9.42121 -19.96046,-12.73088 -21.76014,-12.15969 -4.31565,1.36974 -30.29366,19.4261 -47.91972,33.30725 -69.88085,55.03366 -113.0071,121.28941 -128.27836,197.07664 -3.52373,17.4873 -6.76651,47.10889 -6.80639,62.17373 l -0.0259,9.78369 3.43048,0 c 1.88677,0 67.92663,-4.52619 146.75527,-10.0582 z"
       id="path3776"
       inkscape:connector-curvature="0"
       transform="translate(2.20547,1.9756915)" />
    <path
       style="color:#000000;fill:none;stroke:#000000;stroke-width:0;stroke-linecap:butt;stroke-linejoin:miter;stroke-miterlimit:4;stroke-opacity:1;stroke-dasharray:none;stroke-dashoffset:0;marker:none;visibility:visible;display:inline;overflow:visible;enable-background:accumulate"
       d="m 20.724853,853.53295 c 0,-0.53897 -0.565489,-5.50971 -1.256643,-11.0461 C 14.805919,805.14019 13.348526,752.78208 15.691654,706.8108 22.386043,575.46943 60.809613,439.47179 125.57117,317.89966 c 20.92336,-39.27791 48.24525,-83.09401 71.00128,-113.86474 l 7.22003,-9.76293 196.63213,0 196.63213,0 4.34691,7.25887 c 9.25548,15.45563 35.30792,68.92656 44.10791,90.5286 39.97021,98.11802 62.70986,198.95878 73.45714,325.75137 4.54612,53.63357 4.71098,171.40716 0.31765,226.91835 l -0.77431,9.78369 -86.31215,0 c -52.78418,0 -86.31212,-0.45914 -86.31212,-1.18199 0,-0.65007 1.65524,-8.1772 3.67833,-16.72694 7.97921,-33.72081 9.50798,-46.01837 9.54384,-76.77189 0.0365,-31.26263 -1.13841,-39.43328 -8.39497,-58.38229 -5.79288,-15.12693 -11.96617,-25.19067 -23.44351,-38.21773 l -10.54365,-11.96731 -23.60796,0.0126 c -63.46749,0.0323 -133.17891,5.80494 -176.99086,14.65628 -43.5638,8.80122 -69.5517,19.51392 -102.44806,42.231 l -17.23534,11.90149 -1.02134,14.51773 c -2.19587,31.21283 -0.94877,80.27886 2.87976,113.30137 l 0.76839,6.62766 -89.17377,0 c -49.045578,0 -89.173777,-0.44098 -89.173777,-0.97992 z M 376.72471,507.31738 c 80.19465,-5.58415 147.72554,-10.45667 150.06864,-10.82781 l 4.26019,-0.67483 -0.86304,-17.90264 C 525.031,370.88611 505.4158,305.06484 465.25158,260.00147 455.23728,248.76564 443.46503,239.2163 421.91708,224.84966 l -16.03458,-10.69071 -6.05761,3.52724 c -19.77434,11.51421 -54.95667,38.93185 -75.8514,59.1111 -60.46197,58.39164 -93.00254,123.30298 -100.60111,200.67727 -0.96588,9.83533 -2.01513,22.85316 -2.33168,28.92852 l -0.57554,11.04609 5.22555,0.0101 c 2.87406,0.006 70.83935,-4.55825 151.034,-10.1424 l 0,5.1e-4 z"
       id="path3812"
       inkscape:connector-curvature="0"
       transform="translate(2.20547,1.9756915)" />
    <path
       style="color:#000000;fill:none;stroke:#000000;stroke-width:0;stroke-linecap:butt;stroke-linejoin:miter;stroke-miterlimit:4;stroke-opacity:1;stroke-dasharray:none;stroke-dashoffset:0;marker:none;visibility:visible;display:inline;overflow:visible;enable-background:accumulate"
       d="m 20.724853,853.53295 c 0,-0.53897 -0.565489,-5.50971 -1.256643,-11.0461 C 14.805919,805.14019 13.348526,752.78208 15.691654,706.8108 22.386043,575.46943 60.809613,439.47179 125.57117,317.89966 c 20.92336,-39.27791 48.24525,-83.09401 71.00128,-113.86474 l 7.22003,-9.76293 196.63213,0 196.63213,0 4.34691,7.25887 c 9.25548,15.45563 35.30792,68.92656 44.10791,90.5286 39.97021,98.11802 62.70986,198.95878 73.45714,325.75137 4.54612,53.63357 4.71098,171.40716 0.31765,226.91835 l -0.77431,9.78369 -86.31215,0 c -52.78418,0 -86.31212,-0.45914 -86.31212,-1.18199 0,-0.65007 1.65524,-8.1772 3.67833,-16.72694 7.97921,-33.72081 9.50798,-46.01837 9.54384,-76.77189 0.0365,-31.26263 -1.13841,-39.43328 -8.39497,-58.38229 -5.79288,-15.12693 -11.96617,-25.19067 -23.44351,-38.21773 l -10.54365,-11.96731 -23.60796,0.0126 c -63.46749,0.0323 -133.17891,5.80494 -176.99086,14.65628 -43.5638,8.80122 -69.5517,19.51392 -102.44806,42.231 l -17.23534,11.90149 -1.02134,14.51773 c -2.19587,31.21283 -0.94877,80.27886 2.87976,113.30137 l 0.76839,6.62766 -89.17377,0 c -49.045578,0 -89.173777,-0.44098 -89.173777,-0.97992 z M 376.72471,507.31738 c 80.19465,-5.58415 147.72554,-10.45667 150.06864,-10.82781 l 4.26019,-0.67483 -0.86304,-17.90264 C 525.031,370.88611 505.4158,305.06484 465.25158,260.00147 455.23728,248.76564 443.46503,239.2163 421.91708,224.84966 l -16.03458,-10.69071 -6.05761,3.52724 c -19.77434,11.51421 -54.95667,38.93185 -75.8514,59.1111 -60.46197,58.39164 -93.00254,123.30298 -100.60111,200.67727 -0.96588,9.83533 -2.01513,22.85316 -2.33168,28.92852 l -0.57554,11.04609 5.22555,0.0101 c 2.87406,0.006 70.83935,-4.55825 151.034,-10.1424 l 0,5.1e-4 z"
       id="path3814"
       inkscape:connector-curvature="0"
       transform="translate(2.20547,1.9756915)" />
    <path
       style="color:#000000;fill:none;stroke:none;stroke-width:0;marker:none;visibility:visible;display:inline;overflow:visible;enable-background:accumulate"
       d="m 20.724853,853.53295 c 0,-0.53897 -0.565489,-5.50971 -1.256643,-11.0461 C 14.805919,805.14019 13.348526,752.78208 15.691654,706.8108 22.386043,575.46943 60.809613,439.47179 125.57117,317.89966 c 20.92336,-39.27791 48.24525,-83.09401 71.00128,-113.86474 l 7.22003,-9.76293 196.63213,0 196.63213,0 4.34691,7.25887 c 9.25548,15.45563 35.30792,68.92656 44.10791,90.5286 39.97021,98.11802 62.70986,198.95878 73.45714,325.75137 4.54612,53.63357 4.71098,171.40716 0.31765,226.91835 l -0.77431,9.78369 -86.31215,0 c -52.78418,0 -86.31212,-0.45914 -86.31212,-1.18199 0,-0.65007 1.65524,-8.1772 3.67833,-16.72694 7.97921,-33.72081 9.50798,-46.01837 9.54384,-76.77189 0.0365,-31.26263 -1.13841,-39.43328 -8.39497,-58.38229 -5.79288,-15.12693 -11.96617,-25.19067 -23.44351,-38.21773 l -10.54365,-11.96731 -23.60796,0.0126 c -63.46749,0.0323 -133.17891,5.80494 -176.99086,14.65628 -43.5638,8.80122 -69.5517,19.51392 -102.44806,42.231 l -17.23534,11.90149 -1.02134,14.51773 c -2.19587,31.21283 -0.94877,80.27886 2.87976,113.30137 l 0.76839,6.62766 -89.17377,0 c -49.045578,0 -89.173777,-0.44098 -89.173777,-0.97992 z M 376.72471,507.31738 c 80.19465,-5.58415 147.72554,-10.45667 150.06864,-10.82781 l 4.26019,-0.67483 -0.86304,-17.90264 C 525.031,370.88611 505.4158,305.06484 465.25158,260.00147 455.23728,248.76564 443.46503,239.2163 421.91708,224.84966 l -16.03458,-10.69071 -6.05761,3.52724 c -19.77434,11.51421 -54.95667,38.93185 -75.8514,59.1111 -60.46197,58.39164 -93.00254,123.30298 -100.60111,200.67727 -0.96588,9.83533 -2.01513,22.85316 -2.33168,28.92852 l -0.57554,11.04609 5.22555,0.0101 c 2.87406,0.006 70.83935,-4.55825 151.034,-10.1424 l 0,5.1e-4 z"
       id="path3816"
       inkscape:connector-curvature="0"
       transform="translate(2.20547,1.9756915)" />
    <path
       style="color:#000000;fill:#ff0000;fill-opacity:1;stroke:none;stroke-width:0;marker:none;visibility:visible;display:inline;overflow:visible;enable-background:accumulate"
       d="M 59.905299,1019.1107 C 41.590687,968.12426 27.538959,908.61606 20.442464,851.98805 11.979895,784.45915 12.170742,713.10629 21.00086,643.21859 43.269646,466.96792 119.60929,292.04393 232.90553,157.66208 248.94689,138.63525 291.9805,95.22623 309.43821,80.461738 341.05401,53.723359 378.70645,28.663475 403.11459,18.114666 l 7.83244,-3.385053 14.25975,6.867636 c 65.64906,31.617234 128.33412,96.223821 178.58378,184.058051 53.74121,93.93732 89.99015,207.63113 107.66021,337.67329 8.31901,61.22352 11.47487,112.75959 11.56754,188.901 0.0841,69.04306 -2.89995,122.08919 -10.92652,194.2407 -2.70575,24.32221 -11.72814,91.24591 -12.35772,91.66381 -0.11602,0.077 -40.26089,2.2176 -89.21087,4.757 -48.94998,2.5394 -93.41634,4.9656 -98.81415,5.3915 l -9.81418,0.7743 0.80665,-7.4245 c 2.26328,-20.8314 10.03954,-53.31876 26.44529,-110.48218 23.57057,-82.1281 29.0277,-108.39236 30.39132,-146.26852 1.6136,-44.81948 -8.81585,-76.28899 -34.22766,-103.27765 l -10.09929,-10.72596 -37.87232,0.83876 c -112.56706,2.49301 -180.32048,13.0121 -228.58129,35.48848 -12.01246,5.59454 -18.91099,9.888 -39.45641,24.55658 l -12.48383,8.91294 -0.80145,9.79492 c -6.94812,84.91698 4.96097,166.24568 40.06326,273.59703 5.21428,15.9465 9.22179,29.2523 8.90558,29.5686 -0.31621,0.3162 -40.77392,0.837 -89.90601,1.1574 l -89.331082,0.5825 -5.842329,-16.2646 0,0 z M 379.26066,506.70935 c 82.99924,-5.9069 151.05562,-10.88774 151.23641,-11.06853 0.18079,-0.18078 -0.1913,-10.26009 -0.82686,-22.39846 -5.99511,-114.4978 -29.6174,-183.32559 -77.45458,-225.67774 -7.94189,-7.03128 -44.78036,-33.09405 -46.77683,-33.09405 -1.36379,0 -27.42227,17.80025 -40.31529,27.53893 -33.05942,24.97127 -61.15508,52.84221 -82.59242,81.93184 -36.20035,49.12247 -57.63163,108.64298 -60.27018,167.3868 -0.34902,7.77046 -0.87513,16.82653 -1.16915,20.12458 -0.53258,5.97436 -0.52019,5.99645 3.36332,5.99645 2.14384,0 71.80634,-4.83292 154.80558,-10.73982 z"
       id="path4326"
       inkscape:connector-curvature="0"
       transform="translate(2.20547,1.9756915)" />
  </g>
  <script
     id="script3013">
	document.getElementById(&quot;svg3020&quot;).addEventListener(&quot;click&quot;,sendClickToParentDocument,false);
	function sendClickToParentDocument(evt)
		{
			// SVGElementInstance objects aren't normal DOM nodes, so fetch the corresponding 'use' element instead
			var target = evt.target;
			if(target.correspondingUseElement)
				target = target.correspondingUseElement;
      
      // call a method in the parent document if it exists
      if (window.parent.svgElementClicked)
				window.parent.svgElementClicked(target);
			else
				alert(&quot;You clicked '&quot; + target.id + &quot;' which is a &quot; + target.nodeName + &quot; element&quot;);
		}
  </script>
  <!--
  <script xlink:href="../../../src/js.js"/>
  <script>
	document.getElementById("svg3020").addEventListener("click",sendClickToParentDocument,false);
	function sendClickToParentDocument(evt)
		{
			// SVGElementInstance objects aren't normal DOM nodes, so fetch the corresponding 'use' element instead
			var target = evt.target;
			if(target.correspondingUseElement)
				target = target.correspondingUseElement;
				
				//svgElementClicked(target);
				top.svgElementClicked(target);
			//	alert("You clicked '" + target.id + "' which is a " + target.nodeName + " element");
		}
  </script>-->
</svg>
