<?xml version="1.0" encoding="UTF-8" standalone="no"?>
<!-- Created with Inkscape (http://www.inkscape.org/) -->

<svg
   xmlns:dc="http://purl.org/dc/elements/1.1/"
   xmlns:cc="http://creativecommons.org/ns#"
   xmlns:rdf="http://www.w3.org/1999/02/22-rdf-syntax-ns#"
   xmlns:svg="http://www.w3.org/2000/svg"
   xmlns="http://www.w3.org/2000/svg"
   xmlns:sodipodi="http://sodipodi.sourceforge.net/DTD/sodipodi-0.dtd"
   xmlns:inkscape="http://www.inkscape.org/namespaces/inkscape"
   preserveAspectRatio="xMinYMin meet"
   viewBox="0 0 1050 1050"
   width="100%"
   height="100%"
   id="svg3020"
   version="1.1"
   inkscape:version="0.48.4 r9939"
   sodipodi:docname="A.svg">
  <defs
     id="defs3022" />
  <sodipodi:namedview
     id="base"
     pagecolor="#ffffff"
     bordercolor="#666666"
     borderopacity="1.0"
     inkscape:pageopacity="0.0"
     inkscape:pageshadow="2"
     inkscape:zoom="0.63714286"
     inkscape:cx="525"
     inkscape:cy="525"
     inkscape:document-units="px"
     inkscape:current-layer="layer1"
     showgrid="false"
     inkscape:window-width="1600"
     inkscape:window-height="838"
     inkscape:window-x="-8"
     inkscape:window-y="-8"
     inkscape:window-maximized="1"
     fit-margin-top="0"
     fit-margin-left="0"
     fit-margin-right="0"
     fit-margin-bottom="0" />
  <metadata
     id="metadata3025">
    <rdf:RDF>
      <cc:Work
         rdf:about="">
        <dc:format>image/svg+xml</dc:format>
        <dc:type
           rdf:resource="http://purl.org/dc/dcmitype/StillImage" />
      </cc:Work>
    </rdf:RDF>
  </metadata>
  <g
     inkscape:label="Calque 1"
     inkscape:groupmode="layer"
     id="layer1"
     transform="translate(-2.20547,-1.4329915)">
    <path
       style="fill:none;stroke:#000000;stroke-width:13.20970249px;stroke-linecap:butt;stroke-linejoin:miter;stroke-opacity:1"
       d="m 63.114675,1044.827 195.446895,-1.615 c -33.9468,-96.21452 -63.58328,-194.87696 -52.73961,-316.52709 32.36517,-20.30642 58.05121,-67.04957 308.68212,-66.21241 97.10559,85.16735 -8.62817,250.43658 -18.61402,377.8948 l 212.50982,-11.3046 C 809.62278,393.63608 577.76876,70.573888 412.12703,8.0389412 174.61975,111.76039 -112.78051,594.2617 63.114675,1044.827 z"
       id="path2997"
       inkscape:connector-curvature="0"
       sodipodi:nodetypes="cccccccc" />
    <path
       style="fill:none;stroke:#000000;stroke-width:13.20970249px;stroke-linecap:butt;stroke-linejoin:miter;stroke-opacity:1"
       d="M 407.47361,224.44018 C 282.28019,304.16614 231.863,402.05691 230.64061,511.89854 L 525.36225,490.90443 C 519.82772,274.26599 441.27051,249.01551 407.47361,224.44018 z"
       id="path2999"
       inkscape:connector-curvature="0"
       sodipodi:nodetypes="cccc" />
    <path
       style="color:#000000;fill:none;stroke:#000000;stroke-width:0;stroke-linecap:butt;stroke-linejoin:miter;stroke-miterlimit:4;stroke-opacity:1;stroke-dasharray:none;stroke-dashoffset:0;marker:none;visibility:visible;display:inline;overflow:visible;enable-background:accumulate"
       d="M 22.364162,856.4557 C 21.094435,852.27857 17.60815,811.74906 16.535915,788.69989 15.179143,759.53419 16.321249,708.9123 19.017044,678.72815 27.525577,583.46021 51.624574,487.6899 89.874098,397.13959 119.30652,327.4625 157.99095,259.12861 199.98557,202.63374 l 5.47273,-7.36239 197.31896,0.15114 197.31896,0.15114 7.0551,12.31923 c 8.66405,15.12869 26.04293,49.59786 33.17686,65.80276 47.6403,108.21592 75.42774,232.73454 83.48027,374.0842 1.57046,27.56661 2.12538,49.70713 2.12357,84.73233 0,42.49022 -0.72651,65.63161 -3.40021,108.61962 l -1.01847,16.37557 -87.51299,0 -87.51302,0 2.92293,-11.56806 c 7.90652,-31.29159 11.78964,-56.61667 12.38122,-80.74838 0.72331,-29.50493 -3.38602,-51.074 -13.7778,-72.31714 -6.02811,-12.32276 -11.99479,-20.52151 -23.52399,-32.324 l -6.60401,-6.76055 -22.5567,0.007 c -86.97067,0.0271 -162.93058,8.1953 -210.42861,22.62806 -27.97971,8.50192 -45.49784,17.23809 -68.59741,34.20906 -7.01013,5.15026 -13.87251,9.98238 -16.9329,11.92327 -0.61812,0.39201 -2.10703,29.09622 -2.38667,46.01183 -0.49545,29.97115 1.22543,60.37996 4.90566,86.68537 l 0.31528,2.25352 -89.76025,0 c -84.963753,0 -89.77733,-0.0559 -90.079918,-1.05164 l 0,0 z M 377.40603,508.3621 c 83.48933,-5.94929 152.56424,-10.8169 153.49981,-10.8169 l 1.70104,0 -0.36104,-8.86384 c -2.23272,-54.8163 -6.37288,-88.97105 -15.05486,-124.19671 -14.90282,-60.46567 -40.1182,-101.03699 -79.88322,-128.53141 -6.62177,-4.57844 -28.73081,-19.1718 -29.48282,-19.46052 -0.80652,-0.30965 -22.17695,13.86965 -34.15601,22.66255 -77.3194,56.75419 -124.28172,123.75846 -141.93489,202.50796 -4.10931,18.33126 -6.41752,35.86972 -7.31502,55.5815 -0.33108,7.27136 -0.69749,15.18121 -0.81425,17.57745 -0.19053,3.9099 -0.0987,4.35681 0.89509,4.35681 0.60906,0 69.41684,-4.8676 152.90617,-10.81689 z"
       id="path2984"
       inkscape:connector-curvature="0" />
    <path
       style="color:#000000;fill:none;stroke:#000000;stroke-width:0;stroke-linecap:butt;stroke-linejoin:miter;stroke-miterlimit:4;stroke-opacity:1;stroke-dasharray:none;stroke-dashoffset:0;marker:none;visibility:visible;display:inline;overflow:visible;enable-background:accumulate"
       d="M 23.43012,855.69111 C 22.590401,854.32917 20.333137,833.52462 18.873511,813.69419 12.618247,728.71031 19.608216,641.75681 39.703103,554.57918 67.209855,435.24666 121.94019,313.03704 191.21393,216.26439 l 14.01437,-19.57751 197.08968,-0.3197 197.08968,-0.31971 5.35894,9.16117 c 9.8616,16.85855 34.85178,68.29918 43.36962,89.27347 55.93455,137.73303 81.14364,296.22775 76.35462,480.05707 -1.11755,42.89769 -1.96699,62.3966 -3.28766,75.46814 l -0.66996,6.63108 -86.38419,0 c -47.51128,0 -86.38416,-0.24798 -86.38416,-0.55105 0,-0.30308 1.65249,-7.54991 3.67221,-16.10409 15.04729,-63.73034 14.31526,-110.2443 -2.29306,-145.70396 -6.24635,-13.33627 -10.99185,-20.19861 -21.94866,-31.73928 l -8.78688,-9.25509 -26.6657,0.008 c -68.99854,0.0182 -132.7815,5.65437 -180.63503,15.96182 -37.50112,8.07758 -65.63764,20.10497 -94.72521,40.49176 l -17.67373,12.38708 -1.01374,11.9938 c -1.41045,16.6874 0.005,93.86847 2.00892,109.56559 l 1.653,12.94641 -88.6714,0 c -48.769271,-5.6e-4 -88.934232,-0.42684 -89.25547,-0.94785 z m 350.08119,-346.3545 c 78.82849,-5.53487 146.9583,-10.42025 151.39954,-10.85639 l 8.07501,-0.79301 -0.85758,-21.03598 c -2.88012,-70.64778 -14.36095,-127.22037 -34.25919,-168.81461 -15.94735,-33.33551 -36.27073,-56.28566 -69.75311,-78.7686 -14.03768,-9.4261 -19.96043,-12.73748 -21.7601,-12.166 -4.31565,1.37045 -30.29362,19.43617 -47.91965,33.32452 -69.88074,55.06218 -113.00693,121.35227 -128.27816,197.17877 -3.52373,17.49637 -6.7665,47.13331 -6.80638,62.20596 l -0.0259,9.78876 3.43047,0 c 1.88677,0 67.92653,-4.52854 146.75505,-10.06342 z"
       id="path3776"
       inkscape:connector-curvature="0" />
    <path
       style="color:#000000;fill:none;stroke:#000000;stroke-width:0;stroke-linecap:butt;stroke-linejoin:miter;stroke-miterlimit:4;stroke-opacity:1;stroke-dasharray:none;stroke-dashoffset:0;marker:none;visibility:visible;display:inline;overflow:visible;enable-background:accumulate"
       d="m 22.930863,855.40767 c 0,-0.53925 -0.565488,-5.51256 -1.256641,-11.05182 -4.662284,-37.36602 -6.119675,-89.75126 -3.77655,-135.74637 6.694378,-131.40943 45.117889,-267.47756 109.879348,-389.11269 20.92332,-39.29827 48.24517,-83.13708 71.00117,-113.92375 l 7.22002,-9.76799 196.63182,0 196.63183,0 4.3469,7.26263 c 9.25546,15.46364 35.30786,68.96228 44.10784,90.57552 39.97015,98.16887 62.70976,199.06189 73.45703,325.92019 4.54611,53.66137 4.71097,171.49599 0.31765,227.03595 l -0.77431,9.78876 -86.31202,0 c -52.7841,0 -86.31198,-0.45938 -86.31198,-1.1826 0,-0.65041 1.65523,-8.18144 3.67832,-16.73561 7.9792,-33.73829 9.50796,-46.04222 9.54382,-76.81168 0.0365,-31.27883 -1.1384,-39.45371 -8.39495,-58.41254 -5.79287,-15.13477 -11.96615,-25.20373 -23.44348,-38.23754 l -10.54363,-11.97351 -23.60792,0.0126 c -63.46739,0.0323 -133.17871,5.80795 -176.99059,14.66388 -43.56373,8.80578 -69.55159,19.52403 -102.4479,42.25289 l -17.23531,11.90765 -1.02134,14.52526 c -2.19587,31.229 -0.94877,80.32046 2.87975,113.36009 l 0.76839,6.63109 -89.17363,0 c -49.0455,0 -89.173637,-0.44121 -89.173637,-0.98043 z M 378.93017,509.01268 c 80.19452,-5.58705 147.72531,-10.46209 150.0684,-10.83343 l 4.26019,-0.67518 -0.86304,-17.91191 C 527.23623,372.5107 507.62106,306.65532 467.4569,261.56859 457.44262,250.32694 445.67038,240.77265 424.12247,226.39856 l -16.03456,-10.69625 -6.0576,3.52907 c -19.77431,11.52018 -54.95658,38.95203 -75.85128,59.14174 -60.46188,58.4219 -93.0024,123.36688 -100.60095,200.78127 -0.96588,9.84043 -2.01513,22.865 -2.33168,28.94351 l -0.57554,11.05182 5.22554,0.0101 c 2.87406,0.006 70.83924,-4.56061 151.03377,-10.14766 l 0,5.2e-4 z"
       id="path3812"
       inkscape:connector-curvature="0" />
    <path
       style="color:#000000;fill:none;stroke:#000000;stroke-width:0;stroke-linecap:butt;stroke-linejoin:miter;stroke-miterlimit:4;stroke-opacity:1;stroke-dasharray:none;stroke-dashoffset:0;marker:none;visibility:visible;display:inline;overflow:visible;enable-background:accumulate"
       d="m 22.930863,855.40767 c 0,-0.53925 -0.565488,-5.51256 -1.256641,-11.05182 -4.662284,-37.36602 -6.119675,-89.75126 -3.77655,-135.74637 6.694378,-131.40943 45.117889,-267.47756 109.879348,-389.11269 20.92332,-39.29827 48.24517,-83.13708 71.00117,-113.92375 l 7.22002,-9.76799 196.63182,0 196.63183,0 4.3469,7.26263 c 9.25546,15.46364 35.30786,68.96228 44.10784,90.57552 39.97015,98.16887 62.70976,199.06189 73.45703,325.92019 4.54611,53.66137 4.71097,171.49599 0.31765,227.03595 l -0.77431,9.78876 -86.31202,0 c -52.7841,0 -86.31198,-0.45938 -86.31198,-1.1826 0,-0.65041 1.65523,-8.18144 3.67832,-16.73561 7.9792,-33.73829 9.50796,-46.04222 9.54382,-76.81168 0.0365,-31.27883 -1.1384,-39.45371 -8.39495,-58.41254 -5.79287,-15.13477 -11.96615,-25.20373 -23.44348,-38.23754 l -10.54363,-11.97351 -23.60792,0.0126 c -63.46739,0.0323 -133.17871,5.80795 -176.99059,14.66388 -43.56373,8.80578 -69.55159,19.52403 -102.4479,42.25289 l -17.23531,11.90765 -1.02134,14.52526 c -2.19587,31.229 -0.94877,80.32046 2.87975,113.36009 l 0.76839,6.63109 -89.17363,0 c -49.0455,0 -89.173637,-0.44121 -89.173637,-0.98043 z M 378.93017,509.01268 c 80.19452,-5.58705 147.72531,-10.46209 150.0684,-10.83343 l 4.26019,-0.67518 -0.86304,-17.91191 C 527.23623,372.5107 507.62106,306.65532 467.4569,261.56859 457.44262,250.32694 445.67038,240.77265 424.12247,226.39856 l -16.03456,-10.69625 -6.0576,3.52907 c -19.77431,11.52018 -54.95658,38.95203 -75.85128,59.14174 -60.46188,58.4219 -93.0024,123.36688 -100.60095,200.78127 -0.96588,9.84043 -2.01513,22.865 -2.33168,28.94351 l -0.57554,11.05182 5.22554,0.0101 c 2.87406,0.006 70.83924,-4.56061 151.03377,-10.14766 l 0,5.2e-4 z"
       id="path3814"
       inkscape:connector-curvature="0" />
    <path
       style="color:#000000;fill:none;stroke:none;stroke-width:0;marker:none;visibility:visible;display:inline;overflow:visible;enable-background:accumulate"
       d="m 22.930863,855.40767 c 0,-0.53925 -0.565488,-5.51256 -1.256641,-11.05182 -4.662284,-37.36602 -6.119675,-89.75126 -3.77655,-135.74637 6.694378,-131.40943 45.117889,-267.47756 109.879348,-389.11269 20.92332,-39.29827 48.24517,-83.13708 71.00117,-113.92375 l 7.22002,-9.76799 196.63182,0 196.63183,0 4.3469,7.26263 c 9.25546,15.46364 35.30786,68.96228 44.10784,90.57552 39.97015,98.16887 62.70976,199.06189 73.45703,325.92019 4.54611,53.66137 4.71097,171.49599 0.31765,227.03595 l -0.77431,9.78876 -86.31202,0 c -52.7841,0 -86.31198,-0.45938 -86.31198,-1.1826 0,-0.65041 1.65523,-8.18144 3.67832,-16.73561 7.9792,-33.73829 9.50796,-46.04222 9.54382,-76.81168 0.0365,-31.27883 -1.1384,-39.45371 -8.39495,-58.41254 -5.79287,-15.13477 -11.96615,-25.20373 -23.44348,-38.23754 l -10.54363,-11.97351 -23.60792,0.0126 c -63.46739,0.0323 -133.17871,5.80795 -176.99059,14.66388 -43.56373,8.80578 -69.55159,19.52403 -102.4479,42.25289 l -17.23531,11.90765 -1.02134,14.52526 c -2.19587,31.229 -0.94877,80.32046 2.87975,113.36009 l 0.76839,6.63109 -89.17363,0 c -49.0455,0 -89.173637,-0.44121 -89.173637,-0.98043 z M 378.93017,509.01268 c 80.19452,-5.58705 147.72531,-10.46209 150.0684,-10.83343 l 4.26019,-0.67518 -0.86304,-17.91191 C 527.23623,372.5107 507.62106,306.65532 467.4569,261.56859 457.44262,250.32694 445.67038,240.77265 424.12247,226.39856 l -16.03456,-10.69625 -6.0576,3.52907 c -19.77431,11.52018 -54.95658,38.95203 -75.85128,59.14174 -60.46188,58.4219 -93.0024,123.36688 -100.60095,200.78127 -0.96588,9.84043 -2.01513,22.865 -2.33168,28.94351 l -0.57554,11.05182 5.22554,0.0101 c 2.87406,0.006 70.83924,-4.56061 151.03377,-10.14766 l 0,5.2e-4 z"
       id="path3816"
       inkscape:connector-curvature="0" />
    <path
       style="color:#000000;fill:#ff0000;fill-opacity:1;stroke:none;stroke-width:0;marker:none;visibility:visible;display:inline;overflow:visible;enable-background:accumulate"
       d="M 62.111248,1021.0712 C 43.796664,970.05837 29.744958,910.51933 22.648474,853.86197 14.185918,786.29808 14.376765,714.90824 23.206869,644.98432 45.475621,468.6423 121.81515,293.62766 235.11121,159.17616 251.15255,140.13947 294.18609,96.707955 311.64377,81.935811 343.25952,55.183575 380.9119,30.110704 405.32001,19.556428 l 7.83242,-3.386808 14.25973,6.871195 c 65.64896,31.63362 128.33392,96.273695 178.58351,184.153445 53.74112,93.986 89.99001,207.73873 107.66004,337.84829 8.319,61.25525 11.47485,112.81803 11.56752,188.9989 0.0841,69.07884 -2.89995,122.15246 -10.9265,194.34136 -2.70575,24.33482 -11.72812,91.29319 -12.3577,91.71129 -0.11602,0.077 -40.26083,2.2188 -89.21074,4.7595 -48.9499,2.5407 -93.41619,4.9682 -98.81399,5.3943 l -9.81417,0.7747 0.80665,-7.4284 c 2.26328,-20.8422 10.03953,-53.34635 26.44525,-110.5394 23.57053,-82.17066 29.02766,-108.44853 30.39127,-146.34432 1.6136,-44.84271 -8.81583,-76.32853 -34.2276,-103.33117 l -10.09928,-10.73152 -37.87226,0.83919 c -112.56688,2.4943 -180.3202,13.01884 -228.58093,35.50687 -12.01245,5.59744 -18.91096,9.89313 -39.45635,24.56931 l -12.48381,8.91756 -0.80145,9.8 c -6.94811,84.96098 4.96096,166.33183 40.0632,273.73878 5.21427,15.9548 9.22177,29.2675 8.90556,29.584 -0.31621,0.3163 -40.77385,0.8374 -89.90587,1.158 l -89.330942,0.5828 -5.84232,-16.2731 0,0 z M 381.46611,508.40433 c 82.99911,-5.90996 151.05539,-10.89338 151.23618,-11.07427 0.18079,-0.18087 -0.1913,-10.2654 -0.82686,-22.41006 -5.9951,-114.55714 -29.61735,-183.4206 -77.45446,-225.7947 -7.94188,-7.03493 -44.78029,-33.11121 -46.77676,-33.11121 -1.36378,0 -27.42222,17.80948 -40.31522,27.55321 -33.05937,24.98421 -61.15499,52.86959 -82.5923,81.9743 -36.20029,49.14793 -57.63154,108.69928 -60.27008,167.47355 -0.34902,7.77449 -0.87513,16.83525 -1.16915,20.13501 -0.53258,5.97745 -0.52019,5.99956 3.36331,5.99956 2.14384,0 71.80623,-4.83543 154.80534,-10.74539 z"
       id="path4326"
       inkscape:connector-curvature="0" />
  </g>
  <script
     id="script3013">
	document.getElementById(&quot;svg3020&quot;).addEventListener(&quot;click&quot;,sendClickToParentDocument,false);
	function sendClickToParentDocument(evt)
		{
			// SVGElementInstance objects aren't normal DOM nodes, so fetch the corresponding 'use' element instead
			var target = evt.target;
			if(target.correspondingUseElement)
				target = target.correspondingUseElement;
      
      // call a method in the parent document if it exists
      if (window.parent.svgElementClicked)
				window.parent.svgElementClicked(target);
			else
				alert(&quot;You clicked '&quot; + target.id + &quot;' which is a &quot; + target.nodeName + &quot; element&quot;);
		}
  </script>
  <!--
  <script xlink:href="../../../src/js.js"/>
  <script>
	document.getElementById("svg3020").addEventListener("click",sendClickToParentDocument,false);
	function sendClickToParentDocument(evt)
		{
			// SVGElementInstance objects aren't normal DOM nodes, so fetch the corresponding 'use' element instead
			var target = evt.target;
			if(target.correspondingUseElement)
				target = target.correspondingUseElement;
				
				//svgElementClicked(target);
				top.svgElementClicked(target);
			//	alert("You clicked '" + target.id + "' which is a " + target.nodeName + " element");
		}
  </script>-->
</svg>
