<?xml version="1.0" encoding="UTF-8" standalone="no"?>
<!-- Created with Inkscape (http://www.inkscape.org/) -->

<svg
   xmlns:dc="http://purl.org/dc/elements/1.1/"
   xmlns:cc="http://creativecommons.org/ns#"
   xmlns:rdf="http://www.w3.org/1999/02/22-rdf-syntax-ns#"
   xmlns:svg="http://www.w3.org/2000/svg"
   xmlns="http://www.w3.org/2000/svg"
   xmlns:sodipodi="http://sodipodi.sourceforge.net/DTD/sodipodi-0.dtd"
   xmlns:inkscape="http://www.inkscape.org/namespaces/inkscape"
   version="1.1"
   preserveAspectRatio="xMinYMin meet"
   viewBox="0 0 1050 1050"
   width="100%"
   height="100%"
   id="svg3061"
   inkscape:version="0.48.4 r9939"
   sodipodi:docname="B.svg">
  <sodipodi:namedview
     pagecolor="#ffffff"
     bordercolor="#666666"
     borderopacity="1"
     objecttolerance="10"
     gridtolerance="10"
     guidetolerance="10"
     inkscape:pageopacity="0"
     inkscape:pageshadow="2"
     inkscape:window-width="1600"
     inkscape:window-height="838"
     id="namedview2991"
     showgrid="false"
     fit-margin-top="0"
     fit-margin-left="0"
     fit-margin-right="0"
     fit-margin-bottom="0"
     inkscape:zoom="0.57432839"
     inkscape:cx="856.9271"
     inkscape:cy="687.10219"
     inkscape:window-x="-8"
     inkscape:window-y="-8"
     inkscape:window-maximized="1"
     inkscape:current-layer="svg3061" />
  <defs
     id="defs3063" />
  <metadata
     id="metadata3066">
    <rdf:RDF>
      <cc:Work
         rdf:about="">
        <dc:format>image/svg+xml</dc:format>
        <dc:type
           rdf:resource="http://purl.org/dc/dcmitype/StillImage" />
        <dc:title />
      </cc:Work>
    </rdf:RDF>
  </metadata>
  <g
     id="layer1"
     transform="translate(-2.9673508,-0.55621137)">
    <path
       d="M 72.486108,17.597516 C -4.70874,249.03017 -11.897505,669.01491 58.62275,1043.6432 l 493.88133,0 C 985.25555,849.99008 491.92193,396.44295 535.175,450.06312 727.21496,213.82946 708.15231,72.38795 507.44828,12.509694 z"
       id="path3055"
       style="fill:none;stroke:#000000;stroke-width:13.82596493px;stroke-linecap:butt;stroke-linejoin:miter;stroke-opacity:1"
       inkscape:connector-curvature="0" />
    <path
       d="m 244.04488,207.5432 c -40.02341,31.45911 -73.83855,95.63538 -32.92546,237.43209 48.42603,34.23201 145.31509,13.55063 200.3072,-50.13535 54.77757,-61.4522 82.52922,-102.23878 45.19801,-186.0773 C 388.07454,168.1022 308.41338,173.50767 244.04488,207.5432 z"
       id="path3057"
       style="fill:none;stroke:#000000;stroke-width:13.82596493px;stroke-linecap:butt;stroke-linejoin:miter;stroke-opacity:1"
       inkscape:connector-curvature="0" />
    <path
       d="m 222.90077,648.25019 c -33.7002,44.71787 -6.78414,171.16058 40.2062,212.23122 115.36536,51.6965 188.08523,6.53782 247.80717,-33.91886 C 585.82443,775.9555 500.33483,668.33808 468.28949,626.44124 342.88658,509.88517 274.87064,579.25751 222.90077,648.25019 z"
       id="path3059"
       style="fill:none;stroke:#000000;stroke-width:13.82596493px;stroke-linecap:butt;stroke-linejoin:miter;stroke-opacity:1"
       inkscape:connector-curvature="0" />
  </g>
  <path
     style="color:#000000;fill:#000080;fill-opacity:1;stroke:#000000;stroke-width:0;stroke-linecap:butt;stroke-linejoin:miter;stroke-miterlimit:4;stroke-opacity:1;stroke-dasharray:none;stroke-dashoffset:0;marker:none;visibility:visible;display:inline;overflow:visible;enable-background:accumulate"
     d="M 62.087916,1033.5215 C 60.844039,1029.886 51.595651,974.62697 46.351615,939.49726 33.099349,850.72058 24.011532,758.52364 17.853741,650.38307 15.115811,602.30066 15.099228,429.25159 17.828338,385.29269 26.748586,241.61063 42.341275,137.5203 68.245431,48.729098 L 75.079668,25.303513 126.5644,24.27886 c 28.31661,-0.563558 124.55027,-1.825451 213.85259,-2.804206 l 162.36786,-1.779554 19.88178,6.883404 c 41.14623,14.245514 74.28647,33.548567 96.80592,56.38613 14.93343,15.144394 24.89553,31.264316 32.07658,51.903936 5.12796,14.73873 5.27298,15.93262 5.26206,43.32226 -0.01,25.1039 -0.49837,30.09813 -4.49239,45.9402 -14.10059,55.92923 -51.47087,124.24632 -106.96314,195.54057 -12.80953,16.45719 -14.29289,17.81076 -19.51867,17.81076 -3.11057,0 -5.65559,0.5641 -5.65559,1.25355 0,7.48585 10.89908,25.75306 13.1716,22.07603 1.4654,-2.37109 30.46705,27.35542 51.59436,52.8839 87.94492,106.26531 135.70864,211.63098 135.70864,299.37008 0,19.24645 -5.16908,50.89033 -10.98041,67.2194 -21.53842,60.52016 -68.88984,108.46161 -144.76018,146.56398 l -17.39656,8.7366 -242.36116,0 c -192.40887,0 -242.507229,-0.4235 -243.069774,-2.0677 z M 395.65399,887.09751 c 30.40915,-5.36452 66.10758,-21.20753 104.1424,-46.21851 27.94268,-18.37459 38.1417,-30.69476 43.70717,-52.79727 4.98065,-19.77998 -1.59719,-53.76328 -15.95934,-82.45123 -17.05566,-34.06815 -48.65326,-78.03836 -68.91629,-95.90167 -64.8722,-57.18956 -126.62396,-68.72586 -179.91225,-33.6107 -13.37912,8.81638 -38.25098,33.14367 -53.90662,52.72635 -13.76532,17.2182 -20.67975,30.03187 -24.58611,45.5624 -3.28894,13.0759 -2.85311,56.25233 0.76487,75.77571 8.05164,43.44813 25.07227,83.74755 44.64704,105.70995 9.19886,10.3209 13.89963,13.07415 35.05043,20.52912 39.40369,13.88851 76.97881,17.3777 114.9687,10.67585 l 0,0 z m -93.9509,-422.32425 c 36.22505,-7.62017 71.00201,-25.43815 97.45864,-49.93293 23.08396,-21.37222 54.40801,-61.40431 65.97159,-84.31162 9.53551,-18.88976 12.75411,-32.60278 12.61744,-53.75739 -0.13884,-21.4979 -2.66456,-34.22484 -11.53841,-58.14237 l -5.89682,-15.8936 -12.79132,-6.8155 c -17.16951,-9.14829 -43.86628,-17.87775 -64.82772,-21.19772 -55.77435,-8.83379 -129.424,8.32331 -158.08857,36.82761 -44.24282,43.99546 -53.98655,118.21571 -28.55424,217.50447 l 5.26789,20.56609 9.90239,5.50962 c 23.60883,13.13583 56.97229,16.69172 90.47913,9.64334 l 0,0 z"
     id="path3016"
     inkscape:connector-curvature="0" />
  <script
     id="script3035">
	document.getElementById(&quot;svg3061&quot;).addEventListener(&quot;click&quot;,sendClickToParentDocument,false);
	function sendClickToParentDocument(evt)
		{
			// SVGElementInstance objects aren't normal DOM nodes, so fetch the corresponding 'use' element instead
			var target = evt.target;
			if(target.correspondingUseElement)
				target = target.correspondingUseElement;
      
      // call a method in the parent document if it exists
      if (window.parent.svgElementClicked)
				window.parent.svgElementClicked(target);
			else
				alert(&quot;You clicked '&quot; + target.id + &quot;' which is a &quot; + target.nodeName + &quot; element&quot;);
		}
  </script>
  <!--
  <script xlink:href="../../../src/js.js"/>
  <script>
	document.getElementById("svg3020").addEventListener("click",sendClickToParentDocument,false);
	function sendClickToParentDocument(evt)
		{
			// SVGElementInstance objects aren't normal DOM nodes, so fetch the corresponding 'use' element instead
			var target = evt.target;
			if(target.correspondingUseElement)
				target = target.correspondingUseElement;
				
				//svgElementClicked(target);
				top.svgElementClicked(target);
			//	alert("You clicked '" + target.id + "' which is a " + target.nodeName + " element");
		}
  </script>-->
</svg>
