<?xml version="1.0" encoding="UTF-8" standalone="no"?>
<!-- Created with Inkscape (http://www.inkscape.org/) -->

<svg
   xmlns:dc="http://purl.org/dc/elements/1.1/"
   xmlns:cc="http://creativecommons.org/ns#"
   xmlns:rdf="http://www.w3.org/1999/02/22-rdf-syntax-ns#"
   xmlns:svg="http://www.w3.org/2000/svg"
   xmlns="http://www.w3.org/2000/svg"
   xmlns:sodipodi="http://sodipodi.sourceforge.net/DTD/sodipodi-0.dtd"
   xmlns:inkscape="http://www.inkscape.org/namespaces/inkscape"
   version="1.1"
   preserveAspectRatio="xMinYMin meet"
   viewBox="0 0 1050 1050"
   width="100%"
   height="100%"
   id="svg3061"
   inkscape:version="0.48.4 r9939"
   sodipodi:docname="B.svg">
  <sodipodi:namedview
     pagecolor="#ffffff"
     bordercolor="#666666"
     borderopacity="1"
     objecttolerance="10"
     gridtolerance="10"
     guidetolerance="10"
     inkscape:pageopacity="0"
     inkscape:pageshadow="2"
     inkscape:window-width="1600"
     inkscape:window-height="838"
     id="namedview2991"
     showgrid="false"
     fit-margin-top="0"
     fit-margin-left="0"
     fit-margin-right="0"
     fit-margin-bottom="0"
     inkscape:zoom="0.63714286"
     inkscape:cx="525"
     inkscape:cy="525"
     inkscape:window-x="-8"
     inkscape:window-y="-8"
     inkscape:window-maximized="1"
     inkscape:current-layer="svg3061" />
  <defs
     id="defs3063" />
  <metadata
     id="metadata3066">
    <rdf:RDF>
      <cc:Work
         rdf:about="">
        <dc:format>image/svg+xml</dc:format>
        <dc:type
           rdf:resource="http://purl.org/dc/dcmitype/StillImage" />
        <dc:title />
      </cc:Work>
    </rdf:RDF>
  </metadata>
  <g
     id="layer1"
     transform="matrix(1.0048237,0,0,1.0048237,-2.9816643,-5.6237371)">
    <path
       d="M 72.486108,17.597516 C -4.70874,249.03017 -11.897505,669.01491 58.62275,1043.6432 l 493.88133,0 C 985.25555,849.99008 491.92193,396.44295 535.175,450.06312 727.21496,213.82946 708.15231,72.38795 507.44828,12.509694 z"
       id="path3055"
       style="fill:none;stroke:#000000;stroke-width:13.82596493px;stroke-linecap:butt;stroke-linejoin:miter;stroke-opacity:1"
       inkscape:connector-curvature="0" />
    <path
       d="m 244.04488,207.5432 c -40.02341,31.45911 -73.83855,95.63538 -32.92546,237.43209 48.42603,34.23201 145.31509,13.55063 200.3072,-50.13535 54.77757,-61.4522 82.52922,-102.23878 45.19801,-186.0773 C 388.07454,168.1022 308.41338,173.50767 244.04488,207.5432 z"
       id="path3057"
       style="fill:none;stroke:#000000;stroke-width:13.82596493px;stroke-linecap:butt;stroke-linejoin:miter;stroke-opacity:1"
       inkscape:connector-curvature="0" />
    <path
       d="m 222.90077,648.25019 c -33.7002,44.71787 -6.78414,171.16058 40.2062,212.23122 115.36536,51.6965 188.08523,6.53782 247.80717,-33.91886 C 585.82443,775.9555 500.33483,668.33808 468.28949,626.44124 342.88658,509.88517 274.87064,579.25751 222.90077,648.25019 z"
       id="path3059"
       style="fill:none;stroke:#000000;stroke-width:13.82596493px;stroke-linecap:butt;stroke-linejoin:miter;stroke-opacity:1"
       inkscape:connector-curvature="0" />
  </g>
  <path
     style="color:#000000;fill:#000080;fill-opacity:1;stroke:#000000;stroke-width:0;stroke-linecap:butt;stroke-linejoin:miter;stroke-miterlimit:4;stroke-opacity:1;stroke-dasharray:none;stroke-dashoffset:0;marker:none;visibility:visible;display:inline;overflow:visible;enable-background:accumulate"
     d="M 62.387407,1033.442 C 61.13753,1029.789 51.844531,974.2634 46.575199,938.96423 33.259009,849.75932 24.127355,757.11766 17.939861,648.45545 15.188725,600.14111 15.172062,426.25731 17.914336,382.08637 26.877612,237.71123 42.545515,133.11881 68.574624,43.899308 L 75.441827,20.360726 127.1749,19.33113 c 28.4532,-0.566276 125.15106,-1.834256 214.88415,-2.817732 l 163.15106,-1.788138 19.97769,6.916607 c 41.3447,14.314229 74.6448,33.710394 97.27287,56.658117 15.00547,15.217446 25.01562,31.415126 32.23131,52.154306 5.1527,14.80982 5.29842,16.00947 5.28744,43.53123 -0.01,25.22499 -0.50077,30.24331 -4.51406,46.1618 -14.1686,56.19901 -51.71914,124.84564 -107.47909,196.48379 -12.87132,16.53657 -14.36183,17.89667 -19.61282,17.89667 -3.12558,0 -5.68287,0.56682 -5.68287,1.2596 0,7.52196 10.95165,25.87728 13.23513,22.18252 1.47247,-2.38253 30.61402,27.48737 51.84324,53.13899 88.36913,106.7779 136.36325,212.65182 136.36325,300.81414 0,19.33929 -5.19401,51.13581 -11.03338,67.54364 -21.64231,60.81209 -69.22214,108.9848 -145.45845,147.27093 l -17.48048,8.7788 -243.53022,0 c -193.33699,0 -243.677004,-0.4256 -244.242263,-2.0777 z M 397.56249,886.31172 c 30.55583,-5.39039 66.42646,-21.30982 104.64475,-46.44145 28.07746,-18.46322 38.32568,-30.84282 43.918,-53.05194 5.00467,-19.8754 -1.6049,-54.02262 -16.03633,-82.84895 -17.13793,-34.23248 -48.88794,-78.41479 -69.24871,-96.36427 -65.18513,-57.46542 -127.23476,-69.05737 -180.78009,-33.77282 -13.44366,8.8589 -38.43549,33.30354 -54.16665,52.98068 -13.83172,17.30125 -20.7795,30.17673 -24.7047,45.78218 -3.30481,13.13897 -2.86688,56.52367 0.76856,76.14122 8.09048,43.65771 25.19321,84.15152 44.8624,106.21986 9.24323,10.37069 13.96668,13.13722 35.2195,20.62815 39.59376,13.9555 77.35013,17.46152 115.52327,10.72734 l 0,0 z M 303.1584,461.95033 c 36.39979,-7.65693 71.3445,-25.56086 97.92875,-50.17379 23.19531,-21.47532 54.67046,-61.70051 66.28981,-84.71831 9.58151,-18.98088 12.81564,-32.76005 12.67831,-54.0167 -0.13951,-21.6016 -2.67742,-34.38993 -11.59407,-58.42283 l -5.92526,-15.97027 -12.85303,-6.84837 c -17.25233,-9.19242 -44.07787,-17.96399 -65.14042,-21.29997 -56.04339,-8.8764 -130.0483,8.36346 -158.85114,37.00525 -44.45623,44.20768 -54.24696,118.78594 -28.69197,218.55364 l 5.2933,20.66529 9.95015,5.5362 c 23.72271,13.19919 57.24711,16.77223 90.91557,9.68986 l 0,0 z"
     id="path3016"
     inkscape:connector-curvature="0" />
  <script
     id="script3035">
	document.getElementById(&quot;svg3061&quot;).addEventListener(&quot;click&quot;,sendClickToParentDocument,false);
	function sendClickToParentDocument(evt)
		{
			// SVGElementInstance objects aren't normal DOM nodes, so fetch the corresponding 'use' element instead
			var target = evt.target;
			if(target.correspondingUseElement)
				target = target.correspondingUseElement;
      
      // call a method in the parent document if it exists
      if (window.parent.svgElementClicked)
				window.parent.svgElementClicked(target);
			else
				alert(&quot;You clicked '&quot; + target.id + &quot;' which is a &quot; + target.nodeName + &quot; element&quot;);
		}
  </script>
  <!--
  <script xlink:href="../../../src/js.js"/>
  <script>
	document.getElementById("svg3020").addEventListener("click",sendClickToParentDocument,false);
	function sendClickToParentDocument(evt)
		{
			// SVGElementInstance objects aren't normal DOM nodes, so fetch the corresponding 'use' element instead
			var target = evt.target;
			if(target.correspondingUseElement)
				target = target.correspondingUseElement;
				
				//svgElementClicked(target);
				top.svgElementClicked(target);
			//	alert("You clicked '" + target.id + "' which is a " + target.nodeName + " element");
		}
  </script>-->
</svg>
