<?xml version="1.0" encoding="UTF-8" standalone="no"?>
<!-- Created with Inkscape (http://www.inkscape.org/) -->

<svg
   xmlns:dc="http://purl.org/dc/elements/1.1/"
   xmlns:cc="http://creativecommons.org/ns#"
   xmlns:rdf="http://www.w3.org/1999/02/22-rdf-syntax-ns#"
   xmlns:svg="http://www.w3.org/2000/svg"
   xmlns="http://www.w3.org/2000/svg"
   xmlns:sodipodi="http://sodipodi.sourceforge.net/DTD/sodipodi-0.dtd"
   xmlns:inkscape="http://www.inkscape.org/namespaces/inkscape"
   version="1.1"
   preserveAspectRatio="xMinYMin meet"
   viewBox="0 0 1050 1050"
   width="100%"
   height="100%"
   id="svg3010"
   inkscape:version="0.48.4 r9939"
   sodipodi:docname="C.svg">
  <sodipodi:namedview
     pagecolor="#ffffff"
     bordercolor="#666666"
     borderopacity="1"
     objecttolerance="10"
     gridtolerance="10"
     guidetolerance="10"
     inkscape:pageopacity="0"
     inkscape:pageshadow="2"
     inkscape:window-width="1600"
     inkscape:window-height="838"
     id="namedview2998"
     showgrid="false"
     fit-margin-top="0"
     fit-margin-left="0"
     fit-margin-right="0"
     fit-margin-bottom="0"
     inkscape:zoom="0.63714286"
     inkscape:cx="525"
     inkscape:cy="525"
     inkscape:window-x="-8"
     inkscape:window-y="-8"
     inkscape:window-maximized="1"
     inkscape:current-layer="svg3010" />
  <defs
     id="defs3012" />
  <metadata
     id="metadata3015">
    <rdf:RDF>
      <cc:Work
         rdf:about="">
        <dc:format>image/svg+xml</dc:format>
        <dc:type
           rdf:resource="http://purl.org/dc/dcmitype/StillImage" />
        <dc:title />
      </cc:Work>
    </rdf:RDF>
  </metadata>
  <g
     id="layer1"
     transform="matrix(0.99975841,0,0,0.99975841,-5.726756,-1.5207277)">
    <path
       d="M 677.95792,127.48579 C 572.46596,-14.999445 518.81008,21.154293 508.09846,12.899264 329.29998,-5.8875636 227.49567,34.685644 161.58491,102.93151 -1.1900598,304.35292 16.79817,388.06955 15.505784,484.34094 0.79219915,686.06021 41.923831,808.63461 103.83262,901.7634 c 60.99265,62.97645 129.38176,115.2608 217.42027,139.1408 106.40989,10.1285 200.79408,2.0329 280.26828,-31.1021 55.37002,-47.82163 93.9582,-90.36563 127.39468,-142.41474 -5.81367,-81.81737 12.14194,-169.5815 -39.0677,-227.53607 -25.9738,71.08276 -28.49543,137.20671 -117.20304,175.15369 -75.92491,3.78453 -173.99428,4.4752 -222.51602,-18.00652 -100.48536,-72.03693 -100.03212,-117.05299 -123.99754,-168.6059 -36.3809,-164.9491 -5.55602,-268.94142 33.97195,-365.03991 42.78145,-43.6756 92.60927,-63.58363 144.38063,-76.93667 112.76041,-10.02089 131.2486,48.09632 156.27073,101.49096 42.59764,-3.37666 84.19771,-18.28864 122.29894,-73.66287 z"
       id="path2997"
       style="fill:none;stroke:#000000;stroke-width:13.56918526px;stroke-linecap:butt;stroke-linejoin:miter;stroke-opacity:1"
       inkscape:connector-curvature="0" />
  </g>
  <path
     style="color:#000000;fill:#ffff00;fill-opacity:1;stroke:#000000;stroke-width:0;stroke-linecap:butt;stroke-linejoin:miter;stroke-miterlimit:4;stroke-opacity:1;stroke-dasharray:none;stroke-dashoffset:0;marker:none;visibility:visible;display:inline;overflow:visible;enable-background:accumulate"
     d="M 351.65415,1034.1148 C 311.86848,1032.1599 295.005,1027.3442 248.12824,1004.5507 208.117,985.09544 168.92905,956.79437 125.34669,915.87928 109.73231,901.2205 103.18303,893.67819 95.917052,881.98741 42.962719,796.78511 16.903161,699.02575 15.113844,578.86371 c -0.631891,-42.43476 1.6486,-150.41793 3.79033,-179.47534 5.653598,-76.70382 33.978943,-143.77798 99.782796,-236.28472 35.87336,-50.43061 57.1024,-73.017379 88.03091,-93.661023 42.44353,-28.329503 93.5694,-45.418106 156.53117,-52.319874 23.72296,-2.600473 94.34394,-2.550251 117.60544,0.08363 9.56579,1.083128 26.33699,2.599784 37.26933,3.370344 10.93233,0.770561 23.6039,2.669744 28.15904,4.220408 29.15209,9.923965 61.82858,35.712879 94.10314,74.267972 26.68719,31.880473 23.74218,24.073433 26.60364,70.524643 l 2.48952,40.41362 -7.14051,9.27965 c -3.92731,5.10381 -12.52666,14.36063 -19.1097,20.57074 -19.52146,18.41554 -36.43394,27.87233 -61.11812,34.17475 -22.4209,5.72457 -21.16127,6.35207 -32.3087,-16.09513 -18.4126,-37.07687 -34.15353,-55.41434 -57.74863,-67.27463 -20.99044,-10.55103 -34.21677,-13.12019 -68.34531,-13.2758 l -29.81546,-0.13594 -19.53697,6.24291 c -48.2678,15.42369 -86.16925,36.17314 -114.63722,62.75908 -11.58014,10.81458 -12.6009,12.36911 -19.14298,29.15346 -14.33268,36.77199 -26.84019,77.58062 -33.61005,109.66074 -13.83595,65.56377 -13.27964,144.00688 1.56765,221.05316 6.28949,32.63774 28.91916,87.59315 47.09586,114.3708 16.56145,24.39807 40.89892,48.72164 72.45879,72.4174 14.23071,10.6847 23.51283,14.70519 44.9994,19.49126 35.77304,7.9683 51.67285,9.1282 125.15963,9.13047 l 69.56942,0.002 12.5201,-6.12128 c 22.40079,-10.95211 43.83513,-27.49974 55.86041,-43.12506 16.86554,-21.91459 26.43145,-42.50369 40.89624,-88.02261 l 9.40678,-29.60201 3.68993,5.584 c 5.67821,8.59288 12.36776,24.7561 15.79986,38.17547 5.51031,21.54509 7.14716,42.39932 8.20764,104.56897 l 1.03993,60.96538 -13.84108,19.37073 c -20.71617,28.99247 -41.93431,53.33738 -71.53798,82.07997 -35.66407,34.62675 -37.43605,35.94225 -57.90079,42.98595 -46.19885,15.9008 -85.25885,23.068 -141.62346,25.9865 -34.69251,1.7963 -36.98884,1.7887 -78.67969,-0.2597 l 0,5e-4 z"
     id="path3030"
     inkscape:connector-curvature="0" />
  <script
     id="script3053">
	document.getElementById(&quot;svg3010&quot;).addEventListener(&quot;click&quot;,sendClickToParentDocument,false);
	function sendClickToParentDocument(evt)
		{
			// SVGElementInstance objects aren't normal DOM nodes, so fetch the corresponding 'use' element instead
			var target = evt.target;
			if(target.correspondingUseElement)
				target = target.correspondingUseElement;
      
      // call a method in the parent document if it exists
      if (window.parent.svgElementClicked)
				window.parent.svgElementClicked(target);
			else
				alert(&quot;You clicked '&quot; + target.id + &quot;' which is a &quot; + target.nodeName + &quot; element&quot;);
		}
  </script>
  <!--
  <script xlink:href="../../../src/js.js"/>
  <script>
	document.getElementById("svg3020").addEventListener("click",sendClickToParentDocument,false);
	function sendClickToParentDocument(evt)
		{
			// SVGElementInstance objects aren't normal DOM nodes, so fetch the corresponding 'use' element instead
			var target = evt.target;
			if(target.correspondingUseElement)
				target = target.correspondingUseElement;
				
				//svgElementClicked(target);
				top.svgElementClicked(target);
			//	alert("You clicked '" + target.id + "' which is a " + target.nodeName + " element");
		}
  </script>-->
</svg>
