<?xml version="1.0" encoding="UTF-8" standalone="no"?>
<!-- Created with Inkscape (http://www.inkscape.org/) -->

<svg
   xmlns:dc="http://purl.org/dc/elements/1.1/"
   xmlns:cc="http://creativecommons.org/ns#"
   xmlns:rdf="http://www.w3.org/1999/02/22-rdf-syntax-ns#"
   xmlns:svg="http://www.w3.org/2000/svg"
   xmlns="http://www.w3.org/2000/svg"
   xmlns:sodipodi="http://sodipodi.sourceforge.net/DTD/sodipodi-0.dtd"
   xmlns:inkscape="http://www.inkscape.org/namespaces/inkscape"
   version="1.1"
   preserveAspectRatio="xMinYMin meet"
   viewBox="0 0 729.97229 1050.2538"
   width="100%"
   height="100%"
   id="svg3010"
   inkscape:version="0.48.4 r9939"
   sodipodi:docname="C.svg">
  <sodipodi:namedview
     pagecolor="#ffffff"
     bordercolor="#666666"
     borderopacity="1"
     objecttolerance="10"
     gridtolerance="10"
     guidetolerance="10"
     inkscape:pageopacity="0"
     inkscape:pageshadow="2"
     inkscape:window-width="1600"
     inkscape:window-height="838"
     id="namedview2998"
     showgrid="false"
     fit-margin-top="0"
     fit-margin-left="0"
     fit-margin-right="0"
     fit-margin-bottom="0"
     inkscape:zoom="0.60356774"
     inkscape:cx="366.3191"
     inkscape:cy="525.59367"
     inkscape:window-x="-8"
     inkscape:window-y="-8"
     inkscape:window-maximized="1"
     inkscape:current-layer="svg3010" />
  <defs
     id="defs3012" />
  <metadata
     id="metadata3015">
    <rdf:RDF>
      <cc:Work
         rdf:about="">
        <dc:format>image/svg+xml</dc:format>
        <dc:type
           rdf:resource="http://purl.org/dc/dcmitype/StillImage" />
        <dc:title />
      </cc:Work>
    </rdf:RDF>
  </metadata>
  <g
     id="layer1"
     transform="translate(-5.7281399,-1.5210279)">
    <path
       d="M 677.95792,127.48579 C 572.46596,-14.999445 518.81008,21.154293 508.09846,12.899264 329.29998,-5.8875636 227.49567,34.685644 161.58491,102.93151 -1.1900598,304.35292 16.79817,388.06955 15.505784,484.34094 0.79219915,686.06021 41.923831,808.63461 103.83262,901.7634 c 60.99265,62.97645 129.38176,115.2608 217.42027,139.1408 106.40989,10.1285 200.79408,2.0329 280.26828,-31.1021 55.37002,-47.82163 93.9582,-90.36563 127.39468,-142.41474 -5.81367,-81.81737 12.14194,-169.5815 -39.0677,-227.53607 -25.9738,71.08276 -28.49543,137.20671 -117.20304,175.15369 -75.92491,3.78453 -173.99428,4.4752 -222.51602,-18.00652 -100.48536,-72.03693 -100.03212,-117.05299 -123.99754,-168.6059 -36.3809,-164.9491 -5.55602,-268.94142 33.97195,-365.03991 42.78145,-43.6756 92.60927,-63.58363 144.38063,-76.93667 112.76041,-10.02089 131.2486,48.09632 156.27073,101.49096 42.59764,-3.37666 84.19771,-18.28864 122.29894,-73.66287 z"
       id="path2997"
       style="fill:none;stroke:#000000;stroke-width:13.56918526px;stroke-linecap:butt;stroke-linejoin:miter;stroke-opacity:1"
       inkscape:connector-curvature="0" />
  </g>
  <path
     style="color:#000000;fill:#ffff00;fill-opacity:1;stroke:#000000;stroke-width:0;stroke-linecap:butt;stroke-linejoin:miter;stroke-miterlimit:4;stroke-opacity:1;stroke-dasharray:none;stroke-dashoffset:0;marker:none;visibility:visible;display:inline;overflow:visible;enable-background:accumulate"
     d="m 351.73913,1034.3648 c -39.79529,-1.9554 -56.66284,-6.7723 -103.55093,-29.5713 C 208.16729,985.33356 168.96987,957.02565 125.37698,916.10067 109.75883,901.43835 103.20796,893.89421 95.94023,882.20061 42.973101,796.97772 16.907246,699.19474 15.117496,579.00366 14.485453,536.55865 16.766495,428.54938 18.908742,399.48495 24.563706,322.76259 52.895896,255.67223 118.71565,163.14313 c 35.88203,-50.4428 57.1162,-73.035022 88.05218,-93.683655 42.45379,-28.336349 93.59201,-45.429081 156.569,-52.332517 23.72869,-2.601101 94.36674,-2.550867 117.63386,0.08365 9.5681,1.08339 26.34335,2.600412 37.27833,3.371159 10.93498,0.770747 23.60961,2.670389 28.16585,4.221427 29.15913,9.926364 61.84352,35.72151 94.12588,74.285919 26.69364,31.888177 23.74792,24.079247 26.61007,70.541687 l 2.49012,40.42338 -7.14224,9.2819 c -3.92825,5.10504 -12.52968,14.3641 -19.11431,20.57571 -19.52618,18.41999 -36.44275,27.87906 -61.13289,34.18301 -22.42632,5.72595 -21.16639,6.3536 -32.31651,-16.09902 -18.41705,-37.08583 -34.16178,-55.42773 -57.76259,-67.29089 -20.99551,-10.55358 -34.22503,-13.12336 -68.36182,-13.27901 l -29.82267,-0.13597 -19.54169,6.24442 c -48.27946,15.42741 -86.19007,36.18188 -114.66492,62.77424 -11.58294,10.8172 -12.60394,12.3721 -19.1476,29.16051 -14.33615,36.78087 -26.84668,77.59937 -33.61818,109.68724 -13.83929,65.57961 -13.28285,144.04168 1.56803,221.10658 6.29101,32.64562 28.92615,87.61431 47.10724,114.39843 16.56545,24.40397 40.90881,48.73342 72.4763,72.4349 14.23415,10.68728 23.51851,14.70875 45.01028,19.49597 35.78168,7.97023 51.68533,9.13041 125.18987,9.13268 l 69.58623,0.002 12.52313,-6.12276 c 22.4062,-10.95476 43.84572,-27.50638 55.87391,-43.13548 16.86961,-21.91989 26.43783,-42.51396 40.90612,-88.04388 l 9.40905,-29.60916 3.69082,5.58534 c 5.67959,8.59496 12.37075,24.76209 15.80368,38.1847 5.51164,21.5503 7.14889,42.40957 8.20963,104.59424 l 1.04018,60.98011 -13.84443,19.37541 c -20.72117,28.99948 -41.94444,53.35027 -71.55526,82.09981 -35.67269,34.63509 -37.4451,35.95089 -57.91479,42.99629 -46.21001,15.9047 -85.27945,23.0736 -141.65768,25.9928 -34.70089,1.7968 -36.99778,1.7892 -78.6987,-0.2597 l 0,5e-4 z"
     id="path3030"
     inkscape:connector-curvature="0" />
	   <script>
	document.getElementById("svg3010").addEventListener("click",sendClickToParentDocument,false);
	function sendClickToParentDocument(evt)
		{
			// SVGElementInstance objects aren't normal DOM nodes, so fetch the corresponding 'use' element instead
			var target = evt.target;
			if(target.correspondingUseElement)
				target = target.correspondingUseElement;
      
      // call a method in the parent document if it exists
      if (window.parent.svgElementClicked)
				window.parent.svgElementClicked(target);
			else
				alert("You clicked '" + target.id + "' which is a " + target.nodeName + " element");
		}
  </script>
  <!--
  <script xlink:href="../../../src/js.js"/>
  <script>
	document.getElementById("svg3020").addEventListener("click",sendClickToParentDocument,false);
	function sendClickToParentDocument(evt)
		{
			// SVGElementInstance objects aren't normal DOM nodes, so fetch the corresponding 'use' element instead
			var target = evt.target;
			if(target.correspondingUseElement)
				target = target.correspondingUseElement;
				
				//svgElementClicked(target);
				top.svgElementClicked(target);
			//	alert("You clicked '" + target.id + "' which is a " + target.nodeName + " element");
		}
  </script>-->
</svg>
