<?xml version="1.0" encoding="UTF-8" standalone="no"?>
<!-- Created with Inkscape (http://www.inkscape.org/) -->

<svg
   xmlns:dc="http://purl.org/dc/elements/1.1/"
   xmlns:cc="http://creativecommons.org/ns#"
   xmlns:rdf="http://www.w3.org/1999/02/22-rdf-syntax-ns#"
   xmlns:svg="http://www.w3.org/2000/svg"
   xmlns="http://www.w3.org/2000/svg"
   xmlns:sodipodi="http://sodipodi.sourceforge.net/DTD/sodipodi-0.dtd"
   xmlns:inkscape="http://www.inkscape.org/namespaces/inkscape"
   version="1.1"
   preserveAspectRatio="xMinYMin meet"
   viewBox="0 0 729.97229 1050.2538"
   width="100%"
   height="100%"
   id="svg3010"
   inkscape:version="0.48.4 r9939"
   sodipodi:docname="C.svg">
  <sodipodi:namedview
     pagecolor="#ffffff"
     bordercolor="#666666"
     borderopacity="1"
     objecttolerance="10"
     gridtolerance="10"
     guidetolerance="10"
     inkscape:pageopacity="0"
     inkscape:pageshadow="2"
     inkscape:window-width="640"
     inkscape:window-height="480"
     id="namedview2998"
     showgrid="false"
     fit-margin-top="0"
     fit-margin-left="0"
     fit-margin-right="0"
     fit-margin-bottom="0"
     inkscape:zoom="0.22425739"
     inkscape:cx="366.3191"
     inkscape:cy="525.59367"
     inkscape:window-x="200"
     inkscape:window-y="0"
     inkscape:window-maximized="0"
     inkscape:current-layer="svg3010" />
  <defs
     id="defs3012" />
  <metadata
     id="metadata3015">
    <rdf:RDF>
      <cc:Work
         rdf:about="">
        <dc:format>image/svg+xml</dc:format>
        <dc:type
           rdf:resource="http://purl.org/dc/dcmitype/StillImage" />
        <dc:title />
      </cc:Work>
    </rdf:RDF>
  </metadata>
  <g
     id="layer1"
     transform="translate(-5.7281399,-1.5210279)">
    <path
       d="M 677.95792,127.48579 C 572.46596,-14.999445 518.81008,21.154293 508.09846,12.899264 329.29998,-5.8875636 227.49567,34.685644 161.58491,102.93151 -1.1900598,304.35292 16.79817,388.06955 15.505784,484.34094 0.79219915,686.06021 41.923831,808.63461 103.83262,901.7634 c 60.99265,62.97645 129.38176,115.2608 217.42027,139.1408 106.40989,10.1285 200.79408,2.0329 280.26828,-31.1021 55.37002,-47.82163 93.9582,-90.36563 127.39468,-142.41474 -5.81367,-81.81737 12.14194,-169.5815 -39.0677,-227.53607 -25.9738,71.08276 -28.49543,137.20671 -117.20304,175.15369 -75.92491,3.78453 -173.99428,4.4752 -222.51602,-18.00652 -100.48536,-72.03693 -100.03212,-117.05299 -123.99754,-168.6059 -36.3809,-164.9491 -5.55602,-268.94142 33.97195,-365.03991 42.78145,-43.6756 92.60927,-63.58363 144.38063,-76.93667 112.76041,-10.02089 131.2486,48.09632 156.27073,101.49096 42.59764,-3.37666 84.19771,-18.28864 122.29894,-73.66287 z"
       id="path2997"
       style="fill:none;stroke:#000000;stroke-width:13.56918526px;stroke-linecap:butt;stroke-linejoin:miter;stroke-opacity:1"
       inkscape:connector-curvature="0" />
  </g>
</svg>
