<?xml version="1.0" encoding="UTF-8" standalone="no"?>
<!-- Created with Inkscape (http://www.inkscape.org/) -->

<svg
   xmlns:dc="http://purl.org/dc/elements/1.1/"
   xmlns:cc="http://creativecommons.org/ns#"
   xmlns:rdf="http://www.w3.org/1999/02/22-rdf-syntax-ns#"
   xmlns:svg="http://www.w3.org/2000/svg"
   xmlns="http://www.w3.org/2000/svg"
   xmlns:sodipodi="http://sodipodi.sourceforge.net/DTD/sodipodi-0.dtd"
   xmlns:inkscape="http://www.inkscape.org/namespaces/inkscape"
   version="1.1"
   preserveAspectRatio="xMinYMin meet"
   viewBox="0 0 1050 1050"
   width="100%"
   height="100%"
   id="svg3051"
   inkscape:version="0.48.4 r9939"
   sodipodi:docname="D.svg">
  <sodipodi:namedview
     pagecolor="#ffffff"
     bordercolor="#666666"
     borderopacity="1"
     objecttolerance="10"
     gridtolerance="10"
     guidetolerance="10"
     inkscape:pageopacity="0"
     inkscape:pageshadow="2"
     inkscape:window-width="1600"
     inkscape:window-height="838"
     id="namedview3006"
     showgrid="false"
     fit-margin-top="0"
     fit-margin-left="0"
     fit-margin-right="0"
     fit-margin-bottom="0"
     inkscape:zoom="1.624446"
     inkscape:cx="349.93466"
     inkscape:cy="513.42418"
     inkscape:window-x="-8"
     inkscape:window-y="-8"
     inkscape:window-maximized="1"
     inkscape:current-layer="svg3051" />
  <defs
     id="defs3053" />
  <metadata
     id="metadata3056">
    <rdf:RDF>
      <cc:Work
         rdf:about="">
        <dc:format>image/svg+xml</dc:format>
        <dc:type
           rdf:resource="http://purl.org/dc/dcmitype/StillImage" />
        <dc:title />
      </cc:Work>
    </rdf:RDF>
  </metadata>
  <g
     id="layer1"
     transform="translate(-22.112585,10.394697)">
    <path
       d="M 68.583354,46.069979 C 5.4218143,501.71195 18.852414,841.88517 96.146154,1033.1406 l 386.943416,-4.2207 C 670.30363,978.27777 683.74321,840.22257 718.11891,712.69865 724.29371,334.64366 579.82519,170.83704 401.89763,54.616529 z"
       id="path3035"
       style="fill:none;stroke:#000000;stroke-width:12.92935181px;stroke-linecap:butt;stroke-linejoin:miter;stroke-opacity:1"
       inkscape:connector-curvature="0" />
    <path
       d="m 258.53011,203.37984 c -92.62104,395.78347 -18.08374,532.11577 19.4429,658.88287 84.49746,26.42076 144.40112,22.5722 175.20372,-17.093 94.899,-77.82474 61.8344,-222.19066 59.8257,-350.40742 C 491.61143,400.24385 461.96717,320.0392 395.27447,246.1124 349.69293,230.24094 304.11151,186.24714 258.53011,203.37984 z"
       id="path3037"
       style="fill:none;stroke:#000000;stroke-width:12.92935181px;stroke-linecap:butt;stroke-linejoin:miter;stroke-opacity:1"
       inkscape:connector-curvature="0" />
  </g>
  <path
     style="color:#000000;fill:#ff6600;fill-opacity:1;stroke:#000000;stroke-width:0;stroke-linecap:butt;stroke-linejoin:miter;stroke-miterlimit:4;stroke-opacity:1;stroke-dasharray:none;stroke-dashoffset:0;marker:none;visibility:visible;display:inline;overflow:visible;enable-background:accumulate"
     d="M 72.401189,1017.1065 C 17.838718,865.05549 1.3229222,631.82707 23.918481,332.45623 29.277587,261.45287 37.866154,179.4494 48.949484,93.460687 l 3.79054,-29.408464 5.862717,0.01186 c 3.224497,0.0065 76.232449,1.857501 162.239879,4.113275 l 156.37718,4.101406 15.10316,10.304253 C 497.10664,154.0725 568.08075,232.31561 615.22505,328.31419 c 48.04425,97.83114 72.95557,219.94454 73.01482,357.91317 l 0.0166,38.14788 -12.51103,48.00649 c -16.06714,61.65175 -26.70209,93.48727 -40.6051,121.55055 -13.7588,27.77219 -27.6538,47.60499 -47.12117,67.25775 -29.19772,29.47573 -67.84208,52.01767 -113.49182,66.20167 l -14.08293,4.3758 -130.05996,1.495 c -71.53298,0.8223 -157.27315,1.8974 -190.53371,2.3891 l -60.473744,0.8941 -6.975604,-19.4392 -1.83e-4,0 z M 382.24684,893.1271 c 6.55863,-1.4554 17.46601,-5.27661 24.23864,-8.49157 10.39583,-4.93489 15.56841,-9.10347 33.20804,-26.76229 28.44573,-28.47665 40.98232,-48.03285 51.18378,-79.84301 10.4049,-32.44457 13.92836,-60.5516 13.90195,-110.8974 -0.01,-20.50308 -0.861,-50.32575 -1.8894,-66.27259 -1.02842,-15.94685 -2.58751,-44.7931 -3.46466,-64.10282 -1.29926,-28.60234 -2.39152,-38.27396 -5.89401,-52.18966 -24.42547,-97.04451 -53.51951,-158.78313 -103.5016,-219.63426 -6.83436,-8.32055 -13.3591,-15.17097 -14.49942,-15.22314 -1.14032,-0.0522 -18.28835,-8.36894 -38.10674,-18.48169 -43.07793,-21.98141 -59.88088,-28.004 -78.13091,-28.004 -7.04241,0 -16.51059,1.10063 -21.04041,2.44583 l -8.23601,2.44584 -8.58074,40.21715 c -39.99788,187.4664 -46.82315,323.69462 -22.60128,451.10723 6.29103,33.09224 13.92147,61.21681 33.32203,122.81962 l 17.80836,56.54701 19.08549,5.09757 c 17.72103,4.73314 38.77053,9.1989 50.565,10.72763 14.34321,1.85909 51.49404,0.96612 62.63189,-1.50545 l 0,0 z"
     id="path3046"
     inkscape:connector-curvature="0" />
  <script
     id="script3073">
	document.getElementById(&quot;svg3051&quot;).addEventListener(&quot;click&quot;,sendClickToParentDocument,false);
	function sendClickToParentDocument(evt)
		{
			// SVGElementInstance objects aren't normal DOM nodes, so fetch the corresponding 'use' element instead
			var target = evt.target;
			if(target.correspondingUseElement)
				target = target.correspondingUseElement;
      
      // call a method in the parent document if it exists
      if (window.parent.svgElementClicked)
				window.parent.svgElementClicked(target);
			else
				alert(&quot;You clicked '&quot; + target.id + &quot;' which is a &quot; + target.nodeName + &quot; element&quot;);
		}
  </script>
  <!--
  <script xlink:href="../../../src/js.js"/>
  <script>
	document.getElementById("svg3020").addEventListener("click",sendClickToParentDocument,false);
	function sendClickToParentDocument(evt)
		{
			// SVGElementInstance objects aren't normal DOM nodes, so fetch the corresponding 'use' element instead
			var target = evt.target;
			if(target.correspondingUseElement)
				target = target.correspondingUseElement;
				
				//svgElementClicked(target);
				top.svgElementClicked(target);
			//	alert("You clicked '" + target.id + "' which is a " + target.nodeName + " element");
		}
  </script>-->
</svg>
