<?xml version="1.0" encoding="UTF-8" standalone="no"?>
<!-- Created with Inkscape (http://www.inkscape.org/) -->

<svg
   xmlns:dc="http://purl.org/dc/elements/1.1/"
   xmlns:cc="http://creativecommons.org/ns#"
   xmlns:rdf="http://www.w3.org/1999/02/22-rdf-syntax-ns#"
   xmlns:svg="http://www.w3.org/2000/svg"
   xmlns="http://www.w3.org/2000/svg"
   xmlns:sodipodi="http://sodipodi.sourceforge.net/DTD/sodipodi-0.dtd"
   xmlns:inkscape="http://www.inkscape.org/namespaces/inkscape"
   version="1.1"
   preserveAspectRatio="xMinYMin meet"
   viewBox="0 0 628.07489 1000"
   width="100%"
   height="100%"
   id="svg3000"
   inkscape:version="0.48.4 r9939"
   sodipodi:docname="E.svg">
  <sodipodi:namedview
     pagecolor="#ffffff"
     bordercolor="#666666"
     borderopacity="1"
     objecttolerance="10"
     gridtolerance="10"
     guidetolerance="10"
     inkscape:pageopacity="0"
     inkscape:pageshadow="2"
     inkscape:window-width="1600"
     inkscape:window-height="838"
     id="namedview3013"
     showgrid="false"
     fit-margin-top="0"
     fit-margin-left="0"
     fit-margin-right="0"
     fit-margin-bottom="0"
     inkscape:zoom="0.60356774"
     inkscape:cx="315.58953"
     inkscape:cy="504.80159"
     inkscape:window-x="-8"
     inkscape:window-y="-8"
     inkscape:window-maximized="1"
     inkscape:current-layer="svg3000" />
  <defs
     id="defs3002" />
  <metadata
     id="metadata3005">
    <rdf:RDF>
      <cc:Work
         rdf:about="">
        <dc:format>image/svg+xml</dc:format>
        <dc:type
           rdf:resource="http://purl.org/dc/dcmitype/StillImage" />
        <dc:title />
      </cc:Work>
    </rdf:RDF>
  </metadata>
  <g
     id="layer1"
     transform="translate(-56.457711,-30.982697)">
    <path
       d="M 145.82716,46.69572 C 15.901276,412.85392 75.838456,705.17663 82.466146,1018.2307 280.99714,1014.0066 493.2962,1041.9077 678.05937,1005.5585 L 577.34361,781.67003 c -53.93648,43.86256 -117.0638,73.01973 -191.41314,84.22181 -135.68861,-12.11066 -148.53075,-97.16143 -156.193,-185.2879 9.27124,-99.02858 54.31698,-106.06564 90.34692,-136.2861 62.23583,-10.65949 114.37469,-5.16397 156.19313,16.84441 46.07693,-54.24616 51.82142,-131.5394 71.97133,-200.601 -72.88172,-21.9909 -149.76728,-23.96213 -238.88363,35.22001 -124.33624,22.78128 -66.00934,-142.19863 -55.12691,-163.84956 63.34896,-64.58988 110.22922,-46.83663 162.31824,-55.12704 55.84803,7.53524 106.97616,29.22993 154.66182,61.25228 L 660.03411,45.11249 160.82877,37.45594 z"
       id="path2987"
       style="fill:none;stroke:#000000;stroke-width:12.94648552px;stroke-linecap:butt;stroke-linejoin:miter;stroke-opacity:1"
       inkscape:connector-curvature="0" />
  </g>
  <path
     style="color:#000000;fill:#00ff00;fill-opacity:1;stroke:#000000;stroke-width:0;stroke-linecap:butt;stroke-linejoin:miter;stroke-miterlimit:4;stroke-opacity:1;stroke-dasharray:none;stroke-dashoffset:0;marker:none;visibility:visible;display:inline;overflow:visible;enable-background:accumulate"
     d="m 358.99808,985.73674 c -20.50308,-0.20677 -77.53894,-1.51407 -126.74634,-2.90511 -49.2074,-1.39105 -114.25809,-2.52663 -144.557093,-2.5235 l -55.089094,0.006 -0.0075,-14.49713 C 32.590234,950.24336 28.735478,865.98759 25.984588,821.25957 12.599616,603.62708 11.028071,479.85826 20.283487,372.26275 29.741029,262.31749 51.577178,154.59832 85.441274,50.835042 95.084723,21.286459 95.658944,20.063864 101.32742,17.011186 c 5.77908,-3.11224 9.13419,-3.118696 193.49221,-0.372313 103.18613,1.537165 212.25702,3.266909 242.37976,3.843876 l 54.76861,1.049032 -39.85728,86.711909 c -21.9215,47.69155 -40.35484,86.7182 -40.96298,86.72588 -0.60815,0.008 -6.94546,-3.46098 -14.08292,-7.70818 -44.94336,-26.7438 -105.47187,-47.58803 -138.06674,-47.54611 -7.74561,0.01 -26.97291,0.92471 -42.72735,2.03278 -53.22437,3.74348 -78.59463,13.52184 -112.18484,43.23899 -13.51275,11.95468 -13.96345,12.69736 -21.65535,35.68425 -19.98417,59.72184 -19.48824,110.5881 1.30857,134.21452 13.09787,14.87996 28.23912,20.0393 54.55437,18.58925 15.56697,-0.85778 16.78458,-1.20536 27.14559,-7.74894 20.76645,-13.11521 50.62946,-26.94083 71.19201,-32.95964 24.35828,-7.12984 40.32001,-9.28118 67.92941,-9.15561 27.07815,0.1231 36.59375,1.25348 63.15583,7.50194 l 15.10819,3.55405 -2.25721,8.44285 c -1.24145,4.64357 -6.07354,24.47253 -10.73793,44.06436 -16.3858,68.82499 -29.34756,103.40233 -48.23169,128.66488 -3.11034,4.16089 -4.50079,4.90217 -6.79113,3.62042 -5.39151,-3.01724 -30.08915,-11.03192 -42.55395,-13.80925 -24.3888,-5.43417 -89.2187,-4.9589 -109.30341,0.80132 -5.34574,1.53315 -46.23787,30.9483 -56.1212,40.36998 -26.06205,24.84469 -41.70068,69.64338 -39.41143,112.8987 1.91696,36.22105 10.43335,75.24008 21.78424,99.80762 14.29283,30.93493 38.40177,53.70446 70.40388,66.49245 17.26583,6.89939 34.48224,11.40743 53.88036,14.10834 15.20128,2.11655 17.83817,2.04534 33.0613,-0.89276 39.83085,-7.68745 66.467,-16.63815 102.74815,-34.52704 14.57997,-7.18885 35.82862,-19.40076 47.21922,-27.13758 11.3906,-7.73683 21.22544,-13.56024 21.8552,-12.94092 1.75511,1.72602 92.21148,203.17168 91.54554,203.87127 -0.86865,0.91254 -14.26984,3.33994 -33.87362,6.13561 -58.66149,8.36567 -129.40275,11.98338 -217.04275,11.09962 l 0,0 z"
     id="path3060"
     inkscape:connector-curvature="0" />
</svg>
