<?xml version="1.0" encoding="UTF-8" standalone="no"?>
<!-- Created with Inkscape (http://www.inkscape.org/) -->

<svg
   xmlns:dc="http://purl.org/dc/elements/1.1/"
   xmlns:cc="http://creativecommons.org/ns#"
   xmlns:rdf="http://www.w3.org/1999/02/22-rdf-syntax-ns#"
   xmlns:svg="http://www.w3.org/2000/svg"
   xmlns="http://www.w3.org/2000/svg"
   xmlns:sodipodi="http://sodipodi.sourceforge.net/DTD/sodipodi-0.dtd"
   xmlns:inkscape="http://www.inkscape.org/namespaces/inkscape"
   preserveAspectRatio="xMinYMin meet"
   viewBox="0 0 1050 1050"
   width="100%"
   height="100%"
   id="svg3124"
   version="1.1"
   inkscape:version="0.48.4 r9939"
   sodipodi:docname="O.svg">
  <defs
     id="defs3126" />
  <sodipodi:namedview
     id="base"
     pagecolor="#ffffff"
     bordercolor="#666666"
     borderopacity="1.0"
     inkscape:pageopacity="0.0"
     inkscape:pageshadow="2"
     inkscape:zoom="0.63714286"
     inkscape:cx="525"
     inkscape:cy="525"
     inkscape:document-units="px"
     inkscape:current-layer="layer1"
     showgrid="false"
     inkscape:window-width="1600"
     inkscape:window-height="838"
     inkscape:window-x="-8"
     inkscape:window-y="-8"
     inkscape:window-maximized="1"
     fit-margin-top="0"
     fit-margin-left="0"
     fit-margin-right="0"
     fit-margin-bottom="0" />
  <metadata
     id="metadata3129">
    <rdf:RDF>
      <cc:Work
         rdf:about="">
        <dc:format>image/svg+xml</dc:format>
        <dc:type
           rdf:resource="http://purl.org/dc/dcmitype/StillImage" />
        <dc:title />
      </cc:Work>
    </rdf:RDF>
  </metadata>
  <g
     inkscape:label="Calque 1"
     inkscape:groupmode="layer"
     id="layer1"
     transform="translate(-5.1891034,23.667461)">
    <path
       style="fill:none;stroke:#000000;stroke-width:13.51696873px;stroke-linecap:butt;stroke-linejoin:miter;stroke-opacity:1"
       d="M 429.64107,-16.908983 C 249.26604,-11.903802 173.50644,149.17876 103.36509,269.00288 30.742282,414.45687 -6.4181316,612.99848 20.955108,783.64443 68.459225,957.76497 188.71471,1003.392 237.19725,1017.8921 l 343.32524,1.6819 C 786.08555,969.90445 781.52234,882.27938 814.7811,807.19006 866.09057,674.02478 827.21625,557.76899 811.41756,437.18642 792.4504,321.70014 743.35275,232.04018 693.6891,142.86536 647.21198,89.68507 578.74729,-13.960395 429.64107,-16.908983 z"
       id="path3108"
       inkscape:connector-curvature="0"
       sodipodi:nodetypes="ccccccccc" />
    <path
       style="fill:none;stroke:#000000;stroke-width:13.51696873px;stroke-linecap:butt;stroke-linejoin:miter;stroke-opacity:1"
       d="m 419.30824,179.39298 c -110.797,29.35263 -149.4349,129.90857 -169.62358,232.5659 -25.61411,83.21938 -23.45262,183.79861 -13.45465,289.27558 38.41847,123.92966 139.5923,96.00493 203.50202,105.9556 69.15497,-9.33063 137.65519,-9.22494 163.13792,-62.2278 C 644.43057,672.89761 634.31258,580.16174 633.1431,491.00517 609.03679,358.93371 584.93049,334.93276 570.4425,299.51777 503.48074,175.65677 473.53254,186.42496 419.30824,179.39298 z"
       id="path3110"
       inkscape:connector-curvature="0"
       sodipodi:nodetypes="cccccccc" />
    <path
       style="color:#000000;fill:none;stroke:#000000;stroke-width:0;stroke-linecap:butt;stroke-linejoin:miter;stroke-miterlimit:4;stroke-opacity:1;stroke-dasharray:none;stroke-dashoffset:0;marker:none;visibility:visible;display:inline;overflow:visible;enable-background:accumulate"
       d="M 41.643084,823.78479 C 30.69293,794.98369 27.433517,782.04608 24.171261,754.43373 20.388453,722.41531 19.831969,710.7639 19.870028,664.37622 c 0.03795,-46.25354 0.817615,-60.80281 5.323927,-99.34915 11.617327,-99.37291 39.891262,-199.8424 79.149115,-281.25101 5.79787,-12.02297 29.77386,-54.4118 49.72554,-87.91327 21.5012,-36.10329 44.21208,-69.42497 62.59787,-91.84435 18.9315,-23.084836 41.9021,-45.595388 62.23818,-60.991701 l 6.76528,-5.121946 146.98512,0 146.98514,0 8.53658,6.315924 c 12.78101,9.456243 27.03144,22.041801 40.686,35.932681 16.07356,16.351747 16.26936,16.569361 39.11162,43.466972 l 19.68146,23.17562 11.06525,20.06627 c 18.67946,33.87418 26.6983,49.11509 39.13771,74.38666 37.68234,76.55413 57.73408,138.02508 68.19576,209.06205 1.4184,9.63115 5.2883,33.7537 8.59978,53.60566 15.5417,93.17084 18.35643,117.79078 18.34513,160.45959 -0.0143,54.9608 -8.1434,98.05584 -27.74914,147.11229 l -5.62002,14.06205 -378.65794,0 -378.657966,0 -0.67134,-1.76577 0,0 z m 426.474486,-12.87 c 46.92336,-5.70764 62.25831,-8.45183 80.627,-14.42828 18.78927,-6.1132 35.57091,-15.86778 45.46919,-26.42952 10.51244,-11.2171 23.77789,-36.01682 31.46066,-58.8157 9.04623,-26.84498 13.63294,-53.79093 15.70293,-92.25119 0.83782,-15.56666 0.4804,-68.08161 -0.75643,-111.14239 -0.54325,-18.91377 -0.71458,-20.69966 -3.11975,-32.52076 -14.63554,-71.93145 -25.91672,-107.98431 -46.98207,-150.14723 -3.45118,-6.90766 -7.90786,-16.17864 -9.90371,-20.60219 -8.41195,-18.64395 -30.42699,-55.17158 -44.62944,-74.04975 -15.34397,-20.3955 -32.72422,-36.46303 -47.45967,-43.87508 -14.12423,-7.10459 -23.50303,-9.35377 -52.61252,-12.61725 l -17.05534,-1.91208 -5.8164,1.61673 c -9.99185,2.77735 -24.70743,8.46852 -35.12081,13.58279 -55.17373,27.0972 -92.8803,76.4411 -117.94581,154.34729 -5.03978,15.66414 -11.79157,41.84972 -15.29623,59.32359 -0.82787,4.12763 -2.93431,12.74035 -4.68099,19.13937 -5.59254,20.48841 -9.11669,38.03211 -12.13298,60.39952 -4.42834,32.83854 -5.71217,58.96212 -5.17106,105.22194 0.42007,35.91279 1.45511,56.93497 4.80348,97.56229 1.46844,17.81717 1.573,18.43849 4.66168,27.70366 13.11223,39.33278 36.27685,67.74322 67.7477,83.08972 14.36475,7.00484 33.85367,12.20273 54.7409,14.59989 9.05098,1.03875 14.86664,1.38511 55.43671,3.30169 9.04148,0.42713 18.36886,1.0328 20.72751,1.346 7.57848,1.00629 10.54605,0.81195 37.30545,-2.44306 l 0,0 z"
       id="path3194"
       inkscape:connector-curvature="0" />
    <path
       style="color:#000000;fill:#ff2a2a;fill-opacity:1;stroke:none;stroke-width:0;marker:none;visibility:visible;display:inline;overflow:visible;enable-background:accumulate"
       d="m 392.28903,1011.127 c -154.63808,-0.7956 -156.25037,-0.8361 -164.7982,-4.1469 C 204.38369,998.03023 189.27695,991.13819 175.2726,983.15695 117.04315,949.97132 70.86359,895.34563 44.052067,827.93651 30.229736,793.18464 25.59055,771.65956 21.736359,724.39523 19.303427,694.55994 20.741072,606.4791 24.139846,577.13971 33.882734,493.03578 50.303741,422.21317 76.360586,351.9155 96.262516,298.22291 110.01585,270.92752 155.83878,194.18007 207.06186,108.38803 251.77565,58.297658 306.24122,25.692552 330.3886,11.237039 356.67021,1.2837171 386.35667,-4.6486236 c 20.87874,-4.1722721 61.66296,-4.9223603 81.26869,-1.4946644 51.36194,8.9796733 90.81415,26.884416 131.12466,59.508779 20.08994,16.259315 37.35669,33.878672 65.70598,67.047769 22.04115,25.78846 23.46083,27.88999 42.41153,62.78026 45.96795,84.63199 69.90714,141.53562 86.16748,204.82064 6.077,23.65164 9.45045,42.17353 23.01172,126.34529 13.44303,83.43781 16.06384,107.66811 16.12745,149.10313 0.075,48.88388 -4.71803,80.65325 -18.46833,122.41176 -11.1244,33.78383 -34.74167,94.43 -41.77051,107.26132 -29.7409,54.29287 -82.52711,89.00575 -172.41851,113.38454 -19.69126,5.3403 -24.58688,6.108 -36.88341,5.784 -7.79816,-0.2056 -84.45313,-0.7353 -170.34439,-1.1772 l 0,0 z m 79.26009,-200.13977 c 72.13854,-8.99472 99.20534,-17.76644 120.94068,-39.19411 15.29692,-15.08036 31.00513,-46.83705 38.90777,-78.65838 9.29318,-37.42051 10.99638,-61.27649 10.03908,-140.61247 -0.78187,-64.79687 -0.78595,-64.86114 -5.55683,-87.60229 C 624.38154,410.1116 612.28868,370.99926 595.58757,334.60137 567.95589,274.38176 542.41565,233.3895 516.38105,207.47439 494.9202,186.11204 479.38781,179.20609 441.98698,174.39768 l -23.28412,-2.99353 -14.28463,4.7858 c -81.87779,27.43157 -131.26253,94.76766 -158.05155,215.50332 -2.65164,11.95062 -6.22301,26.78247 -7.93639,32.95964 -12.87937,46.43328 -18.71271,116.74999 -15.63929,188.52023 2.56572,59.91437 5.38005,88.25154 10.05075,101.19981 16.19008,44.88269 44.44658,74.03348 84.31814,86.98678 17.41564,5.65791 39.88557,8.60639 79.76707,10.46695 19.38381,0.90432 35.56935,1.97024 35.96786,2.36874 1.24399,1.24399 6.33849,0.82115 38.6543,-3.20819 z"
       id="path7012"
       inkscape:connector-curvature="0" />
  </g>
  <script
     id="script3267">
	document.getElementById(&quot;svg3124&quot;).addEventListener(&quot;click&quot;,sendClickToParentDocument,false);
	function sendClickToParentDocument(evt)
		{
			// SVGElementInstance objects aren't normal DOM nodes, so fetch the corresponding 'use' element instead
			var target = evt.target;
			if(target.correspondingUseElement)
				target = target.correspondingUseElement;
      
      // call a method in the parent document if it exists
      if (window.parent.svgElementClicked)
				window.parent.svgElementClicked(target);
			else
				alert(&quot;You clicked '&quot; + target.id + &quot;' which is a &quot; + target.nodeName + &quot; element&quot;);
		}
  </script>
  <!--
  <script xlink:href="../../../src/js.js"/>
  <script>
	document.getElementById("svg3020").addEventListener("click",sendClickToParentDocument,false);
	function sendClickToParentDocument(evt)
		{
			// SVGElementInstance objects aren't normal DOM nodes, so fetch the corresponding 'use' element instead
			var target = evt.target;
			if(target.correspondingUseElement)
				target = target.correspondingUseElement;
				
				//svgElementClicked(target);
				top.svgElementClicked(target);
			//	alert("You clicked '" + target.id + "' which is a " + target.nodeName + " element");
		}
  </script>-->
</svg>
