<?xml version="1.0" encoding="UTF-8" standalone="no"?>
<!-- Created with Inkscape (http://www.inkscape.org/) -->

<svg
   xmlns:dc="http://purl.org/dc/elements/1.1/"
   xmlns:cc="http://creativecommons.org/ns#"
   xmlns:rdf="http://www.w3.org/1999/02/22-rdf-syntax-ns#"
   xmlns:svg="http://www.w3.org/2000/svg"
   xmlns="http://www.w3.org/2000/svg"
   xmlns:sodipodi="http://sodipodi.sourceforge.net/DTD/sodipodi-0.dtd"
   xmlns:inkscape="http://www.inkscape.org/namespaces/inkscape"
   preserveAspectRatio="xMinYMin meet"
   viewBox="0 0 651.44208 1000"
   width="100%"
   height="100%"
   id="svg3000"
   version="1.1"
   inkscape:version="0.48.4 r9939"
   sodipodi:docname="F.svg">
  <defs
     id="defs3002" />
  <sodipodi:namedview
     id="base"
     pagecolor="#ffffff"
     bordercolor="#666666"
     borderopacity="1.0"
     inkscape:pageopacity="0.0"
     inkscape:pageshadow="2"
     inkscape:zoom="0.41623158"
     inkscape:cx="888.09713"
     inkscape:cy="695.95934"
     inkscape:document-units="px"
     inkscape:current-layer="layer1"
     showgrid="false"
     inkscape:window-width="1600"
     inkscape:window-height="838"
     inkscape:window-x="-8"
     inkscape:window-y="-8"
     inkscape:window-maximized="1"
     fit-margin-top="0"
     fit-margin-left="0"
     fit-margin-right="0"
     fit-margin-bottom="0" />
  <metadata
     id="metadata3005">
    <rdf:RDF>
      <cc:Work
         rdf:about="">
        <dc:format>image/svg+xml</dc:format>
        <dc:type
           rdf:resource="http://purl.org/dc/dcmitype/StillImage" />
        <dc:title />
      </cc:Work>
    </rdf:RDF>
  </metadata>
  <g
     inkscape:label="Calque 1"
     inkscape:groupmode="layer"
     id="layer1"
     transform="translate(-44.295259,-30.723932)">
    <path
       style="fill:none;stroke:#000000;stroke-width:13.03381634px;stroke-linecap:butt;stroke-linejoin:miter;stroke-opacity:1"
       d="M 124.38866,49.73414 C 14.763324,188.84602 55.233714,628.63239 72.853994,1022.6454 l 220.193416,1.5616 C 282.78837,923.31825 244.24959,746.92731 277.43095,647.84815 c 47.88676,-101.79371 229.5633,-40.60308 229.5633,-48.41137 0,-7.8083 53.24457,-184.16678 57.78125,-190.52194 24.108,-33.77075 -149.52735,-10.00586 -184.27535,12.4933 l -84.32944,32.79465 C 227.63017,428.45917 269.2564,338.93458 272.74594,271.48915 c 19.65675,-71.54909 110.41871,-70.47098 171.78205,-73.39773 24.21274,-7.0984 149.12406,49.6651 153.04229,60.90455 0.40405,1.16001 103.19893,-217.96816 90.57603,-221.75513 z"
       id="path2987"
       inkscape:connector-curvature="0"
       sodipodi:nodetypes="ccccssccccscc" />
    <path
       style="color:#000000;fill:#ff00ff;fill-opacity:1;stroke:#000000;stroke-width:0;stroke-linecap:butt;stroke-linejoin:miter;stroke-miterlimit:4;stroke-opacity:1;stroke-dasharray:none;stroke-dashoffset:0;marker:none;visibility:visible;display:inline;overflow:visible;enable-background:accumulate"
       d="m 61.513994,984.07987 c -18.488799,-0.55287 -25.826969,-1.6161 -25.826969,-3.7421 0,-1.6334 -3.202427,-67.27541 -7.116505,-145.87113 C 16.748426,597.07583 15.418037,556.85394 15.46022,438.10065 15.511143,294.73899 19.870349,233.82803 35.749139,154.60462 46.37403,101.59427 64.464431,52.300244 80.605004,32.378136 L 85.226945,26.67333 331.33985,21.05567 c 135.3621,-3.089713 259.29232,-5.657912 275.40051,-5.70711 l 29.28759,-0.08945 -5.62456,16.216934 C 617.68578,68.143848 552.8648,215.49074 550.05194,214.1258 c -0.78612,-0.38147 -16.5164,-8.05598 -34.95619,-17.05448 -36.22555,-17.67784 -81.01017,-34.193 -99.30217,-36.61952 -15.24303,-2.02206 -86.6319,3.03213 -106.22056,7.5202 -29.11055,6.66969 -47.42257,15.13523 -62.06663,28.69306 -18.51497,17.14159 -23.76168,28.65918 -29.23594,64.17873 -2.50081,16.2264 -6.22071,39.7733 -8.26645,52.3264 -4.55458,27.94788 -4.68419,65.22994 -0.26979,77.60587 5.39417,15.12273 15.26045,27.07387 28.13627,34.08177 14.62146,7.958 11.84947,8.56415 71.70254,-15.6794 65.54798,-26.55024 91.35888,-33.13936 150.05058,-38.30545 26.88802,-2.36672 53.28755,-0.52418 52.56714,3.66889 -0.21695,1.26214 -8.0129,26.62021 -17.32454,56.35125 -9.31165,29.73105 -21.75794,70.81395 -27.6584,91.29533 -9.94014,34.50361 -11.1382,37.22407 -16.31059,37.03696 -3.07036,-0.111 -18.92545,-2.00302 -35.23358,-4.20439 -33.86896,-4.57181 -81.70024,-5.22399 -102.64623,-1.39961 -18.06196,3.29781 -42.73926,13.06336 -54.45286,21.54866 -13.43276,9.73064 -27.7223,28.18719 -33.25292,42.94991 -9.58509,25.58518 -12.40999,56.36 -11.04212,120.29426 1.27872,59.76719 2.53221,73.05772 17.30982,183.53279 4.57652,34.21333 8.32095,62.59297 8.32095,63.06585 0,0.97359 -138.92467,0.24698 -178.386276,-0.93301 z"
       id="path3074"
       inkscape:connector-curvature="0"
       transform="translate(44.295259,30.723932)" />
  </g>
</svg>
