<?xml version="1.0" encoding="UTF-8" standalone="no"?>
<!-- Created with Inkscape (http://www.inkscape.org/) -->

<svg
   xmlns:dc="http://purl.org/dc/elements/1.1/"
   xmlns:cc="http://creativecommons.org/ns#"
   xmlns:rdf="http://www.w3.org/1999/02/22-rdf-syntax-ns#"
   xmlns:svg="http://www.w3.org/2000/svg"
   xmlns="http://www.w3.org/2000/svg"
   xmlns:sodipodi="http://sodipodi.sourceforge.net/DTD/sodipodi-0.dtd"
   xmlns:inkscape="http://www.inkscape.org/namespaces/inkscape"
   preserveAspectRatio="xMinYMin meet"
   viewBox="0 0 1050 1050"
   width="100%"
   height="100%"
   id="svg3000"
   version="1.1"
   inkscape:version="0.48.4 r9939"
   sodipodi:docname="F.svg">
  <defs
     id="defs3002" />
  <sodipodi:namedview
     id="base"
     pagecolor="#ffffff"
     bordercolor="#666666"
     borderopacity="1.0"
     inkscape:pageopacity="0.0"
     inkscape:pageshadow="2"
     inkscape:zoom="0.63714286"
     inkscape:cx="525"
     inkscape:cy="525"
     inkscape:document-units="px"
     inkscape:current-layer="layer1"
     showgrid="false"
     inkscape:window-width="1600"
     inkscape:window-height="838"
     inkscape:window-x="-8"
     inkscape:window-y="-8"
     inkscape:window-maximized="1"
     fit-margin-top="0"
     fit-margin-left="0"
     fit-margin-right="0"
     fit-margin-bottom="0" />
  <metadata
     id="metadata3005">
    <rdf:RDF>
      <cc:Work
         rdf:about="">
        <dc:format>image/svg+xml</dc:format>
        <dc:type
           rdf:resource="http://purl.org/dc/dcmitype/StillImage" />
        <dc:title />
      </cc:Work>
    </rdf:RDF>
  </metadata>
  <g
     inkscape:label="Calque 1"
     inkscape:groupmode="layer"
     id="layer1"
     transform="translate(-44.295259,19.276068)">
    <path
       style="fill:none;stroke:#000000;stroke-width:13.68550777px;stroke-linecap:butt;stroke-linejoin:miter;stroke-opacity:1"
       d="M 128.39333,0.68462722 C 13.286727,146.7521 55.780637,608.5278 74.281931,1022.2415 l 231.203089,1.6397 C 294.71303,917.94796 254.24731,732.73747 289.08774,628.70435 c 50.2811,-106.8834 241.04147,-42.63323 241.04147,-50.83194 0,-8.19871 55.9068,-193.37512 60.67031,-200.04804 25.31341,-35.45929 -157.00372,-10.50615 -193.48912,13.11797 l -88.54591,34.43438 c -71.96757,-27.0308 -28.26003,-121.03162 -24.59601,-191.84933 20.63959,-75.12654 115.93965,-73.99453 180.37116,-77.06762 25.42337,-7.45332 156.58026,52.14836 160.6944,63.94978 0.42426,1.21801 108.35888,-228.8665695 95.10484,-232.842888 z"
       id="path2987"
       inkscape:connector-curvature="0"
       sodipodi:nodetypes="ccccssccccscc" />
    <path
       style="color:#000000;fill:#ff00ff;fill-opacity:1;stroke:#000000;stroke-width:0;stroke-linecap:butt;stroke-linejoin:miter;stroke-miterlimit:4;stroke-opacity:1;stroke-dasharray:none;stroke-dashoffset:0;marker:none;visibility:visible;display:inline;overflow:visible;enable-background:accumulate"
       d="m 108.88495,1014.0078 c -19.413235,-0.5805 -27.118314,-1.6969 -27.118314,-3.9292 0,-1.7151 -3.362548,-70.63919 -7.47233,-153.1647 C 61.881107,607.65354 60.484198,565.42056 60.52849,440.7296 60.58196,290.19986 65.159126,226.24335 81.831856,143.05876 92.987992,87.397894 111.98291,35.639166 128.93052,14.720952 l 4.85303,-5.9900465 258.41856,-5.8985431 c 142.13021,-3.24419876 272.25694,-5.9408078 289.17054,-5.9924657 l 30.75197,-0.093923 -5.90579,17.0277803 C 692.86534,52.27495 624.80331,206.98919 621.84981,205.556 c -0.82543,-0.40054 -17.34222,-8.45878 -36.704,-17.9072 -38.03683,-18.56173 -85.06068,-35.90265 -104.26728,-38.4505 -16.00518,-2.12316 -90.9635,3.18374 -111.53159,7.89621 -30.56608,7.00318 -49.7937,15.89199 -65.16997,30.12772 -19.44071,17.99867 -24.94976,30.09214 -30.69773,67.38766 -2.62585,17.03772 -6.53175,41.76197 -8.67978,54.94273 -4.7823,29.34527 -4.9184,68.49143 -0.28328,81.48616 5.66388,15.87887 16.02348,28.42757 29.54309,35.78586 15.35253,8.3559 12.44194,8.99236 75.28767,-16.46337 68.82538,-27.87775 95.92682,-34.79633 157.55311,-40.22072 28.23242,-2.48506 55.95193,-0.55039 55.1955,3.85233 -0.2278,1.32525 -8.41355,27.95122 -18.19077,59.16882 -9.77723,31.2176 -22.84584,74.35464 -29.04132,95.86009 -10.43715,36.2288 -11.69511,39.08528 -17.12612,38.88881 -3.22388,-0.11655 -19.87172,-2.10317 -36.99526,-4.41461 -35.56241,-4.8004 -85.78525,-5.48519 -107.77854,-1.46959 -18.96506,3.4627 -44.87623,13.71653 -57.17551,22.6261 -14.1044,10.21717 -29.10841,29.59655 -34.91556,45.0974 -10.06435,26.86444 -13.03049,59.178 -11.59423,126.30898 1.34266,62.75555 2.65882,76.71061 18.17531,192.70943 4.80535,35.924 8.737,65.72259 8.737,66.21919 0,1.0222 -145.87091,0.2593 -187.3056,-0.9797 z"
       id="path3074"
       inkscape:connector-curvature="0" />
  </g>
  <script
     id="script3109">
	document.getElementById(&quot;svg3000&quot;).addEventListener(&quot;click&quot;,sendClickToParentDocument,false);
	function sendClickToParentDocument(evt)
		{
			// SVGElementInstance objects aren't normal DOM nodes, so fetch the corresponding 'use' element instead
			var target = evt.target;
			if(target.correspondingUseElement)
				target = target.correspondingUseElement;
      
      // call a method in the parent document if it exists
      if (window.parent.svgElementClicked)
				window.parent.svgElementClicked(target);
			else
				alert(&quot;You clicked '&quot; + target.id + &quot;' which is a &quot; + target.nodeName + &quot; element&quot;);
		}
  </script>
  <!--
  <script xlink:href="../../../src/js.js"/>
  <script>
	document.getElementById("svg3020").addEventListener("click",sendClickToParentDocument,false);
	function sendClickToParentDocument(evt)
		{
			// SVGElementInstance objects aren't normal DOM nodes, so fetch the corresponding 'use' element instead
			var target = evt.target;
			if(target.correspondingUseElement)
				target = target.correspondingUseElement;
				
				//svgElementClicked(target);
				top.svgElementClicked(target);
			//	alert("You clicked '" + target.id + "' which is a " + target.nodeName + " element");
		}
  </script>-->
</svg>
