<?xml version="1.0" encoding="UTF-8" standalone="no"?>
<!-- Created with Inkscape (http://www.inkscape.org/) -->

<svg
   xmlns:dc="http://purl.org/dc/elements/1.1/"
   xmlns:cc="http://creativecommons.org/ns#"
   xmlns:rdf="http://www.w3.org/1999/02/22-rdf-syntax-ns#"
   xmlns:svg="http://www.w3.org/2000/svg"
   xmlns="http://www.w3.org/2000/svg"
   xmlns:sodipodi="http://sodipodi.sourceforge.net/DTD/sodipodi-0.dtd"
   xmlns:inkscape="http://www.inkscape.org/namespaces/inkscape"
   preserveAspectRatio="xMinYMin meet"
   viewBox="0 0 723.37262 1000"
   width="100%"
   height="100%"
   id="svg3011"
   version="1.1"
   inkscape:version="0.48.4 r9939"
   sodipodi:docname="G.svg">
  <defs
     id="defs3013" />
  <sodipodi:namedview
     id="base"
     pagecolor="#ffffff"
     bordercolor="#666666"
     borderopacity="1.0"
     inkscape:pageopacity="0.0"
     inkscape:pageshadow="2"
     inkscape:zoom="0.58864034"
     inkscape:cx="685.76228"
     inkscape:cy="628.43348"
     inkscape:document-units="px"
     inkscape:current-layer="layer1"
     showgrid="false"
     inkscape:window-width="1600"
     inkscape:window-height="838"
     inkscape:window-x="-8"
     inkscape:window-y="-8"
     inkscape:window-maximized="1"
     fit-margin-top="0"
     fit-margin-left="0"
     fit-margin-right="0"
     fit-margin-bottom="0" />
  <metadata
     id="metadata3016">
    <rdf:RDF>
      <cc:Work
         rdf:about="">
        <dc:format>image/svg+xml</dc:format>
        <dc:type
           rdf:resource="http://purl.org/dc/dcmitype/StillImage" />
        <dc:title />
      </cc:Work>
    </rdf:RDF>
  </metadata>
  <g
     inkscape:label="Calque 1"
     inkscape:groupmode="layer"
     id="layer1"
     transform="translate(-6.9776835,-46.197806)">
    <path
       style="fill:none;stroke:#000000;stroke-width:12.64225388px;stroke-linecap:butt;stroke-linejoin:miter;stroke-opacity:1"
       d="m 531.38534,261.04673 c -1.98097,-14.82707 -128.76312,-87.16796 -267.21564,87.00045 -66.16392,81.91276 -68.519,252.82914 -31.07163,372.85912 46.96243,69.46109 76.91673,155.34384 239.25123,113.41125 119.93367,-69.99628 47.21288,-177.10432 -13.9822,-245.46553 60.08193,-30.27276 88.65304,-75.25061 205.07252,-79.23254 13.62051,-7.24891 60.55459,148.4393 60.58955,270.32273 -9.53808,95.78552 28.011,129.29986 -128.9471,234.59059 -18.8257,-0.4413 -37.81108,47.6754 -301.39436,12.4286 C 223.79603,1000.7373 189.80088,1014.2229 57.543571,804.79953 8.3647451,667.67972 -4.0558567,500.8886 42.007751,391.54741 90.147561,296.5994 120.52196,195.72951 239.31237,124.33163 248.37894,112.27522 425.44326,26.085524 550.02824,60.634904 586.56537,70.767294 702.45287,142.67845 694.51127,203.5643 669.0323,330.69821 558.32877,344.86563 531.38534,261.04673 z"
       id="path2987"
       inkscape:connector-curvature="0"
       sodipodi:nodetypes="ccccccccccccscc" />
    <path
       style="color:#000000;fill:#ffd42a;fill-opacity:1;stroke:#000000;stroke-width:0;stroke-linecap:butt;stroke-linejoin:miter;stroke-miterlimit:4;stroke-opacity:1;stroke-dasharray:none;stroke-dashoffset:0;marker:none;visibility:visible;display:inline;overflow:visible;enable-background:accumulate"
       d="m 400.69856,985.12546 c -20.89479,-1.45828 -68.40418,-5.99043 -88.33917,-8.42713 C 278.13911,972.51554 230.02946,955.45551 205.77302,938.90204 171.60138,915.58208 132.31313,869.23702 81.053691,791.78105 58.36098,757.49104 57.233291,755.36348 49.988548,733.17141 25.952469,659.54416 14.393383,587.92788 14.327882,512.22967 14.276538,452.89197 19.800549,412.60151 33.66005,371.22676 41.025923,349.23742 84.759957,256.82726 102.44699,225.87972 138.26022,163.21623 172.36417,126.47987 230.73536,87.689046 279.85763,55.044637 358.52633,27.240266 430.807,16.97648 c 18.173,-2.580549 64.9925,-3.492303 79.05202,-1.539443 36.78775,5.109805 65.92243,18.623015 107.4404,49.83289 32.93039,24.754421 55.14902,51.633413 61.21979,74.060653 2.91825,10.78086 2.92216,11.83475 0.0887,23.85355 -7.0854,30.05464 -19.16534,53.05638 -37.46286,71.33401 -20.41569,20.39352 -40.13959,28.42255 -60.38854,24.58241 -20.90303,-3.96419 -34.99325,-15.77169 -45.78976,-38.37148 -7.37025,-15.42782 -12.96571,-21.02204 -28.09133,-28.08521 -15.7988,-7.37751 -28.77944,-10.21014 -51.40823,-11.21828 -49.65956,-2.21236 -93.09345,13.83605 -141.44225,52.26157 -18.81143,14.95051 -50.48573,47.68523 -64.86371,67.03528 -34.13205,45.93534 -51.46856,108.19305 -53.55049,192.30689 -1.52042,61.42812 4.51027,114.33455 19.20089,168.44705 3.7714,13.89181 6.46802,19.22911 21.45796,42.47076 23.08863,35.79855 32.99687,48.6916 48.73186,63.41208 27.66385,25.88025 53.43098,36.11886 96.16053,38.20953 21.72031,1.06272 48.87985,-1.78148 74.28001,-7.77879 30.98087,-7.31496 65.4646,-40.80881 77.1191,-74.90533 4.86958,-14.24646 4.45277,-47.23679 -0.82633,-65.40497 -8.24396,-28.37189 -30.38151,-66.83251 -56.22518,-97.68274 -11.13084,-13.28716 -11.85361,-14.61447 -9.05254,-16.62472 5.54972,-3.98283 43.58913,-27.9221 57.80681,-36.37943 36.64722,-21.79945 83.71122,-35.31071 123.0664,-35.33023 l 9.64491,-0.005 4.17712,8.91885 c 17.28374,36.90366 35.80221,114.64585 44.81692,188.14545 5.29335,43.15831 3.01247,150.09683 -3.66957,172.04701 -6.37607,20.94507 -19.4652,40.04009 -42.78494,62.41666 -31.26364,29.99918 -65.50151,54.38083 -90.63197,64.54127 -36.05199,14.57614 -52.53078,17.17028 -112.97221,17.78448 -25.22762,0.25635 -50.07302,0.17265 -55.21198,-0.186 l 5e-5,3e-4 z"
       id="path3088"
       inkscape:connector-curvature="0"
       transform="translate(6.9776835,46.197806)" />
  </g>
    <script>
	document.getElementById("svg3011").addEventListener("click",sendClickToParentDocument,false);
	function sendClickToParentDocument(evt)
		{
			// SVGElementInstance objects aren't normal DOM nodes, so fetch the corresponding 'use' element instead
			var target = evt.target;
			if(target.correspondingUseElement)
				target = target.correspondingUseElement;
      
      // call a method in the parent document if it exists
      if (window.parent.svgElementClicked)
				window.parent.svgElementClicked(target);
			else
				alert("You clicked '" + target.id + "' which is a " + target.nodeName + " element");
		}
  </script>
  <!--
  <script xlink:href="../../../src/js.js"/>
  <script>
	document.getElementById("svg3020").addEventListener("click",sendClickToParentDocument,false);
	function sendClickToParentDocument(evt)
		{
			// SVGElementInstance objects aren't normal DOM nodes, so fetch the corresponding 'use' element instead
			var target = evt.target;
			if(target.correspondingUseElement)
				target = target.correspondingUseElement;
				
				//svgElementClicked(target);
				top.svgElementClicked(target);
			//	alert("You clicked '" + target.id + "' which is a " + target.nodeName + " element");
		}
  </script>-->
</svg>
