<?xml version="1.0" encoding="UTF-8" standalone="no"?>
<!-- Created with Inkscape (http://www.inkscape.org/) -->

<svg
   xmlns:dc="http://purl.org/dc/elements/1.1/"
   xmlns:cc="http://creativecommons.org/ns#"
   xmlns:rdf="http://www.w3.org/1999/02/22-rdf-syntax-ns#"
   xmlns:svg="http://www.w3.org/2000/svg"
   xmlns="http://www.w3.org/2000/svg"
   xmlns:sodipodi="http://sodipodi.sourceforge.net/DTD/sodipodi-0.dtd"
   xmlns:inkscape="http://www.inkscape.org/namespaces/inkscape"
   preserveAspectRatio="xMinYMin meet"
   viewBox="0 0 723.37262 1000"
   width="100%"
   height="100%"
   id="svg3011"
   version="1.1"
   inkscape:version="0.48.4 r9939"
   sodipodi:docname="G.svg">
  <defs
     id="defs3013" />
  <sodipodi:namedview
     id="base"
     pagecolor="#ffffff"
     bordercolor="#666666"
     borderopacity="1.0"
     inkscape:pageopacity="0.0"
     inkscape:pageshadow="2"
     inkscape:zoom="0.61860832"
     inkscape:cx="365.06956"
     inkscape:cy="520.01672"
     inkscape:document-units="px"
     inkscape:current-layer="layer1"
     showgrid="false"
     inkscape:window-width="1400"
     inkscape:window-height="881"
     inkscape:window-x="200"
     inkscape:window-y="0"
     inkscape:window-maximized="1"
     fit-margin-top="0"
     fit-margin-left="0"
     fit-margin-right="0"
     fit-margin-bottom="0" />
  <metadata
     id="metadata3016">
    <rdf:RDF>
      <cc:Work
         rdf:about="">
        <dc:format>image/svg+xml</dc:format>
        <dc:type
           rdf:resource="http://purl.org/dc/dcmitype/StillImage" />
        <dc:title />
      </cc:Work>
    </rdf:RDF>
  </metadata>
  <g
     inkscape:label="Calque 1"
     inkscape:groupmode="layer"
     id="layer1"
     transform="translate(-6.9776835,-46.197806)">
    <path
       style="fill:none;stroke:#000000;stroke-width:12.64225388px;stroke-linecap:butt;stroke-linejoin:miter;stroke-opacity:1"
       d="m 531.38534,261.04673 c -1.98097,-14.82707 -128.76312,-87.16796 -267.21564,87.00045 -66.16392,81.91276 -68.519,252.82914 -31.07163,372.85912 46.96243,69.46109 76.91673,155.34384 239.25123,113.41125 119.93367,-69.99628 47.21288,-177.10432 -13.9822,-245.46553 60.08193,-30.27276 88.65304,-75.25061 205.07252,-79.23254 13.62051,-7.24891 60.55459,148.4393 60.58955,270.32273 -9.53808,95.78552 28.011,129.29986 -128.9471,234.59059 -18.8257,-0.4413 -37.81108,47.6754 -301.39436,12.4286 C 223.79603,1000.7373 189.80088,1014.2229 57.543571,804.79953 8.3647451,667.67972 -4.0558567,500.8886 42.007751,391.54741 90.147561,296.5994 120.52196,195.72951 239.31237,124.33163 248.37894,112.27522 425.44326,26.085524 550.02824,60.634904 586.56537,70.767294 702.45287,142.67845 694.51127,203.5643 669.0323,330.69821 558.32877,344.86563 531.38534,261.04673 z"
       id="path2987"
       inkscape:connector-curvature="0"
       sodipodi:nodetypes="ccccccccccccscc" />
  </g>
</svg>
