<?xml version="1.0" encoding="UTF-8" standalone="no"?>
<!-- Created with Inkscape (http://www.inkscape.org/) -->

<svg
   xmlns:dc="http://purl.org/dc/elements/1.1/"
   xmlns:cc="http://creativecommons.org/ns#"
   xmlns:rdf="http://www.w3.org/1999/02/22-rdf-syntax-ns#"
   xmlns:svg="http://www.w3.org/2000/svg"
   xmlns="http://www.w3.org/2000/svg"
   xmlns:sodipodi="http://sodipodi.sourceforge.net/DTD/sodipodi-0.dtd"
   xmlns:inkscape="http://www.inkscape.org/namespaces/inkscape"
   preserveAspectRatio="xMinYMin meet"
   viewBox="0 0 1050 1050"
   width="100%"
   height="100%"
   id="svg3011"
   version="1.1"
   inkscape:version="0.48.4 r9939"
   sodipodi:docname="G.svg">
  <defs
     id="defs3013" />
  <sodipodi:namedview
     id="base"
     pagecolor="#ffffff"
     bordercolor="#666666"
     borderopacity="1.0"
     inkscape:pageopacity="0.0"
     inkscape:pageshadow="2"
     inkscape:zoom="0.63714286"
     inkscape:cx="525"
     inkscape:cy="525"
     inkscape:document-units="px"
     inkscape:current-layer="layer1"
     showgrid="false"
     inkscape:window-width="1600"
     inkscape:window-height="838"
     inkscape:window-x="-8"
     inkscape:window-y="-8"
     inkscape:window-maximized="1"
     fit-margin-top="0"
     fit-margin-left="0"
     fit-margin-right="0"
     fit-margin-bottom="0" />
  <metadata
     id="metadata3016">
    <rdf:RDF>
      <cc:Work
         rdf:about="">
        <dc:format>image/svg+xml</dc:format>
        <dc:type
           rdf:resource="http://purl.org/dc/dcmitype/StillImage" />
        <dc:title />
      </cc:Work>
    </rdf:RDF>
  </metadata>
  <g
     inkscape:label="Calque 1"
     inkscape:groupmode="layer"
     id="layer1"
     transform="translate(-6.9776835,3.802194)">
    <path
       style="fill:none;stroke:#000000;stroke-width:13.27436638px;stroke-linecap:butt;stroke-linejoin:miter;stroke-opacity:1"
       d="m 557.60572,221.78918 c -2.08002,-15.56842 -135.20128,-91.52636 -280.57642,91.35047 -69.47212,86.0084 -71.94495,265.4706 -32.62521,391.50208 49.31055,72.93414 80.76256,163.11103 251.21379,119.08181 125.93035,-73.4961 49.57352,-185.95954 -14.68131,-257.73881 63.08602,-31.78639 93.08569,-79.01314 215.32614,-83.19416 14.30154,-7.61136 63.58232,155.86126 63.61903,283.83886 -10.01498,100.5748 29.41155,135.76485 -135.39445,246.32007 -19.76699,-0.4633 -39.70164,50.0592 -316.46408,13.0501 C 234.63695,998.46427 198.94204,1012.6242 60.071865,792.72962 8.4340982,648.75382 -4.6075336,473.62314 43.759254,358.81489 94.306054,259.11948 126.19917,153.2061 250.9291,78.238327 260.449,65.579097 446.36654,-24.920083 577.18076,11.356766 615.54475,21.995775 737.22662,97.502488 728.88794,161.43263 702.13503,294.92323 585.89632,309.79903 557.60572,221.78918 z"
       id="path2987"
       inkscape:connector-curvature="0"
       sodipodi:nodetypes="ccccccccccccscc" />
    <path
       style="color:#000000;fill:#ffd42a;fill-opacity:1;stroke:#000000;stroke-width:0;stroke-linecap:butt;stroke-linejoin:miter;stroke-miterlimit:4;stroke-opacity:1;stroke-dasharray:none;stroke-dashoffset:0;marker:none;visibility:visible;display:inline;overflow:visible;enable-background:accumulate"
       d="m 427.71117,1030.5795 c -21.93953,-1.5312 -71.82439,-6.2899 -92.75613,-8.8484 -35.93129,-4.392 -86.44643,-22.30501 -111.91569,-39.68615 C 187.15913,957.55899 145.90647,908.89668 92.084058,827.56791 68.256712,791.5634 67.072639,789.32946 59.465659,766.02779 34.227776,688.71918 22.090736,613.52208 22.021959,534.03896 21.968048,471.73438 27.76826,429.4294 42.320736,385.98591 50.054902,362.8971 95.975638,265.86643 114.54702,233.37152 152.15091,167.57485 187.96006,129.00168 249.24981,88.27131 300.82819,53.994681 383.43033,24.800092 459.32503,14.023117 c 19.08165,-2.709577 68.24212,-3.666918 83.00462,-1.616415 38.62714,5.365295 69.21855,19.554165 112.81242,52.324534 34.57691,25.992142 57.90647,54.215084 64.28078,77.763684 3.06416,11.3199 3.06827,12.42649 0.0931,25.04623 -7.43967,31.55737 -20.1236,55.7092 -39.336,74.90071 -21.43647,21.41319 -42.14657,29.84368 -63.40797,25.81153 -21.94818,-4.1624 -36.74291,-16.56028 -48.07924,-40.29006 -7.73877,-16.19921 -13.614,-22.07314 -29.4959,-29.48947 -16.58874,-7.74638 -30.21841,-10.72064 -53.97864,-11.77919 -52.14254,-2.32298 -97.74812,14.52785 -148.51436,54.87465 -19.752,15.69803 -53.01002,50.06949 -68.1069,70.38704 -35.83865,48.23211 -54.04198,113.6027 -56.22801,201.92224 -1.59644,64.49952 4.73578,120.05127 20.16093,176.8694 3.95997,14.5864 6.79142,20.19056 22.53086,44.59429 24.24306,37.58848 34.64671,51.12618 51.16845,66.58269 29.04705,27.17426 56.10253,37.9248 100.96856,40.12 22.80633,1.11586 51.32384,-1.87055 77.99401,-8.16773 32.52991,-7.6807 68.73783,-42.84925 80.97505,-78.65059 5.11306,-14.95878 4.67541,-49.59863 -0.86764,-68.67522 -8.65616,-29.79048 -31.90059,-70.17413 -59.03644,-102.56688 -11.68738,-13.95151 -12.44629,-15.34519 -9.50517,-17.45595 5.82721,-4.18197 45.76859,-29.31821 60.69715,-38.1984 38.47958,-22.88943 87.89678,-37.07625 129.21972,-37.09674 l 10.12716,-0.005 4.38597,9.36479 c 18.14793,38.74884 37.59232,120.37814 47.05777,197.55272 5.55802,45.31622 3.16309,157.60167 -3.85305,180.64936 -6.69487,21.99232 -20.43846,42.04209 -44.92419,65.53749 -32.82682,31.49914 -68.77658,57.09997 -95.16356,67.76837 -37.85459,15.305 -55.15732,18.0288 -118.62082,18.6737 -26.48901,0.2692 -52.57667,0.1813 -57.97258,-0.1953 l 5e-5,3e-4 z"
       id="path3088"
       inkscape:connector-curvature="0" />
  </g>
  <script
     id="script3127">
	document.getElementById(&quot;svg3011&quot;).addEventListener(&quot;click&quot;,sendClickToParentDocument,false);
	function sendClickToParentDocument(evt)
		{
			// SVGElementInstance objects aren't normal DOM nodes, so fetch the corresponding 'use' element instead
			var target = evt.target;
			if(target.correspondingUseElement)
				target = target.correspondingUseElement;
      
      // call a method in the parent document if it exists
      if (window.parent.svgElementClicked)
				window.parent.svgElementClicked(target);
			else
				alert(&quot;You clicked '&quot; + target.id + &quot;' which is a &quot; + target.nodeName + &quot; element&quot;);
		}
  </script>
  <!--
  <script xlink:href="../../../src/js.js"/>
  <script>
	document.getElementById("svg3020").addEventListener("click",sendClickToParentDocument,false);
	function sendClickToParentDocument(evt)
		{
			// SVGElementInstance objects aren't normal DOM nodes, so fetch the corresponding 'use' element instead
			var target = evt.target;
			if(target.correspondingUseElement)
				target = target.correspondingUseElement;
				
				//svgElementClicked(target);
				top.svgElementClicked(target);
			//	alert("You clicked '" + target.id + "' which is a " + target.nodeName + " element");
		}
  </script>-->
</svg>
