<?xml version="1.0" encoding="UTF-8" standalone="no"?>
<!-- Created with Inkscape (http://www.inkscape.org/) -->

<svg
   xmlns:dc="http://purl.org/dc/elements/1.1/"
   xmlns:cc="http://creativecommons.org/ns#"
   xmlns:rdf="http://www.w3.org/1999/02/22-rdf-syntax-ns#"
   xmlns:svg="http://www.w3.org/2000/svg"
   xmlns="http://www.w3.org/2000/svg"
   xmlns:sodipodi="http://sodipodi.sourceforge.net/DTD/sodipodi-0.dtd"
   xmlns:inkscape="http://www.inkscape.org/namespaces/inkscape"
   preserveAspectRatio="xMinYMin meet"
   viewBox="0 0 733.53241 979.99994"
   width="100%"
   height="100%"
   id="svg3049"
   version="1.1"
   inkscape:version="0.48.4 r9939"
   sodipodi:docname="H.svg">
  <defs
     id="defs3051" />
  <sodipodi:namedview
     id="base"
     pagecolor="#ffffff"
     bordercolor="#666666"
     borderopacity="1.0"
     inkscape:pageopacity="0.0"
     inkscape:pageshadow="2"
     inkscape:zoom="0.56012413"
     inkscape:cx="762.57101"
     inkscape:cy="561.88363"
     inkscape:document-units="px"
     inkscape:current-layer="layer1"
     showgrid="false"
     inkscape:window-width="1600"
     inkscape:window-height="838"
     inkscape:window-x="-8"
     inkscape:window-y="-8"
     inkscape:window-maximized="1"
     fit-margin-top="0"
     fit-margin-left="0"
     fit-margin-right="0"
     fit-margin-bottom="0" />
  <metadata
     id="metadata3054">
    <rdf:RDF>
      <cc:Work
         rdf:about="">
        <dc:format>image/svg+xml</dc:format>
        <dc:type
           rdf:resource="http://purl.org/dc/dcmitype/StillImage" />
        <dc:title />
      </cc:Work>
    </rdf:RDF>
  </metadata>
  <g
     inkscape:label="Calque 1"
     inkscape:groupmode="layer"
     id="layer1"
     transform="translate(-7.2484994,-65.381463)">
    <path
       style="fill:none;stroke:#000000;stroke-width:12.6505518px;stroke-linecap:butt;stroke-linejoin:miter;stroke-opacity:1"
       d="M 110.60503,73.552833 C 24.555093,115.84527 -28.606443,697.033 57.068531,1039.0561 L 263.83028,1022.4414 C 245.91065,902.72326 164.44299,786.53579 225.06242,662.45436 391.12318,502.05397 494.43821,577.16284 546.28156,595.99533 c 31.04788,152.17349 -17.0599,288.51582 -57.2287,426.44607 l 221.53042,-7.3845 C 769.7348,670.84282 707.29745,240.61386 649.66237,82.783187 L 433.67026,71.706739 C 488.66589,175.23076 516.2136,282.67594 537.05109,391.07966 360.86722,406.4941 252.3298,426.74043 213.98598,452.00054 176.42321,343.06878 300.03683,80.259005 304.44413,79.090999 315.1511,76.253478 110.60503,73.552833 110.60503,73.552833 z"
       id="path3036"
       inkscape:connector-curvature="0"
       sodipodi:nodetypes="cccccccccccsc" />
    <path
       style="color:#000000;fill:none;fill-opacity:1;stroke:#000000;stroke-width:0;stroke-linecap:butt;stroke-linejoin:miter;stroke-miterlimit:4;stroke-opacity:1;stroke-dasharray:none;stroke-dashoffset:0;marker:none;visibility:visible;display:inline;overflow:visible;enable-background:accumulate"
       d="m 25.307834,790.87433 c -1.062953,-5.13842 -5.719837,-59.4663 -7.529628,-87.84173 -3.429425,-53.76937 -4.475446,-89.42621 -4.475446,-152.5593 0,-52.52937 0.41892,-72.86747 2.381534,-115.62073 4.531561,-98.71478 14.387778,-188.97435 28.858561,-264.27597 2.368549,-12.32522 7.484601,-36.16657 8.409876,-39.19092 0.304454,-0.99514 5.27577,-1.0511 93.378319,-1.0511 51.1812,0 93.05673,0.10448 93.05673,0.23217 0,0.12769 -1.90579,5.60091 -4.2351,12.1627 -17.47827,49.23733 -31.55418,101.92812 -37.49518,140.35685 -5.11381,33.07806 -5.83622,63.26148 -2.05109,85.69727 1.1537,6.83839 6.2319,26.28538 7.104,27.20481 0.24879,0.26229 3.2649,-1.18569 6.70247,-3.21773 8.54755,-5.05271 14.20009,-7.83938 22.89076,-11.28501 46.45333,-18.41758 134.84745,-33.6748 268.35697,-46.31961 17.67345,-1.67387 33.23817,-3.19751 34.58825,-3.38588 l 2.4547,-0.34247 -4.958,-24.72237 c -13.00002,-64.8227 -25.71198,-114.91443 -41.29362,-162.7184 l -4.45449,-13.66622 90.16674,0.1521 90.16674,0.15211 1.0502,4.80501 c 6.41818,29.36482 15.44362,77.38716 20.57917,109.49767 16.43688,102.77228 25.97646,203.01206 30.36314,319.04983 1.64602,43.54104 1.33868,123.4652 -0.65018,169.07655 -0.80898,18.55194 -3.01485,57.50988 -3.30735,58.411 -0.19352,0.59618 -18.79669,0.75078 -90.35661,0.75078 -49.56212,0 -90.11294,-0.15466 -90.11294,-0.34368 0,-0.18907 0.66434,-3.22975 1.47631,-6.75705 9.5623,-41.5404 15.8446,-84.05835 18.34194,-124.13631 0.76919,-12.34425 0.76568,-46.87493 -0.006,-60.06272 -1.25834,-21.50165 -3.92137,-43.42159 -7.87381,-64.81085 l -1.9116,-10.34498 -3.66195,-1.39673 c -2.01406,-0.76819 -10.53481,-4.34437 -18.935,-7.94706 -37.2486,-15.97528 -54.91255,-21.43953 -80.52697,-24.91063 -10.04877,-1.36174 -36.35335,-1.53045 -46.54861,-0.29854 -42.31305,5.11276 -84.66094,23.42828 -128.53422,55.59123 -22.32239,16.36427 -53.16661,43.51973 -55.65556,48.99953 -7.1728,15.79205 -11.33097,27.276 -14.90187,41.15566 -8.40837,32.68239 -9.18868,67.91636 -2.38692,107.77829 2.23226,13.0822 7.94254,38.29052 10.49653,46.33742 0.35694,1.12462 -1.33769,1.14642 -89.15863,1.14642 l -89.522479,0 -0.279557,-1.35141 0,0 z"
       id="path3239"
       inkscape:connector-curvature="0"
       transform="translate(7.2484994,65.381463)" />
    <path
       style="color:#000000;fill:none;stroke:none;stroke-width:0;marker:none;visibility:visible;display:inline;overflow:visible;enable-background:accumulate"
       d="m 54.509051,964.75886 c -0.0025,-0.87163 -3.160005,-16.84927 -7.01658,-35.50585 C 10.236271,749.02236 3.2851133,492.35075 29.699729,272.25579 39.420499,191.25924 55.088498,115.23404 70.908504,72.300111 78.539698,51.589803 91.86624,27.266531 99.02661,20.979643 l 6.20628,-5.449188 78.6352,1.331463 c 43.24936,0.732305 83.65922,1.856274 89.79972,2.497709 l 11.16453,1.166246 -5.52037,11.60457 c -10.28772,21.626212 -28.44732,65.948544 -39.3215,95.972477 -35.36485,97.64325 -50.96913,173.91582 -46.34372,226.52479 1.65499,18.82393 6.95006,41.70772 9.65073,41.70772 0.90253,0 5.8393,-2.40204 10.97057,-5.33786 39.17492,-22.41362 130.8628,-40.1195 286.38977,-55.30483 20.02743,-1.95544 36.71577,-3.85759 37.08519,-4.22701 0.99619,-0.99617 -12.7635,-66.42488 -20.97771,-99.75128 C 497.175,152.23354 473.5294,84.713927 445.99504,29.631138 l -7.94256,-15.889194 15.77388,1.102537 c 8.67563,0.606396 51.12318,2.775825 94.32789,4.820954 43.20471,2.045129 81.03388,4.091409 84.06481,4.547288 6.23032,0.937096 5.41039,-0.937505 16.84936,38.522804 23.82525,82.188513 44.75254,199.183163 56.95787,318.424693 17.36389,169.63854 18.30023,331.88743 2.74413,475.49215 -2.77101,25.58015 -11.17719,84.43543 -12.2068,85.46506 -0.69163,0.69163 -203.48964,7.63379 -204.13548,6.98795 -0.27731,-0.2773 4.78362,-18.51522 11.24651,-40.5287 40.70326,-138.64092 51.68179,-198.44827 51.42572,-280.14984 -0.11158,-35.60372 -0.87057,-48.55585 -4.08006,-69.62743 -2.1686,-14.23791 -4.37344,-27.62762 -4.89959,-29.7549 -0.75685,-3.05997 -6.9476,-6.34524 -29.64107,-15.72973 -34.14325,-14.11933 -54.41431,-19.82521 -80.4892,-22.65599 -66.33117,-7.20114 -138.02165,23.16645 -209.19354,88.61296 -15.01015,13.80267 -16.45258,15.75995 -21.91212,29.73353 -17.72522,45.36725 -20.63033,92.33316 -9.1981,148.7029 3.93411,19.3982 13.26566,53.07775 25.76486,92.99082 17.46852,55.78133 27.6503,96.38461 24.80128,98.90352 -0.8815,0.77938 -40.16561,4.4082 -87.29802,8.06405 -47.13241,3.65583 -89.913105,7.10375 -95.068212,7.66203 -5.155108,0.55827 -9.375004,0.3019 -9.377547,-0.56974 l 0,0 z"
       id="path4895"
       inkscape:connector-curvature="0"
       transform="translate(7.2484994,65.381463)" />
    <path
       style="color:#000000;fill:#80ffe6;stroke:none;stroke-width:0;marker:none;visibility:visible;display:inline;overflow:visible;enable-background:accumulate;fill-opacity:1"
       d="m 54.509051,964.75886 c -0.0025,-0.87163 -3.160005,-16.84927 -7.01658,-35.50585 C 10.236271,749.02236 3.2851133,492.35075 29.699729,272.25579 39.420499,191.25924 55.088498,115.23404 70.908504,72.300111 78.539698,51.589803 91.86624,27.266531 99.02661,20.979643 l 6.20628,-5.449188 78.6352,1.331463 c 43.24936,0.732305 83.65922,1.856274 89.79972,2.497709 l 11.16453,1.166246 -5.52037,11.60457 c -10.28772,21.626212 -28.44732,65.948544 -39.3215,95.972477 -35.36485,97.64325 -50.96913,173.91582 -46.34372,226.52479 1.65499,18.82393 6.95006,41.70772 9.65073,41.70772 0.90253,0 5.8393,-2.40204 10.97057,-5.33786 39.17492,-22.41362 130.8628,-40.1195 286.38977,-55.30483 20.02743,-1.95544 36.71577,-3.85759 37.08519,-4.22701 0.99619,-0.99617 -12.7635,-66.42488 -20.97771,-99.75128 C 497.175,152.23354 473.5294,84.713927 445.99504,29.631138 l -7.94256,-15.889194 15.77388,1.102537 c 8.67563,0.606396 51.12318,2.775825 94.32789,4.820954 43.20471,2.045129 81.03388,4.091409 84.06481,4.547288 6.23032,0.937096 5.41039,-0.937505 16.84936,38.522804 23.82525,82.188513 44.75254,199.183163 56.95787,318.424693 17.36389,169.63854 18.30023,331.88743 2.74413,475.49215 -2.77101,25.58015 -11.17719,84.43543 -12.2068,85.46506 -0.69163,0.69163 -203.48964,7.63379 -204.13548,6.98795 -0.27731,-0.2773 4.78362,-18.51522 11.24651,-40.5287 40.70326,-138.64092 51.68179,-198.44827 51.42572,-280.14984 -0.11158,-35.60372 -0.87057,-48.55585 -4.08006,-69.62743 -2.1686,-14.23791 -4.37344,-27.62762 -4.89959,-29.7549 -0.75685,-3.05997 -6.9476,-6.34524 -29.64107,-15.72973 -34.14325,-14.11933 -54.41431,-19.82521 -80.4892,-22.65599 -66.33117,-7.20114 -138.02165,23.16645 -209.19354,88.61296 -15.01015,13.80267 -16.45258,15.75995 -21.91212,29.73353 -17.72522,45.36725 -20.63033,92.33316 -9.1981,148.7029 3.93411,19.3982 13.26566,53.07775 25.76486,92.99082 17.46852,55.78133 27.6503,96.38461 24.80128,98.90352 -0.8815,0.77938 -40.16561,4.4082 -87.29802,8.06405 -47.13241,3.65583 -89.913105,7.10375 -95.068212,7.66203 -5.155108,0.55827 -9.375004,0.3019 -9.377547,-0.56974 l 0,0 z"
       id="path4897"
       inkscape:connector-curvature="0"
       transform="translate(7.2484994,65.381463)" />
  </g>
</svg>
