<?xml version="1.0" encoding="UTF-8" standalone="no"?>
<!-- Created with Inkscape (http://www.inkscape.org/) -->

<svg
   xmlns:dc="http://purl.org/dc/elements/1.1/"
   xmlns:cc="http://creativecommons.org/ns#"
   xmlns:rdf="http://www.w3.org/1999/02/22-rdf-syntax-ns#"
   xmlns:svg="http://www.w3.org/2000/svg"
   xmlns="http://www.w3.org/2000/svg"
   xmlns:sodipodi="http://sodipodi.sourceforge.net/DTD/sodipodi-0.dtd"
   xmlns:inkscape="http://www.inkscape.org/namespaces/inkscape"
   preserveAspectRatio="xMinYMin meet"
   viewBox="0 0 1050 1050"
   width="100%"
   height="100%"
   id="svg3049"
   version="1.1"
   inkscape:version="0.48.4 r9939"
   sodipodi:docname="H.svg">
  <defs
     id="defs3051" />
  <sodipodi:namedview
     id="base"
     pagecolor="#ffffff"
     bordercolor="#666666"
     borderopacity="1.0"
     inkscape:pageopacity="0.0"
     inkscape:pageshadow="2"
     inkscape:zoom="0.63714286"
     inkscape:cx="525"
     inkscape:cy="525"
     inkscape:document-units="px"
     inkscape:current-layer="layer1"
     showgrid="false"
     inkscape:window-width="1600"
     inkscape:window-height="838"
     inkscape:window-x="-8"
     inkscape:window-y="-8"
     inkscape:window-maximized="1"
     fit-margin-top="0"
     fit-margin-left="0"
     fit-margin-right="0"
     fit-margin-bottom="0" />
  <metadata
     id="metadata3054">
    <rdf:RDF>
      <cc:Work
         rdf:about="">
        <dc:format>image/svg+xml</dc:format>
        <dc:type
           rdf:resource="http://purl.org/dc/dcmitype/StillImage" />
        <dc:title />
      </cc:Work>
    </rdf:RDF>
  </metadata>
  <g
     inkscape:label="Calque 1"
     inkscape:groupmode="layer"
     id="layer1"
     transform="translate(-7.2484994,4.6185971)">
    <path
       style="fill:none;stroke:#000000;stroke-width:13.55416393px;stroke-linecap:butt;stroke-linejoin:miter;stroke-opacity:1"
       d="M 117.98765,4.1364159 C 25.79128,49.449745 -31.167514,672.15094 60.627109,1038.6043 L 282.15757,1020.8028 C 262.95797,892.53338 175.67118,768.04679 240.62058,635.10239 418.54284,463.24482 529.23752,543.71861 584.78397,563.89628 618.04956,726.93932 566.50551,873.0204 523.4675,1020.8028 l 237.35405,-7.9119 C 824.19818,644.09003 757.30101,183.13039 695.54914,14.026082 L 464.129,2.1584578 C 523.05289,113.07706 552.5683,228.19691 574.89418,344.34376 386.12573,360.85923 269.83563,382.55173 228.75296,409.61614 188.50713,292.90353 320.95031,11.321601 325.67242,10.070166 337.14417,7.0299643 117.98765,4.1364159 117.98765,4.1364159 z"
       id="path3036"
       inkscape:connector-curvature="0"
       sodipodi:nodetypes="cccccccccccsc" />
    <path
       style="color:#000000;fill:none;stroke:#000000;stroke-width:0;stroke-linecap:butt;stroke-linejoin:miter;stroke-miterlimit:4;stroke-opacity:1;stroke-dasharray:none;stroke-dashoffset:0;marker:none;visibility:visible;display:inline;overflow:visible;enable-background:accumulate"
       d="m 34.364038,842.7468 c -1.138878,-5.50545 -6.128397,-63.71389 -8.067459,-94.11614 -3.674384,-57.61005 -4.795121,-95.81381 -4.795121,-163.45641 0,-56.28147 0.448843,-78.0723 2.551644,-123.87936 4.855244,-105.76585 15.415477,-202.47254 30.919889,-283.15286 2.537731,-13.20559 8.019216,-38.74989 9.010582,-41.99027 0.326201,-1.06622 5.652612,-1.12618 100.048207,-1.12618 54.83701,0 99.70365,0.11194 99.70365,0.24875 0,0.13682 -2.04192,6.00098 -4.53761,13.03147 -18.72672,52.75429 -33.80805,109.20871 -40.17341,150.38235 -5.47908,35.44078 -6.25309,67.78017 -2.1976,91.81851 1.23611,7.32685 6.67704,28.16291 7.61143,29.14802 0.26656,0.28102 3.49811,-1.27038 7.18122,-3.44757 9.15809,-5.41362 15.21439,-8.39934 24.52582,-12.09108 49.77143,-19.73313 144.47942,-36.08015 287.52535,-49.62816 18.93584,-1.79343 35.61233,-3.42591 37.05884,-3.62773 l 2.63004,-0.36693 -5.31215,-26.48826 C 564.11877,254.55205 550.49881,200.88234 533.8042,149.66379 l -4.77267,-14.64238 96.60723,0.16297 96.60723,0.16297 1.12521,5.14823 c 6.87662,31.46231 16.54674,82.91482 22.04912,117.31894 17.61094,110.11317 27.83192,217.51294 32.53193,341.83913 1.7636,46.65112 1.4343,132.28416 -0.69662,181.15347 -0.86676,19.87708 -3.23019,61.61773 -3.54359,62.58322 -0.20734,0.63876 -20.13931,0.8044 -96.81066,0.8044 -53.10228,0 -96.54959,-0.1657 -96.54959,-0.36822 0,-0.20258 0.7118,-3.46045 1.58176,-7.2397 10.24533,-44.50758 16.97636,-90.06253 19.65208,-133.0032 0.82414,-13.22599 0.82038,-50.22315 -0.006,-64.35292 -1.34823,-23.03749 -4.20147,-46.52314 -8.43623,-69.44021 l -2.04814,-11.0839 -3.92352,-1.4965 c -2.15792,-0.82306 -11.2873,-4.65468 -20.2875,-8.51471 -39.90922,-17.11637 -58.83488,-22.97092 -86.27891,-26.68996 -10.76654,-1.45901 -38.95002,-1.63977 -49.87351,-0.31987 -45.33542,5.47796 -90.70816,25.10174 -137.71525,59.56204 -23.91685,17.53315 -56.96423,46.62829 -59.63096,52.4995 -7.68515,16.92006 -12.14033,29.22429 -15.96629,44.09536 -9.00897,35.01685 -9.84502,72.76753 -2.55742,115.47675 2.39171,14.01664 8.50987,41.02556 11.24629,49.64724 0.38243,1.20495 -1.43324,1.2283 -95.52712,1.2283 l -95.916947,0 -0.299525,-1.44794 0,0 z"
       id="path3239"
       inkscape:connector-curvature="0" />
    <path
       style="color:#000000;fill:none;stroke:none;stroke-width:0;marker:none;visibility:visible;display:inline;overflow:visible;enable-background:accumulate"
       d="m 65.651059,1029.0517 c -0.0027,-0.9339 -3.38572,-18.0528 -7.517765,-38.04201 C 18.215934,797.9054 10.768264,522.90008 39.06964,287.08403 49.484752,200.30201 66.271895,118.84643 83.221903,72.845787 91.398183,50.65617 105.67662,24.595519 113.34845,17.859567 l 6.64958,-5.838417 84.25201,1.426568 c 46.33861,0.784613 89.63489,1.988865 96.214,2.676117 l 11.96199,1.24955 -5.91468,12.433468 c -11.02256,23.170944 -30.47927,70.659157 -42.13018,102.827667 -37.89092,104.61777 -54.60979,186.33839 -49.65399,242.70515 1.7732,20.1685 7.44649,44.68685 10.34007,44.68685 0.96699,0 6.25639,-2.57362 11.75418,-5.71914 41.97313,-24.01459 140.21016,-42.98518 306.84621,-59.25518 21.45796,-2.09511 39.33833,-4.13313 39.73414,-4.52894 1.06734,-1.06732 -13.67518,-71.16952 -22.47612,-106.87638 C 539.93605,158.48875 514.60147,86.146306 485.10037,27.129026 l -8.50989,-17.024137 16.90059,1.181289 c 9.29532,0.64971 54.77484,2.974099 101.06561,5.165309 46.29076,2.191209 86.82202,4.383652 90.06944,4.872094 6.67535,1.004032 5.79685,-1.004469 18.05289,41.274437 25.52706,88.059132 47.94916,213.410552 61.0263,341.169342 18.60417,181.7556 19.60739,355.59371 2.94014,509.45592 -2.96894,27.40731 -11.97557,90.46652 -13.07872,91.56972 -0.74103,0.741 -218.02463,8.1791 -218.71661,7.4871 -0.29711,-0.2971 5.12531,-19.83775 12.04984,-43.42362 43.61064,-148.54386 55.37335,-212.62317 55.09899,-300.16057 -0.11955,-38.14685 -0.93275,-52.02413 -4.37149,-74.60083 -2.3235,-15.2549 -4.68583,-29.60102 -5.24957,-31.88025 -0.81091,-3.27854 -7.44385,-6.79847 -31.75829,-16.85328 -36.58205,-15.12786 -58.30105,-21.2413 -86.23843,-24.27428 -71.06912,-7.71551 -147.88036,24.8212 -224.13596,94.94246 -16.0823,14.78858 -17.62777,16.88567 -23.47727,31.85736 -18.99131,48.60777 -22.10393,98.9284 -9.85511,159.32455 4.21512,20.78379 14.21321,56.86902 27.60521,99.63303 18.71627,59.76572 29.62532,103.26923 26.5728,105.96803 -0.94446,0.8351 -43.03459,4.7231 -93.5336,8.6401 -50.49902,3.917 -96.335479,7.6112 -101.858808,8.2093 -5.523331,0.5982 -10.044648,0.3235 -10.047373,-0.6104 l 0,0 z"
       id="path4895"
       inkscape:connector-curvature="0" />
    <path
       style="color:#000000;fill:#80ffe6;fill-opacity:1;stroke:none;stroke-width:0;marker:none;visibility:visible;display:inline;overflow:visible;enable-background:accumulate"
       d="m 65.651059,1029.0517 c -0.0027,-0.9339 -3.38572,-18.0528 -7.517765,-38.04201 C 18.215934,797.9054 10.768264,522.90008 39.06964,287.08403 49.484752,200.30201 66.271895,118.84643 83.221903,72.845787 91.398183,50.65617 105.67662,24.595519 113.34845,17.859567 l 6.64958,-5.838417 84.25201,1.426568 c 46.33861,0.784613 89.63489,1.988865 96.214,2.676117 l 11.96199,1.24955 -5.91468,12.433468 c -11.02256,23.170944 -30.47927,70.659157 -42.13018,102.827667 -37.89092,104.61777 -54.60979,186.33839 -49.65399,242.70515 1.7732,20.1685 7.44649,44.68685 10.34007,44.68685 0.96699,0 6.25639,-2.57362 11.75418,-5.71914 41.97313,-24.01459 140.21016,-42.98518 306.84621,-59.25518 21.45796,-2.09511 39.33833,-4.13313 39.73414,-4.52894 1.06734,-1.06732 -13.67518,-71.16952 -22.47612,-106.87638 C 539.93605,158.48875 514.60147,86.146306 485.10037,27.129026 l -8.50989,-17.024137 16.90059,1.181289 c 9.29532,0.64971 54.77484,2.974099 101.06561,5.165309 46.29076,2.191209 86.82202,4.383652 90.06944,4.872094 6.67535,1.004032 5.79685,-1.004469 18.05289,41.274437 25.52706,88.059132 47.94916,213.410552 61.0263,341.169342 18.60417,181.7556 19.60739,355.59371 2.94014,509.45592 -2.96894,27.40731 -11.97557,90.46652 -13.07872,91.56972 -0.74103,0.741 -218.02463,8.1791 -218.71661,7.4871 -0.29711,-0.2971 5.12531,-19.83775 12.04984,-43.42362 43.61064,-148.54386 55.37335,-212.62317 55.09899,-300.16057 -0.11955,-38.14685 -0.93275,-52.02413 -4.37149,-74.60083 -2.3235,-15.2549 -4.68583,-29.60102 -5.24957,-31.88025 -0.81091,-3.27854 -7.44385,-6.79847 -31.75829,-16.85328 -36.58205,-15.12786 -58.30105,-21.2413 -86.23843,-24.27428 -71.06912,-7.71551 -147.88036,24.8212 -224.13596,94.94246 -16.0823,14.78858 -17.62777,16.88567 -23.47727,31.85736 -18.99131,48.60777 -22.10393,98.9284 -9.85511,159.32455 4.21512,20.78379 14.21321,56.86902 27.60521,99.63303 18.71627,59.76572 29.62532,103.26923 26.5728,105.96803 -0.94446,0.8351 -43.03459,4.7231 -93.5336,8.6401 -50.49902,3.917 -96.335479,7.6112 -101.858808,8.2093 -5.523331,0.5982 -10.044648,0.3235 -10.047373,-0.6104 l 0,0 z"
       id="path4897"
       inkscape:connector-curvature="0" />
  </g>
  <script
     id="script3149">
	document.getElementById(&quot;svg3049&quot;).addEventListener(&quot;click&quot;,sendClickToParentDocument,false);
	function sendClickToParentDocument(evt)
		{
			// SVGElementInstance objects aren't normal DOM nodes, so fetch the corresponding 'use' element instead
			var target = evt.target;
			if(target.correspondingUseElement)
				target = target.correspondingUseElement;
      
      // call a method in the parent document if it exists
      if (window.parent.svgElementClicked)
				window.parent.svgElementClicked(target);
			else
				alert(&quot;You clicked '&quot; + target.id + &quot;' which is a &quot; + target.nodeName + &quot; element&quot;);
		}
  </script>
  <!--
  <script xlink:href="../../../src/js.js"/>
  <script>
	document.getElementById("svg3020").addEventListener("click",sendClickToParentDocument,false);
	function sendClickToParentDocument(evt)
		{
			// SVGElementInstance objects aren't normal DOM nodes, so fetch the corresponding 'use' element instead
			var target = evt.target;
			if(target.correspondingUseElement)
				target = target.correspondingUseElement;
				
				//svgElementClicked(target);
				top.svgElementClicked(target);
			//	alert("You clicked '" + target.id + "' which is a " + target.nodeName + " element");
		}
  </script>-->
</svg>
