<?xml version="1.0" encoding="UTF-8" standalone="no"?>
<!-- Created with Inkscape (http://www.inkscape.org/) -->

<svg
   xmlns:dc="http://purl.org/dc/elements/1.1/"
   xmlns:cc="http://creativecommons.org/ns#"
   xmlns:rdf="http://www.w3.org/1999/02/22-rdf-syntax-ns#"
   xmlns:svg="http://www.w3.org/2000/svg"
   xmlns="http://www.w3.org/2000/svg"
   xmlns:sodipodi="http://sodipodi.sourceforge.net/DTD/sodipodi-0.dtd"
   xmlns:inkscape="http://www.inkscape.org/namespaces/inkscape"
   preserveAspectRatio="xMinYMin meet"
   viewBox="0 0 700.6803 1000.0001"
   width="100%"
   height="100%"
   id="svg3190"
   version="1.1"
   inkscape:version="0.48.4 r9939"
   sodipodi:docname="X.svg">
  <defs
     id="defs3192" />
  <sodipodi:namedview
     id="base"
     pagecolor="#ffffff"
     bordercolor="#666666"
     borderopacity="1.0"
     inkscape:pageopacity="0.0"
     inkscape:pageshadow="2"
     inkscape:zoom="0.33304453"
     inkscape:cx="658.73496"
     inkscape:cy="795.02283"
     inkscape:document-units="px"
     inkscape:current-layer="layer1"
     showgrid="false"
     inkscape:window-width="1600"
     inkscape:window-height="838"
     inkscape:window-x="-8"
     inkscape:window-y="-8"
     inkscape:window-maximized="1"
     fit-margin-top="0"
     fit-margin-left="0"
     fit-margin-right="0"
     fit-margin-bottom="0" />
  <metadata
     id="metadata3195">
    <rdf:RDF>
      <cc:Work
         rdf:about="">
        <dc:format>image/svg+xml</dc:format>
        <dc:type
           rdf:resource="http://purl.org/dc/dcmitype/StillImage" />
        <dc:title />
      </cc:Work>
    </rdf:RDF>
  </metadata>
  <g
     inkscape:label="Calque 1"
     inkscape:groupmode="layer"
     id="layer1"
     transform="translate(-22.705068,-38.869103)">
    <path
       style="fill:none;stroke:#000000;stroke-width:13.1802721px;stroke-linecap:butt;stroke-linejoin:miter;stroke-opacity:1"
       d="m 83.858754,45.459239 204.223296,0 C 314.76749,171.59009 299.23085,331.05437 397.20904,400.90138 501.32158,349.6379 469.94239,170.67735 500.1003,45.459239 l 193.31061,1.55896 C 686.68881,343.87614 606.45178,407.21631 531.27942,486.64405 l 3.11779,53.00446 c 150.9656,120.90541 159.7933,308.438 182.398,489.51249 l -207.34127,-1.5589 C 472.10633,884.11689 472.25342,691.29637 362.91199,642.53965 285.95977,701.08971 232.52668,828.23715 205.45744,1032.279 l -176.162236,0 C 32.682664,862.81586 78.435994,690.3267 255.34397,508.46939 160.78739,390.0892 72.353964,265.82152 83.858754,45.459239 z"
       id="path3177"
       inkscape:connector-curvature="0"
       sodipodi:nodetypes="cccccccccccccc" />
    <path
       style="color:#000000;fill:#ffaaee;fill-opacity:1;stroke:#000000;stroke-width:0;stroke-linecap:butt;stroke-linejoin:miter;stroke-miterlimit:4;stroke-opacity:1;stroke-dasharray:none;stroke-dashoffset:0;marker:none;visibility:visible;display:inline;overflow:visible;enable-background:accumulate"
       d="m 17.314054,951.27386 c 8.344349,-135.3394 49.29883,-251.66931 128.170886,-364.06542 19.31613,-27.52632 69.44994,-88.11041 85.58758,-103.42812 5.99575,-5.6911 10.90135,-11.40773 10.90135,-12.70359 0,-1.29586 -14.54244,-21.63618 -32.31654,-45.20065 C 150.82416,347.87642 117.43838,288.48758 96.512558,224.60673 78.06789,168.30014 67.83137,102.9563 67.8255,41.48562 l -0.0025,-26.272762 95.49773,0 95.49774,0 3.54862,21.76886 c 1.95173,11.972874 6.95195,49.467859 11.11158,83.322192 8.9452,72.80289 14.11934,102.0822 24.16658,136.75312 13.07253,45.11059 34.58353,80.89231 62.72298,104.33437 l 13.67052,11.38848 17.28976,-11.77375 c 49.59499,-33.77245 64.9115,-79.33232 78.90146,-234.69702 3.49457,-38.808622 7.96121,-79.343742 9.92588,-90.078042 l 3.5721,-19.51691 89.71602,-0.795963 89.71602,-0.795963 -2.07381,35.325881 c -8.61725,146.790417 -35.3861,240.984027 -88.89733,312.810127 -9.33256,12.52673 -29.4151,35.88054 -44.62784,51.89735 l -27.65955,29.12142 2.09258,30.38287 2.0926,30.38288 16.11169,14.05941 c 20.22378,17.64773 50.42647,53.12941 66.91892,78.61537 33.29161,51.44594 58.12925,121.51714 73.9696,208.6808 4.98909,27.45303 22.26945,158.48025 22.26945,168.85652 l 0,6.88001 -95.23982,-0.7928 -95.23978,-0.79284 -8.19894,-40.53512 C 480.16836,917.71979 470.3933,868.40206 462.9554,830.41916 446.06811,744.1812 437.84723,715.46207 418.84521,676.32295 c -16.77713,-34.55643 -40.98518,-62.16617 -66.073,-75.35746 l -13.80962,-7.2612 -12.65651,10.17105 c -15.75327,12.65969 -40.73799,43.35858 -57.51071,70.66379 -38.53815,62.73831 -66.83515,151.0601 -86.97827,271.48018 -3.17677,18.99146 -5.80396,35.5433 -5.8382,36.78187 -0.0342,1.23857 -36.21644,2.25195 -80.404883,2.25195 l -80.342624,0 2.082661,-33.77927 0,0 z"
       id="path3496"
       inkscape:connector-curvature="0"
       transform="translate(22.705068,38.869103)" />
  </g>
    <script>
	document.getElementById("svg3020").addEventListener("click",sendClickToParentDocument,false);
	function sendClickToParentDocument(evt)
		{
			// SVGElementInstance objects aren't normal DOM nodes, so fetch the corresponding 'use' element instead
			var target = evt.target;
			if(target.correspondingUseElement)
				target = target.correspondingUseElement;
      
      // call a method in the parent document if it exists
      if (window.parent.svgElementClicked)
				window.parent.svgElementClicked(target);
			else
				alert("You clicked '" + target.id + "' which is a " + target.nodeName + " element");
		}
  </script>
  <!--
  <script xlink:href="../../../src/js.js"/>
  <script>
	document.getElementById("svg3020").addEventListener("click",sendClickToParentDocument,false);
	function sendClickToParentDocument(evt)
		{
			// SVGElementInstance objects aren't normal DOM nodes, so fetch the corresponding 'use' element instead
			var target = evt.target;
			if(target.correspondingUseElement)
				target = target.correspondingUseElement;
				
				//svgElementClicked(target);
				top.svgElementClicked(target);
			//	alert("You clicked '" + target.id + "' which is a " + target.nodeName + " element");
		}
  </script>-->
</svg>
