<?xml version="1.0" encoding="UTF-8" standalone="no"?>
<!-- Created with Inkscape (http://www.inkscape.org/) -->

<svg
   xmlns:dc="http://purl.org/dc/elements/1.1/"
   xmlns:cc="http://creativecommons.org/ns#"
   xmlns:rdf="http://www.w3.org/1999/02/22-rdf-syntax-ns#"
   xmlns:svg="http://www.w3.org/2000/svg"
   xmlns="http://www.w3.org/2000/svg"
   xmlns:sodipodi="http://sodipodi.sourceforge.net/DTD/sodipodi-0.dtd"
   xmlns:inkscape="http://www.inkscape.org/namespaces/inkscape"
   preserveAspectRatio="xMinYMin meet"
   viewBox="0 0 1050 1050"
   width="100%"
   height="100%"
   id="svg3190"
   version="1.1"
   inkscape:version="0.48.4 r9939"
   sodipodi:docname="hix.svg">
  <defs
     id="defs3192" />
  <sodipodi:namedview
     id="base"
     pagecolor="#ffffff"
     bordercolor="#666666"
     borderopacity="1.0"
     inkscape:pageopacity="0.0"
     inkscape:pageshadow="2"
     inkscape:zoom="0.63714286"
     inkscape:cx="525"
     inkscape:cy="525"
     inkscape:document-units="px"
     inkscape:current-layer="layer1"
     showgrid="false"
     inkscape:window-width="1600"
     inkscape:window-height="838"
     inkscape:window-x="-8"
     inkscape:window-y="-8"
     inkscape:window-maximized="1"
     fit-margin-top="0"
     fit-margin-left="0"
     fit-margin-right="0"
     fit-margin-bottom="0" />
  <metadata
     id="metadata3195">
    <rdf:RDF>
      <cc:Work
         rdf:about="">
        <dc:format>image/svg+xml</dc:format>
        <dc:type
           rdf:resource="http://purl.org/dc/dcmitype/StillImage" />
        <dc:title />
      </cc:Work>
    </rdf:RDF>
  </metadata>
  <g
     inkscape:label="Calque 1"
     inkscape:groupmode="layer"
     id="layer1"
     transform="translate(-22.705068,11.130797)">
    <path
       style="fill:none;stroke:#000000;stroke-width:13.8392849px;stroke-linecap:butt;stroke-linejoin:miter;stroke-opacity:1"
       d="m 86.916436,-4.2112213 214.434454,0 C 329.3706,128.22617 313.05713,295.66366 415.93423,369.00301 525.25239,315.17636 492.30424,127.26779 523.97005,-4.2112213 l 202.97613,1.6369079 C 719.88797,309.12651 635.6391,375.63369 556.70812,459.03281 l 3.27368,55.65469 c 158.51387,126.95067 167.78296,323.85989 191.51789,513.9881 l -217.70832,-1.6369 C 494.57638,876.37928 494.73082,673.91774 379.92232,622.72319 299.1225,684.20075 243.01775,817.70556 214.59505,1031.9495 l -184.970339,0 C 33.181543,854.0132 81.222538,672.89959 266.97591,481.94942 167.6915,357.65023 74.836407,227.16917 86.916436,-4.2112213 z"
       id="path3177"
       inkscape:connector-curvature="0"
       sodipodi:nodetypes="cccccccccccccc" />
    <path
       style="color:#000000;fill:#ffaaee;fill-opacity:1;stroke:#000000;stroke-width:0;stroke-linecap:butt;stroke-linejoin:miter;stroke-miterlimit:4;stroke-opacity:1;stroke-dasharray:none;stroke-dashoffset:0;marker:none;visibility:visible;display:inline;overflow:visible;enable-background:accumulate"
       d="M 40.884824,987.70666 C 49.64639,845.60029 92.648594,723.45389 175.46425,605.43798 c 20.28194,-28.90264 72.92243,-92.51593 89.86696,-108.59952 6.29553,-5.97566 11.44641,-11.97812 11.44641,-13.33877 0,-1.36066 -15.26956,-22.71799 -33.93236,-47.46068 C 181.07043,354.13937 146.01536,291.78109 124.04325,224.70619 104.67635,165.58428 93.928004,96.973248 93.921841,32.429036 l -0.0026,-27.5863995 100.272609,0 100.27262,0 3.72605,22.8573025 c 2.04932,12.571517 7.29955,51.94125 11.66716,87.488301 9.39246,76.44303 14.82531,107.1863 25.37491,143.59077 13.72616,47.36612 36.31271,84.93692 65.85913,109.55108 l 14.35404,11.95791 18.15425,-12.36244 c 52.07474,-35.46107 68.15707,-83.29893 82.84654,-246.43186 3.6693,-40.749055 8.35927,-83.310929 10.42217,-94.581944 l 3.75071,-20.4927546 94.20182,-0.8357611 94.20181,-0.8357611 -2.1775,37.0921738 c -9.04811,154.129937 -37.1554,253.033217 -93.34219,328.450627 -9.79919,13.15306 -30.88585,37.67456 -46.85923,54.49221 l -29.04253,30.57749 2.19721,31.90201 2.19723,31.90203 16.91728,14.76238 c 21.23496,18.53011 52.94779,55.78588 70.26486,82.54613 34.95619,54.01824 61.03571,127.593 77.66808,219.11484 5.23854,28.82568 23.38292,166.40423 23.38292,177.29933 l 0,7.224 -100.00181,-0.8324 -100.00176,-0.8325 -8.60889,-42.56188 c -4.7349,-23.40904 -14.99871,-75.19265 -22.80851,-115.07469 -17.73165,-90.54986 -26.36358,-120.70495 -46.3157,-161.80102 -17.61598,-36.28425 -43.03443,-65.27448 -69.37664,-79.12533 l -14.5001,-7.62426 -13.28934,10.6796 c -16.54093,13.29268 -42.77489,45.52651 -60.38624,74.19698 -40.46506,65.87522 -70.17691,158.6131 -91.32718,285.05418 -3.33561,19.94102 -6.09416,37.32042 -6.13011,38.62092 -0.0359,1.3005 -38.02726,2.3646 -84.42513,2.3646 l -84.35975,0 2.186794,-35.46824 0,0 z"
       id="path3496"
       inkscape:connector-curvature="0" />
  </g>
  <script
     id="script3183">
	document.getElementById(&quot;svg3190&quot;).addEventListener(&quot;click&quot;,sendClickToParentDocument,false);
	function sendClickToParentDocument(evt)
		{
			// SVGElementInstance objects aren't normal DOM nodes, so fetch the corresponding 'use' element instead
			var target = evt.target;
			if(target.correspondingUseElement)
				target = target.correspondingUseElement;
      
      // call a method in the parent document if it exists
      if (window.parent.svgElementClicked)
				window.parent.svgElementClicked(target);
			else
				alert(&quot;You clicked '&quot; + target.id + &quot;' which is a &quot; + target.nodeName + &quot; element&quot;);
		}
  </script>
  <!--
  <script xlink:href="../../../src/js.js"/>
  <script>
	document.getElementById("svg3020").addEventListener("click",sendClickToParentDocument,false);
	function sendClickToParentDocument(evt)
		{
			// SVGElementInstance objects aren't normal DOM nodes, so fetch the corresponding 'use' element instead
			var target = evt.target;
			if(target.correspondingUseElement)
				target = target.correspondingUseElement;
				
				//svgElementClicked(target);
				top.svgElementClicked(target);
			//	alert("You clicked '" + target.id + "' which is a " + target.nodeName + " element");
		}
  </script>-->
</svg>
