<?xml version="1.0" encoding="UTF-8" standalone="no"?>
<!-- Created with Inkscape (http://www.inkscape.org/) -->

<svg
   xmlns:dc="http://purl.org/dc/elements/1.1/"
   xmlns:cc="http://creativecommons.org/ns#"
   xmlns:rdf="http://www.w3.org/1999/02/22-rdf-syntax-ns#"
   xmlns:svg="http://www.w3.org/2000/svg"
   xmlns="http://www.w3.org/2000/svg"
   xmlns:sodipodi="http://sodipodi.sourceforge.net/DTD/sodipodi-0.dtd"
   xmlns:inkscape="http://www.inkscape.org/namespaces/inkscape"
   preserveAspectRatio="xMinYMin meet"
   viewBox="0 0 760.54326 1034.7771"
   width="100%"
   height="100%"
   id="svg3038"
   version="1.1"
   inkscape:version="0.48.4 r9939"
   sodipodi:docname="J.svg">
  <defs
     id="defs3040" />
  <sodipodi:namedview
     id="base"
     pagecolor="#ffffff"
     bordercolor="#666666"
     borderopacity="1.0"
     inkscape:pageopacity="0.0"
     inkscape:pageshadow="2"
     inkscape:zoom="0.47305444"
     inkscape:cx="697.15009"
     inkscape:cy="586.78367"
     inkscape:document-units="px"
     inkscape:current-layer="layer1"
     showgrid="false"
     inkscape:window-width="1600"
     inkscape:window-height="838"
     inkscape:window-x="-8"
     inkscape:window-y="-8"
     inkscape:window-maximized="1"
     fit-margin-top="0"
     fit-margin-left="0"
     fit-margin-right="0"
     fit-margin-bottom="0" />
  <metadata
     id="metadata3043">
    <rdf:RDF>
      <cc:Work
         rdf:about="">
        <dc:format>image/svg+xml</dc:format>
        <dc:type
           rdf:resource="http://purl.org/dc/dcmitype/StillImage" />
        <dc:title />
      </cc:Work>
    </rdf:RDF>
  </metadata>
  <g
     inkscape:label="Calque 1"
     inkscape:groupmode="layer"
     id="layer1"
     transform="translate(-69.78125,0.32587478)">
    <path
       style="fill:none;stroke:#000000;stroke-width:12.69775486px;stroke-linecap:butt;stroke-linejoin:miter;stroke-opacity:1"
       d="m 76.779171,53.417227 c 2.469138,8.163028 38.189129,125.634663 45.635699,122.828523 95.3705,-35.93905 236.40895,-52.02752 243.25715,-31.30658 45.83639,138.68935 51.35444,171.94238 39.75582,615.25469 -22.47236,122.52344 -78.36694,108.21457 -137.82037,0.63322 -41.63658,5.83576 -73.89802,56.98461 -90.91288,181.82563 175.12401,179.95409 324.16683,34.05208 359.02851,-55.47217 62.38725,-253.12668 28.93512,-597.8459 12.13743,-759.67836 -0.71235,-6.86295 188.92585,6.6637 269.50866,26.90823 10.00269,2.51294 5.85895,-101.323647 5.27052,-106.668942 C 673.08319,-23.553417 109.24627,8.9408944 76.779171,53.417227 z"
       id="path3025"
       inkscape:connector-curvature="0"
       sodipodi:nodetypes="cssccccsscc" />
    <path
       style="color:#000000;fill:none;stroke:#000000;stroke-width:0;stroke-linecap:butt;stroke-linejoin:miter;stroke-miterlimit:4;stroke-opacity:1;stroke-dasharray:none;stroke-dashoffset:0;marker:none;visibility:visible;display:inline;overflow:visible;enable-background:accumulate"
       d="m 30.646498,821.35911 c 0.297952,-0.90845 1.802053,-5.57082 3.342448,-10.36082 5.704551,-17.73887 14.282781,-36.29344 22.224685,-48.07168 8.992603,-13.33648 21.224302,-23.76585 32.370425,-27.60068 1.930985,-0.66436 3.946107,-1.20792 4.478052,-1.20792 0.607913,0 2.840763,3.1792 6.011191,8.55894 24.879641,42.217 49.049791,67.35955 71.545371,74.42389 5.95168,1.86897 17.12466,2.00525 22.19358,0.2707 21.45947,-7.34338 36.48916,-33.17276 46.8712,-80.55071 l 1.84263,-8.40878 1.13497,-46.84892 c 0.62424,-25.76691 1.42497,-75.63398 1.7794,-110.81572 1.76387,-175.08743 -4.07145,-279.86043 -20.15477,-361.87788 -1.54094,-7.85812 -8.53269,-38.72761 -10.10084,-44.59657 l -0.84254,-3.15329 84.33375,0 c 47.44571,0 84.33376,0.22865 84.33376,0.52275 0,0.28751 0.80864,11.03123 1.79696,23.87493 11.67586,151.73196 14.54291,300.22495 8.08729,418.86519 -4.17549,76.73666 -12.1917,145.68035 -23.74423,204.21324 -1.33659,6.77207 -2.56705,12.78585 -2.73435,13.36395 -0.28876,0.99783 -8.79682,1.0511 -167.80745,1.0511 l -167.503261,0 0.541729,-1.65172 0,0 z"
       id="path3116"
       inkscape:connector-curvature="0"
       transform="translate(170.34571,34.596361)" />
    <path
       style="color:#000000;fill:none;stroke:none;stroke-width:0;marker:none;visibility:visible;display:inline;overflow:visible;enable-background:accumulate"
       d="m 315.32368,1008.2879 c -34.62473,-9.24165 -67.29615,-28.25475 -102.52516,-59.66449 l -16.95764,-15.1192 4.54207,-26.02206 c 12.65058,-72.47668 36.14651,-124.18338 62.82417,-138.25501 10.58285,-5.58212 11.08244,-5.59342 14.35072,-0.324 26.04035,41.98439 45.08925,63.77306 64.34028,73.5942 30.2806,15.44801 53.96909,1.25423 70.29498,-42.11967 12.89468,-34.25803 14.14074,-57.00042 14.70604,-268.40652 0.54493,-203.78999 -0.23169,-222.44436 -11.76885,-282.72777 -6.0397,-31.55797 -27.331,-105.86865 -32.7232,-114.21007 -5.99193,-9.26923 -19.58598,-11.00224 -69.86162,-8.90622 -66.55704,2.7748 -175.47883,20.98575 -234.577237,39.21964 l -22.89133,7.06276 -4.09467,-7.92088 C 46.692376,156.19017 16.370018,67.006572 16.370018,62.687771 c 0,-3.101698 26.752161,-10.698084 58.295964,-16.553378 C 129.50814,35.954361 224.3364,26.660278 342.22951,19.910591 c 88.70308,-5.078482 340.35321,-5.039915 396.1136,0.06071 77.23528,7.065013 136.95498,16.982725 163.67713,27.182028 l 8.22123,3.137875 0,46.735901 0,46.735905 -6.78398,-1.70267 C 858.88559,130.8735 664.06218,113.21946 585.18039,113.21946 l -33.68332,0 0,7.47871 c 0,4.11329 3.26718,43.46307 7.26039,87.44395 12.409,136.67139 14.73872,183.9046 14.85588,301.19094 0.1124,112.4939 -2.73349,170.30168 -11.92108,242.15247 -5.79492,45.31841 -17.93372,111.4414 -23.33794,127.12726 -7.94974,23.07432 -24.43336,46.48754 -52.61991,74.74105 -30.86072,30.93399 -56.26075,46.78746 -88.35483,55.14696 -21.82484,5.6846 -60.33438,5.5847 -82.0559,-0.2129 l 0,0 z"
       id="path3928"
       inkscape:connector-curvature="0"
       transform="translate(-10.955686,5.9158791)" />
    <path
       style="color:#000000;fill:#2ad4ff;stroke:none;stroke-width:0;marker:none;visibility:visible;display:inline;overflow:visible;enable-background:accumulate;fill-opacity:0.94117647"
       d="m 242.44555,1017.4366 c -19.24409,-4.4563 -32.1399,-9.2456 -50.73412,-18.84182 -19.49302,-10.06005 -52.58517,-34.43786 -66.94245,-49.31414 l -9.86657,-10.22322 3.85956,-22.19618 c 14.20607,-81.69863 37.69491,-131.9658 67.49623,-144.44498 l 7.2303,-3.02766 11.45048,18.24587 c 34.24749,54.57205 66.5075,75.81899 94.76163,62.41155 15.99854,-7.59182 31.65494,-35.90961 39.68391,-71.77646 4.43687,-19.82032 7.83679,-145.98229 7.77261,-288.42048 -0.0613,-135.82596 -2.65335,-180.05533 -13.91472,-237.42283 -5.41075,-27.56331 -20.37118,-81.93466 -28.58546,-103.88929 -6.44328,-17.2212 -11.14887,-18.9788 -50.58483,-18.89406 -49.87615,0.10717 -111.15062,10.80306 -177.195843,30.93078 -18.200595,5.54675 -22.127798,6.15677 -23.661412,3.67533 -2.785342,-4.50678 -17.63072,-46.00555 -28.22067,-78.888066 L 15.56862,56.0939 24.758741,52.028672 C 72.317757,30.991058 242.22898,14.258721 408.60695,14.228474 556.19193,14.201644 666.25777,25.554835 730.23296,47.403906 l 16.38289,5.595153 0,36.332707 c 0,19.982994 -0.61881,40.847404 -1.37512,46.365354 -1.35017,9.85048 -1.4941,10.01149 -7.92721,8.86743 -71.61229,-12.73551 -123.02605,-18.87779 -196.80502,-23.51183 -50.34654,-3.16225 -64.80789,-2.78714 -68.37609,1.77357 -1.07626,1.37562 -0.6958,13.46653 0.90607,28.79533 17.93487,171.62447 25.21038,340.96782 19.88966,462.94883 -5.40427,123.89691 -23.42532,249.69894 -40.72897,284.32246 -26.8255,53.67611 -73.39913,95.02038 -129.02701,114.53969 -19.01913,6.6736 -60.34642,8.7234 -80.72661,4.004 l 0,0 z"
       id="path3930"
       inkscape:connector-curvature="0"
       transform="translate(69.78125,-0.32587478)" />
  </g>
  <script
     id="script3156">
	document.getElementById(&quot;svg3020&quot;).addEventListener(&quot;click&quot;,sendClickToParentDocument,false);
	function sendClickToParentDocument(evt)
		{
			// SVGElementInstance objects aren't normal DOM nodes, so fetch the corresponding 'use' element instead
			var target = evt.target;
			if(target.correspondingUseElement)
				target = target.correspondingUseElement;
      
      // call a method in the parent document if it exists
      if (window.parent.svgElementClicked)
				window.parent.svgElementClicked(target);
			else
				alert(&quot;You clicked '&quot; + target.id + &quot;' which is a &quot; + target.nodeName + &quot; element&quot;);
		}
  </script>
  <!--
  <script xlink:href="../../../src/js.js"/>
  <script>
	document.getElementById("svg3020").addEventListener("click",sendClickToParentDocument,false);
	function sendClickToParentDocument(evt)
		{
			// SVGElementInstance objects aren't normal DOM nodes, so fetch the corresponding 'use' element instead
			var target = evt.target;
			if(target.correspondingUseElement)
				target = target.correspondingUseElement;
				
				//svgElementClicked(target);
				top.svgElementClicked(target);
			//	alert("You clicked '" + target.id + "' which is a " + target.nodeName + " element");
		}
  </script>-->
</svg>
