<?xml version="1.0" encoding="UTF-8" standalone="no"?>
<!-- Created with Inkscape (http://www.inkscape.org/) -->

<svg
   xmlns:dc="http://purl.org/dc/elements/1.1/"
   xmlns:cc="http://creativecommons.org/ns#"
   xmlns:rdf="http://www.w3.org/1999/02/22-rdf-syntax-ns#"
   xmlns:svg="http://www.w3.org/2000/svg"
   xmlns="http://www.w3.org/2000/svg"
   xmlns:sodipodi="http://sodipodi.sourceforge.net/DTD/sodipodi-0.dtd"
   xmlns:inkscape="http://www.inkscape.org/namespaces/inkscape"
   preserveAspectRatio="xMinYMin meet"
   viewBox="0 0 408.43237 1000"
   width="100%"
   height="100%"
   id="svg3038"
   version="1.1"
   inkscape:version="0.48.4 r9939"
   sodipodi:docname="J.svg">
  <defs
     id="defs3040" />
  <sodipodi:namedview
     id="base"
     pagecolor="#ffffff"
     bordercolor="#666666"
     borderopacity="1.0"
     inkscape:pageopacity="0.0"
     inkscape:pageshadow="2"
     inkscape:zoom="0.56012413"
     inkscape:cx="46.438748"
     inkscape:cy="372.05865"
     inkscape:document-units="px"
     inkscape:current-layer="layer1"
     showgrid="false"
     inkscape:window-width="1600"
     inkscape:window-height="838"
     inkscape:window-x="-8"
     inkscape:window-y="-8"
     inkscape:window-maximized="1"
     fit-margin-top="0"
     fit-margin-left="0"
     fit-margin-right="0"
     fit-margin-bottom="0" />
  <metadata
     id="metadata3043">
    <rdf:RDF>
      <cc:Work
         rdf:about="">
        <dc:format>image/svg+xml</dc:format>
        <dc:type
           rdf:resource="http://purl.org/dc/dcmitype/StillImage" />
        <dc:title />
      </cc:Work>
    </rdf:RDF>
  </metadata>
  <g
     inkscape:label="Calque 1"
     inkscape:groupmode="layer"
     id="layer1"
     transform="translate(-170.34571,-34.596361)">
    <path
       style="fill:none;stroke:#000000;stroke-width:12.69775486px;stroke-linecap:butt;stroke-linejoin:miter;stroke-opacity:1"
       d="m 336.94775,62.801643 c 55.15733,182.351587 81.20236,211.132657 68.48009,697.392217 -22.47236,122.52344 -78.36694,108.21457 -137.82037,0.63322 -41.63658,5.83576 -73.89802,56.98461 -90.91288,181.82563 175.12401,179.95409 324.16683,34.05208 359.02851,-55.47217 67.8017,-275.09496 23.65516,-705.80916 9.24549,-836.705997 -141.6945,-21.93855 -164.04686,-0.91424 -208.02084,12.3271 z"
       id="path3025"
       inkscape:connector-curvature="0"
       sodipodi:nodetypes="ccccccc" />
    <path
       style="color:#000000;fill:none;fill-opacity:1;stroke:#000000;stroke-width:0;stroke-linecap:butt;stroke-linejoin:miter;stroke-miterlimit:4;stroke-opacity:1;stroke-dasharray:none;stroke-dashoffset:0;marker:none;visibility:visible;display:inline;overflow:visible;enable-background:accumulate"
       d="m 30.646498,821.35911 c 0.297952,-0.90845 1.802053,-5.57082 3.342448,-10.36082 5.704551,-17.73887 14.282781,-36.29344 22.224685,-48.07168 8.992603,-13.33648 21.224302,-23.76585 32.370425,-27.60068 1.930985,-0.66436 3.946107,-1.20792 4.478052,-1.20792 0.607913,0 2.840763,3.1792 6.011191,8.55894 24.879641,42.217 49.049791,67.35955 71.545371,74.42389 5.95168,1.86897 17.12466,2.00525 22.19358,0.2707 21.45947,-7.34338 36.48916,-33.17276 46.8712,-80.55071 l 1.84263,-8.40878 1.13497,-46.84892 c 0.62424,-25.76691 1.42497,-75.63398 1.7794,-110.81572 1.76387,-175.08743 -4.07145,-279.86043 -20.15477,-361.87788 -1.54094,-7.85812 -8.53269,-38.72761 -10.10084,-44.59657 l -0.84254,-3.15329 84.33375,0 c 47.44571,0 84.33376,0.22865 84.33376,0.52275 0,0.28751 0.80864,11.03123 1.79696,23.87493 11.67586,151.73196 14.54291,300.22495 8.08729,418.86519 -4.17549,76.73666 -12.1917,145.68035 -23.74423,204.21324 -1.33659,6.77207 -2.56705,12.78585 -2.73435,13.36395 -0.28876,0.99783 -8.79682,1.0511 -167.80745,1.0511 l -167.503261,0 0.541729,-1.65172 0,0 z"
       id="path3116"
       inkscape:connector-curvature="0"
       transform="translate(170.34571,34.596361)" />
    <path
       style="color:#000000;fill:#2ad4ff;stroke:none;stroke-width:0;marker:none;visibility:visible;display:inline;overflow:visible;enable-background:accumulate;fill-opacity:1"
       d="M 147.72726,983.9162 C 107.37913,976.19639 62.216858,951.21766 26.546243,916.89239 L 14.576726,905.3743 16.675848,890.11261 c 5.209757,-37.87762 18.467333,-84.74325 31.572762,-111.60997 8.247243,-16.90723 24.032906,-34.67589 35.916983,-40.42886 8.09079,-3.91669 8.288202,-3.92702 10.624895,-0.55631 1.309513,1.889 8.143442,12.27187 15.186512,23.07305 15.37316,23.57611 37.3393,46.35539 51.34047,53.24098 12.14232,5.97143 27.19713,6.51201 37.33406,1.34053 15.90799,-8.11565 30.00427,-32.3095 38.56263,-66.18608 4.56981,-18.08872 4.79267,-21.34305 6.35739,-92.83656 3.81578,-174.34495 1.28182,-291.37438 -8.15648,-376.70222 -7.44233,-67.28306 -18.66582,-114.8809 -53.25335,-225.842793 -3.3668,-10.801177 -5.59641,-20.160984 -4.95469,-20.799573 1.84967,-1.840649 35.36045,-12.147498 48.44271,-14.899436 19.03605,-4.004358 50.28221,-5.110029 78.58901,-2.780938 23.23176,1.911516 62.58864,6.698257 63.54346,7.728412 0.20448,0.220616 2.44425,21.289347 4.97726,46.819402 31.73734,319.879326 29.02278,573.387146 -8.04831,751.619106 -8.95224,43.04096 -23.53239,69.19479 -57.79444,103.67156 -29.00016,29.18189 -60.45452,48.24559 -93.72922,56.80692 -16.0298,4.12434 -49.40296,5.21861 -65.46024,2.14637 z"
       id="path5428"
       inkscape:connector-curvature="0"
       transform="translate(170.34571,34.596361)" />
  </g>
</svg>
