<?xml version="1.0" encoding="UTF-8" standalone="no"?>
<!-- Created with Inkscape (http://www.inkscape.org/) -->

<svg
   xmlns:dc="http://purl.org/dc/elements/1.1/"
   xmlns:cc="http://creativecommons.org/ns#"
   xmlns:rdf="http://www.w3.org/1999/02/22-rdf-syntax-ns#"
   xmlns:svg="http://www.w3.org/2000/svg"
   xmlns="http://www.w3.org/2000/svg"
   xmlns:sodipodi="http://sodipodi.sourceforge.net/DTD/sodipodi-0.dtd"
   xmlns:inkscape="http://www.inkscape.org/namespaces/inkscape"
   preserveAspectRatio="xMinYMin meet"
   viewBox="0 0 698.41113 1000.0001"
   width="100%"
   height="100%"
   id="svg3076"
   version="1.1"
   inkscape:version="0.48.4 r9939"
   sodipodi:docname="K.svg">
  <defs
     id="defs3078" />
  <sodipodi:namedview
     id="base"
     pagecolor="#ffffff"
     bordercolor="#666666"
     borderopacity="1.0"
     inkscape:pageopacity="0.0"
     inkscape:pageshadow="2"
     inkscape:zoom="0.94199219"
     inkscape:cx="343.98419"
     inkscape:cy="484.14632"
     inkscape:document-units="px"
     inkscape:current-layer="layer1"
     showgrid="false"
     inkscape:window-width="1600"
     inkscape:window-height="838"
     inkscape:window-x="-8"
     inkscape:window-y="-8"
     inkscape:window-maximized="1"
     fit-margin-top="0"
     fit-margin-left="0"
     fit-margin-right="0"
     fit-margin-bottom="0" />
  <metadata
     id="metadata3081">
    <rdf:RDF>
      <cc:Work
         rdf:about="">
        <dc:format>image/svg+xml</dc:format>
        <dc:type
           rdf:resource="http://purl.org/dc/dcmitype/StillImage" />
        <dc:title />
      </cc:Work>
    </rdf:RDF>
  </metadata>
  <g
     inkscape:label="Calque 1"
     inkscape:groupmode="layer"
     id="layer1"
     transform="translate(-31.015814,-16.508458)">
    <path
       style="fill:none;stroke:#000000;stroke-width:13.00999546px;stroke-linecap:butt;stroke-linejoin:miter;stroke-opacity:1"
       d="M 99.401423,32.635076 C 2.5284729,491.29701 34.372913,892.26001 93.166253,1010.0035 l 207.320527,-6.2352 c -34.81137,-34.4618 -59.74724,-416.86343 65.46968,-427.11153 80.17878,-6.56225 161.58948,318.03299 143.4097,427.11153 l 213.55578,4.6764 c -27.9639,-92.77086 84.6577,-188.93919 -218.23209,-556.49213 0,0 208.87939,-397.494274 191.73249,-413.082324 -17.14681,-15.58806 -192.0005,-18.32523 -185.49732,-14.0292 21.67153,14.31633 -184.72711,462.742264 -254.0847,431.787964 -47.93871,-21.39507 45.3613,-421.299434 34.2937,-419.317624 -24.55025,4.39634 -191.732597,-4.67631 -191.732597,-4.67631 z"
       id="path3063"
       inkscape:connector-curvature="0"
       sodipodi:nodetypes="cccscccssssc" />
    <path
       style="color:#000000;fill:#7f2aff;fill-opacity:1;stroke:#000000;stroke-width:0;stroke-linecap:butt;stroke-linejoin:miter;stroke-miterlimit:4;stroke-opacity:1;stroke-dasharray:none;stroke-dashoffset:0;marker:none;visibility:visible;display:inline;overflow:visible;enable-background:accumulate"
       d="M 62.916947,977.88933 C 37.32741,916.42051 20.069697,803.95981 15.002337,665.65153 12.400065,594.62526 15.032068,476.58861 20.962967,398.33688 30.080609,278.03957 47.952292,150.19548 71.716189,35.276546 l 2.414746,-11.677379 6.316219,0.272847 c 3.473921,0.150066 22.558396,0.977293 42.409936,1.838282 57.44795,2.491596 110.15212,3.825452 121.00641,3.062472 l 10.01513,-0.703994 -0.50495,3.603885 c -2.11298,15.080786 -7.82188,50.441902 -12.66467,78.445271 -27.66439,159.96912 -36.88657,234.09483 -35.30159,283.74571 1.10202,34.52147 7.2472,50.14315 21.20517,53.90575 13.90542,3.74842 29.4632,-4.06198 50.70832,-25.45691 23.20305,-23.36665 50.02936,-61.38457 81.48724,-115.48266 57.3957,-98.7034 119.31098,-235.500728 128.3876,-283.663095 l 1.88207,-9.986661 36.10589,0.701575 c 62.4665,1.21379 117.23913,6.195386 130.90659,11.906011 2.59702,1.085103 3.40533,1.989462 3.00618,3.363376 -0.30026,1.033559 -1.09682,4.007197 -1.77011,6.60808 C 652.52971,54.288414 630.21409,105.901 597.63643,173.81273 577.1945,216.4262 508.82204,352.59897 483.37877,401.37193 l -18.19704,34.88244 18.39235,22.97366 c 70.09665,87.55686 112.84733,151.47539 147.0737,219.89674 29.68262,59.33804 44.73932,105.93323 50.58191,156.53334 2.03949,17.66296 2.25098,54.12938 0.45655,78.71687 -1.65472,22.67315 -1.71933,55.6271 -0.12448,63.4989 0.70021,3.4561 1.14316,6.41377 0.98432,6.57261 -0.15883,0.15883 -40.64356,-0.62898 -89.96608,-1.7507 -49.32251,-1.12171 -93.26013,-2.04956 -97.63914,-2.06187 l -7.96185,-0.0224 -0.0754,-33.17341 c -0.082,-36.07369 -1.52199,-52.94136 -7.95258,-93.15265 -11.80334,-73.80789 -33.70312,-151.78349 -58.28818,-207.53887 -30.13967,-68.35249 -59.63146,-98.23464 -91.62536,-92.83817 -49.76802,8.39446 -81.92489,71.82174 -91.60339,180.68155 -3.33455,37.50562 -3.81104,102.29317 -0.98182,133.49603 4.60883,50.82977 10.01238,83.20084 17.34914,103.93369 3.00305,8.48625 3.01311,8.59395 0.80475,8.60774 -1.22999,0.007 -40.45323,1.19791 -87.16274,2.64496 -46.70952,1.44705 -88.584078,2.63505 -93.054577,2.63999 l -8.128181,0.009 -3.343745,-8.03204 z"
       id="path3130"
       inkscape:connector-curvature="0"
       transform="translate(31.015814,16.508458)" />
  </g>
</svg>
