<?xml version="1.0" encoding="UTF-8" standalone="no"?>
<!-- Created with Inkscape (http://www.inkscape.org/) -->

<svg
   xmlns:dc="http://purl.org/dc/elements/1.1/"
   xmlns:cc="http://creativecommons.org/ns#"
   xmlns:rdf="http://www.w3.org/1999/02/22-rdf-syntax-ns#"
   xmlns:svg="http://www.w3.org/2000/svg"
   xmlns="http://www.w3.org/2000/svg"
   xmlns:sodipodi="http://sodipodi.sourceforge.net/DTD/sodipodi-0.dtd"
   xmlns:inkscape="http://www.inkscape.org/namespaces/inkscape"
   preserveAspectRatio="xMinYMin meet"
   viewBox="0 0 700 765.73273"
   width="100%"
   height="100%"
   id="svg3045"
   version="1.1"
   inkscape:version="0.48.4 r9939"
   sodipodi:docname="M.svg">
  <defs
     id="defs3047" />
  <sodipodi:namedview
     id="base"
     pagecolor="#ffffff"
     bordercolor="#666666"
     borderopacity="1.0"
     inkscape:pageopacity="0.0"
     inkscape:pageshadow="2"
     inkscape:zoom="0.87367299"
     inkscape:cx="145.69015"
     inkscape:cy="382.86636"
     inkscape:document-units="px"
     inkscape:current-layer="layer1"
     showgrid="false"
     inkscape:window-width="1600"
     inkscape:window-height="838"
     inkscape:window-x="-8"
     inkscape:window-y="-8"
     inkscape:window-maximized="1"
     fit-margin-top="0"
     fit-margin-left="0"
     fit-margin-right="0"
     fit-margin-bottom="0" />
  <metadata
     id="metadata3050">
    <rdf:RDF>
      <cc:Work
         rdf:about="">
        <dc:format>image/svg+xml</dc:format>
        <dc:type
           rdf:resource="http://purl.org/dc/dcmitype/StillImage" />
        <dc:title />
      </cc:Work>
    </rdf:RDF>
  </metadata>
  <g
     inkscape:label="Calque 1"
     inkscape:groupmode="layer"
     id="layer1"
     transform="translate(-28.447998,-219.33679)">
    <path
       style="fill:#deaa87;stroke:#000000;stroke-width:9.96485709999999970px;stroke-linecap:butt;stroke-linejoin:miter;stroke-opacity:1;fill-opacity:1"
       d="m 61.970392,974.11739 c 5.969752,0 161.182768,-2.3878 161.182768,-2.3878 -62.58548,-212.84078 -61.72622,-542.58291 -41.78813,-545.63346 54.9833,12.62399 104.52567,201.53606 143.27353,319.97757 49.8494,106.33778 73.71859,60.18139 88.35201,33.4305 61.9382,-251.743 95.31327,-311.50385 139.69165,-355.79595 54.2161,99.99247 8.44465,383.28809 -31.0426,551.60314 l 163.57065,4.7757 c 66.93836,-367.89225 31.3295,-682.30036 3.58186,-755.76787 l -154.01902,7.16373 C 465.74224,275.69713 428.05525,382.59882 375.97821,460.72063 329.39718,375.5742 281.17853,254.39784 237.48043,232.67685 L 69.134129,231.48295 C 13.088885,463.14059 32.811725,900.99794 61.970392,974.11739 z"
       id="path3025"
       inkscape:connector-curvature="0"
       sodipodi:nodetypes="cccccccccccccc" />
    <path
       style="color:#000000;fill:none;fill-opacity:1;stroke:#000000;stroke-width:0;stroke-linecap:butt;stroke-linejoin:miter;stroke-miterlimit:4;stroke-opacity:1;stroke-dasharray:none;stroke-dashoffset:0;marker:none;visibility:visible;display:inline;overflow:visible;enable-background:accumulate"
       d="m 19.377625,636.91897 c -0.0017,-0.74328 -0.664747,-9.59502 -1.473478,-19.67054 C 10.313512,522.68097 8.304698,394.78497 12.78158,291.10787 16.473947,205.59883 23.629695,132.38333 34.438719,69.518419 36.749103,56.081306 41.60914,31.616041 43.872934,22.026888 l 1.063465,-4.504704 3.889547,0 c 2.139251,0 38.755955,0.228516 81.370454,0.507815 l 77.48091,0.507815 4.19985,2.788408 c 8.82662,5.860268 21.32158,20.205998 33.0449,37.939551 15.94954,24.126462 28.69941,47.758177 65.4586,121.326697 21.10648,42.24173 36.18242,71.04343 36.94138,70.57436 0.6835,-0.42242 14.9535,-22.83488 20.84227,-32.73485 5.89583,-9.91185 21.47207,-37.59627 31.42789,-55.85833 10.92121,-20.03291 25.09791,-45.04254 31.95476,-56.37254 24.79939,-40.977577 48.31338,-68.858303 72.67151,-86.167167 l 3.77243,-2.680688 73.73108,-3.431832 c 40.55212,-1.887507 74.08994,-3.294122 74.52858,-3.125811 1.60734,0.616804 7.44819,23.398801 11.73385,45.767339 10.37752,54.164879 16.94598,120.449049 20.62338,208.117319 1.0001,23.84253 0.99349,120.78246 -0.0102,146.55304 -3.16993,81.40452 -9.05073,155.90881 -17.31614,219.37908 l -0.99728,7.65799 -73.48872,0 c -58.3936,0 -73.48754,-0.15424 -73.483,-0.75078 0.003,-0.41293 0.68826,-4.3996 1.5225,-8.85925 2.73806,-14.63717 9.16789,-53.96335 12.22621,-74.77809 12.72781,-86.62459 18.76591,-166.2941 16.89937,-222.97792 -1.60775,-48.83004 -6.83165,-83.01037 -16.91397,-110.67048 -1.53023,-4.19807 -10.34836,-23.65868 -11.14362,-24.5927 -0.66497,-0.78099 -18.23651,18.1955 -25.83085,27.89615 -33.10756,42.29008 -59.60274,107.6501 -93.49556,230.64084 -6.51305,23.63465 -9.43092,34.71852 -19.29028,73.27652 -7.9842,31.22465 -7.9871,31.23413 -11.37701,37.1931 -14.37485,25.269 -24.77621,29.30389 -39.60035,15.36177 -10.05944,-9.46091 -19.55188,-23.81342 -31.18348,-47.14923 -4.0818,-8.18908 -6.86263,-16.5192 -26.86785,-80.48404 -11.16461,-35.69779 -30.20965,-93.20276 -37.1983,-112.31729 -31.70499,-86.71557 -57.20435,-128.49444 -83.90461,-137.47161 -4.07075,-1.36867 -4.64003,-1.42649 -6.47911,-0.65808 -4.04216,1.68892 -6.60744,6.50726 -8.78604,16.50269 -6.79296,31.1662 -8.0448,118.23266 -2.96206,206.01512 3.86677,66.78194 11.9375,140.96851 21.59056,198.46158 1.32693,7.90311 2.4126,14.5926 2.4126,14.86552 0,0.27293 -32.29872,0.49618 -71.774947,0.49618 l -71.774949,0 -0.0031,-1.35141 4e-6,0 z"
       id="path3158"
       inkscape:connector-curvature="0"
       transform="translate(28.447998,219.33679)" />
  </g>
    <script>
	document.getElementById("svg3020").addEventListener("click",sendClickToParentDocument,false);
	function sendClickToParentDocument(evt)
		{
			// SVGElementInstance objects aren't normal DOM nodes, so fetch the corresponding 'use' element instead
			var target = evt.target;
			if(target.correspondingUseElement)
				target = target.correspondingUseElement;
      
      // call a method in the parent document if it exists
      if (window.parent.svgElementClicked)
				window.parent.svgElementClicked(target);
			else
				alert("You clicked '" + target.id + "' which is a " + target.nodeName + " element");
		}
  </script>
  <!--
  <script xlink:href="../../../src/js.js"/>
  <script>
	document.getElementById("svg3020").addEventListener("click",sendClickToParentDocument,false);
	function sendClickToParentDocument(evt)
		{
			// SVGElementInstance objects aren't normal DOM nodes, so fetch the corresponding 'use' element instead
			var target = evt.target;
			if(target.correspondingUseElement)
				target = target.correspondingUseElement;
				
				//svgElementClicked(target);
				top.svgElementClicked(target);
			//	alert("You clicked '" + target.id + "' which is a " + target.nodeName + " element");
		}
  </script>-->
</svg>
