<?xml version="1.0" encoding="UTF-8" standalone="no"?>
<!-- Created with Inkscape (http://www.inkscape.org/) -->

<svg
   xmlns:dc="http://purl.org/dc/elements/1.1/"
   xmlns:cc="http://creativecommons.org/ns#"
   xmlns:rdf="http://www.w3.org/1999/02/22-rdf-syntax-ns#"
   xmlns:svg="http://www.w3.org/2000/svg"
   xmlns="http://www.w3.org/2000/svg"
   xmlns:sodipodi="http://sodipodi.sourceforge.net/DTD/sodipodi-0.dtd"
   xmlns:inkscape="http://www.inkscape.org/namespaces/inkscape"
   preserveAspectRatio="xMinYMin meet"
   viewBox="0 0 724.54407 1000"
   width="100%"
   height="100%"
   id="svg3083"
   version="1.1"
   inkscape:version="0.48.4 r9939"
   sodipodi:docname="N.svg">
  <defs
     id="defs3085" />
  <sodipodi:namedview
     id="base"
     pagecolor="#ffffff"
     bordercolor="#666666"
     borderopacity="1.0"
     inkscape:pageopacity="0.0"
     inkscape:pageshadow="2"
     inkscape:zoom="0.94199219"
     inkscape:cx="364.98104"
     inkscape:cy="504.13596"
     inkscape:document-units="px"
     inkscape:current-layer="layer1"
     showgrid="false"
     inkscape:window-width="1600"
     inkscape:window-height="838"
     inkscape:window-x="-8"
     inkscape:window-y="-8"
     inkscape:window-maximized="1"
     fit-margin-top="0"
     fit-margin-left="0"
     fit-margin-right="0"
     fit-margin-bottom="0" />
  <metadata
     id="metadata3088">
    <rdf:RDF>
      <cc:Work
         rdf:about="">
        <dc:format>image/svg+xml</dc:format>
        <dc:type
           rdf:resource="http://purl.org/dc/dcmitype/StillImage" />
        <dc:title />
      </cc:Work>
    </rdf:RDF>
  </metadata>
  <g
     inkscape:label="Calque 1"
     inkscape:groupmode="layer"
     id="layer1"
     transform="translate(-10.018962,-36.49813)">
    <path
       style="fill:none;stroke:#000000;stroke-width:13.01349258px;stroke-linecap:butt;stroke-linejoin:miter;stroke-opacity:1"
       d="M 58.170363,43.004876 C -8.4307371,434.44371 17.524413,733.32604 48.815093,1026.873 l 182.428737,-3.1185 C 210.36498,797.24532 163.02346,555.61456 195.38177,359.5266 377.55791,493.39457 428.164,780.761 518.14047,1022.1953 l 180.86947,7.7961 c 55.2993,-546.73473 18.1926,-728.70929 -1.5592,-979.190404 L 535.29186,49.241846 C 570.45432,241.20454 590.19162,418.77039 563.3578,552.87001 429.69166,290.13605 331.20802,176.92777 229.68468,50.800996 z"
       id="path3070"
       inkscape:connector-curvature="0"
       sodipodi:nodetypes="ccccccccccc" />
    <path
       style="color:#000000;fill:#ffcc00;fill-opacity:1;stroke:#000000;stroke-width:0;stroke-linecap:butt;stroke-linejoin:miter;stroke-miterlimit:4;stroke-opacity:1;stroke-dasharray:none;stroke-dashoffset:0;marker:none;visibility:visible;display:inline;overflow:visible;enable-background:accumulate"
       d="m 591.52928,982.38451 c -42.79371,-1.89864 -77.9912,-3.63653 -78.21666,-3.86199 -0.61088,-0.61087 -14.63913,-39.95595 -22.46797,-63.01593 C 487.07841,904.41308 471.31027,856.16427 455.80431,808.28701 410.70336,669.03026 389.23934,610.0475 361.7372,549.7923 312.66985,442.28924 263.38911,374.96375 194.03441,320.68301 c -6.84902,-5.3604 -12.84423,-9.74619 -13.32269,-9.74619 -0.47846,0 -2.40007,11.34563 -4.27025,25.21252 -6.61577,49.05432 -8.69467,82.41198 -8.68337,139.33237 0.0167,84.24524 5.47451,152.17377 27.08086,337.05162 9.72406,83.20539 18.89919,167.27015 18.30661,167.72968 -0.32227,0.24992 -147.509048,2.71007 -160.083752,2.67572 l -7.988888,-0.0218 -5.124295,-50.15965 C 26.524317,801.35206 20.677194,724.4257 15.721458,614.01789 13.910897,573.68076 13.905268,421.9329 15.712853,382.06267 20.049303,286.41285 27.358471,202.47578 38.869439,116.1369 43.379581,82.308242 53.657999,14.894593 54.422151,14.130441 c 0.189642,-0.189641 36.631548,1.317189 80.982019,3.348513 75.15815,3.442366 80.7454,3.828928 82.22958,5.689161 0.8758,1.097715 16.91551,21.031624 35.64381,44.297575 64.32844,79.91454 97.588,124.20948 136.58214,181.89949 51.22102,75.77914 100.40476,160.00177 150.78582,258.20688 8.30579,16.19001 15.3798,29.44649 15.72003,29.45884 0.79338,0.0288 8.98455,-48.551 11.00445,-65.26472 6.68923,-55.35007 6.88079,-130.69299 0.52633,-207.00809 -4.66858,-56.06841 -15.98844,-140.17528 -28.64448,-212.829466 -2.89701,-16.630746 -5.26729,-30.603791 -5.26729,-31.051213 0,-0.914478 51.29068,-0.854704 108.80563,0.126802 l 38.21057,0.652072 3.90768,44.586358 c 2.14922,24.522496 6.08448,68.233047 8.74502,97.134567 18.48006,200.74985 21.54955,330.88496 12.24428,519.11258 -4.321,87.40555 -15.75896,236.9038 -22.80263,298.03857 l -0.64213,5.57329 -6.55849,-0.13254 c -3.60716,-0.0729 -41.57151,-1.68597 -84.36521,-3.5846 l 0,0 z"
       id="path3172"
       inkscape:connector-curvature="0"
       transform="translate(10.018962,36.49813)" />
  </g>
    <script>
	document.getElementById("svg3083").addEventListener("click",sendClickToParentDocument,false);
	function sendClickToParentDocument(evt)
		{
			// SVGElementInstance objects aren't normal DOM nodes, so fetch the corresponding 'use' element instead
			var target = evt.target;
			if(target.correspondingUseElement)
				target = target.correspondingUseElement;
      
      // call a method in the parent document if it exists
      if (window.parent.svgElementClicked)
				window.parent.svgElementClicked(target);
			else
				alert("You clicked '" + target.id + "' which is a " + target.nodeName + " element");
		}
  </script>
  <!--
  <script xlink:href="../../../src/js.js"/>
  <script>
	document.getElementById("svg3020").addEventListener("click",sendClickToParentDocument,false);
	function sendClickToParentDocument(evt)
		{
			// SVGElementInstance objects aren't normal DOM nodes, so fetch the corresponding 'use' element instead
			var target = evt.target;
			if(target.correspondingUseElement)
				target = target.correspondingUseElement;
				
				//svgElementClicked(target);
				top.svgElementClicked(target);
			//	alert("You clicked '" + target.id + "' which is a " + target.nodeName + " element");
		}
  </script>-->
</svg>
