<?xml version="1.0" encoding="UTF-8" standalone="no"?>
<!-- Created with Inkscape (http://www.inkscape.org/) -->

<svg
   xmlns:dc="http://purl.org/dc/elements/1.1/"
   xmlns:cc="http://creativecommons.org/ns#"
   xmlns:rdf="http://www.w3.org/1999/02/22-rdf-syntax-ns#"
   xmlns:svg="http://www.w3.org/2000/svg"
   xmlns="http://www.w3.org/2000/svg"
   xmlns:sodipodi="http://sodipodi.sourceforge.net/DTD/sodipodi-0.dtd"
   xmlns:inkscape="http://www.inkscape.org/namespaces/inkscape"
   preserveAspectRatio="xMinYMin meet"
   viewBox="0 0 1050 1050"
   width="100%"
   height="100%"
   id="svg3083"
   version="1.1"
   inkscape:version="0.48.4 r9939"
   sodipodi:docname="N.svg">
  <defs
     id="defs3085" />
  <sodipodi:namedview
     id="base"
     pagecolor="#ffffff"
     bordercolor="#666666"
     borderopacity="1.0"
     inkscape:pageopacity="0.0"
     inkscape:pageshadow="2"
     inkscape:zoom="0.63714286"
     inkscape:cx="525"
     inkscape:cy="525"
     inkscape:document-units="px"
     inkscape:current-layer="layer1"
     showgrid="false"
     inkscape:window-width="1600"
     inkscape:window-height="838"
     inkscape:window-x="-8"
     inkscape:window-y="-8"
     inkscape:window-maximized="1"
     fit-margin-top="0"
     fit-margin-left="0"
     fit-margin-right="0"
     fit-margin-bottom="0" />
  <metadata
     id="metadata3088">
    <rdf:RDF>
      <cc:Work
         rdf:about="">
        <dc:format>image/svg+xml</dc:format>
        <dc:type
           rdf:resource="http://purl.org/dc/dcmitype/StillImage" />
        <dc:title />
      </cc:Work>
    </rdf:RDF>
  </metadata>
  <g
     inkscape:label="Calque 1"
     inkscape:groupmode="layer"
     id="layer1"
     transform="translate(-10.018962,13.50187)">
    <path
       style="fill:none;stroke:#000000;stroke-width:13.6641674px;stroke-linecap:butt;stroke-linejoin:miter;stroke-opacity:1"
       d="M 60.577932,-6.6697702 C -9.3532217,404.341 17.899685,718.16744 50.754899,1026.3917 l 191.550171,-3.2744 C 220.38228,785.28268 170.67368,531.57039 204.64991,325.67803 395.93485,466.2394 449.07124,767.97415 543.54654,1021.4802 l 189.91294,8.1859 C 791.52374,455.59461 752.56171,264.52132 731.82232,1.5161556 L 561.5555,-0.12095182 C 598.47608,201.43987 619.20024,387.88401 591.02473,528.68861 450.67529,252.81796 347.26747,133.94927 240.66796,1.5161556 z"
       id="path3070"
       inkscape:connector-curvature="0"
       sodipodi:nodetypes="ccccccccccc" />
    <path
       style="color:#000000;fill:#ffcc00;fill-opacity:1;stroke:#000000;stroke-width:0;stroke-linecap:butt;stroke-linejoin:miter;stroke-miterlimit:4;stroke-opacity:1;stroke-dasharray:none;stroke-dashoffset:0;marker:none;visibility:visible;display:inline;overflow:visible;enable-background:accumulate"
       d="m 631.1247,1018.0019 c -44.9334,-1.9936 -81.89076,-3.8184 -82.1275,-4.0551 -0.64142,-0.6414 -15.37108,-41.95377 -23.59136,-66.16675 -3.95456,-11.64819 -20.5111,-62.30943 -36.79236,-112.58056 C 441.25748,688.97991 418.72026,627.04801 389.84302,563.78005 338.3223,450.90184 286.57752,380.21008 213.75509,323.2153 c -7.19147,-5.62842 -13.48644,-10.2335 -13.98883,-10.2335 -0.50238,0 -2.52007,11.91291 -4.48376,26.47315 -6.94656,51.50703 -9.1294,86.53258 -9.11754,146.29898 0.0175,88.4575 5.74824,159.78246 28.43491,353.9042 10.21026,87.36566 19.84415,175.63367 19.22194,176.11617 -0.33839,0.2624 -154.884501,2.8456 -168.08794,2.8095 l -8.388332,-0.023 -5.38051,-52.66763 C 37.869494,827.9178 31.730015,747.14512 26.526493,631.21692 24.625404,588.86293 24.619493,429.52768 26.517457,387.66394 31.07073,287.23163 38.745356,199.09771 50.831872,108.44189 55.567521,72.921799 66.35986,2.137469 67.16222,1.3351094 c 0.199124,-0.199123 38.46312,1.3830484 85.03112,3.5159386 78.91605,3.6144842 84.78267,4.0203743 86.34106,5.973619 0.91959,1.152601 17.76128,22.083205 37.426,46.512453 67.54486,83.91027 102.46739,130.41995 143.41124,190.99446 53.78207,79.5681 105.425,168.00186 158.32511,271.11722 8.72108,16.99951 16.14879,30.91881 16.50603,30.93178 0.83305,0.0302 9.43378,-50.97855 11.55467,-68.52795 7.02369,-58.11758 7.22483,-137.22764 0.55265,-217.35849 -4.90201,-58.87183 -16.78786,-147.18405 -30.0767,-223.470939 -3.04187,-17.462283 -5.53066,-32.1339801 -5.53066,-32.6037732 0,-0.9602019 53.85521,-0.8974392 114.24591,0.1331421 l 40.1211,0.6846756 4.10306,46.8156755 c 2.25668,25.74862 6.38871,71.644699 9.18227,101.991289 19.40407,210.78734 22.62703,347.42921 12.8565,545.0682 -4.53705,91.77583 -16.54691,248.74899 -23.94276,312.94049 l -0.67424,5.852 -6.88642,-0.1392 c -3.78751,-0.077 -43.65008,-1.7703 -88.58346,-3.7638 l 0,0 z"
       id="path3172"
       inkscape:connector-curvature="0" />
  </g>
  <script
     id="script3256">
	document.getElementById(&quot;svg3083&quot;).addEventListener(&quot;click&quot;,sendClickToParentDocument,false);
	function sendClickToParentDocument(evt)
		{
			// SVGElementInstance objects aren't normal DOM nodes, so fetch the corresponding 'use' element instead
			var target = evt.target;
			if(target.correspondingUseElement)
				target = target.correspondingUseElement;
      
      // call a method in the parent document if it exists
      if (window.parent.svgElementClicked)
				window.parent.svgElementClicked(target);
			else
				alert(&quot;You clicked '&quot; + target.id + &quot;' which is a &quot; + target.nodeName + &quot; element&quot;);
		}
  </script>
  <!--
  <script xlink:href="../../../src/js.js"/>
  <script>
	document.getElementById("svg3020").addEventListener("click",sendClickToParentDocument,false);
	function sendClickToParentDocument(evt)
		{
			// SVGElementInstance objects aren't normal DOM nodes, so fetch the corresponding 'use' element instead
			var target = evt.target;
			if(target.correspondingUseElement)
				target = target.correspondingUseElement;
				
				//svgElementClicked(target);
				top.svgElementClicked(target);
			//	alert("You clicked '" + target.id + "' which is a " + target.nodeName + " element");
		}
  </script>-->
</svg>
