<?xml version="1.0" encoding="UTF-8" standalone="no"?>
<!-- Created with Inkscape (http://www.inkscape.org/) -->

<svg
   xmlns:dc="http://purl.org/dc/elements/1.1/"
   xmlns:cc="http://creativecommons.org/ns#"
   xmlns:rdf="http://www.w3.org/1999/02/22-rdf-syntax-ns#"
   xmlns:svg="http://www.w3.org/2000/svg"
   xmlns="http://www.w3.org/2000/svg"
   xmlns:sodipodi="http://sodipodi.sourceforge.net/DTD/sodipodi-0.dtd"
   xmlns:inkscape="http://www.inkscape.org/namespaces/inkscape"
   preserveAspectRatio="xMinYMin meet"
   viewBox="0 0 707.5694 882.35822"
   width="100%"
   height="100%"
   id="svg3124"
   version="1.1"
   inkscape:version="0.48.4 r9939"
   sodipodi:docname="O.svg">
  <defs
     id="defs3126" />
  <sodipodi:namedview
     id="base"
     pagecolor="#ffffff"
     bordercolor="#666666"
     borderopacity="1.0"
     inkscape:pageopacity="0.0"
     inkscape:pageshadow="2"
     inkscape:zoom="0.75819546"
     inkscape:cx="126.93027"
     inkscape:cy="441.17911"
     inkscape:document-units="px"
     inkscape:current-layer="layer1"
     showgrid="false"
     inkscape:window-width="1600"
     inkscape:window-height="838"
     inkscape:window-x="-8"
     inkscape:window-y="-8"
     inkscape:window-maximized="1"
     fit-margin-top="0"
     fit-margin-left="0"
     fit-margin-right="0"
     fit-margin-bottom="0" />
  <metadata
     id="metadata3129">
    <rdf:RDF>
      <cc:Work
         rdf:about="">
        <dc:format>image/svg+xml</dc:format>
        <dc:type
           rdf:resource="http://purl.org/dc/dcmitype/StillImage" />
        <dc:title />
      </cc:Work>
    </rdf:RDF>
  </metadata>
  <g
     inkscape:label="Calque 1"
     inkscape:groupmode="layer"
     id="layer1"
     transform="translate(-5.1891034,-143.97432)">
    <path
       style="fill:none;stroke:#000000;stroke-width:11.35886477999999900px;stroke-linecap:butt;stroke-linejoin:miter;stroke-opacity:1;fill-opacity:1"
       d="M 361.87356,149.65375 C 210.297,153.85981 146.63309,289.22412 87.690425,389.91726 26.662491,512.14823 -4.5649339,678.99092 18.437926,822.39173 58.357591,968.71239 159.41322,1007.0547 200.1551,1019.2397 l 288.51033,1.4134 C 661.40853,978.91369 657.57387,905.27874 685.52258,842.17809 728.64004,730.27383 695.97235,632.5793 682.69606,531.24881 666.75717,434.20093 625.4984,358.85598 583.76399,283.91871 544.70735,239.22912 487.17365,152.13157 361.87356,149.65375 z"
       id="path3108"
       inkscape:connector-curvature="0"
       sodipodi:nodetypes="ccccccccc" />
    <path
       style="fill:none;stroke:#000000;stroke-width:11.35886478px;stroke-linecap:butt;stroke-linejoin:miter;stroke-opacity:1"
       d="m 353.19046,314.61437 c -93.10728,24.66622 -125.5763,109.16752 -142.54168,195.4347 -21.52459,69.93267 -19.7082,154.45353 -11.30649,243.09017 32.28462,104.1432 117.30515,80.6769 171.01112,89.03885 58.11377,-7.84091 115.67732,-7.75209 137.09151,-52.29258 34.9251,-60.55889 26.42253,-138.48866 25.43977,-213.41059 C 512.62717,465.48983 492.36965,445.32085 480.1948,415.56017 423.92407,311.47468 398.75737,320.52363 353.19046,314.61437 z"
       id="path3110"
       inkscape:connector-curvature="0"
       sodipodi:nodetypes="cccccccc" />
    <path
       style="color:#000000;fill:none;fill-opacity:0.06274510000000000;stroke:#000000;stroke-width:0;stroke-linecap:butt;stroke-linejoin:miter;stroke-miterlimit:4;stroke-opacity:1;stroke-dasharray:none;stroke-dashoffset:0;marker:none;visibility:visible;display:inline;overflow:visible;enable-background:accumulate"
       d="m 30.63378,712.14901 c -9.201865,-24.20275 -11.940884,-35.07476 -14.682292,-58.27855 -3.178849,-26.9064 -3.646485,-36.69756 -3.614503,-75.67903 0.03189,-38.86876 0.687076,-51.09511 4.473915,-83.48718 9.762518,-83.50715 33.522269,-167.9358 66.512263,-236.3468 4.872186,-10.1034 25.020197,-45.72448 41.786417,-73.87714 18.06834,-30.33908 37.15323,-58.34066 52.60356,-77.18059 15.90892,-19.399137 35.21206,-38.31568 52.30131,-51.253836 l 5.68514,-4.304182 123.51765,0 123.51766,0 7.17364,5.307531 c 10.74041,7.94647 22.71563,18.522633 34.19012,30.195711 13.50727,13.741046 13.67181,13.923916 32.8671,36.527086 l 16.53914,19.47543 9.29859,16.86251 c 15.69712,28.46587 22.43568,41.27343 32.88903,62.51017 31.66602,64.33159 48.51632,115.98816 57.3077,175.68345 1.19194,8.09345 4.44398,28.36462 7.22675,45.04704 13.06033,78.29529 15.42566,98.98444 15.41617,134.8408 -0.012,46.18582 -6.84324,82.40035 -23.31875,123.62451 l -4.72273,11.81692 -318.20185,0 -318.201875,0 -0.564155,-1.48385 0,0 z m 358.38406,-10.81519 c 39.43163,-4.79637 52.31822,-7.10242 67.75419,-12.12468 15.7894,-5.13717 29.8917,-13.33435 38.20963,-22.20981 8.83404,-9.42619 19.98154,-30.26642 26.43769,-49.42526 7.60192,-22.55894 11.45632,-45.20273 13.19582,-77.52247 0.70405,-13.0813 0.4037,-57.21178 -0.63566,-93.39752 -0.45652,-15.89402 -0.60049,-17.39478 -2.62166,-27.32854 -12.29884,-60.44695 -21.77888,-90.74366 -39.48096,-126.17489 -2.90017,-5.80479 -6.6453,-13.59558 -8.3225,-17.31287 -7.06891,-15.66728 -25.56905,-46.36295 -37.50395,-62.22705 -12.89417,-17.13918 -27.49951,-30.64139 -39.88232,-36.87004 -11.86917,-5.97028 -19.75056,-7.86036 -44.21246,-10.60279 l -14.33231,-1.6068 -4.88776,1.3586 c -8.39656,2.33392 -20.76267,7.11645 -29.51346,11.41418 -46.36476,22.77089 -78.05114,64.2366 -99.11472,129.70438 -4.23513,13.16322 -9.90894,35.16804 -12.85405,49.85205 -0.69569,3.46862 -2.46582,10.70624 -3.93363,16.0836 -4.69964,17.21726 -7.66113,31.95995 -10.19584,50.75621 -3.72132,27.59557 -4.80017,49.54829 -4.34546,88.42232 0.35301,30.179 1.22279,47.8448 4.03657,81.98561 1.23399,14.9725 1.32185,15.49462 3.9174,23.28053 11.01874,33.05295 30.48493,56.92741 56.93118,69.82371 12.07129,5.88645 28.44863,10.25445 46.00103,12.26889 7.60591,0.8729 12.49305,1.16396 46.58575,2.77454 7.59793,0.35894 15.43611,0.86791 17.41818,1.1311 6.36851,0.84563 8.86228,0.68232 31.3493,-2.053 l 0,0 z"
       id="path3194"
       inkscape:connector-curvature="0"
       transform="translate(5.1891034,143.97432)" />
    <path
       style="color:#000000;fill:#ff2a2a;stroke:none;stroke-width:0;marker:none;visibility:visible;display:inline;overflow:visible;enable-background:accumulate;fill-opacity:1"
       d="M 325.296,869.58041 C 195.34726,868.91183 193.99238,868.87774 186.80929,866.09557 167.39141,858.57462 154.69659,852.78296 142.92816,846.07599 93.995562,818.18874 55.188974,772.28453 32.658148,715.63787 21.042674,686.43444 17.144175,668.34603 13.90534,628.62787 11.860847,603.55605 13.068959,529.53809 15.925089,504.883 c 8.18735,-70.676 21.986598,-130.19115 43.883237,-189.26518 16.724411,-45.12009 28.2819,-68.05753 66.788794,-132.55157 43.04487,-72.09458 80.6197,-114.187584 126.38936,-141.586996 20.29204,-12.147563 42.37756,-20.511749 67.32431,-25.496939 17.54527,-3.506132 51.81793,-4.136462 68.29343,-1.256028 43.16155,7.545989 76.31487,22.592081 110.18945,50.007676 16.8824,13.663372 31.39236,28.469643 55.21544,56.342997 18.52208,21.67111 19.7151,23.43711 35.64015,52.75684 38.62876,71.11974 58.74585,118.93821 72.41008,172.11921 5.10675,19.87545 7.9416,35.44016 19.3377,106.17315 11.29673,70.11623 13.4991,90.47794 13.55256,125.2975 0.063,41.07913 -3.96476,67.77624 -15.5197,102.86764 -9.34829,28.38994 -29.19486,79.35341 -35.10148,90.1361 -24.9925,45.62453 -69.35093,74.79519 -144.89037,95.28168 -16.54738,4.4877 -20.66137,5.13285 -30.99465,4.86052 -6.55311,-0.17272 -70.96944,-0.61785 -143.1474,-0.98919 l 0,0 z m 66.60552,-168.18572 c 60.62098,-7.55863 83.36633,-14.92987 101.63143,-32.93642 12.85463,-12.67265 26.05488,-39.3591 32.6958,-66.09988 7.80944,-31.44599 9.24071,-51.49315 8.43625,-118.16244 -0.65704,-54.45148 -0.66047,-54.50549 -4.66963,-73.61581 -9.66248,-46.05774 -19.82461,-78.92545 -33.85924,-109.51209 -23.22004,-50.60502 -44.68255,-85.0525 -66.5605,-106.83004 -18.03443,-17.95166 -31.08694,-23.75501 -62.5164,-27.79572 l -19.5666,-2.51558 -12.00396,4.0217 c -68.80528,23.05188 -110.30531,79.63717 -132.81723,181.09631 -2.22828,10.0426 -5.22945,22.50641 -6.66927,27.69734 -10.82307,39.0198 -15.72506,98.10982 -13.14234,158.42131 2.15608,50.34851 4.52108,74.1614 8.44606,85.04237 13.60519,37.71677 37.35029,62.21338 70.856,73.09857 14.63508,4.75457 33.51749,7.2323 67.03155,8.79581 16.28902,0.75993 29.89039,1.65567 30.22528,1.99055 1.04537,1.04537 5.32649,0.69004 32.4828,-2.69598 z"
       id="path7012"
       inkscape:connector-curvature="0"
       transform="translate(5.1891034,143.97432)" />
  </g>
    <script>
	document.getElementById("svg3020").addEventListener("click",sendClickToParentDocument,false);
	function sendClickToParentDocument(evt)
		{
			// SVGElementInstance objects aren't normal DOM nodes, so fetch the corresponding 'use' element instead
			var target = evt.target;
			if(target.correspondingUseElement)
				target = target.correspondingUseElement;
      
      // call a method in the parent document if it exists
      if (window.parent.svgElementClicked)
				window.parent.svgElementClicked(target);
			else
				alert("You clicked '" + target.id + "' which is a " + target.nodeName + " element");
		}
  </script>
  <!--
  <script xlink:href="../../../src/js.js"/>
  <script>
	document.getElementById("svg3020").addEventListener("click",sendClickToParentDocument,false);
	function sendClickToParentDocument(evt)
		{
			// SVGElementInstance objects aren't normal DOM nodes, so fetch the corresponding 'use' element instead
			var target = evt.target;
			if(target.correspondingUseElement)
				target = target.correspondingUseElement;
				
				//svgElementClicked(target);
				top.svgElementClicked(target);
			//	alert("You clicked '" + target.id + "' which is a " + target.nodeName + " element");
		}
  </script>-->
</svg>
