<?xml version="1.0" encoding="UTF-8" standalone="no"?>
<!-- Created with Inkscape (http://www.inkscape.org/) -->

<svg
   xmlns:dc="http://purl.org/dc/elements/1.1/"
   xmlns:cc="http://creativecommons.org/ns#"
   xmlns:rdf="http://www.w3.org/1999/02/22-rdf-syntax-ns#"
   xmlns:svg="http://www.w3.org/2000/svg"
   xmlns="http://www.w3.org/2000/svg"
   xmlns:sodipodi="http://sodipodi.sourceforge.net/DTD/sodipodi-0.dtd"
   xmlns:inkscape="http://www.inkscape.org/namespaces/inkscape"
   preserveAspectRatio="xMinYMin meet"
   viewBox="0 0 687.14575 1000"
   width="100%"
   height="100%"
   id="svg3003"
   version="1.1"
   inkscape:version="0.48.4 r9939"
   sodipodi:docname="P.svg">
  <defs
     id="defs3005" />
  <sodipodi:namedview
     id="base"
     pagecolor="#ffffff"
     bordercolor="#666666"
     borderopacity="1.0"
     inkscape:pageopacity="0.0"
     inkscape:pageshadow="2"
     inkscape:zoom="0.94199219"
     inkscape:cx="340.51547"
     inkscape:cy="509.60061"
     inkscape:document-units="px"
     inkscape:current-layer="layer1"
     showgrid="false"
     inkscape:window-width="1600"
     inkscape:window-height="838"
     inkscape:window-x="-8"
     inkscape:window-y="-8"
     inkscape:window-maximized="1"
     fit-margin-top="0"
     fit-margin-left="0"
     fit-margin-right="0"
     fit-margin-bottom="0" />
  <metadata
     id="metadata3008">
    <rdf:RDF>
      <cc:Work
         rdf:about="">
        <dc:format>image/svg+xml</dc:format>
        <dc:type
           rdf:resource="http://purl.org/dc/dcmitype/StillImage" />
        <dc:title />
      </cc:Work>
    </rdf:RDF>
  </metadata>
  <g
     inkscape:label="Calque 1"
     inkscape:groupmode="layer"
     id="layer1"
     transform="translate(-34.484527,-41.962778)">
    <path
       style="fill:none;stroke:#000000;stroke-width:13.0985918px;stroke-linecap:butt;stroke-linejoin:miter;stroke-opacity:1"
       d="M 85.793646,48.512074 C 15.948164,361.8419 39.872216,780.24758 76.497846,1033.8642 l 237.042184,1.5493 C 266.68939,919.14161 274.08983,819.56234 279.45553,719.35708 318.33504,675.23578 600.63077,536.02094 635.79357,463.72326 685.3454,387.10214 738.70547,313.01978 703.96256,180.20216 679.51244,101.64298 631.55617,73.454024 578.46966,56.258584 z"
       id="path2987"
       inkscape:connector-curvature="0"
       sodipodi:nodetypes="cccccccc" />
    <path
       style="fill:none;stroke:#000000;stroke-width:13.0985918px;stroke-linecap:butt;stroke-linejoin:miter;stroke-opacity:1"
       d="m 290.30065,211.18806 c -35.8739,50.80669 -75.39143,139.10259 -27.88729,322.2535 65.69362,-31.23516 129.95112,-66.06117 187.46481,-117.74638 80.32605,-89.79503 84.93178,-159.12508 12.39427,-207.60572 z"
       id="path2989"
       inkscape:connector-curvature="0"
       sodipodi:nodetypes="ccccc" />
    <path
       style="color:#000000;fill:#2a7fff;fill-opacity:1;stroke:#000000;stroke-width:0;stroke-linecap:butt;stroke-linejoin:miter;stroke-miterlimit:4;stroke-opacity:1;stroke-dasharray:none;stroke-dashoffset:0;marker:none;visibility:visible;display:inline;overflow:visible;enable-background:accumulate"
       d="M 90.656024,985.14923 48.12314,984.85957 45.203314,962.84366 C 30.313558,850.57274 21.226251,741.33462 15.686423,608.02245 13.625913,558.43768 13.968199,406.11304 16.247006,358.55116 21.324632,252.57399 30.738868,157.82963 43.567225,83.601961 c 3.626181,-20.98187 12.799801,-67.515853 13.548887,-68.7279 0.513838,-0.831407 65.164948,-0.150006 230.008948,2.424217 126.11181,1.969376 235.50445,3.730933 243.09474,3.91457 13.07139,0.316244 14.36144,0.549784 24.41634,4.420111 45.48727,17.508927 72.75638,40.396788 92.46419,77.608231 16.12088,30.43877 24.33112,64.71384 25.56482,106.72477 0.97995,33.37036 -2.36169,57.67201 -11.89331,86.49246 -10.23691,30.95303 -22.39443,54.11768 -56.54565,107.74068 -19.38804,30.44239 -22.07952,33.79356 -39.49356,49.17356 -36.21715,31.98679 -78.63085,60.78619 -186.56154,126.67746 -94.05012,57.41725 -118.58238,73.5758 -134.69429,88.71847 l -5.42432,5.09801 -0.70791,13.52205 c -2.35097,44.90731 -2.80155,59.74127 -2.84527,93.67132 -0.053,41.10207 1.43929,65.41369 5.86439,95.5422 4.76051,32.41203 12.93513,66.27172 22.84325,94.61781 l 5.14695,14.72492 -67.58249,-0.25301 c -37.17037,-0.13916 -86.72229,-0.38335 -110.115376,-0.54266 l 0,0 z M 262.70166,482.49653 c 58.23401,-29.2146 106.00594,-59.86319 146.49803,-93.98735 11.30255,-9.52507 16.72593,-15.37371 30.7329,-33.14276 48.26263,-61.22526 58.69532,-115.66996 30.2794,-158.01814 -7.13812,-10.63791 -20.33589,-24.03572 -32.02753,-32.51297 l -8.17051,-5.92419 -84.18694,1.62161 c -46.3028,0.89187 -86.40418,1.62262 -89.11414,1.62387 l -4.9272,0.002 -7.43897,11.41198 c -22.31876,34.23883 -34.84059,68.21663 -41.7631,113.32366 -2.78126,18.12271 -3.88623,65.65734 -2.05167,88.26068 2.64127,32.54259 8.60897,68.45242 17.64365,106.16826 l 4.86992,20.32983 12.92782,-6.11668 c 7.11029,-3.36403 19.13804,-9.23206 26.72834,-13.03993 z"
       id="path2984"
       inkscape:connector-curvature="0"
       transform="translate(34.484527,41.962778)" />
  </g>
</svg>
