<?xml version="1.0" encoding="UTF-8" standalone="no"?>
<!-- Created with Inkscape (http://www.inkscape.org/) -->

<svg
   xmlns:dc="http://purl.org/dc/elements/1.1/"
   xmlns:cc="http://creativecommons.org/ns#"
   xmlns:rdf="http://www.w3.org/1999/02/22-rdf-syntax-ns#"
   xmlns:svg="http://www.w3.org/2000/svg"
   xmlns="http://www.w3.org/2000/svg"
   xmlns:sodipodi="http://sodipodi.sourceforge.net/DTD/sodipodi-0.dtd"
   xmlns:inkscape="http://www.inkscape.org/namespaces/inkscape"
   preserveAspectRatio="xMinYMin meet"
   viewBox="0 0 705.10046 1003.0431"
   width="100%"
   height="100%"
   id="svg3046"
   version="1.1"
   inkscape:version="0.48.4 r9939"
   sodipodi:docname="Q.svg">
  <defs
     id="defs3048" />
  <sodipodi:namedview
     id="base"
     pagecolor="#ffffff"
     bordercolor="#666666"
     borderopacity="1.0"
     inkscape:pageopacity="0.0"
     inkscape:pageshadow="2"
     inkscape:zoom="0.58864034"
     inkscape:cx="373.73037"
     inkscape:cy="478.74133"
     inkscape:document-units="px"
     inkscape:current-layer="layer1"
     showgrid="false"
     inkscape:window-width="1600"
     inkscape:window-height="838"
     inkscape:window-x="-8"
     inkscape:window-y="-8"
     inkscape:window-maximized="1"
     fit-margin-top="0"
     fit-margin-left="0"
     fit-margin-right="0"
     fit-margin-bottom="0" />
  <metadata
     id="metadata3051">
    <rdf:RDF>
      <cc:Work
         rdf:about="">
        <dc:format>image/svg+xml</dc:format>
        <dc:type
           rdf:resource="http://purl.org/dc/dcmitype/StillImage" />
        <dc:title />
      </cc:Work>
    </rdf:RDF>
  </metadata>
  <g
     inkscape:label="Calque 1"
     inkscape:groupmode="layer"
     id="layer1"
     transform="translate(-18.76463,-36.523352)">
    <path
       style="fill:none;stroke:#000000;stroke-width:12.05109215px;stroke-linecap:butt;stroke-linejoin:miter;stroke-opacity:1"
       d="M 316.62982,45.592036 C 217.99838,77.284716 157.6905,120.95354 124.57132,173.11886 26.269599,317.16256 34.429269,368.63108 26.237299,434.31845 c -4.854308,72.61619 1.67836,285.34866 32.26584,345.70523 35.73342,70.51058 122.940421,178.23035 181.303261,198.20444 0,0 58.38585,35.33878 208.95967,9.21872 16.37491,-2.84044 112.16217,-58.38573 112.16217,-58.38573 l 119.84449,104.47979 c 15.1886,-6.5094 34.7408,-47.83713 36.8753,-59.9222 4.2832,-24.25102 -64.64124,-157.35439 -70.67764,-165.9386 14.57989,-79.68978 37.80094,-133.45669 41.48464,-245.83482 L 677.69983,328.30211 C 669.44204,275.54965 639.679,197.94991 602.81313,160.34677 560.96848,109.11613 514.2546,75.469707 476.5025,65.165787 433.11098,37.225927 363.17778,41.354395 316.62982,45.592036 z"
       id="path3030"
       inkscape:connector-curvature="0"
       sodipodi:nodetypes="cccscsccscccccc" />
    <path
       style="fill:none;stroke:#000000;stroke-width:12.05109215px;stroke-linecap:butt;stroke-linejoin:miter;stroke-opacity:1"
       d="M 318.16634,225.35878 C 242.54075,250.56551 203.26905,380.42223 189.103,528.04293 c -1.84176,60.00239 4.42805,116.77159 30.72932,175.15733 20.48601,37.89984 34.64942,82.12217 78.35993,96.7975 33.80227,16.725 67.60454,6.53593 101.40681,3.07291 L 335.06739,735.46609 C 289.14972,668.55277 275.10212,603.15715 315.09331,540.33468 l 76.82342,82.96925 c 32.93576,19.36972 57.56277,52.58735 101.40693,53.77643 L 504.0789,477.33953 c -0.73721,-44.13705 -0.67003,-87.46971 -17.06121,-142.41114 -16.38293,-44.66458 -11.59231,-79.82721 -67.44454,-114.17903 z"
       id="path3032"
       inkscape:connector-curvature="0"
       sodipodi:nodetypes="ccccccccccccc" />
    <path
       style="color:#000000;fill:#c8b7be;fill-opacity:1;stroke:#000000;stroke-width:0;stroke-linecap:butt;stroke-linejoin:miter;stroke-miterlimit:4;stroke-opacity:1;stroke-dasharray:none;stroke-dashoffset:0;marker:none;visibility:visible;display:inline;overflow:visible;enable-background:accumulate"
       d="m 609.35812,941.67015 c -28.96506,-25.30948 -55.80034,-48.61346 -59.63395,-51.78662 l -6.97022,-5.76939 -30.40405,17.16414 c -33.67042,19.00813 -73.05067,39.15096 -82.21837,42.05433 -9.33784,2.95725 -56.6936,8.55632 -82.62008,9.76851 -27.33467,1.27801 -65.80189,-1.42906 -87.74439,-6.17486 C 242.5057,943.19291 218.40443,933.93318 204.04725,925.51867 156.62737,897.72662 80.20945,808.10851 47.782925,742.26169 42.960418,732.46889 37.612149,718.07789 35.155854,708.28509 26.988417,675.72296 19.615461,614.86127 15.501856,546.0468 12.817597,501.14318 12.741116,410.81776 15.366642,386.35676 21.322694,330.86656 26.411853,304.939 36.946632,276.41395 56.000153,224.82271 108.76424,137.56088 140.22271,105.61484 167.93906,77.468923 205.02093,53.563966 250.90494,34.263151 c 36.93415,-15.536113 45.75674,-17.988197 72.35598,-20.110105 51.28766,-4.091382 100.41891,2.817647 126.22734,17.750575 3.83633,2.219725 10.03303,5.009036 13.77046,6.198469 33.38643,10.625192 75.78677,44.039165 117.47943,92.58072 24.52735,28.5565 43.61366,64.95413 58.91484,112.35071 11.77917,36.48688 12.51132,43.32979 18.15189,169.65511 5.7911,129.69658 5.65157,139.80063 -2.72123,197.0643 -3.44496,23.56084 -6.45557,38.51211 -16.24882,80.69444 -4.66388,20.08867 -10.64446,46.6776 -13.2902,59.08651 l -4.81041,22.56165 8.52909,15.66203 c 4.691,8.61412 16.45494,32.24806 26.14208,52.51988 26.77234,56.02516 37.76343,85.86384 35.69308,96.89978 -2.23914,11.9356 -23.81432,50.66744 -28.15158,50.53778 -0.50877,-0.0152 -24.62371,-20.73539 -53.58877,-46.04485 z M 366.67688,775.3029 c 14.75024,-1.916 27.08614,-3.75117 27.41312,-4.07812 0.32696,-0.32698 -15.76158,-17.68005 -35.75231,-38.56241 -19.99073,-20.88236 -39.15885,-42.38616 -42.59584,-47.78621 -9.86976,-15.50703 -24.06826,-44.91982 -29.29369,-60.68317 -4.42573,-13.3509 -4.79347,-16.49024 -4.87553,-41.62134 -0.0725,-22.19821 0.49112,-28.89421 3.07426,-36.52485 4.58626,-13.54788 11.52879,-28.88011 13.07708,-28.88011 0.73481,0 17.10276,17.05719 36.37321,37.90486 19.27045,20.84769 37.17133,39.16554 39.77973,40.70637 2.60842,1.54082 14.23047,9.79844 25.8268,18.35025 11.59634,8.55183 24.90662,17.76096 29.57841,20.46477 10.28378,5.95175 26.8469,11.00265 41.19663,12.56285 l 10.61769,1.15442 0.10668,-4.83857 c 0.0586,-2.66123 2.5432,-49.17806 5.5212,-103.37074 8.88014,-161.59793 6.8873,-184.28122 -25.37259,-288.80114 -9.31025,-30.16462 -23.04488,-49.03529 -49.24365,-67.65818 l -9.14463,-6.50027 -53.09502,2.53032 c -46.45467,2.21387 -54.11449,2.97057 -61.24638,6.05031 -52.17465,22.5305 -92.41518,100.73645 -113.2882,220.17137 -17.47772,100.00702 -15.52816,163.18642 7.15555,231.89032 11.24195,34.0494 40.73003,89.99435 56.30538,106.82292 12.64239,13.65965 34.81905,26.1804 57.1292,32.25469 10.23399,2.78637 42.83289,2.06838 70.75293,-1.55834 l -3e-5,0 z"
       id="path3549"
       inkscape:connector-curvature="0"
       transform="translate(18.76463,36.523352)" />
  </g>
</svg>
