<?xml version="1.0" encoding="UTF-8" standalone="no"?>
<!-- Created with Inkscape (http://www.inkscape.org/) -->

<svg
   xmlns:dc="http://purl.org/dc/elements/1.1/"
   xmlns:cc="http://creativecommons.org/ns#"
   xmlns:rdf="http://www.w3.org/1999/02/22-rdf-syntax-ns#"
   xmlns:svg="http://www.w3.org/2000/svg"
   xmlns="http://www.w3.org/2000/svg"
   xmlns:sodipodi="http://sodipodi.sourceforge.net/DTD/sodipodi-0.dtd"
   xmlns:inkscape="http://www.inkscape.org/namespaces/inkscape"
   preserveAspectRatio="xMinYMin meet"
   viewBox="0 0 1050 1050"
   width="100%"
   height="100%"
   id="svg3046"
   version="1.1"
   inkscape:version="0.48.4 r9939"
   sodipodi:docname="Q.svg">
  <defs
     id="defs3048" />
  <sodipodi:namedview
     id="base"
     pagecolor="#ffffff"
     bordercolor="#666666"
     borderopacity="1.0"
     inkscape:pageopacity="0.0"
     inkscape:pageshadow="2"
     inkscape:zoom="0.63714286"
     inkscape:cx="525"
     inkscape:cy="525"
     inkscape:document-units="px"
     inkscape:current-layer="layer1"
     showgrid="false"
     inkscape:window-width="1600"
     inkscape:window-height="838"
     inkscape:window-x="-8"
     inkscape:window-y="-8"
     inkscape:window-maximized="1"
     fit-margin-top="0"
     fit-margin-left="0"
     fit-margin-right="0"
     fit-margin-bottom="0" />
  <metadata
     id="metadata3051">
    <rdf:RDF>
      <cc:Work
         rdf:about="">
        <dc:format>image/svg+xml</dc:format>
        <dc:type
           rdf:resource="http://purl.org/dc/dcmitype/StillImage" />
        <dc:title />
      </cc:Work>
    </rdf:RDF>
  </metadata>
  <g
     inkscape:label="Calque 1"
     inkscape:groupmode="layer"
     id="layer1"
     transform="translate(-18.76463,10.433548)">
    <path
       style="fill:none;stroke:#000000;stroke-width:12.61525726px;stroke-linecap:butt;stroke-linejoin:miter;stroke-opacity:1"
       d="M 330.57421,-0.94032401 C 227.3254,32.236031 164.19424,77.949187 129.5246,132.5566 26.62094,283.34362 35.1626,337.22161 26.587128,405.9841 c -5.08156,76.01568 1.756931,298.7071 33.776347,361.88923 37.40626,73.81149 128.695805,186.5741 189.790875,207.48327 0,0 61.11915,36.9931 218.742,9.65029 17.14149,-2.97341 117.41298,-61.11903 117.41298,-61.11903 l 125.45494,109.37094 c 15.89965,-6.8141 36.36717,-50.07658 38.6016,-62.72741 4.48371,-25.38632 -67.66739,-164.72085 -73.98638,-173.70692 15.26244,-83.42041 39.57057,-139.70439 43.42672,-257.34344 L 708.54752,295.00467 C 699.90314,239.78263 668.74676,158.5501 630.15504,119.18659 586.35145,65.557615 537.45069,30.336054 497.93124,19.549761 452.50837,-9.6980878 379.30129,-5.3763478 330.57421,-0.94032401 z"
       id="path3030"
       inkscape:connector-curvature="0"
       sodipodi:nodetypes="cccscsccscccccc" />
    <path
       style="fill:none;stroke:#000000;stroke-width:12.61525726px;stroke-linecap:butt;stroke-linejoin:miter;stroke-opacity:1"
       d="M 332.18266,187.2421 C 253.0167,213.62887 211.90652,349.56476 197.0773,504.09624 c -1.92798,62.81137 4.63534,122.23819 32.16789,183.35722 21.44505,39.6741 36.27152,85.96668 82.02831,101.32903 35.3847,17.50797 70.76941,6.8419 106.15411,3.21676 L 349.87493,721.2298 C 301.80765,651.18397 287.10242,582.72689 328.96577,516.96342 l 80.41987,86.85341 c 34.47763,20.2765 60.25754,55.0492 106.15424,56.29395 l 11.25874,-209.09159 c -0.77172,-46.2033 -0.7014,-91.56456 -17.85992,-149.07804 -17.14989,-46.75553 -12.135,-83.56428 -70.60192,-119.52426 z"
       id="path3032"
       inkscape:connector-curvature="0"
       sodipodi:nodetypes="ccccccccccccc" />
    <path
       style="color:#000000;fill:#c8b7be;fill-opacity:1;stroke:#000000;stroke-width:0;stroke-linecap:butt;stroke-linejoin:miter;stroke-miterlimit:4;stroke-opacity:1;stroke-dasharray:none;stroke-dashoffset:0;marker:none;visibility:visible;display:inline;overflow:visible;enable-background:accumulate"
       d="m 656.64951,975.32036 c -30.32104,-26.49433 -58.4126,-50.88927 -62.42568,-54.21098 l -7.29653,-6.03948 -31.82739,17.96767 c -35.24669,19.89798 -76.4705,40.98379 -86.06738,44.02308 -9.77499,3.09569 -59.34768,8.95688 -86.48789,10.22582 -28.61433,1.33784 -68.88237,-1.49596 -91.8521,-6.46394 -18.06944,-3.90812 -43.299,-13.60134 -58.3283,-22.40977 C 182.72442,929.31964 102.72904,835.50611 68.784486,766.57671 63.736216,756.32546 58.137571,741.26075 55.566286,731.00951 47.016495,696.923 39.298378,633.21211 34.992197,561.17612 32.182276,514.17037 32.102214,419.61641 34.850653,394.01028 41.085534,335.92234 46.412939,308.781 57.440898,278.92056 77.386399,224.91411 132.62061,133.56716 165.55179,100.12559 194.56566,70.662034 233.3835,45.63798 281.41555,25.433608 320.07875,9.1701805 329.31436,6.6033035 357.15883,4.3820596 410.84749,0.0991418 462.2788,7.3316132 489.29543,22.963618 c 4.01593,2.32364 10.50272,5.243531 14.41512,6.488647 34.9494,11.122604 79.33469,46.100834 122.97916,96.914835 25.67559,29.89336 45.65541,67.99492 61.67291,117.61035 12.3306,38.19499 13.09703,45.35825 19.00166,177.59742 6.06221,135.76825 5.91615,146.34531 -2.84862,206.28975 -3.60624,24.66383 -6.75779,40.31503 -17.0095,84.47211 -4.88222,21.02911 -11.14278,48.86278 -13.91238,61.85261 l -5.0356,23.61786 8.92837,16.39524 c 4.91061,9.01738 17.22527,33.75773 27.36591,54.97857 28.02567,58.64795 39.5313,89.88351 37.36403,101.43609 -2.34396,12.49436 -24.92917,53.0394 -29.46948,52.9037 -0.53259,-0.016 -25.77645,-21.7061 -56.0975,-48.20044 z M 402.60728,801.16472 c 15.44077,-2.0057 28.35417,-3.92678 28.69645,-4.26903 0.34227,-0.34229 -16.49945,-18.50774 -37.42603,-40.36769 -20.92658,-21.85996 -40.99205,-44.37045 -44.58994,-50.0233 -10.33181,-16.23298 -25.195,-47.02271 -30.66506,-63.52402 -4.63292,-13.97591 -5.01787,-17.26222 -5.10377,-43.56982 -0.0759,-23.2374 0.51411,-30.24687 3.21818,-38.23474 4.80096,-14.18211 12.0685,-30.23211 13.68927,-30.23211 0.76921,0 17.90342,17.85571 38.076,39.67935 20.17259,21.82367 38.91149,40.99906 41.642,42.61202 2.73053,1.61295 14.89666,10.25715 27.03587,19.20931 12.13921,8.95217 26.07261,18.59243 30.9631,21.42281 10.76521,6.23038 28.10373,11.51774 43.12523,13.15098 l 11.11475,1.20846 0.11168,-5.06509 c 0.0613,-2.78581 2.66226,-51.4803 5.77967,-108.20998 9.29586,-169.16305 7.20972,-192.90824 -26.56039,-302.3212 -9.74611,-31.57676 -24.12372,-51.33085 -51.54897,-70.82556 l -9.57273,-6.80458 -55.58063,2.64877 c -48.62942,2.31752 -56.64783,3.10964 -64.1136,6.33356 -54.61718,23.58525 -96.74154,105.45237 -118.59172,230.47857 -18.29593,104.68879 -16.25511,170.8259 7.49053,242.74613 11.76824,35.64341 42.63678,94.20739 58.94129,111.82378 13.23423,14.29912 36.44908,27.40602 59.80367,33.76467 10.71309,2.91682 44.83808,2.16521 74.06519,-1.63129 l -4e-5,0 z"
       id="path3549"
       inkscape:connector-curvature="0" />
  </g>
  <script
     id="script3287">
	document.getElementById(&quot;svg3046&quot;).addEventListener(&quot;click&quot;,sendClickToParentDocument,false);
	function sendClickToParentDocument(evt)
		{
			// SVGElementInstance objects aren't normal DOM nodes, so fetch the corresponding 'use' element instead
			var target = evt.target;
			if(target.correspondingUseElement)
				target = target.correspondingUseElement;
      
      // call a method in the parent document if it exists
      if (window.parent.svgElementClicked)
				window.parent.svgElementClicked(target);
			else
				alert(&quot;You clicked '&quot; + target.id + &quot;' which is a &quot; + target.nodeName + &quot; element&quot;);
		}
  </script>
  <!--
  <script xlink:href="../../../src/js.js"/>
  <script>
	document.getElementById("svg3020").addEventListener("click",sendClickToParentDocument,false);
	function sendClickToParentDocument(evt)
		{
			// SVGElementInstance objects aren't normal DOM nodes, so fetch the corresponding 'use' element instead
			var target = evt.target;
			if(target.correspondingUseElement)
				target = target.correspondingUseElement;
				
				//svgElementClicked(target);
				top.svgElementClicked(target);
			//	alert("You clicked '" + target.id + "' which is a " + target.nodeName + " element");
		}
  </script>-->
</svg>
