<?xml version="1.0" encoding="UTF-8" standalone="no"?>
<!-- Created with Inkscape (http://www.inkscape.org/) -->

<svg
   xmlns:dc="http://purl.org/dc/elements/1.1/"
   xmlns:cc="http://creativecommons.org/ns#"
   xmlns:rdf="http://www.w3.org/1999/02/22-rdf-syntax-ns#"
   xmlns:svg="http://www.w3.org/2000/svg"
   xmlns="http://www.w3.org/2000/svg"
   xmlns:sodipodi="http://sodipodi.sourceforge.net/DTD/sodipodi-0.dtd"
   xmlns:inkscape="http://www.inkscape.org/namespaces/inkscape"
   preserveAspectRatio="xMinYMin meet"
   viewBox="0 0 725.09149 1000"
   width="100%"
   height="100%"
   id="svg3017"
   version="1.1"
   inkscape:version="0.48.4 r9939"
   sodipodi:docname="R.svg">
  <defs
     id="defs3019" />
  <sodipodi:namedview
     id="base"
     pagecolor="#ffffff"
     bordercolor="#666666"
     borderopacity="1.0"
     inkscape:pageopacity="0.0"
     inkscape:pageshadow="2"
     inkscape:zoom="0.61860832"
     inkscape:cx="359.1827"
     inkscape:cy="507.44677"
     inkscape:document-units="px"
     inkscape:current-layer="layer1"
     showgrid="false"
     inkscape:window-width="1400"
     inkscape:window-height="881"
     inkscape:window-x="200"
     inkscape:window-y="0"
     inkscape:window-maximized="1"
     fit-margin-top="0"
     fit-margin-left="0"
     fit-margin-right="0"
     fit-margin-bottom="0" />
  <metadata
     id="metadata3022">
    <rdf:RDF>
      <cc:Work
         rdf:about="">
        <dc:format>image/svg+xml</dc:format>
        <dc:type
           rdf:resource="http://purl.org/dc/dcmitype/StillImage" />
        <dc:title />
      </cc:Work>
    </rdf:RDF>
  </metadata>
  <g
     inkscape:label="Calque 1"
     inkscape:groupmode="layer"
     id="layer1"
     transform="translate(-12.864536,-33.627871)">
    <path
       style="fill:none;stroke:#000000;stroke-width:13.01791859px;stroke-linecap:butt;stroke-linejoin:miter;stroke-opacity:1"
       d="M 61.654086,43.216351 C 32.991499,62.378461 -8.6715715,624.58877 46.256623,1010.1817 l 229.423237,16.9372 C 259.33665,918.24113 238.58621,807.51214 241.80528,706.85017 c 25.17418,-39.99208 52.00008,-63.3737 98.54422,-73.90805 41.50985,13.05085 99.10984,50.84199 192.46927,378.77928 l 198.62832,15.3975 c -18.98483,-98.39119 1.61047,-182.81318 -80.06722,-303.33137 l -133.95869,-187.85 c 53.00401,-67.1489 112.11669,-87.64326 163.21401,-226.34371 -3.0362,-12.6917 60.69741,-96.67758 -80.06727,-240.201694 L 509.72251,40.13683 z"
       id="path2987"
       inkscape:connector-curvature="0"
       sodipodi:nodetypes="ccccccccccccc" />
    <path
       style="fill:none;stroke:#000000;stroke-width:13.01791859px;stroke-linecap:butt;stroke-linejoin:miter;stroke-opacity:1"
       d="m 220.24878,304.97454 c -12.86986,59.83546 -7.71676,122.16092 7.6988,175.53191 118.08627,3.80237 250.28609,-119.92264 263.29781,-201.70782 1.38928,-31.85857 -12.31207,-42.8686 -40.41747,-70.82868 -134.37418,-32.61112 -187.90037,-32.86979 -230.57914,97.00459 z"
       id="path2991"
       inkscape:connector-curvature="0"
       sodipodi:nodetypes="ccccc" />
  </g>
</svg>
