<?xml version="1.0" encoding="UTF-8" standalone="no"?>
<!-- Created with Inkscape (http://www.inkscape.org/) -->

<svg
   xmlns:dc="http://purl.org/dc/elements/1.1/"
   xmlns:cc="http://creativecommons.org/ns#"
   xmlns:rdf="http://www.w3.org/1999/02/22-rdf-syntax-ns#"
   xmlns:svg="http://www.w3.org/2000/svg"
   xmlns="http://www.w3.org/2000/svg"
   xmlns:sodipodi="http://sodipodi.sourceforge.net/DTD/sodipodi-0.dtd"
   xmlns:inkscape="http://www.inkscape.org/namespaces/inkscape"
   preserveAspectRatio="xMinYMin meet"
   viewBox="0 0 725.09149 1000"
   width="100%"
   height="100%"
   id="svg3017"
   version="1.1"
   inkscape:version="0.48.4 r9939"
   sodipodi:docname="R.svg">
  <defs
     id="defs3019" />
  <sodipodi:namedview
     id="base"
     pagecolor="#ffffff"
     bordercolor="#666666"
     borderopacity="1.0"
     inkscape:pageopacity="0.0"
     inkscape:pageshadow="2"
     inkscape:zoom="0.669"
     inkscape:cx="105.4456"
     inkscape:cy="500"
     inkscape:document-units="px"
     inkscape:current-layer="layer1"
     showgrid="false"
     inkscape:window-width="1600"
     inkscape:window-height="838"
     inkscape:window-x="-8"
     inkscape:window-y="-8"
     inkscape:window-maximized="1"
     fit-margin-top="0"
     fit-margin-left="0"
     fit-margin-right="0"
     fit-margin-bottom="0" />
  <metadata
     id="metadata3022">
    <rdf:RDF>
      <cc:Work
         rdf:about="">
        <dc:format>image/svg+xml</dc:format>
        <dc:type
           rdf:resource="http://purl.org/dc/dcmitype/StillImage" />
        <dc:title />
      </cc:Work>
    </rdf:RDF>
  </metadata>
  <g
     inkscape:label="Calque 1"
     inkscape:groupmode="layer"
     id="layer1"
     transform="translate(-12.864536,-33.627871)">
    <path
       style="fill:none;stroke:#000000;stroke-width:13.01791859px;stroke-linecap:butt;stroke-linejoin:miter;stroke-opacity:1"
       d="M 61.654086,43.216351 C 32.991499,62.378461 -8.6715715,624.58877 46.256623,1010.1817 l 229.423237,16.9372 C 259.33665,918.24113 238.58621,807.51214 241.80528,706.85017 c 25.17418,-39.99208 52.00008,-63.3737 98.54422,-73.90805 41.50985,13.05085 99.10984,50.84199 192.46927,378.77928 l 198.62832,15.3975 c -18.98483,-98.39119 1.61047,-182.81318 -80.06722,-303.33137 l -133.95869,-187.85 c 53.00401,-67.1489 112.11669,-87.64326 163.21401,-226.34371 -3.0362,-12.6917 60.69741,-96.67758 -80.06727,-240.201694 L 509.72251,40.13683 z"
       id="path2987"
       inkscape:connector-curvature="0"
       sodipodi:nodetypes="ccccccccccccc" />
    <path
       style="fill:none;stroke:#000000;stroke-width:13.01791859px;stroke-linecap:butt;stroke-linejoin:miter;stroke-opacity:1"
       d="m 220.24878,304.97454 c -12.86986,59.83546 -7.71676,122.16092 7.6988,175.53191 118.08627,3.80237 250.28609,-119.92264 263.29781,-201.70782 1.38928,-31.85857 -12.31207,-42.8686 -40.41747,-70.82868 -134.37418,-32.61112 -187.90037,-32.86979 -230.57914,97.00459 z"
       id="path2991"
       inkscape:connector-curvature="0"
       sodipodi:nodetypes="ccccc" />
    <path
       style="color:#000000;fill:none;fill-opacity:1;stroke:#000000;stroke-width:0;stroke-linecap:butt;stroke-linejoin:miter;stroke-miterlimit:4;stroke-opacity:1;stroke-dasharray:none;stroke-dashoffset:0;marker:none;visibility:visible;display:inline;overflow:visible;enable-background:accumulate"
       d="M 22.758081,809.11379 C 16.844939,724.83374 14.14623,650.54702 13.544691,555.49896 12.767468,432.69146 17.257899,301.93843 25.978245,193.45695 c 1.30845,-16.27718 2.379,-29.994 2.379,-30.48183 0,-0.77927 14.706142,-0.88697 121.118985,-0.88697 l 121.119,0 -6.37826,4.2125 c -12.74039,8.41436 -26.1925,23.28842 -35.92477,39.7222 -11.94377,20.16807 -25.5901,53.68356 -28.99354,71.20838 -1.76257,9.07572 -3.57284,21.93418 -4.67569,33.21184 -1.21053,12.37874 -1.0254,53.96664 0.29679,66.66961 2.33242,22.40885 5.80144,41.72239 11.25853,62.68109 1.64634,6.32301 3.14094,11.96937 3.32133,12.54747 0.29779,0.95435 1.41647,1.0511 12.15358,1.0511 32.56431,0 65.35517,-8.46109 101.31168,-26.14166 79.61116,-39.14646 149.44718,-116.21012 161.6314,-178.35935 0.9307,-4.74732 0.97543,-6.36551 0.37359,-13.51411 -0.86062,-10.22237 -2.37634,-16.12402 -6.10351,-23.7647 -4.14758,-8.50255 -9.75747,-15.45389 -24.54906,-30.41931 l -12.87717,-13.0285 -10.58682,-2.49303 c -5.82275,-1.37118 -11.39767,-2.71403 -12.38871,-2.98412 -0.99103,-0.27009 53.90641,-0.51545 121.99433,-0.54524 l 123.79619,-0.0542 2.14118,7.658 c 4.84388,17.32442 6.07997,26.14161 6.04147,43.095 -0.0415,18.19992 -1.17573,24.50806 -9.43207,52.45275 -1.20342,4.07315 -2.18803,7.90506 -2.18803,8.51535 0,1.56677 -7.96605,21.67793 -13.71736,34.63083 -14.94529,33.65957 -31.99667,62.33647 -51.36834,86.39111 -10.28325,12.76913 -17.83547,20.8379 -47.22275,50.45268 -16.71817,16.84759 -32.56457,33.06453 -35.21421,36.03763 -6.40039,7.18174 -17.04919,20.12835 -17.04919,20.72809 0,0.26271 30.72433,43.54632 68.27628,96.1858 37.55195,52.63947 70.23838,98.70883 72.63651,102.37634 16.38253,25.05413 30.01094,51.80609 39.88218,78.28691 3.52082,9.44498 9.68962,29.87255 11.70911,38.77409 0.52465,2.31241 1.09488,4.67816 1.2672,5.25717 0.29786,1.00088 -4.90129,1.04527 -105.48003,0.90094 L 478.74373,823.679 473.45353,808.96363 C 447.52608,736.84312 421.41548,681.35605 397.56532,647.69523 389.84284,636.79616 384.4557,630.38489 375.57913,621.52938 361.25415,607.23837 350.89335,600.49608 333.56686,594.1899 l -5.61495,-2.04364 -6.09728,1.54166 c -21.35131,5.39853 -38.74425,13.41028 -54.44776,25.0804 -7.16817,5.32705 -21.70683,19.75027 -28.21703,27.99298 -2.72523,3.45048 -7.69443,10.34267 -11.04265,15.31599 l -6.08768,9.0424 0.0606,27.02823 c 0.0797,35.57841 1.90283,64.94083 6.57369,105.87447 1.14116,10.00063 2.07483,18.58209 2.07483,19.06992 0,0.77883 -12.62165,0.887 -103.48378,0.887 l -103.483774,0 -1.042975,-14.86552 0,0 z"
       id="path3032"
       inkscape:connector-curvature="0"
       transform="translate(12.864536,33.627871)" />
    <path
       style="color:#000000;fill:#d42aff;stroke:none;stroke-width:0;marker:none;visibility:visible;display:inline;overflow:visible;enable-background:accumulate;fill-opacity:1"
       d="M 142.81449,977.4743 C 46.414954,970.19069 41.26061,969.65559 40.148101,966.81614 39.503877,965.1719 37.245761,949.36472 35.130066,931.68909 18.536068,793.05408 11.3438,624.27486 14.724486,452.83625 17.726662,300.59235 24.946051,182.17877 36.655265,93.124066 41.129585,59.094528 48.833772,21.480201 52.029936,18.059954 52.581464,17.469759 152.57225,16.240313 274.23168,15.32785 l 221.19897,-1.659024 44.09566,14.245409 44.09567,14.245406 8.64759,9.413453 c 58.58583,63.774326 86.06789,125.478506 78.8855,177.117836 -1.84725,13.2811 -9.75735,42.76798 -15.96152,59.5004 -6.99528,18.86605 -28.51843,60.92861 -40.53779,79.22272 -16.21299,24.67706 -29.05682,39.64738 -68.1197,79.39801 -37.46188,38.12144 -51.04562,53.4254 -49.95135,56.27706 0.40474,1.05475 31.22234,44.61405 68.48353,96.79846 72.81461,101.97702 83.48773,118.02001 96.93372,145.70285 23.55833,48.50229 31.67241,83.15994 39.72005,169.65621 2.10348,22.60837 4.82732,47.42366 6.05297,55.14509 1.22564,7.72144 2.0002,14.26724 1.72121,14.54621 -0.57822,0.57822 -176.6032,-12.68734 -181.18064,-13.6541 -2.48664,-0.52519 -4.48054,-5.73169 -11.85285,-30.95015 -28.6132,-97.87716 -59.94984,-183.42868 -87.44793,-238.7398 -13.03052,-26.2103 -15.9676,-31.34344 -28.93034,-50.56147 -18.94652,-28.08937 -40.64922,-47.61946 -61.89792,-55.70145 -7.87006,-2.99339 -9.49378,-3.13508 -17.49631,-1.52684 -35.32451,7.09902 -67.54338,30.52551 -92.46691,67.23312 l -7.54476,11.11199 0.99565,36.51007 c 1.72185,63.13937 7.60904,116.00942 26.47668,237.7741 3.23109,20.85229 5.87471,38.17291 5.87471,38.49028 0,0.91677 -4.26571,0.63103 -111.21108,-7.44939 l 0,0 z M 252.02035,451.03993 c 42.69569,-6.79477 87.52284,-27.70506 131.30267,-61.24808 16.48926,-12.63364 50.81322,-46.7981 62.27861,-61.98916 27.79945,-36.83288 41.76423,-70.34321 39.5228,-94.8401 -1.59889,-17.47453 -8.21105,-29.25096 -27.41042,-48.81875 l -16.09502,-16.40385 -25.41106,-5.76769 c -73.97165,-16.7897 -110.05044,-17.10434 -142.51842,-1.24289 -21.43193,10.47005 -38.29073,29.38214 -53.84646,60.40458 -15.55554,31.02206 -22.35998,54.99283 -25.47284,89.7361 -3.73455,41.68229 -0.64351,78.57175 10.45033,124.71691 l 4.53071,18.84559 14.48962,-0.607 c 7.9693,-0.33386 20.65006,-1.5874 28.17948,-2.78566 l 0,0 z"
       id="path7570"
       inkscape:connector-curvature="0"
       transform="translate(12.864536,33.627871)" />
  </g>
</svg>
