<?xml version="1.0" encoding="UTF-8" standalone="no"?>
<!-- Created with Inkscape (http://www.inkscape.org/) -->

<svg
   xmlns:dc="http://purl.org/dc/elements/1.1/"
   xmlns:cc="http://creativecommons.org/ns#"
   xmlns:rdf="http://www.w3.org/1999/02/22-rdf-syntax-ns#"
   xmlns:svg="http://www.w3.org/2000/svg"
   xmlns="http://www.w3.org/2000/svg"
   xmlns:sodipodi="http://sodipodi.sourceforge.net/DTD/sodipodi-0.dtd"
   xmlns:inkscape="http://www.inkscape.org/namespaces/inkscape"
   preserveAspectRatio="xMinYMin meet"
   viewBox="0 0 664.4566 1002.9501"
   width="100%"
   height="100%"
   id="svg3000"
   version="1.1"
   inkscape:version="0.48.4 r9939"
   sodipodi:docname="S.svg">
  <defs
     id="defs3002" />
  <sodipodi:namedview
     id="base"
     pagecolor="#ffffff"
     bordercolor="#666666"
     borderopacity="1.0"
     inkscape:pageopacity="0.0"
     inkscape:pageshadow="2"
     inkscape:zoom="0.66703219"
     inkscape:cx="74.369679"
     inkscape:cy="501.47505"
     inkscape:document-units="px"
     inkscape:current-layer="layer1"
     showgrid="false"
     inkscape:window-width="1600"
     inkscape:window-height="838"
     inkscape:window-x="-8"
     inkscape:window-y="-8"
     inkscape:window-maximized="1"
     fit-margin-top="0"
     fit-margin-left="0"
     fit-margin-right="0"
     fit-margin-bottom="0" />
  <metadata
     id="metadata3005">
    <rdf:RDF>
      <cc:Work
         rdf:about="">
        <dc:format>image/svg+xml</dc:format>
        <dc:type
           rdf:resource="http://purl.org/dc/dcmitype/StillImage" />
        <dc:title />
      </cc:Work>
    </rdf:RDF>
  </metadata>
  <g
     inkscape:label="Calque 1"
     inkscape:groupmode="layer"
     id="layer1"
     transform="translate(-48.61982,-37.685427)">
    <path
       style="fill:#ccff00;stroke:#000000;stroke-width:12.59386063000000000px;stroke-linecap:butt;stroke-linejoin:miter;stroke-opacity:1;fill-opacity:1"
       d="M 653.50231,155.31888 C 645.14439,240.90449 601.76534,271.45706 565.75156,313.58365 438.97484,196.97496 342.57173,175.82571 274.29361,243.06962 198.00316,429.74728 389.57511,365.7025 575.15338,487.51821 725.3547,606.89328 699.46587,677.35442 706.7795,757.03842 676.81795,943.60852 625.1748,961.95878 553.21576,998.35303 427.33509,1055.1584 301.45454,1041.1912 175.57399,981.11632 121.4884,938.62123 60.79027,915.96399 54.91675,728.83283 75.33228,677.74571 92.24684,618.7815 128.56464,603.47455 c 34.09158,96.1885 50.28162,204.31133 180.20253,236.6137 140.5709,10.68828 172.33932,-11.88431 199.00616,-51.71026 C 542.19311,692.95418 482.28815,652.5532 418.45553,614.44342 333.34673,578.50369 254.78308,564.38182 158.33728,490.65207 91.65657,440.85406 65.82266,350.20937 103.49303,196.06027 140.69882,103.44817 216.44699,76.357759 294.66431,53.465269 c 53.55089,-5.468299 68.62445,-27.64654 242.88166,23.50468 56.04873,21.7671 93.32467,48.227431 115.95634,78.348931 z"
       id="path2987"
       inkscape:connector-curvature="0"
       sodipodi:nodetypes="ccccccccccccccccc" />
    <path
       style="color:#000000;fill:none;fill-opacity:1;stroke:#000000;stroke-width:0;stroke-linecap:butt;stroke-linejoin:miter;stroke-miterlimit:4;stroke-opacity:1;stroke-dasharray:none;stroke-dashoffset:0;marker:none;visibility:visible;display:inline;overflow:visible;enable-background:accumulate"
       d="M 30.122914,814.96659 C 21.668161,788.3173 15.717286,749.1142 13.597848,706.10291 l -0.680724,-13.81443 7.247586,-18.76453 c 18.488237,-47.86739 25.817156,-63.65292 36.561281,-78.74818 4.475046,-6.28734 12.231725,-14.46043 16.530878,-17.41832 l 2.83845,-1.95291 0.645422,1.6827 c 0.354982,0.92549 6.129328,18.16992 12.831883,38.32096 20.614696,61.9775 30.875116,85.511 48.801916,111.93298 24.58804,36.23989 56.44153,60.42685 98.89197,75.09056 16.29367,5.6283 20.45309,6.46149 38.23086,7.65818 19.72195,1.3275 67.84357,1.53676 80.48404,0.34998 24.04412,-2.25752 39.56072,-5.32096 53.75614,-10.61314 22.0199,-8.20919 37.01639,-20.12948 52.17111,-41.46928 3.7254,-5.24585 5.43442,-9.76331 9.11886,-24.10382 5.60992,-21.83485 6.03434,-45.69397 1.12411,-63.19219 -5.52543,-19.69053 -16.09,-36.5757 -33.2139,-53.08518 -14.09421,-13.5885 -27.23779,-23.28387 -53.40818,-39.39656 -12.05231,-7.42042 -13.71058,-8.24308 -28.52979,-14.15334 -8.65354,-3.45126 -28.8424,-11.05684 -44.86413,-16.90129 -65.08106,-23.74046 -91.32572,-34.65776 -121.02638,-50.34476 -28.24421,-14.91775 -56.62437,-33.32152 -81.98561,-53.16546 -6.60166,-5.16548 -19.043084,-17.47504 -24.608928,-24.3481 -13.49148,-16.66013 -24.819999,-39.05663 -31.172119,-61.62733 -6.926844,-24.61283 -9.474602,-47.28614 -8.908864,-79.28278 0.474085,-26.81295 2.580629,-46.98682 7.996433,-76.57997 2.847804,-15.56102 8.21509,-40.43219 9.235248,-42.79469 l 0.583555,-1.35141 263.988525,0 c 145.19369,0 263.98853,0.21718 263.98853,0.48262 0,2.39251 -6.99932,20.15986 -11.35624,28.82715 -10.6993,21.28426 -21.86551,35.53263 -59.59412,76.04362 l -2.77918,2.98413 -11.03525,-9.69035 c -14.64996,-12.86452 -24.2352,-20.68444 -38.39075,-31.32031 -44.39668,-33.35774 -85.10225,-53.85141 -121.60004,-61.22089 -12.46055,-2.51599 -15.41656,-2.78084 -30.9323,-2.77145 -16.26627,0.01 -19.82055,0.40265 -32.61475,3.60443 -19.87433,4.97361 -40.93114,16.83718 -57.19808,32.22584 l -4.8929,4.62872 -3.93501,10.68727 c -9.90242,26.89443 -13.75409,44.5369 -13.74133,62.94184 0.008,10.85693 0.96966,17.56674 3.67815,25.65105 6.88517,20.55087 21.2516,34.90865 47.69909,47.67042 18.09814,8.73293 32.52483,13.61398 87.73274,29.683 73.59309,21.42029 115.5845,38.09478 159.1662,63.20378 17.55601,10.11465 22.39968,13.49891 37.5392,26.22854 56.12355,47.18989 89.52162,91.69748 102.44267,136.51922 5.93768,20.59715 8.04595,37.99307 9.26744,76.46734 0.34608,10.90138 0.90953,23.90525 1.25207,28.89749 l 0.62279,9.0768 -2.76643,15.54892 c -5.27741,29.66173 -10.43091,52.19552 -16.90159,73.90267 l -3.46358,11.61931 -298.36492,0 -298.364905,0 -1.572081,-4.95517 0,0 z"
       id="path3361"
       inkscape:connector-curvature="0"
       transform="translate(48.61982,37.685427)" />
  </g>
    <script>
	document.getElementById("svg3000").addEventListener("click",sendClickToParentDocument,false);
	function sendClickToParentDocument(evt)
		{
			// SVGElementInstance objects aren't normal DOM nodes, so fetch the corresponding 'use' element instead
			var target = evt.target;
			if(target.correspondingUseElement)
				target = target.correspondingUseElement;
      
      // call a method in the parent document if it exists
      if (window.parent.svgElementClicked)
				window.parent.svgElementClicked(target);
			else
				alert("You clicked '" + target.id + "' which is a " + target.nodeName + " element");
		}
  </script>
  <!--
  <script xlink:href="../../../src/js.js"/>
  <script>
	document.getElementById("svg3020").addEventListener("click",sendClickToParentDocument,false);
	function sendClickToParentDocument(evt)
		{
			// SVGElementInstance objects aren't normal DOM nodes, so fetch the corresponding 'use' element instead
			var target = evt.target;
			if(target.correspondingUseElement)
				target = target.correspondingUseElement;
				
				//svgElementClicked(target);
				top.svgElementClicked(target);
			//	alert("You clicked '" + target.id + "' which is a " + target.nodeName + " element");
		}
  </script>-->
</svg>
