<?xml version="1.0" encoding="UTF-8" standalone="no"?>
<!-- Created with Inkscape (http://www.inkscape.org/) -->

<svg
   xmlns:dc="http://purl.org/dc/elements/1.1/"
   xmlns:cc="http://creativecommons.org/ns#"
   xmlns:rdf="http://www.w3.org/1999/02/22-rdf-syntax-ns#"
   xmlns:svg="http://www.w3.org/2000/svg"
   xmlns="http://www.w3.org/2000/svg"
   xmlns:sodipodi="http://sodipodi.sourceforge.net/DTD/sodipodi-0.dtd"
   xmlns:inkscape="http://www.inkscape.org/namespaces/inkscape"
   preserveAspectRatio="xMinYMin meet"
   viewBox="0 0 664.4566 1002.9501"
   width="100%"
   height="100%"
   id="svg3000"
   version="1.1"
   inkscape:version="0.48.4 r9939"
   sodipodi:docname="S.svg">
  <defs
     id="defs3002" />
  <sodipodi:namedview
     id="base"
     pagecolor="#ffffff"
     bordercolor="#666666"
     borderopacity="1.0"
     inkscape:pageopacity="0.0"
     inkscape:pageshadow="2"
     inkscape:zoom="0.61860832"
     inkscape:cx="323.42742"
     inkscape:cy="514.45442"
     inkscape:document-units="px"
     inkscape:current-layer="layer1"
     showgrid="false"
     inkscape:window-width="1400"
     inkscape:window-height="881"
     inkscape:window-x="200"
     inkscape:window-y="0"
     inkscape:window-maximized="1"
     fit-margin-top="0"
     fit-margin-left="0"
     fit-margin-right="0"
     fit-margin-bottom="0" />
  <metadata
     id="metadata3005">
    <rdf:RDF>
      <cc:Work
         rdf:about="">
        <dc:format>image/svg+xml</dc:format>
        <dc:type
           rdf:resource="http://purl.org/dc/dcmitype/StillImage" />
        <dc:title />
      </cc:Work>
    </rdf:RDF>
  </metadata>
  <g
     inkscape:label="Calque 1"
     inkscape:groupmode="layer"
     id="layer1"
     transform="translate(-48.61982,-37.685427)">
    <path
       style="fill:none;stroke:#000000;stroke-width:12.59386063px;stroke-linecap:butt;stroke-linejoin:miter;stroke-opacity:1"
       d="M 653.50231,155.31888 C 645.14439,240.90449 601.76534,271.45706 565.75156,313.58365 438.97484,196.97496 342.57173,175.82571 274.29361,243.06962 198.00316,429.74728 389.57511,365.7025 575.15338,487.51821 725.3547,606.89328 699.46587,677.35442 706.7795,757.03842 676.81795,943.60852 625.1748,961.95878 553.21576,998.35303 427.33509,1055.1584 301.45454,1041.1912 175.57399,981.11632 121.4884,938.62123 60.79027,915.96399 54.91675,728.83283 75.33228,677.74571 92.24684,618.7815 128.56464,603.47455 c 34.09158,96.1885 50.28162,204.31133 180.20253,236.6137 140.5709,10.68828 172.33932,-11.88431 199.00616,-51.71026 C 542.19311,692.95418 482.28815,652.5532 418.45553,614.44342 333.34673,578.50369 254.78308,564.38182 158.33728,490.65207 91.65657,440.85406 65.82266,350.20937 103.49303,196.06027 140.69882,103.44817 216.44699,76.357759 294.66431,53.465269 c 53.55089,-5.468299 68.62445,-27.64654 242.88166,23.50468 56.04873,21.7671 93.32467,48.227431 115.95634,78.348931 z"
       id="path2987"
       inkscape:connector-curvature="0"
       sodipodi:nodetypes="ccccccccccccccccc" />
  </g>
</svg>
