<?xml version="1.0" encoding="UTF-8" standalone="no"?>
<!-- Created with Inkscape (http://www.inkscape.org/) -->

<svg
   xmlns:dc="http://purl.org/dc/elements/1.1/"
   xmlns:cc="http://creativecommons.org/ns#"
   xmlns:rdf="http://www.w3.org/1999/02/22-rdf-syntax-ns#"
   xmlns:svg="http://www.w3.org/2000/svg"
   xmlns="http://www.w3.org/2000/svg"
   xmlns:sodipodi="http://sodipodi.sourceforge.net/DTD/sodipodi-0.dtd"
   xmlns:inkscape="http://www.inkscape.org/namespaces/inkscape"
   preserveAspectRatio="xMinYMin meet"
   viewBox="0 0 712.73773 1000"
   width="100%"
   height="100%"
   id="svg3076"
   version="1.1"
   inkscape:version="0.48.4 r9939"
   sodipodi:docname="U.svg">
  <defs
     id="defs3078" />
  <sodipodi:namedview
     id="base"
     pagecolor="#ffffff"
     bordercolor="#666666"
     borderopacity="1.0"
     inkscape:pageopacity="0.0"
     inkscape:pageshadow="2"
     inkscape:zoom="0.41623158"
     inkscape:cx="603.58756"
     inkscape:cy="872.38115"
     inkscape:document-units="px"
     inkscape:current-layer="layer1"
     showgrid="false"
     inkscape:window-width="1600"
     inkscape:window-height="838"
     inkscape:window-x="-8"
     inkscape:window-y="-8"
     inkscape:window-maximized="1"
     fit-margin-top="0"
     fit-margin-left="0"
     fit-margin-right="0"
     fit-margin-bottom="0" />
  <metadata
     id="metadata3081">
    <rdf:RDF>
      <cc:Work
         rdf:about="">
        <dc:format>image/svg+xml</dc:format>
        <dc:type
           rdf:resource="http://purl.org/dc/dcmitype/StillImage" />
        <dc:title />
      </cc:Work>
    </rdf:RDF>
  </metadata>
  <g
     inkscape:label="Calque 1"
     inkscape:groupmode="layer"
     id="layer1"
     transform="translate(-21.481568,-42.812005)">
    <path
       style="fill:none;stroke:#000000;stroke-width:12.81353283px;stroke-linecap:butt;stroke-linejoin:miter;stroke-opacity:1"
       d="M 79.201534,49.218771 275.12454,60.103351 C 248.00214,264.66525 198.90132,466.6415 237.8059,678.97135 285.34365,890.22966 503.18547,831.79124 537.91023,683.63624 561.29852,487.18442 551.28064,281.94161 495.92669,64.768121 l 189.70332,-9.32966 C 719.14121,248.01919 729.42486,430.16302 727.61351,613.66372 708.22487,934.23466 610.65714,957.01565 558.12448,989.96027 421.98915,1060.7535 293.09193,1047.1004 169.3883,972.856 78.36191,904.12664 31.473443,750.43211 27.888334,577.9 c 8.86991,-183.713 0.22551,-383.34784 51.3132,-528.681229 z"
       id="path3063"
       inkscape:connector-curvature="0"
       sodipodi:nodetypes="ccccccccccc" />
    <path
       style="color:#000000;fill:#ff0066;fill-opacity:1;stroke:#000000;stroke-width:0;stroke-linecap:butt;stroke-linejoin:miter;stroke-miterlimit:4;stroke-opacity:1;stroke-dasharray:none;stroke-dashoffset:0;marker:none;visibility:visible;display:inline;overflow:visible;enable-background:accumulate"
       d="M 315.76701,983.38007 C 257.8654,972.75187 236.04834,965.70587 188.43405,942.25681 153.4963,925.05069 149.93085,922.64477 130.73501,903.32237 67.350321,839.51982 29.304749,733.40129 16.544327,584.81626 14.132854,556.73658 14.790615,502.49094 19.035098,379.40177 25.367289,195.76946 33.576665,119.32928 55.415926,40.648033 c 3.48432,-12.553108 7.031211,-23.612103 7.88198,-24.575546 1.490759,-1.688189 178.190014,7.315593 180.161754,9.180216 1.22421,1.157712 -1.83559,23.399622 -16.82567,122.306967 -23.70897,156.43612 -31.18639,232.6571 -31.32711,319.33231 -0.18874,116.25214 12.16936,190.8884 39.8135,240.45223 19.4259,34.82919 58.13479,64.52579 92.38647,70.87692 82.16164,15.23481 164.87898,-37.56035 191.97637,-122.53086 9.56727,-30.00048 13.57939,-91.09104 13.64837,-207.817 0.0401,-67.82278 -1.06693,-118.62661 -3.08864,-141.74802 C 523.26878,228.65279 508.5589,134.7949 492.22224,64.806366 487.76232,45.699433 484.34519,29.84012 484.62859,29.563445 c 1.34817,-1.316138 167.67447,-8.578644 170.61613,-7.449819 1.85341,0.711222 4.04508,5.983265 4.87036,11.715651 0.82531,5.732385 4.7335,32.585663 8.6849,59.673949 20.93909,143.545054 30.34746,289.115454 28.28777,437.680924 -0.97648,70.43442 -2.17766,94.21846 -6.22731,123.30487 -17.46021,125.4067 -44.07424,194.87149 -92.14769,240.51284 -36.20223,34.37073 -107.70099,69.39498 -171.23002,83.87843 -16.38105,3.73458 -97.97894,7.02126 -111.71572,4.49978 l 0,0 z"
       id="path3425"
       inkscape:connector-curvature="0"
       transform="translate(21.481568,42.812005)" />
  </g>
    <script>
	document.getElementById("svg3076").addEventListener("click",sendClickToParentDocument,false);
	function sendClickToParentDocument(evt)
		{
			// SVGElementInstance objects aren't normal DOM nodes, so fetch the corresponding 'use' element instead
			var target = evt.target;
			if(target.correspondingUseElement)
				target = target.correspondingUseElement;
      
      // call a method in the parent document if it exists
      if (window.parent.svgElementClicked)
				window.parent.svgElementClicked(target);
			else
				alert("You clicked '" + target.id + "' which is a " + target.nodeName + " element");
		}
  </script>
  <!--
  <script xlink:href="../../../src/js.js"/>
  <script>
	document.getElementById("svg3020").addEventListener("click",sendClickToParentDocument,false);
	function sendClickToParentDocument(evt)
		{
			// SVGElementInstance objects aren't normal DOM nodes, so fetch the corresponding 'use' element instead
			var target = evt.target;
			if(target.correspondingUseElement)
				target = target.correspondingUseElement;
				
				//svgElementClicked(target);
				top.svgElementClicked(target);
			//	alert("You clicked '" + target.id + "' which is a " + target.nodeName + " element");
		}
  </script>-->
</svg>
