<?xml version="1.0" encoding="UTF-8" standalone="no"?>
<!-- Created with Inkscape (http://www.inkscape.org/) -->

<svg
   xmlns:dc="http://purl.org/dc/elements/1.1/"
   xmlns:cc="http://creativecommons.org/ns#"
   xmlns:rdf="http://www.w3.org/1999/02/22-rdf-syntax-ns#"
   xmlns:svg="http://www.w3.org/2000/svg"
   xmlns="http://www.w3.org/2000/svg"
   xmlns:sodipodi="http://sodipodi.sourceforge.net/DTD/sodipodi-0.dtd"
   xmlns:inkscape="http://www.inkscape.org/namespaces/inkscape"
   preserveAspectRatio="xMinYMin meet"
   viewBox="0 0 1050 1050"
   width="100%"
   height="100%"
   id="svg3114"
   version="1.1"
   inkscape:version="0.48.4 r9939"
   sodipodi:docname="vai.svg">
  <defs
     id="defs3116" />
  <sodipodi:namedview
     id="base"
     pagecolor="#ffffff"
     bordercolor="#666666"
     borderopacity="1.0"
     inkscape:pageopacity="0.0"
     inkscape:pageshadow="2"
     inkscape:zoom="0.63714286"
     inkscape:cx="525"
     inkscape:cy="525"
     inkscape:document-units="px"
     inkscape:current-layer="layer1"
     showgrid="false"
     inkscape:window-width="1600"
     inkscape:window-height="838"
     inkscape:window-x="-8"
     inkscape:window-y="-8"
     inkscape:window-maximized="1"
     fit-margin-top="0"
     fit-margin-left="0"
     fit-margin-right="0"
     fit-margin-bottom="0" />
  <metadata
     id="metadata3119">
    <rdf:RDF>
      <cc:Work
         rdf:about="">
        <dc:format>image/svg+xml</dc:format>
        <dc:type
           rdf:resource="http://purl.org/dc/dcmitype/StillImage" />
        <dc:title />
      </cc:Work>
    </rdf:RDF>
  </metadata>
  <g
     inkscape:label="Calque 1"
     inkscape:groupmode="layer"
     id="layer1"
     transform="translate(-14.352911,9.673148)">
    <path
       style="fill:none;stroke:#000000;stroke-width:13.32715988px;stroke-linecap:butt;stroke-linejoin:miter;stroke-opacity:1"
       d="M 274.44388,6.6940846 72.284604,0.22507669 C -21.473832,168.68878 39.421906,585.77032 52.877318,616.40656 136.67383,823.50836 238.6286,960.24768 356.92487,1033.6633 508.25463,966.12203 568.16228,881.8423 664.20692,684.33203 690.55532,599.89172 773.83557,361.71881 681.99694,-3.0095533 L 476.60316,8.3113366 C 573.2945,188.23705 561.1384,360.90626 529.97324,532.30832 507.82883,655.96731 452.62187,730.0326 387.65303,789.45493 290.10848,734.83304 245.23488,614.3727 216.22192,474.08636 205.39759,315.96348 229.27747,160.51002 274.44388,6.6940846 z"
       id="path3101"
       inkscape:connector-curvature="0"
       sodipodi:nodetypes="ccccccccccc" />
    <path
       style="color:#000000;fill:#ffb380;fill-opacity:1;stroke:#000000;stroke-width:0;stroke-linecap:butt;stroke-linejoin:miter;stroke-miterlimit:4;stroke-opacity:1;stroke-dasharray:none;stroke-dashoffset:0;marker:none;visibility:visible;display:inline;overflow:visible;enable-background:accumulate"
       d="M 343.92812,1015.6152 C 271.52039,967.31699 200.36861,885.21385 140.45493,780.82432 111.42214,730.23957 65.837121,633.46002 57.670874,605.06915 51.092921,582.20016 39.535512,496.18491 34.346962,431.48248 20.149246,254.43361 32.739021,108.51121 69.516227,23.851415 L 76.774225,7.1437691 92.096901,8.2036927 c 8.427469,0.5829568 49.838659,1.9972843 92.024859,3.1429503 42.1862,1.145665 77.37718,2.681376 78.20219,3.412692 0.82502,0.731316 -1.73282,13.257006 -5.68408,27.834869 C 220.79074,174.85698 204.36823,300.3148 206.99754,421.83098 l 1.10945,51.27412 7.05655,30.77937 c 14.70876,64.15685 31.68079,115.77682 51.76021,157.42715 18.95306,39.31395 35.37453,63.94898 59.89975,89.85988 17.97586,18.99152 54.66491,46.59866 61.9282,46.59866 3.56478,0 42.17685,-39.9581 59.09463,-61.15467 41.54286,-52.0498 69.12557,-110.06081 83.95622,-176.57386 10.26196,-46.02314 22.10357,-128.62727 26.01268,-181.45783 9.43794,-127.55159 -12.52981,-250.38203 -62.58475,-349.936393 l -7.01545,-13.953035 6.12327,0 c 3.36779,0 42.10689,-2.039697 86.0869,-4.532658 43.97997,-2.4929627 83.54374,-4.2990309 87.91946,-4.0134866 l 7.95586,0.5191714 5.81876,24.9728042 c 13.08927,56.176124 24.37585,127.801967 30.21624,191.755457 3.7883,41.48278 4.35331,151.82318 0.95448,186.40414 -9.76445,99.34732 -22.12514,161.70924 -49.67512,250.61993 -12.09172,39.02302 -70.36901,148.618 -106.91516,201.06222 -25.94092,37.22562 -60.36484,74.69899 -90.92662,98.98139 -19.64305,15.6071 -50.95707,35.52138 -77.40948,49.22886 -13.2445,6.8632 -25.72436,12.9622 -27.73301,13.5533 -2.56294,0.7542 -7.54414,-1.5214 -16.70249,-7.6303 l 0,0 z"
       id="path3447"
       inkscape:connector-curvature="0" />
  </g>
  <script
     id="script3334">
	document.getElementById(&quot;svg3114&quot;).addEventListener(&quot;click&quot;,sendClickToParentDocument,false);
	function sendClickToParentDocument(evt)
		{
			// SVGElementInstance objects aren't normal DOM nodes, so fetch the corresponding 'use' element instead
			var target = evt.target;
			if(target.correspondingUseElement)
				target = target.correspondingUseElement;
      
      // call a method in the parent document if it exists
      if (window.parent.svgElementClicked)
				window.parent.svgElementClicked(target);
			else
				alert(&quot;You clicked '&quot; + target.id + &quot;' which is a &quot; + target.nodeName + &quot; element&quot;);
		}
  </script>
  <!--
  <script xlink:href="../../../src/js.js"/>
  <script>
	document.getElementById("svg3020").addEventListener("click",sendClickToParentDocument,false);
	function sendClickToParentDocument(evt)
		{
			// SVGElementInstance objects aren't normal DOM nodes, so fetch the corresponding 'use' element instead
			var target = evt.target;
			if(target.correspondingUseElement)
				target = target.correspondingUseElement;
				
				//svgElementClicked(target);
				top.svgElementClicked(target);
			//	alert("You clicked '" + target.id + "' which is a " + target.nodeName + " element");
		}
  </script>-->
</svg>
