<?xml version="1.0" encoding="UTF-8" standalone="no"?>
<!-- Created with Inkscape (http://www.inkscape.org/) -->

<svg
   xmlns:dc="http://purl.org/dc/elements/1.1/"
   xmlns:cc="http://creativecommons.org/ns#"
   xmlns:rdf="http://www.w3.org/1999/02/22-rdf-syntax-ns#"
   xmlns:svg="http://www.w3.org/2000/svg"
   xmlns="http://www.w3.org/2000/svg"
   xmlns:sodipodi="http://sodipodi.sourceforge.net/DTD/sodipodi-0.dtd"
   xmlns:inkscape="http://www.inkscape.org/namespaces/inkscape"
   preserveAspectRatio="xMinYMin meet"
   viewBox="0 0 682.26062 1000"
   width="100%"
   height="100%"
   id="svg3114"
   version="1.1"
   inkscape:version="0.48.4 r9939"
   sodipodi:docname="V.svg">
  <defs
     id="defs3116" />
  <sodipodi:namedview
     id="base"
     pagecolor="#ffffff"
     bordercolor="#666666"
     borderopacity="1.0"
     inkscape:pageopacity="0.0"
     inkscape:pageshadow="2"
     inkscape:zoom="0.58864034"
     inkscape:cx="498.56265"
     inkscape:cy="453.21338"
     inkscape:document-units="px"
     inkscape:current-layer="layer1"
     showgrid="false"
     inkscape:window-width="1600"
     inkscape:window-height="838"
     inkscape:window-x="-8"
     inkscape:window-y="-8"
     inkscape:window-maximized="1"
     fit-margin-top="0"
     fit-margin-left="0"
     fit-margin-right="0"
     fit-margin-bottom="0" />
  <metadata
     id="metadata3119">
    <rdf:RDF>
      <cc:Work
         rdf:about="">
        <dc:format>image/svg+xml</dc:format>
        <dc:type
           rdf:resource="http://purl.org/dc/dcmitype/StillImage" />
        <dc:title />
      </cc:Work>
    </rdf:RDF>
  </metadata>
  <g
     inkscape:label="Calque 1"
     inkscape:groupmode="layer"
     id="layer1"
     transform="translate(-14.352911,-40.326852)">
    <path
       style="fill:none;stroke:#000000;stroke-width:12.69253349px;stroke-linecap:butt;stroke-linejoin:miter;stroke-opacity:1"
       d="M 262.0586,55.914679 69.525953,49.753719 C -19.767797,210.19534 38.228145,607.41586 51.042823,636.59324 130.84903,833.83305 227.94881,964.06097 340.61192,1033.9806 484.73551,969.65559 541.79041,889.38918 633.2615,701.28416 658.35521,620.86482 737.66974,394.03347 650.20438,46.673119 l -195.61313,10.7818 C 546.67824,228.81274 535.101,393.25961 505.4199,556.49967 484.32998,674.27014 431.75193,744.80851 369.87684,801.40121 276.97727,749.38036 234.2405,634.65623 206.60911,501.05019 196.30023,350.45696 219.04297,202.40605 262.0586,55.914679 z"
       id="path3101"
       inkscape:connector-curvature="0"
       sodipodi:nodetypes="ccccccccccc" />
    <path
       style="color:#000000;fill:#ffb380;fill-opacity:1;stroke:#000000;stroke-width:0;stroke-linecap:butt;stroke-linejoin:miter;stroke-miterlimit:4;stroke-opacity:1;stroke-dasharray:none;stroke-dashoffset:0;marker:none;visibility:visible;display:inline;overflow:visible;enable-background:accumulate"
       d="M 313.88116,976.46506 C 244.92141,930.4668 177.15781,852.27333 120.09716,752.85473 92.446888,704.67878 49.032582,612.50777 41.255203,585.46885 34.990486,563.68886 23.98343,481.76957 19.041954,420.14821 5.5203189,251.53024 17.510581,112.55652 52.536492,31.928142 l 6.912379,-15.912044 14.593025,1.009451 c 8.026164,0.555197 47.465394,1.902176 87.642724,2.993286 40.17733,1.09111 73.69255,2.553692 74.47828,3.250183 0.78573,0.696491 -1.65031,12.62572 -5.41341,26.509399 C 196.60746,175.74297 180.96697,295.22661 183.47108,410.9563 l 1.05662,48.8325 6.72052,29.31369 c 14.00834,61.10176 30.17218,110.26364 49.29544,149.93062 18.05053,37.44186 33.69003,60.90379 57.04738,85.58084 17.11987,18.08716 52.06182,44.37967 58.97924,44.37967 3.39503,0 40.16843,-38.05533 56.2806,-58.24254 39.56463,-49.57124 65.83388,-104.81982 79.95831,-168.16558 9.77329,-43.83157 21.05102,-122.50217 24.77398,-172.81699 8.98851,-121.4777 -11.93315,-238.45908 -59.60453,-333.272757 l -6.68138,-13.288605 5.83169,0 c 3.20742,0 40.1018,-1.942568 81.98752,-4.316817 41.88569,-2.37425 79.56547,-4.094315 83.73282,-3.822368 l 7.57701,0.494449 5.54168,23.783623 c 12.46597,53.501072 23.2151,121.716165 28.77737,182.624245 3.60791,39.50741 4.14601,144.59351 0.90903,177.52776 -9.29948,94.61649 -21.07156,154.0088 -47.30964,238.68565 -11.51592,37.16478 -67.0181,141.54095 -101.82396,191.48783 -24.70564,35.45297 -57.49033,71.1419 -86.59678,94.26799 -18.70767,14.86391 -48.53055,33.82989 -73.72332,46.88465 -12.61381,6.5364 -24.49939,12.34494 -26.41239,12.90788 -2.4409,0.71825 -7.1849,-1.44898 -15.90713,-7.26698 l 0,0 z"
       id="path3447"
       inkscape:connector-curvature="0"
       transform="translate(14.352911,40.326852)" />
  </g>
    <script>
	document.getElementById("svg3020").addEventListener("click",sendClickToParentDocument,false);
	function sendClickToParentDocument(evt)
		{
			// SVGElementInstance objects aren't normal DOM nodes, so fetch the corresponding 'use' element instead
			var target = evt.target;
			if(target.correspondingUseElement)
				target = target.correspondingUseElement;
      
      // call a method in the parent document if it exists
      if (window.parent.svgElementClicked)
				window.parent.svgElementClicked(target);
			else
				alert("You clicked '" + target.id + "' which is a " + target.nodeName + " element");
		}
  </script>
  <!--
  <script xlink:href="../../../src/js.js"/>
  <script>
	document.getElementById("svg3020").addEventListener("click",sendClickToParentDocument,false);
	function sendClickToParentDocument(evt)
		{
			// SVGElementInstance objects aren't normal DOM nodes, so fetch the corresponding 'use' element instead
			var target = evt.target;
			if(target.correspondingUseElement)
				target = target.correspondingUseElement;
				
				//svgElementClicked(target);
				top.svgElementClicked(target);
			//	alert("You clicked '" + target.id + "' which is a " + target.nodeName + " element");
		}
  </script>-->
</svg>
