<?xml version="1.0" encoding="UTF-8" standalone="no"?>
<!-- Created with Inkscape (http://www.inkscape.org/) -->

<svg
   xmlns:dc="http://purl.org/dc/elements/1.1/"
   xmlns:cc="http://creativecommons.org/ns#"
   xmlns:rdf="http://www.w3.org/1999/02/22-rdf-syntax-ns#"
   xmlns:svg="http://www.w3.org/2000/svg"
   xmlns="http://www.w3.org/2000/svg"
   xmlns:sodipodi="http://sodipodi.sourceforge.net/DTD/sodipodi-0.dtd"
   xmlns:inkscape="http://www.inkscape.org/namespaces/inkscape"
   preserveAspectRatio="xMinYMin meet"
   viewBox="0 0 700 741.86938"
   width="100%"
   height="100%"
   id="svg3152"
   version="1.1"
   inkscape:version="0.48.4 r9939"
   sodipodi:docname="W.svg">
  <defs
     id="defs3154" />
  <sodipodi:namedview
     id="base"
     pagecolor="#ffffff"
     bordercolor="#666666"
     borderopacity="1.0"
     inkscape:pageopacity="0.0"
     inkscape:pageshadow="2"
     inkscape:zoom="0.47099609"
     inkscape:cx="509.83171"
     inkscape:cy="304.6791"
     inkscape:document-units="px"
     inkscape:current-layer="layer1"
     showgrid="false"
     inkscape:window-width="1600"
     inkscape:window-height="838"
     inkscape:window-x="-8"
     inkscape:window-y="-8"
     inkscape:window-maximized="1"
     fit-margin-top="0"
     fit-margin-left="0"
     fit-margin-right="0"
     fit-margin-bottom="0" />
  <metadata
     id="metadata3157">
    <rdf:RDF>
      <cc:Work
         rdf:about="">
        <dc:format>image/svg+xml</dc:format>
        <dc:type
           rdf:resource="http://purl.org/dc/dcmitype/StillImage" />
        <dc:title />
      </cc:Work>
    </rdf:RDF>
  </metadata>
  <g
     inkscape:label="Calque 1"
     inkscape:groupmode="layer"
     id="layer1"
     transform="translate(-15.144625,-263.98977)">
    <path
       style="fill:none;stroke:#000000;stroke-width:9.4599123px;stroke-linecap:butt;stroke-linejoin:miter;stroke-opacity:1"
       d="m 27.73843,276.75555 153.82897,1.14796 c -5.84878,176.30023 -33.55592,372.77751 35.58725,479.85445 121.49384,-46.98909 80.94222,-301.72884 92.98621,-489.03823 l 137.75723,2.29593 c 2.47254,193.50147 -19.90205,431.37286 63.13867,481.0024 109.25784,-79.76126 64.7286,-301.16861 66.58274,-479.85445 l 127.42538,2.29602 C 725.61378,545.82119 693.14703,799.75676 500.70502,1001.1292 453.34066,982.81164 401.5991,863.819 351.468,781.8655 302.14458,858.83343 256.98646,981.61864 202.23097,998.83314 -41.1829,758.14061 30.329503,324.58799 27.73843,276.75555 z"
       id="path3139"
       inkscape:connector-curvature="0"
       sodipodi:nodetypes="cccccccccccc" />
    <path
       style="color:#000000;fill:#37c8ab;fill-opacity:1;stroke:#000000;stroke-width:0;stroke-linecap:butt;stroke-linejoin:miter;stroke-miterlimit:4;stroke-opacity:1;stroke-dasharray:none;stroke-dashoffset:0;marker:none;visibility:visible;display:inline;overflow:visible;enable-background:accumulate"
       d="m 474.88813,723.67556 c -19.23616,-13.93867 -44.19028,-50.4684 -87.21571,-127.67293 -44.0323,-79.01123 -50.57532,-89.70531 -52.98044,-86.59239 -5.06537,6.556 -25.53363,42.64052 -51.5265,90.83871 -40.74435,75.55161 -64.97723,110.10402 -86.5866,123.45933 l -7.17256,4.43288 -5.42515,-5.02841 C 162.21429,702.93764 118.99286,642.85476 98.652056,604.49527 55.865886,523.80738 28.742368,426.68027 16.237673,309.37605 11.465695,264.61101 10.984206,132.48646 15.345957,64.681879 l 2.970597,-46.178727 68.155257,0.03251 c 37.485389,0.01788 69.486799,0.875669 71.114239,1.906194 3.10583,1.966666 3.28521,-4.175667 -4.12875,141.374584 -3.13008,61.44962 -2.60874,158.63406 1.0316,192.29996 5.57923,51.59693 15.98328,91.74987 32.05966,123.72971 12.92597,25.71291 11.49052,24.88176 28.0999,16.2702 36.91459,-19.13931 62.29026,-64.63049 73.4426,-131.66126 7.07798,-42.54201 8.16139,-65.8249 9.6035,-206.38412 0.8112,-79.062993 1.9149,-144.149522 2.45272,-144.636731 0.5378,-0.487209 29.3637,-0.39681 64.05754,0.200887 l 63.07973,1.08672 -0.3138,139.303694 c -0.31673,140.60328 0.57117,164.37685 8.09712,216.79903 8.59432,59.86408 30.58305,109.07963 54.48251,121.94366 l 7.63261,4.10832 9.90021,-8.11249 c 29.48806,-24.16326 51.10085,-68.36923 60.64751,-124.04606 2.32741,-13.57357 5.31938,-42.77929 6.64882,-64.90156 2.31694,-38.55418 1.03963,-95.41753 -5.79285,-257.882229 l -1.10771,-26.340074 57.83918,1.501601 c 31.81154,0.825881 58.12345,1.785877 58.47089,2.133324 2.76847,2.768462 5.11344,84.590828 4.20462,146.710578 -1.61154,110.15334 -10.53576,179.01253 -34.25782,264.3334 -29.7484,106.99567 -85.74504,209.33923 -157.78235,288.37456 l -12.23664,13.42536 -8.82872,-6.39736 0,0 z"
       id="path3475"
       inkscape:connector-curvature="0"
       transform="translate(15.144625,263.98977)" />
  </g>
    <script>
	document.getElementById("svg3020").addEventListener("click",sendClickToParentDocument,false);
	function sendClickToParentDocument(evt)
		{
			// SVGElementInstance objects aren't normal DOM nodes, so fetch the corresponding 'use' element instead
			var target = evt.target;
			if(target.correspondingUseElement)
				target = target.correspondingUseElement;
      
      // call a method in the parent document if it exists
      if (window.parent.svgElementClicked)
				window.parent.svgElementClicked(target);
			else
				alert("You clicked '" + target.id + "' which is a " + target.nodeName + " element");
		}
  </script>
  <!--
  <script xlink:href="../../../src/js.js"/>
  <script>
	document.getElementById("svg3020").addEventListener("click",sendClickToParentDocument,false);
	function sendClickToParentDocument(evt)
		{
			// SVGElementInstance objects aren't normal DOM nodes, so fetch the corresponding 'use' element instead
			var target = evt.target;
			if(target.correspondingUseElement)
				target = target.correspondingUseElement;
				
				//svgElementClicked(target);
				top.svgElementClicked(target);
			//	alert("You clicked '" + target.id + "' which is a " + target.nodeName + " element");
		}
  </script>-->
</svg>
