<?xml version="1.0" encoding="UTF-8" standalone="no"?>
<!-- Created with Inkscape (http://www.inkscape.org/) -->

<svg
   xmlns:dc="http://purl.org/dc/elements/1.1/"
   xmlns:cc="http://creativecommons.org/ns#"
   xmlns:rdf="http://www.w3.org/1999/02/22-rdf-syntax-ns#"
   xmlns:svg="http://www.w3.org/2000/svg"
   xmlns="http://www.w3.org/2000/svg"
   xmlns:sodipodi="http://sodipodi.sourceforge.net/DTD/sodipodi-0.dtd"
   xmlns:inkscape="http://www.inkscape.org/namespaces/inkscape"
   preserveAspectRatio="xMinYMin meet"
   viewBox="0 0 698.55621 699.63153"
   width="100%"
   height="100%"
   id="svg3045"
   version="1.1"
   inkscape:version="0.48.4 r9939"
   sodipodi:docname="soleil_content_1.svg">
  <defs
     id="defs3047" />
  <sodipodi:namedview
     id="base"
     pagecolor="#ffffff"
     bordercolor="#666666"
     borderopacity="1.0"
     inkscape:pageopacity="0.0"
     inkscape:pageshadow="2"
     inkscape:zoom="0.95621763"
     inkscape:cx="349.2781"
     inkscape:cy="349.81576"
     inkscape:document-units="px"
     inkscape:current-layer="layer1"
     showgrid="false"
     inkscape:window-width="1600"
     inkscape:window-height="838"
     inkscape:window-x="-8"
     inkscape:window-y="-8"
     inkscape:window-maximized="1"
     fit-margin-top="0"
     fit-margin-left="0"
     fit-margin-right="0"
     fit-margin-bottom="0" />
  <metadata
     id="metadata3050">
    <rdf:RDF>
      <cc:Work
         rdf:about="">
        <dc:format>image/svg+xml</dc:format>
        <dc:type
           rdf:resource="http://purl.org/dc/dcmitype/StillImage" />
        <dc:title />
      </cc:Work>
    </rdf:RDF>
  </metadata>
  <g
     inkscape:label="Calque 1"
     inkscape:groupmode="layer"
     id="layer1"
     transform="translate(-24.318169,-221.53883)">
    <path
       style="fill:none;stroke:#000000;stroke-width:3.93258451999999980px;stroke-linecap:butt;stroke-linejoin:miter;stroke-opacity:1"
       d="m 199.13522,622.64985 c 109.99037,64.00567 492.96639,-45.35084 376.61161,-80.86514"
       id="path3016"
       inkscape:connector-curvature="0"
       sodipodi:nodetypes="cc" />
    <path
       style="fill:none;stroke:#000000;stroke-width:3.93258451999999980px;stroke-linecap:butt;stroke-linejoin:miter;stroke-opacity:1"
       d="m 211.11084,600.46484 c -9.64907,12.04913 -15.90018,14.81546 -13.97848,55.91399"
       id="path3018"
       inkscape:connector-curvature="0"
       sodipodi:nodetypes="cc" />
    <path
       style="fill:none;stroke:#000000;stroke-width:3.93258451999999980px;stroke-linecap:butt;stroke-linejoin:miter;stroke-opacity:1"
       d="m 371.44577,674.04278 c 35.28755,8.20121 153.0478,-0.85879 126.88172,-32.25808"
       id="path3020"
       inkscape:connector-curvature="0"
       sodipodi:nodetypes="cc" />
    <path
       style="fill:none;stroke:#000000;stroke-width:3.93258451999999980px;stroke-linecap:butt;stroke-linejoin:miter;stroke-opacity:1"
       d="m 177.89737,526.73093 c 37.32425,-56.84452 75.86231,-110.04755 144.08604,-74.19355"
       id="path3022"
       inkscape:connector-curvature="0"
       sodipodi:nodetypes="cc" />
    <path
       style="fill:none;stroke:#000000;stroke-width:3.93258451999999980px;stroke-linecap:butt;stroke-linejoin:miter;stroke-opacity:1"
       d="m 459.61781,425.65569 c 30.93406,-13.88301 62.15626,-34.10452 90.32256,12.9032"
       id="path3024"
       inkscape:connector-curvature="0"
       sodipodi:nodetypes="cc" />
    <g
       id="g3072"
       style="fill:none;stroke:#000000;stroke-opacity:1">
      <path
         sodipodi:nodetypes="ccccccccccccccccc"
         inkscape:connector-curvature="0"
         id="path3026"
         d="M 53.166188,708.45137 C 87.84486,654.4919 68.742018,610.49195 26.284461,570.81697 63.741974,546.49075 86.164468,510.88824 55.316728,435.33308 139.43403,419.61033 124.01897,369.56611 129.51028,326.73094 c 43.93203,1.33583 88.69908,5.36216 107.52687,-74.19355 47.34953,24.70257 92.77934,23.48874 134.40862,-29.03227 59.41812,64.45263 99.56752,56.11221 133.33332,23.65592 22.90404,71.99263 64.31081,86.42129 112.90323,78.49462 0.9703,66.48623 23.41816,105.17802 73.11832,108.60217 -5.21694,39.50088 -44.60366,55.89948 30.10746,136.55914 -50.2071,33.95995 -49.92663,81.51272 -25.80648,135.48386 -43.13419,19.04598 -87.94076,36.33598 -75.26876,113.97849 -43.55778,-5.88315 -86.42412,-9.08707 -107.52688,72.04301 -70.13146,-34.98899 -106.06624,-8.91246 -136.55915,26.88173 -63.23477,-63.18098 -99.2401,-44.67373 -134.40861,-23.65591 -43.42552,-101.2922 -76.53245,-75.32228 -111.82794,-76.34408 2.13582,-50.7095 -4.93013,-96.8181 -76.344092,-110.7527 z"
         style="fill:none;stroke:#000000;stroke-width:3.93258451999999980px;stroke-linecap:butt;stroke-linejoin:miter;stroke-opacity:1" />
    </g>
    <path
       style="color:#000000;fill:#ffcc00;fill-opacity:1;stroke:#000000;stroke-width:4;marker:none;visibility:visible;display:inline;overflow:visible;enable-background:accumulate;stroke-opacity:1;stroke-miterlimit:4;stroke-dasharray:none"
       d="m 342.1886,685.6807 c -20.19481,-18.13046 -38.67235,-28.54546 -57.91066,-32.64175 -3.15956,-0.67275 -8.98409,-0.89535 -15.87607,-0.60676 -8.97236,0.37568 -12.36867,0.93791 -19.32321,3.19873 -7.34529,2.38785 -18.05959,7.34935 -28.05432,12.9912 -1.80553,1.01919 -3.11071,1.31935 -3.319,0.76329 -0.1888,-0.50403 -3.14425,-6.65601 -6.56766,-13.67106 -18.51706,-37.94401 -36.65407,-56.79249 -59.00108,-61.31554 -7.56602,-1.53136 -11.41128,-1.51261 -35.96154,0.17542 l -8.15854,0.56096 -0.009,-9.16288 c -0.0474,-47.69452 -13.620431,-74.76281 -45.414129,-90.5679 -6.563078,-3.2626 -19.975336,-7.9922 -26.727342,-9.42491 -1.602279,-0.34 -2.789209,-0.8797 -2.637625,-1.19934 0.151585,-0.31963 2.543572,-5.14553 5.315528,-10.7242 13.588119,-27.34666 13.846168,-55.36641 0.74753,-81.16909 -6.369707,-12.54753 -14.74105,-24.04566 -26.583345,-36.51253 -3.3671019,-3.54467 -6.1220037,-6.62916 -6.1220037,-6.8544 0,-0.22524 1.8619146,-1.74665 4.1375877,-3.38092 14.358247,-10.31131 26.024796,-24.59754 31.503497,-38.57749 8.487837,-21.65834 7.188414,-48.67468 -3.885868,-80.79132 -1.964905,-5.69843 -3.37357,-10.68276 -3.130367,-11.07626 0.243203,-0.39352 2.058354,-0.97391 4.033667,-1.28979 5.986768,-0.95731 20.277357,-5.8357 27.758762,-9.47602 20.98621,-10.21151 32.223957,-25.21862 36.568748,-48.83465 0.79593,-4.3262 3.4755,-39.08565 3.54386,-45.97097 0.0183,-1.83499 0.39378,-1.88006 19.64317,-2.35739 13.46584,-0.33392 21.70057,-0.94779 26.23962,-1.95608 20.78938,-4.61812 35.32839,-14.993041 46.18356,-32.956256 4.70744,-7.789904 10.48288,-21.476973 13.07193,-30.978829 0.99136,-3.638267 1.89335,-6.717767 2.00443,-6.843333 0.11108,-0.125566 2.94369,1.01491 6.29469,2.534389 20.57628,9.330128 41.58334,12.974072 60.01528,10.410424 20.30112,-2.823627 37.28716,-12.182871 55.99026,-30.850432 l 11.12837,-11.1072148 7.83472,7.8971798 c 17.82672,17.96883 36.79454,30.524626 54.58094,36.129997 5.14154,1.62035 8.23902,1.945353 18.52209,1.94343 11.26303,-0.0021 12.96692,-0.219655 19.39107,-2.475781 8.13068,-2.85545 18.43367,-8.754618 26.0421,-14.910884 4.6028,-3.724294 5.37399,-4.079586 5.8562,-2.697968 2.52165,7.224922 8.23306,20.127373 11.90889,26.902961 11.22906,20.698317 23.98208,33.475392 41.64582,41.724387 13.0665,6.10208 18.38282,7.05215 39.46179,7.05215 l 18.1793,0 0.5768,10.79595 c 2.19778,41.13536 15.96899,71.5192 38.91696,85.86368 7.68973,4.80674 18.59899,8.6252 28.84478,10.09625 4.08721,0.58683 4.14093,0.63672 3.62629,3.36815 -0.28731,1.52487 -3.00315,9.7653 -6.03521,18.31207 -6.66794,18.79557 -7.47277,22.33605 -7.47277,32.87297 0,21.1924 11.95698,44.50039 37.73636,73.56024 3.13741,3.53664 5.55508,6.54255 5.3726,6.67979 -18.35602,13.80543 -27.82255,25.26968 -34.32964,41.5742 -3.87727,9.71512 -5.41712,18.82102 -5.34451,31.6047 0.0976,17.19195 2.99284,31.12654 10.73686,51.67668 1.91316,5.07693 3.17853,9.48144 2.81194,9.7878 -0.36659,0.30636 -3.2464,1.67523 -6.39956,3.04192 -21.54889,9.34009 -36.63341,18.54849 -46.63404,28.46794 -17.08029,16.94162 -22.84075,33.89354 -21.95969,64.62322 l 0.45963,16.03102 -3.19762,-0.51813 c -7.36155,-1.19285 -32.50526,-1.59963 -38.73382,-0.62665 -22.67392,3.54199 -39.03766,16.17369 -51.09347,39.44073 -3.94923,7.62178 -8.99254,20.32957 -10.81306,27.24602 -0.63843,2.42551 -1.41296,4.70085 -1.72115,5.05632 -0.3082,0.35545 -3.12723,-0.56807 -6.26451,-2.0523 -9.06413,-4.28818 -25.1993,-9.32686 -35.16578,-10.98155 -11.94106,-1.98251 -29.23202,-1.38951 -38.89367,1.33388 -15.6653,4.41569 -31.42846,14.65238 -46.099,29.93698 -4.69824,4.8949 -8.65115,8.88276 -8.78425,8.8619 -0.1331,-0.0208 -4.21102,-3.60121 -9.06204,-7.95635 z m 68.79632,-229.29616 c 39.98298,-3.38156 66.60435,-13.1114 68.86656,-25.17002 0.67388,-3.59212 -0.88997,-9.35242 -3.07373,-11.32175 -1.2226,-1.10254 -1.6324,-1.10277 -3.13369,-0.002 -1.65341,1.21261 -1.66282,1.37564 -0.22051,3.81728 0.82867,1.40282 1.50666,3.72574 1.50666,5.16205 0,8.73997 -17.50785,16.27397 -48.70818,20.96019 -20.89657,3.13862 -59.9611,3.81669 -73.31522,1.27258 -5.7172,-1.08919 -5.42091,-1.16014 -6.23548,1.49307 -0.69331,2.25827 0.28585,2.69128 8.49805,3.75811 8.08844,1.05075 43.52201,1.06993 55.81554,0.0302 l 0,8e-5 z M 175.05854,423.12022 c 0.005,-6.67015 0.25277,-13.5978 0.54986,-15.39476 l 0.54016,-3.26721 4.26173,2.15958 c 21.14061,10.71276 54.50511,16.25384 97.98335,16.27279 24.01457,0.0105 39.88884,-0.93223 67.60153,-4.01454 103.93393,-11.55991 214.0342,-47.70272 227.50984,-74.68506 5.0366,-10.08484 0.58366,-17.33284 -14.50884,-23.61585 -5.35203,-2.22807 -6.84209,-2.55003 -7.43953,-1.6075 -1.61129,2.542 -0.76693,3.98848 2.97444,5.09555 6.18763,1.8309 13.52359,6.75618 15.14162,10.16593 1.27322,2.68313 1.29835,3.40643 0.20895,6.01373 -9.57268,22.91064 -98.87151,55.07874 -193.73589,69.78946 -36.86246,5.71629 -64.1085,7.95326 -97.02045,7.96562 -42.49225,0.016 -68.60334,-3.96721 -92.71027,-14.14266 l -9.45933,-3.99276 1.26241,-3.69597 c 0.69431,-2.03279 3.22759,-6.27585 5.6295,-9.42902 2.40191,-3.15316 4.38154,-6.13367 4.39919,-6.62336 0.0176,-0.48969 -0.70466,-1.35045 -1.6051,-1.91279 -1.40983,-0.88045 -2.05836,-0.51183 -4.67,2.65435 -5.19152,6.2939 -6.71954,8.86188 -8.60702,14.46476 -2.26031,6.70962 -3.82921,23.65629 -3.0524,32.97088 0.54665,6.5548 0.70011,6.95639 2.65834,6.95639 l 2.0782,0 0.01,-12.12756 1e-5,0 z M 163.26246,295.22963 c 9.87252,-14.35061 18.84709,-26.57082 24.45248,-33.29565 32.76852,-39.31273 64.687,-49.10888 102.73378,-31.5302 6.60048,3.04962 8.02494,2.97411 8.06718,-0.42759 0.0313,-2.52154 -19.04528,-9.92408 -30.22037,-11.72681 -9.39868,-1.51618 -24.84449,-0.65179 -32.82942,1.83722 -24.91799,7.76725 -46.77766,28.52506 -76.52263,72.66545 -7.03548,10.44038 -7.61442,11.61078 -6.24027,12.61558 0.83307,0.60915 1.80902,1.10755 2.16877,1.10755 0.35975,0 4.13547,-5.06049 8.39048,-11.24555 l 0,0 z m 363.2238,-78.13867 c 1.52928,-1.11824 1.40723,-1.49561 -2.2032,-6.81221 -6.19638,-9.12457 -14.55108,-16.85034 -22.4365,-20.74753 -6.41617,-3.17104 -7.55948,-3.43943 -15.97976,-3.75112 -7.81247,-0.2892 -10.20684,-0.0106 -17.27941,2.01066 -6.94592,1.98506 -29.35055,11.17676 -33.22124,13.62933 -1.33647,0.84683 -0.6059,4.50663 0.8996,4.50663 0.49877,0 6.12787,-2.33604 12.50913,-5.19119 21.77676,-9.74355 33.06125,-12.17617 43.79541,-9.44106 10.21013,2.60159 19.65501,10.25533 28.12433,22.79079 3.09594,4.58232 3.41152,4.74609 5.79164,3.0057 l 0,0 z"
       id="path3765"
       inkscape:connector-curvature="0"
       transform="translate(24.318169,221.53883)" />
    <path
       style="color:#000000;fill:#ff6600;fill-opacity:1;stroke:none;stroke-width:2;marker:none;visibility:visible;display:inline;overflow:visible;enable-background:accumulate"
       d="m 339.55229,680.36157 c -16.55859,-14.16478 -31.05257,-22.76559 -46.58257,-27.64233 -6.51917,-2.04717 -10.02842,-2.44656 -21.39359,-2.43486 -12.15836,0.0125 -14.58188,0.33589 -22.93063,3.05953 -5.13446,1.67504 -13.78548,5.33186 -19.22447,8.12628 -5.439,2.79441 -10.00019,4.94715 -10.13599,4.78388 -0.13579,-0.16328 -3.58297,-6.88534 -7.66041,-14.9379 -10.15832,-20.06174 -16.75533,-29.73266 -27.85147,-40.82898 -10.35856,-10.35872 -17.89418,-15.01302 -28.92036,-17.86231 -5.55369,-1.43513 -9.89647,-1.61648 -25.76516,-1.07588 l -19.08561,0.65018 0,-11.41297 c 0,-49.97107 -19.225178,-79.31711 -61.178542,-93.38525 -5.751828,-1.92874 -10.678357,-3.72049 -10.94784,-3.98165 -0.269484,-0.26117 1.503614,-5.02055 3.940217,-10.57638 6.966878,-15.8856 8.844186,-24.2697 8.978068,-40.09625 0.09431,-11.14836 -0.313848,-15.16586 -2.267779,-22.32191 C 43.953645,393.6785 33.708523,376.07945 18.600569,359.01869 l -7.871715,-8.88919 9.920115,-9.25753 c 15.211173,-14.19517 22.472105,-25.48333 26.774251,-41.6244 1.889741,-7.09005 2.320216,-11.47546 2.293907,-23.36895 -0.03545,-16.02582 -1.902665,-27.20947 -7.672291,-45.95302 -1.735978,-5.63961 -3.156325,-10.832 -3.156325,-11.53867 0,-0.70666 3.17499,-2.14427 7.055533,-3.19469 24.593625,-6.65718 41.594284,-17.81142 50.958907,-33.43445 7.261819,-12.11492 10.011259,-25.38453 11.663549,-56.29173 0.39191,-7.33106 1.12584,-13.58461 1.63094,-13.89678 0.50511,-0.31217 9.55594,-0.97426 20.11295,-1.4713 26.13446,-1.23047 37.87665,-4.45705 51.4384,-14.134519 12.943,-9.23593 24.40939,-26.959509 31.26606,-48.327861 1.52265,-4.745259 3.12276,-8.627743 3.55579,-8.627743 0.43304,0 4.88909,1.610286 9.90237,3.578413 14.54817,5.711372 28.33504,8.358628 43.01154,8.258765 26.27955,-0.178811 44.19741,-8.473239 69.02195,-31.951229 l 9.41208,-8.9015454 9.41209,8.9565064 c 12.62342,12.012407 25.01249,21.01857 37.64833,27.368235 26.36034,13.246395 52.69143,10.927037 76.7139,-6.757292 l 6.558,-4.827727 1.73952,4.490957 c 0.95674,2.470027 3.97921,9.095176 6.71662,14.722553 13.77779,28.323507 30.89409,44.449488 56.2946,53.037517 5.63077,1.90378 9.98381,2.37815 26.178,2.85271 l 19.42416,0.5692 1.22418,13.71491 c 4.64541,52.044 25.46874,82.7209 61.89174,91.17881 4.31387,1.00173 8.00139,1.94467 8.19449,2.09541 0.1931,0.15075 -2.39443,8.4301 -5.75007,18.39856 l -6.10116,18.12448 -0.002,14.11813 c -0.001,12.07909 0.35501,15.1754 2.46844,21.43863 5.07627,15.04368 15.17631,31.448 30.55221,49.62235 3.98222,4.707 7.2404,8.75367 7.2404,8.9926 0,0.23895 -5.06538,5.50189 -11.25639,11.69544 -20.72329,20.73177 -27.27314,37.61621 -26.07249,67.21061 0.61097,15.05953 2.94277,26.50575 9.04114,44.38068 1.75387,5.14074 3.18885,9.71375 3.18885,10.16223 0,0.44848 -6.25934,3.8679 -13.90965,7.59873 -18.46593,9.00526 -28.89225,15.95611 -38.37972,25.58639 -16.60182,16.85169 -21.96314,32.53709 -21.96026,64.24821 l 0.001,13.781 -19.87138,-0.32483 c -17.51946,-0.28639 -20.80873,-0.0677 -27.79117,1.84793 -4.35588,1.19502 -9.66223,3.0617 -11.7919,4.14817 -7.43276,3.79191 -16.98138,11.85262 -22.82984,19.2724 -6.25738,7.93858 -15.25141,25.67511 -19.16981,37.80356 -1.30079,4.02628 -2.46679,7.44685 -2.59112,7.60128 -0.12432,0.15442 -4.4891,-1.36563 -9.69949,-3.37789 -18.99599,-7.33625 -28.3255,-9.23542 -45.74032,-9.31116 -11.76008,-0.0511 -17.38839,0.38628 -22.48442,1.74744 -15.66188,4.18334 -33.13856,15.16562 -47.55527,29.88356 -4.01085,4.09467 -7.77568,7.40438 -8.36629,7.35494 -0.59007,-0.0494 -5.77934,-4.11561 -11.53116,-9.03592 z m 89.41479,-223.47268 c 27.97842,-4.47877 45.73948,-11.69843 51.32869,-20.86454 3.20767,-5.26046 2.429,-13.68649 -1.64092,-17.75641 -2.22745,-2.22744 -3.9256,-2.18573 -6.83207,0.16778 -2.16287,1.75139 -2.24115,2.18552 -1.00864,5.59396 2.61434,7.22984 -0.96118,11.37065 -13.85672,16.04745 -21.64455,7.84978 -71.18166,12.2082 -100.53488,8.84535 -10.65864,-1.22111 -12.46078,-0.52009 -11.95617,4.65087 0.29228,2.99516 0.72714,3.31657 6.06668,4.48397 8.79825,1.92359 64.28178,1.09705 78.43403,-1.16843 l 0,0 z m -250.98889,-34.09844 0,-14.66228 3.9217,1.98965 c 11.31736,5.74179 35.65522,11.33027 59.72066,13.71311 18.61334,1.843 63.83762,1.30929 89.04255,-1.05082 77.81953,-7.2868 162.30916,-28.03364 210.72608,-51.74483 25.35557,-12.41737 36.07966,-22.50151 36.07966,-33.92665 0,-5.85635 -2.24174,-9.79265 -7.72572,-13.56573 -5.11704,-3.52061 -14.25847,-7.40148 -17.43431,-7.40148 -2.34387,0 -4.72986,4.22804 -3.78117,6.70031 0.33869,0.88261 3.67993,2.99409 7.42497,4.69216 7.22411,3.27557 12.10414,7.31615 12.10414,10.022 0,2.38648 -7.98407,10.66781 -14.63962,15.18469 -27.75081,18.8334 -98.05358,41.10927 -166.28153,52.68734 -45.57962,7.73471 -65.58959,9.4955 -107.19318,9.43255 -46.31006,-0.0701 -65.78701,-2.79298 -90.69725,-12.67959 l -9.12586,-3.62196 1.69505,-3.29897 c 0.93228,-1.81443 3.55074,-6.03991 5.81881,-9.38997 3.95661,-5.84412 4.04988,-6.17262 2.30123,-8.10485 -2.93382,-3.24184 -6.1543,-2.48905 -10.39896,2.43075 -5.26327,6.10042 -8.47511,12.74629 -10.01375,20.72018 -1.4199,7.35855 -1.9313,31.77367 -0.72696,34.70653 0.54043,1.31605 1.93577,1.83013 4.96749,1.83013 l 4.21597,0 0,-14.66227 0,0 z M 167.7593,293.13411 c 17.40377,-24.01584 22.81629,-30.78534 32.47448,-40.61619 15.76903,-16.05092 32.02731,-25.29582 48.04589,-27.32018 12.8494,-1.62384 21.30623,0.0617 45.23757,9.01627 3.97202,1.48624 4.24751,1.4529 6.01328,-0.72773 1.01779,-1.25693 1.85054,-2.90704 1.85054,-3.66693 0,-3.01027 -11.9891,-8.78685 -26.14468,-12.59701 -8.33591,-2.24372 -28.26317,-2.52165 -36.60254,-0.51051 -25.84025,6.23167 -49.83183,27.92349 -80.3828,72.67754 -4.68001,6.85573 -8.5091,13.54682 -8.5091,14.86907 0,1.55164 1.01976,2.95088 2.87591,3.94613 3.37446,1.80935 1.70451,3.47147 15.14145,-15.07046 z m 359.77321,-73.6151 c 3.04158,-2.30888 2.14115,-6.28951 -2.95676,-13.07123 -6.38805,-8.49799 -14.1415,-15.16313 -22.38521,-19.24318 -6.47754,-3.20591 -7.31531,-3.35259 -18.82416,-3.29586 -11.20462,0.0552 -12.74914,0.3231 -22.13908,3.83952 -18.74135,7.01843 -28.11659,11.60078 -28.73224,14.04352 -0.64512,2.55978 1.1747,6.63358 2.96332,6.63358 0.65383,0 8.75518,-3.04888 18.00303,-6.77529 21.07784,-8.49329 30.12192,-10.20699 39.04463,-7.39829 9.65998,3.04077 14.9696,7.38043 26.71222,21.83241 4.20779,5.17864 5.37942,5.66267 8.31425,3.43482 l 0,0 z"
       id="path2990"
       inkscape:connector-curvature="0"
       transform="translate(24.318169,221.53883)" />
  </g>
 <script id="script_svg">document.oncontextmenu = new Function("return false");</script>
</svg>
