<?xml version="1.0" encoding="UTF-8" standalone="no"?>
<!-- Created with Inkscape (http://www.inkscape.org/) -->

<svg
   xmlns:dc="http://purl.org/dc/elements/1.1/"
   xmlns:cc="http://creativecommons.org/ns#"
   xmlns:rdf="http://www.w3.org/1999/02/22-rdf-syntax-ns#"
   xmlns:svg="http://www.w3.org/2000/svg"
   xmlns="http://www.w3.org/2000/svg"
   xmlns:sodipodi="http://sodipodi.sourceforge.net/DTD/sodipodi-0.dtd"
   xmlns:inkscape="http://www.inkscape.org/namespaces/inkscape"
   preserveAspectRatio="xMinYMin meet"
   viewBox="0 0 698.55621 699.63153"
   width="100%"
   height="100%"
   id="svg3045"
   version="1.1"
   inkscape:version="0.48.4 r9939"
   sodipodi:docname="soleil_content_1.svg">
  <defs
     id="defs3047" />
  <sodipodi:namedview
     id="base"
     pagecolor="#ffffff"
     bordercolor="#666666"
     borderopacity="1.0"
     inkscape:pageopacity="0.0"
     inkscape:pageshadow="2"
     inkscape:zoom="1.1337816"
     inkscape:cx="323.75472"
     inkscape:cy="370.92984"
     inkscape:document-units="px"
     inkscape:current-layer="layer1"
     showgrid="false"
     inkscape:window-width="1600"
     inkscape:window-height="838"
     inkscape:window-x="-8"
     inkscape:window-y="-8"
     inkscape:window-maximized="1"
     fit-margin-top="0"
     fit-margin-left="0"
     fit-margin-right="0"
     fit-margin-bottom="0" />
  <metadata
     id="metadata3050">
    <rdf:RDF>
      <cc:Work
         rdf:about="">
        <dc:format>image/svg+xml</dc:format>
        <dc:type
           rdf:resource="http://purl.org/dc/dcmitype/StillImage" />
        <dc:title />
      </cc:Work>
    </rdf:RDF>
  </metadata>
  <g
     inkscape:label="Calque 1"
     inkscape:groupmode="layer"
     id="layer1"
     transform="translate(-24.318169,-221.53883)">
    <path
       style="fill:none;stroke:#000000;stroke-width:3.93258452px;stroke-linecap:butt;stroke-linejoin:miter;stroke-opacity:1"
       d="m 199.13522,622.64985 c 109.99037,64.00567 492.96639,-45.35084 376.61161,-80.86514"
       id="path3016"
       inkscape:connector-curvature="0"
       sodipodi:nodetypes="cc" />
    <path
       style="fill:none;stroke:#000000;stroke-width:3.93258452px;stroke-linecap:butt;stroke-linejoin:miter;stroke-opacity:1"
       d="m 211.11084,600.46484 c -9.64907,12.04913 -15.90018,14.81546 -13.97848,55.91399"
       id="path3018"
       inkscape:connector-curvature="0"
       sodipodi:nodetypes="cc" />
    <path
       style="fill:none;stroke:#000000;stroke-width:3.93258452px;stroke-linecap:butt;stroke-linejoin:miter;stroke-opacity:1"
       d="m 371.44577,674.04278 c 35.28755,8.20121 153.0478,-0.85879 126.88172,-32.25808"
       id="path3020"
       inkscape:connector-curvature="0"
       sodipodi:nodetypes="cc" />
    <path
       style="fill:none;stroke:#000000;stroke-width:3.93258452px;stroke-linecap:butt;stroke-linejoin:miter;stroke-opacity:1"
       d="m 177.89737,526.73093 c 37.32425,-56.84452 75.86231,-110.04755 144.08604,-74.19355"
       id="path3022"
       inkscape:connector-curvature="0"
       sodipodi:nodetypes="cc" />
    <path
       style="fill:none;stroke:#000000;stroke-width:3.93258452px;stroke-linecap:butt;stroke-linejoin:miter;stroke-opacity:1"
       d="m 459.61781,425.65569 c 30.93406,-13.88301 62.15626,-34.10452 90.32256,12.9032"
       id="path3024"
       inkscape:connector-curvature="0"
       sodipodi:nodetypes="cc" />
    <g
       id="g3072"
       style="fill:none">
      <path
         sodipodi:nodetypes="ccccccccccccccccc"
         inkscape:connector-curvature="0"
         id="path3026"
         d="M 53.166188,708.45137 C 87.84486,654.4919 68.742018,610.49195 26.284461,570.81697 63.741974,546.49075 86.164468,510.88824 55.316728,435.33308 139.43403,419.61033 124.01897,369.56611 129.51028,326.73094 c 43.93203,1.33583 88.69908,5.36216 107.52687,-74.19355 47.34953,24.70257 92.77934,23.48874 134.40862,-29.03227 59.41812,64.45263 99.56752,56.11221 133.33332,23.65592 22.90404,71.99263 64.31081,86.42129 112.90323,78.49462 0.9703,66.48623 23.41816,105.17802 73.11832,108.60217 -5.21694,39.50088 -44.60366,55.89948 30.10746,136.55914 -50.2071,33.95995 -49.92663,81.51272 -25.80648,135.48386 -43.13419,19.04598 -87.94076,36.33598 -75.26876,113.97849 -43.55778,-5.88315 -86.42412,-9.08707 -107.52688,72.04301 -70.13146,-34.98899 -106.06624,-8.91246 -136.55915,26.88173 -63.23477,-63.18098 -99.2401,-44.67373 -134.40861,-23.65591 -43.42552,-101.2922 -76.53245,-75.32228 -111.82794,-76.34408 2.13582,-50.7095 -4.93013,-96.8181 -76.344092,-110.7527 z"
         style="fill:none;stroke:#000000;stroke-width:3.93258452px;stroke-linecap:butt;stroke-linejoin:miter;stroke-opacity:1" />
    </g>
    <path
       style="color:#000000;fill:#ffcc00;fill-opacity:1;stroke:none;stroke-width:0;marker:none;visibility:visible;display:inline;overflow:visible;enable-background:accumulate"
       d="m 342.1886,685.6807 c -20.19481,-18.13046 -38.67235,-28.54546 -57.91066,-32.64175 -3.15956,-0.67275 -8.98409,-0.89535 -15.87607,-0.60676 -8.97236,0.37568 -12.36867,0.93791 -19.32321,3.19873 -7.34529,2.38785 -18.05959,7.34935 -28.05432,12.9912 -1.80553,1.01919 -3.11071,1.31935 -3.319,0.76329 -0.1888,-0.50403 -3.14425,-6.65601 -6.56766,-13.67106 -18.51706,-37.94401 -36.65407,-56.79249 -59.00108,-61.31554 -7.56602,-1.53136 -11.41128,-1.51261 -35.96154,0.17542 l -8.15854,0.56096 -0.009,-9.16288 c -0.0474,-47.69452 -13.620431,-74.76281 -45.414129,-90.5679 -6.563078,-3.2626 -19.975336,-7.9922 -26.727342,-9.42491 -1.602279,-0.34 -2.789209,-0.8797 -2.637625,-1.19934 0.151585,-0.31963 2.543572,-5.14553 5.315528,-10.7242 13.588119,-27.34666 13.846168,-55.36641 0.74753,-81.16909 -6.369707,-12.54753 -14.74105,-24.04566 -26.583345,-36.51253 -3.3671019,-3.54467 -6.1220037,-6.62916 -6.1220037,-6.8544 0,-0.22524 1.8619146,-1.74665 4.1375877,-3.38092 14.358247,-10.31131 26.024796,-24.59754 31.503497,-38.57749 8.487837,-21.65834 7.188414,-48.67468 -3.885868,-80.79132 -1.964905,-5.69843 -3.37357,-10.68276 -3.130367,-11.07626 0.243203,-0.39352 2.058354,-0.97391 4.033667,-1.28979 5.986768,-0.95731 20.277357,-5.8357 27.758762,-9.47602 20.98621,-10.21151 32.223957,-25.21862 36.568748,-48.83465 0.79593,-4.3262 3.4755,-39.08565 3.54386,-45.97097 0.0183,-1.83499 0.39378,-1.88006 19.64317,-2.35739 13.46584,-0.33392 21.70057,-0.94779 26.23962,-1.95608 20.78938,-4.61812 35.32839,-14.993041 46.18356,-32.956256 4.70744,-7.789904 10.48288,-21.476973 13.07193,-30.978829 0.99136,-3.638267 1.89335,-6.717767 2.00443,-6.843333 0.11108,-0.125566 2.94369,1.01491 6.29469,2.534389 20.57628,9.330128 41.58334,12.974072 60.01528,10.410424 20.30112,-2.823627 37.28716,-12.182871 55.99026,-30.850432 l 11.12837,-11.1072148 7.83472,7.8971798 c 17.82672,17.96883 36.79454,30.524626 54.58094,36.129997 5.14154,1.62035 8.23902,1.945353 18.52209,1.94343 11.26303,-0.0021 12.96692,-0.219655 19.39107,-2.475781 8.13068,-2.85545 18.43367,-8.754618 26.0421,-14.910884 4.6028,-3.724294 5.37399,-4.079586 5.8562,-2.697968 2.52165,7.224922 8.23306,20.127373 11.90889,26.902961 11.22906,20.698317 23.98208,33.475392 41.64582,41.724387 13.0665,6.10208 18.38282,7.05215 39.46179,7.05215 l 18.1793,0 0.5768,10.79595 c 2.19778,41.13536 15.96899,71.5192 38.91696,85.86368 7.68973,4.80674 18.59899,8.6252 28.84478,10.09625 4.08721,0.58683 4.14093,0.63672 3.62629,3.36815 -0.28731,1.52487 -3.00315,9.7653 -6.03521,18.31207 -6.66794,18.79557 -7.47277,22.33605 -7.47277,32.87297 0,21.1924 11.95698,44.50039 37.73636,73.56024 3.13741,3.53664 5.55508,6.54255 5.3726,6.67979 -18.35602,13.80543 -27.82255,25.26968 -34.32964,41.5742 -3.87727,9.71512 -5.41712,18.82102 -5.34451,31.6047 0.0976,17.19195 2.99284,31.12654 10.73686,51.67668 1.91316,5.07693 3.17853,9.48144 2.81194,9.7878 -0.36659,0.30636 -3.2464,1.67523 -6.39956,3.04192 -21.54889,9.34009 -36.63341,18.54849 -46.63404,28.46794 -17.08029,16.94162 -22.84075,33.89354 -21.95969,64.62322 l 0.45963,16.03102 -3.19762,-0.51813 c -7.36155,-1.19285 -32.50526,-1.59963 -38.73382,-0.62665 -22.67392,3.54199 -39.03766,16.17369 -51.09347,39.44073 -3.94923,7.62178 -8.99254,20.32957 -10.81306,27.24602 -0.63843,2.42551 -1.41296,4.70085 -1.72115,5.05632 -0.3082,0.35545 -3.12723,-0.56807 -6.26451,-2.0523 -9.06413,-4.28818 -25.1993,-9.32686 -35.16578,-10.98155 -11.94106,-1.98251 -29.23202,-1.38951 -38.89367,1.33388 -15.6653,4.41569 -31.42846,14.65238 -46.099,29.93698 -4.69824,4.8949 -8.65115,8.88276 -8.78425,8.8619 -0.1331,-0.0208 -4.21102,-3.60121 -9.06204,-7.95635 z m 68.79632,-229.29616 c 39.98298,-3.38156 66.60435,-13.1114 68.86656,-25.17002 0.67388,-3.59212 -0.88997,-9.35242 -3.07373,-11.32175 -1.2226,-1.10254 -1.6324,-1.10277 -3.13369,-0.002 -1.65341,1.21261 -1.66282,1.37564 -0.22051,3.81728 0.82867,1.40282 1.50666,3.72574 1.50666,5.16205 0,8.73997 -17.50785,16.27397 -48.70818,20.96019 -20.89657,3.13862 -59.9611,3.81669 -73.31522,1.27258 -5.7172,-1.08919 -5.42091,-1.16014 -6.23548,1.49307 -0.69331,2.25827 0.28585,2.69128 8.49805,3.75811 8.08844,1.05075 43.52201,1.06993 55.81554,0.0302 l 0,8e-5 z M 175.05854,423.12022 c 0.005,-6.67015 0.25277,-13.5978 0.54986,-15.39476 l 0.54016,-3.26721 4.26173,2.15958 c 21.14061,10.71276 54.50511,16.25384 97.98335,16.27279 24.01457,0.0105 39.88884,-0.93223 67.60153,-4.01454 103.93393,-11.55991 214.0342,-47.70272 227.50984,-74.68506 5.0366,-10.08484 0.58366,-17.33284 -14.50884,-23.61585 -5.35203,-2.22807 -6.84209,-2.55003 -7.43953,-1.6075 -1.61129,2.542 -0.76693,3.98848 2.97444,5.09555 6.18763,1.8309 13.52359,6.75618 15.14162,10.16593 1.27322,2.68313 1.29835,3.40643 0.20895,6.01373 -9.57268,22.91064 -98.87151,55.07874 -193.73589,69.78946 -36.86246,5.71629 -64.1085,7.95326 -97.02045,7.96562 -42.49225,0.016 -68.60334,-3.96721 -92.71027,-14.14266 l -9.45933,-3.99276 1.26241,-3.69597 c 0.69431,-2.03279 3.22759,-6.27585 5.6295,-9.42902 2.40191,-3.15316 4.38154,-6.13367 4.39919,-6.62336 0.0176,-0.48969 -0.70466,-1.35045 -1.6051,-1.91279 -1.40983,-0.88045 -2.05836,-0.51183 -4.67,2.65435 -5.19152,6.2939 -6.71954,8.86188 -8.60702,14.46476 -2.26031,6.70962 -3.82921,23.65629 -3.0524,32.97088 0.54665,6.5548 0.70011,6.95639 2.65834,6.95639 l 2.0782,0 0.01,-12.12756 1e-5,0 z M 163.26246,295.22963 c 9.87252,-14.35061 18.84709,-26.57082 24.45248,-33.29565 32.76852,-39.31273 64.687,-49.10888 102.73378,-31.5302 6.60048,3.04962 8.02494,2.97411 8.06718,-0.42759 0.0313,-2.52154 -19.04528,-9.92408 -30.22037,-11.72681 -9.39868,-1.51618 -24.84449,-0.65179 -32.82942,1.83722 -24.91799,7.76725 -46.77766,28.52506 -76.52263,72.66545 -7.03548,10.44038 -7.61442,11.61078 -6.24027,12.61558 0.83307,0.60915 1.80902,1.10755 2.16877,1.10755 0.35975,0 4.13547,-5.06049 8.39048,-11.24555 l 0,0 z m 363.2238,-78.13867 c 1.52928,-1.11824 1.40723,-1.49561 -2.2032,-6.81221 -6.19638,-9.12457 -14.55108,-16.85034 -22.4365,-20.74753 -6.41617,-3.17104 -7.55948,-3.43943 -15.97976,-3.75112 -7.81247,-0.2892 -10.20684,-0.0106 -17.27941,2.01066 -6.94592,1.98506 -29.35055,11.17676 -33.22124,13.62933 -1.33647,0.84683 -0.6059,4.50663 0.8996,4.50663 0.49877,0 6.12787,-2.33604 12.50913,-5.19119 21.77676,-9.74355 33.06125,-12.17617 43.79541,-9.44106 10.21013,2.60159 19.65501,10.25533 28.12433,22.79079 3.09594,4.58232 3.41152,4.74609 5.79164,3.0057 l 0,0 z"
       id="path3765"
       inkscape:connector-curvature="0"
       transform="translate(24.318169,221.53883)" />
  </g>
</svg>
