<?xml version="1.0" encoding="UTF-8" standalone="no"?>
<!-- Created with Inkscape (http://www.inkscape.org/) -->

<svg
   xmlns:dc="http://purl.org/dc/elements/1.1/"
   xmlns:cc="http://creativecommons.org/ns#"
   xmlns:rdf="http://www.w3.org/1999/02/22-rdf-syntax-ns#"
   xmlns:svg="http://www.w3.org/2000/svg"
   xmlns="http://www.w3.org/2000/svg"
   xmlns:sodipodi="http://sodipodi.sourceforge.net/DTD/sodipodi-0.dtd"
   xmlns:inkscape="http://www.inkscape.org/namespaces/inkscape"
   preserveAspectRatio="xMinYMin meet"
   viewBox="0 0 698.55621 699.63153"
   width="100%"
   height="100%"
   id="svg3045"
   version="1.1"
   inkscape:version="0.48.4 r9939"
   sodipodi:docname="soleil_content_1.svg">
  <defs
     id="defs3047" />
  <sodipodi:namedview
     id="base"
     pagecolor="#ffffff"
     bordercolor="#666666"
     borderopacity="1.0"
     inkscape:pageopacity="0.0"
     inkscape:pageshadow="2"
     inkscape:zoom="0.95621763"
     inkscape:cx="489.0329"
     inkscape:cy="450.71853"
     inkscape:document-units="px"
     inkscape:current-layer="layer1"
     showgrid="false"
     inkscape:window-width="1600"
     inkscape:window-height="838"
     inkscape:window-x="-8"
     inkscape:window-y="-8"
     inkscape:window-maximized="1"
     fit-margin-top="0"
     fit-margin-left="0"
     fit-margin-right="0"
     fit-margin-bottom="0" />
  <metadata
     id="metadata3050">
    <rdf:RDF>
      <cc:Work
         rdf:about="">
        <dc:format>image/svg+xml</dc:format>
        <dc:type
           rdf:resource="http://purl.org/dc/dcmitype/StillImage" />
        <dc:title></dc:title>
      </cc:Work>
    </rdf:RDF>
  </metadata>
  <g
     inkscape:label="Calque 1"
     inkscape:groupmode="layer"
     id="layer1"
     transform="translate(-24.318169,-221.53883)">
    <path
       style="fill:none;stroke:#000000;stroke-width:3.93258452px;stroke-linecap:butt;stroke-linejoin:miter;stroke-opacity:1"
       d="M 219.11588,753.96239 C 311.94682,640.57875 643.57029,554.8885 585.70367,635.68786"
       id="path3016"
       inkscape:connector-curvature="0"
       sodipodi:nodetypes="cc" />
    <path
       style="fill:none;stroke:#000000;stroke-width:3.93258452px;stroke-linecap:butt;stroke-linejoin:miter;stroke-opacity:1"
       d="m 211.28651,726.99351 c 0.35341,15.43248 -2.65705,21.56974 25.23268,51.81779"
       id="path3018"
       inkscape:connector-curvature="0"
       sodipodi:nodetypes="cc" />
    <path
       style="fill:none;stroke:#000000;stroke-width:3.93258452px;stroke-linecap:butt;stroke-linejoin:miter;stroke-opacity:1"
       d="m 177.89737,526.73093 c 53.01105,-44.29507 70.11048,-70.83054 144.08604,-74.19355"
       id="path3022"
       inkscape:connector-curvature="0"
       sodipodi:nodetypes="cc" />
    <path
       style="fill:none;stroke:#000000;stroke-width:3.93258452px;stroke-linecap:butt;stroke-linejoin:miter;stroke-opacity:1"
       d="m 459.61781,425.65569 c 33.89199,-2.42102 47.92121,-0.82778 90.32256,12.9032"
       id="path3024"
       inkscape:connector-curvature="0"
       sodipodi:nodetypes="cc" />
    <g
       id="g3072"
       style="fill:none">
      <path
         sodipodi:nodetypes="ccccccccccccccccc"
         inkscape:connector-curvature="0"
         id="path3026"
         d="M 53.166188,708.45137 C 87.84486,654.4919 68.742018,610.49195 26.284461,570.81697 63.741974,546.49075 86.164468,510.88824 55.316728,435.33308 139.43403,419.61033 124.01897,369.56611 129.51028,326.73094 c 43.93203,1.33583 88.69908,5.36216 107.52687,-74.19355 47.34953,24.70257 92.77934,23.48874 134.40862,-29.03227 59.41812,64.45263 99.56752,56.11221 133.33332,23.65592 22.90404,71.99263 64.31081,86.42129 112.90323,78.49462 0.9703,66.48623 23.41816,105.17802 73.11832,108.60217 -5.21694,39.50088 -44.60366,55.89948 30.10746,136.55914 -50.2071,33.95995 -49.92663,81.51272 -25.80648,135.48386 -43.13419,19.04598 -87.94076,36.33598 -75.26876,113.97849 -43.55778,-5.88315 -86.42412,-9.08707 -107.52688,72.04301 -70.13146,-34.98899 -106.06624,-8.91246 -136.55915,26.88173 -63.23477,-63.18098 -99.2401,-44.67373 -134.40861,-23.65591 -43.42552,-101.2922 -76.53245,-75.32228 -111.82794,-76.34408 2.13582,-50.7095 -4.93013,-96.8181 -76.344092,-110.7527 z"
         style="fill:none;stroke:#000000;stroke-width:3.93258452px;stroke-linecap:butt;stroke-linejoin:miter;stroke-opacity:1" />
    </g>
    <path
       style="color:#000000;fill:#ffcc00;fill-opacity:1;stroke:#000000;stroke-width:0;stroke-linecap:butt;stroke-linejoin:miter;stroke-miterlimit:4;stroke-opacity:1;stroke-dasharray:none;stroke-dashoffset:0;marker:none;visibility:visible;display:inline;overflow:visible;enable-background:accumulate"
       d="m 325.96458,671.41441 c -29.56691,-20.68256 -57.61729,-25.39908 -84.42935,-14.19626 -10.04999,4.19915 -19.82652,7.6348 -21.72563,7.6348 -1.89911,0 -7.34734,-8.63624 -12.10716,-19.19167 -4.75983,-10.55542 -16.86236,-26.60721 -26.89451,-35.67065 -16.15012,-14.59068 -21.23621,-16.47899 -44.38506,-16.47899 l -26.14478,0 -0.20875,-17.83533 C 109.81361,553.8287 99.909999,524.91616 88.138901,511.65281 83.312447,506.21451 70.168918,497.65146 58.931058,492.62385 41.46899,484.81159 38.982884,481.9734 41.829999,473.10095 56.752808,426.59708 50.835546,396.21991 20.520318,363.70446 9.1128814,351.46909 8.740495,349.89653 16.25312,345.68442 c 4.527002,-2.53817 13.901435,-14.29086 20.832074,-26.1171 11.218008,-19.14208 12.330094,-24.99483 10.131609,-53.32127 -1.358254,-17.50046 -3.888552,-35.25866 -5.622885,-39.46266 -2.401854,-5.82207 3.25617,-10.77952 23.742002,-20.80231 30.302741,-14.82575 36.98479,-25.84433 42.26306,-69.691 l 3.22566,-26.79563 28.32717,-2.049 c 34.95827,-2.52866 50.31743,-12.857134 66.24803,-44.549366 l 11.89022,-23.654336 16.64631,5.769509 c 9.15547,3.173231 24.25198,5.89031 33.5478,6.037954 19.12316,0.303729 64.29827,-20.387691 72.22552,-33.081237 4.79404,-7.676478 7.22539,-6.823785 28.50533,9.997036 37.29089,29.476755 69.80758,33.883274 99.10573,13.430382 l 12.22631,-8.535125 5.91747,16.36449 c 13.62819,37.688057 43.98435,59.165953 83.62325,59.165953 21.24358,0 21.55516,0.22838 21.55516,15.79906 0,38.51906 31.97075,88.83486 56.44586,88.83486 13.40546,0 14.66335,4.21793 7.39862,24.8084 -12.39527,35.13194 -5.57366,62.66612 24.33034,98.205 10.74538,12.77012 11.43786,15.31343 4.85734,17.83861 -4.22107,1.61979 -12.96861,11.97837 -19.43889,23.01908 -13.67147,23.32865 -15.63036,57.02329 -5.05724,86.99069 l 6.70694,19.00943 -23.94139,11.21357 c -33.38169,15.63511 -47.86831,36.13209 -50.41434,71.33071 l -2.03051,28.07152 -24.88352,0 c -32.73601,0 -53.39897,13.64674 -69.09497,45.63328 l -11.89021,24.23084 -16.64631,-6.03371 c -36.709,-13.30573 -76.92258,-5.71373 -99.51787,18.78816 -6.34164,6.87673 -12.76236,12.48435 -14.26826,12.46138 -1.50591,-0.0238 -13.76119,-7.75271 -27.23395,-17.17718 z M 214.91202,557.67366 c 0,-1.39995 -3.28348,-7.55661 -7.29662,-13.68145 -7.03225,-10.73254 -6.45154,-11.8897 16.02751,-31.93623 66.97718,-59.72953 213.05143,-119.09521 295.65871,-120.15796 l 40.42675,-0.5201 -0.89538,13.07924 c -1.12097,16.37417 6.81433,17.19876 10.84806,1.12726 4.86163,-19.37043 -4.94205,-26.10588 -37.88252,-26.02642 -84.27039,0.20328 -245.24312,63.54844 -312.86025,123.11513 -25.23049,22.22657 -27.8067,23.15168 -27.8067,9.98502 0,-5.23169 -2.40777,-9.51217 -5.3506,-9.51217 -8.0597,0 -1.39125,26.23581 10.89091,42.8483 9.46302,12.79944 18.24013,18.41952 18.24013,11.67938 z M 191.96508,279.55813 c 34.06633,-28.60332 65.55809,-42.75306 95.15148,-42.75306 7.37277,0 13.40503,-2.43835 13.40503,-5.41857 0,-8.81724 -46.38289,-1.04303 -73.43116,12.30776 -25.32922,12.50227 -85.42008,63.85905 -75.15771,64.23368 3.29118,0.12014 21.30574,-12.64627 40.03236,-28.36981 l 0,0 z M 528.8138,218.00428 c 0,-6.35754 -30.26689,-14.60817 -65.39621,-17.82675 -20.62974,-1.89011 -29.72554,-1.0689 -29.72554,2.68377 0,3.17635 8.33953,5.44509 20.21337,5.49899 11.11735,0.0505 30.91457,3.06944 43.99381,6.70885 29.94461,8.33234 30.91457,8.42444 30.91457,2.93514 l 0,0 z"
       id="path4292"
       inkscape:connector-curvature="0"
       transform="translate(24.318169,221.53883)" />
    <path
       style="color:#000000;fill:#ffcc00;fill-opacity:1;stroke:#000000;stroke-width:0;stroke-linecap:butt;stroke-linejoin:miter;stroke-miterlimit:4;stroke-opacity:1;stroke-dasharray:none;stroke-dashoffset:0;marker:none;visibility:visible;display:inline;overflow:visible;enable-background:accumulate"
       d="m 652.53758,425.27238 c -0.15088,-0.3932 0.0567,-5.83204 0.37424,-9.80313 0.93247,-11.66294 3.56163,-22.22051 7.93345,-31.85719 4.50956,-9.94031 14.48998,-23.64558 20.59014,-28.27468 0.53196,-0.40368 1.84799,-1.15809 2.9245,-1.67646 1.07652,-0.51837 2.22633,-1.18554 2.55515,-1.4826 1.25173,-1.13087 1.35238,-2.58553 0.32988,-4.76748 -1.08953,-2.32501 -2.73083,-4.58089 -7.88639,-10.83946 -7.98602,-9.69458 -12.16176,-15.35993 -16.40017,-22.25058 -5.84885,-9.50886 -9.63195,-18.10072 -12.02791,-27.31677 l -0.75347,-2.89824 -0.0439,-3.26981 -0.0439,-3.26981 0.42621,2.17241 c 2.09264,10.66642 7.01098,21.71554 15.37433,34.53864 6.11196,9.37115 15.32572,21.08939 24.89169,31.65771 1.18387,1.30793 2.27798,2.52003 2.43135,2.69358 0.27786,0.31441 0.27525,0.31808 -0.73255,1.02914 -4.36984,3.08317 -9.52789,7.38458 -13.55749,11.30588 -14.88923,14.48904 -23.2007,31.10527 -25.417,50.81349 -0.37309,3.31769 -0.66343,10.01361 -0.52684,12.15032 0.0874,1.36755 0.07,1.59774 -0.12115,1.59774 -0.12281,0 -0.26692,-0.11371 -0.32026,-0.2527 l 0,0 z"
       id="path4294"
       inkscape:connector-curvature="0"
       transform="translate(24.318169,221.53883)" />
    <path
       style="color:#000000;fill:#ffcc00;fill-opacity:1;stroke:#000000;stroke-width:0;stroke-linecap:butt;stroke-linejoin:miter;stroke-miterlimit:4;stroke-opacity:1;stroke-dasharray:none;stroke-dashoffset:0;marker:none;visibility:visible;display:inline;overflow:visible;enable-background:accumulate"
       d="m 559.18831,411.77387 c -0.32602,-2.17014 -0.2181,-7.86877 0.27479,-14.51068 0.24203,-3.26143 0.41091,-5.95854 0.37529,-5.99356 -0.0916,-0.0901 -38.8977,0.43173 -42.94387,0.57746 l -3.34413,0.12043 0,-3.06847 0,-3.06848 0.96608,-0.15685 c 5.32164,-0.86397 23.0986,-1.35791 28.78956,-0.79992 5.25635,0.51538 8.72694,1.17369 12.14018,2.30279 3.66419,1.21212 5.74698,2.34346 7.56226,4.10772 1.95687,1.90186 2.63949,3.43181 2.79516,6.26475 0.20764,3.77882 -1.26031,7.83921 -4.76657,13.18441 l -1.63141,2.48706 -0.21734,-1.44666 z"
       id="path4296"
       inkscape:connector-curvature="0"
       transform="translate(24.318169,221.53883)" />
    <path
       style="color:#000000;fill:#ffcc00;fill-opacity:1;stroke:#000000;stroke-width:0;stroke-linecap:butt;stroke-linejoin:miter;stroke-miterlimit:4;stroke-opacity:1;stroke-dasharray:none;stroke-dashoffset:0;marker:none;visibility:visible;display:inline;overflow:visible;enable-background:accumulate"
       d="m 513.55039,489.86126 0,-97.48158 1.26334,-0.16265 c 1.16002,-0.14935 44.58919,-0.78945 44.71952,-0.65912 0.0315,0.0315 -0.14517,2.79605 -0.39257,6.14347 -0.48177,6.51843 -0.40802,14.29628 0.15248,16.07923 0.77845,2.47631 2.34293,3.83786 3.9472,3.43522 4.21584,-1.05811 8.85458,-15.58596 7.41627,-23.22668 -0.76355,-4.05617 -3.30185,-7.54831 -7.00616,-9.63889 -3.77979,-2.13319 -10.51711,-3.75693 -18.591,-4.48058 -4.51407,-0.40458 -20.92174,-0.35129 -26.82741,0.0872 l -4.68188,0.34757 1.1e-4,-56.40422 10e-5,-56.40423 67.43059,0 67.43058,0 0.19783,4.38452 c 0.48122,10.66496 2.89534,20.26175 7.74346,30.78241 l 1.06919,2.3202 0,43.36748 0,43.36749 -0.72404,2.31908 c -1.55685,4.9865 -2.8207,10.95939 -3.63564,17.18184 -0.74848,5.71498 -0.75693,20.71015 -0.015,26.64949 0.69999,5.60373 1.78479,11.30659 3.18754,16.75702 l 1.18715,4.61278 -0.004,13.7418 -0.004,13.7418 -9.26823,4.31021 c -13.50685,6.28139 -20.08347,9.9645 -26.84048,15.03153 -13.63802,10.22704 -21.81961,22.00321 -26.29597,37.8491 -2.35821,8.34785 -3.1613,14.37046 -4.51294,33.84365 l -0.6654,9.58649 -38.1404,0 -38.1404,0 0,-97.48158 z"
       id="path4298"
       inkscape:connector-curvature="0"
       transform="translate(24.318169,221.53883)" />
    <path
       style="color:#000000;fill:#ffcc00;fill-opacity:1;stroke:#000000;stroke-width:0;stroke-linecap:butt;stroke-linejoin:miter;stroke-miterlimit:4;stroke-opacity:1;stroke-dasharray:none;stroke-dashoffset:0;marker:none;visibility:visible;display:inline;overflow:visible;enable-background:accumulate"
       d="m 561.03717,416.198 c -0.72493,-0.75988 -1.41218,-2.11128 -1.41218,-2.77686 0,-0.15719 0.70048,0.18593 1.55662,0.76249 0.85615,0.57656 1.69218,1.04173 1.85785,1.03372 0.46905,-0.0227 3.28135,-4.64617 4.70976,-7.74293 2.89071,-6.26701 3.18749,-11.09235 0.9595,-15.60038 -3.03224,-6.13533 -10.70009,-9.6802 -24.12368,-11.15244 -3.97773,-0.43627 -17.00073,-0.44195 -22.31969,-0.01 -2.15512,0.17512 -5.01569,0.40991 -6.35681,0.52175 -2.02421,0.16882 -2.41497,0.13241 -2.30043,-0.2143 0.21478,-0.6501 7.84008,-1.10499 18.96663,-1.13145 9.82761,-0.0234 15.01808,0.31129 20.51063,1.32245 10.23935,1.88503 16.03138,6.11348 17.23925,12.58548 1.32366,7.09245 -2.35196,20.21178 -6.34483,22.64649 -1.28008,0.78054 -2.02386,0.71879 -2.94262,-0.24428 l 0,0 z"
       id="path4300"
       inkscape:connector-curvature="0"
       transform="translate(24.318169,221.53883)" />
    <path
       style="color:#000000;fill:#ffcc00;fill-opacity:1;stroke:#000000;stroke-width:0;stroke-linecap:butt;stroke-linejoin:miter;stroke-miterlimit:4;stroke-opacity:1;stroke-dasharray:none;stroke-dashoffset:0;marker:none;visibility:visible;display:inline;overflow:visible;enable-background:accumulate"
       d="m 214.29165,517.64 0.0513,-2.86274 3.51254,-3.12746 c 19.26353,-17.15164 42.86427,-33.31806 72.56178,-49.70455 16.18549,-8.93083 35.86876,-18.55439 54.99906,-26.89018 56.13634,-24.46072 119.19889,-43.2975 163.24089,-48.76004 2.03358,-0.25223 3.94699,-0.49429 4.25203,-0.53792 l 0.55461,-0.0793 -0.0924,3.17021 -0.0924,3.17021 -1.10922,0.047 c -10.60957,0.44961 -26.25012,2.45361 -40.2094,5.15197 -55.79374,10.78507 -124.79275,36.85871 -181.08092,68.42764 -25.37228,14.22991 -46.98877,28.91277 -63.87286,43.38524 -3.71772,3.1867 -9.90302,8.70276 -11.6057,10.34999 l -1.16051,1.1227 0.0513,-2.86274 z"
       id="path4302"
       inkscape:connector-curvature="0"
       transform="translate(24.318169,221.53883)" />
    <path
       style="color:#000000;fill:#ffcc00;fill-opacity:1;stroke:#000000;stroke-width:0;stroke-linecap:butt;stroke-linejoin:miter;stroke-miterlimit:4;stroke-opacity:1;stroke-dasharray:none;stroke-dashoffset:0;marker:none;visibility:visible;display:inline;overflow:visible;enable-background:accumulate"
       d="m 214.26127,507.9893 0.0108,-1.16635 1.69929,-1.45576 c 6.26456,-5.3668 10.27776,-8.71329 13.25371,-11.05188 29.48079,-23.16695 73.28652,-47.5428 123.06226,-68.47842 57.03834,-23.99027 115.1452,-40.52565 157.83519,-44.91492 4.08757,-0.42027 5.38845,-0.48862 3.99484,-0.2099 -0.60773,0.12154 -0.76835,0.60586 -0.23751,0.71618 0.17794,0.037 -0.67478,0.17395 -1.89492,0.30438 -3.64713,0.38987 -10.03475,1.28525 -15.34428,2.15086 -41.78591,6.81238 -94.44062,22.75489 -144.29164,43.68784 -22.14926,9.3007 -46.12211,20.8577 -65.35182,31.50528 -27.6285,15.29802 -52.37878,32.19635 -70.06602,47.8378 -1.22015,1.07901 -2.32244,2.02471 -2.44954,2.10155 -0.17561,0.10616 -0.22851,-0.14031 -0.22032,-1.02666 z"
       id="path4304"
       inkscape:connector-curvature="0"
       transform="translate(24.318169,221.53883)" />
    <path
       style="color:#000000;fill:#ffcc00;fill-opacity:1;stroke:#000000;stroke-width:0;stroke-linecap:butt;stroke-linejoin:miter;stroke-miterlimit:4;stroke-opacity:1;stroke-dasharray:none;stroke-dashoffset:0;marker:none;visibility:visible;display:inline;overflow:visible;enable-background:accumulate"
       d="m 522.33765,221.29013 c -3.26256,-0.59687 -9.29593,-2.12235 -18.30221,-4.62753 -11.15935,-3.10408 -16.81978,-4.39254 -25.88191,-5.89141 -9.56661,-1.58231 -15.90868,-2.20657 -26.52895,-2.61128 -2.80474,-0.10688 -5.966,-0.33957 -7.39483,-0.54431 -2.40919,-0.34522 -5.78701,-1.10616 -6.37775,-1.43675 -0.17527,-0.0981 2.06688,-0.29914 5.77243,-0.51761 7.05966,-0.41624 18.70457,-0.47178 23.52929,-0.11222 14.72246,1.09717 27.01999,3.79778 49.86613,10.95089 4.19274,1.31274 7.73447,2.3868 7.8705,2.3868 0.15134,0 0.4772,-0.72759 0.83956,-1.87463 0.32572,-1.03106 0.56923,-1.89695 0.54112,-1.92421 -0.0281,-0.0273 -3.40821,-1.10128 -7.51135,-2.3867 -22.75471,-7.12852 -34.7753,-9.82856 -49.57238,-11.13483 -6.85536,-0.60519 -22.10812,-0.40758 -32.58347,0.42213 l -1.43275,0.11349 -0.005,1.4135 -0.005,1.41351 -0.64204,-0.69055 c -0.51691,-0.55595 -0.64205,-0.83881 -0.64205,-1.45124 0,-3.39263 8.32325,-4.2474 26.71383,-2.74344 32.88562,2.68935 63.95242,10.36916 67.68062,16.73085 0.42606,0.72702 0.47654,0.98516 0.41291,2.11134 -0.0781,1.38117 -0.44608,2.11117 -1.28057,2.54003 -0.62717,0.32232 -2.89408,0.26154 -5.06612,-0.13583 l 0,0 z"
       id="path4306"
       inkscape:connector-curvature="0"
       transform="translate(24.318169,221.53883)" />
    <path
       style="color:#000000;fill:#ffcc00;fill-opacity:1;stroke:#000000;stroke-width:0;stroke-linecap:butt;stroke-linejoin:miter;stroke-miterlimit:4;stroke-opacity:1;stroke-dasharray:none;stroke-dashoffset:0;marker:none;visibility:visible;display:inline;overflow:visible;enable-background:accumulate"
       d=""
       id="path4308"
       inkscape:connector-curvature="0"
       transform="translate(24.318169,221.53883)" />
    <path
       style="color:#000000;fill:#ffcc00;fill-opacity:1;stroke:#000000;stroke-width:0;stroke-linecap:butt;stroke-linejoin:miter;stroke-miterlimit:4;stroke-opacity:1;stroke-dasharray:none;stroke-dashoffset:0;marker:none;visibility:visible;display:inline;overflow:visible;enable-background:accumulate"
       d="m 214.2505,260.03701 0,-2.50103 1.34031,-0.904 c 5.96259,-4.02154 14.22842,-8.51931 20.93662,-11.39244 16.01453,-6.85907 35.83056,-10.9215 58.76932,-12.04816 l 2.5686,-0.12615 -0.11634,-2.0334 c -0.064,-1.11837 -0.13837,-2.04735 -0.16529,-2.06441 -0.0896,-0.0567 -5.17415,0.25233 -9.1076,0.55363 -29.75647,2.27932 -51.62895,8.81883 -71.77608,21.45988 l -2.44954,1.53692 0,-0.53806 c 0,-0.63495 0.13027,-0.73304 4.7142,-3.54947 4.37583,-2.68856 6.74407,-3.98319 10.25466,-5.60585 15.22965,-7.03941 35.12664,-12.54276 52.87871,-14.62582 3.93601,-0.46186 11.7325,-0.46667 13.85855,-0.009 1.79745,0.38732 3.39257,1.10726 3.90962,1.76458 1.9816,2.51919 -1.75948,5.44127 -8.1738,6.38438 -1.05722,0.15544 -3.58606,0.3317 -5.61964,0.39168 -10.92378,0.32221 -19.77795,1.79907 -30.0415,5.01089 -12.80312,4.00652 -26.89976,10.91395 -39.74722,19.47633 -0.86427,0.57601 -1.67539,1.10867 -1.80249,1.18369 -0.18021,0.10636 -0.23109,-0.41431 -0.23109,-2.36463 z"
       id="path4310"
       inkscape:connector-curvature="0"
       transform="translate(24.318169,221.53883)" />
    <path
       style="color:#000000;fill:#ffcc00;fill-opacity:1;stroke:#000000;stroke-width:0;stroke-linecap:butt;stroke-linejoin:miter;stroke-miterlimit:4;stroke-opacity:1;stroke-dasharray:none;stroke-dashoffset:0;marker:none;visibility:visible;display:inline;overflow:visible;enable-background:accumulate"
       d="m 168.13089,295.40907 c 0.10228,-0.0947 1.22537,-1.07664 2.49575,-2.18212 1.27039,-1.10547 4.22322,-3.68561 6.56183,-5.73363 5.68198,-4.97596 7.51763,-6.57735 9.95991,-8.68889 11.9731,-10.35167 19.98005,-16.6438 27.86927,-21.90066 2.09426,-1.39546 2.76785,-1.82755 2.79957,-1.79583 0.0128,0.0128 -0.33633,0.25803 -0.77579,0.54502 -0.43945,0.28698 -1.25136,0.82334 -1.80424,1.1919 l -1.00524,0.67011 0.002,1.94529 c 0.002,2.23477 0.0373,2.83012 0.17497,2.94159 0.0901,0.073 0.09,0.0742 -0.008,0.13385 -0.30382,0.18448 -3.71165,2.54731 -5.13686,3.56165 -6.09417,4.33733 -10.96439,8.14238 -19.01858,14.85899 -5.15926,4.30245 -11.48598,9.33511 -16.38417,13.03297 -0.73717,0.55652 -1.51325,1.14289 -1.72463,1.30304 l -0.38432,0.29119 -1.90347,-0.001 -1.90346,-10e-4 0.18596,-0.17216 z"
       id="path4312"
       inkscape:connector-curvature="0"
       transform="translate(24.318169,221.53883)" />
    <path
       style="color:#000000;fill:#ffcc00;fill-opacity:1;stroke:#000000;stroke-width:0;stroke-linecap:butt;stroke-linejoin:miter;stroke-miterlimit:4;stroke-opacity:1;stroke-dasharray:none;stroke-dashoffset:0;marker:none;visibility:visible;display:inline;overflow:visible;enable-background:accumulate"
       d="m 167.64593,289.19394 0.001,-1.30565 1.18931,-1.06971 c 13.07952,-11.76419 29.68038,-24.85986 42.71468,-33.6957 2.11536,-1.43398 4.20288,-2.8048 4.22997,-2.7777 0.0117,0.0117 -0.18739,0.16235 -0.44236,0.33483 -0.56555,0.38258 -0.96131,0.73753 -1.04461,0.9369 -0.0358,0.0856 -0.0624,0.31695 -0.0624,0.54217 0,0.35421 0.008,0.39008 0.0809,0.36443 0.15995,-0.0563 -0.0263,0.0745 -1.55675,1.0932 -7.88403,5.24779 -16.10748,11.7028 -27.9648,21.95101 -2.38178,2.05857 -4.46077,3.87241 -11.19351,9.76592 -3.24586,2.84127 -5.9132,5.16595 -5.92741,5.16595 -0.0142,0 -0.0252,-0.58754 -0.0244,-1.30565 z"
       id="path4314"
       inkscape:connector-curvature="0"
       transform="translate(24.318169,221.53883)" />
    <path
       style="color:#000000;fill:#ffcc00;fill-opacity:1;stroke:#000000;stroke-width:0;stroke-linecap:butt;stroke-linejoin:miter;stroke-miterlimit:4;stroke-opacity:1;stroke-dasharray:none;stroke-dashoffset:0;marker:none;visibility:visible;display:inline;overflow:visible;enable-background:accumulate"
       d="m 152.85984,303.1078 c 0,-0.0939 1.48111,-1.89446 2.54707,-3.0965 2.27988,-2.57089 6.17724,-6.46636 10.30145,-10.29644 l 1.80249,-1.67394 0.0572,0.69327 c 0.0315,0.38129 0.0627,0.93016 0.0693,1.2197 l 0.0121,0.52645 -2.74995,2.38889 c -2.97397,2.58349 -7.20314,6.21208 -9.12799,7.83173 -0.66092,0.55613 -1.58643,1.33917 -2.05669,1.74011 -0.47027,0.40094 -0.85503,0.70097 -0.85503,0.66673 z"
       id="path4316"
       inkscape:connector-curvature="0"
       transform="translate(24.318169,221.53883)" />
    <path
       style="color:#000000;fill:#ffcc00;fill-opacity:1;stroke:#000000;stroke-width:0;stroke-linecap:butt;stroke-linejoin:miter;stroke-miterlimit:4;stroke-opacity:1;stroke-dasharray:none;stroke-dashoffset:0;marker:none;visibility:visible;display:inline;overflow:visible;enable-background:accumulate"
       d="m 154.94426,306.681 c 0.0483,-0.0429 1.02372,-0.86395 2.16761,-1.82444 2.62206,-2.20166 7.36052,-6.24709 9.27089,-7.91496 l 1.46011,-1.27476 1.86295,0 c 1.02462,0 1.82343,0.035 1.77513,0.0777 -0.20362,0.18016 -5.92986,4.30895 -7.16619,5.16704 -3.04773,2.11531 -6.66113,4.41266 -8.59731,5.46604 -0.65775,0.35786 -0.97398,0.48193 -0.77319,0.30338 z"
       id="path4318"
       inkscape:connector-curvature="0"
       transform="translate(24.318169,221.53883)" />
    <path
       style="color:#000000;fill:#ffcc00;fill-opacity:1;stroke:#000000;stroke-width:0;stroke-linecap:butt;stroke-linejoin:miter;stroke-miterlimit:4;stroke-opacity:1;stroke-dasharray:none;stroke-dashoffset:0;marker:none;visibility:visible;display:inline;overflow:visible;enable-background:accumulate"
       d="m 151.22159,307.68596 c -0.54153,-0.33018 -0.52563,-0.9938 0.051,-2.13032 0.47599,-0.93809 1.03991,-1.78691 1.12335,-1.69087 0.0359,0.0413 0.61052,0.72452 1.27702,1.51834 l 1.21183,1.4433 -0.71208,0.33058 c -1.54564,0.71756 -2.39281,0.86941 -2.95115,0.52897 l 0,0 z"
       id="path4320"
       inkscape:connector-curvature="0"
       transform="translate(24.318169,221.53883)" />
    <path
       style="color:#000000;fill:#ffcc00;fill-opacity:1;stroke:#000000;stroke-width:0;stroke-linecap:butt;stroke-linejoin:miter;stroke-miterlimit:4;stroke-opacity:1;stroke-dasharray:none;stroke-dashoffset:0;marker:none;visibility:visible;display:inline;overflow:visible;enable-background:accumulate"
       d="m 192.80736,528.63061 c -3.0743,-6.11827 -3.84186,-10.13757 -3.73815,-19.57474 l 0.0409,-3.72454 0.49036,0.93339 c 1.03745,1.97474 1.35487,3.62516 1.52972,7.95364 0.13388,3.31451 0.30366,4.55598 0.7638,5.58538 1.49245,3.33878 5.54781,1.34367 17.08607,-8.40582 1.07847,-0.91127 2.67416,-2.27854 3.54598,-3.03838 l 1.58513,-1.38152 0.0906,1.03838 c 0.0498,0.57111 0.14284,1.03839 0.20671,1.03839 0.0639,0 -0.18926,0.27942 -0.56254,0.62093 -6.99401,6.39892 -13.21345,12.74548 -18.19095,18.56272 -0.99968,1.16834 -1.85354,2.12426 -1.89745,2.12426 -0.0439,0 -0.47151,-0.77944 -0.95019,-1.73209 l 0,0 z"
       id="path4322"
       inkscape:connector-curvature="0"
       transform="translate(24.318169,221.53883)" />
    <path
       style="color:#000000;fill:#ffcc00;fill-opacity:1;stroke:#000000;stroke-width:0;stroke-linecap:butt;stroke-linejoin:miter;stroke-miterlimit:4;stroke-opacity:1;stroke-dasharray:none;stroke-dashoffset:0;marker:none;visibility:visible;display:inline;overflow:visible;enable-background:accumulate"
       d="m 211.72154,560.25349 c -3.66975,-1.19796 -10.01988,-7.3726 -15.53238,-15.10313 -6.52416,-9.14926 -11.78578,-21.36736 -13.42809,-31.18162 -0.33562,-2.00564 -0.47723,-5.70454 -0.26504,-6.92304 0.4948,-2.84137 2.002,-4.22709 4.02468,-3.7003 0.75176,0.19578 1.61873,0.79914 2.17714,1.51515 l 0.36548,0.46862 -2.03549,0.036 -2.03549,0.036 0,4.23479 c 0,7.70225 0.43568,11.2082 1.94214,15.62853 2.39168,7.01776 7.64748,14.99226 17.03803,25.85143 2.79216,3.22883 6.64559,7.48303 6.77809,7.48303 0.0579,0 0.76069,-0.59563 1.56181,-1.32363 l 1.45658,-1.32362 -0.31814,-0.3431 c -4.95358,-5.34223 -10.77316,-12.23272 -14.03538,-16.61816 -1.7203,-2.31262 -4.09598,-5.75848 -4.09598,-5.94112 0,-0.0546 0.21685,0.0912 0.4819,0.32388 l 0.48191,0.42312 0.33511,-0.38525 c 0.18432,-0.21188 1.15868,-1.35037 2.16525,-2.52996 1.00657,-1.17959 2.83016,-3.23419 4.05242,-4.56578 2.4818,-2.70378 8.68911,-8.96154 10.38129,-10.46566 l 1.09994,-0.97769 -0.0801,2.81055 -0.0801,2.81055 -1.86957,1.82037 c -5.035,4.90248 -7.47656,7.97968 -8.35726,10.53299 -0.43865,1.27171 -0.41274,3.2289 0.061,4.6112 0.62861,1.83407 1.1718,2.80574 4.65689,8.33042 2.8382,4.4992 5.32675,9.06099 5.93924,10.88729 0.41876,1.24867 0.1693,2.76901 -0.561,3.41893 -0.358,0.31859 -1.56199,0.40175 -2.30497,0.15921 l 0,0 z"
       id="path4324"
       inkscape:connector-curvature="0"
       transform="translate(24.318169,221.53883)" />
    <path
       style="color:#000000;fill:#ffcc00;fill-opacity:1;stroke:#000000;stroke-width:0;stroke-linecap:butt;stroke-linejoin:miter;stroke-miterlimit:4;stroke-opacity:1;stroke-dasharray:none;stroke-dashoffset:0;marker:none;visibility:visible;display:inline;overflow:visible;enable-background:accumulate"
       d="m 107.55433,584.12532 c -0.0156,-11.64438 -0.36019,-17.01937 -1.68039,-26.21145 -5.48348,-38.17964 -26.66299,-60.51426 -67.283435,-70.95303 l -6.145217,-1.57921 2.715357,-4.7752 c 4.827,-8.4887 8.851788,-18.38099 11.194489,-27.51429 1.257776,-4.90359 1.485696,-4.65311 0.430854,0.47351 -1.013542,4.92589 -2.39057,10.26592 -4.296767,16.66259 -3.600522,12.08236 -2.725322,13.34591 15.312028,22.10633 14.176839,6.88545 24.340176,13.41747 29.67402,19.07163 9.419817,9.9855 18.238361,31.62835 21.435691,52.6084 0.60147,3.94674 0.80507,7.56475 0.97271,17.28542 l 0.21201,12.29391 10.02517,0.046 10.02517,0.046 -6.10073,0.6652 c -3.35541,0.36586 -8.43509,0.78461 -11.28819,0.93055 l -5.18746,0.26535 -0.0153,-11.42179 -1e-5,0 z"
       id="path4326"
       inkscape:connector-curvature="0"
       transform="translate(24.318169,221.53883)" />
    <path
       style="color:#000000;fill:#ffcc00;fill-opacity:1;stroke:#000000;stroke-width:0;stroke-linecap:butt;stroke-linejoin:miter;stroke-miterlimit:4;stroke-opacity:1;stroke-dasharray:none;stroke-dashoffset:0;marker:none;visibility:visible;display:inline;overflow:visible;enable-background:accumulate"
       d="m 345.13512,688.4787 c -3.43316,-3.17967 -7.8312,-7.0761 -9.77343,-8.65874 -1.94223,-1.58264 -3.39455,-3.01431 -3.22738,-3.18148 0.16717,-0.16717 3.58649,1.84237 7.59848,4.46564 4.012,2.62328 8.73179,5.51479 10.48843,6.42558 l 3.19389,1.65598 2.22549,-1.64538 c 1.22402,-0.90495 2.33149,-1.53288 2.46103,-1.39538 0.12955,0.13749 -1.33045,2.01961 -3.24443,4.18249 l -3.47998,3.93251 -6.2421,-5.78122 0,0 z"
       id="path4328"
       inkscape:connector-curvature="0"
       transform="translate(24.318169,221.53883)" />
    <path
       style="color:#000000;fill:#ffcc00;fill-opacity:1;stroke:#000000;stroke-width:0;stroke-linecap:butt;stroke-linejoin:miter;stroke-miterlimit:4;stroke-opacity:1;stroke-dasharray:none;stroke-dashoffset:0;marker:none;visibility:visible;display:inline;overflow:visible;enable-background:accumulate"
       d="m 216.59073,667.42199 c -0.77176,-1.76637 -2.44461,-5.50565 -3.71744,-8.30952 -2.47725,-5.45703 -2.61348,-7.65253 -0.18137,-2.92316 0.8046,1.56459 2.50998,4.28139 3.78972,6.03733 2.75941,3.78618 2.81435,3.78364 14.76419,-0.68098 4.2417,-1.58476 8.04684,-2.88137 8.45587,-2.88137 0.40902,0 -2.39592,1.59381 -6.23322,3.5418 -3.83729,1.94799 -8.88887,4.64108 -11.22572,5.98465 l -4.24883,2.44284 -1.4032,-3.21159 0,0 z"
       id="path4330"
       inkscape:connector-curvature="0"
       transform="translate(24.318169,221.53883)" />
    <path
       style="color:#000000;fill:#ffcc00;fill-opacity:1;stroke:#000000;stroke-width:0;stroke-linecap:butt;stroke-linejoin:miter;stroke-miterlimit:4;stroke-opacity:1;stroke-dasharray:none;stroke-dashoffset:0;marker:none;visibility:visible;display:inline;overflow:visible;enable-background:accumulate"
       d="m 480.13429,664.57492 c -15.03841,-7.01551 -32.6751,-11.52215 -49.17563,-12.56566 l -9.98302,-0.63134 11.83173,0.2734 c 14.7276,0.34031 22.14518,1.83414 38.67583,7.78894 6.71859,2.42022 12.25574,4.40041 12.30478,4.40041 0.049,0 2.2259,-4.31427 4.83747,-9.58726 2.61158,-5.273 4.88043,-9.45516 5.04189,-9.2937 0.16146,0.16146 -0.70318,2.89509 -1.92142,6.07472 -1.21824,3.17963 -2.79807,7.94414 -3.51072,10.58779 -0.71265,2.64365 -1.49583,5.01046 -1.74039,5.25956 -0.24456,0.24911 -3.1068,-0.78897 -6.36052,-2.30686 z"
       id="path4332"
       inkscape:connector-curvature="0"
       transform="translate(24.318169,221.53883)" />
    <path
       style="color:#000000;fill:#ffcc00;fill-opacity:1;stroke:#000000;stroke-width:0;stroke-linecap:butt;stroke-linejoin:miter;stroke-miterlimit:4;stroke-opacity:1;stroke-dasharray:none;stroke-dashoffset:0;marker:none;visibility:visible;display:inline;overflow:visible;enable-background:accumulate"
       d=""
       id="path4334"
       inkscape:connector-curvature="0"
       transform="translate(24.318169,221.53883)" />
    <path
       style="color:#000000;fill:#ffcc00;fill-opacity:1;stroke:#000000;stroke-width:0;stroke-linecap:butt;stroke-linejoin:miter;stroke-miterlimit:4;stroke-opacity:1;stroke-dasharray:none;stroke-dashoffset:0;marker:none;visibility:visible;display:inline;overflow:visible;enable-background:accumulate"
       d="m 377.60265,34.331326 c -2.99476,-2.148647 -9.69199,-7.136919 -14.88272,-11.08505 -16.02609,-12.189618 -18.46949,-12.705138 -23.79502,-5.020391 -2.11436,3.051023 -8.57351,8.213821 -15.78295,12.615308 -4.51059,2.753794 -6.00362,2.622705 -1.8267,-0.160387 4.97503,-3.314884 15.53231,-12.995429 20.66845,-18.952036 l 5.01326,-5.8140906 9.62846,9.1215056 c 8.23962,7.805795 19.72627,17.361462 26.28809,21.86889 1.00509,0.69042 1.44646,1.272763 0.98081,1.294096 -0.46566,0.02133 -3.29691,-1.719197 -6.29168,-3.867845 z"
       id="path4336"
       inkscape:connector-curvature="0"
       transform="translate(24.318169,221.53883)" />
    <path
       style="color:#000000;fill:#ffcc00;fill-opacity:1;stroke:#000000;stroke-width:0;stroke-linecap:butt;stroke-linejoin:miter;stroke-miterlimit:4;stroke-opacity:1;stroke-dasharray:none;stroke-dashoffset:0;marker:none;visibility:visible;display:inline;overflow:visible;enable-background:accumulate"
       d="m 39.135317,229.08432 c -2.01314,-6.17716 -3.801551,-11.76305 -3.974246,-12.4131 -0.182185,-0.68576 2.671288,-1.88053 6.797616,-2.84619 3.911383,-0.91537 8.288117,-1.94535 9.726074,-2.28887 2.433513,-0.58133 2.469705,-0.53592 0.522894,0.65614 -4.979792,3.04919 -10.171863,7.7164 -10.996213,9.8846 -0.566845,1.49092 -0.323899,4.51873 0.667064,8.31354 2.864955,10.97111 0.962807,10.06544 -2.743189,-1.30612 z"
       id="path4338"
       inkscape:connector-curvature="0"
       transform="translate(24.318169,221.53883)" />
  </g>
</svg>
