<?xml version="1.0" encoding="UTF-8" standalone="no"?>
<!-- Created with Inkscape (http://www.inkscape.org/) -->

<svg
   xmlns:dc="http://purl.org/dc/elements/1.1/"
   xmlns:cc="http://creativecommons.org/ns#"
   xmlns:rdf="http://www.w3.org/1999/02/22-rdf-syntax-ns#"
   xmlns:svg="http://www.w3.org/2000/svg"
   xmlns="http://www.w3.org/2000/svg"
   xmlns:sodipodi="http://sodipodi.sourceforge.net/DTD/sodipodi-0.dtd"
   xmlns:inkscape="http://www.inkscape.org/namespaces/inkscape"
   preserveAspectRatio="xMinYMin meet"
   viewBox="0 0 686.31323 699.63153"
   width="100%"
   height="100%"
   id="svg3045"
   version="1.1"
   inkscape:version="0.48.4 r9939"
   sodipodi:docname="soleil_content_2.svg">
  <defs
     id="defs3047" />
  <sodipodi:namedview
     id="base"
     pagecolor="#ffffff"
     bordercolor="#666666"
     borderopacity="1.0"
     inkscape:pageopacity="0.0"
     inkscape:pageshadow="2"
     inkscape:zoom="4.6048915"
     inkscape:cx="425.57476"
     inkscape:cy="482.29234"
     inkscape:document-units="px"
     inkscape:current-layer="layer1"
     showgrid="false"
     inkscape:window-width="1600"
     inkscape:window-height="838"
     inkscape:window-x="-8"
     inkscape:window-y="-8"
     inkscape:window-maximized="1"
     fit-margin-top="0"
     fit-margin-left="0"
     fit-margin-right="0"
     fit-margin-bottom="0" />
  <metadata
     id="metadata3050">
    <rdf:RDF>
      <cc:Work
         rdf:about="">
        <dc:format>image/svg+xml</dc:format>
        <dc:type
           rdf:resource="http://purl.org/dc/dcmitype/StillImage" />
        <dc:title />
      </cc:Work>
    </rdf:RDF>
  </metadata>
  <g
     inkscape:label="Calque 1"
     inkscape:groupmode="layer"
     id="layer1"
     transform="translate(-33.652305,-227.0179)">
    <path
       style="fill:none;stroke:#000000;stroke-width:3.93258452px;stroke-linecap:butt;stroke-linejoin:miter;stroke-opacity:1"
       d="m 199.13522,622.64985 c 109.99037,64.00567 492.96639,-45.35084 376.61161,-80.86514"
       id="path3016"
       inkscape:connector-curvature="0"
       sodipodi:nodetypes="cc" />
    <path
       style="fill:none;stroke:#000000;stroke-width:3.93258452px;stroke-linecap:butt;stroke-linejoin:miter;stroke-opacity:1"
       d="m 211.11084,600.46484 c -9.64907,12.04913 -15.90018,14.81546 -13.97848,55.91399"
       id="path3018"
       inkscape:connector-curvature="0"
       sodipodi:nodetypes="cc" />
    <path
       style="fill:none;stroke:#000000;stroke-width:3.93258452px;stroke-linecap:butt;stroke-linejoin:miter;stroke-opacity:1"
       d="m 371.44577,674.04278 c 35.28755,8.20121 153.0478,-0.85879 126.88172,-32.25808"
       id="path3020"
       inkscape:connector-curvature="0"
       sodipodi:nodetypes="cc" />
    <path
       style="fill:none;stroke:#000000;stroke-width:3.93258452px;stroke-linecap:butt;stroke-linejoin:miter;stroke-opacity:1"
       d="m 177.89737,526.73093 c 37.32425,-56.84452 75.86231,-110.04755 144.08604,-74.19355"
       id="path3022"
       inkscape:connector-curvature="0"
       sodipodi:nodetypes="cc" />
    <path
       style="fill:none;stroke:#000000;stroke-width:3.93258452px;stroke-linecap:butt;stroke-linejoin:miter;stroke-opacity:1"
       d="m 459.61781,425.65569 c 30.93406,-13.88301 62.15626,-34.10452 90.32256,12.9032"
       id="path3024"
       inkscape:connector-curvature="0"
       sodipodi:nodetypes="cc" />
    <g
       id="g3072"
       style="fill:none" />
    <path
       sodipodi:nodetypes="ccccccccccccccccc"
       inkscape:connector-curvature="0"
       id="path3026-1"
       d="M 88.268312,767.97111 C 112.01389,708.38602 84.866432,668.83947 35.618597,637.99472 67.746248,606.96821 82.963498,567.7414 38.265914,499.46043 117.8377,467.97621 93.156972,421.79279 90.374055,378.69683 c 43.379765,-7.07134 88.092575,-11.66094 91.394505,-93.3475 51.19306,15.214 95.55658,5.35405 126.39953,-54.14524 70.62459,51.93094 108.4449,36.08289 135.39738,-2.2199 36.22007,66.29962 79.6192,72.56241 125.80636,55.5095 13.63864,65.07955 43.05681,98.7772 92.4972,92.6552 2.41603,39.77058 -33.11804,63.38323 55.61101,128.30539 -42.80479,42.91597 -33.45598,89.54155 0.5192,137.91875 -38.70755,26.92644 -79.39181,52.44827 -52.13774,126.24634 -43.88006,2.53615 -86.57016,7.57038 -91.80486,91.23647 -75.51916,-20.96443 -105.81808,11.48968 -128.92089,52.44455 -74.12847,-49.9544 -105.94093,-24.91704 -136.45291,2.42509 -61.95513,-91.1452 -89.4985,-59.33532 -124.34048,-53.60365 -7.57925,-50.18536 -23.31332,-94.09856 -96.074048,-94.15072 z"
       style="fill:none;stroke:#000000;stroke-width:3.93258452px;stroke-linecap:butt;stroke-linejoin:miter;stroke-opacity:1" />
    <path
       style="color:#000000;fill:#ffcc00;fill-opacity:1;stroke:none;stroke-width:0;marker:none;visibility:visible;display:inline;overflow:visible;enable-background:accumulate"
       d="m 269.08009,675.75505 c -27.40438,-37.82635 -54.32387,-55.96743 -78.55707,-52.9397 -3.56234,0.44509 -13.3971,2.65358 -21.85501,4.90776 -8.45792,2.2542 -15.59114,3.73593 -15.85161,3.29277 -0.26046,-0.44316 -0.85357,-3.29335 -1.31798,-6.33375 -1.34301,-8.7921 -6.76849,-28.20506 -10.128,-36.23911 -12.2872,-29.38402 -37.23577,-46.40315 -72.179341,-49.23845 -9.061015,-0.7352 -10.510227,-1.15234 -9.857953,-2.83752 2.056415,-5.31282 5.57138,-22.64235 6.265606,-30.8908 1.488923,-17.69061 -3.92175,-37.51222 -14.641009,-53.63629 C 44.024579,441.41102 26.427575,424.23917 14.644086,416.40368 L 5.8750979,410.5727 11.146689,404.91763 C 41.491636,372.36521 42.61891,332.58073 14.577128,283.84852 L 8.7050867,273.64383 17.092883,269.7576 c 20.02755,-9.27917 34.409698,-21.85682 41.440707,-36.2412 7.072535,-14.46936 7.868234,-30.1902 3.170914,-62.64854 -1.129524,-7.80498 -1.762425,-14.94987 -1.406447,-15.87753 0.37003,-0.96428 3.454205,-2.05894 7.201176,-2.5559 28.02875,-3.71741 49.361547,-12.88797 61.571557,-26.46844 10.48365,-11.66035 18.43758,-32.108283 20.06082,-51.572266 0.44333,-5.315974 1.18036,-10.271033 1.63784,-11.011243 0.58664,-0.94921 4.24807,-0.624818 12.42398,1.100729 12.96568,2.736443 31.02537,3.228225 42.38482,1.154179 9.63826,-1.759785 21.48935,-6.53982 30.90771,-12.466359 9.77619,-6.15171 26.39364,-23.820317 33.47059,-35.587827 l 5.49445,-9.1361405 11.08955,7.1812895 c 43.05859,27.883564 76.67338,31.389376 103.96192,10.842579 4.46032,-3.358385 10.65043,-9.192385 13.7558,-12.964444 l 5.64612,-6.8582895 2.06114,4.0555875 c 6.78001,13.340587 25.43459,34.573372 37.77675,42.997793 20.54064,14.020472 44.60168,17.737972 70.85052,10.94661 5.06734,-1.311072 10.08756,-2.73079 11.15606,-3.154929 1.58444,-0.628939 2.54567,1.529511 5.21203,11.703519 11.39625,43.484502 32.71927,70.335922 61.88775,77.933352 3.86268,1.0061 11.60568,1.82926 17.20672,1.82926 5.60102,0 10.18006,0.4146 10.17563,0.92134 -0.005,0.50673 -1.1533,8.38413 -2.55306,17.50533 -5.24941,34.20651 -2.80012,46.80667 13.13356,67.56446 6.74298,8.7845 20.63838,22.25969 33.26741,32.26137 l 10.05763,7.96525 -3.70622,3.53425 c -8.91917,8.50532 -18.86721,27.14329 -21.95803,41.13905 -2.5045,11.34082 -1.01336,33.94815 3.06992,46.54365 3.61035,11.13666 11.10059,26.94822 16.58522,35.01068 7.1049,10.44427 7.60048,9.04186 -7.0738,20.01808 -33.98187,25.41809 -45.72836,44.08194 -45.72836,72.65719 0,12.24 2.33207,27.86738 5.49748,36.83911 l 1.73413,4.91506 -3.92292,0.55586 c -2.1576,0.30572 -9.1382,1.21416 -15.51244,2.01874 -14.54772,1.83628 -21.83316,3.96715 -32.34404,9.46015 -19.0218,9.94082 -32.20658,32.21577 -36.55474,61.75717 -0.74585,5.06733 -1.60614,10.91924 -1.91175,13.00422 l -0.55565,3.79089 -10.11682,-2.36446 c -7.30119,-1.7064 -15.24518,-2.41753 -28.54349,-2.55518 -20.90481,-0.21636 -29.36017,1.64839 -45.45245,10.02415 -11.21537,5.83741 -26.14155,20.60429 -35.86893,35.48616 l -7.39861,11.31911 -6.00623,-3.82446 c -15.33894,-9.76707 -35.01726,-18.28594 -49.16276,-21.28289 -25.07018,-5.31151 -45.05401,0.0394 -68.45057,18.3284 l -11.37852,8.89456 -6.29686,-8.69158 0,0 z M 414.94656,449.42931 c 8.44556,-1.05412 19.50156,-2.97332 24.5689,-4.26489 17.13174,-4.3666 30.43303,-12.43047 30.90575,-18.7365 0.50897,-6.78956 -1.76288,-13.03826 -4.74033,-13.03826 -2.28534,0 -3.47065,3.53104 -1.75964,5.24204 2.87511,2.87511 1.55581,7.95659 -3.05183,11.75458 -9.9826,8.2285 -34.2218,13.83664 -69.38102,16.05242 -15.10339,0.95183 -47.6563,-0.11216 -51.62262,-1.68727 -1.37333,-0.54538 -2.19875,0.0151 -2.66865,1.81189 -0.88073,3.36798 0.2572,3.74778 14.81756,4.94564 15.46396,1.27219 43.49972,0.34572 62.93188,-2.07965 l 0,0 z M 163.89664,429.64774 c 0.85501,-0.55298 1.57509,-6.22174 1.85924,-14.63673 0.25509,-7.55381 0.81736,-14.08778 1.24951,-14.51992 0.43215,-0.43215 2.91229,0.29466 5.51142,1.61514 22.83052,11.59889 71.58567,17.67296 120.19951,14.97483 68.1336,-3.78149 138.38065,-17.07073 198.34803,-37.52317 59.96037,-20.45007 85.2141,-40.4189 71.24158,-56.33272 -3.73645,-4.25557 -11.07843,-8.46894 -17.45135,-10.01485 -2.84323,-0.6897 -3.37822,-0.42539 -3.37822,1.66898 0,1.82733 1.50864,3.06463 5.67839,4.65706 6.91843,2.64218 13.97672,9.03881 13.97672,12.66652 0,1.48977 -2.56163,5.41018 -5.79086,8.86247 -26.63119,28.47091 -145.75252,62.2844 -246.04028,69.8404 -21.6038,1.6277 -63.22986,1.60436 -78.36176,-0.044 -15.09063,-1.6438 -33.98634,-5.42729 -43.71296,-8.75263 -8.12504,-2.77776 -19.19642,-8.00912 -19.19642,-9.07052 0,-1.48112 4.2533,-8.81185 7.53898,-12.99374 3.96401,-5.04525 4.31861,-6.62344 1.71289,-7.62335 -1.94652,-0.74694 -8.72872,6.79343 -12.11677,13.4713 -2.79072,5.50052 -4.4858,17.60282 -4.49649,32.10349 -0.009,12.27008 0.3377,13.5213 3.22884,11.65142 z M 152.67363,292.10997 c 3.37823,-5.20272 10.92241,-15.83698 16.76487,-23.6317 36.2343,-48.342 67.39166,-61.32998 107.70188,-44.89567 10.09803,4.11693 12.40041,4.19244 12.48602,0.40953 0.0348,-1.53567 -14.01837,-7.34415 -23.868,-9.86522 -13.54422,-3.46672 -32.12714,-2.68517 -43.91903,1.8471 -22.94197,8.81787 -43.05182,28.22546 -69.76998,67.33356 -8.2247,12.03869 -9.78155,15.03822 -8.56571,16.50322 0.81724,0.98472 1.83281,1.78327 2.25681,1.77453 0.42401,-0.009 3.53492,-4.27263 6.91314,-9.47535 l 0,0 z m 364.94853,-80.18523 c 2.79943,0 -5.00773,-11.80531 -12.84569,-19.42413 -2.99716,-2.91337 -8.26559,-6.78297 -11.70763,-8.59912 -5.67826,-2.99606 -7.45369,-3.2955 -19.15693,-3.23088 -13.96199,0.077 -17.06365,0.95098 -39.00312,10.98921 -9.38468,4.2939 -11.92434,6.7294 -8.9403,8.57364 0.65691,0.40599 7.42871,-2.0096 15.04844,-5.36796 25.28811,-11.14562 36.59353,-12.50779 49.50543,-5.96484 6.38743,3.23676 16.84525,13.38755 20.89792,20.28436 1.40007,2.38264 3.03719,3.75698 4.0242,3.37822 0.91516,-0.35117 1.89512,-0.6385 2.17768,-0.6385 z"
       id="path3791"
       inkscape:connector-curvature="0"
       transform="translate(33.652305,227.0179)" />
  </g>
</svg>
