<?xml version="1.0" encoding="UTF-8" standalone="no"?>
<!-- Created with Inkscape (http://www.inkscape.org/) -->

<svg
   xmlns:dc="http://purl.org/dc/elements/1.1/"
   xmlns:cc="http://creativecommons.org/ns#"
   xmlns:rdf="http://www.w3.org/1999/02/22-rdf-syntax-ns#"
   xmlns:svg="http://www.w3.org/2000/svg"
   xmlns="http://www.w3.org/2000/svg"
   xmlns:sodipodi="http://sodipodi.sourceforge.net/DTD/sodipodi-0.dtd"
   xmlns:inkscape="http://www.inkscape.org/namespaces/inkscape"
   preserveAspectRatio="xMinYMin meet"
   viewBox="0 0 698.55621 699.63153"
   width="100%"
   height="100%"
   id="svg3045"
   version="1.1"
   inkscape:version="0.48.4 r9939"
   sodipodi:docname="soleil_pas_content_1.svg">
  <defs
     id="defs3047" />
  <sodipodi:namedview
     id="base"
     pagecolor="#ffffff"
     bordercolor="#666666"
     borderopacity="1.0"
     inkscape:pageopacity="0.0"
     inkscape:pageshadow="2"
     inkscape:zoom="15.299482"
     inkscape:cx="505.50822"
     inkscape:cy="622.78879"
     inkscape:document-units="px"
     inkscape:current-layer="layer1"
     showgrid="false"
     inkscape:window-width="1600"
     inkscape:window-height="838"
     inkscape:window-x="-8"
     inkscape:window-y="-8"
     inkscape:window-maximized="1"
     fit-margin-top="0"
     fit-margin-left="0"
     fit-margin-right="0"
     fit-margin-bottom="0" />
  <metadata
     id="metadata3050">
    <rdf:RDF>
      <cc:Work
         rdf:about="">
        <dc:format>image/svg+xml</dc:format>
        <dc:type
           rdf:resource="http://purl.org/dc/dcmitype/StillImage" />
        <dc:title />
      </cc:Work>
    </rdf:RDF>
  </metadata>
  <g
     inkscape:label="Calque 1"
     inkscape:groupmode="layer"
     id="layer1"
     transform="translate(-24.318169,-221.53883)">
    <path
       style="fill:none;stroke:#000000;stroke-width:6.99999999;stroke-linecap:butt;stroke-linejoin:miter;stroke-opacity:1;stroke-miterlimit:4;stroke-dasharray:none"
       d="M 219.11588,753.96239 C 311.94682,640.57875 643.57029,554.8885 585.70367,635.68786"
       id="path3016"
       inkscape:connector-curvature="0"
       sodipodi:nodetypes="cc" />
    <path
       style="fill:none;stroke:#000000;stroke-width:6.99999999;stroke-linecap:butt;stroke-linejoin:miter;stroke-opacity:1;stroke-miterlimit:4;stroke-dasharray:none"
       d="m 211.28651,726.99351 c 0.35341,15.43248 -2.65705,21.56974 25.23268,51.81779"
       id="path3018"
       inkscape:connector-curvature="0"
       sodipodi:nodetypes="cc" />
    <path
       style="fill:none;stroke:#000000;stroke-width:6.99999999;stroke-linecap:butt;stroke-linejoin:miter;stroke-opacity:1;stroke-miterlimit:4;stroke-dasharray:none"
       d="m 177.89737,526.73093 c 53.01105,-44.29507 70.11048,-70.83054 144.08604,-74.19355"
       id="path3022"
       inkscape:connector-curvature="0"
       sodipodi:nodetypes="cc" />
    <path
       style="fill:#ffcc00;stroke:#000000;stroke-width:6.99999999000000010;stroke-linecap:butt;stroke-linejoin:miter;stroke-opacity:1;stroke-miterlimit:4;stroke-dasharray:none;fill-opacity:1"
       d="m 459.61781,425.65569 c 33.89199,-2.42102 47.92121,-0.82778 90.32256,12.9032"
       id="path3024"
       inkscape:connector-curvature="0"
       sodipodi:nodetypes="cc" />
    <g
       id="g3072"
       style="fill:none">
      <path
         sodipodi:nodetypes="ccccccccccccccccc"
         inkscape:connector-curvature="0"
         id="path3026"
         d="M 53.166188,708.45137 C 87.84486,654.4919 68.742018,610.49195 26.284461,570.81697 63.741974,546.49075 86.164468,510.88824 55.316728,435.33308 139.43403,419.61033 124.01897,369.56611 129.51028,326.73094 c 43.93203,1.33583 88.69908,5.36216 107.52687,-74.19355 47.34953,24.70257 92.77934,23.48874 134.40862,-29.03227 59.41812,64.45263 99.56752,56.11221 133.33332,23.65592 22.90404,71.99263 64.31081,86.42129 112.90323,78.49462 0.9703,66.48623 23.41816,105.17802 73.11832,108.60217 -5.21694,39.50088 -44.60366,55.89948 30.10746,136.55914 -50.2071,33.95995 -49.92663,81.51272 -25.80648,135.48386 -43.13419,19.04598 -87.94076,36.33598 -75.26876,113.97849 -43.55778,-5.88315 -86.42412,-9.08707 -107.52688,72.04301 -70.13146,-34.98899 -106.06624,-8.91246 -136.55915,26.88173 -63.23477,-63.18098 -99.2401,-44.67373 -134.40861,-23.65591 -43.42552,-101.2922 -76.53245,-75.32228 -111.82794,-76.34408 2.13582,-50.7095 -4.93013,-96.8181 -76.344092,-110.7527 z"
         style="fill:none;stroke:#000000;stroke-width:6.99999999;stroke-linecap:butt;stroke-linejoin:miter;stroke-opacity:1;stroke-miterlimit:4;stroke-dasharray:none" />
    </g>
    <path
       style="color:#000000;fill:#ffcc00;fill-opacity:1;stroke:#000000;stroke-width:0;stroke-linecap:butt;stroke-linejoin:miter;stroke-miterlimit:4;stroke-opacity:1;stroke-dasharray:none;stroke-dashoffset:0;marker:none;visibility:visible;display:inline;overflow:visible;enable-background:accumulate"
       d="m 325.96458,671.41441 c -29.56691,-20.68256 -57.61729,-25.39908 -84.42935,-14.19626 -10.04999,4.19915 -19.82652,7.6348 -21.72563,7.6348 -1.89911,0 -7.34734,-8.63624 -12.10716,-19.19167 -4.75983,-10.55542 -16.86236,-26.60721 -26.89451,-35.67065 -16.15012,-14.59068 -21.23621,-16.47899 -44.38506,-16.47899 l -26.14478,0 -0.20875,-17.83533 C 109.81361,553.8287 99.909999,524.91616 88.138901,511.65281 83.312447,506.21451 70.168918,497.65146 58.931058,492.62385 41.46899,484.81159 38.982884,481.9734 41.829999,473.10095 56.752808,426.59708 50.835546,396.21991 20.520318,363.70446 9.1128814,351.46909 8.740495,349.89653 16.25312,345.68442 c 4.527002,-2.53817 13.901435,-14.29086 20.832074,-26.1171 11.218008,-19.14208 12.330094,-24.99483 10.131609,-53.32127 -1.358254,-17.50046 -3.888552,-35.25866 -5.622885,-39.46266 -2.401854,-5.82207 3.25617,-10.77952 23.742002,-20.80231 30.302741,-14.82575 36.98479,-25.84433 42.26306,-69.691 l 3.22566,-26.79563 28.32717,-2.049 c 34.95827,-2.52866 50.31743,-12.857134 66.24803,-44.549366 l 11.89022,-23.654336 16.64631,5.769509 c 9.15547,3.173231 24.25198,5.89031 33.5478,6.037954 19.12316,0.303729 64.29827,-20.387691 72.22552,-33.081237 4.79404,-7.676478 7.22539,-6.823785 28.50533,9.997036 37.29089,29.476755 69.80758,33.883274 99.10573,13.430382 l 12.22631,-8.535125 5.91747,16.36449 c 13.62819,37.688057 43.98435,59.165953 83.62325,59.165953 21.24358,0 21.55516,0.22838 21.55516,15.79906 0,38.51906 31.97075,88.83486 56.44586,88.83486 13.40546,0 14.66335,4.21793 7.39862,24.8084 -12.39527,35.13194 -5.57366,62.66612 24.33034,98.205 10.74538,12.77012 11.43786,15.31343 4.85734,17.83861 -4.22107,1.61979 -12.96861,11.97837 -19.43889,23.01908 -13.67147,23.32865 -15.63036,57.02329 -5.05724,86.99069 l 6.70694,19.00943 -23.94139,11.21357 c -33.38169,15.63511 -47.86831,36.13209 -50.41434,71.33071 l -2.03051,28.07152 -24.88352,0 c -32.73601,0 -53.39897,13.64674 -69.09497,45.63328 l -11.89021,24.23084 -16.64631,-6.03371 c -36.709,-13.30573 -76.92258,-5.71373 -99.51787,18.78816 -6.34164,6.87673 -12.76236,12.48435 -14.26826,12.46138 -1.50591,-0.0238 -13.76119,-7.75271 -27.23395,-17.17718 z M 214.91202,557.67366 c 0,-1.39995 -3.28348,-7.55661 -7.29662,-13.68145 -7.03225,-10.73254 -6.45154,-11.8897 16.02751,-31.93623 66.97718,-59.72953 213.05143,-119.09521 295.65871,-120.15796 l 40.42675,-0.5201 -0.89538,13.07924 c -1.12097,16.37417 6.81433,17.19876 10.84806,1.12726 4.86163,-19.37043 -4.94205,-26.10588 -37.88252,-26.02642 -84.27039,0.20328 -245.24312,63.54844 -312.86025,123.11513 -25.23049,22.22657 -27.8067,23.15168 -27.8067,9.98502 0,-5.23169 -2.40777,-9.51217 -5.3506,-9.51217 -8.0597,0 -1.39125,26.23581 10.89091,42.8483 9.46302,12.79944 18.24013,18.41952 18.24013,11.67938 z M 191.96508,279.55813 c 34.06633,-28.60332 65.55809,-42.75306 95.15148,-42.75306 7.37277,0 13.40503,-2.43835 13.40503,-5.41857 0,-8.81724 -46.38289,-1.04303 -73.43116,12.30776 -25.32922,12.50227 -85.42008,63.85905 -75.15771,64.23368 3.29118,0.12014 21.30574,-12.64627 40.03236,-28.36981 l 0,0 z M 528.8138,218.00428 c 0,-6.35754 -30.26689,-14.60817 -65.39621,-17.82675 -20.62974,-1.89011 -29.72554,-1.0689 -29.72554,2.68377 0,3.17635 8.33953,5.44509 20.21337,5.49899 11.11735,0.0505 30.91457,3.06944 43.99381,6.70885 29.94461,8.33234 30.91457,8.42444 30.91457,2.93514 l 0,0 z"
       id="path4292"
       inkscape:connector-curvature="0"
       transform="translate(24.318169,221.53883)" />
    <path
       style="color:#000000;fill:#ffcc00;fill-opacity:1;stroke:#000000;stroke-width:0;stroke-linecap:butt;stroke-linejoin:miter;stroke-miterlimit:4;stroke-opacity:1;stroke-dasharray:none;stroke-dashoffset:0;marker:none;visibility:visible;display:inline;overflow:visible;enable-background:accumulate"
       d="m 513.55039,489.86126 0,-97.48158 1.26334,-0.16265 c 1.16002,-0.14935 44.58919,-0.78945 44.71952,-0.65912 0.0315,0.0315 -0.14517,2.79605 -0.39257,6.14347 -0.48177,6.51843 -0.40802,14.29628 0.15248,16.07923 0.77845,2.47631 2.34293,3.83786 3.9472,3.43522 4.21584,-1.05811 8.85458,-15.58596 7.41627,-23.22668 -0.76355,-4.05617 -3.30185,-7.54831 -7.00616,-9.63889 -3.77979,-2.13319 -10.51711,-3.75693 -18.591,-4.48058 -4.51407,-0.40458 -20.92174,-0.35129 -26.82741,0.0872 l -4.68188,0.34757 1.1e-4,-56.40422 10e-5,-56.40423 67.43059,0 67.43058,0 0.19783,4.38452 c 0.48122,10.66496 2.89534,20.26175 7.74346,30.78241 l 1.06919,2.3202 0,43.36748 0,43.36749 -0.72404,2.31908 c -1.55685,4.9865 -2.8207,10.95939 -3.63564,17.18184 -0.74848,5.71498 -0.75693,20.71015 -0.015,26.64949 0.69999,5.60373 1.78479,11.30659 3.18754,16.75702 l 1.18715,4.61278 -0.004,13.7418 -0.004,13.7418 -9.26823,4.31021 c -13.50685,6.28139 -20.08347,9.9645 -26.84048,15.03153 -13.63802,10.22704 -21.81961,22.00321 -26.29597,37.8491 -2.35821,8.34785 -3.1613,14.37046 -4.51294,33.84365 l -0.6654,9.58649 -38.1404,0 -38.1404,0 0,-97.48158 z"
       id="path4298"
       inkscape:connector-curvature="0"
       transform="translate(24.318169,221.53883)" />
    <path
       style="color:#000000;fill:#ffcc00;fill-opacity:1;stroke:#000000;stroke-width:0;stroke-linecap:butt;stroke-linejoin:miter;stroke-miterlimit:4;stroke-opacity:1;stroke-dasharray:none;stroke-dashoffset:0;marker:none;visibility:visible;display:inline;overflow:visible;enable-background:accumulate"
       d=""
       id="path4308"
       inkscape:connector-curvature="0"
       transform="translate(24.318169,221.53883)" />
    <path
       style="color:#000000;fill:#ffcc00;fill-opacity:1;stroke:#000000;stroke-width:0;stroke-linecap:butt;stroke-linejoin:miter;stroke-miterlimit:4;stroke-opacity:1;stroke-dasharray:none;stroke-dashoffset:0;marker:none;visibility:visible;display:inline;overflow:visible;enable-background:accumulate"
       d=""
       id="path4334"
       inkscape:connector-curvature="0"
       transform="translate(24.318169,221.53883)" />
    <path
       style="color:#000000;fill:#ffcc00;fill-opacity:1;stroke:none;stroke-width:1.35997843999999990;stroke-linecap:butt;stroke-linejoin:miter;stroke-miterlimit:4;stroke-opacity:1;stroke-dasharray:none;stroke-dashoffset:0;marker:none;visibility:visible;display:inline;overflow:visible;enable-background:accumulate"
       d="m 524.30588,221.56003 c -2.85484,-0.29072 -7.4215,-1.39492 -20.10826,-4.8621 -12.27563,-3.35481 -16.9742,-4.42507 -25.83959,-5.88581 -10.01948,-1.6509 -16.09686,-2.26115 -26.22816,-2.63363 -4.1429,-0.15232 -9.98671,-0.68159 -9.76738,-0.88463 0.0293,-0.0271 2.54493,-0.15152 5.59031,-0.27646 l 5.53705,-0.22717 25.06246,3.60725 25.06246,3.60725 3.49709,1.04307 c 1.9234,0.5737 6.6323,2.02746 10.46421,3.2306 4.79702,1.50615 7.00929,2.1193 7.10249,1.96849 0.0745,-0.12046 0.48005,-1.35537 0.90133,-2.74424 0.42127,-1.38888 0.8116,-2.52564 0.8674,-2.52615 0.33589,-0.003 1.57883,1.29603 1.92583,2.01282 0.33873,0.69974 0.38816,1.04896 0.28189,1.99163 -0.0709,0.62871 -0.24375,1.37123 -0.38416,1.65003 -0.43849,0.8707 -1.68042,1.16171 -3.96497,0.92905 l 0,0 z"
       id="path4338"
       inkscape:connector-curvature="0"
       transform="translate(24.318169,221.53883)" />
    <path
       style="color:#000000;fill:#ffcc00;fill-opacity:1;stroke:none;stroke-width:7;marker:none;visibility:visible;display:inline;overflow:visible;enable-background:accumulate"
       d="m 435.80873,200.47547 c 0,-0.0672 1.37723,-0.46059 2.19806,-0.6279 2.09426,-0.42688 4.22702,-0.57428 8.32864,-0.57558 3.02142,-9.6e-4 5.87334,0.0963 8.87802,0.30287 l 1.3051,0.0897 -1.85461,0.009 c -3.57954,0.018 -10.03741,0.29038 -15.71801,0.66305 -2.64489,0.17352 -3.1372,0.19526 -3.1372,0.13854 z"
       id="path4340"
       inkscape:connector-curvature="0"
       transform="translate(24.318169,221.53883)" />
    <path
       style="color:#000000;fill:#ffcc00;fill-opacity:1;stroke:none;stroke-width:7;marker:none;visibility:visible;display:inline;overflow:visible;enable-background:accumulate"
       d="m 434.78437,204.67735 c -0.29945,-0.25354 -0.60461,-0.59102 -0.75278,-0.83252 -0.23559,-0.38396 -0.24919,-0.43834 -0.24919,-0.99599 0,-0.53241 0.0207,-0.62666 0.21274,-0.96766 0.12765,-0.22667 0.37306,-0.50788 0.61352,-0.70303 0.22042,-0.17888 0.40876,-0.31724 0.41854,-0.30746 0.0276,0.0276 0.30634,4.18746 0.28218,4.21162 -0.0118,0.0118 -0.24804,-0.17045 -0.52501,-0.40496 z"
       id="path4342"
       inkscape:connector-curvature="0"
       transform="translate(24.318169,221.53883)" />
    <path
       style="color:#000000;fill:#ffcc00;fill-opacity:1;stroke:none;stroke-width:7;marker:none;visibility:visible;display:inline;overflow:visible;enable-background:accumulate"
       d="m 254.43226,241.44243 0.009,-0.85378 1.30509,-0.33572 c 11.77076,-3.02784 25.26483,-4.91228 40.55204,-5.66308 l 1.57087,-0.0772 -0.018,-0.22493 c -0.0358,-0.44809 -0.29451,-5.74449 -0.28121,-5.75779 0.0311,-0.0311 0.77303,0.25538 1.13669,0.43895 0.59147,0.29858 1.2206,0.83242 1.45941,1.23838 0.42989,0.73079 0.44513,1.48898 0.0458,2.28001 -1.00388,1.98867 -4.90029,3.62347 -9.84622,4.13113 -1.09814,0.11271 -1.72509,0.1406 -3.94964,0.17569 -2.04278,0.0322 -3.11895,0.0657 -4.41329,0.13717 -8.77954,0.48496 -17.66096,2.17265 -26.6809,5.07004 -0.44122,0.14173 -0.82401,0.26605 -0.85064,0.27627 -0.041,0.0157 -0.047,-0.11204 -0.0392,-0.83519 z"
       id="path4344"
       inkscape:connector-curvature="0"
       transform="translate(24.318169,221.53883)" />
    <path
       style="color:#000000;fill:#ffcc00;fill-opacity:1;stroke:none;stroke-width:7;marker:none;visibility:visible;display:inline;overflow:visible;enable-background:accumulate"
       d="m 265.60347,230.86398 c 0.19007,-0.0544 2.79743,-0.59218 4.04304,-0.83383 6.90455,-1.3395 13.2947,-2.15182 18.41835,-2.34135 1.11333,-0.0412 4.14887,-0.021 4.49915,0.03 0.12771,0.0186 -0.0836,0.0406 -0.82427,0.086 -8.19505,0.50203 -17.05492,1.51433 -24.41904,2.79004 -1.39011,0.24081 -1.89389,0.31978 -1.71723,0.26919 z"
       id="path4346"
       inkscape:connector-curvature="0"
       transform="translate(24.318169,221.53883)" />
    <path
       style="color:#000000;fill:#ffcc00;fill-opacity:1;stroke:none;stroke-width:7;marker:none;visibility:visible;display:inline;overflow:visible;enable-background:accumulate"
       d=""
       id="path4348"
       inkscape:connector-curvature="0"
       transform="translate(24.318169,221.53883)" />
    <path
       style="color:#000000;fill:#ffcc00;fill-opacity:1;stroke:none;stroke-width:7;marker:none;visibility:visible;display:inline;overflow:visible;enable-background:accumulate"
       d="m 180.49364,287.74913 0,-1.04265 4.83825,-4.2071 c 15.92634,-13.84871 24.94293,-20.84519 34.72677,-26.94646 10.17858,-6.34743 21.59857,-11.36875 33.03955,-14.52735 0.45335,-0.12516 0.93246,-0.25914 1.06469,-0.29773 0.20963,-0.0612 0.24041,0.0331 0.24041,0.73632 l 0,0.80649 -0.996,0.31697 c -0.54779,0.17433 -2.29872,0.80133 -3.89096,1.39332 -13.24752,4.92548 -27.60521,12.89627 -41.89045,23.25582 -5.52314,4.00535 -9.76828,7.35112 -19.02693,14.99589 -1.92673,1.59089 -4.27591,3.5044 -5.22038,4.25226 -0.94448,0.74785 -1.97997,1.57284 -2.3011,1.8333 l -0.58385,0.47357 0,-1.04265 z"
       id="path4350"
       inkscape:connector-curvature="0"
       transform="translate(24.318169,221.53883)" />
    <path
       style="color:#000000;fill:#ffcc00;fill-opacity:1;stroke:none;stroke-width:7;marker:none;visibility:visible;display:inline;overflow:visible;enable-background:accumulate"
       d="m 329.90045,444.59232 0,-0.87917 1.50569,-0.69537 c 64.42733,-29.75421 138.39864,-51.95218 187.62847,-56.30523 24.5872,-2.17407 41.06325,0.70969 44.66511,7.81763 1.737,3.42781 0.4717,8.67125 -3.63973,15.0832 l -1.00316,1.56446 -0.0622,-3.20428 c -0.0374,-1.92735 0.11156,-5.85545 0.37378,-9.85705 0.23978,-3.65903 0.39202,-6.69672 0.33832,-6.75042 -0.15021,-0.15022 -42.2684,0.45703 -46.88918,0.67604 -47.22508,2.23838 -115.32611,21.94592 -179.6739,51.99527 -1.68904,0.78875 -3.10974,1.4341 -3.1571,1.4341 -0.0474,0 -0.0861,-0.39563 -0.0861,-0.87918 z"
       id="path4352"
       inkscape:connector-curvature="0"
       transform="translate(24.318169,221.53883)" />
    <path
       style="color:#000000;fill:#ffcc00;fill-opacity:1;stroke:none;stroke-width:7;marker:none;visibility:visible;display:inline;overflow:visible;enable-background:accumulate"
       d="m 561.68853,416.86879 c -0.26225,-0.13798 -0.74424,-0.60149 -1.07109,-1.03003 -0.59978,-0.78636 -1.22911,-2.33445 -1.02996,-2.5336 0.0593,-0.0593 1.17883,0.5866 2.48791,1.43528 l 2.38014,1.54306 -0.49312,0.3231 c -0.6788,0.44477 -1.70252,0.56281 -2.27388,0.26219 l 0,0 z"
       id="path4354"
       inkscape:connector-curvature="0"
       transform="translate(24.318169,221.53883)" />
    <path
       style="color:#000000;fill:#ffcc00;fill-opacity:1;stroke:none;stroke-width:7;marker:none;visibility:visible;display:inline;overflow:visible;enable-background:accumulate"
       d="m 211.36763,550.9872 c -0.25591,-0.31409 -1.51925,-1.7804 -2.80741,-3.25846 -3.90048,-4.47549 -7.87876,-9.48356 -9.96772,-12.54792 l -0.62957,-0.92353 2.32185,-2.68487 c 23.4153,-27.07626 61.68626,-54.17591 112.13024,-79.39935 6.08954,-3.04495 14.14355,-6.94655 16.46545,-7.97635 l 1.01998,-0.45238 0,0.91495 0,0.91496 -2.86567,1.33246 c -4.70097,2.18583 -21.48338,10.72032 -27.6367,14.05431 -33.24486,18.01272 -57.60253,34.60983 -78.87875,53.74731 -11.57248,10.40918 -15.34313,14.51701 -16.5189,17.99608 -0.34717,1.02728 -0.40911,1.55447 -0.33205,2.8263 0.13231,2.1837 0.72953,3.48402 4.07329,8.86873 3.26662,5.26047 4.27553,6.97455 4.16835,7.08173 -0.0424,0.0424 -0.28648,-0.17988 -0.54239,-0.49397 l 0,0 z"
       id="path4356"
       inkscape:connector-curvature="0"
       transform="translate(24.318169,221.53883)" />
    <path
       style="color:#000000;fill:#ffcc00;fill-opacity:1;stroke:none;stroke-width:7;marker:none;visibility:visible;display:inline;overflow:visible;enable-background:accumulate"
       d="m 193.17118,525.72836 c -1.01151,-2.40296 -1.71617,-4.79533 -2.09234,-7.10365 -0.31844,-1.95401 -0.58626,-9.85393 -0.29001,-8.55423 0.0974,0.42742 0.18444,1.60769 0.19335,2.62281 0.0204,2.31839 0.31749,5.4284 0.6128,6.41406 0.12401,0.4139 0.49054,1.07412 0.81452,1.46716 l 0.58904,0.71461 1.27774,-0.0921 c 1.44537,-0.10418 2.46928,-0.55653 5.06624,-2.23818 2.44735,-1.58477 7.60141,-5.68668 12.10065,-9.63044 0.72488,-0.63539 1.35923,-1.11399 1.40967,-1.06355 0.0504,0.0504 -1.5483,1.62682 -3.55275,3.50308 -5.04393,4.72135 -7.85007,7.62961 -14.62337,15.15558 l -0.683,0.7589 -0.82254,-1.95405 0,0 z"
       id="path4358"
       inkscape:connector-curvature="0"
       transform="translate(24.318169,221.53883)" />
    <path
       style="color:#000000;fill:#ffcc00;fill-opacity:1;stroke:none;stroke-width:7;marker:none;visibility:visible;display:inline;overflow:visible;enable-background:accumulate"
       d="m 211.58232,560.16271 c -1.76818,-0.61798 -1.77437,-0.58099 0.42799,-2.55934 1.08944,-0.97863 2.04743,-1.77933 2.12886,-1.77933 0.31247,0 0.70682,1.87201 0.55588,2.63884 -0.22501,1.1432 -0.38711,1.42819 -0.98951,1.73971 -0.68211,0.35273 -1.01794,0.34642 -2.12322,-0.0399 z"
       id="path4360"
       inkscape:connector-curvature="0"
       transform="translate(24.318169,221.53883)" />
    <path
       style="color:#000000;fill:#ffcc00;fill-opacity:1;stroke:none;stroke-width:7;marker:none;visibility:visible;display:inline;overflow:visible;enable-background:accumulate"
       d="m 205.14085,555.57728 c -2.22683,-2.12874 -4.47944,-4.65853 -6.87044,-7.71585 -1.86273,-2.38183 -5.33922,-7.4762 -5.33922,-7.82398 0,-0.25724 -0.21481,-0.51722 2.04763,2.47823 3.24274,4.29335 4.53215,5.84688 11.62094,14.00128 1.2319,1.41708 0.54081,0.97195 -1.45891,-0.93968 l 0,0 z"
       id="path4362"
       inkscape:connector-curvature="0"
       transform="translate(24.318169,221.53883)" />
    <path
       style="color:#000000;fill:#ffcc00;fill-opacity:1;stroke:none;stroke-width:7;marker:none;visibility:visible;display:inline;overflow:visible;enable-background:accumulate"
       d="m 377.377,34.659768 c -3.10947,-2.162719 -5.74393,-4.136233 -11.33373,-8.490267 -10.12783,-7.888815 -13.43164,-10.21667 -16.68687,-11.757496 -2.53015,-1.197623 -4.24787,-1.416698 -5.77453,-0.736473 -0.96571,0.43029 -2.40449,1.934461 -3.73563,3.905432 -1.86215,2.757231 -3.73055,4.668627 -7.2604,7.427486 -2.47764,1.936479 -10.6458,7.244419 -10.84365,7.046568 -0.0356,-0.03562 0.59749,-0.555845 1.40691,-1.15606 7.25007,-5.376207 16.62823,-14.435342 23.59972,-22.7969118 l 0.55676,-0.6677745 3.83936,3.8905043 c 9.72386,9.853406 19.11137,18.058778 27.02199,23.619194 0.88781,0.624045 1.6142,1.160989 1.6142,1.19321 0,0.163712 -0.38285,-0.07156 -2.40413,-1.477412 l 0,0 z"
       id="path4364"
       inkscape:connector-curvature="0"
       transform="translate(24.318169,221.53883)" />
    <path
       style="color:#000000;fill:#ffcc00;fill-opacity:1;stroke:none;stroke-width:7;marker:none;visibility:visible;display:inline;overflow:visible;enable-background:accumulate"
       d="m 209.30202,54.837702 c -0.004,-0.06063 0.3867,-1.204306 0.86874,-2.541504 1.5244,-4.228688 3.44722,-10.447133 4.62416,-14.954617 l 0.29268,-1.120927 1.73988,0.826298 c 16.27013,7.726932 30.88039,11.864022 45.49497,12.882506 2.51237,0.175086 9.72824,0.17897 11.81455,0.0064 0.86892,-0.07189 2.10533,-0.161447 2.74757,-0.199014 l 1.16772,-0.0683 -1.57985,0.333029 c -2.91894,0.615306 -5.87411,0.925761 -8.79223,0.923669 -8.50206,-0.0061 -22.95256,-2.504473 -32.62741,-5.641008 -1.13337,-0.367434 -5.56211,-1.882621 -9.84163,-3.367082 -4.27952,-1.484461 -7.83444,-2.69902 -7.89983,-2.69902 -0.0654,0 -1.89249,3.539216 -4.06025,7.864924 -2.16775,4.325707 -3.94483,7.815318 -3.94907,7.754689 z"
       id="path4366"
       inkscape:connector-curvature="0"
       transform="translate(24.318169,221.53883)" />
    <path
       style="color:#000000;fill:#ffcc00;fill-opacity:1;stroke:none;stroke-width:7;marker:none;visibility:visible;display:inline;overflow:visible;enable-background:accumulate"
       d="m 651.58654,247.55171 c 8.9e-4,-0.48634 1.63859,-5.8661 2.93701,-9.64791 2.93831,-8.55817 4.03246,-12.66303 4.34821,-16.3128 0.16282,-1.8821 -0.10363,-3.78826 -0.69093,-4.94279 -0.10091,-0.19836 -0.38539,-0.60856 -0.63219,-0.91157 l -0.44873,-0.55091 0.32859,0.0616 c 0.4581,0.0859 3.59698,0.52282 4.33581,0.60347 0.49762,0.0543 0.60141,0.0954 0.56496,0.22372 -0.0246,0.0864 -0.15982,0.70359 -0.30057,1.37144 -0.73632,3.49363 -2.0588,7.90623 -3.77024,12.5798 -0.29347,0.80141 -1.429,3.77394 -2.52339,6.60561 -2.21416,5.729 -2.84671,7.41936 -3.56508,9.52688 -0.4855,1.42433 -0.58394,1.65944 -0.58345,1.39342 l 0,0 z"
       id="path4368"
       inkscape:connector-curvature="0"
       transform="translate(24.318169,221.53883)" />
    <path
       style="color:#000000;fill:#ffcc00;fill-opacity:1;stroke:none;stroke-width:7;marker:none;visibility:visible;display:inline;overflow:visible;enable-background:accumulate"
       d="m 645.12639,212.87093 c -4.90854,-0.50986 -10.58813,-3.17102 -16.12546,-7.55554 -1.34807,-1.06742 -3.75066,-3.14224 -3.69875,-3.19416 0.0194,-0.0194 0.59731,0.36989 1.28418,0.86514 2.84277,2.04967 5.63453,3.70971 9.21446,5.47911 3.43201,1.6963 6.63737,2.99138 10.0569,4.06336 l 1.40577,0.44069 -0.67998,-0.009 c -0.374,-0.005 -1.0297,-0.0453 -1.45712,-0.0897 l 0,0 z"
       id="path4370"
       inkscape:connector-curvature="0"
       transform="translate(24.318169,221.53883)" />
    <path
       style="color:#000000;fill:#ffcc00;fill-opacity:1;stroke:none;stroke-width:7;marker:none;visibility:visible;display:inline;overflow:visible;enable-background:accumulate"
       d="m 589.91447,113.47007 c -0.28318,-0.97101 -0.77704,-1.8182 -1.44772,-2.48347 -0.96045,-0.9527 -1.98705,-1.46863 -3.67916,-1.84898 -0.70354,-0.15814 -0.73656,-0.17608 -0.4231,-0.2298 0.65905,-0.11294 5.46009,-0.66087 5.49395,-0.62701 0.0521,0.0521 0.26184,5.14436 0.22286,5.41139 -0.0269,0.1845 -0.0618,0.13812 -0.16683,-0.22213 l 0,0 z"
       id="path4372"
       inkscape:connector-curvature="0"
       transform="translate(24.318169,221.53883)" />
    <path
       style="color:#000000;fill:#ffcc00;fill-opacity:1;stroke:none;stroke-width:7;marker:none;visibility:visible;display:inline;overflow:visible;enable-background:accumulate"
       d="m 687.79159,350.89875 c 0.25135,-0.71665 0.11937,-1.88232 -0.3403,-3.00562 -0.93833,-2.29303 -2.52976,-4.52076 -7.78689,-10.90036 -1.57847,-1.91549 -3.54196,-4.31974 -4.36331,-5.34277 -10.95941,-13.65049 -18.14202,-25.81273 -22.35092,-37.84657 -0.37614,-1.07545 -0.68313,-2.03002 -0.68219,-2.12127 9.4e-4,-0.0913 0.38946,0.79579 0.86338,1.9712 5.41538,13.43132 14.87654,27.96754 29.33695,45.07358 1.67568,1.98225 5.48475,6.33695 7.32517,8.37446 l 1.42226,1.57457 -1.72033,1.2911 c -0.94618,0.7101 -1.74958,1.30421 -1.78533,1.32025 -0.0357,0.016 9.7e-4,-0.15882 0.0815,-0.38857 l 0,0 z"
       id="path4374"
       inkscape:connector-curvature="0"
       transform="translate(24.318169,221.53883)" />
    <path
       style="color:#000000;fill:#ffcc00;fill-opacity:1;stroke:none;stroke-width:7;marker:none;visibility:visible;display:inline;overflow:visible;enable-background:accumulate"
       d="m 669.266,369.23784 c 0,-0.12531 2.80672,-3.9163 4.05203,-5.47302 3.5764,-4.47072 6.81521,-7.71542 9.21256,-9.22934 0.46032,-0.29069 2.47514,-1.21958 2.52726,-1.16514 0.0131,0.0137 -0.53781,0.49593 -1.22432,1.07159 -4.88267,4.09425 -10.30151,9.56347 -13.68871,13.81597 -0.75129,0.94322 -0.87882,1.08542 -0.87882,0.97994 z"
       id="path4376"
       inkscape:connector-curvature="0"
       transform="translate(24.318169,221.53883)" />
    <path
       style="color:#000000;fill:#ffcc00;fill-opacity:1;stroke:none;stroke-width:7;marker:none;visibility:visible;display:inline;overflow:visible;enable-background:accumulate"
       d="m 39.567815,485.19481 -4.235896,-1.20457 2.260392,-3.99497 2.260391,-3.99496 0.626125,3.13062 c 0.344369,1.72184 1.675037,4.10784 2.957039,5.3022 2.596967,2.41944 2.221531,2.49337 -3.868051,0.76168 z"
       id="path4378"
       inkscape:connector-curvature="0"
       transform="translate(24.318169,221.53883)" />
    <path
       style="color:#000000;fill:#ffcc00;fill-opacity:1;stroke:none;stroke-width:7;marker:none;visibility:visible;display:inline;overflow:visible;enable-background:accumulate"
       d="m 38.136574,221.33812 c -1.60178,-4.42964 -1.006168,-5.14171 5.137943,-6.14254 l 4.699741,-0.76556 -3.392507,3.16908 c -1.86588,1.74299 -3.392508,3.8937 -3.392508,4.77935 0,3.1862 -1.738586,2.5937 -3.052669,-1.04033 z"
       id="path4380"
       inkscape:connector-curvature="0"
       transform="translate(24.318169,221.53883)" />
    <path
       style="color:#000000;fill:#ffcc00;fill-opacity:1;stroke:none;stroke-width:7;marker:none;visibility:visible;display:inline;overflow:visible;enable-background:accumulate"
       d="m 44.133992,241.51496 c -1.458581,-5.85672 -4.58745,-15.52457 -7.426189,-22.94608 -0.43401,-1.13466 -0.766455,-2.08031 -0.738767,-2.10145 0.02769,-0.0211 0.932724,-0.22988 2.011192,-0.46387 4.437104,-0.96267 9.952041,-2.4267 14.114474,-3.7469 1.004561,-0.31862 1.88306,-0.57931 1.952219,-0.57931 0.06916,0 -0.689486,0.47664 -1.685876,1.05919 -3.63715,2.12649 -6.248871,3.98436 -8.13553,5.78725 -1.347234,1.28742 -2.018026,2.13464 -2.545838,3.21545 -0.196402,0.40217 -0.355865,0.61151 -0.359489,0.47191 -0.0093,-0.35976 0.697231,-1.56957 1.502347,-2.57235 0.380815,-0.47432 1.698436,-1.82688 2.928047,-3.0057 1.229611,-1.17882 2.175998,-2.16319 2.103084,-2.18749 -0.184602,-0.0615 -5.696296,0.85012 -7.128247,1.17904 -1.399865,0.32154 -2.740518,0.9225 -3.024351,1.35569 -0.512556,0.78226 -0.417518,2.17557 0.280281,4.1091 0.952628,2.63962 2.21952,4.03322 2.849229,3.13419 0.170227,-0.24304 0.190738,-0.19772 0.251452,0.55557 0.03636,0.45111 0.283808,1.4932 0.549888,2.31577 0.826392,2.55472 1.624758,6.43372 2.47687,12.03429 0.561423,3.69 0.643396,4.31387 0.566815,4.31387 -0.03378,0 -0.277502,-0.86767 -0.541611,-1.92817 z"
       id="path4382"
       inkscape:connector-curvature="0"
       transform="translate(24.318169,221.53883)" />
    <path
       style="color:#000000;fill:#ffcc00;fill-opacity:1;stroke:none;stroke-width:7;marker:none;visibility:visible;display:inline;overflow:visible;enable-background:accumulate"
       d="M 10.153773,352.23764 7.6526618,349.75067 9.18487,348.6667 c 7.294071,-5.16024 13.655502,-10.69571 18.731472,-16.2994 0.759853,-0.83885 1.689988,-1.88892 2.066966,-2.33349 0.376976,-0.44457 0.703999,-0.78972 0.726717,-0.767 0.101346,0.10135 -3.896094,5.48213 -5.839958,7.86092 -2.676236,3.27502 -5.44452,6.15032 -7.31277,7.59548 -0.499216,0.38615 -1.387294,0.9618 -2.126014,1.37807 -1.998219,1.12599 -3.545435,2.44913 -3.98395,3.40697 -0.316061,0.69037 -0.377524,1.41615 -0.184577,2.17956 0.173536,0.68659 0.744029,1.92951 1.169444,2.54783 0.159533,0.23187 0.2749,0.43674 0.256372,0.45527 -0.01853,0.0185 -1.159187,-1.08544 -2.534799,-2.45327 l 0,0 z"
       id="path4384"
       inkscape:connector-curvature="0"
       transform="translate(24.318169,221.53883)" />
    <path
       style="color:#000000;fill:#ffcc00;fill-opacity:1;stroke:none;stroke-width:7;marker:none;visibility:visible;display:inline;overflow:visible;enable-background:accumulate"
       d="m 163.68675,301.28888 c 0,-0.0132 0.27207,-0.2547 0.6046,-0.53656 1.60984,-1.36459 15.44849,-13.40706 15.98093,-13.9067 l 0.21242,-0.19933 -2.3e-4,1.10763 -2.3e-4,1.10763 -1.12687,0.88238 c -5.17531,4.05246 -10.6679,8.14364 -14.63656,10.90212 -0.88813,0.61731 -1.03406,0.70802 -1.03406,0.64283 z"
       id="path4386"
       inkscape:connector-curvature="0"
       transform="translate(24.318169,221.53883)" />
    <path
       style="color:#000000;fill:#ffcc00;fill-opacity:1;stroke:none;stroke-width:7;marker:none;visibility:visible;display:inline;overflow:visible;enable-background:accumulate"
       d=""
       id="path4388"
       inkscape:connector-curvature="0"
       transform="translate(24.318169,221.53883)" />
    <path
       style="color:#000000;fill:#ffcc00;fill-opacity:1;stroke:none;stroke-width:7;marker:none;visibility:visible;display:inline;overflow:visible;enable-background:accumulate"
       d=""
       id="path4390"
       inkscape:connector-curvature="0"
       transform="translate(24.318169,221.53883)" />
    <path
       style="color:#000000;fill:#ffcc00;fill-opacity:1;stroke:none;stroke-width:7;marker:none;visibility:visible;display:inline;overflow:visible;enable-background:accumulate"
       d=""
       id="path4392"
       inkscape:connector-curvature="0"
       transform="translate(24.318169,221.53883)" />
    <path
       style="color:#000000;fill:#ffcc00;fill-opacity:1;stroke:none;stroke-width:7;marker:none;visibility:visible;display:inline;overflow:visible;enable-background:accumulate"
       d=""
       id="path4394"
       inkscape:connector-curvature="0"
       transform="translate(24.318169,221.53883)" />
    <path
       style="color:#000000;fill:#ffcc00;fill-opacity:1;stroke:none;stroke-width:7;marker:none;visibility:visible;display:inline;overflow:visible;enable-background:accumulate"
       d="m 151.51678,307.825 c -0.35475,-0.0977 -0.48219,-0.18965 -0.61255,-0.44175 -0.1985,-0.38386 -0.073,-1.01809 0.37978,-1.91934 0.25744,-0.51244 0.91805,-1.56547 1.02262,-1.6301 0.046,-0.0284 2.49376,2.8231 2.54184,2.96117 0.01,0.0288 -0.32823,0.21583 -0.75166,0.41565 -1.2575,0.59342 -2.00772,0.77207 -2.58003,0.61437 l 0,0 z"
       id="path4396"
       inkscape:connector-curvature="0"
       transform="translate(24.318169,221.53883)" />
    <path
       style="color:#000000;fill:#ffcc00;fill-opacity:1;stroke:none;stroke-width:7;marker:none;visibility:visible;display:inline;overflow:visible;enable-background:accumulate"
       d="m 218.5553,668.68609 c -0.51518,-1.28118 -3.713,-8.23121 -5.36981,-11.67056 -0.61136,-1.26913 -1.09693,-2.32215 -1.07902,-2.34006 0.0179,-0.0179 0.26136,0.3881 0.54103,0.90223 0.73245,1.34649 1.95551,3.37175 2.83418,4.69308 1.61925,2.43501 2.86308,3.89626 3.75672,4.41338 0.26858,0.15542 0.38541,0.18302 0.73407,0.17342 0.77141,-0.0213 3.49536,-0.78622 6.54581,-1.83826 2.66948,-0.92064 6.59196,-2.36909 8.57489,-3.16642 0.41185,-0.16561 0.77951,-0.29946 0.81702,-0.29746 0.0375,0.002 -0.87301,0.46721 -2.02337,1.03379 -4.22499,2.0809 -8.45807,4.38163 -13.80213,7.50162 -0.76087,0.44422 -1.39703,0.80767 -1.41369,0.80767 -0.0166,0 -0.0687,-0.0956 -0.1157,-0.21243 z"
       id="path4398"
       inkscape:connector-curvature="0"
       transform="translate(24.318169,221.53883)" />
    <path
       style="color:#000000;fill:#ffcc00;fill-opacity:1;stroke:none;stroke-width:7;marker:none;visibility:visible;display:inline;overflow:visible;enable-background:accumulate"
       d="m 49.956749,488.79575 c -1.538553,-0.66753 -11.147102,-3.40217 -14.836284,-4.22247 l -0.497138,-0.11054 1.49004,-2.63371 c 1.840383,-3.25296 5.121393,-9.84636 6.349165,-12.75906 0.504458,-1.19675 0.942488,-2.10003 0.973401,-2.00729 0.03091,0.0927 -0.400575,1.69583 -0.958862,3.56244 -1.526664,5.1043 -1.647249,5.64657 -1.665929,7.4917 -0.0094,0.93201 -0.03674,1.67502 -0.06066,1.65114 -0.02393,-0.0239 -0.21233,-0.86392 -0.418669,-1.86674 -0.206339,-1.00282 -0.408891,-1.85705 -0.450116,-1.89827 -0.04122,-0.0412 -0.195986,0.11945 -0.343915,0.35705 -0.701018,1.12596 -4.19748,7.42597 -4.19748,7.56312 0,0.24693 8.308389,2.57459 9.189783,2.57459 0.629724,0 0.534014,-0.55983 -0.220781,-1.29141 -0.354353,-0.34345 -0.613719,-0.65502 -0.576368,-0.69237 0.03735,-0.0374 0.61611,0.34702 1.286132,0.85416 1.17591,0.89004 2.387701,1.63939 4.926025,3.04614 1.201956,0.66614 1.209137,0.90107 0.01166,0.38152 l 0,0 z"
       id="path4400"
       inkscape:connector-curvature="0"
       transform="translate(24.318169,221.53883)" />
    <path
       style="color:#000000;fill:#ffcc00;fill-opacity:1;stroke:none;stroke-width:7;marker:none;visibility:visible;display:inline;overflow:visible;enable-background:accumulate"
       d="m 349.12225,690.43263 c -2.99828,-2.92767 -6.8185,-6.39419 -10.41681,-9.45237 -1.79223,-1.52321 -3.23237,-2.79569 -3.20032,-2.82774 0.0321,-0.0321 1.79351,1.07977 3.91435,2.47073 6.93934,4.55119 12.8983,8.02555 13.76481,8.02555 0.16567,0 0.69237,-0.20798 1.17045,-0.46218 0.47807,-0.2542 0.90794,-0.46218 0.95526,-0.46218 0.0473,0 -0.84196,1.0399 -1.97617,2.31089 -1.1342,1.27099 -2.10486,2.31088 -2.15701,2.31088 -0.0522,0 -0.97671,-0.86111 -2.05456,-1.91358 z"
       id="path4402"
       inkscape:connector-curvature="0"
       transform="translate(24.318169,221.53883)" />
    <path
       style="color:#000000;fill:#ffcc00;fill-opacity:1;stroke:none;stroke-width:7;marker:none;visibility:visible;display:inline;overflow:visible;enable-background:accumulate"
       d="m 183.93349,519.52866 c -0.0132,-0.0583 -0.16092,-0.64544 -0.32825,-1.30485 -1.5431,-6.08099 -1.73627,-10.8599 -0.53589,-13.25817 0.4326,-0.86432 1.05199,-1.42878 1.84324,-1.67978 0.35195,-0.11164 1.08993,-0.13339 1.49189,-0.044 0.61822,0.13754 1.26693,0.49988 1.83135,1.0229 0.33753,0.31278 0.96405,1.06876 0.92122,1.11159 -0.0124,0.0124 -1.29551,0.0407 -2.85129,0.0628 -1.55578,0.0221 -2.83527,0.0474 -2.84331,0.0561 -0.0341,0.0371 0.0676,8.83087 0.1116,9.65227 0.0856,1.59726 0.19779,2.84833 0.35366,3.94438 0.0392,0.27563 0.0619,0.51049 0.0505,0.52189 -0.0114,0.0114 -0.0316,-0.0269 -0.0448,-0.0852 l 0,0 z"
       id="path4404"
       inkscape:connector-curvature="0"
       transform="translate(24.318169,221.53883)" />
    <path
       style="color:#000000;fill:#ffcc00;fill-opacity:1;stroke:none;stroke-width:7;marker:none;visibility:visible;display:inline;overflow:visible;enable-background:accumulate"
       d="m 108.86737,593.3996 c 0.18945,-4.89005 0.19145,-13.31644 0.004,-18.07551 -0.25758,-6.54972 -0.78384,-12.52508 -1.54877,-17.58531 -0.0506,-0.33486 -0.092,-0.62083 -0.092,-0.63549 0,-0.0147 0.15599,-0.0267 0.34664,-0.0267 0.19064,0 0.34663,0.008 0.34663,0.018 0,0.01 0.0422,0.22309 0.0938,0.47373 0.15564,0.75627 0.53999,2.88675 0.7159,3.9683 0.76837,4.72433 1.18946,9.0858 1.29402,13.40309 0.033,1.3639 0.20683,16.09747 0.20703,17.55091 l 1.4e-4,1.05119 3.96317,0.0118 3.96317,0.0118 -1.52518,0.13079 c -2.9275,0.25104 -4.87003,0.37534 -6.71837,0.4299 l -1.07981,0.0319 0.0294,-0.75846 0,0 z"
       id="path4406"
       inkscape:connector-curvature="0"
       transform="translate(24.318169,221.53883)" />
    <path
       style="color:#000000;fill:#ffcc00;fill-opacity:1;stroke:none;stroke-width:7;marker:none;visibility:visible;display:inline;overflow:visible;enable-background:accumulate"
       d="m 105.72206,149.37616 c -0.003,-0.0942 0.0544,-0.71188 0.12711,-1.37259 0.1943,-1.76473 0.49879,-5.35695 0.65031,-7.6721 0.23426,-3.57924 0.32685,-5.44244 0.75358,-15.16391 0.18515,-4.21804 0.30263,-6.43858 0.49277,-9.31404 0.1243,-1.87965 0.48012,-6.15995 0.56149,-6.75431 l 0.0373,-0.27208 2.65689,0.0794 c 1.46129,0.0437 3.18631,0.10252 3.83339,0.13073 l 1.17652,0.0513 -2.58179,0.18531 c -1.41998,0.10192 -2.59453,0.19799 -2.6101,0.2135 -0.0156,0.0155 -0.68238,5.46172 -1.48179,12.10269 -2.26765,18.83811 -2.55042,21.08122 -3.23182,25.63705 -0.33153,2.2166 -0.37452,2.45731 -0.38381,2.14903 z"
       id="path4408"
       inkscape:connector-curvature="0"
       transform="translate(24.318169,221.53883)" />
    <path
       style="color:#000000;fill:#ffcc00;fill-opacity:1;stroke:none;stroke-width:7;marker:none;visibility:visible;display:inline;overflow:visible;enable-background:accumulate"
       d="m 484.4083,665.1025 c -2.43757,-1.1652 -7.82909,-3.49303 -10.91204,-4.71135 -10.13842,-4.00651 -19.48098,-6.68988 -28.82451,-8.27899 -3.22719,-0.54886 -3.3854,-0.67305 -0.32114,-0.25207 6.95661,0.95572 13.35182,2.45185 20.05848,4.69261 1.69064,0.56486 6.71277,2.35031 11.16028,3.96767 l 8.08638,2.94065 3.22893,-6.55571 c 1.77592,-3.60563 3.5733,-7.27652 3.99419,-8.15751 0.42089,-0.881 0.78851,-1.57856 0.81694,-1.55013 0.0284,0.0284 -0.34154,1.1022 -0.82214,2.38616 -1.41485,3.7798 -3.62307,10.53125 -4.69641,14.35891 -0.26178,0.93352 -0.48822,1.70957 -0.5032,1.72455 -0.015,0.015 -0.58457,-0.23917 -1.26576,-0.56479 l 0,0 z"
       id="path4410"
       inkscape:connector-curvature="0"
       transform="translate(24.318169,221.53883)" />
    <path
       style="color:#000000;fill:#ffcc00;fill-opacity:1;stroke:none;stroke-width:7;marker:none;visibility:visible;display:inline;overflow:visible;enable-background:accumulate"
       d="m 590.03615,594.43996 c -0.46733,-0.0681 -2.29092,-0.2899 -4.05242,-0.49284 l -3.20273,-0.36897 3.36364,-0.0139 3.36364,-0.0139 0.0599,-0.29413 c 0.0329,-0.16177 0.18356,-2.05644 0.33474,-4.21038 0.15119,-2.15394 0.29332,-3.93468 0.31584,-3.9572 0.0225,-0.0225 0.0811,0.50446 0.13014,1.17106 0.0952,1.2933 0.67426,6.50727 0.84963,7.65014 0.11938,0.77795 0.22065,0.73176 -1.16234,0.53017 z"
       id="path4412"
       inkscape:connector-curvature="0"
       transform="translate(24.318169,221.53883)" />
    <path
       style="color:#000000;fill:#ffcc00;fill-opacity:1;stroke:none;stroke-width:7;marker:none;visibility:visible;display:inline;overflow:visible;enable-background:accumulate"
       d="M 522.43036,96.102417 C 514.84488,91.501429 508.26168,85.878528 502.43668,79.025216 495.80336,71.220901 490.24395,61.64746 486.2069,51.077159 c -0.85556,-2.240144 -1.01682,-2.684825 -0.9851,-2.71654 0.0138,-0.01384 0.39089,0.775545 0.83789,1.754196 0.89706,1.964024 2.97011,6.174668 3.91704,7.956044 7.30974,13.751165 15.58485,24.366583 25.42725,32.618382 2.24739,1.884198 5.08708,3.999839 7.27148,5.417438 0.45835,0.297452 0.83337,0.552548 0.83337,0.56688 0,0.06982 -0.17126,-0.02087 -1.07847,-0.571142 l 0,0 z"
       id="path4414"
       inkscape:connector-curvature="0"
       transform="translate(24.318169,221.53883)" />
  </g>
</svg>
