<?xml version="1.0" encoding="UTF-8" standalone="no"?>
<!-- Created with Inkscape (http://www.inkscape.org/) -->

<svg
   xmlns:dc="http://purl.org/dc/elements/1.1/"
   xmlns:cc="http://creativecommons.org/ns#"
   xmlns:rdf="http://www.w3.org/1999/02/22-rdf-syntax-ns#"
   xmlns:svg="http://www.w3.org/2000/svg"
   xmlns="http://www.w3.org/2000/svg"
   xmlns:sodipodi="http://sodipodi.sourceforge.net/DTD/sodipodi-0.dtd"
   xmlns:inkscape="http://www.inkscape.org/namespaces/inkscape"
   preserveAspectRatio="xMinYMin meet"
   viewBox="0 0 698.55621 699.63153"
   width="100%"
   height="100%"
   id="svg3045"
   version="1.1"
   inkscape:version="0.48.4 r9939"
   sodipodi:docname="soleil_pas_content_2.svg">
  <defs
     id="defs3047" />
  <sodipodi:namedview
     id="base"
     pagecolor="#ffffff"
     bordercolor="#666666"
     borderopacity="1.0"
     inkscape:pageopacity="0.0"
     inkscape:pageshadow="2"
     inkscape:zoom="7.649741"
     inkscape:cx="494.7814"
     inkscape:cy="466.29128"
     inkscape:document-units="px"
     inkscape:current-layer="layer1"
     showgrid="false"
     inkscape:window-width="1600"
     inkscape:window-height="838"
     inkscape:window-x="-8"
     inkscape:window-y="-8"
     inkscape:window-maximized="1"
     fit-margin-top="0"
     fit-margin-left="0"
     fit-margin-right="0"
     fit-margin-bottom="0" />
  <metadata
     id="metadata3050">
    <rdf:RDF>
      <cc:Work
         rdf:about="">
        <dc:format>image/svg+xml</dc:format>
        <dc:type
           rdf:resource="http://purl.org/dc/dcmitype/StillImage" />
        <dc:title></dc:title>
      </cc:Work>
    </rdf:RDF>
  </metadata>
  <g
     inkscape:label="Calque 1"
     inkscape:groupmode="layer"
     id="layer1"
     transform="translate(-24.318169,-221.53883)">
    <path
       style="fill:none;stroke:#000000;stroke-width:3.93258452px;stroke-linecap:butt;stroke-linejoin:miter;stroke-opacity:1"
       d="M 219.11588,753.96239 C 311.94682,640.57875 643.57029,554.8885 585.70367,635.68786"
       id="path3016"
       inkscape:connector-curvature="0"
       sodipodi:nodetypes="cc" />
    <path
       style="fill:none;stroke:#000000;stroke-width:3.93258452px;stroke-linecap:butt;stroke-linejoin:miter;stroke-opacity:1"
       d="m 211.28651,726.99351 c 0.35341,15.43248 -2.65705,21.56974 25.23268,51.81779"
       id="path3018"
       inkscape:connector-curvature="0"
       sodipodi:nodetypes="cc" />
    <path
       style="fill:none;stroke:#000000;stroke-width:3.93258452px;stroke-linecap:butt;stroke-linejoin:miter;stroke-opacity:1"
       d="m 177.89737,526.73093 c 53.01105,-44.29507 70.11048,-70.83054 144.08604,-74.19355"
       id="path3022"
       inkscape:connector-curvature="0"
       sodipodi:nodetypes="cc" />
    <path
       style="fill:none;stroke:#000000;stroke-width:3.93258452px;stroke-linecap:butt;stroke-linejoin:miter;stroke-opacity:1"
       d="m 459.61781,425.65569 c 33.89199,-2.42102 47.92121,-0.82778 90.32256,12.9032"
       id="path3024"
       inkscape:connector-curvature="0"
       sodipodi:nodetypes="cc" />
    <path
       style="color:#000000;fill:#ffcc00;fill-opacity:1;stroke:#000000;stroke-width:0;stroke-linecap:butt;stroke-linejoin:miter;stroke-miterlimit:4;stroke-opacity:1;stroke-dasharray:none;stroke-dashoffset:0;marker:none;visibility:visible;display:inline;overflow:visible;enable-background:accumulate"
       d="m 561.03717,416.198 c -0.72493,-0.75988 -1.41218,-2.11128 -1.41218,-2.77686 0,-0.15719 0.70048,0.18593 1.55662,0.76249 0.85615,0.57656 1.69218,1.04173 1.85785,1.03372 0.46905,-0.0227 3.28135,-4.64617 4.70976,-7.74293 2.89071,-6.26701 3.18749,-11.09235 0.9595,-15.60038 -3.03224,-6.13533 -10.70009,-9.6802 -24.12368,-11.15244 -3.97773,-0.43627 -17.00073,-0.44195 -22.31969,-0.01 -2.15512,0.17512 -5.01569,0.40991 -6.35681,0.52175 -2.02421,0.16882 -2.41497,0.13241 -2.30043,-0.2143 0.21478,-0.6501 7.84008,-1.10499 18.96663,-1.13145 9.82761,-0.0234 15.01808,0.31129 20.51063,1.32245 10.23935,1.88503 16.03138,6.11348 17.23925,12.58548 1.32366,7.09245 -2.35196,20.21178 -6.34483,22.64649 -1.28008,0.78054 -2.02386,0.71879 -2.94262,-0.24428 l 0,0 z"
       id="path4300"
       inkscape:connector-curvature="0"
       transform="translate(24.318169,221.53883)" />
    <path
       style="color:#000000;fill:#ffcc00;fill-opacity:1;stroke:#000000;stroke-width:0;stroke-linecap:butt;stroke-linejoin:miter;stroke-miterlimit:4;stroke-opacity:1;stroke-dasharray:none;stroke-dashoffset:0;marker:none;visibility:visible;display:inline;overflow:visible;enable-background:accumulate"
       d=""
       id="path4308"
       inkscape:connector-curvature="0"
       transform="translate(24.318169,221.53883)" />
    <path
       style="color:#000000;fill:#ffcc00;fill-opacity:1;stroke:#000000;stroke-width:0;stroke-linecap:butt;stroke-linejoin:miter;stroke-miterlimit:4;stroke-opacity:1;stroke-dasharray:none;stroke-dashoffset:0;marker:none;visibility:visible;display:inline;overflow:visible;enable-background:accumulate"
       d="m 152.85984,303.1078 c 0,-0.0939 1.48111,-1.89446 2.54707,-3.0965 2.27988,-2.57089 6.17724,-6.46636 10.30145,-10.29644 l 1.80249,-1.67394 0.0572,0.69327 c 0.0315,0.38129 0.0627,0.93016 0.0693,1.2197 l 0.0121,0.52645 -2.74995,2.38889 c -2.97397,2.58349 -7.20314,6.21208 -9.12799,7.83173 -0.66092,0.55613 -1.58643,1.33917 -2.05669,1.74011 -0.47027,0.40094 -0.85503,0.70097 -0.85503,0.66673 z"
       id="path4316"
       inkscape:connector-curvature="0"
       transform="translate(24.318169,221.53883)" />
    <path
       style="color:#000000;fill:#ffcc00;fill-opacity:1;stroke:#000000;stroke-width:0;stroke-linecap:butt;stroke-linejoin:miter;stroke-miterlimit:4;stroke-opacity:1;stroke-dasharray:none;stroke-dashoffset:0;marker:none;visibility:visible;display:inline;overflow:visible;enable-background:accumulate"
       d="m 151.22159,307.68596 c -0.54153,-0.33018 -0.52563,-0.9938 0.051,-2.13032 0.47599,-0.93809 1.03991,-1.78691 1.12335,-1.69087 0.0359,0.0413 0.61052,0.72452 1.27702,1.51834 l 1.21183,1.4433 -0.71208,0.33058 c -1.54564,0.71756 -2.39281,0.86941 -2.95115,0.52897 l 0,0 z"
       id="path4320"
       inkscape:connector-curvature="0"
       transform="translate(24.318169,221.53883)" />
    <path
       style="color:#000000;fill:#ffcc00;fill-opacity:1;stroke:#000000;stroke-width:0;stroke-linecap:butt;stroke-linejoin:miter;stroke-miterlimit:4;stroke-opacity:1;stroke-dasharray:none;stroke-dashoffset:0;marker:none;visibility:visible;display:inline;overflow:visible;enable-background:accumulate"
       d=""
       id="path4334"
       inkscape:connector-curvature="0"
       transform="translate(24.318169,221.53883)" />
    <path
       sodipodi:nodetypes="ccccccccccccccccc"
       inkscape:connector-curvature="0"
       id="path3026-1"
       d="m 75.658343,764.3564 c 23.74558,-59.58509 -3.40188,-99.13164 -52.64971,-129.97639 32.12765,-31.02651 47.3449,-70.25332 2.64732,-138.53429 79.571777,-31.48422 54.89105,-77.66764 52.10814,-120.7636 43.379767,-7.07134 88.092577,-11.66094 91.394507,-93.3475 51.19306,15.214 95.55658,5.35405 126.39953,-54.14524 70.62459,51.93094 108.4449,36.08289 135.39738,-2.2199 36.22007,66.29962 79.6192,72.56241 125.80636,55.5095 13.63864,65.07955 43.05681,98.7772 92.4972,92.6552 2.41603,39.77058 -33.11804,63.38323 55.61103,128.30539 -42.8048,42.91597 -33.456,89.54155 0.5192,137.91875 -38.7076,26.92644 -79.39183,52.44827 -52.1378,126.24634 -43.88002,2.53615 -86.57012,7.57038 -91.80482,91.23647 -75.51916,-20.96443 -105.81808,11.48968 -128.92089,52.44455 -74.12847,-49.9544 -105.94093,-24.91704 -136.45291,2.42509 -61.95513,-91.1452 -89.4985,-59.33532 -124.34048,-53.60365 -7.57925,-50.18536 -23.31332,-94.09856 -96.074057,-94.15072 z"
       style="fill:none;stroke:#000000;stroke-width:3.93258452px;stroke-linecap:butt;stroke-linejoin:miter;stroke-opacity:1" />
    <path
       style="color:#000000;fill:#ffcc00;fill-opacity:1;stroke:#000000;stroke-width:0;stroke-linecap:butt;stroke-linejoin:miter;stroke-miterlimit:4;stroke-opacity:1;stroke-dasharray:none;stroke-dashoffset:0;marker:none;visibility:visible;display:inline;overflow:visible;enable-background:accumulate"
       d="m 262.89132,674.01876 c -17.92434,-23.99389 -35.34287,-39.50244 -51.53641,-45.88534 -12.62558,-4.97653 -24.14266,-4.54913 -46.66817,1.73189 -7.15846,1.99606 -13.5603,3.62921 -14.22632,3.62921 -0.68769,0 -1.73679,-3.18411 -2.42789,-7.3689 -2.19355,-13.28247 -7.44521,-30.62856 -12.18581,-40.24943 -13.37844,-27.15103 -34.78324,-41.00022 -68.980978,-44.63159 l -11.688177,-1.24113 2.366166,-7.66905 c 3.740345,-12.12296 4.94381,-22.02579 4.323564,-35.57692 C 61.28618,484.06128 58.734411,473.83838 53.630017,463.7573 46.203174,449.0894 28.571899,430.13826 11.682101,418.66916 l -9.1168554,-6.19085 5.1489268,-5.44423 C 19.07925,395.01719 27.069505,379.66909 30.325182,363.60166 34.836026,341.33973 26.910451,310.96033 8.951068,281.67288 c -2.5977631,-4.23633 -3.3808932,-6.32711 -2.4821207,-6.62669 0.7221782,-0.24073 5.6765757,-2.65929 11.0097727,-5.3746 28.283929,-14.40022 41.445359,-31.61471 43.585803,-57.00807 0.802618,-9.52194 0.207174,-18.47632 -2.579594,-38.79241 -0.867879,-6.32701 -1.77274,-12.97505 -2.010801,-14.77341 l -0.432837,-3.26977 12.7242,-2.35152 c 38.999619,-7.20737 56.725729,-18.45418 68.188619,-43.26409 5.03549,-10.89867 9.89727,-32.031535 9.89727,-43.020836 0,-3.12988 0.3195,-3.692965 1.83013,-3.225416 13.00623,4.025509 36.70241,5.832261 50.33969,3.838226 26.19156,-3.829711 47.56777,-18.579823 64.99353,-44.84712 3.93275,-5.928161 7.31662,-11.276982 7.51971,-11.886269 0.2031,-0.609286 5.05714,1.953816 10.78675,5.695782 47.21257,30.834159 83.61314,32.613781 111.78787,5.465304 3.58156,-3.451097 7.78802,-7.863279 9.34769,-9.804848 1.55968,-1.941569 2.96992,-3.3533813 3.13388,-3.1373609 0.16397,0.2160202 3.37691,5.0988059 7.13988,10.8506349 28.69413,43.859894 65.31607,58.636116 110.48426,44.578196 l 6.45455,-2.008885 0.60641,2.768446 c 9.32284,42.561216 27.88111,71.727136 52.97194,83.249926 9.43463,4.33279 17.03012,5.92496 29.06817,6.09327 11.16815,0.15615 10.48593,-2.08758 6.74614,22.1871 -1.41783,9.20293 -2.58429,19.575 -2.59214,23.04904 -0.0259,11.4545 4.30253,23.87327 12.62203,36.21401 5.77985,8.57355 24.99335,27.74354 37.23283,37.14853 l 9.60635,7.38165 -3.08392,2.95459 c -4.45405,4.26724 -13.09403,17.09078 -16.68426,24.76293 -5.70734,12.19631 -7.58602,22.30692 -7.02574,37.81084 0.39104,10.82069 1.08547,15.66446 3.3122,23.10323 3.46246,11.56693 11.02903,27.64725 18.46114,39.23324 l 5.58935,8.7133 -3.02756,2.17141 c -36.73797,26.34889 -48.32767,39.64904 -54.56332,62.61594 -3.66263,13.49003 -1.94857,37.82153 3.85211,54.6815 l 1.94814,5.66236 -4.25405,0 c -7.42812,0 -26.18378,3.08989 -34.85031,5.74137 -21.86887,6.69071 -36.88044,22.39391 -44.90373,46.97261 -2.41508,7.39839 -4.56284,18.30278 -6.35402,32.25992 -0.57196,4.45678 -0.87477,4.91426 -2.92636,4.42098 -12.60206,-3.03001 -19.1717,-3.90838 -32.77915,-4.38269 -18.35626,-0.63982 -26.0779,0.40547 -39.04646,5.28582 -18.91345,7.11755 -35.38471,22.01447 -48.20923,43.60133 -2.37936,4.00506 -4.80987,7.28191 -5.40114,7.28191 -0.59128,0 -4.08554,-1.9013 -7.76503,-4.2251 -9.03918,-5.70876 -23.64741,-12.95431 -32.70637,-16.22205 -21.17831,-7.63944 -42.12815,-7.74049 -60.01097,-0.28942 -6.70576,2.79403 -21.22206,12.33302 -27.88623,18.32468 -2.75492,2.47691 -5.4425,4.50347 -5.9724,4.50347 -0.52989,0 -4.91848,-5.2943 -9.75242,-11.76511 l 0,0 z M 214.80854,557.9364 c -0.0105,-1.29416 -2.36348,-6.53006 -5.22894,-11.63533 -2.86546,-5.10527 -5.20993,-10.46844 -5.20993,-11.91814 0,-3.33577 15.74703,-19.22987 31.10505,-31.39557 66.47857,-52.66029 192.03795,-103.8607 268.77438,-109.6004 l 9.67353,-0.72356 0,-3.38482 0,-3.38481 11.76511,-0.70857 c 17.86635,-1.07602 31.21977,1.43005 37.11116,6.96472 3.3247,3.12339 3.09154,8.57404 -0.66814,15.61952 -3.25619,6.10195 -2.92661,9.24716 0.96897,9.24716 4.16008,0 8.62,-13.75633 7.29356,-22.49654 -1.55486,-10.24545 -9.85159,-13.98205 -32.94045,-14.83538 -12.61374,-0.46619 -16.9204,-0.15976 -31.10274,2.21307 -23.71225,3.96727 -39.37431,7.27759 -57.5216,12.15775 -88.03207,23.6735 -179.10077,67.19269 -227.83885,108.87785 -3.22545,2.75869 -6.12409,4.75615 -6.44143,4.4388 -0.31734,-0.31734 -4.66645,2.54326 -9.66467,6.35689 -4.99823,3.81363 -9.86455,6.78502 -10.81406,6.6031 -1.2679,-0.24295 -1.89708,-1.91576 -2.36916,-6.29898 -0.7332,-6.80738 -3.16936,-11.26202 -6.15901,-11.26202 -4.63102,0 -4.06784,13.16652 1.09347,25.56457 6.47444,15.55228 19.59144,31.95371 25.55492,31.95371 2.04397,0 2.63355,-0.52974 2.61883,-2.35302 z M 163.81953,301.66519 c 5.33468,-3.62426 17.22909,-12.59783 26.43201,-19.94128 9.20293,-7.34345 21.35869,-16.42545 27.0128,-20.18224 22.87314,-15.19769 48.82565,-24.30221 69.49465,-24.37973 6.31074,-0.0236 12.48955,-2.23714 13.48482,-4.83076 2.62811,-6.84877 -21.22679,-6.01568 -47.94746,1.67447 -19.54669,5.6255 -29.88564,10.792 -48.83229,24.40209 -26.87273,19.30369 -55.06022,45.39074 -52.87168,48.93187 1.15679,1.87171 3.76957,0.75083 13.22715,-5.67442 z M 528.89576,220.0058 c 0.74721,-1.94717 -1.89959,-5.54715 -5.41492,-7.365 -17.84155,-9.22623 -82.99596,-17.51671 -89.16677,-11.3459 -0.61864,0.61865 -0.82725,2.06233 -0.46356,3.2082 0.56599,1.78328 2.12508,2.24105 10.8232,3.17783 32.50882,3.50117 39.77839,4.64584 56.69948,8.92798 19.48602,4.93125 26.597,5.80889 27.52257,3.39689 z"
       id="path4447"
       inkscape:connector-curvature="0"
       transform="translate(24.318169,221.53883)" />
    <path
       style="color:#000000;fill:#ffcc00;fill-opacity:1;stroke:#000000;stroke-width:0;stroke-linecap:butt;stroke-linejoin:miter;stroke-miterlimit:4;stroke-opacity:1;stroke-dasharray:none;stroke-dashoffset:0;marker:none;visibility:visible;display:inline;overflow:visible;enable-background:accumulate"
       d=""
       id="path4449"
       inkscape:connector-curvature="0"
       transform="translate(24.318169,221.53883)" />
    <path
       style="color:#000000;fill:#ffcc00;fill-opacity:1;stroke:#000000;stroke-width:0;stroke-linecap:butt;stroke-linejoin:miter;stroke-miterlimit:4;stroke-opacity:1;stroke-dasharray:none;stroke-dashoffset:0;marker:none;visibility:visible;display:inline;overflow:visible;enable-background:accumulate"
       d="m 161.05318,302.29101 c 0,-0.40298 24.31677,-21.44558 35.83853,-31.013 27.22088,-22.60361 49.10733,-32.27105 82.45066,-36.41917 4.66178,-0.57995 10.20841,-1.05446 12.32587,-1.05446 5.02891,0 6.18932,-0.51164 6.18932,-2.72893 0,-1.13631 0.35077,-1.71429 0.92435,-1.5231 1.54262,0.51421 1.03692,2.89937 -0.92435,4.35981 -2.15946,1.60801 -6.69933,2.48732 -18.61346,3.60518 -21.35751,2.00389 -45.90234,12.00648 -67.53632,27.52263 -4.06716,2.91701 -13.8838,10.31182 -21.81476,16.43289 -23.02095,17.76748 -28.83984,21.96786 -28.83984,20.81815 z"
       id="path4451"
       inkscape:connector-curvature="0"
       transform="translate(24.318169,221.53883)" />
    <path
       style="color:#000000;fill:#ffcc00;fill-opacity:1;stroke:#000000;stroke-width:0;stroke-linecap:butt;stroke-linejoin:miter;stroke-miterlimit:4;stroke-opacity:1;stroke-dasharray:none;stroke-dashoffset:0;marker:none;visibility:visible;display:inline;overflow:visible;enable-background:accumulate"
       d="m 152.26991,303.44673 c 0,-0.12222 2.0978,-2.67962 3.32965,-4.05914 0.70622,-0.79088 2.93722,-3.08606 4.95779,-5.10041 13.25597,-13.2152 34.40264,-30.33682 51.88918,-42.01262 10.55553,-7.04794 19.34947,-11.47252 30.02252,-15.1055 16.10427,-5.48171 33.06758,-9.01076 44.86253,-9.33323 6.2736,-0.17152 9.85412,0.3168 11.8225,1.61237 0.72724,0.47866 1.22542,1.28314 1.22542,1.97884 0,0.58661 -0.60714,1.68878 -1.22073,2.216 -0.7931,0.68148 -2.43981,1.53605 -4.00057,2.07611 -2.61139,0.90361 -5.34719,1.2977 -9.87725,1.42279 l -2.09157,0.0578 1.56868,-0.18209 c 8.48349,-0.98472 11.79814,-1.83038 13.58964,-3.4671 0.8948,-0.81749 1.31282,-1.65831 1.31282,-2.64061 0,-0.6739 -0.0428,-0.79981 -0.36678,-1.07847 -0.20172,-0.17352 -0.50722,-0.31549 -0.67889,-0.31549 -0.3679,0 -0.71825,0.44284 -0.72109,0.91147 -0.002,0.26132 -0.0285,0.2894 -0.12872,0.13432 -0.0697,-0.10785 -0.12763,-0.50492 -0.12873,-0.88238 -0.002,-0.81797 0.48355,-0.75808 -3.98939,-0.49168 -32.0104,1.9065 -54.57585,8.18197 -75.68851,21.04906 -7.96576,4.85472 -16.23754,10.97948 -26.70563,19.77392 -4.63122,3.89078 -4.98567,4.19681 -15.74015,13.58976 -4.22036,3.68605 -7.70577,6.7019 -7.74536,6.7019 -0.0396,0 -0.0754,-0.30883 -0.0795,-0.68629 -0.004,-0.37747 -0.0483,-0.90902 -0.098,-1.18123 l -0.0905,-0.49493 -2.67983,2.51798 c -5.18692,4.87367 -9.83753,9.72419 -11.66378,12.16515 -0.56511,0.75533 -0.88567,1.05347 -0.88567,0.82374 z"
       id="path4455"
       inkscape:connector-curvature="0"
       transform="translate(24.318169,221.53883)" />
    <path
       style="color:#000000;fill:#ffcc00;fill-opacity:1;stroke:#000000;stroke-width:0;stroke-linecap:butt;stroke-linejoin:miter;stroke-miterlimit:4;stroke-opacity:1;stroke-dasharray:none;stroke-dashoffset:0;marker:none;visibility:visible;display:inline;overflow:visible;enable-background:accumulate"
       d="m 193.08642,529.15559 c -0.88451,-1.58165 -2.15079,-4.70887 -2.74949,-6.79015 -0.94513,-3.28557 -1.06896,-4.46279 -1.14272,-10.86333 l -0.0692,-6.0083 0.54281,1.10922 c 0.82684,1.68967 1.4551,4.11532 1.95599,7.55185 0.24971,1.71322 0.58491,3.56521 0.74489,4.11552 0.38649,1.3295 1.04608,2.10551 1.78963,2.10551 1.21174,0 5.54093,-2.67648 11.55088,-7.14123 4.9098,-3.64746 8.26206,-5.79973 9.03334,-5.79973 0.71904,0 2.74378,-1.46863 7.65373,-5.55159 10.25951,-8.53147 20.71138,-16.18222 32.99944,-24.15553 5.90404,-3.83093 10.0703,-6.40946 10.17956,-6.3002 0.0507,0.0507 -1.55342,1.11874 -3.56472,2.37341 -4.81872,3.00597 -16.02318,10.51303 -20.65519,13.83912 -18.79281,13.49448 -34.3095,27.24589 -45.38648,40.22301 -0.9547,1.11847 -1.83746,2.14639 -1.96169,2.28427 -0.1841,0.20434 -0.35435,0.0209 -0.92074,-0.99185 l 0,0 z"
       id="path4461"
       inkscape:connector-curvature="0"
       transform="translate(24.318169,221.53883)" />
    <path
       style="color:#000000;fill:#ffcc00;fill-opacity:1;stroke:#000000;stroke-width:0;stroke-linecap:butt;stroke-linejoin:miter;stroke-miterlimit:4;stroke-opacity:1;stroke-dasharray:none;stroke-dashoffset:0;marker:none;visibility:visible;display:inline;overflow:visible;enable-background:accumulate"
       d="m 210.47208,559.81857 c -2.46652,-1.01612 -7.01049,-5.04782 -10.28364,-9.12428 -7.16934,-8.92887 -13.1441,-19.89584 -15.68907,-28.79804 -2.60677,-9.11837 -2.66694,-16.70818 -0.14737,-18.58616 0.7261,-0.54121 1.89649,-0.49521 2.85893,0.11235 0.69303,0.43749 1.7237,1.5483 1.7237,1.85773 0,0.0667 -0.91511,0.1212 -2.03358,0.1212 l -2.03358,0 0.008,2.17223 c 0.0133,3.64984 0.32133,10.22676 0.54769,11.69308 1.54519,10.00964 7.54236,19.71365 22.42194,36.28089 1.52962,1.70312 2.83487,3.09659 2.90054,3.09659 0.2153,0 2.97883,-2.62978 2.9234,-2.78191 -0.0297,-0.0816 -1.09762,-1.29848 -2.37308,-2.70417 -6.06289,-6.68197 -10.80477,-12.51145 -14.28396,-17.56015 -1.31051,-1.9017 -1.75024,-2.68333 -1.20009,-2.13317 0.12202,0.12201 0.32129,0.22184 0.44284,0.22184 0.12154,0 1.08176,-1.0191 2.13381,-2.26467 6.71528,-7.95048 16.58633,-17.58408 26.41109,-25.77576 34.99683,-29.17961 87.33667,-58.17649 147.32206,-81.61811 9.67435,-3.78063 26.97402,-10.13772 27.58797,-10.13772 0.0894,0 0.1626,0.85735 0.1626,1.90522 l 0,1.90522 -2.54198,0.89074 c -32.50338,11.38955 -67.94948,27.04043 -98.12016,43.324 -37.39741,20.18394 -67.08026,41.25206 -86.22766,61.20217 -5.42686,5.65436 -8.30519,9.28088 -8.59585,10.83022 -0.2343,1.24893 1.02841,4.55456 3.70896,9.70963 0.87583,1.68435 2.28752,4.39896 3.13708,6.03247 3.11148,5.98263 3.9748,8.75866 3.07068,9.87389 -0.32495,0.40084 -0.53963,0.46388 -1.73132,0.50844 -0.94088,0.0352 -1.58842,-0.0431 -2.09986,-0.25377 z"
       id="path4463"
       inkscape:connector-curvature="0"
       transform="translate(24.318169,221.53883)" />
    <path
       style="color:#000000;fill:#ffcc00;fill-opacity:1;stroke:#000000;stroke-width:0;stroke-linecap:butt;stroke-linejoin:miter;stroke-miterlimit:4;stroke-opacity:1;stroke-dasharray:none;stroke-dashoffset:0;marker:none;visibility:visible;display:inline;overflow:visible;enable-background:accumulate"
       d="m 399.8895,415.93382 c 0,-0.99892 -0.0309,-1.89668 -0.0686,-1.99505 -0.072,-0.18753 5.89662,-2.26029 15.29791,-5.31263 38.74596,-12.57978 75.6137,-20.95431 103.07538,-23.41362 6.6945,-0.59953 9.03118,-0.70541 15.68681,-0.71081 5.16446,-0.004 6.97223,0.041 8.95455,0.22369 7.99198,0.73666 13.41262,2.07585 17.32138,4.27929 2.39262,1.34877 4.00118,2.93121 4.9756,4.89478 2.00816,4.04675 0.68884,9.74459 -3.8982,16.83543 -0.31891,0.49299 -0.60444,0.87176 -0.63451,0.84169 -0.10823,-0.10824 0.60323,-1.77613 1.82486,-4.27797 1.98261,-4.06031 2.69921,-6.51562 2.69921,-9.24839 0,-2.64719 -0.57882,-4.1643 -2.21105,-5.79532 -3.26296,-3.26054 -9.44271,-5.60097 -17.55126,-6.6471 -4.17364,-0.53846 -5.37172,-0.59758 -12.06884,-0.59555 -5.61888,0.002 -7.34338,0.0522 -12.28799,0.35974 -3.16351,0.19677 -6.06067,0.3913 -6.43813,0.43228 l -0.6863,0.0745 0,3.36468 0,3.36467 -4.01974,0.29291 c -15.32765,1.11689 -25.83874,2.52355 -40.29549,5.39258 -16.87145,3.34824 -34.4012,7.95973 -54.08572,14.22814 -4.7498,1.51255 -13.87053,4.55979 -15.23035,5.08848 l -0.35949,0.13977 0,-1.8162 z"
       id="path4465"
       inkscape:connector-curvature="0"
       transform="translate(24.318169,221.53883)" />
    <path
       style="color:#000000;fill:#ffcc00;fill-opacity:1;stroke:#000000;stroke-width:0;stroke-linecap:butt;stroke-linejoin:miter;stroke-miterlimit:4;stroke-opacity:1;stroke-dasharray:none;stroke-dashoffset:0;marker:none;visibility:visible;display:inline;overflow:visible;enable-background:accumulate"
       d="m 523.59327,221.14211 c -3.80073,-0.3064 -9.49363,-1.47845 -21.5175,-4.43 -3.77464,-0.92657 -8.15714,-1.97808 -9.73889,-2.33668 -10.23796,-2.32106 -19.91251,-3.72931 -42.74655,-6.22227 -7.06701,-0.77156 -10.4097,-1.19346 -11.98341,-1.5125 -1.18468,-0.24016 -2.03845,-0.48958 -1.74254,-0.50905 0.0719,-0.005 0.89545,-0.0659 1.83012,-0.13592 5.54068,-0.41512 14.49509,-0.7849 19.03819,-0.78622 19.21239,-0.006 34.21629,2.91039 64.34516,12.50521 2.14694,0.68372 3.94483,1.19376 3.9953,1.13344 0.12885,-0.15401 1.23742,-3.69903 1.17348,-3.75262 -0.16499,-0.13829 -12.85125,-4.08476 -17.43861,-5.42484 -27.48933,-8.03032 -42.33901,-9.67131 -70.4599,-7.78629 -1.72555,0.11567 -3.15919,0.23176 -3.18587,0.25798 -0.0267,0.0262 0.006,0.88862 0.0733,1.91644 0.067,1.02782 0.10324,1.89354 0.0806,1.92383 -0.0959,0.12827 -1.03831,-0.76881 -1.2374,-1.17789 -0.48521,-0.99695 -0.3967,-2.59499 0.18467,-3.33407 0.60877,-0.77393 2.97104,-1.53795 5.78895,-1.87231 8.74528,-1.03766 26.96221,0.28195 45.74839,3.31396 18.3303,2.95844 33.57799,7.09393 38.8902,10.54783 1.22214,0.79461 2.89195,2.53787 3.52185,3.67677 0.88198,1.59467 0.95049,2.57266 0.23379,3.33771 -0.56103,0.5989 -2.4617,0.8603 -4.85328,0.66749 l 0,0 z"
       id="path4467"
       inkscape:connector-curvature="0"
       transform="translate(24.318169,221.53883)" />
  </g>
</svg>
