<?xml version="1.0" encoding="UTF-8" standalone="no"?>
<!-- Created with Inkscape (http://www.inkscape.org/) -->

<svg
   xmlns:dc="http://purl.org/dc/elements/1.1/"
   xmlns:cc="http://creativecommons.org/ns#"
   xmlns:rdf="http://www.w3.org/1999/02/22-rdf-syntax-ns#"
   xmlns:svg="http://www.w3.org/2000/svg"
   xmlns="http://www.w3.org/2000/svg"
   xmlns:sodipodi="http://sodipodi.sourceforge.net/DTD/sodipodi-0.dtd"
   xmlns:inkscape="http://www.inkscape.org/namespaces/inkscape"
   width="210mm"
   height="297mm"
   id="svg3000"
   version="1.1"
   inkscape:version="0.48.4 r9939"
   sodipodi:docname="Nouveau document 3">
  <defs
     id="defs3002" />
  <sodipodi:namedview
     id="base"
     pagecolor="#ffffff"
     bordercolor="#666666"
     borderopacity="1.0"
     inkscape:pageopacity="0.0"
     inkscape:pageshadow="2"
     inkscape:zoom="0.61860832"
     inkscape:cx="372.04724"
     inkscape:cy="526.18109"
     inkscape:document-units="px"
     inkscape:current-layer="layer1"
     showgrid="false"
     inkscape:window-width="1600"
     inkscape:window-height="838"
     inkscape:window-x="-8"
     inkscape:window-y="-8"
     inkscape:window-maximized="1" />
  <metadata
     id="metadata3005">
    <rdf:RDF>
      <cc:Work
         rdf:about="">
        <dc:format>image/svg+xml</dc:format>
        <dc:type
           rdf:resource="http://purl.org/dc/dcmitype/StillImage" />
        <dc:title></dc:title>
      </cc:Work>
    </rdf:RDF>
  </metadata>
  <g
     inkscape:label="Calque 1"
     inkscape:groupmode="layer"
     id="layer1">
    <path
       style="fill:none;stroke:#000000;stroke-width:13.03381634px;stroke-linecap:butt;stroke-linejoin:miter;stroke-opacity:1"
       d="M 124.38866,49.73414 C 14.763324,188.84602 55.233714,628.63239 72.853994,1022.6454 l 220.193416,1.5616 C 282.78837,923.31825 244.24959,746.92731 277.43095,647.84815 c 47.88676,-101.79371 229.5633,-40.60308 229.5633,-48.41137 0,-7.8083 53.24457,-184.16678 57.78125,-190.52194 24.108,-33.77075 -149.52735,-10.00586 -184.27535,12.4933 l -84.32944,32.79465 C 227.63017,428.45917 269.2564,338.93458 272.74594,271.48915 c 19.65675,-71.54909 110.41871,-70.47098 171.78205,-73.39773 24.21274,-7.0984 149.12406,49.6651 153.04229,60.90455 0.40405,1.16001 103.19893,-217.96816 90.57603,-221.75513 z"
       id="path2987"
       inkscape:connector-curvature="0"
       sodipodi:nodetypes="ccccssccccscc" />
  </g>
</svg>
