<?xml version="1.0" encoding="UTF-8" standalone="no"?>
<!-- Created with Inkscape (http://www.inkscape.org/) -->

<svg
   xmlns:dc="http://purl.org/dc/elements/1.1/"
   xmlns:cc="http://creativecommons.org/ns#"
   xmlns:rdf="http://www.w3.org/1999/02/22-rdf-syntax-ns#"
   xmlns:svg="http://www.w3.org/2000/svg"
   xmlns="http://www.w3.org/2000/svg"
   xmlns:sodipodi="http://sodipodi.sourceforge.net/DTD/sodipodi-0.dtd"
   xmlns:inkscape="http://www.inkscape.org/namespaces/inkscape"
   width="210mm"
   height="297mm"
   id="svg3049"
   version="1.1"
   inkscape:version="0.48.4 r9939"
   sodipodi:docname="H.svg">
  <defs
     id="defs3051" />
  <sodipodi:namedview
     id="base"
     pagecolor="#ffffff"
     bordercolor="#666666"
     borderopacity="1.0"
     inkscape:pageopacity="0.0"
     inkscape:pageshadow="2"
     inkscape:zoom="0.61860832"
     inkscape:cx="372.04724"
     inkscape:cy="526.18109"
     inkscape:document-units="px"
     inkscape:current-layer="layer1"
     showgrid="false"
     inkscape:window-width="1600"
     inkscape:window-height="838"
     inkscape:window-x="-8"
     inkscape:window-y="-8"
     inkscape:window-maximized="1" />
  <metadata
     id="metadata3054">
    <rdf:RDF>
      <cc:Work
         rdf:about="">
        <dc:format>image/svg+xml</dc:format>
        <dc:type
           rdf:resource="http://purl.org/dc/dcmitype/StillImage" />
        <dc:title></dc:title>
      </cc:Work>
    </rdf:RDF>
  </metadata>
  <g
     inkscape:label="Calque 1"
     inkscape:groupmode="layer"
     id="layer1">
    <path
       style="fill:none;stroke:#000000;stroke-width:12.6505518px;stroke-linecap:butt;stroke-linejoin:miter;stroke-opacity:1"
       d="M 110.60503,73.552833 C 24.555093,115.84527 -28.606443,697.033 57.068531,1039.0561 L 263.83028,1022.4414 C 245.91065,902.72326 164.44299,786.53579 225.06242,662.45436 391.12318,502.05397 494.43821,577.16284 546.28156,595.99533 c 31.04788,152.17349 -17.0599,288.51582 -57.2287,426.44607 l 221.53042,-7.3845 C 769.7348,670.84282 707.29745,240.61386 649.66237,82.783187 L 433.67026,71.706739 C 488.66589,175.23076 516.2136,282.67594 537.05109,391.07966 360.86722,406.4941 252.3298,426.74043 213.98598,452.00054 176.42321,343.06878 300.03683,80.259005 304.44413,79.090999 315.1511,76.253478 110.60503,73.552833 110.60503,73.552833 z"
       id="path3036"
       inkscape:connector-curvature="0"
       sodipodi:nodetypes="cccccccccccsc" />
  </g>
</svg>
