<?xml version="1.0" encoding="UTF-8" standalone="no"?>
<!-- Created with Inkscape (http://www.inkscape.org/) -->

<svg
   xmlns:dc="http://purl.org/dc/elements/1.1/"
   xmlns:cc="http://creativecommons.org/ns#"
   xmlns:rdf="http://www.w3.org/1999/02/22-rdf-syntax-ns#"
   xmlns:svg="http://www.w3.org/2000/svg"
   xmlns="http://www.w3.org/2000/svg"
   xmlns:sodipodi="http://sodipodi.sourceforge.net/DTD/sodipodi-0.dtd"
   xmlns:inkscape="http://www.inkscape.org/namespaces/inkscape"
   width="210mm"
   height="297mm"
   id="svg3076"
   version="1.1"
   inkscape:version="0.48.4 r9939"
   sodipodi:docname="Nouveau document 9">
  <defs
     id="defs3078" />
  <sodipodi:namedview
     id="base"
     pagecolor="#ffffff"
     bordercolor="#666666"
     borderopacity="1.0"
     inkscape:pageopacity="0.0"
     inkscape:pageshadow="2"
     inkscape:zoom="0.35"
     inkscape:cx="375"
     inkscape:cy="520"
     inkscape:document-units="px"
     inkscape:current-layer="layer1"
     showgrid="false"
     inkscape:window-width="1600"
     inkscape:window-height="838"
     inkscape:window-x="-8"
     inkscape:window-y="-8"
     inkscape:window-maximized="1" />
  <metadata
     id="metadata3081">
    <rdf:RDF>
      <cc:Work
         rdf:about="">
        <dc:format>image/svg+xml</dc:format>
        <dc:type
           rdf:resource="http://purl.org/dc/dcmitype/StillImage" />
        <dc:title></dc:title>
      </cc:Work>
    </rdf:RDF>
  </metadata>
  <g
     inkscape:label="Calque 1"
     inkscape:groupmode="layer"
     id="layer1">
    <path
       style="fill:none;stroke:#000000;stroke-width:13.00999546px;stroke-linecap:butt;stroke-linejoin:miter;stroke-opacity:1"
       d="M 99.401423,32.635076 C 2.5284729,491.29701 34.372913,892.26001 93.166253,1010.0035 l 207.320527,-6.2352 c -34.81137,-34.4618 -59.74724,-416.86343 65.46968,-427.11153 80.17878,-6.56225 161.58948,318.03299 143.4097,427.11153 l 213.55578,4.6764 c -27.9639,-92.77086 84.6577,-188.93919 -218.23209,-556.49213 0,0 208.87939,-397.494274 191.73249,-413.082324 -17.14681,-15.58806 -192.0005,-18.32523 -185.49732,-14.0292 21.67153,14.31633 -184.72711,462.742264 -254.0847,431.787964 -47.93871,-21.39507 45.3613,-421.299434 34.2937,-419.317624 -24.55025,4.39634 -191.732597,-4.67631 -191.732597,-4.67631 z"
       id="path3063"
       inkscape:connector-curvature="0"
       sodipodi:nodetypes="cccscccssssc" />
  </g>
</svg>
