<?xml version="1.0" encoding="UTF-8" standalone="no"?>
<!-- Created with Inkscape (http://www.inkscape.org/) -->

<svg
   xmlns:dc="http://purl.org/dc/elements/1.1/"
   xmlns:cc="http://creativecommons.org/ns#"
   xmlns:rdf="http://www.w3.org/1999/02/22-rdf-syntax-ns#"
   xmlns:svg="http://www.w3.org/2000/svg"
   xmlns="http://www.w3.org/2000/svg"
   xmlns:sodipodi="http://sodipodi.sourceforge.net/DTD/sodipodi-0.dtd"
   xmlns:inkscape="http://www.inkscape.org/namespaces/inkscape"
   preserveAspectRatio="xMinYMin meet"
   viewBox="0 0 610.02612 995.80109"
   width="100%"
   height="100%"
   id="svg3143"
   version="1.1"
   inkscape:version="0.48.4 r9939"
   sodipodi:docname="arbre.svg">
  <defs
     id="defs3143" />
  <sodipodi:namedview
     id="base"
     pagecolor="#ffffff"
     bordercolor="#666666"
     borderopacity="1.0"
     inkscape:pageopacity="0.0"
     inkscape:pageshadow="2"
     inkscape:zoom="0.34228343"
     inkscape:cx="-156.73375"
     inkscape:cy="833.46742"
     inkscape:document-units="px"
     inkscape:current-layer="layer1"
     showgrid="false"
     inkscape:window-width="1600"
     inkscape:window-height="838"
     inkscape:window-x="-8"
     inkscape:window-y="-8"
     inkscape:window-maximized="1"
     fit-margin-top="0"
     fit-margin-left="0"
     fit-margin-right="0"
     fit-margin-bottom="0" />
  <metadata
     id="metadata3146">
    <rdf:RDF>
      <cc:Work
         rdf:about="">
        <dc:format>image/svg+xml</dc:format>
        <dc:type
           rdf:resource="http://purl.org/dc/dcmitype/StillImage" />
        <dc:title />
      </cc:Work>
    </rdf:RDF>
  </metadata>
  <g
     inkscape:label="Calque 1"
     inkscape:groupmode="layer"
     id="layer1"
     transform="translate(-80.391314,-47.909945)">
    <path
       style="fill:none;stroke:#000000;stroke-width:0.70270399;stroke-linecap:butt;stroke-linejoin:miter;stroke-opacity:1;stroke-miterlimit:4;stroke-dasharray:none"
       d="M 384.22433,48.260595 C 310.48667,48.841441 266.27084,55.91067 241.07964,125.86057"
       id="path3113"
       inkscape:connector-curvature="0"
       sodipodi:nodetypes="cc" />
    <path
       style="fill:none;stroke:#000000;stroke-width:0.70270399;stroke-linecap:butt;stroke-linejoin:miter;stroke-opacity:1;stroke-miterlimit:4;stroke-dasharray:none"
       d="M 301.97845,125.35329 C 147.02735,103.93345 122.28576,238.41026 151.5292,241.09998"
       id="path3115"
       inkscape:connector-curvature="0"
       sodipodi:nodetypes="cc" />
    <path
       style="fill:none;stroke:#000000;stroke-width:0.70270399;stroke-linecap:butt;stroke-linejoin:miter;stroke-opacity:1;stroke-miterlimit:4;stroke-dasharray:none"
       d="M 248.21768,246.0945 C 126.84145,189.3458 49.769022,330.46498 113.55666,370.27278"
       id="path3117"
       inkscape:connector-curvature="0"
       sodipodi:nodetypes="cc" />
    <path
       style="fill:none;stroke:#000000;stroke-width:0.70270399;stroke-linecap:butt;stroke-linejoin:miter;stroke-opacity:1;stroke-miterlimit:4;stroke-dasharray:none"
       d="M 199.19998,336.80593 C 143.06311,343.13283 68.046909,380.895 82.571619,447.67544 111.50791,541.67978 191.67816,499.22353 207.65131,483.67202"
       id="path3119"
       inkscape:connector-curvature="0"
       sodipodi:nodetypes="ccc" />
    <path
       style="fill:none;stroke:#000000;stroke-width:0.70270399;stroke-linecap:butt;stroke-linejoin:miter;stroke-opacity:1;stroke-miterlimit:4;stroke-dasharray:none"
       d="m 122.43787,499.33582 c 5.03724,47.72377 47.12487,80.69596 117.0346,87.98406 100.0339,2.36941 146.07973,-50.41459 152.33573,-75.02661"
       id="path3121"
       inkscape:connector-curvature="0"
       sodipodi:nodetypes="ccc" />
    <path
       style="fill:none;stroke:#000000;stroke-width:0.64329146;stroke-linecap:butt;stroke-linejoin:miter;stroke-opacity:1;stroke-miterlimit:4;stroke-dasharray:none"
       d="m 333.39634,567.15856 0.28663,226.65182 c -11.02101,104.3912 -63.40113,161.5187 -124.24896,194.2283 52.59099,-6.2729 100.69714,-19.4769 138.53047,-48.5571 -13.1318,30.063 -27.96338,59.5079 -55.69782,84.26092 38.95788,-14.3597 67.2377,-39.39752 94.25784,-65.69492 16.985,45.11932 46.43327,73.77112 111.72736,85.34242 -37.06119,-23.606 -44.31035,-60.42452 -54.77461,-98.94572 31.93034,35.9978 61.66155,56.81012 112.05895,63.76182 C 456.46794,963.38298 457.26409,870.11108 446.50682,820.94528 437.99804,718.39172 430.76641,660.48767 445.14743,566.0129"
       id="path3123"
       inkscape:connector-curvature="0"
       sodipodi:nodetypes="ccccccccccc" />
    <path
       style="fill:none;stroke:#000000;stroke-width:0.70270399;stroke-linecap:butt;stroke-linejoin:miter;stroke-opacity:1;stroke-miterlimit:4;stroke-dasharray:none"
       d="m 384.18456,48.262861 c 73.73766,0.580846 120.00432,7.712026 145.19553,77.661919"
       id="path3113-7"
       inkscape:connector-curvature="0"
       sodipodi:nodetypes="cc" />
    <path
       style="fill:none;stroke:#000000;stroke-width:0.70270399;stroke-linecap:butt;stroke-linejoin:miter;stroke-opacity:1;stroke-miterlimit:4;stroke-dasharray:none"
       d="M 468.83034,125.4175 C 623.78143,103.99765 648.52302,238.47448 619.27958,241.16419"
       id="path3115-4"
       inkscape:connector-curvature="0"
       sodipodi:nodetypes="cc" />
    <path
       style="fill:none;stroke:#000000;stroke-width:0.70270399;stroke-linecap:butt;stroke-linejoin:miter;stroke-opacity:1;stroke-miterlimit:4;stroke-dasharray:none"
       d="m 522.59111,246.15871 c 121.37622,-56.74869 198.44865,84.37048 134.66101,124.17828"
       id="path3117-0"
       inkscape:connector-curvature="0"
       sodipodi:nodetypes="cc" />
    <path
       style="fill:none;stroke:#000000;stroke-width:0.70270399;stroke-linecap:butt;stroke-linejoin:miter;stroke-opacity:1;stroke-miterlimit:4;stroke-dasharray:none"
       d="m 571.60881,336.87014 c 56.13686,6.3269 131.15306,44.08907 116.62835,110.86952 -28.93629,94.00433 -109.10654,51.54808 -125.07967,35.99657"
       id="path3119-9"
       inkscape:connector-curvature="0"
       sodipodi:nodetypes="ccc" />
    <path
       style="fill:none;stroke:#000000;stroke-width:0.70270399;stroke-linecap:butt;stroke-linejoin:miter;stroke-opacity:1;stroke-miterlimit:4;stroke-dasharray:none"
       d="M 647.95952,499.25986 C 642.92227,546.98362 592.93592,575.4701 523.0262,582.7582 422.9923,585.1276 395.8808,536.23358 391.76403,512.18227"
       id="path3121-4"
       inkscape:connector-curvature="0"
       sodipodi:nodetypes="ccc" />
    <path
       sodipodi:type="arc"
       style="color:#000000;fill:none;stroke:#000000;stroke-width:1.00200105;stroke-linecap:butt;stroke-linejoin:miter;stroke-miterlimit:4;stroke-opacity:1;stroke-dasharray:none;stroke-dashoffset:0;marker:none;visibility:visible;display:inline;overflow:visible;enable-background:accumulate"
       id="path3145"
       sodipodi:cx="539.94519"
       sodipodi:cy="200.5623"
       sodipodi:rx="13.764079"
       sodipodi:ry="14.943857"
       d="m 553.70927,200.5623 c 0,8.25327 -6.16239,14.94386 -13.76408,14.94386 -7.60169,0 -13.76408,-6.69059 -13.76408,-14.94386 0,-8.25326 6.16239,-14.94386 13.76408,-14.94386 7.60169,0 13.76408,6.6906 13.76408,14.94386 z" />
    <path
       sodipodi:type="arc"
       style="color:#000000;fill:none;stroke:#000000;stroke-width:1.00200105;stroke-linecap:butt;stroke-linejoin:miter;stroke-miterlimit:4;stroke-opacity:1;stroke-dasharray:none;stroke-dashoffset:0;marker:none;visibility:visible;display:inline;overflow:visible;enable-background:accumulate"
       id="path3147"
       sodipodi:cx="499.43945"
       sodipodi:cy="520.67548"
       sodipodi:rx="14.943857"
       sodipodi:ry="15.730376"
       d="m 514.38331,520.67548 c 0,8.68764 -6.69059,15.73037 -14.94386,15.73037 -8.25326,0 -14.94385,-7.04273 -14.94385,-15.73037 0,-8.68765 6.69059,-15.73038 14.94385,-15.73038 8.25327,0 14.94386,7.04273 14.94386,15.73038 z" />
    <path
       sodipodi:type="arc"
       style="color:#000000;fill:none;stroke:#000000;stroke-width:1.00200105;stroke-linecap:butt;stroke-linejoin:miter;stroke-miterlimit:4;stroke-opacity:1;stroke-dasharray:none;stroke-dashoffset:0;marker:none;visibility:visible;display:inline;overflow:visible;enable-background:accumulate"
       id="path3149"
       sodipodi:cx="267.41641"
       sodipodi:cy="525.00134"
       sodipodi:rx="17.303413"
       sodipodi:ry="16.123636"
       d="m 284.71983,525.00134 c 0,8.90484 -7.74701,16.12364 -17.30342,16.12364 -9.55641,0 -17.30341,-7.2188 -17.30341,-16.12364 0,-8.90484 7.747,-16.12363 17.30341,-16.12363 9.55641,0 17.30342,7.21879 17.30342,16.12363 z" />
    <path
       sodipodi:type="arc"
       style="color:#000000;fill:none;stroke:#000000;stroke-width:1.00200105;stroke-linecap:butt;stroke-linejoin:miter;stroke-miterlimit:4;stroke-opacity:1;stroke-dasharray:none;stroke-dashoffset:0;marker:none;visibility:visible;display:inline;overflow:visible;enable-background:accumulate"
       id="path3153"
       sodipodi:cx="446.74268"
       sodipodi:cy="364.1582"
       sodipodi:rx="14.943857"
       sodipodi:ry="14.157339"
       d="m 461.68653,364.1582 c 0,7.81889 -6.69059,14.15734 -14.94385,14.15734 -8.25327,0 -14.94386,-6.33845 -14.94386,-14.15734 0,-7.81888 6.69059,-14.15734 14.94386,-14.15734 8.25326,0 14.94385,6.33846 14.94385,14.15734 z" />
    <path
       sodipodi:type="arc"
       style="color:#000000;fill:none;stroke:#000000;stroke-width:1.00200105;stroke-linecap:butt;stroke-linejoin:miter;stroke-miterlimit:4;stroke-opacity:1;stroke-dasharray:none;stroke-dashoffset:0;marker:none;visibility:visible;display:inline;overflow:visible;enable-background:accumulate"
       id="path3155"
       sodipodi:cx="319.32663"
       sodipodi:cy="420.00104"
       sodipodi:rx="16.516895"
       sodipodi:ry="14.943857"
       d="m 335.84352,420.00104 c 0,8.25326 -7.39486,14.94385 -16.51689,14.94385 -9.12203,0 -16.5169,-6.69059 -16.5169,-14.94385 0,-8.25327 7.39487,-14.94386 16.5169,-14.94386 9.12203,0 16.51689,6.69059 16.51689,14.94386 z" />
    <path
       sodipodi:type="arc"
       style="color:#000000;fill:none;stroke:#000000;stroke-width:1.00200105;stroke-linecap:butt;stroke-linejoin:miter;stroke-miterlimit:4;stroke-opacity:1;stroke-dasharray:none;stroke-dashoffset:0;marker:none;visibility:visible;display:inline;overflow:visible;enable-background:accumulate"
       id="path3157"
       sodipodi:cx="265.4501"
       sodipodi:cy="302.80975"
       sodipodi:rx="17.696674"
       sodipodi:ry="14.943857"
       d="m 283.14678,302.80975 c 0,8.25327 -7.92307,14.94386 -17.69668,14.94386 -9.7736,0 -17.69667,-6.69059 -17.69667,-14.94386 0,-8.25326 7.92307,-14.94385 17.69667,-14.94385 9.77361,0 17.69668,6.69059 17.69668,14.94385 z" />
    <path
       sodipodi:type="arc"
       style="color:#000000;fill:none;stroke:#000000;stroke-width:1.00200105;stroke-linecap:butt;stroke-linejoin:miter;stroke-miterlimit:4;stroke-opacity:1;stroke-dasharray:none;stroke-dashoffset:0;marker:none;visibility:visible;display:inline;overflow:visible;enable-background:accumulate"
       id="path3159"
       sodipodi:cx="412.13586"
       sodipodi:cy="105.39352"
       sodipodi:rx="14.943857"
       sodipodi:ry="14.157339"
       d="m 427.07972,105.39352 c 0,7.81888 -6.69059,14.15734 -14.94386,14.15734 -8.25326,0 -14.94385,-6.33846 -14.94385,-14.15734 0,-7.818886 6.69059,-14.157343 14.94385,-14.157343 8.25327,0 14.94386,6.338457 14.94386,14.157343 z" />
    <path
       sodipodi:type="arc"
       style="color:#000000;fill:none;stroke:#000000;stroke-width:1.00200105;stroke-linecap:butt;stroke-linejoin:miter;stroke-miterlimit:4;stroke-opacity:1;stroke-dasharray:none;stroke-dashoffset:0;marker:none;visibility:visible;display:inline;overflow:visible;enable-background:accumulate"
       id="path3161"
       sodipodi:cx="393.65268"
       sodipodi:cy="226.51743"
       sodipodi:rx="10.618004"
       sodipodi:ry="13.37082"
       d="m 404.27068,226.51743 c 0,7.3845 -4.75384,13.37082 -10.618,13.37082 -5.86416,0 -10.618,-5.98632 -10.618,-13.37082 0,-7.3845 4.75384,-13.37082 10.618,-13.37082 5.86416,0 10.618,5.98632 10.618,13.37082 z" />
    <path
       sodipodi:type="arc"
       style="color:#000000;fill:none;stroke:#000000;stroke-width:1.00200105;stroke-linecap:butt;stroke-linejoin:miter;stroke-miterlimit:4;stroke-opacity:1;stroke-dasharray:none;stroke-dashoffset:0;marker:none;visibility:visible;display:inline;overflow:visible;enable-background:accumulate"
       id="path3163"
       sodipodi:cx="639.43982"
       sodipodi:cy="411.74261"
       sodipodi:rx="11.797782"
       sodipodi:ry="9.8314848"
       d="m 651.2376,411.74261 c 0,5.42978 -5.28205,9.83149 -11.79778,9.83149 -6.51574,0 -11.79778,-4.40171 -11.79778,-9.83149 0,-5.42977 5.28204,-9.83148 11.79778,-9.83148 6.51573,0 11.79778,4.40171 11.79778,9.83148 z" />
    <path
       sodipodi:type="arc"
       style="color:#000000;fill:none;stroke:#000000;stroke-width:1.00200105;stroke-linecap:butt;stroke-linejoin:miter;stroke-miterlimit:4;stroke-opacity:1;stroke-dasharray:none;stroke-dashoffset:0;marker:none;visibility:visible;display:inline;overflow:visible;enable-background:accumulate"
       id="path3165"
       sodipodi:cx="170.67459"
       sodipodi:cy="386.96725"
       sodipodi:rx="13.37082"
       sodipodi:ry="11.011264"
       d="m 184.04541,386.96725 c 0,6.08136 -5.98632,11.01127 -13.37082,11.01127 -7.3845,0 -13.37082,-4.92991 -13.37082,-11.01127 0,-6.08135 5.98632,-11.01126 13.37082,-11.01126 7.3845,0 13.37082,4.92991 13.37082,11.01126 z" />
    <path
       sodipodi:type="arc"
       style="color:#000000;fill:none;stroke:#000000;stroke-width:1.00200105;stroke-linecap:butt;stroke-linejoin:miter;stroke-miterlimit:4;stroke-opacity:1;stroke-dasharray:none;stroke-dashoffset:0;marker:none;visibility:visible;display:inline;overflow:visible;enable-background:accumulate"
       id="path3169"
       sodipodi:cx="628.42853"
       sodipodi:cy="294.94455"
       sodipodi:rx="14.943857"
       sodipodi:ry="16.516895"
       d="m 643.37239,294.94455 c 0,9.12203 -6.6906,16.51689 -14.94386,16.51689 -8.25327,0 -14.94386,-7.39486 -14.94386,-16.51689 0,-9.12203 6.69059,-16.5169 14.94386,-16.5169 8.25326,0 14.94386,7.39487 14.94386,16.5169 z" />
    <path
       style="color:#000000;fill:none;stroke:#000000;stroke-width:0.78809266;stroke-linecap:butt;stroke-linejoin:miter;stroke-miterlimit:4;stroke-opacity:1;stroke-dasharray:none;stroke-dashoffset:0;marker:none;visibility:visible;display:inline;overflow:visible;enable-background:accumulate"
       d="m 244.67862,196.54684 c -7.67262,-4.07723 -9.28653,-14.26341 -3.27867,-20.69321 10.58829,-11.33192 27.10629,3.08214 18.87602,16.47173 -1.87722,3.05399 -6.61717,5.67781 -10.25702,5.67781 -1.42988,0 -3.83303,-0.65535 -5.34033,-1.45633 z"
       id="path3180"
       inkscape:connector-curvature="0" />
    <path
       style="color:#000000;fill:#ff5555;fill-opacity:1;stroke:#000000;stroke-width:0;marker:none;visibility:visible;display:inline;overflow:visible;enable-background:accumulate;stroke-opacity:1;stroke-miterlimit:4;stroke-dasharray:none;stroke-linecap:butt"
       d="m 323.39535,64.824732 c -6.67478,-6.674774 -6.31626,-9.640576 1.85745,-15.365664 12.4715,-8.73538 25.50372,5.840775 14.79581,16.548683 -5.19086,5.190857 -10.66851,4.801734 -16.65326,-1.183019 z"
       id="path4723"
       inkscape:connector-curvature="0"
       transform="translate(80.391314,47.909945)" />
    <path
       style="color:#000000;fill:#ff5555;fill-opacity:1;stroke:#000000;stroke-width:0;marker:none;visibility:visible;display:inline;overflow:visible;enable-background:accumulate;stroke-opacity:1;stroke-miterlimit:4;stroke-dasharray:none;stroke-linecap:butt"
       d="m 452.28936,160.75675 c -8.433,-10.16115 4.00953,-26.13289 13.93876,-17.89236 5.99161,4.97259 6.54114,13.37622 1.2225,18.69486 -5.10657,5.10657 -10.49382,4.82142 -15.16126,-0.8025 z"
       id="path4725"
       inkscape:connector-curvature="0"
       transform="translate(80.391314,47.909945)" />
    <path
       style="color:#000000;fill:#ff5555;fill-opacity:1;stroke:#000000;stroke-width:0;marker:none;visibility:visible;display:inline;overflow:visible;enable-background:accumulate;stroke-opacity:1;stroke-miterlimit:4;stroke-dasharray:none;stroke-linecap:butt"
       d="m 538.09434,254.44241 c -4.57355,-8.54576 -1.27854,-18.1345 7.15099,-20.80993 11.48485,-3.64515 20.31114,14.55382 11.38669,23.47828 -5.83486,5.83486 -14.66731,4.5635 -18.53768,-2.66835 z"
       id="path4727"
       inkscape:connector-curvature="0"
       transform="translate(80.391314,47.909945)" />
    <path
       style="color:#000000;fill:#ff5555;fill-opacity:1;stroke:#000000;stroke-width:0;marker:none;visibility:visible;display:inline;overflow:visible;enable-background:accumulate;stroke-opacity:1;stroke-miterlimit:4;stroke-dasharray:none;stroke-linecap:butt"
       d="m 553.61053,371.53797 c -2.88525,-1.4282 -4.04633,-2.68036 -4.96604,-5.35562 -1.04251,-3.03247 -0.24948,-5.73745 2.41084,-8.22321 4.62152,-4.31828 11.34502,-4.31828 15.96653,0 3.46682,3.23934 3.77006,8.01159 0.72302,11.37853 -2.97275,3.28486 -9.79713,4.34721 -14.13435,2.2003 l 0,0 z"
       id="path4731"
       inkscape:connector-curvature="0"
       transform="translate(80.391314,47.909945)" />
    <path
       style="color:#000000;fill:#ff5555;fill-opacity:1;stroke:#000000;stroke-width:0;marker:none;visibility:visible;display:inline;overflow:visible;enable-background:accumulate;stroke-opacity:1;stroke-miterlimit:4;stroke-dasharray:none;stroke-linecap:butt"
       d="m 178.12878,266.75186 c -2.10529,-1.12516 -5.25684,-3.97085 -7.00345,-6.32376 -2.80977,-3.78513 -2.93923,-4.84881 -1.1236,-9.23212 1.12863,-2.72476 4.06543,-5.99526 6.52623,-7.26779 16.21365,-8.3844 32.3978,8.7175 19.35056,20.44786 -4.18192,3.75983 -12.96131,4.93496 -17.74974,2.37581 z"
       id="path4733"
       inkscape:connector-curvature="0"
       transform="translate(80.391314,47.909945)" />
    <path
       style="color:#000000;fill:#ff5555;fill-opacity:1;stroke:#000000;stroke-width:0;marker:none;visibility:visible;display:inline;overflow:visible;enable-background:accumulate;stroke-opacity:1;stroke-miterlimit:4;stroke-dasharray:none;stroke-linecap:butt"
       d="m 165.6779,147.50768 c -7.06452,-2.61334 -8.76018,-11.27985 -3.51231,-17.95143 3.8311,-4.87044 9.23787,-5.41572 13.97281,-1.40916 5.00051,4.23129 5.77674,10.15666 1.96529,15.00213 -3.76187,4.78244 -7.62072,6.13597 -12.42579,4.35846 l 0,0 z"
       id="path4735"
       inkscape:connector-curvature="0"
       transform="translate(80.391314,47.909945)" />
    <path
       style="color:#000000;fill:#ff5555;fill-opacity:1;stroke:#000000;stroke-width:0;marker:none;visibility:visible;display:inline;overflow:visible;enable-background:accumulate;stroke-opacity:1;stroke-miterlimit:4;stroke-dasharray:none;stroke-linecap:butt"
       d="m 81.573018,344.42267 c -4.750012,-4.75001 -3.498684,-10.11795 3.117124,-13.37181 7.596864,-3.73637 16.843918,0.94503 16.843918,8.52738 0,8.40842 -13.194759,11.61071 -19.961042,4.84443 z"
       id="path4737"
       inkscape:connector-curvature="0"
       transform="translate(80.391314,47.909945)" />
    <path
       style="color:#000000;fill:#ff5555;fill-opacity:1;stroke:#000000;stroke-width:0;marker:none;visibility:visible;display:inline;overflow:visible;enable-background:accumulate;stroke-opacity:1;stroke-miterlimit:4;stroke-dasharray:none;stroke-linecap:butt"
       d="m 176.26023,486.98586 c -6.52975,-6.52975 -6.43455,-14.26729 0.24469,-19.8875 8.72643,-7.3428 21.66917,-4.46558 25.17699,5.59694 4.97778,14.27929 -14.48956,25.22268 -25.42168,14.29056 z"
       id="path4739"
       inkscape:connector-curvature="0"
       transform="translate(80.391314,47.909945)" />
    <path
       style="color:#000000;fill:#ff5555;fill-opacity:1;stroke:#000000;stroke-width:0;marker:none;visibility:visible;display:inline;overflow:visible;enable-background:accumulate;stroke-opacity:1;stroke-miterlimit:4;stroke-dasharray:none;stroke-linecap:butt"
       d="m 228.35696,380.74328 c -5.40011,-5.40011 -5.51261,-12.14994 -0.28955,-17.373 8.88445,-8.88445 25.28737,-3.05507 25.28737,8.9868 0,11.52068 -16.37118,17.01284 -24.99782,8.3862 l 0,0 z"
       id="path4741"
       inkscape:connector-curvature="0"
       transform="translate(80.391314,47.909945)" />
    <path
       style="color:#000000;fill:#ff5555;fill-opacity:1;stroke:#000000;stroke-width:0;marker:none;visibility:visible;display:inline;overflow:visible;enable-background:accumulate;stroke-opacity:1;stroke-miterlimit:4;stroke-dasharray:none;stroke-linecap:butt"
       d="m 360.31938,327.34547 c -11.92187,-7.08262 -7.6115,-23.62249 6.15614,-23.62249 7.26508,0 14.49301,7.9102 12.9631,14.18674 -2.0574,8.44065 -12.29209,13.49168 -19.11924,9.43575 z"
       id="path4743"
       inkscape:connector-curvature="0"
       transform="translate(80.391314,47.909945)" />
    <path
       style="color:#000000;fill:#ff5555;fill-opacity:1;stroke:#000000;stroke-width:0;marker:none;visibility:visible;display:inline;overflow:visible;enable-background:accumulate;stroke-opacity:1;stroke-miterlimit:4;stroke-dasharray:none;stroke-linecap:butt"
       d="m 307.08537,186.45762 c -1.81535,-2.30784 -3.30063,-5.79438 -3.30063,-7.74786 0,-4.59965 5.79473,-11.94394 9.42391,-11.94394 7.68944,0 11.64875,14.13514 5.77676,20.62362 -3.99453,4.41391 -7.93798,4.10512 -11.90004,-0.93182 z"
       id="path4745"
       inkscape:connector-curvature="0"
       transform="translate(80.391314,47.909945)" />
    <path
       style="color:#000000;fill:#ff5555;fill-opacity:1;stroke:#000000;stroke-width:0;marker:none;visibility:visible;display:inline;overflow:visible;enable-background:accumulate;stroke-opacity:1;stroke-miterlimit:4;stroke-dasharray:none;stroke-linecap:butt"
       d="m 409.90482,482.66488 c -10.30487,-10.30487 0.47224,-28.19587 13.68722,-22.72205 9.66888,4.00498 11.49846,17.24856 3.27635,23.71607 -5.63712,4.43416 -11.90253,4.06703 -16.96357,-0.99402 z"
       id="path4747"
       inkscape:connector-curvature="0"
       transform="translate(80.391314,47.909945)" />
    <path
       style="color:#000000;fill:#00d400;fill-opacity:1;stroke:#000000;stroke-width:7.00000003;marker:none;visibility:visible;display:inline;overflow:visible;enable-background:accumulate;stroke-opacity:1;stroke-miterlimit:4;stroke-dasharray:none;stroke-linecap:butt"
       d="M 138.16213,534.81403 C 92.169471,524.65178 63.814597,505.78984 50.517435,476.51195 c -2.386817,-5.25534 -4.863844,-11.98869 -5.504502,-14.96302 -1.104529,-5.12791 -0.970142,-5.35168 2.595876,-4.32249 9.584756,2.76628 26.686339,2.92002 38.163303,0.34309 11.810527,-2.65184 30.486708,-11.35524 38.852908,-18.10609 7.81762,-6.30821 3.11615,-5.5634 -6.23618,0.98793 -16.85706,11.80841 -41.980779,19.09794 -58.078694,16.85127 C 51.701532,456.10121 37.759429,449.96 30.222917,444.04985 17.816808,434.32094 4.0527004,407.37851 1.9375273,388.68285 -0.71780368,365.21282 13.075182,338.94223 37.543551,320.86638 55.372966,307.69502 84.081256,295.9484 107.50602,292.23971 c 6.3502,-1.00539 11.54581,-2.41613 11.54581,-3.13498 0,-1.65433 0.84728,-1.7202 -13.7185,1.06669 -23.665221,4.5279 -48.633856,14.29552 -64.784081,25.34325 -3.32348,2.27346 -7.024916,4.13356 -8.225412,4.13356 -1.200498,0 -5.071497,-3.28183 -8.60222,-7.29294 -26.2869267,-29.86352 -6.415088,-87.70669 38.795574,-112.92659 16.720156,-9.32702 30.83516,-12.77332 51.757069,-12.63692 16.75505,0.10925 19.79109,0.62043 35.66567,6.00539 16.96709,5.75557 24.80214,6.91085 12.76798,1.88266 -18.90375,-7.89848 -28.00252,-9.60197 -50.82244,-9.51502 -18.774718,0.0715 -23.749094,0.62648 -31.501554,3.51433 -5.063411,1.88616 -10.203674,3.04662 -11.422806,2.57878 -4.652335,-1.78527 -7.698763,-11.77324 -6.735908,-22.08421 2.43989,-26.12821 20.700564,-53.80742 46.814158,-70.960075 24.4004,-16.027352 60.77414,-24.16423 94.78336,-21.203229 9.87084,0.8594 18.24558,1.340128 18.61053,1.068281 2.78901,-2.07747 -5.66472,-2.883054 -30.25453,-2.883054 -15.69206,0 -28.53217,-0.602801 -28.53359,-1.339559 -0.001,-0.736756 3.38037,-7.8896 7.51511,-15.895207 14.24206,-27.575267 35.52238,-43.93715 65.71542,-50.5268741 42.95263,-9.3745454 120.87298,-6.94475375 151.54513,4.7256341 24.63351,9.37276 43.38688,28.365742 55.16478,55.869644 l 3.06883,7.166362 -28.30476,0 c -24.46673,0 -32.74942,0.800211 -30.02837,2.90111 0.36496,0.281778 8.68482,-0.175595 18.48859,-1.016385 48.75387,-4.181219 96.74095,13.76586 121.0388,45.268272 18.35551,23.79812 25.81335,56.42182 15.30122,66.93395 -3.16141,3.1614 -3.18637,3.16051 -13.37265,-0.47522 -8.72145,-3.11289 -13.3314,-3.64163 -31.70444,-3.63634 -23.12601,0.006 -34.19194,2.12334 -49.83648,9.53274 -10.07353,4.7709 -4.49778,3.96695 11.22124,-1.61797 6.3521,-2.2569 17.34913,-4.92364 24.43782,-5.92612 29.83542,-4.21927 63.17221,6.78419 84.39722,27.85697 19.74065,19.59908 29.31816,40.52293 29.30498,64.0222 -0.01,17.03902 -3.19595,25.49934 -13.47507,35.77846 l -6.6379,6.6379 -5.06848,-3.8233 c -15.33967,-11.57119 -42.82297,-22.70571 -67.97323,-27.53852 -14.0811,-2.70577 -15.50979,-2.79962 -13.45683,-0.88386 0.83209,0.7765 6.34927,2.23058 12.26039,3.23131 35.23034,5.96437 72.11507,25.50622 88.68781,46.98758 13.78627,17.86956 19.28014,40.33035 14.52861,59.3977 -3.11957,12.51837 -12.32237,29.88742 -20.629,38.93442 -7.51884,8.18898 -17.66405,15.613 -17.71436,12.96293 -0.0127,-0.70645 -0.57364,-0.42027 -1.24494,0.63592 -1.37869,2.16918 -17.98488,6.853 -24.14753,6.81088 -14.20531,-0.0971 -42.32908,-10.31798 -55.01451,-19.99364 -3.06074,-2.33455 -5.56499,-3.42729 -5.56499,-2.42835 0,4.96199 27.97814,19.03565 45.17374,22.72346 7.9865,1.71279 29.49245,1.03546 34.85065,-1.09763 4.15803,-1.65532 3.56998,3.15213 -1.75659,14.36027 -8.9626,18.85905 -23.04049,31.7496 -47.14325,43.16719 -40.16928,19.02837 -89.61189,23.28976 -133.57299,11.51245 -9.27652,-2.4852 -12.77853,-4.17293 -13.67232,-6.58909 -0.79931,-2.16069 -1.58496,-2.62778 -2.34676,-1.39518 -0.82783,1.33946 -2.99683,0.92389 -7.82675,-1.49952 -18.29506,-9.17956 -33.26126,-25.19007 -39.65319,-42.42014 -4.47256,-12.0562 -5.2024,-12.66773 -7.6948,-6.44748 -5.59103,13.95346 -21.1684,30.97303 -39.00654,42.61788 -6.76823,4.41836 -13.34009,8.03338 -14.60409,8.03338 -1.26402,0 -3.27242,0.9742 -4.46309,2.16488 -2.57176,2.57175 -24.14209,9.6837 -39.80954,13.12559 -6.13122,1.34693 -21.89722,2.75309 -35.03555,3.12481 -19.34552,0.54733 -26.46188,0.10717 -37.42434,-2.31511 l 0,0 z m 56.37767,-42.20861 c 6.94003,-2.89974 10.50838,-8.20603 10.50838,-15.62643 0,-18.15522 -26.6549,-23.41433 -34.568,-6.82041 -4.55414,9.55017 0.98152,20.82303 11.54277,23.50575 5.37663,1.36574 7.05332,1.22389 12.51685,-1.05891 l 0,0 z m 230.99607,-4.81097 c 6.49268,-2.71282 9.233,-7.32774 9.12211,-15.36236 -0.14141,-10.25182 -6.38781,-16.45488 -16.28626,-16.17345 -7.16246,0.20366 -12.26704,4.22152 -14.39752,11.33243 -1.5974,5.33163 -1.43606,7.09519 1.12854,12.33594 2.80839,5.73895 8.34996,10.0445 12.99682,10.09793 1.12299,0.0127 4.46933,-0.99081 7.43631,-2.23049 l 0,0 z M 248.07824,385.72154 c 5.79198,-2.99516 7.93075,-6.87014 7.93075,-14.36888 0,-16.41524 -25.517,-21.11741 -32.68016,-6.02216 -7.0146,14.78218 9.41666,28.3199 24.74941,20.39104 l 0,0 z m 320.46379,-14.68715 c 4.06283,-3.66137 3.63817,-12.38871 -0.75249,-15.46405 -5.39794,-3.78086 -13.46069,-3.14153 -18.03206,1.42985 -6.12256,6.12254 -4.87643,12.61885 3.09763,16.14854 5.53447,2.44979 11.51711,1.64345 15.68692,-2.11434 z M 98.235106,349.16885 c 7.394124,-3.82365 8.740004,-11.78494 3.021354,-17.87218 -7.59074,-8.07996 -25.202806,-2.88423 -25.202806,7.43507 0,10.19882 11.855139,15.77705 22.181452,10.43711 l 0,0 z m 280.796444,-23.305 c 3.12918,-3.79895 3.67053,-12.73658 1.06621,-17.60281 -2.31373,-4.32326 -11.86581,-8.14008 -17.35458,-6.93454 -10.58428,2.3247 -15.85035,16.89454 -8.88724,24.5887 6.24782,6.90375 19.46894,6.87679 25.17561,-0.0513 l 0,-7e-5 z M 198.70783,265.47459 c 6.76253,-6.31715 6.7293,-15.53956 -0.0766,-21.26637 -8.66719,-7.29297 -19.80504,-6.90816 -28.22043,0.97502 -5.13168,4.80713 -4.97956,15.26706 0.29409,20.22139 7.62488,7.16321 20.37553,7.19506 28.00297,0.0699 l -3e-5,5e-5 z m 358.77636,-4.0671 c 3.71251,-2.20177 7.11282,-12.12976 6.22537,-18.17638 -0.81208,-5.53301 -6.78532,-12.03738 -12.3332,-13.4298 -2.14966,-0.53953 -6.44852,0.0804 -9.55303,1.37749 -10.62269,4.43844 -13.04105,20.00805 -4.44321,28.60587 5.62934,5.62935 12.42368,6.17779 20.10407,1.62282 l 0,0 z M 321.70064,188.74636 c 3.77246,-4.36286 3.68917,-15.7359 -0.15001,-20.477 -3.42008,-4.22363 -11.83851,-4.92844 -15.47164,-1.29531 -6.48479,6.48481 -5.02828,21.02931 2.48327,24.79767 4.77986,2.39792 9.36114,1.34299 13.13834,-3.02536 l 4e-5,0 z m 146.25219,-22.42931 c 3.96637,-3.04529 6.23209,-8.38885 6.23209,-14.69802 0,-7.51213 -7.08454,-15.11118 -14.08804,-15.11118 -5.93785,0 -13.91666,6.44848 -15.00168,12.12437 -1.15507,6.04235 1.5809,14.46264 5.61808,17.29039 4.13916,2.89918 13.69251,3.11775 17.23955,0.39444 l 0,0 z M 178.8439,146.93165 c 10.53592,-10.53591 -0.74124,-28.1795 -14.3713,-22.4845 -9.46817,3.95606 -10.73158,17.8463 -2.16876,23.84393 5.32219,3.72781 12.00183,3.17881 16.54006,-1.35943 z M 339.46488,70.993665 c 2.18872,-0.99725 5.13556,-4.2494 6.54851,-7.227001 4.95731,-10.446746 -2.33216,-21.217794 -14.35946,-21.217794 -15.09127,0 -21.46176,16.683545 -10.04024,26.294122 5.08769,4.281015 11.48423,5.051655 17.85119,2.150673 z"
       id="path4749"
       inkscape:connector-curvature="0"
       transform="translate(80.391314,47.909945)" />
    <path
       style="color:#000000;fill:#d38d5f;fill-opacity:1;stroke:#000000;stroke-width:7.00000003;marker:none;visibility:visible;display:inline;overflow:visible;enable-background:accumulate;stroke-opacity:1;stroke-miterlimit:4;stroke-dasharray:none;stroke-linecap:butt"
       d="m 389.78109,987.11784 c -39.02376,-12.84083 -61.06201,-31.6929 -77.49101,-66.28769 l -5.66152,-11.92157 -4.20882,3.01631 c -2.31487,1.65898 -6.00043,4.96702 -8.19015,7.35121 -6.23484,6.78855 -28.34883,24.9571 -40.48134,33.2589 -9.94101,6.80223 -31.20704,18.45598 -33.6789,18.45598 -0.54098,0 2.42226,-3.76234 6.58497,-8.36076 4.16272,-4.59842 11.36892,-14.16298 16.01379,-21.25457 8.69455,-13.27448 27.14368,-49.47917 25.86507,-50.75777 -0.39522,-0.39522 -5.37108,2.42785 -11.05748,6.27349 -28.42448,19.22312 -71.83118,34.44602 -113.73973,39.88897 l -7.96263,1.03417 9.37218,-5.78869 c 54.38736,-33.5921 88.94872,-84.59351 104.71575,-154.52664 3.51972,-15.61139 3.6019,-18.2791 4.17001,-135.36463 l 0.57953,-119.43938 12.04639,-7.16636 c 15.79973,-9.39922 31.80153,-24.32855 38.65786,-36.06695 l 5.50757,-9.42924 5.27212,11.00109 c 6.59184,13.75486 22.5537,30.00993 36.83392,37.51056 l 10.12708,5.3192 -1.05491,6.58222 c -5.60967,35.00238 -7.54385,108.05002 -4.10433,155.00675 8.37542,114.34243 17.11862,162.44968 36.46906,200.66157 12.37918,24.4455 31.40205,45.6228 54.8679,61.08192 7.89972,5.20428 13.2031,9.46232 11.78528,9.46232 -5.09221,0 -32.42115,-9.94822 -42.1951,-15.35976 -14.5177,-8.038 -33.50533,-22.8048 -44.67095,-34.74089 -5.35865,-5.72842 -10.12585,-10.4153 -10.59378,-10.4153 -1.6543,0 -0.79016,4.32686 4.78392,23.95396 7.90023,27.81779 17.35433,46.60148 30.43337,60.46595 12.08456,12.81027 11.44018,13.27989 -8.99512,6.55563 l 0,0 z"
       id="path4751"
       inkscape:connector-curvature="0"
       transform="translate(80.391314,47.909945)" />
  </g>
  <script id="scriptsvg3143">
	document.oncontextmenu = new Function("return false");
  </script>
 <script id="script_svg">document.oncontextmenu = new Function("return false");</script>
</svg>
