<?xml version="1.0" encoding="UTF-8" standalone="no"?>
<!-- Created with Inkscape (http://www.inkscape.org/) -->

<svg
	preserveAspectRatio="xMinYMin meet"
	viewBox="0 0 610.02612 995.80109"
   xmlns:dc="http://purl.org/dc/elements/1.1/"
   xmlns:cc="http://creativecommons.org/ns#"
   xmlns:rdf="http://www.w3.org/1999/02/22-rdf-syntax-ns#"
   xmlns:svg="http://www.w3.org/2000/svg"
   xmlns="http://www.w3.org/2000/svg"
   xmlns:sodipodi="http://sodipodi.sourceforge.net/DTD/sodipodi-0.dtd"
   xmlns:inkscape="http://www.inkscape.org/namespaces/inkscape"
   width="100%"
   height="100%"
   id="svg3141"
   version="1.1"
   inkscape:version="0.48.4 r9939"
   sodipodi:docname="arbre.svg">
  <defs
     id="defs3143" />
  <sodipodi:namedview
     id="base"
     pagecolor="#ffffff"
     bordercolor="#666666"
     borderopacity="1.0"
     inkscape:pageopacity="0.0"
     inkscape:pageshadow="2"
     inkscape:zoom="1.2714254"
     inkscape:cx="227.32201"
     inkscape:cy="743.81579"
     inkscape:document-units="px"
     inkscape:current-layer="layer1"
     showgrid="false"
     inkscape:window-width="1600"
     inkscape:window-height="838"
     inkscape:window-x="-8"
     inkscape:window-y="-8"
     inkscape:window-maximized="1"
     fit-margin-top="0"
     fit-margin-left="0"
     fit-margin-right="0"
     fit-margin-bottom="0" />
  <metadata
     id="metadata3146">
    <rdf:RDF>
      <cc:Work
         rdf:about="">
        <dc:format>image/svg+xml</dc:format>
        <dc:type
           rdf:resource="http://purl.org/dc/dcmitype/StillImage" />
        <dc:title />
      </cc:Work>
    </rdf:RDF>
  </metadata>
  <g
     inkscape:label="Calque 1"
     inkscape:groupmode="layer"
     id="layer1"
     transform="translate(-80.391314,-47.909945)">
    <path
       style="fill:none;stroke:#000000;stroke-width:0.70130068px;stroke-linecap:butt;stroke-linejoin:miter;stroke-opacity:1"
       d="M 384.22433,48.260595 C 310.48667,48.841441 266.27084,55.91067 241.07964,125.86057"
       id="path3113"
       inkscape:connector-curvature="0"
       sodipodi:nodetypes="cc" />
    <path
       style="fill:none;stroke:#000000;stroke-width:0.70130068px;stroke-linecap:butt;stroke-linejoin:miter;stroke-opacity:1"
       d="M 301.97845,125.35329 C 147.02735,103.93345 122.28576,238.41026 151.5292,241.09998"
       id="path3115"
       inkscape:connector-curvature="0"
       sodipodi:nodetypes="cc" />
    <path
       style="fill:none;stroke:#000000;stroke-width:0.70130068px;stroke-linecap:butt;stroke-linejoin:miter;stroke-opacity:1"
       d="M 248.21768,246.0945 C 126.84145,189.3458 49.769022,330.46498 113.55666,370.27278"
       id="path3117"
       inkscape:connector-curvature="0"
       sodipodi:nodetypes="cc" />
    <path
       style="fill:none;stroke:#000000;stroke-width:0.70130068px;stroke-linecap:butt;stroke-linejoin:miter;stroke-opacity:1"
       d="M 199.19998,336.80593 C 143.06311,343.13283 68.046909,380.895 82.571619,447.67544 111.50791,541.67978 191.67816,499.22353 207.65131,483.67202"
       id="path3119"
       inkscape:connector-curvature="0"
       sodipodi:nodetypes="ccc" />
    <path
       style="fill:none;stroke:#000000;stroke-width:0.70130068px;stroke-linecap:butt;stroke-linejoin:miter;stroke-opacity:1"
       d="m 122.43787,499.33582 c 5.03724,47.72377 47.12487,80.69596 117.0346,87.98406 100.0339,2.36941 146.07973,-50.41459 152.33573,-75.02661"
       id="path3121"
       inkscape:connector-curvature="0"
       sodipodi:nodetypes="ccc" />
    <path
       style="fill:none;stroke:#000000;stroke-width:0.64200681px;stroke-linecap:butt;stroke-linejoin:miter;stroke-opacity:1"
       d="m 333.39634,567.15856 0.28663,226.65182 c -11.02101,104.3912 -63.40113,161.5187 -124.24896,194.2283 52.59099,-6.2729 100.69714,-19.4769 138.53047,-48.5571 -13.1318,30.063 -27.96338,59.5079 -55.69782,84.26092 38.95788,-14.3597 67.2377,-39.39752 94.25784,-65.69492 16.985,45.11932 46.43327,73.77112 111.72736,85.34242 -37.06119,-23.606 -44.31035,-60.42452 -54.77461,-98.94572 31.93034,35.9978 61.66155,56.81012 112.05895,63.76182 C 456.46794,963.38298 457.26409,870.11108 446.50682,820.94528 437.99804,718.39172 430.76641,660.48767 445.14743,566.0129"
       id="path3123"
       inkscape:connector-curvature="0"
       sodipodi:nodetypes="ccccccccccc" />
    <path
       style="fill:none;stroke:#000000;stroke-width:0.70130068px;stroke-linecap:butt;stroke-linejoin:miter;stroke-opacity:1"
       d="m 384.18456,48.262861 c 73.73766,0.580846 120.00432,7.712026 145.19553,77.661919"
       id="path3113-7"
       inkscape:connector-curvature="0"
       sodipodi:nodetypes="cc" />
    <path
       style="fill:none;stroke:#000000;stroke-width:0.70130068px;stroke-linecap:butt;stroke-linejoin:miter;stroke-opacity:1"
       d="M 468.83034,125.4175 C 623.78143,103.99765 648.52302,238.47448 619.27958,241.16419"
       id="path3115-4"
       inkscape:connector-curvature="0"
       sodipodi:nodetypes="cc" />
    <path
       style="fill:none;stroke:#000000;stroke-width:0.70130068px;stroke-linecap:butt;stroke-linejoin:miter;stroke-opacity:1"
       d="m 522.59111,246.15871 c 121.37622,-56.74869 198.44865,84.37048 134.66101,124.17828"
       id="path3117-0"
       inkscape:connector-curvature="0"
       sodipodi:nodetypes="cc" />
    <path
       style="fill:none;stroke:#000000;stroke-width:0.70130068px;stroke-linecap:butt;stroke-linejoin:miter;stroke-opacity:1"
       d="m 571.60881,336.87014 c 56.13686,6.3269 131.15306,44.08907 116.62835,110.86952 -28.93629,94.00433 -109.10654,51.54808 -125.07967,35.99657"
       id="path3119-9"
       inkscape:connector-curvature="0"
       sodipodi:nodetypes="ccc" />
    <path
       style="fill:none;stroke:#000000;stroke-width:0.70130068px;stroke-linecap:butt;stroke-linejoin:miter;stroke-opacity:1"
       d="M 647.95952,499.25986 C 642.92227,546.98362 592.93592,575.4701 523.0262,582.7582 422.9923,585.1276 395.8808,536.23358 391.76403,512.18227"
       id="path3121-4"
       inkscape:connector-curvature="0"
       sodipodi:nodetypes="ccc" />
    <path
       sodipodi:type="arc"
       style="color:#000000;fill:none;stroke:#000000;stroke-width:1px;stroke-linecap:butt;stroke-linejoin:miter;stroke-miterlimit:4;stroke-opacity:1;stroke-dasharray:none;stroke-dashoffset:0;marker:none;visibility:visible;display:inline;overflow:visible;enable-background:accumulate"
       id="path3145"
       sodipodi:cx="539.94519"
       sodipodi:cy="200.5623"
       sodipodi:rx="13.764079"
       sodipodi:ry="14.943857"
       d="m 553.70927,200.5623 c 0,8.25327 -6.16239,14.94386 -13.76408,14.94386 -7.60169,0 -13.76408,-6.69059 -13.76408,-14.94386 0,-8.25326 6.16239,-14.94386 13.76408,-14.94386 7.60169,0 13.76408,6.6906 13.76408,14.94386 z" />
    <path
       sodipodi:type="arc"
       style="color:#000000;fill:none;stroke:#000000;stroke-width:1px;stroke-linecap:butt;stroke-linejoin:miter;stroke-miterlimit:4;stroke-opacity:1;stroke-dasharray:none;stroke-dashoffset:0;marker:none;visibility:visible;display:inline;overflow:visible;enable-background:accumulate"
       id="path3147"
       sodipodi:cx="499.43945"
       sodipodi:cy="520.67548"
       sodipodi:rx="14.943857"
       sodipodi:ry="15.730376"
       d="m 514.38331,520.67548 c 0,8.68764 -6.69059,15.73037 -14.94386,15.73037 -8.25326,0 -14.94385,-7.04273 -14.94385,-15.73037 0,-8.68765 6.69059,-15.73038 14.94385,-15.73038 8.25327,0 14.94386,7.04273 14.94386,15.73038 z" />
    <path
       sodipodi:type="arc"
       style="color:#000000;fill:none;stroke:#000000;stroke-width:1px;stroke-linecap:butt;stroke-linejoin:miter;stroke-miterlimit:4;stroke-opacity:1;stroke-dasharray:none;stroke-dashoffset:0;marker:none;visibility:visible;display:inline;overflow:visible;enable-background:accumulate"
       id="path3149"
       sodipodi:cx="267.41641"
       sodipodi:cy="525.00134"
       sodipodi:rx="17.303413"
       sodipodi:ry="16.123636"
       d="m 284.71983,525.00134 c 0,8.90484 -7.74701,16.12364 -17.30342,16.12364 -9.55641,0 -17.30341,-7.2188 -17.30341,-16.12364 0,-8.90484 7.747,-16.12363 17.30341,-16.12363 9.55641,0 17.30342,7.21879 17.30342,16.12363 z" />
    <path
       sodipodi:type="arc"
       style="color:#000000;fill:none;stroke:#000000;stroke-width:1px;stroke-linecap:butt;stroke-linejoin:miter;stroke-miterlimit:4;stroke-opacity:1;stroke-dasharray:none;stroke-dashoffset:0;marker:none;visibility:visible;display:inline;overflow:visible;enable-background:accumulate"
       id="path3153"
       sodipodi:cx="446.74268"
       sodipodi:cy="364.1582"
       sodipodi:rx="14.943857"
       sodipodi:ry="14.157339"
       d="m 461.68653,364.1582 c 0,7.81889 -6.69059,14.15734 -14.94385,14.15734 -8.25327,0 -14.94386,-6.33845 -14.94386,-14.15734 0,-7.81888 6.69059,-14.15734 14.94386,-14.15734 8.25326,0 14.94385,6.33846 14.94385,14.15734 z" />
    <path
       sodipodi:type="arc"
       style="color:#000000;fill:none;stroke:#000000;stroke-width:1px;stroke-linecap:butt;stroke-linejoin:miter;stroke-miterlimit:4;stroke-opacity:1;stroke-dasharray:none;stroke-dashoffset:0;marker:none;visibility:visible;display:inline;overflow:visible;enable-background:accumulate"
       id="path3155"
       sodipodi:cx="319.32663"
       sodipodi:cy="420.00104"
       sodipodi:rx="16.516895"
       sodipodi:ry="14.943857"
       d="m 335.84352,420.00104 c 0,8.25326 -7.39486,14.94385 -16.51689,14.94385 -9.12203,0 -16.5169,-6.69059 -16.5169,-14.94385 0,-8.25327 7.39487,-14.94386 16.5169,-14.94386 9.12203,0 16.51689,6.69059 16.51689,14.94386 z" />
    <path
       sodipodi:type="arc"
       style="color:#000000;fill:none;stroke:#000000;stroke-width:1px;stroke-linecap:butt;stroke-linejoin:miter;stroke-miterlimit:4;stroke-opacity:1;stroke-dasharray:none;stroke-dashoffset:0;marker:none;visibility:visible;display:inline;overflow:visible;enable-background:accumulate"
       id="path3157"
       sodipodi:cx="265.4501"
       sodipodi:cy="302.80975"
       sodipodi:rx="17.696674"
       sodipodi:ry="14.943857"
       d="m 283.14678,302.80975 c 0,8.25327 -7.92307,14.94386 -17.69668,14.94386 -9.7736,0 -17.69667,-6.69059 -17.69667,-14.94386 0,-8.25326 7.92307,-14.94385 17.69667,-14.94385 9.77361,0 17.69668,6.69059 17.69668,14.94385 z" />
    <path
       sodipodi:type="arc"
       style="color:#000000;fill:none;stroke:#000000;stroke-width:1px;stroke-linecap:butt;stroke-linejoin:miter;stroke-miterlimit:4;stroke-opacity:1;stroke-dasharray:none;stroke-dashoffset:0;marker:none;visibility:visible;display:inline;overflow:visible;enable-background:accumulate"
       id="path3159"
       sodipodi:cx="412.13586"
       sodipodi:cy="105.39352"
       sodipodi:rx="14.943857"
       sodipodi:ry="14.157339"
       d="m 427.07972,105.39352 c 0,7.81888 -6.69059,14.15734 -14.94386,14.15734 -8.25326,0 -14.94385,-6.33846 -14.94385,-14.15734 0,-7.818886 6.69059,-14.157343 14.94385,-14.157343 8.25327,0 14.94386,6.338457 14.94386,14.157343 z" />
    <path
       sodipodi:type="arc"
       style="color:#000000;fill:none;stroke:#000000;stroke-width:1px;stroke-linecap:butt;stroke-linejoin:miter;stroke-miterlimit:4;stroke-opacity:1;stroke-dasharray:none;stroke-dashoffset:0;marker:none;visibility:visible;display:inline;overflow:visible;enable-background:accumulate"
       id="path3161"
       sodipodi:cx="393.65268"
       sodipodi:cy="226.51743"
       sodipodi:rx="10.618004"
       sodipodi:ry="13.37082"
       d="m 404.27068,226.51743 c 0,7.3845 -4.75384,13.37082 -10.618,13.37082 -5.86416,0 -10.618,-5.98632 -10.618,-13.37082 0,-7.3845 4.75384,-13.37082 10.618,-13.37082 5.86416,0 10.618,5.98632 10.618,13.37082 z" />
    <path
       sodipodi:type="arc"
       style="color:#000000;fill:none;stroke:#000000;stroke-width:1px;stroke-linecap:butt;stroke-linejoin:miter;stroke-miterlimit:4;stroke-opacity:1;stroke-dasharray:none;stroke-dashoffset:0;marker:none;visibility:visible;display:inline;overflow:visible;enable-background:accumulate"
       id="path3163"
       sodipodi:cx="639.43982"
       sodipodi:cy="411.74261"
       sodipodi:rx="11.797782"
       sodipodi:ry="9.8314848"
       d="m 651.2376,411.74261 c 0,5.42978 -5.28205,9.83149 -11.79778,9.83149 -6.51574,0 -11.79778,-4.40171 -11.79778,-9.83149 0,-5.42977 5.28204,-9.83148 11.79778,-9.83148 6.51573,0 11.79778,4.40171 11.79778,9.83148 z" />
    <path
       sodipodi:type="arc"
       style="color:#000000;fill:none;stroke:#000000;stroke-width:1px;stroke-linecap:butt;stroke-linejoin:miter;stroke-miterlimit:4;stroke-opacity:1;stroke-dasharray:none;stroke-dashoffset:0;marker:none;visibility:visible;display:inline;overflow:visible;enable-background:accumulate"
       id="path3165"
       sodipodi:cx="170.67459"
       sodipodi:cy="386.96725"
       sodipodi:rx="13.37082"
       sodipodi:ry="11.011264"
       d="m 184.04541,386.96725 c 0,6.08136 -5.98632,11.01127 -13.37082,11.01127 -7.3845,0 -13.37082,-4.92991 -13.37082,-11.01127 0,-6.08135 5.98632,-11.01126 13.37082,-11.01126 7.3845,0 13.37082,4.92991 13.37082,11.01126 z" />
    <path
       sodipodi:type="arc"
       style="color:#000000;fill:none;stroke:#000000;stroke-width:1px;stroke-linecap:butt;stroke-linejoin:miter;stroke-miterlimit:4;stroke-opacity:1;stroke-dasharray:none;stroke-dashoffset:0;marker:none;visibility:visible;display:inline;overflow:visible;enable-background:accumulate"
       id="path3169"
       sodipodi:cx="628.42853"
       sodipodi:cy="294.94455"
       sodipodi:rx="14.943857"
       sodipodi:ry="16.516895"
       d="m 643.37239,294.94455 c 0,9.12203 -6.6906,16.51689 -14.94386,16.51689 -8.25327,0 -14.94386,-7.39486 -14.94386,-16.51689 0,-9.12203 6.69059,-16.5169 14.94386,-16.5169 8.25326,0 14.94386,7.39487 14.94386,16.5169 z" />
    <path
       style="color:#000000;fill:none;stroke:#000000;stroke-width:0.78651881px;stroke-linecap:butt;stroke-linejoin:miter;stroke-miterlimit:4;stroke-opacity:1;stroke-dasharray:none;stroke-dashoffset:0;marker:none;visibility:visible;display:inline;overflow:visible;enable-background:accumulate"
       d="m 244.67862,196.54684 c -7.67262,-4.07723 -9.28653,-14.26341 -3.27867,-20.69321 10.58829,-11.33192 27.10629,3.08214 18.87602,16.47173 -1.87722,3.05399 -6.61717,5.67781 -10.25702,5.67781 -1.42988,0 -3.83303,-0.65535 -5.34033,-1.45633 z"
       id="path3180"
       inkscape:connector-curvature="0" />
  </g>
</svg>
