<?xml version="1.0" encoding="UTF-8" standalone="no"?>
<!-- Created with Inkscape (http://www.inkscape.org/) -->

<svg
   xmlns:dc="http://purl.org/dc/elements/1.1/"
   xmlns:cc="http://creativecommons.org/ns#"
   xmlns:rdf="http://www.w3.org/1999/02/22-rdf-syntax-ns#"
   xmlns:svg="http://www.w3.org/2000/svg"
   xmlns="http://www.w3.org/2000/svg"
   xmlns:sodipodi="http://sodipodi.sourceforge.net/DTD/sodipodi-0.dtd"
   xmlns:inkscape="http://www.inkscape.org/namespaces/inkscape"
   preserveAspectRatio="xMinYMin meet"
   viewBox="0 0 697.26013 577.06622"
   width="100%"
   height="100%"
   id="svg2"
   version="1.1"
   inkscape:version="0.48.4 r9939"
   sodipodi:docname="buisson.svg">
  <defs
     id="defs4">
    <inkscape:perspective
       sodipodi:type="inkscape:persp3d"
       inkscape:vp_x="0 : 526.18109 : 1"
       inkscape:vp_y="0 : 1000 : 0"
       inkscape:vp_z="744.09448 : 526.18109 : 1"
       inkscape:persp3d-origin="372.04724 : 350.78739 : 1"
       id="perspective3059" />
  </defs>
  <sodipodi:namedview
     id="base"
     pagecolor="#ffffff"
     bordercolor="#666666"
     borderopacity="1.0"
     inkscape:pageopacity="0.0"
     inkscape:pageshadow="2"
     inkscape:zoom="1.1512229"
     inkscape:cx="442.70694"
     inkscape:cy="323.99895"
     inkscape:document-units="px"
     inkscape:current-layer="layer1"
     showgrid="false"
     inkscape:window-width="1600"
     inkscape:window-height="838"
     inkscape:window-x="-8"
     inkscape:window-y="-8"
     inkscape:window-maximized="1"
     fit-margin-top="0"
     fit-margin-left="0"
     fit-margin-right="0"
     fit-margin-bottom="0" />
  <metadata
     id="metadata7">
    <rdf:RDF>
      <cc:Work
         rdf:about="">
        <dc:format>image/svg+xml</dc:format>
        <dc:type
           rdf:resource="http://purl.org/dc/dcmitype/StillImage" />
        <dc:title />
      </cc:Work>
    </rdf:RDF>
  </metadata>
  <g
     inkscape:label="Calque 1"
     inkscape:groupmode="layer"
     id="layer1"
     transform="translate(-22.257541,-261.86286)">
    <g
       id="g3093"
       transform="matrix(1.195768,0,0,1.195768,-22.906329,-305.30957)"
       style="fill:none">
      <path
         sodipodi:nodetypes="cccccccccccccccccccc"
         inkscape:connector-curvature="0"
         id="path3069"
         d="m 281.18048,858.68192 c 5.16845,9.77027 12.30927,26.69236 9.19629,30.18796 -6.90197,12.35082 -12.6173,11.26635 -32.46946,18.12127 l -43.97419,16.38195 66.78183,-16.0957 c 21.24794,-6.32395 33.84392,13.64922 22.88131,22.38785 l -34.60682,26.74164 47.82632,-28.77541 c 8.06713,-3.53612 0.29941,-17.51556 -3.78127,-24.70787 l 19.13816,-0.19085 c 11.67433,4.40006 14.47465,27.41058 17.04171,39.51679 l 26.74164,11.01126 -18.05041,-14.88796 c -4.8285,-9.57207 -1.0429,-25.13399 2.32003,-35.44924 10.67797,-2.34137 19.92721,16.74809 29.88772,25.1686 l 55.05631,6.29215 -52.0929,-16.461 -20.26683,-26.01102 -21.8736,-30.23037 c -61.82608,-9.68363 -55.92115,-4.02474 -69.75584,-3.00005 z"
         style="fill:none;stroke:#000000;stroke-width:1px;stroke-linecap:butt;stroke-linejoin:miter;stroke-opacity:1" />
      <path
         inkscape:connector-curvature="0"
         id="path3071"
         d="m 468.80272,915.84689 c -18.26723,-1.34094 -35.91237,-5.21933 -51.61505,-11.34497 -10.10642,-3.94253 -16.47882,-8.39168 -33.00444,-23.04341 -8.4741,-7.51321 -16.42906,-12.84404 -25.8864,-17.3472 -7.26568,-3.45958 -15.98901,-5.3127 -35.00009,-7.43514 -20.26983,-2.26297 -26.71786,-1.95821 -47.58439,2.24901 -6.0562,1.22108 -12.78093,2.4641 -14.94386,2.76228 -2.16293,0.29817 -8.71069,1.73311 -14.5506,3.18876 -52.6171,13.1153 -90.2402,16.38421 -122.30367,10.62645 C 90.981664,869.58885 66.406125,852.22914 52.794778,825.26521 34.678695,789.37745 33.395356,734.90227 48.888298,659.44285 51.938336,644.58742 53.6261,638.30546 56.6012,630.73491 c 14.685262,-37.36865 32.749276,-66.58633 54.64758,-88.38983 39.19251,-39.02286 89.31921,-57.47889 177.04787,-65.18682 28.7302,-2.52427 37.41763,-2.88766 48.59601,-2.03278 48.39414,3.70103 87.27755,17.25442 129.94376,45.29382 22.14048,14.5503 36.10568,25.45069 89.66315,69.98568 26.86536,22.33953 38.54615,35.35212 47.79366,53.24292 13.43954,26.001 16.90329,47.65387 16.07447,100.48599 -0.54534,34.76086 -2.20493,49.87648 -8.11736,73.93277 -9.88518,40.22052 -29.23088,69.37814 -54.51746,82.1681 -21.47055,10.85981 -60.44965,17.70278 -88.93016,15.61213 z"
         style="color:#000000;fill:none;stroke:#000000;stroke-width:0.78651881px;stroke-linecap:butt;stroke-linejoin:miter;stroke-miterlimit:4;stroke-opacity:1;stroke-dasharray:none;stroke-dashoffset:0;marker:none;visibility:visible;display:inline;overflow:visible;enable-background:accumulate" />
      <path
         inkscape:connector-curvature="0"
         id="path3075"
         d="m 223.0352,920.57307 c 0.0661,-0.0624 18.2177,-6.79922 18.2453,-6.77162 0.0166,0.0166 -0.75929,0.33761 -1.72409,0.71345 -2.33905,0.91118 -4.26419,1.73109 -4.67233,1.98993 l -0.33285,0.21108 0.0418,0.35274 c 0.023,0.194 0.0506,0.36071 0.0613,0.37046 0.0312,0.0283 1.21695,-0.14703 1.86179,-0.27538 0.325,-0.0647 1.6633,-0.35256 2.97399,-0.63971 1.3107,-0.28715 2.41632,-0.51101 2.45694,-0.49747 0.0666,0.0222 -18.72536,4.57608 -18.87708,4.57452 -0.0351,-3.7e-4 -0.0507,-0.013 -0.0348,-0.028 l 0,0 z"
         style="color:#000000;fill:none;stroke:#000000;stroke-width:0.0695191px;stroke-linecap:butt;stroke-linejoin:miter;stroke-miterlimit:4;stroke-opacity:1;stroke-dasharray:none;stroke-dashoffset:0;marker:none;visibility:visible;display:inline;overflow:visible;enable-background:accumulate" />
      <path
         inkscape:connector-curvature="0"
         id="path3079"
         d="m 435.10941,932.69249 c -3.38331,-0.40151 -3.84062,-0.46826 -2.97707,-0.43453 l 1.02028,0.0399 0.0788,-0.30455 c 0.0433,-0.16751 0.0938,-0.35641 0.11206,-0.41979 0.0378,-0.13086 -0.37148,-0.30144 -2.54423,-1.06049 -0.70736,-0.24712 -1.24789,-0.45125 -1.20119,-0.45364 0.0653,-0.003 9.54466,2.9646 9.85631,3.08598 0.18666,0.0727 -0.66156,-0.0157 -4.34494,-0.45283 z"
         style="color:#000000;fill:none;stroke:#000000;stroke-width:0.0695191px;stroke-linecap:butt;stroke-linejoin:miter;stroke-miterlimit:4;stroke-opacity:1;stroke-dasharray:none;stroke-dashoffset:0;marker:none;visibility:visible;display:inline;overflow:visible;enable-background:accumulate" />
      <path
         inkscape:connector-curvature="0"
         id="path3081"
         d="m 369.39897,949.98639 c -1.67143,-0.69239 -3.02962,-1.26825 -3.01819,-1.27968 0.0114,-0.0114 0.26558,0.0418 0.56478,0.11836 0.93841,0.24 1.41413,0.15484 1.51692,-0.27156 0.0534,-0.22143 -0.11605,-0.6132 -0.38563,-0.89175 -0.11972,-0.12369 -0.1989,-0.24366 -0.17597,-0.26659 0.0229,-0.0229 1.0375,0.77826 2.25461,1.78043 2.49414,2.05365 2.53073,2.08551 2.3848,2.07621 -0.0563,-0.004 -1.46989,-0.57303 -3.14132,-1.26542 z"
         style="color:#000000;fill:none;stroke:#000000;stroke-width:0.0695191px;stroke-linecap:butt;stroke-linejoin:miter;stroke-miterlimit:4;stroke-opacity:1;stroke-dasharray:none;stroke-dashoffset:0;marker:none;visibility:visible;display:inline;overflow:visible;enable-background:accumulate" />
      <path
         inkscape:connector-curvature="0"
         id="path3083"
         d=""
         style="color:#000000;fill:none;stroke:#000000;stroke-width:0.39325941px;stroke-linecap:butt;stroke-linejoin:miter;stroke-miterlimit:4;stroke-opacity:1;stroke-dasharray:none;stroke-dashoffset:0;marker:none;visibility:visible;display:inline;overflow:visible;enable-background:accumulate" />
      <path
         inkscape:connector-curvature="0"
         id="path3085"
         d=""
         style="color:#000000;fill:none;stroke:#000000;stroke-width:0.39325941px;stroke-linecap:butt;stroke-linejoin:miter;stroke-miterlimit:4;stroke-opacity:1;stroke-dasharray:none;stroke-dashoffset:0;marker:none;visibility:visible;display:inline;overflow:visible;enable-background:accumulate" />
      <path
         inkscape:connector-curvature="0"
         id="path3087"
         d="m 276.51001,951.25094 c 0.18895,-0.16177 22.19948,-17.15373 22.20845,-17.14476 0.0117,0.0117 -0.85807,0.70036 -2.51745,1.99324 -2.58247,2.0121 -4.68239,3.74402 -5.89548,4.86234 -0.60648,0.5591 -0.82399,0.80812 -0.89716,1.02714 -0.034,0.10184 -0.0331,0.12453 0.0112,0.28636 l 0.0481,0.17575 0.16308,0.0602 c 0.25622,0.0946 0.4682,0.0558 1.05133,-0.19227 1.57367,-0.66953 6.16197,-3.29526 11.92913,-6.82666 1.33528,-0.81763 3.51534,-2.17083 4.42893,-2.7491 0.2527,-0.15996 0.46628,-0.29083 0.47462,-0.29083 0.008,0 0.0117,0.0394 0.008,0.0876 l -0.008,0.0876 -15.48459,9.31665 c -8.51653,5.12416 -15.50118,9.3218 -15.52146,9.32809 -0.0314,0.01 -0.0312,0.007 10e-4,-0.0213 l 0,0 z"
         style="color:#000000;fill:none;stroke:#000000;stroke-width:0.02457871px;stroke-linecap:butt;stroke-linejoin:miter;stroke-miterlimit:4;stroke-opacity:1;stroke-dasharray:none;stroke-dashoffset:0;marker:none;visibility:visible;display:inline;overflow:visible;enable-background:accumulate" />
      <path
         inkscape:connector-curvature="0"
         id="path3089"
         d="m 307.53947,932.5196 -0.006,-0.0938 0.76471,-0.4836 c 1.77636,-1.12338 4.38067,-2.81713 5.82222,-3.78655 2.50381,-1.68379 3.95188,-2.75428 4.43163,-3.27613 0.21063,-0.22911 0.47161,-0.70854 0.66002,-1.21248 l 0.0471,-0.126 0.18291,0 0.1829,0 -0.012,0.064 c -0.0222,0.11835 -0.13314,0.48175 -0.21126,0.69202 -0.16604,0.44694 -0.4744,0.9984 -0.75315,1.34693 -0.47786,0.59748 -1.09187,1.06785 -1.9038,1.45843 -0.15789,0.076 -4.62307,2.75081 -9.18795,5.50403 -0.006,0.004 -0.0141,-0.0353 -0.0174,-0.0869 l 0,0 z"
         style="color:#000000;fill:none;stroke:#000000;stroke-width:0.01737978px;stroke-linecap:butt;stroke-linejoin:miter;stroke-miterlimit:4;stroke-opacity:1;stroke-dasharray:none;stroke-dashoffset:0;marker:none;visibility:visible;display:inline;overflow:visible;enable-background:accumulate" />
      <path
         inkscape:connector-curvature="0"
         id="path3091"
         d="m 319.31414,923.46932 c 0,-0.0253 0.0439,-0.22994 0.0977,-0.4547 0.43755,-1.83074 0.0554,-4.46727 -1.11264,-7.67662 -0.82571,-2.26874 -1.78433,-4.40293 -3.68017,-8.19325 -0.44577,-0.89123 -0.81023,-1.6482 -0.8099,-1.68216 0.001,-0.13727 1.22194,2.14949 2.16819,4.06196 2.47123,4.99461 3.6909,8.74891 3.81192,11.73363 0.0304,0.7497 -0.0293,1.65745 -0.13641,2.07285 -0.0414,0.16082 -0.0661,0.18434 -0.19309,0.18434 -0.0801,0 -0.14557,-0.0207 -0.14557,-0.046 z"
         style="color:#000000;fill:none;stroke:#000000;stroke-width:0.04915743px;stroke-linecap:butt;stroke-linejoin:miter;stroke-miterlimit:4;stroke-opacity:1;stroke-dasharray:none;stroke-dashoffset:0;marker:none;visibility:visible;display:inline;overflow:visible;enable-background:accumulate" />
    </g>
    <path
       sodipodi:type="arc"
       style="color:#000000;fill:none;stroke:#000000;stroke-width:1px;stroke-linecap:butt;stroke-linejoin:miter;stroke-miterlimit:4;stroke-opacity:1;stroke-dasharray:none;stroke-dashoffset:0;marker:none;visibility:visible;display:inline;overflow:visible;enable-background:accumulate"
       id="path3171"
       sodipodi:cx="83.370995"
       sodipodi:cy="542.698"
       sodipodi:rx="17.303413"
       sodipodi:ry="18.876451"
       d="m 100.67441,542.698 c 0,10.42517 -7.747004,18.87645 -17.303415,18.87645 -9.556412,0 -17.303414,-8.45128 -17.303414,-18.87645 0,-10.42518 7.747002,-18.87645 17.303414,-18.87645 9.556411,0 17.303415,8.45127 17.303415,18.87645 z" />
    <path
       sodipodi:type="arc"
       style="color:#000000;fill:none;stroke:#000000;stroke-width:1px;stroke-linecap:butt;stroke-linejoin:miter;stroke-miterlimit:4;stroke-opacity:1;stroke-dasharray:none;stroke-dashoffset:0;marker:none;visibility:visible;display:inline;overflow:visible;enable-background:accumulate"
       id="path3173"
       sodipodi:cx="516.74286"
       sodipodi:cy="719.66473"
       sodipodi:rx="21.236008"
       sodipodi:ry="19.66297"
       d="m 537.97887,719.66473 c 0,10.85956 -9.50769,19.66297 -21.23601,19.66297 -11.72832,0 -21.23601,-8.80341 -21.23601,-19.66297 0,-10.85955 9.50769,-19.66297 21.23601,-19.66297 11.72832,0 21.23601,8.80342 21.23601,19.66297 z" />
    <path
       sodipodi:type="arc"
       style="color:#000000;fill:none;stroke:#000000;stroke-width:1px;stroke-linecap:butt;stroke-linejoin:miter;stroke-miterlimit:4;stroke-opacity:1;stroke-dasharray:none;stroke-dashoffset:0;marker:none;visibility:visible;display:inline;overflow:visible;enable-background:accumulate"
       id="path3175"
       sodipodi:cx="590.67566"
       sodipodi:cy="439.66403"
       sodipodi:rx="19.66297"
       sodipodi:ry="22.809046"
       d="m 610.33863,439.66403 c 0,12.59709 -8.80341,22.80905 -19.66297,22.80905 -10.85956,0 -19.66297,-10.21196 -19.66297,-22.80905 0,-12.59709 8.80341,-22.80904 19.66297,-22.80904 10.85956,0 19.66297,10.21195 19.66297,22.80904 z" />
    <path
       sodipodi:type="arc"
       style="color:#000000;fill:none;stroke:#000000;stroke-width:1px;stroke-linecap:butt;stroke-linejoin:miter;stroke-miterlimit:4;stroke-opacity:1;stroke-dasharray:none;stroke-dashoffset:0;marker:none;visibility:visible;display:inline;overflow:visible;enable-background:accumulate"
       id="path3177"
       sodipodi:cx="294.94455"
       sodipodi:cy="342.13568"
       sodipodi:rx="21.236008"
       sodipodi:ry="18.089933"
       d="m 316.18056,342.13568 c 0,9.9908 -9.50769,18.08993 -21.23601,18.08993 -11.72832,0 -21.23601,-8.09913 -21.23601,-18.08993 0,-9.99079 9.50769,-18.08993 21.23601,-18.08993 11.72832,0 21.23601,8.09914 21.23601,18.08993 z" />
    <path
       sodipodi:type="arc"
       style="color:#000000;fill:none;stroke:#000000;stroke-width:1px;stroke-linecap:butt;stroke-linejoin:miter;stroke-miterlimit:4;stroke-opacity:1;stroke-dasharray:none;stroke-dashoffset:0;marker:none;visibility:visible;display:inline;overflow:visible;enable-background:accumulate"
       id="path3179"
       sodipodi:cx="202.13533"
       sodipodi:cy="686.63092"
       sodipodi:rx="22.809046"
       sodipodi:ry="18.089933"
       d="m 224.94438,686.63092 c 0,9.99079 -10.21196,18.08993 -22.80905,18.08993 -12.59709,0 -22.80905,-8.09914 -22.80905,-18.08993 0,-9.99079 10.21196,-18.08993 22.80905,-18.08993 12.59709,0 22.80905,8.09914 22.80905,18.08993 z" />
    <path
       sodipodi:type="arc"
       style="color:#000000;fill:none;stroke:#000000;stroke-width:1px;stroke-linecap:butt;stroke-linejoin:miter;stroke-miterlimit:4;stroke-opacity:1;stroke-dasharray:none;stroke-dashoffset:0;marker:none;visibility:visible;display:inline;overflow:visible;enable-background:accumulate"
       id="path3181"
       sodipodi:cx="407.41675"
       sodipodi:cy="503.37204"
       sodipodi:rx="17.303413"
       sodipodi:ry="22.022528"
       d="m 424.72016,503.37204 c 0,12.16271 -7.747,22.02253 -17.30341,22.02253 -9.55641,0 -17.30342,-9.85982 -17.30342,-22.02253 0,-12.16271 7.74701,-22.02253 17.30342,-22.02253 9.55641,0 17.30341,9.85982 17.30341,22.02253 z" />
    <path
       sodipodi:type="arc"
       style="color:#000000;fill:none;stroke:#000000;stroke-width:1px;stroke-linecap:butt;stroke-linejoin:miter;stroke-miterlimit:4;stroke-opacity:1;stroke-dasharray:none;stroke-dashoffset:0;marker:none;visibility:visible;display:inline;overflow:visible;enable-background:accumulate"
       id="path3183"
       sodipodi:cx="643.37238"
       sodipodi:cy="611.12512"
       sodipodi:rx="17.303413"
       sodipodi:ry="18.089933"
       d="m 660.67579,611.12512 c 0,9.9908 -7.747,18.08994 -17.30341,18.08994 -9.55642,0 -17.30342,-8.09914 -17.30342,-18.08994 0,-9.99079 7.747,-18.08993 17.30342,-18.08993 9.55641,0 17.30341,8.09914 17.30341,18.08993 z" />
    <path
       sodipodi:type="arc"
       style="color:#000000;fill:none;stroke:#000000;stroke-width:1px;stroke-linecap:butt;stroke-linejoin:miter;stroke-miterlimit:4;stroke-opacity:1;stroke-dasharray:none;stroke-dashoffset:0;marker:none;visibility:visible;display:inline;overflow:visible;enable-background:accumulate"
       id="path3185"
       sodipodi:cx="259.55121"
       sodipodi:cy="515.95636"
       sodipodi:rx="15.730376"
       sodipodi:ry="18.876451"
       d="m 275.28158,515.95636 c 0,10.42518 -7.04272,18.87645 -15.73037,18.87645 -8.68765,0 -15.73038,-8.45127 -15.73038,-18.87645 0,-10.42518 7.04273,-18.87645 15.73038,-18.87645 8.68765,0 15.73037,8.45127 15.73037,18.87645 z" />
    <path
       sodipodi:type="arc"
       style="color:#000000;fill:none;stroke:#000000;stroke-width:1px;stroke-linecap:butt;stroke-linejoin:miter;stroke-miterlimit:4;stroke-opacity:1;stroke-dasharray:none;stroke-dashoffset:0;marker:none;visibility:visible;display:inline;overflow:visible;enable-background:accumulate"
       id="path3187"
       sodipodi:cx="384.6077"
       sodipodi:cy="633.14764"
       sodipodi:rx="19.66297"
       sodipodi:ry="21.236008"
       d="m 404.27067,633.14764 c 0,11.72833 -8.80342,21.23601 -19.66297,21.23601 -10.85956,0 -19.66297,-9.50768 -19.66297,-21.23601 0,-11.72832 8.80341,-21.236 19.66297,-21.236 10.85955,0 19.66297,9.50768 19.66297,21.236 z" />
    <path
       style="color:#000000;fill:#8dd35f;fill-opacity:1;stroke:#000000;stroke-width:0.86864156;stroke-linecap:butt;stroke-linejoin:miter;stroke-miterlimit:4;stroke-opacity:1;stroke-dasharray:none;stroke-dashoffset:0;marker:none;visibility:visible;display:inline;overflow:visible;enable-background:accumulate"
       d="m 516.51963,526.9303 c -28.01146,-1.78432 -59.57388,-10.21121 -75.37608,-20.12475 -6.14764,-3.85674 -9.98976,-6.88228 -27.74426,-21.84766 -15.33355,-12.92474 -29.19404,-20.7089 -42.643,-23.94863 -15.02975,-3.62053 -33.07415,-5.55868 -51.52599,-5.53443 -16.75055,0.0221 -18.05733,0.15363 -36.48294,3.67402 -10.51056,2.00814 -28.296,5.76205 -39.52319,8.34201 -50.03485,11.49779 -77.19171,15.02089 -108.58019,14.08625 -16.56485,-0.49324 -29.0583,-1.93815 -39.523194,-4.571 C 72.998831,471.44048 55.658622,462.32517 41.253294,448.68933 21.053646,429.56868 9.5158907,404.94342 3.8855311,368.93459 1.9429381,356.51078 1.2111,320.60645 2.5424296,303.04139 3.9762086,284.12465 7.3549954,258.92517 11.410632,236.90107 18.21659,199.94137 21.882554,188.4394 36.532875,158.07993 51.689359,126.67155 68.033205,102.8979 88.6271,82.304003 137.29024,33.640861 198.39313,12.276877 314.8871,3.1945644 341.11304,1.1498897 350.66839,1.0846036 366.82595,2.8396968 438.16116,10.588388 490.21924,34.732968 565.05586,94.778894 c 62.65481,50.271726 89.34423,74.468986 101.54728,92.065176 17.79354,25.65737 25.56233,49.79835 28.41695,88.30372 1.11946,15.10022 0.50007,71.42894 -0.95966,87.27199 -3.72127,40.3889 -14.13423,76.49208 -29.62754,102.7228 -11.46473,19.41019 -27.0691,35.01618 -43.08088,43.08534 -18.81312,9.48091 -49.96417,16.97867 -76.2749,18.35865 -5.25528,0.27562 -11.31406,0.62603 -13.46395,0.77867 -2.14989,0.15264 -8.94198,-0.0431 -15.09353,-0.43494 l 0,0 z m -14.32921,-49.87408 c 13.84294,-4.71676 18.80773,-21.01373 9.65815,-31.70295 -10.29572,-12.02823 -30.81592,-9.91701 -37.21642,3.829 -7.9115,16.99111 9.07475,34.17193 27.55827,27.87395 l 0,0 z m -310.2161,-35.97243 c 7.5028,-3.81061 11.29234,-9.19025 11.29234,-16.03067 0,-5.05566 -1.20734,-8.11134 -4.61364,-11.67677 -9.29114,-9.72518 -28.37585,-9.94977 -37.19915,-0.43775 -7.7949,8.40333 -6.46172,19.68042 3.09023,26.13977 5.67226,3.83578 8.44551,4.54646 16.5722,4.24688 5.14544,-0.18969 7.9637,-0.77147 10.85802,-2.24146 l 0,0 z m 178.50584,-49.44783 c 4.33959,-1.9764 9.41337,-7.51525 10.94384,-11.94697 3.58995,-10.39531 -0.90263,-23.68764 -9.47404,-28.03115 -7.89,-3.99821 -17.12656,-2.76931 -23.14939,3.07998 -11.48299,11.15214 -7.72848,32.13156 6.68586,37.35921 4.24844,1.54078 11.05803,1.33138 14.99373,-0.46107 l 0,0 z m 257.99399,-25.19001 c 9.63857,-4.37871 13.54631,-16.08257 8.6502,-25.90778 -7.3774,-14.80451 -28.8544,-12.69237 -33.43763,3.28839 -4.39845,15.33654 10.63033,29.05082 24.78743,22.61939 l 0,0 z M 68.003638,299.0949 c 6.838384,-2.97736 11.009125,-9.9206 11.009125,-18.32743 0,-6.43164 -2.03175,-11.18202 -6.436796,-15.0497 -4.091806,-3.59266 -6.437233,-4.49473 -11.686447,-4.49473 -14.695549,0 -23.089824,18.77196 -14.177731,31.70541 4.42519,6.42195 14.20179,9.25341 21.291849,6.16645 z M 244.18103,272.00137 c 8.85732,-4.44677 12.28488,-18.21523 7.03588,-28.26297 -3.76025,-7.19794 -9.91832,-10.40737 -17.33064,-9.03232 -4.86026,0.90164 -10.94767,7.52448 -12.37151,13.4597 -2.60058,10.84044 2.86544,23.04341 11.1355,24.86015 1.277,0.28053 2.7127,0.62466 3.19046,0.76474 1.38995,0.40755 5.88561,-0.55693 8.34031,-1.7893 z m 149.18403,-10.12372 c 6.72293,-4.08912 10.17815,-12.30058 9.50614,-22.59171 -1.01782,-15.58679 -12.84073,-24.56868 -24.75071,-18.80316 -6.78912,3.28655 -10.9477,11.55862 -10.88452,21.651 0.10429,16.65831 13.9728,27.13775 26.12909,19.74387 z M 575.2903,200.11544 c 13.93456,-5.83932 18.09446,-26.76587 7.72811,-38.87661 -3.88468,-4.53838 -8.79365,-6.81495 -14.74828,-6.83963 -5.18183,-0.0215 -8.80863,1.50758 -13.0626,5.50718 -5.28734,4.97117 -6.65105,8.6469 -6.65105,17.92707 0,6.8037 0.32926,8.86194 1.87591,11.72666 2.36448,4.37945 6.78008,8.64226 10.71459,10.34383 3.80973,1.64762 10.47831,1.74734 14.14332,0.2115 z M 284.05032,96.31116 c 6.59578,-3.231529 10.4237,-8.876942 10.4237,-15.372866 0,-5.786938 -1.09298,-8.727494 -4.61364,-12.412639 -9.8239,-10.282831 -29.37933,-9.025756 -36.40384,2.340137 -5.44012,8.802297 -2.56114,19.495964 6.7118,24.930272 7.17895,4.207146 15.9597,4.396536 23.88198,0.515096 z"
       id="path4876"
       inkscape:connector-curvature="0"
       transform="translate(22.257541,261.86286)" />
    <path
       style="color:#000000;fill:#d3bc5f;fill-opacity:1;stroke:#000000;stroke-width:0.86864156;stroke-linecap:butt;stroke-linejoin:miter;stroke-miterlimit:4;stroke-opacity:1;stroke-dasharray:none;stroke-dashoffset:0;marker:none;visibility:visible;display:inline;overflow:visible;enable-background:accumulate"
       d="m 383.50978,562.94932 c -5.25528,-2.18254 -9.68824,-4.09215 -9.851,-4.24358 -0.16278,-0.15143 -1.23151,-4.70252 -2.37497,-10.11353 -3.66442,-17.34066 -6.78595,-25.93469 -11.46117,-31.55424 -4.42169,-5.3148 -5.52583,-5.63419 -19.49933,-5.64045 l -12.78401,-0.006 3.9397,8.46926 c 4.32583,9.29932 5.668,15.79901 3.74175,18.12 -2.47453,2.98164 -29.86319,20.19813 -30.73888,19.32244 -0.18075,-0.18075 3.34321,-3.34629 7.83103,-7.03454 9.97012,-8.1938 11.22077,-9.96781 11.13651,-15.79687 -0.10658,-7.37358 -4.64979,-13.44538 -12.7314,-17.01499 -7.29474,-3.22205 -13.40986,-2.60096 -41.43459,4.20836 -25.3213,6.15246 -32.06315,7.61572 -31.23586,6.77947 0.91518,-0.92509 21.44382,-8.57651 35.225,-13.12905 7.68818,-2.53975 15.52664,-5.40752 17.41878,-6.37282 4.22187,-2.15383 8.43021,-6.33225 11.33768,-11.25705 1.88978,-3.20098 2.11478,-4.35095 1.62242,-8.29174 -0.48921,-3.91546 -4.25599,-14.24196 -9.42522,-25.83888 l -1.3824,-3.10136 9.50809,-1.58609 c 12.97488,-2.16439 22.09179,-1.59022 63.18763,3.97951 l 8.08901,1.0963 12.27431,16.99205 c 6.75087,9.34563 18.10412,24.49871 25.22944,33.6735 l 12.95513,16.68145 5.3361,1.71991 c 2.93485,0.94595 13.48527,4.31338 23.44537,7.48317 9.96009,3.1698 17.91244,5.9601 17.67188,6.20066 -0.42368,0.42367 -46.94285,-4.61307 -48.92761,-5.29751 -0.542,-0.18691 -4.87928,-4.96238 -9.63841,-10.61214 -12.97889,-15.40783 -18.0118,-19.39304 -24.49141,-19.39304 -2.45864,0 -2.68796,0.31247 -4.30299,5.86333 -3.95693,13.59995 -5.01112,26.31345 -2.82832,34.10914 0.92125,3.29012 2.13504,4.76317 7.51551,9.12074 9.64642,7.8125 9.16948,8.08221 -4.35777,2.46431 l 0,0 z"
       id="path4878"
       inkscape:connector-curvature="0"
       transform="translate(22.257541,261.86286)" />
    <path
       style="color:#000000;fill:#ff9955;fill-opacity:1;stroke:#000000;stroke-width:0.86864156;stroke-linecap:butt;stroke-linejoin:miter;stroke-miterlimit:4;stroke-opacity:1;stroke-dasharray:none;stroke-dashoffset:0;marker:none;visibility:visible;display:inline;overflow:visible;enable-background:accumulate"
       d="m 55.597596,297.6484 c -8.963285,-3.75884 -13.338569,-16.94672 -8.454966,-25.48477 6.419662,-11.22356 19.796209,-12.06914 26.993685,-1.70637 3.569434,5.13919 4.121852,13.08966 1.286257,18.51195 -3.015901,5.76708 -7.510893,8.96483 -13.084459,9.30831 -2.512902,0.15486 -5.546135,-0.12824 -6.740517,-0.62912 z"
       id="path4880"
       inkscape:connector-curvature="0"
       transform="translate(22.257541,261.86286)" />
    <path
       style="color:#000000;fill:#ff9955;fill-opacity:1;stroke:#000000;stroke-width:0.86864156;stroke-linecap:butt;stroke-linejoin:miter;stroke-miterlimit:4;stroke-opacity:1;stroke-dasharray:none;stroke-dashoffset:0;marker:none;visibility:visible;display:inline;overflow:visible;enable-background:accumulate"
       d="m 171.28555,440.30502 c -7.68207,-2.7472 -13.18825,-9.33717 -13.18825,-15.78408 0,-3.93011 3.05105,-9.23066 6.93114,-12.04139 4.74781,-3.43929 10.16999,-4.77112 17.33671,-4.25834 16.96685,1.21397 25.14137,17.09995 14.08551,27.37313 -6.19753,5.75878 -16.72416,7.72927 -25.16511,4.71068 z"
       id="path4882"
       inkscape:connector-curvature="0"
       transform="translate(22.257541,261.86286)" />
    <path
       style="color:#000000;fill:#ff9955;fill-opacity:1;stroke:#000000;stroke-width:0.86864156;stroke-linecap:butt;stroke-linejoin:miter;stroke-miterlimit:4;stroke-opacity:1;stroke-dasharray:none;stroke-dashoffset:0;marker:none;visibility:visible;display:inline;overflow:visible;enable-background:accumulate"
       d="m 355.71325,389.88063 c -9.61464,-4.42876 -13.83411,-14.51008 -10.76644,-25.72357 1.42516,-5.20951 8.06016,-11.28175 13.63331,-12.47697 13.15511,-2.82127 24.82523,10.136 21.80654,24.21168 -2.52671,11.78164 -14.60216,18.62796 -24.67341,13.98886 z"
       id="path4884"
       inkscape:connector-curvature="0"
       transform="translate(22.257541,261.86286)" />
    <path
       style="color:#000000;fill:#ff9955;fill-opacity:1;stroke:#000000;stroke-width:0.86864156;stroke-linecap:butt;stroke-linejoin:miter;stroke-miterlimit:4;stroke-opacity:1;stroke-dasharray:none;stroke-dashoffset:0;marker:none;visibility:visible;display:inline;overflow:visible;enable-background:accumulate"
       d="m 489.0441,475.88513 c -15.51133,-5.0788 -19.58133,-21.10498 -8.0094,-31.53808 13.64569,-12.30278 36.91665,-0.42508 33.0692,16.8788 -1.17802,5.29813 -4.49857,9.61837 -9.47408,12.32639 -4.59389,2.50031 -11.78637,3.57689 -15.58572,2.33289 z"
       id="path4886"
       inkscape:connector-curvature="0"
       transform="translate(22.257541,261.86286)" />
    <path
       style="color:#000000;fill:#ff9955;fill-opacity:1;stroke:#000000;stroke-width:0.86864156;stroke-linecap:butt;stroke-linejoin:miter;stroke-miterlimit:4;stroke-opacity:1;stroke-dasharray:none;stroke-dashoffset:0;marker:none;visibility:visible;display:inline;overflow:visible;enable-background:accumulate"
       d="m 614.10802,364.37422 c -8.50913,-4.29868 -11.85353,-15.78845 -6.94504,-23.85982 3.94521,-6.48738 12.27923,-9.59911 19.40786,-7.24645 5.64754,1.86386 10.99456,9.73488 11.01175,16.20974 0.0151,5.67706 -4.61874,12.79825 -9.8837,15.18916 -4.76443,2.16362 -8.90527,2.07446 -13.59087,-0.29263 z"
       id="path4888"
       inkscape:connector-curvature="0"
       transform="translate(22.257541,261.86286)" />
    <path
       style="color:#000000;fill:#ff9955;fill-opacity:1;stroke:#000000;stroke-width:0.86864156;stroke-linecap:butt;stroke-linejoin:miter;stroke-miterlimit:4;stroke-opacity:1;stroke-dasharray:none;stroke-dashoffset:0;marker:none;visibility:visible;display:inline;overflow:visible;enable-background:accumulate"
       d="m 561.14698,197.59775 c -4.6827,-2.50312 -9.13913,-8.05146 -10.49693,-13.06886 -1.49804,-5.5356 -0.54517,-13.73969 2.12499,-18.29598 7.93943,-13.54761 23.56847,-13.39372 31.30079,0.3082 2.35135,4.16666 2.69607,5.61052 2.69607,11.29234 0,5.68182 -0.34472,7.12567 -2.69607,11.29234 -5.31728,9.42238 -14.67951,12.88162 -22.92885,8.47196 z"
       id="path4890"
       inkscape:connector-curvature="0"
       transform="translate(22.257541,261.86286)" />
    <path
       style="color:#000000;fill:#ff9955;fill-opacity:1;stroke:#000000;stroke-width:0.86864156;stroke-linecap:butt;stroke-linejoin:miter;stroke-miterlimit:4;stroke-opacity:1;stroke-dasharray:none;stroke-dashoffset:0;marker:none;visibility:visible;display:inline;overflow:visible;enable-background:accumulate"
       d="m 382.52359,262.06558 c -4.02073,-0.85978 -7.82766,-3.91841 -10.45315,-8.39847 -3.36186,-5.73657 -3.87655,-15.46119 -1.15335,-21.79143 3.34288,-7.77075 10.7182,-12.68264 16.76463,-11.16508 3.65097,0.91634 7.89563,4.43294 10.56794,8.75529 2.39981,3.88161 2.63187,4.91851 2.62076,11.71027 -0.0105,6.40432 -0.34282,8.08178 -2.36476,11.9357 -3.55038,6.7672 -9.80931,10.27367 -15.98207,8.95372 l 0,0 z"
       id="path4892"
       inkscape:connector-curvature="0"
       transform="translate(22.257541,261.86286)" />
    <path
       style="color:#000000;fill:#ff9955;fill-opacity:1;stroke:#000000;stroke-width:0.86864156;stroke-linecap:butt;stroke-linejoin:miter;stroke-miterlimit:4;stroke-opacity:1;stroke-dasharray:none;stroke-dashoffset:0;marker:none;visibility:visible;display:inline;overflow:visible;enable-background:accumulate"
       d="m 231.04964,270.03479 c -1.66823,-0.88845 -4.19632,-3.48952 -5.63262,-5.79521 -6.11921,-9.82312 -1.33316,-24.61686 8.97909,-27.75451 7.89955,-2.40355 17.44704,6.87781 17.4954,17.00773 0.0639,13.38818 -10.70898,21.93852 -20.84187,16.54199 l 0,0 z"
       id="path4894"
       inkscape:connector-curvature="0"
       transform="translate(22.257541,261.86286)" />
    <path
       style="color:#000000;fill:#ff9955;fill-opacity:1;stroke:#000000;stroke-width:0.86864156;stroke-linecap:butt;stroke-linejoin:miter;stroke-miterlimit:4;stroke-opacity:1;stroke-dasharray:none;stroke-dashoffset:0;marker:none;visibility:visible;display:inline;overflow:visible;enable-background:accumulate"
       d="m 262.40482,94.750644 c -10.23741,-5.101518 -12.85518,-17.086412 -5.44428,-24.925461 4.22001,-4.463814 8.58321,-6.175671 15.79744,-6.197966 5.57673,-0.01723 7.10469,0.326618 10.61143,2.387998 7.70419,4.52879 10.9675,11.827317 8.5557,19.135149 -1.30719,3.960818 -7.61794,9.768246 -11.90989,10.959992 -6.01383,1.669862 -12.54238,1.165788 -17.6104,-1.359712 z"
       id="path4896"
       inkscape:connector-curvature="0"
       transform="translate(22.257541,261.86286)" />
  </g>
</svg>
