<?xml version="1.0" encoding="UTF-8" standalone="no"?>
<!-- Created with Inkscape (http://www.inkscape.org/) -->

<svg
	preserveAspectRatio="xMinYMin meet"
	viewBox="0 0 700 642.21893"
   xmlns:dc="http://purl.org/dc/elements/1.1/"
   xmlns:cc="http://creativecommons.org/ns#"
   xmlns:rdf="http://www.w3.org/1999/02/22-rdf-syntax-ns#"
   xmlns:svg="http://www.w3.org/2000/svg"
   xmlns="http://www.w3.org/2000/svg"
   xmlns:sodipodi="http://sodipodi.sourceforge.net/DTD/sodipodi-0.dtd"
   xmlns:inkscape="http://www.inkscape.org/namespaces/inkscape"
   width="100%"
   height="100%"
   id="svg3491"
   version="1.1"
   inkscape:version="0.48.4 r9939"
   sodipodi:docname="grand_panneau.svg">
  <defs
     id="defs3493" />
  <sodipodi:namedview
     id="base"
     pagecolor="#ffffff"
     bordercolor="#666666"
     borderopacity="1.0"
     inkscape:pageopacity="0.0"
     inkscape:pageshadow="2"
     inkscape:zoom="1.7109611"
     inkscape:cx="232.18634"
     inkscape:cy="209.46237"
     inkscape:document-units="px"
     inkscape:current-layer="layer1"
     showgrid="false"
     inkscape:window-width="1600"
     inkscape:window-height="838"
     inkscape:window-x="-8"
     inkscape:window-y="-8"
     inkscape:window-maximized="1"
     fit-margin-top="0"
     fit-margin-left="0"
     fit-margin-right="0"
     fit-margin-bottom="0" />
  <metadata
     id="metadata3496">
    <rdf:RDF>
      <cc:Work
         rdf:about="">
        <dc:format>image/svg+xml</dc:format>
        <dc:type
           rdf:resource="http://purl.org/dc/dcmitype/StillImage" />
        <dc:title />
      </cc:Work>
    </rdf:RDF>
  </metadata>
  <g
     inkscape:label="Calque 1"
     inkscape:groupmode="layer"
     id="layer1"
     transform="translate(-23.408649,-300.18607)">
    <path
       style="fill:none;stroke:#000000;stroke-width:0.74669182px;stroke-linecap:butt;stroke-linejoin:miter;stroke-opacity:1"
       d="m 116.54626,934.9185 c -10.29052,3.42403 -26.775034,4.11016 -39.307785,-2.38232 l -4.800079,-267.04559 44.107864,0.90545 z"
       id="path3451"
       inkscape:connector-curvature="0"
       sodipodi:nodetypes="ccccc" />
    <path
       style="fill:none;stroke:#000000;stroke-width:0.74669182px;stroke-linecap:butt;stroke-linejoin:miter;stroke-opacity:1"
       d="m 643.03224,937.30082 c -9.05125,9.64009 -45.1473,2.54054 -44.07229,-3.57344 l 4.03826,-257.12917 42.0613,1.01688 z"
       id="path3453"
       inkscape:connector-curvature="0"
       sodipodi:nodetypes="ccccc" />
    <path
       style="fill:none;stroke:#000000;stroke-width:0.74669182px;stroke-linecap:butt;stroke-linejoin:miter;stroke-opacity:1"
       d="M 696.63381,678.82236 28.401537,664.52861 c -1.760013,-2.30927 -5.334718,-11.24862 3.863839,-9.13429 -2.501172,-8.20523 -17.988319,-20.54477 0.368492,-22.1095 -7.886066,-6.34201 -6.149956,-8.76863 0.579059,-10.21248 -1.209327,-2.65827 -9.83812,-5.53684 -0.263208,-5.94851 l 649.464771,23.06076 c 4.51644,1.4393 10.698,1.42161 13.54932,4.31791 -0.9925,2.17423 -2.07177,4.34178 -0.67008,6.70018 6.18947,3.80953 10.9471,7.36618 1.48897,8.41246 -8.68746,0.79282 -2.64799,2.70131 0.52112,4.39235 5.43457,1.68628 1.07091,3.83913 -0.96779,5.88127 -3.54551,1.05546 -1.67744,3.4643 -0.0747,5.80684 3.60526,2.55074 2.37747,3.00716 0.37245,3.12676 z"
       id="path3455"
       inkscape:connector-curvature="0"
       sodipodi:nodetypes="cccccccccccccc" />
    <path
       style="fill:none;stroke:#000000;stroke-width:0.74669182px;stroke-linecap:butt;stroke-linejoin:miter;stroke-opacity:1"
       d="m 682.48893,640.0357 13.99599,-1.71227 c 5.9315,-2.5031 6.67655,-5.62578 2.38225,-9.45471 7.96444,-7.62793 0.5315,-6.90769 -1.04223,-8.56135 -6.63025,-4.67536 0.0694,-6.26916 1.34001,-7.29577 3.20697,-4.06099 0.21318,-5.19549 -2.23335,-7.22131 L 680.03224,596.03778 35.325072,575.11831 c -1.939614,1.94777 -7.729358,2.86886 -0.372233,7.29576 l -2.903414,0.52112 c -9.733987,1.43604 -1.607292,4.87515 2.084502,7.81689 -4.173761,1.66754 -7.004671,3.82682 -1.786722,8.93358 -8.415575,8.3417 -0.610308,11.87722 0.670022,17.34605 l 0.260566,0.0279"
       id="path3457"
       inkscape:connector-curvature="0"
       sodipodi:nodetypes="cccccccccccccc" />
    <path
       style="fill:none;stroke:#000000;stroke-width:0.74669182px;stroke-linecap:butt;stroke-linejoin:miter;stroke-opacity:1"
       d="m 35.423874,575.0105 c -1.14927,-3.2564 -8.794357,-5.49203 -1.631887,-10.05456 -1.081747,-4.45307 -7.718038,-9.191 0.631701,-13.16041 -5.289789,-3.98306 -14.002943,-8.28376 5.685297,-9.94927 -18.422635,-5.05043 -8.465955,-4.6185 -4.632469,-5.36945 l 656.178354,3.00057 c 4.25465,2.20605 26.45186,2.45981 7.79091,7.15926 3.55396,2.82126 14.09441,4.64444 0.26321,9.94929 -5.32399,2.99024 -3.46271,4.52098 -0.31585,5.79058 12.6503,1.62891 4.68161,6.22458 -0.52642,10.42304 -1.28565,1.82809 -1.65541,3.90598 -0.007,6.53485 4.1089,6.14202 -1.14968,8.57973 -2.05302,9.52814 -3.98831,2.76422 -6.05933,3.73105 -9.1021,5.09896 l -7.94891,1.94774 -0.21057,-0.10528"
       id="path3459"
       inkscape:connector-curvature="0"
       sodipodi:nodetypes="ccccccccccccccc" />
    <path
       style="fill:none;stroke:#000000;stroke-width:0.74669182px;stroke-linecap:butt;stroke-linejoin:miter;stroke-opacity:1"
       d="m 691.47059,539.3721 c 5.73877,-1.12955 16.2896,-0.47684 8.52797,-6.60653 -2.48574,-1.86139 -3.67836,-3.8952 -0.18429,-6.55389 5.67255,-2.49989 6.85814,-5.481 0.89491,-9.31757 -1.84993,-2.09603 -5.4271,-4.47863 0.21057,-7.52776 3.93507,-2.54628 6.91989,-5.1389 0.053,-8.2121 -0.85489,-0.61029 -6.74524,-1.46557 0.21056,-4.57982 17.84549,-5.01583 -1.10749,-5.73539 -7.26456,-7.94889 l -656.283568,1.57924"
       id="path3461"
       inkscape:connector-curvature="0"
       sodipodi:nodetypes="ccccccccc" />
    <path
       style="fill:none;stroke:#000000;stroke-width:0.74669182px;stroke-linecap:butt;stroke-linejoin:miter;stroke-opacity:1"
       d="m 35.687083,536.63473 c 8.636865,-7.47603 2.568695,-6.19906 0.789627,-7.47512 -11.237846,-3.53794 -5.358724,-9.58847 -2.737365,-15.16079 -7.144034,-2.90823 -2.734385,-6.92739 3.895484,-11.16003 -15.916072,-3.82742 -8.278378,-5.0522 -0.526418,-6.26436 -6.629167,-4.44407 -2.353378,-5.25316 0.684343,-6.47493 -11.37402,-6.7551 -3.754329,-8.60349 0.105284,-11.42324 -11.894674,-15.65461 -1.616999,-12.707 0.842261,-16.31892 -8.019747,-4.15455 -13.184039,-7.93895 0.210567,-9.31757 l 656.757354,-0.89491 5.58002,0.0526 c 12.41077,0.53956 5.7122,2.87929 0.21057,5.10625 -2.97273,1.08774 -5.25096,2.64872 1.47397,4.94831 2.31796,1.06348 6.72217,3.67724 -0.21057,8.79116 -7.5539,6.1987 -2.88141,7.20118 -0.21056,9.05437 9.72028,4.93489 -3.26581,5.80847 -8.58061,8.05417 l -2.63202,0.42114"
       id="path3463"
       inkscape:connector-curvature="0"
       sodipodi:nodetypes="ccccccccccccccccc" />
    <path
       style="fill:none;stroke:#000000;stroke-width:0.74669182px;stroke-linecap:butt;stroke-linejoin:miter;stroke-opacity:1"
       d="m 701.28668,452.05816 c 2.50447,-0.58289 -11.09263,-1.64014 5.13686,-2.30785 15.87482,-3.80111 -16.40332,-2.3854 -5.13686,-6.62575 25.63213,-11.23704 3.30373,-6.15138 0.48393,-7.70521 11.89442,-6.3236 9.07462,-8.55375 3.3501,-9.97584 -8.85419,-5.76414 12.81674,-9.07945 -0.96778,-13.9215 6.22584,-4.55857 19.68742,-9.63929 1.45164,-12.43258 -8.55993,-3.90833 14.31192,-7.24112 -3.31285,-9.97583 -3.59965,-1.76806 -4.37203,-2.50803 -6.55125,-3.75956"
       id="path3465"
       inkscape:connector-curvature="0"
       sodipodi:nodetypes="ccccccccc" />
    <path
       style="fill:none;stroke:#000000;stroke-width:0.74669182px;stroke-linecap:butt;stroke-linejoin:miter;stroke-opacity:1"
       d="m 40.113883,453.07442 -6.57728,0.045 c -7.282276,-4.98792 -2.43523,-9.47368 -2.231645,-14.46161 -4.756554,-4.23362 -3.303253,-9.48109 5.062362,-15.85711 -9.634363,-4.09725 -5.10508,-6.363 0.521131,-8.48691 -3.008631,-4.07478 -5.501431,-8.16276 -3.796779,-12.35813 5.004411,-5.28983 -2.324115,-9.34637 -4.466792,-13.9215 -0.683276,-1.10065 0.705019,-1.99415 2.680078,-2.82897 l 12.209233,0.14889 652.821839,0.44668"
       id="path3467"
       inkscape:connector-curvature="0"
       sodipodi:nodetypes="cccccccccc" />
    <path
       style="fill:none;stroke:#000000;stroke-width:0.74669182px;stroke-linecap:butt;stroke-linejoin:miter;stroke-opacity:1"
       d="m 31.449436,385.15835 c 3.657699,-2.08976 7.414478,-4.13705 7.422467,-7.79097 -2.844582,-2.24773 -8.733942,-4.12415 -1.237074,-7.63303 3.137494,-1.45414 8.27227,-2.70855 1.184432,-5.18521 -2.186186,-1.24561 -1.98735,-4.13803 1.447649,-9.26493 2.746273,-3.9075 -0.341417,-7.50794 -2.447835,-11.16003 1.554344,-4.60833 9.080743,-11.47878 2.791702,-13.11612 l -0.372234,-0.44668 c -1.701651,-1.97604 -2.463567,-4.02828 0.744467,-6.4024 3.271548,-5.29025 0.116275,-4.6743 -0.893364,-6.03017 -7.669332,-3.9532 10.0266,-9.18765 1.340043,-10.94364 -6.870402,-3.03545 -1.214838,-4.91108 6.179061,-6.62575 l 664.7333,3.94567 c 6.95199,0.81865 -4.43416,4.38752 1.11667,8.26356 8.19965,2.29138 17.44847,4.47601 -1.78676,9.52916 -1.49831,0.56741 -22.97929,6.39702 0.59564,7.81689 2.2633,0.25196 9.49068,1.74391 -3.35011,5.73239 -6.61905,3.42921 -3.42231,5.69385 0.96779,7.81688 1.25138,4.47628 0.76334,8.0626 -3.72233,9.60361 -8.89467,1.90712 5.73728,6.35884 1.4889,8.6358 -11.62846,5.31606 3.22937,6.34272 -1.71224,12.9537 -1.96343,2.30375 -10.67403,4.33762 -3.72233,6.99798 4.74328,2.33172 -1.23645,3.5347 -3.42456,5.13681"
       id="path3469"
       inkscape:connector-curvature="0"
       sodipodi:nodetypes="ccccccccccccccccccccccc" />
  </g>
</svg>
