<?xml version="1.0" encoding="UTF-8" standalone="no"?>
<!-- Created with Inkscape (http://www.inkscape.org/) -->

<svg
   xmlns:dc="http://purl.org/dc/elements/1.1/"
   xmlns:cc="http://creativecommons.org/ns#"
   xmlns:rdf="http://www.w3.org/1999/02/22-rdf-syntax-ns#"
   xmlns:svg="http://www.w3.org/2000/svg"
   xmlns="http://www.w3.org/2000/svg"
   xmlns:sodipodi="http://sodipodi.sourceforge.net/DTD/sodipodi-0.dtd"
   xmlns:inkscape="http://www.inkscape.org/namespaces/inkscape"
   preserveAspectRatio="xMinYMin meet"
   viewBox="0 0 700 648.61237"
   width="100%"
   height="100%"
   id="svg3002"
   version="1.1"
   inkscape:version="0.48.4 r9939"
   sodipodi:docname="panneau2.svg">
  <defs
     id="defs3002" />
  <sodipodi:namedview
     id="base"
     pagecolor="#ffffff"
     bordercolor="#666666"
     borderopacity="1.0"
     inkscape:pageopacity="0.0"
     inkscape:pageshadow="2"
     inkscape:zoom="1.0314327"
     inkscape:cx="350"
     inkscape:cy="324.30619"
     inkscape:document-units="px"
     inkscape:current-layer="layer1"
     showgrid="false"
     inkscape:window-width="1600"
     inkscape:window-height="838"
     inkscape:window-x="-8"
     inkscape:window-y="-8"
     inkscape:window-maximized="1"
     fit-margin-top="0"
     fit-margin-left="0"
     fit-margin-right="0"
     fit-margin-bottom="0">
    <inkscape:grid
       type="xygrid"
       id="grid3017"
       empspacing="5"
       visible="true"
       enabled="true"
       snapvisiblegridlinesonly="true"
       originx="-21.082081px"
       originy="-97.451909px" />
  </sodipodi:namedview>
  <metadata
     id="metadata3007">
    <rdf:RDF>
      <cc:Work
         rdf:about="">
        <dc:format>image/svg+xml</dc:format>
        <dc:type
           rdf:resource="http://purl.org/dc/dcmitype/StillImage" />
        <dc:title></dc:title>
      </cc:Work>
    </rdf:RDF>
  </metadata>
  <g
     inkscape:label="Calque 1"
     inkscape:groupmode="layer"
     id="layer1"
     transform="translate(-21.082081,-306.29792)">
    <path
       style="fill:none;stroke:#000000;stroke-width:2.37147808px;stroke-linecap:butt;stroke-linejoin:miter;stroke-opacity:1"
       d="m 352.17155,613.17765 -0.32561,333.91147 c 35.38888,8.84722 35.38888,8.84722 70.77776,0 L 424.56352,592.90781 682.42904,501.47944 719.89634,374.61603 596.12083,307.48366 22.26782,504.66362 86.82155,704.96701 z"
       id="path2987"
       inkscape:connector-curvature="0"
       sodipodi:nodetypes="cccccccccc" />
    <path
       style="color:#000000;fill:#a05a2c;fill-opacity:1;stroke:#000000;stroke-width:1.22844458;stroke-linecap:butt;stroke-linejoin:miter;stroke-miterlimit:4;stroke-opacity:1;stroke-dasharray:none;stroke-dashoffset:0;marker:none;visibility:visible;display:inline;overflow:visible;enable-background:accumulate"
       d="m 379.94396,951.47405 c -1.35129,-0.32436 -7.84472,-1.76295 -14.42986,-3.19685 l -11.97299,-2.6071 -0.31146,-167.35681 -0.31147,-167.35681 -130.82936,45.2838 c -71.95614,24.9061 -131.57253,45.43826 -132.48086,45.62702 -1.17613,0.24444 -10.62355,-27.41414 -32.8216,-96.08968 -17.14355,-53.03809 -31.18778,-97.2977 -31.20939,-98.35468 -0.0299,-1.46418 64.97098,-24.25162 272.98253,-95.6998 150.162,-51.5779 278.54982,-95.65752 285.30627,-97.95471 l 12.28445,-4.17671 60.13526,32.663 c 33.07439,17.96465 60.3889,32.91664 60.69891,33.22665 0.31001,0.31001 -7.67925,28.45566 -17.75392,62.54589 l -18.31757,61.98223 -32.55379,11.54927 c -17.90458,6.3521 -76.0824,26.97132 -129.28404,45.82052 l -96.73026,34.27123 -0.01,56.50845 c -0.006,31.07965 -0.37724,110.74905 -0.82556,177.04311 l -0.81513,120.53465 -11.67924,2.68281 c -12.00762,2.75825 -24.73391,4.09543 -29.07048,3.05452 l -6.1e-4,0 z"
       id="path5433"
       inkscape:connector-curvature="0" />
  </g>
  <script id="scriptsvg3002">document.getElementById("svg3002").addEventListener("click",sendClickToParentDocument,false);function sendClickToParentDocument(evt){var target = evt.target; if(target.correspondingUseElement){target = target.correspondingUseElement;}if (window.parent.svgElementClicked){window.parent.svgElementClicked(target);}else{alert(&quot;You clicked '&quot; + target.id + &quot;' which     is a &quot; + target.nodeName + &quot; element&quot;);}}</script>
</svg>
