<?xml version="1.0" encoding="UTF-8" standalone="no"?>
<!-- Created with Inkscape (http://www.inkscape.org/) -->

<svg
   xmlns:dc="http://purl.org/dc/elements/1.1/"
   xmlns:cc="http://creativecommons.org/ns#"
   xmlns:rdf="http://www.w3.org/1999/02/22-rdf-syntax-ns#"
   xmlns:svg="http://www.w3.org/2000/svg"
   xmlns="http://www.w3.org/2000/svg"
   xmlns:sodipodi="http://sodipodi.sourceforge.net/DTD/sodipodi-0.dtd"
   xmlns:inkscape="http://www.inkscape.org/namespaces/inkscape"
   preserveAspectRatio="xMinYMin meet"
   viewBox="0 0 1226.9654 588.50173"
   width="100%"
   height="100%"
   id="svg3600"
   version="1.1"
   inkscape:version="0.48.4 r9939"
   sodipodi:docname="paysage.svg">
  <defs
     id="defs3602" />
  <sodipodi:namedview
     id="base"
     pagecolor="#ffffff"
     bordercolor="#666666"
     borderopacity="1.0"
     inkscape:pageopacity="0.0"
     inkscape:pageshadow="2"
     inkscape:zoom="1.1367851"
     inkscape:cx="755.24414"
     inkscape:cy="345.02799"
     inkscape:document-units="px"
     inkscape:current-layer="layer1"
     showgrid="false"
     inkscape:window-width="1600"
     inkscape:window-height="838"
     inkscape:window-x="-8"
     inkscape:window-y="-8"
     inkscape:window-maximized="1"
     fit-margin-top="0"
     fit-margin-left="0"
     fit-margin-right="0"
     fit-margin-bottom="0" />
  <metadata
     id="metadata3605">
    <rdf:RDF>
      <cc:Work
         rdf:about="">
        <dc:format>image/svg+xml</dc:format>
        <dc:type
           rdf:resource="http://purl.org/dc/dcmitype/StillImage" />
        <dc:title />
      </cc:Work>
    </rdf:RDF>
  </metadata>
  <g
     inkscape:label="Calque 1"
     inkscape:groupmode="layer"
     id="layer1"
     transform="translate(4.5590519,-342.28128)">
    <g
       id="g6056">
      <path
         sodipodi:nodetypes="ccc"
         inkscape:connector-curvature="0"
         id="path3578"
         d="m -4.2780755,521.58151 c 80.2586135,-8.5536 138.1299555,54.53204 204.1013055,91.69768 62.65318,34.02649 122.69985,76.98955 195.81893,75.13294"
         style="fill:none;stroke:#000000;stroke-width:0.44537842px;stroke-linecap:butt;stroke-linejoin:miter;stroke-opacity:1" />
      <path
         sodipodi:nodetypes="ccsscccsc"
         inkscape:connector-curvature="0"
         id="path3580"
         d="m 319.18043,674.86682 c 65.47538,-2.72777 134.53137,-40.31115 224.38085,-74.32037 165.61894,-63.83546 266.76047,-68.26486 398.10713,-10.18036 135.85639,60.0788 220.60179,59.10047 274.49199,59.6704 0.5881,0.006 1.7533,0.022 1.7533,0.022 l 0.145,38.56328 -1222.3950627,-0.024 c 0,0 0.00656,-159.7386 0.011082,-166.97849 1.048e-4,-0.16788 2.290574,-0.26591 2.2906765,-0.26591"
         style="fill:none;stroke:#000000;stroke-width:0.44537842px;stroke-linecap:butt;stroke-linejoin:miter;stroke-opacity:1" />
    </g>
    <path
       style="fill:none;stroke:#000000;stroke-width:0.44537842px;stroke-linecap:butt;stroke-linejoin:miter;stroke-opacity:1"
       d="m 601.33101,585.4516 c -29.8363,-52.86356 -34.85407,-101.31259 -93.541,-163.35589 -14.04385,-16.87927 -32.97154,-34.87651 -54.69305,-51.8602 -43.11188,-33.94743 -36.30653,-43.30124 -120.89535,9.8962 -97.00327,71.24576 -132.08744,129.59169 -193.39112,193.40004"
       id="path3582"
       inkscape:connector-curvature="0"
       sodipodi:nodetypes="ccccc" />
    <path
       style="fill:none;stroke:#000000;stroke-width:0.44537842px;stroke-linecap:butt;stroke-linejoin:miter;stroke-opacity:1"
       d="m 314.11256,393.16776 c 3.4179,22.46265 8.93078,17.28922 9.61347,9.16977 3.99177,24.1433 9.09774,15.86713 8.80002,1.40505 16.76674,31.63882 11.74904,9.10545 10.75968,6.4706 16.04713,26.58237 14.12439,10.53541 12.71937,4.88068 20.41037,26.33446 17.13486,10.38208 14.93785,3.2538 23.30033,24.89942 21.99243,6.82904 22.77651,3.54958 9.97851,17.8305 19.46302,14.68795 12.71936,2.0706 28.26875,24.35094 19.13885,5.18871 18.33954,-0.7395 32.98032,16.1285 11.89139,-1.03055 10.64877,-2.21849 15.94634,7.25344 42.67163,18.98972 26.47398,-1.9227 17.8595,10.7985 31.3036,9.50088 15.82528,-0.73949 8.25945,1.62277 24.70268,11.60921 15.82522,-4.28909 8.4939,4.74065 8.91746,2.91239 5.4538,-2.07983"
       id="path3584"
       inkscape:connector-curvature="0"
       sodipodi:nodetypes="cccccccccccccc" />
    <path
       style="color:#000000;fill:#decd87;fill-opacity:1;stroke:#000000;stroke-width:0.70710677;stroke-linecap:butt;stroke-linejoin:miter;stroke-miterlimit:4;stroke-opacity:1;stroke-dasharray:none;stroke-dashoffset:0;marker:none;visibility:visible;display:inline;overflow:visible;enable-background:accumulate"
       d="m 314.21868,328.18367 c -13.05718,-5.31316 -37.56969,-17.44547 -55.86144,-27.64826 -56.10644,-31.2951 -65.34606,-36.69107 -83.08505,-48.52201 -10.14235,-6.76439 -29.39156,-19.77809 -30.65895,-20.72741 -0.13935,-0.10438 4.98494,-5.85637 11.38731,-12.78219 12.25406,-13.25595 18.29089,-20.07532 41.19372,-46.53354 40.22424,-46.46857 67.19644,-74.140237 97.22542,-99.746772 6.0259,-5.138455 19.4828,-16.120291 23.06067,-18.819237 0.53906,-0.406632 1.17613,1.022666 2.02316,4.539017 1.30591,5.421306 2.87327,8.744783 4.40045,9.330819 1.39438,0.535069 2.78583,-0.217995 3.54453,-1.918326 0.58947,-1.321036 0.8882,-0.845161 2.21817,3.533475 2.95127,9.716401 6.45616,9.390177 7.60787,-0.708114 l 0.46613,-4.087081 3.47845,5.848294 c 3.81792,6.419022 6.10515,9.20189 7.25348,8.82528 0.41132,-0.134899 0.90696,-1.566293 1.10141,-3.180874 l 0.35356,-2.935603 3.53553,4.749195 c 3.34449,4.492569 6.6726,6.81699 7.94116,5.546261 0.29927,-0.299784 0.52079,-2.113414 0.49227,-4.03029 l -0.0518,-3.485229 2.13836,2.661204 c 2.82142,3.511288 7.92724,8.27682 10.13209,9.456818 2.66194,1.424628 3.99581,-0.686259 3.4005,-5.3814 l -0.44828,-3.535534 3.04712,2.919148 c 6.77733,6.492705 12.15461,9.082282 15.33027,7.382717 0.85539,-0.457787 1.87157,-2.158358 2.42605,-4.059973 l 0.95414,-3.272229 1.58252,2.560571 c 0.87038,1.408313 3.03894,3.84257 4.81902,5.409459 5.32114,4.683849 9.39304,3.403685 8.26692,-2.599032 l -0.4877,-2.599676 2.04851,1.569176 c 8.43421,6.460677 13.27407,8.996198 15.52406,8.132796 1.18965,-0.456511 1.39349,-5.66524 0.3624,-9.260441 -0.77756,-2.711179 -0.3351,-2.828682 3.42609,-0.909864 6.78304,3.460448 12.9025,5.097101 13.77566,3.684305 0.2002,-0.323941 -0.42888,-1.755832 -1.39798,-3.18198 -0.96911,-1.426148 -1.63103,-2.592996 -1.47094,-2.592996 0.16008,0 2.00119,0.75527 4.09135,1.678378 7.66048,3.383203 15.14865,5.485932 18.72715,5.258706 3.16049,-0.200684 3.47678,-0.382789 3.67714,-2.117164 0.12056,-1.043676 -0.30065,-2.902885 -0.93602,-4.131575 -0.63538,-1.22869 -1.00352,-2.385709 -0.81807,-2.571153 0.18544,-0.185443 1.56125,0.277804 3.05734,1.029438 7.48483,3.760356 15.86419,4.797035 16.38988,2.027725 0.13578,-0.715285 -0.49788,-2.118579 -1.40812,-3.118432 -1.32052,-1.450521 -1.39961,-1.726031 -0.39133,-1.363262 4.29291,1.544544 9.24452,2.664526 10.92565,2.471223 1.62278,-0.186593 1.98987,-0.607433 2.17197,-2.489969 0.12053,-1.245983 -0.15514,-2.964772 -0.61259,-3.81953 -0.74405,-1.390268 -0.69261,-1.491949 0.48797,-0.964521 0.72583,0.32427 2.39761,0.643952 3.71506,0.710406 2.12974,0.107425 3.37482,1.2105 11.22803,9.947461 29.04994,32.319035 43.29002,55.711735 65.59844,107.760925 4.91727,11.47281 11.62236,26.40633 14.9002,33.1856 3.27784,6.77927 5.71518,12.56808 5.41631,12.86401 -0.29887,0.29592 -6.11186,2.43405 -12.91776,4.75138 -26.23558,8.93292 -60.5134,22.20543 -108.84705,42.14602 -74.51947,30.74385 -103.97939,40.45528 -136.16545,44.88676 -19.0559,2.62369 -18.45031,2.66028 -29.34493,-1.7729 l 0,0 z"
       id="path6586"
       inkscape:connector-curvature="0"
       transform="translate(-4.5625464,342.28093)" />
    <path
       style="color:#000000;fill:#aade87;fill-opacity:1;stroke:#000000;stroke-width:1;stroke-linecap:butt;stroke-linejoin:miter;stroke-miterlimit:4;stroke-opacity:1;stroke-dasharray:none;stroke-dashoffset:0;marker:none;visibility:visible;display:inline;overflow:visible;enable-background:accumulate"
       d="m 353.55971,585.07945 c 0,0 -4.25039,-245.68248 -13.48286,-248.27107 l -12.64697,-3.54595 8.24802,-0.83865 c 32.76278,-3.33126 66.55111,-13.9611 139.11659,-43.76621 56.56594,-23.23355 75.63564,-30.64722 110.22481,-42.85176 17.84569,-6.29673 17.84712,-6.29702 19.51231,-3.98909 1.64146,2.27505 1.6567,2.26821 1.06405,-0.47783 -0.58262,-2.69954 -0.2158,-2.90065 11.83016,-6.48619 44.76241,-13.32372 71.08805,-19.21413 107.00872,-23.94338 18.37225,-2.41886 71.32625,-2.7075 88.52873,-0.48255 44.83155,5.79846 79.49165,15.88877 134.71765,39.21924 39.90935,16.85988 63.87148,25.69838 92.19318,34.00578 55.1362,16.17265 96.8734,24.18009 156.7084,24.41726 l 29.8367,0.11827 c 1.1857,0.77981 -0.083,187.24084 -0.1538,279.81478 l -431.17422,-1.9016 z"
       id="path6602"
       inkscape:connector-curvature="0"
       transform="translate(-4.5625464,342.28093)"
       sodipodi:nodetypes="cscssssssssssscccc" />
    <path
       style="color:#000000;fill:#ccffaa;fill-opacity:1;stroke:#000000;stroke-width:1.09973586;stroke-linecap:butt;stroke-linejoin:miter;stroke-miterlimit:4;stroke-opacity:1;stroke-dasharray:none;stroke-dashoffset:0;marker:none;visibility:visible;display:inline;overflow:visible;enable-background:accumulate"
       d="m 1.3581938,262.6775 0,-83.17288 17.8707082,0.56846 c 40.823531,1.29858 66.549296,11.13097 136.196608,60.37969 29.89007,21.13575 42.16587,27.43885 79.07669,48.53631 62.25361,35.58288 50.83154,28.02191 93.42681,45.83439 108.72827,45.46796 226.75301,119.61706 898.93609,195.48764 0,0 -0.5318,55.74023 -0.6231,56.76634 -0.2043,2.29608 -937.96408,0.87022 -1039.76844,0.94006 L 0.51020956,588.14508 z"
       id="path6598"
       inkscape:connector-curvature="0"
       transform="translate(-4.5625464,342.28093)"
       sodipodi:nodetypes="ccssssssscc" />
    <path
       style="color:#000000;fill:#ffffff;fill-opacity:1;stroke:#000000;stroke-width:0;stroke-linecap:butt;stroke-linejoin:miter;stroke-miterlimit:4;stroke-opacity:1;stroke-dasharray:none;stroke-dashoffset:0;marker:none;visibility:visible;display:inline;overflow:visible;enable-background:accumulate"
       d="m 424.66275,90.993083 c -1.69338,-1.030661 -5.35927,-3.663959 -8.14642,-5.851767 -5.31151,-4.16933 -6.90596,-4.349594 -5.19158,-0.586946 0.56241,1.23436 1.02256,3.215298 1.02256,4.402083 0,4.787361 -6.47841,1.173388 -11.1489,-6.219406 -2.80596,-4.441473 -3.80555,-4.913306 -3.80555,-1.796313 0,3.143295 -1.52394,6.619701 -3.18051,7.255391 -2.12805,0.816601 -7.01135,-2.112989 -13.30317,-7.980853 -3.05549,-2.849603 -5.73596,-5.000577 -5.9566,-4.779943 -0.22063,0.220635 -0.0121,1.757808 0.46348,3.415942 1.05145,3.666205 1.12795,7.864609 0.1433,7.864609 -1.34931,0 -7.81983,-6.070728 -11.21307,-10.520246 -1.85987,-2.438814 -3.62238,-4.434207 -3.9167,-4.434207 -0.29432,0 -0.35656,2.468692 -0.13831,5.485984 0.38084,5.265016 0.33044,5.433318 -1.25136,4.17845 -2.62486,-2.082358 -4.5691,-4.496624 -7.60577,-9.444516 -3.94679,-6.430813 -4.69223,-6.329612 -3.37936,0.458781 0.39969,2.066657 0.43319,3.938964 0.0744,4.160684 -0.72748,0.449607 -5.7307,-6.78607 -8.85194,-12.801699 l -2.03042,-3.91328 -0.95966,6.157716 c -1.85117,11.878038 -3.52135,10.842554 -7.09434,-4.398368 l -0.61868,-2.639022 -1.71207,3.952528 -1.71206,3.952529 -1.59935,-2.120302 c -1.81907,-2.411594 -4.04705,-10.747728 -3.35473,-12.551903 1.75644,-4.577194 44.56279,-31.891917 69.71965,-44.4880867 13.47852,-6.7487639 24.92315,-8.17083269 33.64024,-4.1800164 6.10018,2.7927562 9.54888,5.3571692 33.6548,25.0253051 18.03609,14.715724 48.50393,43.336574 47.35562,44.484876 -0.29851,0.298514 -2.01692,-0.0732 -3.81869,-0.826024 -3.25394,-1.359582 -3.27175,-1.355496 -2.65186,0.608222 0.34324,1.08735 0.82992,3.065596 1.08152,4.396102 0.58459,3.091535 -0.54481,3.121222 -9.82361,0.25822 -3.85138,-1.188354 -7.21613,-1.945866 -7.47722,-1.68336 -0.2611,0.262507 1.00972,1.669099 2.82405,3.125762 1.81432,1.456662 3.29877,3.061073 3.29877,3.565357 0,1.78927 -8.75802,-0.116888 -15.05343,-3.276337 -3.45747,-1.735184 -6.49096,-2.95023 -6.74109,-2.700102 -0.25013,0.250128 0.59279,2.037751 1.87313,3.972495 3.29548,4.979796 3.11877,7.074132 -0.59686,7.074132 -3.39905,0 -12.50576,-2.977646 -21.18516,-6.926969 -3.34214,-1.520752 -6.28636,-2.555276 -6.54269,-2.298943 -0.25633,0.256333 1.29059,2.289406 3.43761,4.517941 l 3.90367,4.051882 -2.63903,-0.620173 c -1.45146,-0.341094 -5.34693,-1.806959 -8.6566,-3.257476 -3.30967,-1.450518 -6.24314,-2.411745 -6.51883,-2.136059 -0.27568,0.275685 -0.0148,2.674905 0.57974,5.331598 1.57315,7.029582 0.37126,8.124803 -5.19696,4.735728 l 0,0 z"
       id="path2991"
       inkscape:connector-curvature="0"
       transform="translate(-4.5590519,342.28128)" />
  </g>
  <g
     inkscape:groupmode="layer"
     id="layer2"
     inkscape:label="premier plan"
     transform="translate(4.5590519,-342.28128)" />
 <script id="script_svg">document.oncontextmenu = new Function("return false");</script>
</svg>
