<?xml version="1.0" encoding="UTF-8" standalone="no"?>
<!-- Created with Inkscape (http://www.inkscape.org/) -->

<svg
   xmlns:dc="http://purl.org/dc/elements/1.1/"
   xmlns:cc="http://creativecommons.org/ns#"
   xmlns:rdf="http://www.w3.org/1999/02/22-rdf-syntax-ns#"
   xmlns:svg="http://www.w3.org/2000/svg"
   xmlns="http://www.w3.org/2000/svg"
   xmlns:sodipodi="http://sodipodi.sourceforge.net/DTD/sodipodi-0.dtd"
   xmlns:inkscape="http://www.inkscape.org/namespaces/inkscape"
   preserveAspectRatio="xMinYMin meet"
   viewBox="0 0 1222.9063 346.43781"
   width="100%"
   height="100%"
   id="svg3600"
   version="1.1"
   inkscape:version="0.48.4 r9939"
   sodipodi:docname="paysage.svg">
  <defs
     id="defs3602" />
  <sodipodi:namedview
     id="base"
     pagecolor="#ffffff"
     bordercolor="#666666"
     borderopacity="1.0"
     inkscape:pageopacity="0.0"
     inkscape:pageshadow="2"
     inkscape:zoom="0.18577649"
     inkscape:cx="259.3277"
     inkscape:cy="-112.36796"
     inkscape:document-units="px"
     inkscape:current-layer="layer1"
     showgrid="false"
     inkscape:window-width="724"
     inkscape:window-height="405"
     inkscape:window-x="175"
     inkscape:window-y="175"
     inkscape:window-maximized="0"
     fit-margin-top="0"
     fit-margin-left="0"
     fit-margin-right="0"
     fit-margin-bottom="0" />
  <metadata
     id="metadata3605">
    <rdf:RDF>
      <cc:Work
         rdf:about="">
        <dc:format>image/svg+xml</dc:format>
        <dc:type
           rdf:resource="http://purl.org/dc/dcmitype/StillImage" />
        <dc:title />
      </cc:Work>
    </rdf:RDF>
  </metadata>
  <g
     inkscape:label="Calque 1"
     inkscape:groupmode="layer"
     id="layer1"
     transform="translate(4.5625464,-342.28093)">
    <g
       id="g6056">
      <path
         sodipodi:nodetypes="ccc"
         inkscape:connector-curvature="0"
         id="path3578"
         d="m -4.2780755,521.58151 c 80.2586135,-8.5536 138.1299555,54.53204 204.1013055,91.69768 62.65318,34.02649 122.69985,76.98955 195.81893,75.13294"
         style="fill:none;stroke:#000000;stroke-width:0.44537842px;stroke-linecap:butt;stroke-linejoin:miter;stroke-opacity:1" />
      <path
         sodipodi:nodetypes="ccsscccc"
         inkscape:connector-curvature="0"
         id="path3580"
         d="m 319.18043,674.86682 c 65.47538,-2.72777 134.53137,-40.31115 224.38085,-74.32037 165.61894,-63.83546 266.76047,-68.26486 398.10713,-10.18036 135.85639,60.0788 220.60179,59.10047 274.49199,59.6704 0.5881,0.006 1.7533,0.022 1.7533,0.022 l 0.145,38.56328 -1222.3950627,-0.024 c 0,0 0.00687,-167.23218 0.011393,-167.23225"
         style="fill:none;stroke:#000000;stroke-width:0.44537842px;stroke-linecap:butt;stroke-linejoin:miter;stroke-opacity:1" />
    </g>
    <path
       style="fill:none;stroke:#000000;stroke-width:0.44537842px;stroke-linecap:butt;stroke-linejoin:miter;stroke-opacity:1"
       d="m 601.33101,585.4516 c -29.8363,-52.86356 -34.85407,-101.31259 -93.541,-163.35589 -14.04385,-16.87927 -32.97154,-34.87651 -54.69305,-51.8602 -43.11188,-33.94743 -36.30653,-43.30124 -120.89535,9.8962 -97.00327,71.24576 -132.08744,129.59169 -193.39112,193.40004"
       id="path3582"
       inkscape:connector-curvature="0"
       sodipodi:nodetypes="ccccc" />
    <path
       style="fill:none;stroke:#000000;stroke-width:0.44537842px;stroke-linecap:butt;stroke-linejoin:miter;stroke-opacity:1"
       d="m 314.11256,393.16776 c 3.4179,22.46265 8.93078,17.28922 9.61347,9.16977 3.99177,24.1433 9.09774,15.86713 8.80002,1.40505 16.76674,31.63882 11.74904,9.10545 10.75968,6.4706 16.04713,26.58237 14.12439,10.53541 12.71937,4.88068 20.41037,26.33446 17.13486,10.38208 14.93785,3.2538 23.30033,24.89942 21.99243,6.82904 22.77651,3.54958 9.97851,17.8305 19.46302,14.68795 12.71936,2.0706 28.26875,24.35094 19.13885,5.18871 18.33954,-0.7395 32.98032,16.1285 11.89139,-1.03055 10.64877,-2.21849 15.94634,7.25344 42.67163,18.98972 26.47398,-1.9227 17.8595,10.7985 31.3036,9.50088 15.82528,-0.73949 8.25945,1.62277 24.70268,11.60921 15.82522,-4.28909 8.4939,4.74065 8.91746,2.91239 5.4538,-2.07983"
       id="path3584"
       inkscape:connector-curvature="0"
       sodipodi:nodetypes="cccccccccccccc" />
    <path
       style="color:#000000;fill:#b3ff80;fill-opacity:1;stroke:#000000;stroke-width:1.00000004;stroke-linecap:butt;stroke-linejoin:miter;stroke-miterlimit:4;stroke-opacity:1;stroke-dasharray:none;stroke-dashoffset:0;marker:none;visibility:visible;display:inline;overflow:visible;enable-background:accumulate"
       d="m 383.6594,344.44006 c -15.88121,-0.99992 -36.02597,-4.77224 -47.37616,-8.8717 l -5.65685,-2.04314 7.07107,-0.97119 c 34.4364,-4.72976 67.08157,-15.24222 142.12846,-45.76846 56.85223,-23.12535 63.75443,-25.81316 101.0938,-39.36727 18.57431,-6.74244 21.38736,-7.42328 22.78332,-5.51419 2.19595,3.00314 3.769,2.73348 2.75172,-0.47172 -0.72245,-2.27621 0.8091,-3.16019 10.86485,-6.27098 56.12271,-17.36184 96.55199,-24.73938 142.56608,-26.01546 63.66653,-1.76562 112.40853,8.70997 186.13108,40.00313 93.30763,39.60647 154.94483,54.65354 240.39483,58.68592 18.5653,0.8761 34.0115,1.83667 34.325,2.13462 0.3134,0.29794 0.8766,8.50539 1.2516,18.23879 l 0.6817,17.69708 -411.37352,-0.22072 C 585.04093,345.56337 392.6043,345.00325 383.6594,344.44006 z"
       id="path6060"
       inkscape:connector-curvature="0"
       transform="translate(-4.5625464,342.28093)" />
    <path
       style="color:#000000;fill:#44aa00;fill-opacity:1;stroke:#000000;stroke-width:1.41421354000000000;stroke-linecap:butt;stroke-linejoin:miter;stroke-miterlimit:4;stroke-opacity:1;stroke-dasharray:none;stroke-dashoffset:0;marker:none;visibility:visible;display:inline;overflow:visible;enable-background:accumulate"
       d="m 0.69036751,263.35619 0,-82.5493 6.92917239,-0.91919 c 8.0076461,-1.06225 29.5319981,1.10593 41.8611951,4.21674 28.200598,7.11537 51.473295,19.49633 104.651805,55.67421 29.36063,19.97435 44.07874,29.03556 80.52659,49.57625 58.01688,32.69621 92.61219,47.84566 122.41305,53.60525 4.278,0.8268 9.05097,1.75392 10.60661,2.06027 1.55563,0.30633 -80.38037,0.63079 -182.08,0.72102 l -184.90842249,0.16405 0,-82.5493 z"
       id="path6570"
       inkscape:connector-curvature="0"
       transform="translate(-4.5625464,342.28093)" />
    <path
       style="color:#000000;fill:#44aa00;fill-opacity:1;stroke:#000000;stroke-width:1.41421354;stroke-linecap:butt;stroke-linejoin:miter;stroke-miterlimit:4;stroke-opacity:1;stroke-dasharray:none;stroke-dashoffset:0;marker:none;visibility:visible;display:inline;overflow:visible;enable-background:accumulate"
       d="m 420.71179,342.99194 c -48.36806,-0.83452 -55.83168,-1.2707 -66.84699,-3.90662 -18.37288,-4.39656 -18.63712,-5.03279 -3.22442,-7.76372 29.9224,-5.30185 55.26256,-13.85881 133.71102,-45.15203 53.65044,-21.40125 88.80891,-34.80944 106.65449,-40.67423 7.67648,-2.52281 10.33473,-2.8685 12.35518,-1.60671 3.48961,2.1793 4.02691,2.04206 4.02691,-1.0286 0,-3.20043 4.44534,-4.94457 32.52691,-12.76204 42.647,-11.87225 67.96316,-16.29417 107.83614,-18.8355 20.7461,-1.32227 31.67489,-1.31309 50.20458,0.0421 49.11216,3.59203 81.94106,12.25742 146.72231,38.72827 103.23948,42.18559 150.52988,53.59093 245.53508,59.2173 l 29.1603,1.72692 0.8816,9.33245 c 0.4849,5.13285 0.8862,12.67353 0.8917,16.75707 l 0.01,7.42462 -372.99886,-0.27997 c -205.14935,-0.15398 -397.50007,-0.7027 -427.44605,-1.21936 z"
       id="path6572"
       inkscape:connector-curvature="0"
       transform="translate(-4.5625464,342.28093)" />
    <path
       style="color:#000000;fill:#ccffaa;fill-opacity:1;stroke:#000000;stroke-width:1.41421354000000000;stroke-linecap:butt;stroke-linejoin:miter;stroke-miterlimit:4;stroke-opacity:1;stroke-dasharray:none;stroke-dashoffset:0;marker:none;visibility:visible;display:inline;overflow:visible;enable-background:accumulate"
       d="m 2.1045811,263.17399 0,-81.31728 5.3033008,-0.26552 c 16.6718831,-0.83474 40.2086101,2.62809 55.6992701,8.19473 22.165064,7.96512 40.144578,18.22898 93.853818,53.57773 38.01312,25.01835 78.00755,48.4638 115.96551,67.98106 25.59562,13.16078 60.19106,27.76138 70.71067,29.84261 l 5.65686,1.11916 -8.48528,0.93891 c -4.66691,0.51639 -82.78453,1.00797 -173.59472,1.0924 l -165.1094289,0.15348 0,-81.31728 z"
       id="path6574"
       inkscape:connector-curvature="0"
       transform="translate(-4.5625464,342.28093)" />
    <path
       style="color:#000000;fill:#7fff2a;fill-opacity:1;stroke:#000000;stroke-width:1.41421354000000000;stroke-linecap:butt;stroke-linejoin:miter;stroke-miterlimit:4;stroke-opacity:1;stroke-dasharray:none;stroke-dashoffset:0;marker:none;visibility:visible;display:inline;overflow:visible;enable-background:accumulate"
       d="m 526.0707,341.58627 c -87.11555,-0.50082 -159.66471,-1.27997 -161.22034,-1.73144 -1.55564,-0.45147 -6.8059,-1.58911 -11.66726,-2.52809 -4.86136,-0.93898 -8.83884,-2.18441 -8.83884,-2.76763 0,-0.58322 3.02288,-1.50845 6.71752,-2.05607 23.9128,-3.54435 55.16044,-14.15231 142.09136,-48.23722 66.8601,-26.2153 101.68364,-39.05044 106.23375,-39.15528 1.67824,-0.0387 4.203,0.43317 5.61059,1.04853 1.92419,0.84121 2.74717,0.40015 3.31663,-1.77749 0.94008,-3.59484 3.01814,-4.43179 30.18657,-12.1578 92.00493,-26.16384 169.3158,-27.03521 246.54305,-2.77877 6.35301,1.99543 32.87019,11.91541 58.92708,22.04441 56.17229,21.83566 80.89759,30.67156 104.22279,37.24527 43.2621,12.19256 81.4959,18.07038 142.7317,21.94266 l 27.0442,1.71017 0.8865,8.48115 c 0.4875,4.66464 0.8865,11.56979 0.8865,15.34477 l 0,6.86362 -267.63996,-0.2901 C 804.90058,342.6274 613.18626,342.08709 526.0707,341.58627 z"
       id="path6576"
       inkscape:connector-curvature="0"
       transform="translate(-4.5625464,342.28093)" />
    <path
       style="color:#000000;fill:#decd87;fill-opacity:1;stroke:#000000;stroke-width:1.41421354;stroke-linecap:butt;stroke-linejoin:miter;stroke-miterlimit:4;stroke-opacity:1;stroke-dasharray:none;stroke-dashoffset:0;marker:none;visibility:visible;display:inline;overflow:visible;enable-background:accumulate"
       d="m 309.69603,325.63573 c -20.29199,-8.7873 -36.57477,-17.20246 -74.24621,-38.37144 -37.11964,-20.85892 -49.72497,-28.53347 -73.85957,-44.9683 l -16.58392,-11.29308 13.87127,-15.02715 c 7.6292,-8.26495 27.04656,-30.14596 43.14968,-48.62449 36.16361,-41.49817 59.48928,-65.67653 83.50909,-86.561835 24.98854,-21.727628 33.35049,-28.239405 33.35994,-25.978691 0.004,1.038439 0.67065,4.274556 1.48068,7.191371 1.03091,3.712101 2.26614,5.303301 4.1169,5.303301 1.45427,0 2.91207,-0.795495 3.23957,-1.767767 0.3275,-0.972272 1.05205,0.652165 1.61008,3.609861 0.93073,4.932873 4.06802,8.147803 6.03326,6.182557 0.44552,-0.445528 1.23432,-2.88445 1.75285,-5.419825 l 0.9428,-4.609773 3.90262,6.659327 c 3.82481,6.526528 8.02605,8.845155 8.02605,4.429503 0,-1.484032 1.22455,-0.774527 3.66124,2.12132 3.98149,4.731732 7.26968,5.580016 8.5632,2.209133 0.64797,-1.688574 2.00655,-1.071815 6.41785,2.913523 6.06376,5.478249 8.67702,5.711918 9.39276,0.839871 0.45059,-3.06713 0.55085,-3.048452 6.28901,1.171432 7.25169,5.332953 11.95699,5.61942 13.16619,0.801582 l 0.8751,-3.486674 4.62213,4.900888 c 5.64236,5.982642 10.65213,6.592824 10.65213,1.297412 l 0,-3.603473 6.26522,4.31058 c 8.66187,5.959531 12.11955,5.777179 12.11955,-0.639167 0,-2.722361 0.39188,-4.949747 0.87086,-4.949747 0.47897,0 3.94718,1.092618 7.70715,2.42804 7.39176,2.625319 9.95426,1.892737 6.82631,-1.951542 -1.7618,-2.165262 -1.67127,-2.301797 0.85914,-1.295793 10.13096,4.027728 19.45296,6.640202 21.24297,5.95331 1.15035,-0.441433 2.09155,-2.481656 2.09155,-4.533829 0,-2.663467 0.58174,-3.507989 2.03286,-2.95114 5.66326,2.173193 13.75404,3.789609 15.02786,3.00234 0.79151,-0.48918 1.05193,-2.109282 0.57874,-3.600228 -0.76714,-2.41701 -0.45685,-2.557385 2.86296,-1.295198 6.29097,2.391823 9.19607,1.796788 9.19607,-1.883579 0,-6.450327 5.34734,-3.198652 17.2014,10.460044 28.22154,32.517876 39.28939,51.181686 64.17046,108.211196 6.75973,15.49384 13.88579,30.90406 15.83567,34.24492 1.94989,3.34086 3.28688,6.33267 2.97107,6.64848 -0.31581,0.31581 -9.14357,3.54358 -19.61725,7.17284 -22.68997,7.86233 -56.4423,21.01309 -113.08827,44.06205 -62.25048,25.32942 -84.15515,32.75701 -113.13708,38.36336 -27.75862,5.36971 -29.87058,5.29272 -45.96194,-1.67552 l 0,0 z"
       id="path6578"
       inkscape:connector-curvature="0"
       transform="translate(-4.5625464,342.28093)" />
  </g>
  <g
     inkscape:groupmode="layer"
     id="layer2"
     inkscape:label="premier plan"
     transform="translate(4.5625464,-342.28093)" />
</svg>
