<?xml version="1.0" encoding="UTF-8" standalone="no"?>
<!-- Created with Inkscape (http://www.inkscape.org/) -->

<svg
   xmlns:dc="http://purl.org/dc/elements/1.1/"
   xmlns:cc="http://creativecommons.org/ns#"
   xmlns:rdf="http://www.w3.org/1999/02/22-rdf-syntax-ns#"
   xmlns:svg="http://www.w3.org/2000/svg"
   xmlns="http://www.w3.org/2000/svg"
   xmlns:sodipodi="http://sodipodi.sourceforge.net/DTD/sodipodi-0.dtd"
   xmlns:inkscape="http://www.inkscape.org/namespaces/inkscape"
   preserveAspectRatio="xMinYMin meet"
   viewBox="0 0 700 626.87219"
   width="100%"
   height="100%"
   id="svg3046"
   version="1.1"
   inkscape:version="0.48.4 r9939"
   sodipodi:docname="sac.svg">
  <defs
     id="defs3048" />
  <sodipodi:namedview
     id="base"
     pagecolor="#ffffff"
     bordercolor="#666666"
     borderopacity="1.0"
     inkscape:pageopacity="0.0"
     inkscape:pageshadow="2"
     inkscape:zoom="1.0672032"
     inkscape:cx="350"
     inkscape:cy="313.4361"
     inkscape:document-units="px"
     inkscape:current-layer="layer1"
     showgrid="false"
     inkscape:window-width="1600"
     inkscape:window-height="838"
     inkscape:window-x="-8"
     inkscape:window-y="-8"
     inkscape:window-maximized="1"
     inkscape:snap-grids="false"
     fit-margin-top="0"
     fit-margin-left="0"
     fit-margin-right="0"
     fit-margin-bottom="0" />
  <metadata
     id="metadata3051">
    <rdf:RDF>
      <cc:Work
         rdf:about="">
        <dc:format>image/svg+xml</dc:format>
        <dc:type
           rdf:resource="http://purl.org/dc/dcmitype/StillImage" />
      </cc:Work>
    </rdf:RDF>
  </metadata>
  <g
     inkscape:label="Calque 1"
     inkscape:groupmode="layer"
     id="layer1"
     style="display:inline"
     transform="translate(-20.385711,-274.05894)">
    <path
       style="fill:none;stroke:#000000;stroke-width:1.79842913px;stroke-linecap:butt;stroke-linejoin:miter;stroke-opacity:1"
       d="m 329.18628,277.43709 c -47.62234,-10.68075 -156.27589,15.00324 -144.35062,41.6706 14.69579,35.60989 33.48138,77.15324 32.8249,110.20441 -1.38136,20.70297 -11.94691,39.81214 -29.04613,27.89521"
       id="path2995"
       inkscape:connector-curvature="0"
       sodipodi:nodetypes="cccc" />
    <path
       style="fill:none;stroke:#000000;stroke-width:1.79842913px;stroke-linecap:butt;stroke-linejoin:miter;stroke-opacity:1"
       d="m 210.44623,383.94975 c -64.62168,24.7034 -74.32276,108.84692 -39.46196,144.37267 20.70717,17.7559 35.89497,32.15774 71.2781,48.81875 20.5532,10.45152 29.65142,9.67136 49.66111,1.93247"
       id="path2997"
       inkscape:connector-curvature="0"
       sodipodi:nodetypes="cccc" />
    <path
       style="fill:none;stroke:#000000;stroke-width:1.79842913px;stroke-linecap:butt;stroke-linejoin:miter;stroke-opacity:1"
       d="m 236.04818,480.2317 c 17.37218,9.29044 40.0824,28.19475 38.67503,50.0616 2.35832,29.9471 3.57996,46.99315 39.11878,60.26415 39.16053,10.73334 78.1207,21.13269 111.74016,22.63093 58.47787,2.17071 89.71428,-0.85393 125.88452,-7.07216 45.38667,-8.65915 160.8185,-18.15233 98.30307,-106.78967 -11.85132,-19.91398 -15.19721,-46.56894 -9.08593,-61.62469"
       id="path2999"
       inkscape:connector-curvature="0"
       sodipodi:nodetypes="ccccccc" />
    <path
       style="fill:none;stroke:#000000;stroke-width:1.79842913px;stroke-linecap:butt;stroke-linejoin:miter;stroke-opacity:1"
       d="m 462.35741,433.55541 c -48.30355,-4.87328 -152.11865,-22.11017 -207.64948,-72.72195 -35.79755,-33.71391 -42.98973,-60.85803 13.8722,-74.37905 293.55114,-62.92619 506.43466,173.21227 193.77728,147.101 z"
       id="path3001"
       inkscape:connector-curvature="0"
       sodipodi:nodetypes="cccc" />
    <path
       style="fill:none;stroke:#000000;stroke-width:1.79842913px;stroke-linecap:butt;stroke-linejoin:miter;stroke-opacity:1"
       d="M 163.91211,519.83581 C 148.36124,568.87185 86.17744,603.918 46.514199,645.72033 8.5707464,694.525 3.2573634,750.2322 103.0915,828.18214 c 82.85486,46.51688 106.68525,31.25324 149.92988,26.87425"
       id="path3003"
       inkscape:connector-curvature="0"
       sodipodi:nodetypes="cccc" />
    <path
       style="fill:none;stroke:#000000;stroke-width:1.79842913px;stroke-linecap:butt;stroke-linejoin:miter;stroke-opacity:1"
       d="m 204.93067,791.40689 c 27.13809,40.42306 52.1685,82.77814 110.32575,94.767 63.29586,11.25799 158.30374,19.89386 190.94841,8.48661 73.87329,-22.2739 111.67892,-41.54731 152.51606,-70.82218 58.11607,-38.56169 70.90019,-88.28177 53.68172,-122.5131 -20.74502,-41.49003 -75.61344,-65.91835 -62.23505,-124.47007"
       id="path3005"
       inkscape:connector-curvature="0"
       sodipodi:nodetypes="cccccc" />
    <path
       style="fill:none;stroke:#000000;stroke-width:1.79842913px;stroke-linecap:butt;stroke-linejoin:miter;stroke-opacity:1"
       d="m 526.8909,305.90287 c 32.61173,4.5624 96.46013,38.24361 109.44174,44.201 36.25909,16.12037 31.56129,54.24688 16.26598,74.61134 -40.59792,35.2808 -35.50263,88.03071 -29.70309,88.75566 l 1.41443,0"
       id="path3027"
       inkscape:connector-curvature="0"
       sodipodi:nodetypes="ccccc" />
    <path
       style="color:#000000;fill:none;stroke:#000000;stroke-width:0.32107142;stroke-linecap:butt;stroke-linejoin:miter;stroke-miterlimit:4;stroke-opacity:1;stroke-dasharray:none;stroke-dashoffset:0;marker:none;visibility:visible;display:inline;overflow:visible;enable-background:accumulate"
       d="m 545.24184,313.08181 c -2.20982,-1.11556 -4.95729,-2.4553 -6.10549,-2.9772 -1.1482,-0.5219 -2.06111,-0.97545 -2.02868,-1.00787 0.13636,-0.13637 11.38528,3.16992 12.11664,3.56133 0.32715,0.17508 0.32626,0.1915 -0.0308,0.57158 -0.40322,0.42921 -0.3577,1.03599 0.11906,1.58708 0.14869,0.17187 0.19763,0.30819 0.10875,0.30293 -0.0889,-0.005 -1.96964,-0.92229 -4.17947,-2.03785 z"
       id="path4540"
       inkscape:connector-curvature="0" />
    <path
       style="color:#000000;fill:none;stroke:#000000;stroke-width:0.32107142;stroke-linecap:butt;stroke-linejoin:miter;stroke-miterlimit:4;stroke-opacity:1;stroke-dasharray:none;stroke-dashoffset:0;marker:none;visibility:visible;display:inline;overflow:visible;enable-background:accumulate"
       d=""
       id="path4542"
       inkscape:connector-curvature="0" />
    <path
       style="color:#000000;fill:none;stroke:#000000;stroke-width:0.05675795;stroke-linecap:butt;stroke-linejoin:miter;stroke-miterlimit:4;stroke-opacity:1;stroke-dasharray:none;stroke-dashoffset:0;marker:none;visibility:visible;display:inline;overflow:visible;enable-background:accumulate"
       d="m 501.58212,434.62845 c -2.61778,-0.0357 -7.2998,-0.15012 -10.16466,-0.24841 -1.55264,-0.0533 -5.26592,-0.19957 -5.46114,-0.21517 -0.32056,-0.0256 1.19819,-0.0166 4.37207,0.0259 11.01214,0.14752 24.03423,0.19967 29.19972,0.11694 2.65527,-0.0425 5.9793,-0.1185 7.18155,-0.16414 1.14275,-0.0434 1.52447,-0.0329 0.66291,0.0182 -1.57039,0.0932 -5.40754,0.25239 -7.93916,0.32943 -3.76169,0.11447 -5.15353,0.13194 -11.0959,0.13924 -3.3335,0.004 -6.37343,0.003 -6.75539,-0.002 l 0,0 z"
       id="path4546"
       inkscape:connector-curvature="0" />
    <path
       style="color:#000000;fill:#502d16;fill-opacity:1;stroke:#000000;stroke-width:5;stroke-linecap:butt;stroke-linejoin:miter;stroke-miterlimit:4;stroke-opacity:1;stroke-dasharray:none;stroke-dashoffset:0;marker:none;visibility:visible;display:inline;overflow:visible;enable-background:accumulate"
       d="m 454.42547,159.07592 c -8.91953,-0.44542 -28.40321,-2.71591 -43.78208,-5.10206 C 344.70503,143.74304 289.05653,124.58333 253.26455,99.78853 232.4337,85.358011 214.08108,65.186674 209.55298,51.745231 c -6.8193,-20.242785 9.51703,-32.856428 52.78353,-40.75535 15.39102,-2.8098519 33.77047,-5.1555952 50.48745,-6.443645 14.2095,-1.0948475 53.85009,-1.581824 62.39917,-0.7665612 2.34301,0.2234372 8.69741,0.7854316 14.12087,1.2488765 92.66882,7.9187327 180.11891,48.5863547 201.31868,93.6208557 7.03465,14.943643 4.90007,27.644283 -6.44483,38.346483 -11.77725,11.11007 -31.71957,17.95923 -62.3443,21.41208 -9.73446,1.09753 -50.71813,1.50339 -67.44808,0.66795 z"
       id="path5514"
       inkscape:connector-curvature="0"
       transform="translate(20.385711,274.05894)" />
    <path
       style="color:#000000;fill:#c1b47e;fill-opacity:1;stroke:#000000;stroke-width:5;stroke-linecap:butt;stroke-linejoin:miter;stroke-miterlimit:4;stroke-opacity:1;stroke-dasharray:none;stroke-dashoffset:0;marker:none;visibility:visible;display:inline;overflow:visible;enable-background:accumulate"
       d="m 389.80194,336.10764 c -25.27795,-2.73961 -89.98463,-18.54204 -104.98804,-25.63981 -11.27442,-5.33365 -21.9964,-17.04935 -24.6799,-26.96725 -1.09042,-4.03008 -2.70195,-14.56161 -3.58116,-23.40343 -1.78841,-17.98505 -5.30072,-26.51215 -15.2503,-37.02426 -5.5707,-5.88566 -22.61727,-18.28089 -25.14083,-18.28089 -3.31007,0 0.39579,4.14456 8.53866,9.54949 10.53595,6.99338 19.8088,16.99686 24.06018,25.95598 1.54065,3.24668 3.53296,13.03391 4.42736,21.7494 2.05126,19.98848 5.51988,32.07493 10.85803,37.83489 l 4.17889,4.50909 -6.13642,2.0252 c -15.909,5.25044 -31.25954,0.8183 -63.22074,-18.25363 -19.02078,-11.3501 -47.33624,-34.47468 -53.36098,-43.57869 -20.33436,-30.72729 -15.57582,-78.37834 10.84295,-108.57897 7.68776,-8.78826 26.19686,-22.37426 30.48192,-22.37426 2.32061,0 5.9294,14.43857 7.7383,30.96051 1.41532,12.92702 -1.43396,26.76461 -7.16967,34.81968 -3.43488,4.82384 -4.2112,5.09346 -12.00711,4.17016 -8.28505,-0.98124 -11.46672,1.06499 -4.89775,3.14991 12.36005,3.92292 20.39476,-0.95698 25.18532,-15.29636 6.49992,-19.4559 1.61117,-48.33021 -15.63431,-92.340704 -5.34573,-13.642293 -10.98073,-28.01775 -12.52223,-31.945464 -2.60135,-6.628177 -2.59611,-7.456647 0.073,-11.530211 9.1595,-13.979156 57.8302,-29.571458 97.50279,-31.2363072 L 284.88022,3.5516381 266.95589,6.9120009 C 233.03739,13.270871 215.96121,20.3226 208.81983,30.919695 c -8.19386,12.158861 -2.84113,28.223625 16.10455,48.333476 19.02836,20.197616 39.69596,33.802409 71.70745,47.202639 62.61212,26.20985 155.1418,41.23625 218.35,35.45905 43.92043,-4.01432 67.55942,-13.5866 78.88668,-31.94409 4.97174,-8.05743 4.32797,-23.70679 -1.45433,-35.352868 -5.96117,-12.006358 -25.41488,-31.299198 -42.42639,-42.075577 -7.20878,-4.566579 -12.81748,-8.592258 -12.46377,-8.945955 1.05269,-1.052693 28.92881,10.937581 58.52162,25.171738 22.33969,10.745402 29.06961,14.834108 34.88198,21.192253 15.95335,17.451359 13.87187,43.892089 -5.0748,64.464439 -14.39812,15.63352 -23.04738,31.73016 -26.87846,50.02185 -3.54272,16.91505 -1.72386,36.46594 3.39252,36.46594 1.19606,0 1.45188,-1.16059 0.66347,-3.01005 -4.83428,-11.3403 -1.50742,-36.35161 7.29532,-54.84628 l 4.79997,-10.08478 1.05224,12.93211 c 1.46978,18.06371 5.22612,29.4732 15.27917,46.40886 18.10677,30.50315 18.2055,49.62273 0.33944,65.73081 -16.76128,15.11201 -39.57231,21.97818 -113.85245,34.26979 -17.52502,2.89997 -30.72311,3.64863 -71.38117,4.04903 -27.43445,0.27017 -52.97687,0.15567 -56.76093,-0.25444 l 0,0 z"
       id="path6024"
       inkscape:connector-curvature="0"
       transform="translate(20.385711,274.05894)" />
    <path
       style="color:#000000;fill:#e9ddaf;fill-opacity:1;stroke:#000000;stroke-width:5;stroke-linecap:butt;stroke-linejoin:miter;stroke-miterlimit:4;stroke-opacity:1;stroke-dasharray:none;stroke-dashoffset:0;marker:none;visibility:visible;display:inline;overflow:visible;enable-background:accumulate"
       d="m 414.58013,624.25393 c -37.90362,-1.50542 -106.96618,-9.95424 -128.06784,-15.66726 -35.26017,-9.54626 -59.52327,-30.41585 -92.4203,-79.49412 -7.5459,-11.25754 -10.25527,-14.26247 -10.25527,-11.374 0,1.37012 16.89508,26.29375 25.97281,38.3151 3.90386,5.16976 10.15659,12.61369 13.89495,16.54207 6.22437,6.54075 6.64235,7.17493 4.96124,7.52744 -1.00968,0.21173 -8.75808,1.37908 -17.21867,2.59412 -20.73454,2.97773 -42.49211,3.12324 -55.22065,0.36932 C 138.61942,579.25718 117.31964,570.9353 95.089259,559.18012 81.441311,551.96324 70.496279,543.37787 51.372358,524.88819 25.998962,500.3563 10.641445,477.03332 4.6646126,453.95463 2.1920537,444.40719 2.0096465,426.28103 4.2954713,417.27234 8.3599675,401.25371 18.570184,382.13639 29.374924,370.31428 c 4.812224,-5.26534 25.159905,-23.46181 47.604527,-42.57166 28.191299,-24.00269 41.969239,-37.79104 52.702289,-52.74213 5.57668,-7.76829 10.20561,-15.93144 12.41007,-21.88524 l 1.63347,-4.41165 6.8422,6.80505 c 11.9732,11.90814 34.51579,29.09692 49.441,37.69888 8.11891,4.67922 26.08195,13.55909 31.75018,15.69542 10.99995,4.14581 19.86997,4.10551 33.34581,-0.1515 l 6.3965,-2.02065 3.72228,2.38858 c 10.17249,6.52767 22.82377,10.61554 62.44241,20.17631 19.65425,4.74297 33.66664,7.45611 49.69859,9.62286 9.15327,1.23708 16.24739,1.43583 50.48744,1.41443 49.91024,-0.0312 62.35299,-1.21521 116.75222,-11.10985 33.04619,-6.01074 47.8037,-10.20595 63.68816,-18.10503 l 9.65081,-4.79919 -0.57885,3.21432 c -1.02492,5.69134 -0.48002,21.01008 0.94211,26.48588 2.88467,11.10709 6.17332,18.22011 13.13552,28.41085 4.26714,6.24591 8.32334,11.14329 29.7671,35.94023 14.25457,16.48358 21.28068,28.39924 24.60409,41.72637 1.54055,6.1777 1.71446,8.47818 1.37168,18.14392 -0.48408,13.65013 -2.45155,21.05712 -9.22647,34.7352 -10.79935,21.8031 -26.2415,37.27861 -60.38401,60.51448 -20.93708,14.24885 -41.31519,25.70581 -61.53157,34.59423 -32.65783,14.35847 -78.88694,29.99159 -96.63613,32.67905 -8.24124,1.24783 -39.52368,2.09827 -54.82622,1.49049 l 0,0 z"
       id="path6028"
       inkscape:connector-curvature="0"
       transform="translate(20.385711,274.05894)" />
    <text
       xml:space="preserve"
       style="font-size:178.80206299px;font-style:normal;font-weight:normal;line-height:125%;letter-spacing:0px;word-spacing:0px;fill:#000000;fill-opacity:1;stroke:none;font-family:Sans"
       x="113.88687"
       y="824.29413"
       id="text2995"
       sodipodi:linespacing="125%"
       transform="scale(1.0978155,0.9108999)"><tspan
         sodipodi:role="line"
         id="tspan2997"
         x="113.88687"
         y="824.29413">Jouer</tspan></text>
  </g>
</svg>
