<?xml version="1.0" encoding="UTF-8" standalone="no"?>
<!-- Created with Inkscape (http://www.inkscape.org/) -->

<svg
	preserveAspectRatio="xMinYMin meet"
	viewBox="0 0 700 626.87219"
   xmlns:dc="http://purl.org/dc/elements/1.1/"
   xmlns:cc="http://creativecommons.org/ns#"
   xmlns:rdf="http://www.w3.org/1999/02/22-rdf-syntax-ns#"
   xmlns:svg="http://www.w3.org/2000/svg"
   xmlns="http://www.w3.org/2000/svg"
   xmlns:sodipodi="http://sodipodi.sourceforge.net/DTD/sodipodi-0.dtd"
   xmlns:inkscape="http://www.inkscape.org/namespaces/inkscape"
   width="100%"
   height="100%"
   id="svg3046"
   version="1.1"
   inkscape:version="0.48.4 r9939"
   sodipodi:docname="sac.svg">
  <defs
     id="defs3048" />
  <sodipodi:namedview
     id="base"
     pagecolor="#ffffff"
     bordercolor="#666666"
     borderopacity="1.0"
     inkscape:pageopacity="0.0"
     inkscape:pageshadow="2"
     inkscape:zoom="0.94199219"
     inkscape:cx="467.43915"
     inkscape:cy="381.08853"
     inkscape:document-units="px"
     inkscape:current-layer="layer1"
     showgrid="false"
     inkscape:window-width="1600"
     inkscape:window-height="838"
     inkscape:window-x="-8"
     inkscape:window-y="-8"
     inkscape:window-maximized="1"
     inkscape:snap-grids="false"
     fit-margin-top="0"
     fit-margin-left="0"
     fit-margin-right="0"
     fit-margin-bottom="0" />
  <metadata
     id="metadata3051">
    <rdf:RDF>
      <cc:Work
         rdf:about="">
        <dc:format>image/svg+xml</dc:format>
        <dc:type
           rdf:resource="http://purl.org/dc/dcmitype/StillImage" />
      </cc:Work>
    </rdf:RDF>
  </metadata>
  <g
     inkscape:label="Calque 1"
     inkscape:groupmode="layer"
     id="layer1"
     style="display:inline"
     transform="translate(-20.385711,-274.05894)">
    <path
       style="fill:none;stroke:#000000;stroke-width:1.79842913px;stroke-linecap:butt;stroke-linejoin:miter;stroke-opacity:1"
       d="m 329.18628,277.43709 c -47.62234,-10.68075 -156.27589,15.00324 -144.35062,41.6706 14.69579,35.60989 33.48138,77.15324 32.8249,110.20441 -1.38136,20.70297 -11.94691,39.81214 -29.04613,27.89521"
       id="path2995"
       inkscape:connector-curvature="0"
       sodipodi:nodetypes="cccc" />
    <path
       style="fill:none;stroke:#000000;stroke-width:1.79842913px;stroke-linecap:butt;stroke-linejoin:miter;stroke-opacity:1"
       d="m 210.44623,383.94975 c -64.62168,24.7034 -74.32276,108.84692 -39.46196,144.37267 20.70717,17.7559 35.89497,32.15774 71.2781,48.81875 20.5532,10.45152 29.65142,9.67136 49.66111,1.93247"
       id="path2997"
       inkscape:connector-curvature="0"
       sodipodi:nodetypes="cccc" />
    <path
       style="fill:none;stroke:#000000;stroke-width:1.79842913px;stroke-linecap:butt;stroke-linejoin:miter;stroke-opacity:1"
       d="m 236.04818,480.2317 c 17.37218,9.29044 40.0824,28.19475 38.67503,50.0616 2.35832,29.9471 3.57996,46.99315 39.11878,60.26415 39.16053,10.73334 78.1207,21.13269 111.74016,22.63093 58.47787,2.17071 89.71428,-0.85393 125.88452,-7.07216 45.38667,-8.65915 160.8185,-18.15233 98.30307,-106.78967 -11.85132,-19.91398 -15.19721,-46.56894 -9.08593,-61.62469"
       id="path2999"
       inkscape:connector-curvature="0"
       sodipodi:nodetypes="ccccccc" />
    <path
       style="fill:none;stroke:#000000;stroke-width:1.79842913px;stroke-linecap:butt;stroke-linejoin:miter;stroke-opacity:1"
       d="m 462.35741,433.55541 c -48.30355,-4.87328 -152.11865,-22.11017 -207.64948,-72.72195 -35.79755,-33.71391 -42.98973,-60.85803 13.8722,-74.37905 293.55114,-62.92619 506.43466,173.21227 193.77728,147.101 z"
       id="path3001"
       inkscape:connector-curvature="0"
       sodipodi:nodetypes="cccc" />
    <path
       style="fill:none;stroke:#000000;stroke-width:1.79842913px;stroke-linecap:butt;stroke-linejoin:miter;stroke-opacity:1"
       d="M 163.91211,519.83581 C 148.36124,568.87185 86.17744,603.918 46.514199,645.72033 8.5707464,694.525 3.2573634,750.2322 103.0915,828.18214 c 82.85486,46.51688 106.68525,31.25324 149.92988,26.87425"
       id="path3003"
       inkscape:connector-curvature="0"
       sodipodi:nodetypes="cccc" />
    <path
       style="fill:none;stroke:#000000;stroke-width:1.79842913px;stroke-linecap:butt;stroke-linejoin:miter;stroke-opacity:1"
       d="m 204.93067,791.40689 c 27.13809,40.42306 52.1685,82.77814 110.32575,94.767 63.29586,11.25799 158.30374,19.89386 190.94841,8.48661 73.87329,-22.2739 111.67892,-41.54731 152.51606,-70.82218 58.11607,-38.56169 70.90019,-88.28177 53.68172,-122.5131 -20.74502,-41.49003 -75.61344,-65.91835 -62.23505,-124.47007"
       id="path3005"
       inkscape:connector-curvature="0"
       sodipodi:nodetypes="cccccc" />
    <path
       style="fill:none;stroke:#000000;stroke-width:1.79842913px;stroke-linecap:butt;stroke-linejoin:miter;stroke-opacity:1"
       d="m 526.8909,305.90287 c 32.61173,4.5624 96.46013,38.24361 109.44174,44.201 36.25909,16.12037 31.56129,54.24688 16.26598,74.61134 -40.59792,35.2808 -35.50263,88.03071 -29.70309,88.75566 l 1.41443,0"
       id="path3027"
       inkscape:connector-curvature="0"
       sodipodi:nodetypes="ccccc" />
    <path
       style="color:#000000;fill:none;stroke:#000000;stroke-width:0.32107142;stroke-linecap:butt;stroke-linejoin:miter;stroke-miterlimit:4;stroke-opacity:1;stroke-dasharray:none;stroke-dashoffset:0;marker:none;visibility:visible;display:inline;overflow:visible;enable-background:accumulate"
       d="m 545.24184,313.08181 c -2.20982,-1.11556 -4.95729,-2.4553 -6.10549,-2.9772 -1.1482,-0.5219 -2.06111,-0.97545 -2.02868,-1.00787 0.13636,-0.13637 11.38528,3.16992 12.11664,3.56133 0.32715,0.17508 0.32626,0.1915 -0.0308,0.57158 -0.40322,0.42921 -0.3577,1.03599 0.11906,1.58708 0.14869,0.17187 0.19763,0.30819 0.10875,0.30293 -0.0889,-0.005 -1.96964,-0.92229 -4.17947,-2.03785 z"
       id="path4540"
       inkscape:connector-curvature="0" />
    <path
       style="color:#000000;fill:none;stroke:#000000;stroke-width:0.32107142;stroke-linecap:butt;stroke-linejoin:miter;stroke-miterlimit:4;stroke-opacity:1;stroke-dasharray:none;stroke-dashoffset:0;marker:none;visibility:visible;display:inline;overflow:visible;enable-background:accumulate"
       d=""
       id="path4542"
       inkscape:connector-curvature="0" />
    <path
       style="color:#000000;fill:none;stroke:#000000;stroke-width:0.05675795;stroke-linecap:butt;stroke-linejoin:miter;stroke-miterlimit:4;stroke-opacity:1;stroke-dasharray:none;stroke-dashoffset:0;marker:none;visibility:visible;display:inline;overflow:visible;enable-background:accumulate"
       d="m 501.58212,434.62845 c -2.61778,-0.0357 -7.2998,-0.15012 -10.16466,-0.24841 -1.55264,-0.0533 -5.26592,-0.19957 -5.46114,-0.21517 -0.32056,-0.0256 1.19819,-0.0166 4.37207,0.0259 11.01214,0.14752 24.03423,0.19967 29.19972,0.11694 2.65527,-0.0425 5.9793,-0.1185 7.18155,-0.16414 1.14275,-0.0434 1.52447,-0.0329 0.66291,0.0182 -1.57039,0.0932 -5.40754,0.25239 -7.93916,0.32943 -3.76169,0.11447 -5.15353,0.13194 -11.0959,0.13924 -3.3335,0.004 -6.37343,0.003 -6.75539,-0.002 l 0,0 z"
       id="path4546"
       inkscape:connector-curvature="0" />
  </g>
</svg>
