<?xml version="1.0" encoding="UTF-8" standalone="no"?>
<!-- Created with Inkscape (http://www.inkscape.org/) -->

<svg
   xmlns:dc="http://purl.org/dc/elements/1.1/"
   xmlns:cc="http://creativecommons.org/ns#"
   xmlns:rdf="http://www.w3.org/1999/02/22-rdf-syntax-ns#"
   xmlns:svg="http://www.w3.org/2000/svg"
   xmlns="http://www.w3.org/2000/svg"
   xmlns:sodipodi="http://sodipodi.sourceforge.net/DTD/sodipodi-0.dtd"
   xmlns:inkscape="http://www.inkscape.org/namespaces/inkscape"
   width="210mm"
   height="297mm"
   id="svg3045"
   version="1.1"
   inkscape:version="0.48.4 r9939"
   sodipodi:docname="soleil_1.svg">
  <defs
     id="defs3047" />
  <sodipodi:namedview
     id="base"
     pagecolor="#ffffff"
     bordercolor="#666666"
     borderopacity="1.0"
     inkscape:pageopacity="0.0"
     inkscape:pageshadow="2"
     inkscape:zoom="0.93048982"
     inkscape:cx="193.41508"
     inkscape:cy="470.43761"
     inkscape:document-units="px"
     inkscape:current-layer="layer1"
     showgrid="false"
     inkscape:window-width="1600"
     inkscape:window-height="838"
     inkscape:window-x="-8"
     inkscape:window-y="-8"
     inkscape:window-maximized="1" />
  <metadata
     id="metadata3050">
    <rdf:RDF>
      <cc:Work
         rdf:about="">
        <dc:format>image/svg+xml</dc:format>
        <dc:type
           rdf:resource="http://purl.org/dc/dcmitype/StillImage" />
        <dc:title />
      </cc:Work>
    </rdf:RDF>
  </metadata>
  <g
     inkscape:label="Calque 1"
     inkscape:groupmode="layer"
     id="layer1">
    <path
       style="fill:none;stroke:#000000;stroke-width:3.93258451999999980px;stroke-linecap:butt;stroke-linejoin:miter;stroke-opacity:1"
       d="m 199.13522,622.64985 c 109.99037,64.00567 492.96639,-45.35084 376.61161,-80.86514"
       id="path3016"
       inkscape:connector-curvature="0"
       sodipodi:nodetypes="cc" />
    <path
       style="fill:none;stroke:#000000;stroke-width:3.93258451999999980px;stroke-linecap:butt;stroke-linejoin:miter;stroke-opacity:1"
       d="m 211.11084,600.46484 c -9.64907,12.04913 -15.90018,14.81546 -13.97848,55.91399"
       id="path3018"
       inkscape:connector-curvature="0"
       sodipodi:nodetypes="cc" />
    <path
       style="fill:none;stroke:#000000;stroke-width:3.93258451999999980px;stroke-linecap:butt;stroke-linejoin:miter;stroke-opacity:1"
       d="m 371.44577,674.04278 c 35.28755,8.20121 153.0478,-0.85879 126.88172,-32.25808"
       id="path3020"
       inkscape:connector-curvature="0"
       sodipodi:nodetypes="cc" />
    <path
       style="fill:none;stroke:#000000;stroke-width:3.93258451999999980px;stroke-linecap:butt;stroke-linejoin:miter;stroke-opacity:1"
       d="m 177.89737,526.73093 c 37.32425,-56.84452 75.86231,-110.04755 144.08604,-74.19355"
       id="path3022"
       inkscape:connector-curvature="0"
       sodipodi:nodetypes="cc" />
    <path
       style="fill:none;stroke:#000000;stroke-width:3.93258451999999980px;stroke-linecap:butt;stroke-linejoin:miter;stroke-opacity:1"
       d="m 459.61781,425.65569 c 30.93406,-13.88301 62.15626,-34.10452 90.32256,12.9032"
       id="path3024"
       inkscape:connector-curvature="0"
       sodipodi:nodetypes="cc" />
    <g
       id="g3072"
       style="fill:none">
      <path
         sodipodi:nodetypes="ccccccccccccccccc"
         inkscape:connector-curvature="0"
         id="path3026"
         d="M 53.166188,708.45137 C 87.84486,654.4919 68.742018,610.49195 26.284461,570.81697 63.741974,546.49075 86.164468,510.88824 55.316728,435.33308 139.43403,419.61033 124.01897,369.56611 129.51028,326.73094 c 43.93203,1.33583 88.69908,5.36216 107.52687,-74.19355 47.34953,24.70257 92.77934,23.48874 134.40862,-29.03227 59.41812,64.45263 99.56752,56.11221 133.33332,23.65592 22.90404,71.99263 64.31081,86.42129 112.90323,78.49462 0.9703,66.48623 23.41816,105.17802 73.11832,108.60217 -5.21694,39.50088 -44.60366,55.89948 30.10746,136.55914 -50.2071,33.95995 -49.92663,81.51272 -25.80648,135.48386 -43.13419,19.04598 -87.94076,36.33598 -75.26876,113.97849 -43.55778,-5.88315 -86.42412,-9.08707 -107.52688,72.04301 -70.13146,-34.98899 -106.06624,-8.91246 -136.55915,26.88173 -63.23477,-63.18098 -99.2401,-44.67373 -134.40861,-23.65591 -43.42552,-101.2922 -76.53245,-75.32228 -111.82794,-76.34408 2.13582,-50.7095 -4.93013,-96.8181 -76.344092,-110.7527 z"
         style="fill:none;stroke:#000000;stroke-width:3.93258451999999980px;stroke-linecap:butt;stroke-linejoin:miter;stroke-opacity:1" />
    </g>
    <path
       style="color:#000000;fill:none;stroke:#000000;stroke-width:1.07470274000000000px;stroke-linecap:butt;stroke-linejoin:miter;stroke-miterlimit:4;stroke-opacity:1;stroke-dasharray:none;stroke-dashoffset:0;marker:none;visibility:visible;display:inline;overflow:visible;enable-background:accumulate"
       d="m 367.76247,908.28768 c -26.07888,-24.31528 -54.92761,-37.26591 -77.4092,-34.75016 -12.65725,1.41637 -29.48256,7.50936 -43.45246,15.73551 l -4.22579,2.48836 -7.71881,-15.5832 c -16.33997,-32.98815 -32.6517,-51.71048 -50.81813,-58.32823 -7.30545,-2.66127 -21.95207,-3.45791 -39.67571,-2.158 l -12.09041,0.88673 -0.009,-8.62087 C 132.31713,765.15764 121.69467,739.13794 97.767783,723.21754 88.28877,716.91043 76.851684,711.83783 65.2487,708.79459 c -3.867176,-1.01428 -7.03123,-2.18879 -7.03123,-2.61002 0,-0.42124 1.661721,-4.07698 3.692715,-8.12387 8.136485,-16.2125 11.309806,-28.63633 11.326933,-44.34598 0.02708,-24.8435 -11.262662,-49.32827 -33.442494,-72.52878 l -9.55433,-9.994 7.559334,-5.60397 c 15.013828,-11.13021 27.313151,-28.59699 31.783025,-45.1364 2.336487,-8.64545 3.131208,-27.06576 1.626321,-37.69547 -1.452502,-10.25968 -6.582169,-30.52744 -9.779131,-38.63819 -2.534214,-6.42936 -2.625904,-7.49315 -0.64584,-7.49315 2.772258,0 20.494845,-5.48788 26.987793,-8.35688 15.522704,-6.85895 26.610314,-16.5837 33.066104,-29.00173 6.17078,-11.86979 8.39819,-24.42605 9.98537,-56.28923 l 0.67658,-13.58248 22.19878,-0.50058 c 19.24653,-0.43401 23.19929,-0.82369 29.72171,-2.9301 13.19885,-4.26257 19.80616,-8.2742 29.0367,-17.62965 6.93089,-7.02468 9.71005,-10.88486 14.2007,-19.72448 3.07085,-6.04478 7.0761,-15.79532 8.90056,-21.66786 l 3.3172,-10.67734 7.84467,3.62446 c 14.70663,6.79488 25.31342,9.28504 42.08168,9.87955 12.97197,0.45991 16.38867,0.21517 24.18081,-1.73205 11.24751,-2.81071 23.96699,-8.97976 33.68878,-16.33934 7.52608,-5.6974 24.28031,-22.24102 24.28305,-23.97781 8.1e-4,-0.52278 5.46701,4.34414 12.14708,10.8154 41.08293,39.79867 78.23654,46.13221 113.18268,19.29415 l 7.64832,-5.87378 1.33173,4.47792 c 2.15786,7.25578 11.05001,25.36529 16.56355,33.73284 19.14709,29.05835 45.44881,41.82759 81.45394,39.54513 l 11.47439,-0.72739 0.56569,4.65297 c 0.31112,2.55914 0.8261,8.42606 1.14437,13.03762 0.69786,10.11139 4.15615,27.5947 7.243,36.61681 9.952,29.08715 28.79791,46.71368 55.38396,51.80043 4.52301,0.86539 8.42125,1.77103 8.66275,2.01254 0.24151,0.24151 -2.06885,7.60765 -5.13414,16.36921 -8.00483,22.88033 -8.93314,26.69436 -8.97797,36.88681 -0.095,21.59983 9.86805,40.54342 40.40264,76.82065 l 2.94707,3.50132 -4.16881,2.88899 c -6.08417,4.21633 -18.56731,17.435 -22.90944,24.25931 -15.85613,24.92028 -16.9859,55.79417 -3.41197,93.24089 2.66709,7.35776 4.62378,13.60322 4.34821,13.87879 -0.27558,0.27558 -6.0175,3.03953 -12.75982,6.14211 -20.24623,9.31661 -29.38163,15.22266 -40.08069,25.91222 -5.32449,5.31978 -11.03351,12.20459 -12.68669,15.29957 -7.88411,14.76012 -11.46815,35.09871 -9.51914,54.01876 0.57845,5.61533 0.91966,10.3478 0.75824,10.5166 -0.16142,0.16882 -6.7648,-0.22152 -14.67418,-0.86743 -21.5998,-1.76391 -32.54904,-0.23356 -46.62175,6.51624 -4.72869,2.26806 -11.04939,6.29051 -14.04598,8.93879 -10.55473,9.32786 -20.74035,26.75525 -27.26218,46.64511 -2.46484,7.51711 -3.47569,9.35565 -5.06634,9.21485 -1.09292,-0.0967 -6.17345,-1.91851 -11.29008,-4.04835 -18.45417,-7.68173 -38.08416,-11.09975 -53.56716,-9.32724 -21.4648,2.45732 -37.13898,10.59254 -56.44739,29.29737 -6.6194,6.41248 -12.22329,11.63763 -12.45311,11.61146 -0.2298,-0.0262 -3.54757,-2.96568 -7.3728,-6.53223 l 0,0 z m 78.10194,-231.50571 c 25.06351,-3.08863 40.18337,-7.26798 50.09509,-13.84701 8.27814,-5.49472 10.30648,-11.56754 6.52512,-19.53617 -1.92465,-4.0559 -2.74632,-4.41371 -4.7079,-2.05016 -1.07082,1.29027 -0.98252,2.34167 0.45026,5.36103 1.43837,3.03115 1.53589,4.21643 0.50534,6.14204 -4.41941,8.25775 -22.2065,14.82603 -50.66222,18.70817 -14.53939,1.98357 -57.33115,2.6851 -69.85988,1.14529 -6.84783,-0.84162 -7.25424,-0.77042 -7.25424,1.27095 0,1.29328 0.97196,2.47844 2.41808,2.94845 8.46797,2.75227 49.65673,2.67125 72.49035,-0.14259 z M 199.44625,651.61662 c -0.3883,-2.92722 -0.36097,-9.92441 0.0607,-15.54932 l 0.76676,-10.2271 6.10011,3.07932 c 11.69534,5.90379 30.07912,10.58828 53.65667,13.67262 16.51738,2.16074 65.57926,2.43422 86.20728,0.48053 65.78716,-6.23072 126.04749,-18.63475 180.30198,-37.11348 28.67716,-9.76725 52.02482,-21.04801 62.35444,-30.12743 15.35225,-13.49418 14.73423,-23.63519 -1.95046,-32.00479 -9.1112,-4.57047 -11.31076,-4.921 -12.09366,-1.92722 -0.44589,1.70507 0.39557,2.45678 4.44214,3.96843 6.6347,2.47845 12.69966,6.30649 14.08099,8.88754 2.61163,4.87986 1.39927,7.85239 -6.16629,15.11874 -30.28121,29.08367 -151.57875,62.1428 -252.79084,68.89709 -20.51982,1.36937 -59.23922,0.75725 -74.1545,-1.17231 -20.97296,-2.71323 -42.88267,-8.49258 -54.49205,-14.37394 l -4.51838,-2.28902 2.07112,-4.61969 c 1.13912,-2.54084 3.85561,-6.79741 6.03664,-9.45907 3.75517,-4.5827 3.86666,-4.93619 2.10199,-6.66469 -1.75792,-1.72189 -2.07044,-1.58174 -5.51575,2.47351 -8.92414,10.504 -11.24044,18.84951 -11.24044,40.49873 l 0,13.77376 2.72377,0 c 2.64361,0 2.703,-0.15666 2.01776,-5.32221 l 0,0 z M 187.72271,516.95879 c 36.77828,-55.36992 65.81977,-76.62872 99.46014,-72.80624 9.52457,1.08226 20.77578,4.4158 28.90977,8.56544 4.58382,2.3385 4.78978,2.35278 6.19595,0.42972 1.25012,-1.70964 1.19347,-2.18006 -0.40313,-3.34752 -3.16255,-2.31251 -18.7544,-7.94051 -26.67825,-9.62972 -8.93795,-1.90538 -27.44325,-1.31104 -34.9456,1.12238 -25.89163,8.39804 -48.17948,29.61554 -78.2017,74.44614 -4.89365,7.30743 -6.25026,10.10578 -5.34033,11.0157 2.36002,2.36002 3.752,1.12076 11.00315,-9.7959 l 0,0 z m 363.40491,-78.7486 c 1.3368,-3.48365 -11.86292,-19.29145 -21.00974,-25.16094 -14.99379,-9.62149 -32.17573,-8.02212 -61.678,5.74126 -9.67544,4.51379 -10.4304,5.08393 -9.36584,7.07308 0.63684,1.18995 1.32225,2.16354 1.52315,2.16354 0.20088,0 4.95556,-2.13051 10.56595,-4.73447 19.49402,-9.04779 24.98741,-10.6782 36.28009,-10.76775 8.37427,-0.0664 11.13289,0.3453 15.34515,2.29024 6.18241,2.8546 16.67484,12.61652 21.28859,19.80645 3.3978,5.295 5.90597,6.57159 7.05065,3.58859 l 0,0 z"
       id="path3275"
       inkscape:connector-curvature="0" />
  </g>
</svg>
