<?xml version="1.0" encoding="UTF-8" standalone="no"?>
<!-- Created with Inkscape (http://www.inkscape.org/) -->

<svg
   xmlns:dc="http://purl.org/dc/elements/1.1/"
   xmlns:cc="http://creativecommons.org/ns#"
   xmlns:rdf="http://www.w3.org/1999/02/22-rdf-syntax-ns#"
   xmlns:svg="http://www.w3.org/2000/svg"
   xmlns="http://www.w3.org/2000/svg"
   xmlns:sodipodi="http://sodipodi.sourceforge.net/DTD/sodipodi-0.dtd"
   xmlns:inkscape="http://www.inkscape.org/namespaces/inkscape"
   width="210mm"
   height="297mm"
   id="svg3045"
   version="1.1"
   inkscape:version="0.48.4 r9939"
   sodipodi:docname="soleil_2.svg">
  <defs
     id="defs3047" />
  <sodipodi:namedview
     id="base"
     pagecolor="#ffffff"
     bordercolor="#666666"
     borderopacity="1.0"
     inkscape:pageopacity="0.0"
     inkscape:pageshadow="2"
     inkscape:zoom="0.6357127"
     inkscape:cx="372.04724"
     inkscape:cy="526.18109"
     inkscape:document-units="px"
     inkscape:current-layer="layer1"
     showgrid="false"
     inkscape:window-width="1600"
     inkscape:window-height="838"
     inkscape:window-x="-8"
     inkscape:window-y="-8"
     inkscape:window-maximized="1" />
  <metadata
     id="metadata3050">
    <rdf:RDF>
      <cc:Work
         rdf:about="">
        <dc:format>image/svg+xml</dc:format>
        <dc:type
           rdf:resource="http://purl.org/dc/dcmitype/StillImage" />
        <dc:title />
      </cc:Work>
    </rdf:RDF>
  </metadata>
  <g
     inkscape:label="Calque 1"
     inkscape:groupmode="layer"
     id="layer1">
    <path
       style="fill:none;stroke:#000000;stroke-width:3.93258451999999980px;stroke-linecap:butt;stroke-linejoin:miter;stroke-opacity:1"
       d="m 199.13522,622.64985 c 109.99037,64.00567 492.96639,-45.35084 376.61161,-80.86514"
       id="path3016"
       inkscape:connector-curvature="0"
       sodipodi:nodetypes="cc" />
    <path
       style="fill:none;stroke:#000000;stroke-width:3.93258451999999980px;stroke-linecap:butt;stroke-linejoin:miter;stroke-opacity:1"
       d="m 211.11084,600.46484 c -9.64907,12.04913 -15.90018,14.81546 -13.97848,55.91399"
       id="path3018"
       inkscape:connector-curvature="0"
       sodipodi:nodetypes="cc" />
    <path
       style="fill:none;stroke:#000000;stroke-width:3.93258451999999980px;stroke-linecap:butt;stroke-linejoin:miter;stroke-opacity:1"
       d="m 371.44577,674.04278 c 35.28755,8.20121 153.0478,-0.85879 126.88172,-32.25808"
       id="path3020"
       inkscape:connector-curvature="0"
       sodipodi:nodetypes="cc" />
    <path
       style="fill:none;stroke:#000000;stroke-width:3.93258451999999980px;stroke-linecap:butt;stroke-linejoin:miter;stroke-opacity:1"
       d="m 177.89737,526.73093 c 37.32425,-56.84452 75.86231,-110.04755 144.08604,-74.19355"
       id="path3022"
       inkscape:connector-curvature="0"
       sodipodi:nodetypes="cc" />
    <path
       style="fill:none;stroke:#000000;stroke-width:3.93258451999999980px;stroke-linecap:butt;stroke-linejoin:miter;stroke-opacity:1"
       d="m 459.61781,425.65569 c 30.93406,-13.88301 62.15626,-34.10452 90.32256,12.9032"
       id="path3024"
       inkscape:connector-curvature="0"
       sodipodi:nodetypes="cc" />
    <g
       id="g3072"
       style="fill:none" />
    <path
       sodipodi:nodetypes="ccccccccccccccccc"
       inkscape:connector-curvature="0"
       id="path3026-1"
       d="M 88.268312,767.97111 C 112.01389,708.38602 84.866432,668.83947 35.618597,637.99472 67.746248,606.96821 82.963498,567.7414 38.265914,499.46043 117.8377,467.97621 93.156972,421.79279 90.374055,378.69683 c 43.379765,-7.07134 88.092575,-11.66094 91.394505,-93.3475 51.19306,15.214 95.55658,5.35405 126.39953,-54.14524 70.62459,51.93094 108.4449,36.08289 135.39738,-2.2199 36.22007,66.29962 79.6192,72.56241 125.80636,55.5095 13.63864,65.07955 43.05681,98.7772 92.4972,92.6552 2.41603,39.77058 -33.11804,63.38323 55.61101,128.30539 -42.80479,42.91597 -33.45598,89.54155 0.5192,137.91875 -38.70755,26.92644 -79.39181,52.44827 -52.13774,126.24634 -43.88006,2.53615 -86.57016,7.57038 -91.80486,91.23647 -75.51916,-20.96443 -105.81808,11.48968 -128.92089,52.44455 -74.12847,-49.9544 -105.94093,-24.91704 -136.45291,2.42509 -61.95513,-91.1452 -89.4985,-59.33532 -124.34048,-53.60365 -7.57925,-50.18536 -23.31332,-94.09856 -96.074048,-94.15072 z"
       style="fill:none;stroke:#000000;stroke-width:3.93258451999999980px;stroke-linecap:butt;stroke-linejoin:miter;stroke-opacity:1" />
  </g>
</svg>
