<?xml version="1.0" encoding="UTF-8" standalone="no"?>
<!-- Created with Inkscape (http://www.inkscape.org/) -->

<svg
   xmlns:dc="http://purl.org/dc/elements/1.1/"
   xmlns:cc="http://creativecommons.org/ns#"
   xmlns:rdf="http://www.w3.org/1999/02/22-rdf-syntax-ns#"
   xmlns:svg="http://www.w3.org/2000/svg"
   xmlns="http://www.w3.org/2000/svg"
   xmlns:sodipodi="http://sodipodi.sourceforge.net/DTD/sodipodi-0.dtd"
   xmlns:inkscape="http://www.inkscape.org/namespaces/inkscape"
   preserveAspectRatio="xMinYMin meet"
   viewBox="0 0 700 379.00963"
   width="100%"
   height="100%"
   id="svg3491"
   version="1.1"
   inkscape:version="0.48.4 r9939"
   sodipodi:docname="grand_panneau.svg">
  <defs
     id="defs3493" />
  <sodipodi:namedview
     id="base"
     pagecolor="#ffffff"
     bordercolor="#666666"
     borderopacity="1.0"
     inkscape:pageopacity="0.0"
     inkscape:pageshadow="2"
     inkscape:zoom="1.0417008"
     inkscape:cx="350"
     inkscape:cy="57.900171"
     inkscape:document-units="px"
     inkscape:current-layer="layer1"
     showgrid="false"
     inkscape:window-width="1600"
     inkscape:window-height="838"
     inkscape:window-x="-8"
     inkscape:window-y="-8"
     inkscape:window-maximized="1"
     fit-margin-top="0"
     fit-margin-left="0"
     fit-margin-right="0"
     fit-margin-bottom="0" />
  <metadata
     id="metadata3496">
    <rdf:RDF>
      <cc:Work
         rdf:about="">
        <dc:format>image/svg+xml</dc:format>
        <dc:type
           rdf:resource="http://purl.org/dc/dcmitype/StillImage" />
        <dc:title></dc:title>
      </cc:Work>
    </rdf:RDF>
  </metadata>
  <g
     inkscape:label="Calque 1"
     inkscape:groupmode="layer"
     id="layer1"
     transform="translate(-23.408649,-300.18607)">
    <path
       style="fill:none;stroke:#000000;stroke-width:0.74669182px;stroke-linecap:butt;stroke-linejoin:miter;stroke-opacity:1"
       d="M 696.63381,678.82236 28.401537,664.52861 c -1.760013,-2.30927 -5.334718,-11.24862 3.863839,-9.13429 -2.501172,-8.20523 -17.988319,-20.54477 0.368492,-22.1095 -7.886066,-6.34201 -6.149956,-8.76863 0.579059,-10.21248 -1.209327,-2.65827 -9.83812,-5.53684 -0.263208,-5.94851 l 649.464771,23.06076 c 4.51644,1.4393 10.698,1.42161 13.54932,4.31791 -0.9925,2.17423 -2.07177,4.34178 -0.67008,6.70018 6.18947,3.80953 10.9471,7.36618 1.48897,8.41246 -8.68746,0.79282 -2.64799,2.70131 0.52112,4.39235 5.43457,1.68628 1.07091,3.83913 -0.96779,5.88127 -3.54551,1.05546 -1.67744,3.4643 -0.0747,5.80684 3.60526,2.55074 2.37747,3.00716 0.37245,3.12676 z"
       id="path3455"
       inkscape:connector-curvature="0"
       sodipodi:nodetypes="cccccccccccccc" />
    <path
       style="fill:none;stroke:#000000;stroke-width:0.74669182px;stroke-linecap:butt;stroke-linejoin:miter;stroke-opacity:1"
       d="m 682.48893,640.0357 13.99599,-1.71227 c 5.9315,-2.5031 6.67655,-5.62578 2.38225,-9.45471 7.96444,-7.62793 0.5315,-6.90769 -1.04223,-8.56135 -6.63025,-4.67536 0.0694,-6.26916 1.34001,-7.29577 3.20697,-4.06099 0.21318,-5.19549 -2.23335,-7.22131 L 680.03224,596.03778 35.325072,575.11831 c -1.939614,1.94777 -7.729358,2.86886 -0.372233,7.29576 l -2.903414,0.52112 c -9.733987,1.43604 -1.607292,4.87515 2.084502,7.81689 -4.173761,1.66754 -7.004671,3.82682 -1.786722,8.93358 -8.415575,8.3417 -0.610308,11.87722 0.670022,17.34605 l 0.260566,0.0279"
       id="path3457"
       inkscape:connector-curvature="0"
       sodipodi:nodetypes="cccccccccccccc" />
    <path
       style="fill:none;stroke:#000000;stroke-width:0.74669182px;stroke-linecap:butt;stroke-linejoin:miter;stroke-opacity:1"
       d="m 35.423874,575.0105 c -1.14927,-3.2564 -8.794357,-5.49203 -1.631887,-10.05456 -1.081747,-4.45307 -7.718038,-9.191 0.631701,-13.16041 -5.289789,-3.98306 -14.002943,-8.28376 5.685297,-9.94927 -18.422635,-5.05043 -8.465955,-4.6185 -4.632469,-5.36945 l 656.178354,3.00057 c 4.25465,2.20605 26.45186,2.45981 7.79091,7.15926 3.55396,2.82126 14.09441,4.64444 0.26321,9.94929 -5.32399,2.99024 -3.46271,4.52098 -0.31585,5.79058 12.6503,1.62891 4.68161,6.22458 -0.52642,10.42304 -1.28565,1.82809 -1.65541,3.90598 -0.007,6.53485 4.1089,6.14202 -1.14968,8.57973 -2.05302,9.52814 -3.98831,2.76422 -6.05933,3.73105 -9.1021,5.09896 l -7.94891,1.94774 -0.21057,-0.10528"
       id="path3459"
       inkscape:connector-curvature="0"
       sodipodi:nodetypes="ccccccccccccccc" />
    <path
       style="fill:none;stroke:#000000;stroke-width:0.74669182px;stroke-linecap:butt;stroke-linejoin:miter;stroke-opacity:1"
       d="m 691.47059,539.3721 c 5.73877,-1.12955 16.2896,-0.47684 8.52797,-6.60653 -2.48574,-1.86139 -3.67836,-3.8952 -0.18429,-6.55389 5.67255,-2.49989 6.85814,-5.481 0.89491,-9.31757 -1.84993,-2.09603 -5.4271,-4.47863 0.21057,-7.52776 3.93507,-2.54628 6.91989,-5.1389 0.053,-8.2121 -0.85489,-0.61029 -6.74524,-1.46557 0.21056,-4.57982 17.84549,-5.01583 -1.10749,-5.73539 -7.26456,-7.94889 l -656.283568,1.57924"
       id="path3461"
       inkscape:connector-curvature="0"
       sodipodi:nodetypes="ccccccccc" />
    <path
       style="fill:none;stroke:#000000;stroke-width:0.74669182px;stroke-linecap:butt;stroke-linejoin:miter;stroke-opacity:1"
       d="m 35.687083,536.63473 c 8.636865,-7.47603 2.568695,-6.19906 0.789627,-7.47512 -11.237846,-3.53794 -5.358724,-9.58847 -2.737365,-15.16079 -7.144034,-2.90823 -2.734385,-6.92739 3.895484,-11.16003 -15.916072,-3.82742 -8.278378,-5.0522 -0.526418,-6.26436 -6.629167,-4.44407 -2.353378,-5.25316 0.684343,-6.47493 -11.37402,-6.7551 -3.754329,-8.60349 0.105284,-11.42324 -11.894674,-15.65461 -1.616999,-12.707 0.842261,-16.31892 -8.019747,-4.15455 -13.184039,-7.93895 0.210567,-9.31757 l 656.757354,-0.89491 5.58002,0.0526 c 12.41077,0.53956 5.7122,2.87929 0.21057,5.10625 -2.97273,1.08774 -5.25096,2.64872 1.47397,4.94831 2.31796,1.06348 6.72217,3.67724 -0.21057,8.79116 -7.5539,6.1987 -2.88141,7.20118 -0.21056,9.05437 9.72028,4.93489 -3.26581,5.80847 -8.58061,8.05417 l -2.63202,0.42114"
       id="path3463"
       inkscape:connector-curvature="0"
       sodipodi:nodetypes="ccccccccccccccccc" />
    <path
       style="fill:none;stroke:#000000;stroke-width:0.74669182px;stroke-linecap:butt;stroke-linejoin:miter;stroke-opacity:1"
       d="m 701.28668,452.05816 c 2.50447,-0.58289 -11.09263,-1.64014 5.13686,-2.30785 15.87482,-3.80111 -16.40332,-2.3854 -5.13686,-6.62575 25.63213,-11.23704 3.30373,-6.15138 0.48393,-7.70521 11.89442,-6.3236 9.07462,-8.55375 3.3501,-9.97584 -8.85419,-5.76414 12.81674,-9.07945 -0.96778,-13.9215 6.22584,-4.55857 19.68742,-9.63929 1.45164,-12.43258 -8.55993,-3.90833 14.31192,-7.24112 -3.31285,-9.97583 -3.59965,-1.76806 -4.37203,-2.50803 -6.55125,-3.75956"
       id="path3465"
       inkscape:connector-curvature="0"
       sodipodi:nodetypes="ccccccccc" />
    <path
       style="fill:none;stroke:#000000;stroke-width:0.74669182px;stroke-linecap:butt;stroke-linejoin:miter;stroke-opacity:1"
       d="m 40.113883,453.07442 -6.57728,0.045 c -7.282276,-4.98792 -2.43523,-9.47368 -2.231645,-14.46161 -4.756554,-4.23362 -3.303253,-9.48109 5.062362,-15.85711 -9.634363,-4.09725 -5.10508,-6.363 0.521131,-8.48691 -3.008631,-4.07478 -5.501431,-8.16276 -3.796779,-12.35813 5.004411,-5.28983 -2.324115,-9.34637 -4.466792,-13.9215 -0.683276,-1.10065 0.705019,-1.99415 2.680078,-2.82897 l 12.209233,0.14889 652.821839,0.44668"
       id="path3467"
       inkscape:connector-curvature="0"
       sodipodi:nodetypes="cccccccccc" />
    <path
       style="fill:none;stroke:#000000;stroke-width:0.74669182px;stroke-linecap:butt;stroke-linejoin:miter;stroke-opacity:1"
       d="m 31.449436,385.15835 c 3.657699,-2.08976 7.414478,-4.13705 7.422467,-7.79097 -2.844582,-2.24773 -8.733942,-4.12415 -1.237074,-7.63303 3.137494,-1.45414 8.27227,-2.70855 1.184432,-5.18521 -2.186186,-1.24561 -1.98735,-4.13803 1.447649,-9.26493 2.746273,-3.9075 -0.341417,-7.50794 -2.447835,-11.16003 1.554344,-4.60833 9.080743,-11.47878 2.791702,-13.11612 l -0.372234,-0.44668 c -1.701651,-1.97604 -2.463567,-4.02828 0.744467,-6.4024 3.271548,-5.29025 0.116275,-4.6743 -0.893364,-6.03017 -7.669332,-3.9532 10.0266,-9.18765 1.340043,-10.94364 -6.870402,-3.03545 -1.214838,-4.91108 6.179061,-6.62575 l 664.7333,3.94567 c 6.95199,0.81865 -4.43416,4.38752 1.11667,8.26356 8.19965,2.29138 17.44847,4.47601 -1.78676,9.52916 -1.49831,0.56741 -22.97929,6.39702 0.59564,7.81689 2.2633,0.25196 9.49068,1.74391 -3.35011,5.73239 -6.61905,3.42921 -3.42231,5.69385 0.96779,7.81688 1.25138,4.47628 0.76334,8.0626 -3.72233,9.60361 -8.89467,1.90712 5.73728,6.35884 1.4889,8.6358 -11.62846,5.31606 3.22937,6.34272 -1.71224,12.9537 -1.96343,2.30375 -10.67403,4.33762 -3.72233,6.99798 4.74328,2.33172 -1.23645,3.5347 -3.42456,5.13681"
       id="path3469"
       inkscape:connector-curvature="0"
       sodipodi:nodetypes="ccccccccccccccccccccccc" />
    <path
       style="color:#000000;fill:#d38d5f;fill-opacity:1;stroke:#000000;stroke-width:0.86864156;stroke-linecap:butt;stroke-linejoin:miter;stroke-miterlimit:4;stroke-opacity:1;stroke-dasharray:none;stroke-dashoffset:0;marker:none;visibility:visible;display:inline;overflow:visible;enable-background:accumulate"
       d="m 640.14572,377.1719 c -13.37708,-0.33334 -46.79806,-1.07549 -74.26885,-1.64923 -27.47079,-0.57374 -164.63895,-3.50179 -304.81814,-6.50678 C 18.723985,363.821 6.1303792,363.47417 5.026632,361.96471 c -2.6064262,-3.5645 -0.5860592,-7.22909 3.3047329,-5.9942 2.3313981,0.73996 2.0651001,-0.15957 -2.3309023,-7.87355 -2.1701977,-3.8082 -4.1529132,-7.74915 -4.4060345,-8.75767 -0.5618421,-2.23856 1.6681068,-4.68422 4.2878468,-4.70264 1.0408187,-0.007 2.4742128,-0.38115 3.1853202,-0.83075 1.0756439,-0.68008 0.8201826,-1.3052 -1.5201223,-3.71978 -1.5471752,-1.59628 -2.8130457,-3.19683 -2.8130457,-3.55678 0,-0.35995 1.4167471,-1.2464 3.1483269,-1.9699 l 3.148327,-1.31546 -2.4422004,-2.54911 -2.4422008,-2.5491 7.3288082,-0.005 c 4.030844,-0.003 150.784962,5.07178 326.120252,11.27667 276.97707,9.80187 319.589,11.48307 324.87194,12.81742 l 6.08049,1.53579 0,3.61853 c 0,1.99018 0.19545,3.76499 0.43432,3.94402 0.23888,0.17902 1.93323,1.42974 3.76521,2.77938 1.83198,1.34963 3.00465,2.76511 2.60592,3.14551 -0.39872,0.3804 -2.48086,1.0311 -4.62697,1.44599 -5.16418,0.99835 -5.51793,2.95189 -0.91074,5.02944 1.93039,0.87048 3.50979,1.90252 3.50979,2.29341 0,0.39089 -1.17266,1.5777 -2.60592,2.63736 -3.07854,2.27606 -3.22289,3.50555 -0.8095,6.89485 l 1.79644,2.52285 -4.61952,-0.15202 c -2.54074,-0.0836 -15.5644,-0.42477 -28.94148,-0.75811 z"
       id="path5469"
       inkscape:connector-curvature="0"
       transform="translate(23.408649,300.18607)" />
    <path
       style="color:#000000;fill:#d38d5f;fill-opacity:1;stroke:#000000;stroke-width:0.86864156;stroke-linecap:butt;stroke-linejoin:miter;stroke-miterlimit:4;stroke-opacity:1;stroke-dasharray:none;stroke-dashoffset:0;marker:none;visibility:visible;display:inline;overflow:visible;enable-background:accumulate"
       d="M 332.21229,327.64487 C 161.8934,321.51952 19.805358,316.47505 16.461088,316.43494 l -6.080491,-0.0729 -2.3793735,-4.70773 c -2.484489,-4.9157 -2.4373236,-6.27221 0.3441542,-9.89811 1.5044921,-1.96124 1.5077184,-2.17694 0.069303,-4.63326 -1.500802,-2.56286 -1.4950942,-2.58733 1.097275,-4.7038 2.2289173,-1.81974 2.4061093,-2.24403 1.2247763,-2.93274 -0.7596314,-0.44286 -2.3231861,-1.59462 -3.4745661,-2.55945 -1.7839365,-1.49491 -1.9007939,-1.88331 -0.7904556,-2.62724 0.7166292,-0.48014 2.1593928,-0.87897 3.2061412,-0.88628 2.7552165,-0.0193 3.2040075,-1.42118 0.9584655,-2.99402 -1.9348845,-1.35524 -1.9360834,-1.37097 -0.231693,-3.03985 1.693256,-1.65797 5.470359,-1.55592 323.544946,8.74163 l 321.8317,10.41919 9.49137,5.4228 c 11.67299,6.66926 12.39298,7.60131 8.40488,10.88026 -3.72406,3.06186 -3.31105,5.96652 1.1933,8.39227 3.5698,1.92246 3.72229,2.60881 1.18066,5.31424 -1.76223,1.87581 -1.78947,2.10153 -0.43432,3.59895 5.11753,5.65482 -3.90453,8.90908 -24.1791,8.72143 -5.25528,-0.0486 -148.90688,-5.10009 -319.22577,-11.22544 l 0,0 z"
       id="path5471"
       inkscape:connector-curvature="0"
       transform="translate(23.408649,300.18607)" />
    <path
       style="color:#000000;fill:#d38d5f;fill-opacity:1;stroke:#000000;stroke-width:0.86864156;stroke-linecap:butt;stroke-linejoin:miter;stroke-miterlimit:4;stroke-opacity:1;stroke-dasharray:none;stroke-dashoffset:0;marker:none;visibility:visible;display:inline;overflow:visible;enable-background:accumulate"
       d="M 322.44874,284.34577 C 152.01517,278.73915 12.467909,273.98515 12.343705,273.78133 c -0.124203,-0.20383 -1.169614,-1.44145 -2.323134,-2.75027 -2.0546241,-2.33123 -2.0643417,-2.41609 -0.4774686,-4.16956 1.4326926,-1.58311 1.4892076,-2.11104 0.4891656,-4.56947 -2.1407295,-5.26261 -2.1450944,-6.66824 -0.02771,-8.9221 1.977879,-2.10536 1.98391,-2.16734 0.326904,-3.35961 -5.2521662,-3.7791 -5.3030493,-3.853 -3.5754097,-5.19249 0.8730202,-0.67688 3.5115187,-1.49534 5.8633307,-1.8188 2.351811,-0.32346 4.276021,-0.9109 4.276021,-1.30542 0,-0.39453 -2.052166,-1.43279 -4.560368,-2.30725 l -4.5603685,-1.58994 16.0698685,-0.27439 c 8.838428,-0.15092 156.985254,0.34559 329.215144,1.10334 287.22091,1.26368 313.77452,1.49957 320.74589,2.84927 4.18034,0.80935 7.60061,1.7168 7.60061,2.01657 0,0.29977 -1.63173,1.03391 -3.62607,1.63143 l -3.62608,1.0864 4.09671,2.54986 c 2.25319,1.40242 3.87288,2.91202 3.59931,3.35466 -0.27356,0.44263 -2.41706,1.84961 -4.76333,3.12661 -2.34627,1.277 -4.50803,2.95269 -4.80391,3.72377 -0.62717,1.63437 2.41624,4.45741 4.80536,4.45741 2.43306,0 4.31801,0.94286 4.31801,2.1599 0,0.60796 -1.79524,2.57645 -3.98942,4.37442 -4.33602,3.55304 -4.62248,5.17771 -2.02073,11.46036 1.06928,2.58207 0.99767,2.96285 -0.94629,5.0321 -1.15671,1.23126 -4.64735,3.4922 -7.75699,5.02432 -5.62252,2.77022 -5.73349,2.78645 -20.00935,2.92642 -7.89551,0.0774 -153.80111,-4.44649 -324.23467,-10.0531 l 0,0 z"
       id="path5473"
       inkscape:connector-curvature="0"
       transform="translate(23.408649,300.18607)" />
    <path
       style="color:#000000;fill:#d38d5f;fill-opacity:1;stroke:#000000;stroke-width:0.86864156;stroke-linecap:butt;stroke-linejoin:miter;stroke-miterlimit:4;stroke-opacity:1;stroke-dasharray:none;stroke-dashoffset:0;marker:none;visibility:visible;display:inline;overflow:visible;enable-background:accumulate"
       d="M 310.93057,236.88908 C 197.22539,236.29487 84.13874,235.76733 59.626896,235.71676 l -44.566989,-0.0919 1.569232,-2.72967 c 1.046484,-1.82035 1.24579,-2.84449 0.598296,-3.07434 -3.187063,-1.13139 -8.6041391,-4.40085 -9.3564261,-5.64705 -0.6554712,-1.08582 -0.3432062,-2.61282 1.2143567,-5.93828 l 2.0967234,-4.47659 -2.0493212,-1.54581 c -2.035613,-1.53546 -2.0382938,-1.56062 -0.4007461,-3.76062 0.9067165,-1.21815 2.7235193,-2.85625 4.0373393,-3.64021 1.313821,-0.78396 2.388765,-1.74338 2.388765,-2.13203 0,-0.38865 -1.758999,-1.19913 -3.908887,-1.80106 -2.1498881,-0.60193 -3.9088873,-1.38892 -3.9088873,-1.74887 0,-0.78108 3.1344503,-1.69728 5.8633303,-1.71384 2.537606,-0.0154 2.465822,-0.66254 -0.316233,-2.85091 l -2.270676,-1.78611 2.053516,-1.06252 c 1.601706,-0.82874 74.201334,-1.20334 329.971481,-1.70258 311.23225,-0.6075 328.26777,-0.56225 334.79265,0.8894 6.17449,1.3737 6.70995,1.64994 5.25721,2.71221 -0.88961,0.6505 -1.97231,1.18273 -2.40598,1.18273 -1.80026,0 -6.69723,2.88988 -6.69723,3.95228 0,0.63162 1.56355,2.02717 3.47457,3.10122 1.91101,1.07405 3.47456,2.44055 3.47456,3.03668 0,0.59612 -1.27039,1.97114 -2.82308,3.0556 -5.24212,3.66128 -5.32433,4.87833 -0.65148,9.64534 1.91101,1.94952 3.47456,3.82133 3.47456,4.15957 0,0.33823 -1.56355,1.64969 -3.47456,2.91433 -4.16088,2.75354 -4.4668,5.05287 -1.13496,8.53056 1.86481,1.94645 2.12047,2.66121 1.25981,3.5221 -1.48848,1.48889 -105.05764,1.53774 -366.25727,0.17273 z"
       id="path5475"
       inkscape:connector-curvature="0"
       transform="translate(23.408649,300.18607)" />
    <path
       style="color:#000000;fill:#d38d5f;fill-opacity:1;stroke:#000000;stroke-width:0.86864156;stroke-linecap:butt;stroke-linejoin:miter;stroke-miterlimit:4;stroke-opacity:1;stroke-dasharray:none;stroke-dashoffset:0;marker:none;visibility:visible;display:inline;overflow:visible;enable-background:accumulate"
       d="m 13.420843,188.20579 c -4.5901843,-3.12636 -4.7417321,-4.00915 -1.201062,-6.99643 l 3.237257,-2.73129 -2.755381,-4.29389 c -3.6346271,-5.66408 -3.5741094,-7.68837 0.284865,-9.52858 3.707633,-1.76805 3.861336,-3.18308 0.497118,-4.57658 -1.398719,-0.57937 -3.190148,-1.76835 -3.9809528,-2.64218 -3.60157,-3.97969 -17.7093644,-3.80581 338.3451528,-4.17019 184.65148,-0.18898 335.406,-0.0115 335.01005,0.39433 -0.39594,0.40586 -2.35038,1.52149 -4.3432,2.47917 -4.81953,2.31612 -5.01549,4.08571 -0.66946,6.0455 4.97462,2.24324 5.05714,3.53112 0.53596,8.36462 -2.15827,2.30737 -3.92413,4.76354 -3.92413,5.45817 0,1.25695 4.1922,5.27595 6.20219,5.94594 2.25425,0.75142 -0.39081,2.30147 -6.84461,4.01107 -6.722,1.78065 -7.58464,1.78707 -305.55372,2.27437 -164.34699,0.26877 -310.930247,0.70386 -325.740586,0.96686 -24.418246,0.43362 -27.130278,0.34034 -29.099491,-1.00089 z"
       id="path5477"
       inkscape:connector-curvature="0"
       transform="translate(23.408649,300.18607)" />
    <path
       style="color:#000000;fill:#d38d5f;fill-opacity:1;stroke:#000000;stroke-width:0.86864156;stroke-linecap:butt;stroke-linejoin:miter;stroke-miterlimit:4;stroke-opacity:1;stroke-dasharray:none;stroke-dashoffset:0;marker:none;visibility:visible;display:inline;overflow:visible;enable-background:accumulate"
       d="m 8.8604744,150.77363 c -1.6771792,-1.89268 -1.9399948,-5.33796 -0.7292355,-9.55963 0.577181,-2.01251 0.4672876,-3.18454 -0.406695,-4.33747 -2.2828679,-3.01148 -1.4967647,-6.17098 2.6341861,-10.5873 l 3.887021,-4.15554 -3.018379,-1.43937 c -3.752601,-1.78949 -3.7940808,-2.76564 -0.195294,-4.59588 1.552697,-0.78965 2.93074,-1.52625 3.062316,-1.63688 0.131577,-0.11064 -0.807739,-2.21914 -2.087369,-4.68557 -2.2088153,-4.2574 -2.265214,-4.67038 -1.114041,-8.15764 1.490941,-4.516521 1.332813,-5.35294 -1.8708158,-9.895711 -1.4027519,-1.989113 -2.550458,-4.042284 -2.550458,-4.562602 0,-0.681021 93.3789408,-0.884574 333.3411898,-0.726639 l 333.3412,0.219395 4.34321,1.90491 c 2.38876,1.0477 5.09835,2.137655 6.0213,2.422122 1.50041,0.462446 1.38452,0.720632 -1.09443,2.438298 -1.73441,1.201773 -2.68798,2.53836 -2.54673,3.569656 0.25993,1.897901 1.39249,2.583995 6.52343,3.951821 2.03045,0.54129 3.69173,1.45937 3.69173,2.04018 0,0.58082 -2.33455,2.61729 -5.18789,4.5255 -2.85334,1.90821 -5.19868,3.6999 -5.21185,3.98153 -0.0132,0.28163 0.95326,0.9573 2.14764,1.5015 2.84113,1.2945 2.7392,2.40539 -0.49816,5.42954 -3.55561,3.32144 -3.17747,5.94584 1.14965,7.97874 1.79157,0.84169 3.2574,1.87741 3.2574,2.3016 0,0.42419 -1.9693,2.03496 -4.37623,3.57948 -2.40693,1.54452 -4.13555,3.04891 -3.84137,3.34309 0.29417,0.29417 2.75209,0.75719 5.46204,1.02893 l 4.92717,0.49406 -6.80116,3.21213 c -4.0748,1.92449 -6.65815,3.64355 -6.44441,4.28834 0.19621,0.59191 2.1517,1.46709 4.34553,1.94484 4.87012,1.06057 6.22007,2.1716 2.63858,2.1716 -4.03308,0 -8.09885,0.9897 -7.57144,1.84305 0.2702,0.43719 -80.70264,0.76288 -189.6681,0.76288 -104.57678,0 -254.01704,0.25256 -332.0895,0.56124 -140.615175,0.55597 -141.964206,0.54512 -143.4700356,-1.1542 z"
       id="path5479"
       inkscape:connector-curvature="0"
       transform="translate(23.408649,300.18607)" />
    <path
       style="color:#000000;fill:#552200;fill-opacity:1;stroke:#000000;stroke-width:0.86864156;stroke-linecap:butt;stroke-linejoin:miter;stroke-miterlimit:4;stroke-opacity:1;stroke-dasharray:none;stroke-dashoffset:0;marker:none;visibility:visible;display:inline;overflow:visible;enable-background:accumulate"
       d="M 342.35352,84.698352 10.684304,84.478934 13.355535,82.231242 c 3.240067,-2.726337 3.401384,-5.17778 0.491352,-7.466812 -2.59633,-2.042273 -2.271579,-2.779182 2.238816,-5.080214 3.922517,-2.001119 4.368666,-3.916154 1.244027,-5.339835 -2.625353,-1.196191 -2.736025,-3.148009 -0.434321,-7.659721 2.165733,-4.245189 2.185992,-6.636956 0.08539,-10.081775 l -1.645395,-2.698322 2.502471,-4.250811 c 2.775232,-4.714134 3.222135,-7.949429 1.205004,-8.723475 -2.666981,-1.023416 -3.238619,-3.656861 -1.322546,-6.092753 2.26731,-2.882418 2.286379,-6.041496 0.04371,-7.241734 -2.400112,-1.284501 -2.178167,-2.727142 0.868642,-5.64617 3.277567,-3.1401084 3.277567,-4.2885573 0,-5.64617 C 17.199426,5.7097748 16.02676,4.9433182 16.02676,4.600213 c 0,-1.1486828 4.733797,-2.8020749 9.120736,-3.1856363 3.355965,-0.2934205 663.734994,3.6261046 664.747964,3.9454558 0.13045,0.041127 -0.40114,1.0489798 -1.18131,2.2396736 -0.78017,1.1906937 -1.19104,2.7576309 -0.91304,3.4820809 0.49953,1.301766 1.14835,1.658045 7.92344,4.350926 4.24456,1.687075 3.83094,2.016811 -7.13887,5.691153 -4.41195,1.477785 -8.90717,3.438144 -9.98938,4.356352 -1.90158,1.613412 -1.91334,1.711553 -0.35038,2.922646 0.8895,0.689245 3.82116,1.518944 6.51481,1.843776 7.24937,0.874213 7.98548,1.622421 3.34117,3.396099 -2.17982,0.832482 -4.82325,2.428959 -5.87428,3.547727 l -1.91096,2.034124 2.68686,2.686851 c 3.05485,3.054852 3.34621,3.87707 2.50272,7.062645 -0.37262,1.407269 -1.61139,2.696329 -3.23901,3.37051 -3.8301,1.58648 -3.97482,2.430425 -0.95167,5.549529 l 2.71061,2.796636 -2.61296,1.931841 c -3.07948,2.276762 -3.19142,3.042005 -0.87567,5.986012 2.54628,3.237061 2.15188,4.943652 -1.73728,7.517375 -4.02237,2.661874 -4.40126,4.495651 -1.22765,5.941642 2.09365,0.953932 2.14157,1.100789 0.70262,2.152982 -0.84937,0.62107 -2.15364,1.032004 -2.8984,0.913188 -0.74476,-0.118818 -150.60525,-0.314769 -333.02332,-0.435449 l 0,0 z"
       id="path5481"
       inkscape:connector-curvature="0"
       transform="translate(23.408649,300.18607)" />
    <path
       style="color:#000000;fill:#552200;fill-opacity:1;stroke:#000000;stroke-width:0.86864156;stroke-linecap:butt;stroke-linejoin:miter;stroke-miterlimit:4;stroke-opacity:1;stroke-dasharray:none;stroke-dashoffset:0;marker:none;visibility:visible;display:inline;overflow:visible;enable-background:accumulate"
       d="m 9.5459918,149.80166 c -0.60652,-0.73081 -0.9640337,-3.51629 -0.8640415,-6.73197 0.093813,-3.01694 -0.1153981,-6.88613 -0.4649125,-8.59821 -0.5768607,-2.82571 -0.2746273,-3.55589 3.2764232,-7.91562 l 3.911903,-4.80276 -3.170223,-1.5272 c -2.8754253,-1.38518 -3.0218706,-1.61841 -1.574857,-2.50807 4.598866,-2.82752 4.50655,-2.52674 2.382067,-7.76112 -1.708033,-4.20833 -1.849242,-5.39852 -1.070538,-9.02314 0.938253,-4.367273 0.593243,-5.693367 -2.837761,-10.907346 l -1.5719013,-2.388764 332.6420593,0 332.64205,0 4.95042,2.014049 c 4.93805,2.009013 4.94591,2.018132 3.14669,3.646404 -1.11626,1.010206 -1.70529,2.458971 -1.54545,3.80118 0.2056,1.726486 1.21878,2.553821 4.96773,4.056497 l 4.70945,1.88768 -5.38962,4.18541 -5.38961,4.18542 2.41744,1.93872 2.41745,1.93871 -2.38876,2.50753 c -3.72338,3.90849 -3.23563,6.10349 2.22787,10.02607 1.45425,1.0441 1.26917,1.35243 -2.38876,3.97936 -5.41041,3.88546 -5.22527,4.49579 1.68073,5.54072 1.28901,0.19504 0.44891,0.98978 -3.25741,3.08149 -2.74693,1.55027 -4.99441,3.37636 -4.99441,4.05798 0,0.68162 1.4219,1.75323 3.15977,2.38134 l 3.15978,1.14203 -3.37694,0.77545 c -4.27547,0.98178 -225.30188,1.97926 -474.29145,2.14045 -165.927047,0.10741 -192.22145,-0.0454 -193.1151882,-1.12229 z"
       id="path5483"
       inkscape:connector-curvature="0"
       transform="translate(23.408649,300.18607)" />
    <path
       style="color:#000000;fill:#552200;fill-opacity:1;stroke:#000000;stroke-width:0.86864156;stroke-linecap:butt;stroke-linejoin:miter;stroke-miterlimit:4;stroke-opacity:1;stroke-dasharray:none;stroke-dashoffset:0;marker:none;visibility:visible;display:inline;overflow:visible;enable-background:accumulate"
       d="m 13.072536,186.62565 -2.941514,-1.81884 3.123591,-3.19885 3.123591,-3.19885 -2.556029,-4.34251 c -3.225246,-5.47947 -3.221963,-6.90866 0.02027,-8.8239 3.486744,-2.05967 3.283638,-4.06142 -0.651481,-6.42077 l -3.2574056,-1.95303 2.6059246,-0.92225 c 1.815811,-0.64262 103.213737,-1.00279 334.426997,-1.18789 l 331.82107,-0.26565 -2.535,2.04759 c -3.08012,2.48789 -2.6559,4.23347 1.64565,6.77145 1.68352,0.99331 3.06096,1.89225 3.06096,1.99765 0,0.1054 -1.56356,2.28727 -3.47457,4.84861 -1.91101,2.56133 -3.47457,5.32766 -3.47457,6.14739 0,0.81972 1.3158,2.64569 2.92398,4.0577 l 2.92398,2.56729 -4.4441,1.54606 c -4.1454,1.44214 -12.8514,1.5904 -129.52848,2.20575 -68.79642,0.36283 -216.16145,0.90769 -327.47787,1.2108 l -202.393481,0.55109 -2.941514,-1.81884 z"
       id="path5485"
       inkscape:connector-curvature="0"
       transform="translate(23.408649,300.18607)" />
    <path
       style="color:#000000;fill:#552200;fill-opacity:1;stroke:#000000;stroke-width:0.86864156;stroke-linecap:butt;stroke-linejoin:miter;stroke-miterlimit:4;stroke-opacity:1;stroke-dasharray:none;stroke-dashoffset:0;marker:none;visibility:visible;display:inline;overflow:visible;enable-background:accumulate"
       d="M 291.37342,236.0609 C 190.56757,235.67994 87.685148,235.11264 62.745818,234.80022 l -45.344235,-0.56803 0.474701,-2.3735 c 0.429469,-2.14735 0.0116,-2.63487 -4.385493,-5.11644 -2.673106,-1.5086 -4.8601939,-3.27622 -4.8601939,-3.92804 0,-0.65181 0.8066654,-3.00871 1.7925899,-5.23756 l 1.792589,-4.05244 -2.00975,-1.63474 -2.0097497,-1.63475 4.2903907,-3.94718 4.290391,-3.94718 -3.796065,-1.69955 -3.7960647,-1.69955 3.1974007,-0.59983 c 3.481567,-0.65315 3.934855,-1.62642 1.837066,-3.94446 -1.278054,-1.41223 -0.870864,-1.53313 6.731971,-1.99877 27.123917,-1.66123 649.081544,-2.16946 656.386034,-0.53637 l 4.63034,1.03523 -4.41318,2.04466 c -5.3906,2.4975 -5.78577,4.60914 -1.37293,7.33642 1.67213,1.03344 3.04024,2.16606 3.04024,2.51695 0,0.35088 -1.36811,1.84919 -3.04024,3.32959 -1.67214,1.4804 -3.04025,3.46978 -3.04025,4.42085 0,0.95107 1.38614,3.38832 3.0803,5.4161 l 3.0803,3.68688 -3.0803,2.53904 c -3.59835,2.96606 -3.98161,5.77338 -1.25936,9.22468 l 1.82095,2.30861 -9.42156,0.54097 c -12.42325,0.71333 -150.19646,0.63238 -375.98829,-0.22091 z"
       id="path5487"
       inkscape:connector-curvature="0"
       transform="translate(23.408649,300.18607)" />
    <path
       style="color:#000000;fill:#552200;fill-opacity:1;stroke:#000000;stroke-width:0.86864156;stroke-linecap:butt;stroke-linejoin:miter;stroke-miterlimit:4;stroke-opacity:1;stroke-dasharray:none;stroke-dashoffset:0;marker:none;visibility:visible;display:inline;overflow:visible;enable-background:accumulate"
       d="M 592.35772,292.12126 C 302.60305,282.92129 25.602671,273.70413 17.506989,272.99317 c -4.556974,-0.40019 -5.687732,-0.83253 -6.861099,-2.62332 -1.0578138,-1.61442 -1.1583995,-2.39066 -0.407136,-3.14192 1.283467,-1.28347 1.265532,-3.69536 -0.05463,-7.3462 -0.9070378,-2.50837 -0.819828,-3.34219 0.631405,-6.03697 l 1.683799,-3.12663 -2.947367,-2.46057 -2.947367,-2.46057 2.2232237,-0.84527 c 1.2227733,-0.46489 3.6373843,-1.11056 5.3658013,-1.43482 3.996578,-0.74976 4.523536,-1.63976 2.05212,-3.46591 -1.842791,-1.36165 11.168746,-1.41869 203.030431,-0.89002 289.80222,0.79853 444.80325,1.88965 453.43089,3.19191 6.63946,1.00215 6.82611,1.0911 4.18839,1.99596 -4.17711,1.43294 -4.21619,1.91955 -0.35921,4.47199 1.95485,1.29365 3.54725,2.59333 3.53866,2.88815 -0.009,0.29483 -1.96302,1.80945 -4.3432,3.36581 -6.07217,3.97052 -5.43647,7.82171 1.53573,9.30357 1.5527,0.33001 2.82308,0.88051 2.82308,1.22335 0,0.34283 -1.56355,2.1501 -3.47456,4.01615 -3.74437,3.65628 -4.13754,5.40341 -2.46914,10.97202 1.25829,4.19981 0.0154,5.81093 -7.52024,9.74825 l -5.21185,2.72316 -15.63555,0.12985 c -8.59955,0.0714 -32.6392,-0.41003 -53.42145,-1.06988 l 0,0 z"
       id="path5489"
       inkscape:connector-curvature="0"
       transform="translate(23.408649,300.18607)" />
    <path
       style="color:#000000;fill:#552200;fill-opacity:1;stroke:#000000;stroke-width:0.86864156;stroke-linecap:butt;stroke-linejoin:miter;stroke-miterlimit:4;stroke-opacity:1;stroke-dasharray:none;stroke-dashoffset:0;marker:none;visibility:visible;display:inline;overflow:visible;enable-background:accumulate"
       d="M 517.22022,333.4464 C 453.20134,331.12453 316.58574,326.27133 213.63,322.66152 110.67426,319.05172 22.855552,315.86702 18.477312,315.58441 l -7.960437,-0.51382 -1.8329571,-4.26083 -1.8329568,-4.26082 1.7536793,-3.4375 c 1.3985486,-2.74138 1.5730076,-3.91269 0.8614995,-5.7841 -0.736879,-1.93814 -0.5848434,-2.67376 0.8734221,-4.22601 2.393998,-2.54829 2.233679,-3.48743 -0.986809,-5.78062 l -2.7524104,-1.95989 2.6900684,-0.92235 c 3.729753,-1.27882 4.185303,-1.96823 2.517984,-3.81059 -0.794368,-0.87777 -1.18286,-1.85739 -0.863316,-2.17693 1.659875,-1.65988 53.723133,-0.17599 502.366261,14.31827 l 142.02289,4.58831 7.59237,4.33244 c 4.17581,2.38284 8.67103,5.19753 9.98938,6.25485 l 2.39701,1.92242 -2.38877,2.50752 c -3.65324,3.83487 -3.10815,6.49963 2.07167,10.12771 1.70062,1.19117 1.71101,1.3278 0.2684,3.5295 -1.22015,1.86218 -1.31527,2.69733 -0.50884,4.46726 1.4933,3.27743 1.27338,3.79719 -2.26555,5.35456 -5.60914,2.46841 -32.20204,2.0561 -155.26968,-2.40739 z"
       id="path5491"
       inkscape:connector-curvature="0"
       transform="translate(23.408649,300.18607)" />
    <path
       style="color:#000000;fill:#552200;fill-opacity:1;stroke:#000000;stroke-width:0.86864156;stroke-linecap:butt;stroke-linejoin:miter;stroke-miterlimit:4;stroke-opacity:1;stroke-dasharray:none;stroke-dashoffset:0;marker:none;visibility:visible;display:inline;overflow:visible;enable-background:accumulate"
       d="M 618.85129,375.91429 C 603.56319,375.5252 516.7859,373.6248 426.01286,371.69118 205.4556,366.99291 35.155804,363.14148 20.791579,362.52685 5.7171998,361.88183 5.1560309,361.75781 5.1560309,359.07139 c 0,-1.81541 0.4107025,-2.15505 2.6059247,-2.15505 1.4889235,0 2.6193644,-0.46542 2.6372784,-1.0858 0.01724,-0.59719 -1.8142041,-4.62171 -4.0698852,-8.94337 -2.4810506,-4.75345 -3.8837299,-8.42438 -3.5506517,-9.29237 0.3028225,-0.78914 2.1342707,-1.86125 4.0698847,-2.38245 4.1100112,-1.10671 4.2883112,-1.88008 1.3281941,-5.761 l -2.1911044,-2.87268 2.8425855,-1.44583 c 3.879347,-1.97315 3.829724,-1.82742 1.475584,-4.33329 l -2.0977198,-2.23292 10.4187768,0.54543 c 5.730326,0.29998 78.433409,2.86946 161.562402,5.70996 188.8176,6.45184 406.55195,14.28889 446.04528,16.05478 27.65039,1.23635 40.73292,2.31158 42.66666,3.5067 0.42217,0.26091 0.76758,1.83936 0.76758,3.50765 0,2.37728 0.68144,3.65755 3.15096,5.91994 l 3.15097,2.88666 -3.80245,1.26748 c -4.66258,1.5542 -5.00685,3.71643 -1.01955,6.40347 l 2.78288,1.87539 -2.1314,2.00235 c -2.28911,2.1505 -2.66699,4.28757 -1.23221,6.96848 0.87099,1.62746 0.50988,1.67589 -11.5095,1.54348 -6.82479,-0.0752 -24.91714,-0.45503 -40.20523,-0.84411 z"
       id="path5493"
       inkscape:connector-curvature="0"
       transform="translate(23.408649,300.18607)" />
  </g>
 <script id="script_svg">document.oncontextmenu = new Function("return false");</script>
</svg>
