<?xml version="1.0" encoding="UTF-8" standalone="no"?>
<!-- Created with Inkscape (http://www.inkscape.org/) -->

<svg
   xmlns:dc="http://purl.org/dc/elements/1.1/"
   xmlns:cc="http://creativecommons.org/ns#"
   xmlns:rdf="http://www.w3.org/1999/02/22-rdf-syntax-ns#"
   xmlns:svg="http://www.w3.org/2000/svg"
   xmlns="http://www.w3.org/2000/svg"
   xmlns:sodipodi="http://sodipodi.sourceforge.net/DTD/sodipodi-0.dtd"
   xmlns:inkscape="http://www.inkscape.org/namespaces/inkscape"
   preserveAspectRatio="xMinYMin meet"
   viewBox="0 0 601.20055 490.79962"
   width="100%"
   height="100%"
   id="svg3035"
   version="1.1"
   inkscape:version="0.48.4 r9939"
   sodipodi:docname="herbe.svg">
  <defs
     id="defs3037" />
  <sodipodi:namedview
     id="base"
     pagecolor="#ffffff"
     bordercolor="#666666"
     borderopacity="1.0"
     inkscape:pageopacity="0.0"
     inkscape:pageshadow="2"
     inkscape:zoom="1.3630817"
     inkscape:cx="300.60028"
     inkscape:cy="245.39981"
     inkscape:document-units="px"
     inkscape:current-layer="layer1"
     showgrid="false"
     showguides="false"
     inkscape:window-width="1600"
     inkscape:window-height="838"
     inkscape:window-x="-8"
     inkscape:window-y="-8"
     inkscape:window-maximized="1"
     fit-margin-top="0"
     fit-margin-left="0"
     fit-margin-right="0"
     fit-margin-bottom="0">
    <inkscape:grid
       type="xygrid"
       id="grid3052"
       originx="-69.941965px"
       originy="-307.51279px"
       empspacing="5"
       visible="true"
       enabled="true"
       snapvisiblegridlinesonly="true" />
  </sodipodi:namedview>
  <metadata
     id="metadata3040">
    <rdf:RDF>
      <cc:Work
         rdf:about="">
        <dc:format>image/svg+xml</dc:format>
        <dc:type
           rdf:resource="http://purl.org/dc/dcmitype/StillImage" />
        <dc:title></dc:title>
      </cc:Work>
    </rdf:RDF>
  </metadata>
  <g
     inkscape:label="Calque 1"
     inkscape:groupmode="layer"
     id="layer1"
     transform="translate(-69.941965,-428.53761)">
    <path
       style="color:#000000;fill:#37c837;fill-opacity:1;stroke:#000000;stroke-width:3.90468931;stroke-linecap:butt;stroke-linejoin:miter;stroke-miterlimit:4;stroke-opacity:1;stroke-dasharray:none;stroke-dashoffset:0;marker:none;visibility:visible;display:inline;overflow:visible;enable-background:accumulate"
       d="m 527.01659,908.32483 c 0.60668,-14.37027 1.76852,-22.79461 4.83742,-35.07566 8.81547,-35.27744 31.547,-72.09964 64.17735,-103.95917 10.89563,-10.63824 19.25922,-17.89497 29.63377,-25.71192 13.35902,-10.06566 26.52777,-18.50157 38.78231,-24.84398 7.0932,-3.67112 6.31592,-3.84205 -2.93705,-0.64588 -32.21216,11.12674 -62.10614,33.66903 -89.35239,67.37835 -5.65367,6.99477 -12.16082,15.98405 -19.70001,27.21454 -3.22137,4.79859 -6.00939,8.73364 -6.19559,8.74455 -0.62731,0.0368 0.12931,-13.60867 0.98866,-17.83018 4.67268,-22.95437 25.71365,-65.7802 59.36964,-120.83826 4.66434,-7.63043 11.61212,-18.71573 15.43951,-24.634 3.82739,-5.91826 6.82039,-10.89899 6.6511,-11.06827 -0.48876,-0.48876 -9.77311,12.32827 -19.04477,26.29126 -12.90719,19.43805 -25.56223,40.87182 -50.2254,85.06644 -20.79677,37.26629 -37.39515,65.26409 -38.69158,65.26409 -1.32812,0 -3.99158,-1.31759 -3.99158,-1.97461 0,-3.19549 13.66407,-59.07115 18.68271,-76.39808 9.31709,-32.16741 19.80314,-57.41835 32.89357,-79.20941 2.39591,-3.98836 15.06277,-23.31657 28.14859,-42.95158 23.44383,-35.17702 36.076,-54.79686 35.59224,-55.28062 -0.34324,-0.34323 -9.89058,9.67404 -15.97067,16.75676 -43.29706,50.43692 -91.70346,133.85649 -128.68518,221.76535 l -5.74922,13.66641 -2.39782,0 -2.39783,0 -0.3807,-3.06797 c -1.07998,-8.70341 -1.70521,-25.86323 -1.38204,-37.93127 0.95541,-35.67791 7.36457,-65.01055 22.87742,-104.70262 6.96997,-17.83377 13.79444,-33.03035 33.26615,-74.07636 28.46434,-60.0023 38.61776,-81.78274 38.2815,-82.11899 -0.38768,-0.38769 -21.04661,36.96442 -33.54089,60.6432 -13.74359,26.04643 -33.56603,67.17387 -44.36066,92.0391 -27.17394,62.59471 -47.85723,125.2686 -61.11666,185.19383 -1.4595,6.59614 -2.67824,12.04186 -2.7083,12.10161 -0.0967,0.19218 -4.28539,-0.83786 -4.5718,-1.12426 -0.37933,-0.37933 5.2545,-25.1362 9.35279,-41.09924 4.39769,-17.12919 9.02853,-33.35309 14.28891,-50.06042 l 4.25799,-13.52369 -2.12175,-9.06773 C 439.29287,711.70094 425.60552,678.80924 405.36134,648.35 c -3.22399,-4.8508 -5.97291,-8.70853 -6.1087,-8.57273 -0.1358,0.13579 0.99315,2.72404 2.50877,5.75166 13.79446,27.55598 21.6648,52.76116 25.58119,81.92511 0.77031,5.73623 0.97337,11.33132 0.97173,26.77502 -0.002,17.13608 -0.15463,20.62985 -1.24974,28.57147 -1.41438,10.25695 -2.75302,17.35707 -5.20897,27.62816 l -1.70061,7.11211 -2.41515,0 c -2.79244,0 -2.32019,1.18459 -4.44752,-11.15625 -5.49151,-31.8568 -14.87139,-65.24594 -26.79644,-95.38598 -24.15938,-61.06183 -59.24102,-116.07042 -116.41918,-182.54717 -18.17273,-21.12807 -56.11737,-63.17007 -56.58844,-62.699 -0.13448,0.13448 9.9758,13.513 22.46729,29.73006 77.81227,101.01966 113.73193,153.69102 136.04602,199.49327 11.35638,23.31029 17.2829,40.7213 19.58459,57.53589 1.07338,7.84144 0.83223,18.93649 -0.54654,25.14557 -0.90884,4.09278 -4.56354,14.73484 -5.32801,15.51449 -0.24459,0.24945 -1.58683,-2.89546 -2.98276,-6.98869 -3.32671,-9.75473 -8.20424,-20.33191 -16.29906,-35.3454 C 322.22814,668.85664 236.57939,545.78507 174.4607,474.99072 c -19.27224,-21.96385 -41.65479,-44.79495 -43.60835,-44.48227 -0.99975,0.16002 -0.0969,1.3941 5.85161,7.99859 91.34133,101.41367 158.18071,200.65231 192.9214,286.43685 13.11132,32.37554 21.47079,63.79647 23.07697,86.73988 0.2792,3.98836 0.43617,7.32662 0.34881,7.41835 -0.0874,0.0917 -1.21293,0.21724 -2.50129,0.2789 l -2.34245,0.11213 -7.91989,-16.73438 C 300.20474,718.06569 260.99956,662.96087 207.1719,615.6582 c -14.27385,-12.54357 -37.75906,-31.64127 -38.27548,-31.12485 -0.13809,0.13809 0.69867,1.07644 1.85946,2.08522 5.56636,4.83742 41.54078,39.29517 48.6879,46.63524 39.67177,40.74272 64.90231,76.02847 81.75386,114.33551 3.41444,7.76172 9.16962,22.54592 9.16962,23.55539 0,0.37361 -3.48335,2.32889 -4.14896,2.32889 -0.11353,0 -2.77555,-4.07901 -5.91559,-9.06446 C 278.50316,729.79795 251.54358,696.66196 217.81479,663.02336 185.2479,630.54355 153.23366,603.66475 111.57278,573.82372 99.149399,564.92507 72.202799,546.79411 71.880219,547.11669 c -0.11714,0.11714 7.49589,6.2161 16.91785,13.55324 67.842811,52.8311 127.801581,109.61795 171.982351,162.88426 17.31747,20.8787 32.81699,43.71502 35.13029,51.75944 0.39531,1.37469 0.23614,1.69088 -1.33281,2.64753 -0.97996,0.59751 -1.95511,1.08733 -2.16702,1.08848 -0.21189,0.001 -7.73128,-7.96767 -16.70972,-17.70847 -35.48089,-38.49354 -47.86699,-50.34138 -66.5637,-63.67104 -6.70462,-4.78 -19.17147,-12.60317 -19.52337,-12.25127 -0.1208,0.12081 3.71753,3.56887 8.52963,7.66237 52.66265,44.79842 90.52841,94.94263 112.09672,148.44552 7.34809,18.22787 12.17656,33.89192 16.24898,52.71331 3.98766,18.42968 4.59065,21.17304 4.87366,22.17305 0.26174,0.92491 5.39609,0.97618 97.77354,0.97618 l 97.49729,0 0.38268,-9.06446 z"
       id="path4789"
       inkscape:connector-curvature="0" />
  </g>
 <script id="script_svg">document.oncontextmenu = new Function("return false");</script>
</svg>
