<?xml version="1.0" encoding="UTF-8" standalone="no"?>
<!-- Created with Inkscape (http://www.inkscape.org/) -->

<svg
   xmlns:dc="http://purl.org/dc/elements/1.1/"
   xmlns:cc="http://creativecommons.org/ns#"
   xmlns:rdf="http://www.w3.org/1999/02/22-rdf-syntax-ns#"
   xmlns:svg="http://www.w3.org/2000/svg"
   xmlns="http://www.w3.org/2000/svg"
   xmlns:sodipodi="http://sodipodi.sourceforge.net/DTD/sodipodi-0.dtd"
   xmlns:inkscape="http://www.inkscape.org/namespaces/inkscape"
   preserveAspectRatio="xMinYMin meet"
   viewBox="0 0 698.55621 699.63153"
   width="100%"
   height="100%"
   id="svg3045"
   version="1.1"
   inkscape:version="0.48.4 r9939"
   sodipodi:docname="soleil.svg">
  <defs
     id="defs3047" />
  <sodipodi:namedview
     id="base"
     pagecolor="#ffffff"
     bordercolor="#666666"
     borderopacity="1.0"
     inkscape:pageopacity="0.0"
     inkscape:pageshadow="2"
     inkscape:zoom="1.1512229"
     inkscape:cx="101.09394"
     inkscape:cy="427.16979"
     inkscape:document-units="px"
     inkscape:current-layer="layer1"
     showgrid="false"
     inkscape:window-width="1600"
     inkscape:window-height="838"
     inkscape:window-x="-8"
     inkscape:window-y="-8"
     inkscape:window-maximized="1"
     fit-margin-top="0"
     fit-margin-left="0"
     fit-margin-right="0"
     fit-margin-bottom="0" />
  <metadata
     id="metadata3050">
    <rdf:RDF>
      <cc:Work
         rdf:about="">
        <dc:format>image/svg+xml</dc:format>
        <dc:type
           rdf:resource="http://purl.org/dc/dcmitype/StillImage" />
        <dc:title />
      </cc:Work>
    </rdf:RDF>
  </metadata>
  <g
     inkscape:label="Calque 1"
     inkscape:groupmode="layer"
     id="layer1"
     transform="translate(-24.318169,-221.53883)">
    <path
       style="fill:none;stroke:#000000;stroke-width:3.93258452px;stroke-linecap:butt;stroke-linejoin:miter;stroke-opacity:1"
       d="m 199.13522,622.64985 c 154.19956,36.37493 303.63744,2.14573 355.27756,-35.57903"
       id="path3016"
       inkscape:connector-curvature="0"
       sodipodi:nodetypes="cc" />
    <path
       style="fill:none;stroke:#000000;stroke-width:3.93258452px;stroke-linecap:butt;stroke-linejoin:miter;stroke-opacity:1"
       d="m 211.11084,600.46484 c -9.64907,12.04913 -15.90018,14.81546 -13.97848,55.91399"
       id="path3018"
       inkscape:connector-curvature="0"
       sodipodi:nodetypes="cc" />
    <path
       style="fill:none;stroke:#000000;stroke-width:3.93258452px;stroke-linecap:butt;stroke-linejoin:miter;stroke-opacity:1"
       d="m 371.44577,674.04278 c 35.28755,8.20121 153.0478,-0.85879 126.88172,-32.25808"
       id="path3020"
       inkscape:connector-curvature="0"
       sodipodi:nodetypes="cc" />
    <path
       style="fill:none;stroke:#000000;stroke-width:3.93258452px;stroke-linecap:butt;stroke-linejoin:miter;stroke-opacity:1"
       d="m 163.74003,521.2253 c 37.32425,-56.84452 90.01965,-104.54192 158.24338,-68.68792"
       id="path3022"
       inkscape:connector-curvature="0"
       sodipodi:nodetypes="cc" />
    <path
       style="fill:none;stroke:#000000;stroke-width:3.93258452px;stroke-linecap:butt;stroke-linejoin:miter;stroke-opacity:1"
       d="m 459.61781,425.65569 c 11.27109,-9.1639 72.381,-39.61015 100.5473,7.39757"
       id="path3024"
       inkscape:connector-curvature="0"
       sodipodi:nodetypes="cc" />
    <g
       id="g3072"
       style="fill:none">
      <path
         sodipodi:nodetypes="ccccccccccccccccc"
         inkscape:connector-curvature="0"
         id="path3026"
         d="M 53.166188,708.45137 C 87.84486,654.4919 68.742018,610.49195 26.284461,570.81697 63.741974,546.49075 86.164468,510.88824 55.316728,435.33308 139.43403,419.61033 124.01897,369.56611 129.51028,326.73094 c 43.93203,1.33583 88.69908,5.36216 107.52687,-74.19355 47.34953,24.70257 92.77934,23.48874 134.40862,-29.03227 59.41812,64.45263 99.56752,56.11221 133.33332,23.65592 22.90404,71.99263 64.31081,86.42129 112.90323,78.49462 0.9703,66.48623 23.41816,105.17802 73.11832,108.60217 -5.21694,39.50088 -44.60366,55.89948 30.10746,136.55914 -50.2071,33.95995 -49.92663,81.51272 -25.80648,135.48386 -43.13419,19.04598 -87.94076,36.33598 -75.26876,113.97849 -43.55778,-5.88315 -86.42412,-9.08707 -107.52688,72.04301 -70.13146,-34.98899 -106.06624,-8.91246 -136.55915,26.88173 -63.23477,-63.18098 -99.2401,-44.67373 -134.40861,-23.65591 -43.42552,-101.2922 -76.53245,-75.32228 -111.82794,-76.34408 2.13582,-50.7095 -4.93013,-96.8181 -76.344092,-110.7527 z"
         style="fill:none;stroke:#000000;stroke-width:3.93258452px;stroke-linecap:butt;stroke-linejoin:miter;stroke-opacity:1" />
    </g>
    <path
       style="color:#000000;fill:#ffcc00;fill-opacity:1;stroke:#000000;stroke-width:4.34320784;stroke-linecap:butt;stroke-linejoin:miter;stroke-miterlimit:4;stroke-opacity:1;stroke-dasharray:none;stroke-dashoffset:0;marker:none;visibility:visible;display:inline;overflow:visible;enable-background:accumulate"
       d="m 344.38484,687.71583 c -14.65964,-13.30578 -25.40053,-20.90545 -38.55209,-27.27739 -26.12315,-12.65666 -48.76728,-11.22639 -78.55318,4.96167 -4.90342,2.6649 -9.02985,4.72066 -9.16987,4.56835 -0.14002,-0.15232 -2.59318,-5.21565 -5.45148,-11.25185 -17.19193,-36.30614 -35.60448,-57.17999 -55.84288,-63.30769 -8.22716,-2.49097 -16.40867,-2.83158 -32.32578,-1.34576 -8.01021,0.74772 -15.19903,1.35951 -15.97515,1.35951 -1.23139,0 -1.35014,-0.96814 -0.93226,-7.60062 0.61299,-9.72937 -0.68879,-27.04284 -2.78983,-37.10408 -6.376274,-30.53405 -23.972141,-49.85942 -55.208826,-60.63533 -4.777528,-1.64814 -10.246993,-3.28234 -12.154366,-3.63157 -1.907372,-0.34923 -3.751193,-0.81001 -4.097377,-1.02396 -0.346185,-0.21396 0.494753,-2.23064 1.868751,-4.48151 3.892775,-6.37713 9.365351,-19.92336 11.500092,-28.46611 2.736893,-10.95242 2.752344,-28.84302 0.03429,-39.70983 -4.649535,-18.58892 -14.083101,-34.50332 -32.25065,-54.40675 l -8.2528084,-9.04135 2.1262926,-1.38235 c 4.0344248,-2.62286 13.4398718,-10.69026 17.1578968,-14.71696 9.213183,-9.97807 16.751528,-23.29064 19.722053,-34.82875 1.845682,-7.169 2.818838,-22.47033 2.040303,-32.08055 -0.893073,-11.02408 -3.818905,-24.12875 -8.512529,-38.12724 -2.286137,-6.81829 -3.914424,-12.53235 -3.618415,-12.69791 0.296009,-0.16557 2.688086,-0.77567 5.315727,-1.35577 24.383823,-5.38329 44.14583,-17.14931 53.324037,-31.74842 7.752389,-12.33113 10.383909,-23.07978 11.802869,-48.2096 0.47209,-8.36068 1.09015,-17.742 1.37345,-20.8474 l 0.51511,-5.64617 13.18175,0.26825 c 14.20941,0.28916 26.75608,-0.74526 36.02573,-2.97017 8.08998,-1.94178 20.44967,-8.089159 26.7466,-13.303067 12.42526,-10.288214 22.4815,-27.798278 29.06893,-50.615212 l 1.9297,-6.683934 4.87476,2.458622 c 17.98671,9.071744 42.18743,13.713909 59.48148,11.409692 21.73708,-2.896197 39.13364,-12.348851 58.31667,-31.687166 l 10.4237,-10.5080729 8.1409,8.0657219 c 18.88438,18.709999 37.89437,31.095472 55.70426,36.292692 8.6828,2.533784 26.06337,2.356378 34.74566,-0.354652 8.68187,-2.710901 16.22732,-6.761353 25.33053,-13.597621 4.13786,-3.107421 7.72327,-5.649857 7.96757,-5.649857 0.2443,0 0.91812,1.465833 1.49738,3.257406 3.27228,10.120819 8.64463,21.539962 15.01856,31.922576 10.07841,16.416899 24.31917,29.197492 39.81545,35.732992 11.98533,5.05478 22.13204,6.62982 39.89342,6.19256 l 15.29656,-0.37659 0.57953,9.54188 c 2.3127,38.07805 12.73509,65.16789 31.36955,81.53567 8.46179,7.43249 22.79338,13.85189 33.81767,15.14759 6.87767,0.80833 7.14818,1.10836 5.78716,6.4188 -0.62918,2.45488 -3.3858,10.59084 -6.12583,18.0799 -2.74003,7.48907 -5.48629,16.30453 -6.10279,19.58991 -1.48828,7.93118 -0.67393,21.781 1.71731,29.20656 5.12706,15.92122 17.51808,35.38473 35.00221,54.98063 3.32274,3.72408 5.89605,6.87293 5.71847,6.99747 -20.92883,14.67708 -34.39126,34.42974 -38.5845,56.61286 -1.90163,10.0601 -1.29172,29.21325 1.31323,41.23908 1.94313,8.97048 5.85296,21.33275 9.70302,30.67935 l 2.43983,5.92308 -4.10142,1.75831 c -10.54308,4.5199 -29.07355,14.00144 -35.12745,17.97375 -8.70579,5.71237 -19.70683,16.26975 -24.55925,23.56883 -4.49711,6.76464 -8.68006,16.76092 -10.67538,25.5118 -1.50266,6.5902 -2.06885,32.01793 -0.88358,39.68228 l 0.60979,3.94315 -10.16485,-1.16569 c -12.09772,-1.38735 -30.24815,-0.86787 -38.3957,1.09891 -3.10539,0.74963 -9.31239,3.14136 -13.79334,5.31494 -13.71722,6.65388 -25.6935,20.06937 -34.03553,38.12567 -3.42793,7.41974 -9.50147,24.62733 -9.50147,26.91964 0,1.01417 -1.03428,0.81395 -4.99469,-0.96691 -40.77158,-18.33356 -73.23333,-17.57169 -102.48012,2.40521 -3.71336,2.53639 -11.55255,9.40643 -17.42043,15.26675 -5.86789,5.86032 -10.78939,10.65513 -10.93669,10.65513 -0.1473,0 -3.17478,-2.6385 -6.72774,-5.86333 z M 411.3727,456.4074 c 34.32763,-3.07672 59.44171,-10.71235 66.13076,-20.10625 2.58488,-3.63012 3.06994,-9.21727 1.15124,-13.26062 -1.77421,-3.73886 -3.48609,-4.70945 -5.2302,-2.96535 -1.05331,1.05332 -0.97656,1.72505 0.54957,4.80961 1.62112,3.27658 1.66601,3.84345 0.52129,6.58312 -3.60302,8.62327 -25.8713,16.04549 -59.6481,19.88127 -13.47141,1.52984 -52.26728,1.52718 -60.64447,-0.004 -3.49491,-0.63888 -6.47573,-1.02424 -6.62406,-0.85638 -0.14833,0.16788 -0.5359,1.1717 -0.86127,2.23073 -0.67955,2.21182 -0.0113,2.48058 9.06218,3.64464 8.23546,1.05655 43.97779,1.08445 55.59306,0.0434 l 0,1.4e-4 z M 175.2334,420.463 c 0.16671,-8.32129 0.59723,-15.42338 0.95669,-15.78242 0.35947,-0.35903 6.61369,0.58053 13.89827,2.08793 85.38455,17.6686 180.08467,15.8416 259.93888,-5.01489 23.18199,-6.05471 44.42899,-13.74576 61.09078,-22.11382 8.60732,-4.32286 20.12721,-11.50356 20.12721,-12.54592 0,-0.36329 -0.51252,-1.36144 -1.13893,-2.21811 -1.06411,-1.45526 -1.55558,-1.28804 -7.48207,2.54578 -8.06686,5.21842 -26.76515,14.22362 -38.81726,18.6946 -65.82014,24.41734 -156.07844,33.55705 -239.5469,24.25695 -17.91674,-1.99629 -37.19544,-5.00864 -52.68904,-8.23279 -13.74238,-2.85973 -13.86291,-2.89822 -13.86291,-4.42674 0,-2.16521 3.14652,-7.59221 7.27691,-12.55091 3.9384,-4.72823 3.93865,-4.72897 2.20239,-6.46606 -1.73639,-1.73719 -1.73667,-1.73706 -5.56256,2.60593 -4.78457,5.43124 -8.71666,13.26989 -9.88921,19.71418 -1.34285,7.3804 -2.16742,24.04487 -1.46709,29.65011 0.55006,4.40255 0.83035,4.9258 2.63859,4.9258 l 2.02314,0 0.30311,-15.12962 z M 146.81095,293.39555 c 11.53585,-16.82535 25.27861,-32.57723 38.66791,-44.32096 33.2812,-29.19089 69.31522,-35.49046 105.45925,-18.43668 4.87075,2.29816 6.09198,2.58883 6.71867,1.59915 1.46511,-2.3137 0.76548,-3.36557 -3.76785,-5.66479 -12.54934,-6.36478 -27.71295,-9.89128 -42.7806,-9.94919 -21.11515,-0.0811 -40.0075,6.67994 -60.20347,21.5453 -14.4775,10.65625 -35.22736,33.2295 -48.30055,52.54495 -4.31464,6.37482 -4.94697,7.77786 -4.01272,8.90357 0.60996,0.73496 1.54977,1.32636 2.08846,1.31423 0.5387,-0.0122 3.2976,-3.40314 6.1309,-7.53558 l 0,0 z m 390.28357,-82.1424 c 2.59901,-2.00814 -12.4679,-17.74378 -20.73982,-21.66037 -15.5637,-7.36906 -33.9242,-7.74732 -54.23237,-1.1173 -11.8252,3.86058 -28.16495,12.10696 -28.16495,14.21433 0,0.35391 0.53141,1.37024 1.18093,2.25851 1.14761,1.56943 1.2518,1.56612 3.69173,-0.11724 17.99577,-12.41578 46.55503,-19.14479 63.87572,-15.05011 10.8954,2.57572 22.24012,10.37475 28.65587,19.69972 2.51098,3.64958 3.07697,3.82457 5.73289,1.77246 z"
       id="path6042"
       inkscape:connector-curvature="0"
       transform="translate(24.318169,221.53883)" />
  </g>
 <script id="script_svg">document.oncontextmenu = new Function("return false");</script>
</svg>
